<svg width="147" height="147" viewBox="0 0 147 147" fill="none" xmlns="http://www.w3.org/2000/svg">
<circle cx="73.5" cy="73.5" r="73.5" fill="#4B4B49"/>
<g clip-path="url(#clip0)">
<path d="M100.926 15H53.1489C48.5668 15 44.8705 18.654 44.8705 23.1751V122.856C44.8705 127.377 48.5668 131.031 53.1489 131.031H100.926C105.508 131.031 109.204 127.377 109.204 122.856V23.1751C109.204 18.654 105.477 15 100.926 15Z" fill="url(#paint0_linear)"/>
<path d="M99.7648 128.956H54.7068C50.3996 128.956 46.8866 125.426 46.8866 121.029V24.3828C46.8866 20.0166 50.369 16.4554 54.7068 16.4554H99.7648C104.072 16.4554 107.585 19.9856 107.585 24.3828V121.06C107.585 125.426 104.072 128.956 99.7648 128.956Z" fill="url(#paint1_linear)"/>
<path d="M101.262 125.953C88.6454 125.953 65.8568 125.953 53.21 125.953C51.0716 125.953 49.7275 124.528 49.7275 122.453C49.7275 97.3087 49.7275 49.5276 49.7275 24.3829C49.7275 22.432 51.2855 20.8837 52.9045 20.8837C54.7679 20.8837 59.4112 20.8837 59.4112 20.8837C59.8388 20.8837 60.2665 21.1004 60.5109 21.472L61.4579 22.8345C62.0688 23.7326 63.1075 24.259 64.1766 24.29L90.7837 24.3829C91.7612 24.3829 92.6777 23.9493 93.3192 23.2061L94.8771 21.3791C95.1215 21.0695 95.4881 20.9146 95.8852 20.9146C95.8852 20.9146 99.887 20.9146 101.537 20.9146C102.789 20.9146 104.713 21.6578 104.713 24.1042C104.713 49.2489 104.713 97.3396 104.713 122.484C104.713 124.528 103.4 125.953 101.262 125.953Z" fill="#FFD954"/>
<path d="M104.713 115.083H49.7275V30.2975L104.713 115.083Z" fill="#FFD954"/>
<path d="M88.9765 21.5857C89.5133 21.0415 89.5133 20.1592 88.9765 19.615C88.4396 19.0708 87.5693 19.0708 87.0324 19.615C86.4956 20.1592 86.4956 21.0415 87.0324 21.5857C87.5693 22.1299 88.4396 22.1299 88.9765 21.5857Z" fill="#BFBEBE"/>
<path d="M82.3605 21.6578H70.508C69.8665 21.6578 69.3472 21.1313 69.3472 20.481C69.3472 19.8307 69.8665 19.3043 70.508 19.3043H82.3605C83.002 19.3043 83.5213 19.8307 83.5213 20.481C83.4908 21.1313 82.9715 21.6578 82.3605 21.6578Z" fill="#BFBEBE"/>
<path d="M91.7919 124.528H66.1318C65.4903 124.528 64.9709 124.002 64.9709 123.351C64.9709 122.701 65.4903 122.175 66.1318 122.175H91.7919C92.4334 122.175 92.9527 122.701 92.9527 123.351C92.9221 124.002 92.4028 124.528 91.7919 124.528Z" fill="black"/>
<path opacity="0.38" d="M36.4393 55.7207H40.716H44.3817L50.5218 38.5963C51.0717 37.0789 52.7518 36.2738 54.2486 36.8312L112.106 58.167C113.603 58.7244 114.397 60.4276 113.847 61.9449L101.109 97.4014C100.651 98.671 99.4288 99.4142 98.1763 99.3213C98.1152 99.3213 98.0541 99.3213 97.993 99.3213H95.4881H86.5376H36.4393C34.8508 99.3213 33.5373 97.9898 33.5373 96.3795V91.4868V82.5376V58.6625C33.5067 57.0522 34.8203 55.7207 36.4393 55.7207Z" fill="#A6A6A6"/>
<path d="M37.7834 70.1511L44.3512 51.8499L50.5218 34.6946C51.0717 33.1772 52.7518 32.3721 54.2486 32.9295L112.106 54.2653C113.603 54.8227 114.397 56.5258 113.847 58.0432L101.109 93.4997C100.651 94.7693 99.4288 95.5125 98.1763 95.4196C97.9014 95.3886 97.657 95.3577 97.3821 95.2648L96.2213 94.8312L76.6707 87.6161L52.3547 78.6668L39.5246 73.9289C38.0278 73.3716 37.2335 71.6684 37.7834 70.1511Z" fill="#B1D3EF"/>
<path d="M65.3374 87.6161H76.6707L97.8889 95.4506C97.7446 95.3973 96.0009 95.4506 95.5186 95.4506H86.5681H36.4393C34.8508 95.4506 33.5372 94.119 33.5372 92.5088V87.6161H65.3374Z" fill="url(#paint2_linear)"/>
<path d="M36.4393 51.819H40.716H44.3817L37.8139 70.1201C37.2641 71.6374 38.0583 73.3406 39.5552 73.898L52.3852 78.6358H41.052H33.5067V54.7608C33.5067 53.1505 34.8203 51.819 36.4393 51.819Z" fill="url(#paint3_linear)"/>
<path d="M41.052 78.6669H52.3547L76.6401 87.6162H65.3375H33.5067V78.6669H41.052Z" fill="url(#paint4_linear)"/>
<path d="M97.3821 95.2648C97.657 95.3577 97.9014 95.4196 98.1764 95.4196C98.1153 95.4196 98.0542 95.4196 97.9931 95.4196H95.4882C95.7325 95.2338 95.9769 95.0171 96.1908 94.8003L97.3821 95.2648Z" fill="#FDDF00"/>
<path d="M34.5759 68.8504L40.6855 51.8499H44.3512L37.7835 70.151C37.2336 71.6683 38.0278 73.3715 39.5247 73.9289L52.3547 78.6667L76.6402 87.616L97.889 95.4505C97.4862 95.4505 95.8751 95.4505 95.4882 95.4505H86.5377L65.3375 87.616L41.0521 78.6667L38.6999 77.7997C35.1564 76.4681 33.2929 72.4425 34.5759 68.8504Z" fill="#4B4B4B" fill-opacity="0.5"/>
<path d="M58.2741 74.9884L68.7517 78.8539L70.3502 74.4017L59.8726 70.5362L58.2741 74.9884Z" fill="white"/>
<path d="M43.8188 69.683L54.2964 73.5486L55.8948 69.0964L45.4172 65.2309L43.8188 69.683Z" fill="white"/>
<path d="M52.538 50.3636L61.3663 53.615C62.466 54.0176 63.7185 53.4292 64.1156 52.3145L66.254 46.3689C66.6511 45.2541 66.0707 43.9845 64.971 43.5819L56.1427 40.3305C55.0429 39.9279 53.7905 40.5163 53.3934 41.6311L51.255 47.5766C50.8579 48.6914 51.4383 49.93 52.538 50.3636Z" fill="#FFCD17"/>
<path d="M87.163 85.6571L97.6406 89.5226L99.2391 85.0704L88.7615 81.2049L87.163 85.6571Z" fill="white"/>
<path d="M72.7184 80.3227L83.196 84.1882L84.7945 79.7361L74.3169 75.8705L72.7184 80.3227Z" fill="white"/>
<path d="M98.7262 61.2948C99.551 59.0033 99.1539 56.526 97.8709 54.668C99.2455 54.2964 100.712 54.3273 102.148 54.8538C105.844 56.2163 107.768 60.3658 106.424 64.1127C105.08 67.8596 100.987 69.8105 97.2905 68.448C95.8547 67.9216 94.6939 66.9926 93.8997 65.8159C96.038 65.2275 97.9014 63.5863 98.7262 61.2948Z" fill="#EF5766"/>
<path d="M85.3157 56.3402C86.6598 52.5932 90.7532 50.6423 94.4495 52.0049C95.8852 52.5313 97.046 53.4603 97.8402 54.637C95.6714 55.2254 93.808 56.8356 92.9832 59.1581C92.1584 61.4496 92.5555 63.9269 93.8385 65.7849C92.4639 66.1565 90.9976 66.1255 89.5618 65.5991C85.8655 64.2675 83.9716 60.0871 85.3157 56.3402Z" fill="#60A3D8"/>
<path d="M98.7261 61.2948C99.8281 58.2252 99.4363 55.2627 97.851 54.6778C96.2656 54.0929 94.087 56.1071 92.9849 59.1767C91.8829 62.2463 92.2747 65.2088 93.8601 65.7937C95.4454 66.3786 97.624 64.3644 98.7261 61.2948Z" fill="#2D64AE"/>
</g>
<defs>
<linearGradient id="paint0_linear" x1="77.0373" y1="15" x2="77.0373" y2="131.031" gradientUnits="userSpaceOnUse">
<stop stop-color="#ECEAEA"/>
<stop offset="1" stop-color="#AFAFAF"/>
</linearGradient>
<linearGradient id="paint1_linear" x1="77.2358" y1="16.4554" x2="77.2358" y2="128.956" gradientUnits="userSpaceOnUse">
<stop stop-color="white"/>
<stop offset="1" stop-color="#FFFCFC"/>
</linearGradient>
<linearGradient id="paint2_linear" x1="96.216" y1="91.5282" x2="33.5198" y2="91.5282" gradientUnits="userSpaceOnUse">
<stop stop-color="#143B66"/>
<stop offset="1" stop-color="#007FC4"/>
</linearGradient>
<linearGradient id="paint3_linear" x1="52.3656" y1="65.2434" x2="33.5198" y2="65.2434" gradientUnits="userSpaceOnUse">
<stop stop-color="#143B66"/>
<stop offset="1" stop-color="#007FC4"/>
</linearGradient>
<linearGradient id="paint4_linear" x1="76.6504" y1="83.1353" x2="33.5199" y2="83.1353" gradientUnits="userSpaceOnUse">
<stop stop-color="#1C5795"/>
<stop offset="0.3167" stop-color="#203B70"/>
</linearGradient>
<clipPath id="clip0">
<rect width="87" height="116" fill="white" transform="translate(27 15)"/>
</clipPath>
</defs>
</svg>
