<svg width="147" height="147" viewBox="0 0 147 147" fill="none" xmlns="http://www.w3.org/2000/svg">
<circle cx="73.5" cy="73.5" r="73.5" fill="#4B4B49"/>
<path d="M84.2441 122H102.246C106.234 122 109.504 118.734 109.504 114.75V91.9233C104.51 104.988 95.4907 115.647 84.2441 122Z" fill="url(#paint0_linear)"/>
<path d="M73.752 13C58.1577 13 45.4019 27.2129 45.4019 44.5484V57.6658H51.3306V44.3689C51.3306 30.6585 61.4274 19.4245 73.752 19.4245C86.0766 19.4245 96.1733 30.6585 96.1733 44.3689V57.6658H102.102V44.5484C102.102 27.2129 89.3463 13 73.752 13Z" fill="white"/>
<path d="M102.246 57.6655H102.102H96.1733H51.3306H45.4019H45.2582C41.2698 57.6655 38 60.9316 38 64.9155V114.75C38 118.734 41.2698 122 45.2582 122H84.2081C97 117 106 107 109.468 91.9229V64.9155C109.504 60.9316 106.234 57.6655 102.246 57.6655ZM73.752 74.1967C78.6746 74.1967 82.663 78.1806 82.663 83.0977C82.663 86.8304 80.3634 90.0247 77.0936 91.3527V102.443V104.597H70.4104V102.443V91.3527C67.1406 90.0247 64.8409 86.8304 64.8409 83.0977C64.8409 78.1806 68.8294 74.1967 73.752 74.1967Z" fill="url(#paint1_linear)"/>
<path d="M82.6632 83.0983C82.6632 78.1812 78.6748 74.1973 73.7521 74.1973C68.8295 74.1973 64.8411 78.1812 64.8411 83.0983C64.8411 86.831 67.1407 90.0253 70.4105 91.3532V102.444C71.4884 102.623 72.6382 102.731 73.7521 102.731C74.9019 102.731 76.0158 102.623 77.0938 102.444V91.3532C80.3635 90.0253 82.6632 86.831 82.6632 83.0983Z" fill="#BA5A24"/>
<path d="M70.4103 102.443V104.596H77.1296V102.443C76.0516 102.622 74.9018 102.73 73.7879 102.73C72.6022 102.73 71.4883 102.658 70.4103 102.443Z" fill="#FFE975"/>
<defs>
<linearGradient id="paint0_linear" x1="84.216" y1="107.176" x2="109.504" y2="122" gradientUnits="userSpaceOnUse">
<stop stop-color="#FFDA54"/>
<stop offset="1" stop-color="#FF8854"/>
</linearGradient>
<linearGradient id="paint1_linear" x1="38" y1="92.015" x2="109.505" y2="92.015" gradientUnits="userSpaceOnUse">
<stop offset="0.09375" stop-color="#FFDA54"/>
<stop offset="1" stop-color="#FF8854"/>
</linearGradient>
</defs>
</svg>
