<svg width="232" height="37" viewBox="0 0 232 37" fill="none" xmlns="http://www.w3.org/2000/svg">
<rect width="232" height="37" rx="15" fill="white"/>
<path fill-rule="evenodd" clip-rule="evenodd" d="M167.593 9V9.0083C167.585 9.0083 164.898 9 164.182 11.4974C163.525 13.7873 161.674 20.1096 161.623 20.2838H161.111C161.111 20.2838 159.218 13.8205 158.553 11.4891C157.836 8.9917 155.141 9 155.141 9H149V28H155.141V16.7162H155.397H155.653L159.235 28H163.499L167.082 16.7245H167.593V28H173.734V9H167.593Z" fill="#4DB45E"/>
<path fill-rule="evenodd" clip-rule="evenodd" d="M190.025 9C190.025 9 188.225 9.15764 187.381 10.9913L183.031 20.2838H182.519V9H176.378V28H182.178C182.178 28 184.063 27.8341 184.907 26.0087L189.172 16.7162H189.684V28H195.825V9H190.025Z" fill="#4DB45E"/>
<path fill-rule="evenodd" clip-rule="evenodd" d="M198.554 17.6289V28.0001H204.695V21.9433H211.347C214.247 21.9433 216.704 20.1429 217.616 17.6289H198.554Z" fill="#4DB45E"/>
<path fill-rule="evenodd" clip-rule="evenodd" d="M211.347 9H197.692C198.375 12.6175 201.164 15.5214 204.771 16.4672C205.59 16.683 206.452 16.7991 207.339 16.7991H217.864C217.957 16.3677 218 15.9279 218 15.4716C218 11.8956 215.023 9 211.347 9Z" fill="url(#paint0_linear)"/>
<g clip-path="url(#clip0)">
<path d="M37.5666 27.7258H32.7872L35.7766 9.33325H40.5558L37.5666 27.7258Z" fill="#00579F"/>
<path d="M54.8924 9.78292C53.9497 9.41077 52.4544 8.99988 50.6056 8.99988C45.8858 8.99988 42.5621 11.5043 42.5417 15.0848C42.5025 17.7265 44.9214 19.1937 46.7305 20.0745C48.5796 20.9746 49.2081 21.5621 49.2081 22.3644C49.1893 23.5965 47.714 24.1645 46.3379 24.1645C44.4298 24.1645 43.4073 23.8717 41.8536 23.1862L41.2242 22.8923L40.5554 27.021C41.6764 27.5292 43.7416 27.9801 45.8858 27.9999C50.9007 27.9999 54.1655 25.5343 54.2042 21.7186C54.2233 19.6249 52.946 18.0206 50.1924 16.7096C48.5208 15.8681 47.497 15.3006 47.497 14.4396C47.5166 13.6568 48.3629 12.855 50.2499 12.855C51.8037 12.8157 52.9453 13.1874 53.8101 13.5593L54.2424 13.7546L54.8924 9.78292Z" fill="#00579F"/>
<path d="M61.2446 21.2099C61.6382 20.1533 63.1528 16.0639 63.1528 16.0639C63.1329 16.1031 63.5456 14.9877 63.7816 14.303L64.1156 15.8878C64.1156 15.8878 65.0207 20.2904 65.2172 21.2099C64.4703 21.2099 62.1887 21.2099 61.2446 21.2099ZM67.1442 9.33325H63.4473C62.3073 9.33325 61.4412 9.66561 60.9493 10.8593L53.8501 27.7255H58.865C58.865 27.7255 59.6906 25.4554 59.8681 24.9665C60.4182 24.9665 65.2967 24.9665 66.0044 24.9665C66.1417 25.6122 66.5747 27.7255 66.5747 27.7255H71L67.1442 9.33325Z" fill="#00579F"/>
<path d="M28.7952 9.33325L24.1146 21.8752L23.6031 19.3315C22.7377 16.3965 20.0238 13.2076 16.9952 11.622L21.2825 27.7063H26.3366L33.849 9.33325H28.7952Z" fill="#00579F"/>
<path d="M19.7683 9.33325H12.0787L12 9.70488C17.9984 11.2312 21.971 14.9102 23.6032 19.3323L21.9315 10.8793C21.6563 9.70462 20.8106 9.372 19.7683 9.33325Z" fill="#FAA61A"/>
</g>
<path d="M115.104 11.2373H105.694V27.6885H115.104V11.2373Z" fill="#FF5F00"/>
<path d="M106.292 19.4648C106.29 17.8802 106.659 16.316 107.371 14.8906C108.082 13.4652 109.118 12.2161 110.399 11.2377C108.813 10.0248 106.908 9.27051 104.901 9.06115C102.895 8.85178 100.869 9.19575 99.0537 10.0537C97.2388 10.9117 95.7087 12.2491 94.6382 13.9131C93.5677 15.577 93 17.5004 93 19.4634C93 21.4264 93.5677 23.3497 94.6382 25.0137C95.7087 26.6776 97.2388 28.015 99.0537 28.873C100.869 29.731 102.895 30.075 104.901 29.8656C106.908 29.6562 108.813 28.902 110.399 27.6891C109.118 26.711 108.083 25.4623 107.371 24.0374C106.66 22.6126 106.291 21.049 106.292 19.4648Z" fill="#EB001B"/>
<path d="M127.8 19.4643C127.8 21.4274 127.232 23.3509 126.162 25.0148C125.091 26.6788 123.561 28.0162 121.746 28.874C119.931 29.7319 117.904 30.0756 115.898 29.8659C113.891 29.6563 111.986 28.9017 110.399 27.6884C111.68 26.7095 112.715 25.4605 113.427 24.0356C114.139 22.6107 114.509 21.0471 114.509 19.4629C114.509 17.8787 114.139 16.3151 113.427 14.8902C112.715 13.4653 111.68 12.2163 110.399 11.2374C111.986 10.0241 113.891 9.26951 115.898 9.05984C117.904 8.85018 119.931 9.19392 121.746 10.0518C123.561 10.9096 125.091 12.247 126.162 13.9109C127.232 15.5749 127.8 17.4984 127.8 19.4614V19.4643Z" fill="#F79E1B"/>
<path d="M126.773 25.9448V25.6074H126.913V25.5376H126.558V25.6074H126.71V25.9448H126.773ZM127.463 25.9448V25.5376H127.355L127.23 25.8285L127.104 25.5376H127.009V25.9448H127.086V25.6394L127.203 25.9041H127.284L127.4 25.6394V25.9478L127.463 25.9448Z" fill="#F79E1B"/>
<defs>
<linearGradient id="paint0_linear" x1="197.694" y1="12.8996" x2="218" y2="12.8996" gradientUnits="userSpaceOnUse">
<stop offset="0.3" stop-color="#00B4E6"/>
<stop offset="1" stop-color="#088CCB"/>
</linearGradient>
<clipPath id="clip0">
<rect width="59" height="19" fill="white" transform="translate(12 9)"/>
</clipPath>
</defs>
</svg>
