<?xml version="1.0" encoding="utf-8"?>
<!-- Generator: Adobe Illustrator 24.0.2, SVG Export Plug-In . SVG Version: 6.00 Build 0)  -->
<svg version="1.1" id="Слой_1" xmlns="http://www.w3.org/2000/svg" xmlns:xlink="http://www.w3.org/1999/xlink" x="0px" y="0px"
	 viewBox="0 0 2691 217.9" style="enable-background:new 0 0 2691 217.9;" xml:space="preserve">
<style type="text/css">
	.st0{fill:none;stroke:#727272;stroke-width:2.4622;stroke-opacity:0.25;}
	.st1{fill:none;stroke:#FFEB34;stroke-width:2.4622;}
</style>
<path class="st0" d="M268.5,6.4L268.5,6.4L268.5,6.4c0.9,1.4,2,4.3,0.7,9.2l0,0l0,0c-1.2,4.9-3.2,8.3-4.8,10.5
	c-0.8,1.1-1.6,1.9-2.1,2.4c-0.3,0.3-0.5,0.4-0.6,0.5c-0.1,0.1-0.1,0.1-0.2,0.1c0,0,0,0,0,0l0,0h0l0,0l0,0l-3.1,2.2h3.8h20.9h0.1
	l0.1,0c0,0,0,0,0,0l0,0h0l0,0c0,0,0.1,0,0.1,0c0.1,0,0.3,0,0.5,0c0.4,0,0.9,0.1,1.4,0.2c0.5,0.2,0.9,0.4,1.1,0.7
	c0.3,0.3,0.5,0.8,0.5,1.7c0,2-0.1,5.1-0.1,8.1l0,0.3c-0.1,2.9-0.1,5.7-0.1,7.5c0,0.6-0.3,1.2-0.8,2l-10.4,10.4
	c-0.1,0.1-0.4,0.3-0.8,0.5c-0.4,0.2-0.7,0.2-0.8,0.2h-18.4c-0.3,0-0.4,0-0.6-0.1c-0.1-0.1-0.3-0.2-0.5-0.4l0,0l0,0l-7.6-7.1v-25
	c0,0,0,0,0,0c0.3-0.3,0.8-0.6,1.3-1.1c1.1-0.9,2.6-2.3,4.2-3.7c3.2-2.9,6.9-6.4,8.8-8.7c3.6-4.4,5.6-7.9,6.5-10.6
	c0.1-0.2,0.2-0.3,0.2-0.4c0.1,0,0.1-0.1,0.2-0.1C268.1,6,268.4,6.1,268.5,6.4z"/>
<path class="st0" d="M225.2,63.4V31.5h9.9v31.9H225.2z"/>
<path class="st0" d="M602.6,6.4L602.6,6.4L602.6,6.4c0.9,1.4,2,4.3,0.7,9.2l0,0l0,0c-1.2,4.9-3.2,8.3-4.8,10.5
	c-0.8,1.1-1.6,1.9-2.1,2.4c-0.3,0.3-0.5,0.4-0.6,0.5c-0.1,0.1-0.1,0.1-0.2,0.1c0,0,0,0,0,0l0,0h0l0,0l0,0l-3.1,2.2h3.8h20.9h0.1
	l0.1,0c0,0,0,0,0,0l0,0h0l0,0c0,0,0.1,0,0.1,0c0.1,0,0.3,0,0.5,0c0.4,0,0.9,0.1,1.4,0.2c0.5,0.2,0.9,0.4,1.1,0.7
	c0.3,0.3,0.5,0.8,0.5,1.7c0,2-0.1,5.1-0.1,8.1l0,0.3c-0.1,2.9-0.1,5.7-0.1,7.5c0,0.6-0.3,1.2-0.8,2l-10.4,10.4
	c-0.1,0.1-0.4,0.3-0.8,0.5c-0.4,0.2-0.7,0.2-0.8,0.2h-18.4c-0.3,0-0.4,0-0.6-0.1c-0.1-0.1-0.3-0.2-0.5-0.4l0,0l0,0l-7.6-7.1v-25
	c0,0,0,0,0.1,0c0.3-0.3,0.8-0.6,1.3-1.1c1.1-0.9,2.6-2.3,4.2-3.7c3.2-2.9,6.9-6.4,8.8-8.7c3.6-4.4,5.6-7.9,6.5-10.6
	c0.1-0.2,0.2-0.3,0.2-0.4c0.1,0,0.1-0.1,0.2-0.1C602.2,6,602.4,6.1,602.6,6.4z"/>
<path class="st0" d="M559.3,63.4V31.5h9.9v31.9H559.3z"/>
<path class="st1" d="M157.2,6.4L157.2,6.4L157.2,6.4c0.9,1.4,2,4.3,0.7,9.2l0,0l0,0c-1.2,4.9-3.2,8.3-4.8,10.5
	c-0.8,1.1-1.6,1.9-2.1,2.4c-0.3,0.3-0.5,0.4-0.6,0.5c-0.1,0.1-0.1,0.1-0.2,0.1c0,0,0,0,0,0l0,0h0l0,0l0,0l-3.1,2.2h3.8h20.9h0.1
	l0.1,0c0,0,0,0,0,0l0,0h0l0,0c0,0,0.1,0,0.1,0c0.1,0,0.3,0,0.5,0c0.4,0,0.9,0.1,1.4,0.2c0.5,0.2,0.9,0.4,1.1,0.7
	c0.3,0.3,0.5,0.8,0.5,1.7c0,2-0.1,5.1-0.1,8.1l0,0.3c-0.1,2.9-0.1,5.7-0.1,7.5c0,0.6-0.3,1.2-0.8,2L164,62.4
	c-0.1,0.1-0.4,0.3-0.8,0.5c-0.4,0.2-0.7,0.2-0.8,0.2h-18.4c-0.3,0-0.4,0-0.6-0.1c-0.1-0.1-0.3-0.2-0.5-0.4l0,0l0,0l-7.6-7.1v-25
	c0,0,0,0,0.1,0c0.3-0.3,0.8-0.6,1.3-1.1c1.1-0.9,2.6-2.3,4.2-3.7c3.2-2.9,6.9-6.4,8.8-8.7c3.6-4.4,5.6-7.9,6.5-10.6
	c0.1-0.2,0.2-0.3,0.2-0.4c0.1,0,0.1-0.1,0.2-0.1C156.7,6,157,6.1,157.2,6.4z"/>
<path class="st1" d="M113.8,63.4V31.5h9.9v31.9H113.8z"/>
<path class="st0" d="M491.3,6.4L491.3,6.4L491.3,6.4c0.9,1.4,2,4.3,0.7,9.2l0,0l0,0c-1.2,4.9-3.2,8.3-4.8,10.5
	c-0.8,1.1-1.6,1.9-2.1,2.4c-0.3,0.3-0.5,0.4-0.6,0.5c-0.1,0.1-0.1,0.1-0.2,0.1c0,0,0,0,0,0l0,0h0l0,0v0l-3.1,2.2h3.8h20.9h0.1l0.1,0
	c0,0,0,0,0,0l0,0h0l0,0c0,0,0.1,0,0.1,0c0.1,0,0.3,0,0.5,0c0.4,0,0.9,0.1,1.4,0.2c0.5,0.2,0.9,0.4,1.1,0.7c0.3,0.3,0.5,0.8,0.5,1.7
	c0,2-0.1,5.1-0.1,8.1l0,0.3c-0.1,2.9-0.1,5.7-0.1,7.5c0,0.6-0.3,1.2-0.8,2l-10.4,10.4c-0.1,0.1-0.4,0.3-0.8,0.5
	c-0.4,0.2-0.7,0.2-0.8,0.2H478c-0.3,0-0.4,0-0.6-0.1c-0.1-0.1-0.3-0.2-0.5-0.4l0,0l0,0l-7.6-7.1v-25c0,0,0,0,0.1,0
	c0.3-0.3,0.8-0.6,1.3-1.1c1.1-0.9,2.6-2.3,4.2-3.7c3.2-2.9,6.9-6.4,8.8-8.7c3.6-4.4,5.6-7.9,6.5-10.6c0.1-0.2,0.2-0.3,0.2-0.4
	c0.1,0,0.1-0.1,0.2-0.1C490.8,6,491.1,6.1,491.3,6.4z"/>
<path class="st0" d="M447.9,63.4V31.5h9.9v31.9H447.9z"/>
<path class="st0" d="M43.6,6.1c0.5-1.6,2.5-1.6,3.3-0.3c1.1,1.7,2.2,4.9,0.8,10.2c-2.5,10.2-8.2,14.3-8.2,14.3h20.9
	c0,0,4.9-0.5,4.9,3.8c0,4.1-0.3,12.4-0.3,15.9c0,1.1-0.5,1.9-1.1,2.8L53.5,63.3c-0.6,0.5-1.6,1.1-2.5,1.1H32.6
	c-0.8,0-1.4-0.3-1.9-0.8l-8-7.4V30c0,0,11-9.3,14.6-13.7C40.8,11.8,42.7,8.6,43.6,6.1z"/>
<path class="st0" d="M13.6,30.3H1.2v34.4h12.4V30.3z"/>
<path class="st0" d="M379.9,6.4L379.9,6.4L379.9,6.4c0.9,1.4,2,4.3,0.7,9.2l0,0l0,0c-1.2,4.9-3.2,8.3-4.8,10.5
	c-0.8,1.1-1.6,1.9-2.1,2.4c-0.3,0.3-0.5,0.4-0.6,0.5c-0.1,0.1-0.1,0.1-0.2,0.1c0,0,0,0,0,0l0,0h0l0,0l0,0l-3.1,2.2h3.8h20.9h0.1
	l0.1,0c0,0,0,0,0,0l0,0h0l0,0c0,0,0.1,0,0.1,0c0.1,0,0.3,0,0.5,0c0.4,0,0.9,0.1,1.4,0.2c0.5,0.2,0.9,0.4,1.1,0.7
	c0.3,0.3,0.5,0.8,0.5,1.7c0,2-0.1,5.1-0.1,8.1l0,0.3c-0.1,2.9-0.1,5.7-0.1,7.5c0,0.6-0.3,1.2-0.8,2l-10.4,10.4
	c-0.1,0.1-0.4,0.3-0.8,0.5c-0.4,0.2-0.7,0.2-0.8,0.2h-18.4c-0.3,0-0.4,0-0.6-0.1c-0.1-0.1-0.3-0.2-0.5-0.4l0,0l0,0l-7.6-7.1v-25
	c0,0,0,0,0,0c0.3-0.3,0.8-0.6,1.3-1.1c1.1-0.9,2.6-2.3,4.2-3.7c3.2-2.9,6.9-6.4,8.8-8.7c3.6-4.4,5.6-7.9,6.5-10.6
	c0.1-0.2,0.2-0.3,0.2-0.4c0.1,0,0.1-0.1,0.2-0.1C379.4,6,379.7,6.1,379.9,6.4z"/>
<path class="st0" d="M336.6,63.4V31.5h9.9v31.9H336.6z"/>
<path class="st0" d="M936.7,6.4L936.7,6.4L936.7,6.4c0.9,1.4,2,4.3,0.7,9.2v0l0,0c-1.2,4.9-3.2,8.3-4.8,10.5
	c-0.8,1.1-1.6,1.9-2.1,2.4c-0.3,0.3-0.5,0.4-0.6,0.5c-0.1,0.1-0.1,0.1-0.2,0.1c0,0,0,0,0,0l0,0l0,0l0,0v0l-3.1,2.2h3.8h20.9h0.1
	l0.1,0l0,0l0,0l0,0l0,0c0,0,0.1,0,0.1,0c0.1,0,0.3,0,0.5,0c0.4,0,0.9,0.1,1.4,0.2c0.5,0.2,0.9,0.4,1.1,0.7c0.3,0.3,0.5,0.8,0.5,1.7
	c0,2-0.1,5.1-0.1,8.1v0.3c-0.1,2.9-0.1,5.7-0.1,7.5c0,0.6-0.3,1.2-0.8,2l-10.4,10.4c-0.2,0.1-0.4,0.3-0.8,0.5
	c-0.3,0.2-0.7,0.2-0.8,0.2h-18.4c-0.3,0-0.4,0-0.6-0.1c-0.1-0.1-0.3-0.2-0.5-0.4l0,0l0,0l-7.6-7.1v-25c0,0,0,0,0.1,0
	c0.3-0.3,0.8-0.6,1.3-1.1c1.1-0.9,2.6-2.3,4.2-3.7c3.2-2.9,6.9-6.4,8.8-8.7c3.6-4.4,5.6-7.9,6.5-10.6c0.1-0.2,0.2-0.3,0.2-0.4
	c0.1,0,0.1-0.1,0.2-0.1C936.3,6,936.5,6.1,936.7,6.4z"/>
<path class="st0" d="M893.4,63.4V31.5h9.9v31.9H893.4z"/>
<path class="st0" d="M1258.8,1.6L1258.8,1.6L1258.8,1.6c0.9,1.4,2,4.3,0.7,9.2l0,0v0c-1.2,4.9-3.2,8.3-4.8,10.5
	c-0.8,1.1-1.6,1.9-2.1,2.4c-0.3,0.3-0.5,0.4-0.6,0.5c-0.1,0.1-0.1,0.1-0.2,0.1c0,0,0,0,0,0l0,0v0l0,0l0,0l-3.1,2.2h3.8h20.9h0.1
	l0.1,0c0,0,0,0,0,0l0,0l0,0l0,0c0,0,0.1,0,0.1,0c0.1,0,0.3,0,0.5,0c0.4,0,0.9,0.1,1.4,0.2c0.5,0.2,0.9,0.4,1.1,0.7
	c0.3,0.3,0.5,0.8,0.5,1.7c0,2-0.1,5.1-0.1,8.2v0.3c-0.1,2.9-0.1,5.7-0.1,7.5c0,0.6-0.3,1.2-0.8,2l-10.4,10.4
	c-0.2,0.1-0.4,0.3-0.8,0.5c-0.3,0.2-0.7,0.2-0.8,0.2h-18.4c-0.3,0-0.4,0-0.6-0.1c-0.1-0.1-0.3-0.2-0.5-0.4l0,0l0,0l-7.6-7.1v-25
	c0,0,0,0,0.1,0c0.3-0.3,0.8-0.6,1.3-1.1c1.1-0.9,2.6-2.3,4.2-3.7c3.2-2.9,6.9-6.4,8.8-8.7c3.6-4.4,5.6-7.9,6.5-10.6
	c0.1-0.2,0.2-0.3,0.2-0.4c0.1,0,0.1-0.1,0.2-0.1C1258.4,1.2,1258.6,1.3,1258.8,1.6z"/>
<path class="st0" d="M1215.5,58.6V26.7h9.9v31.9H1215.5z"/>
<path class="st0" d="M825.4,6.4L825.4,6.4L825.4,6.4c0.9,1.4,2,4.3,0.7,9.2v0v0c-1.2,4.9-3.2,8.3-4.8,10.5c-0.8,1.1-1.6,1.9-2.1,2.4
	c-0.3,0.3-0.5,0.4-0.6,0.5c-0.1,0.1-0.1,0.1-0.2,0.1c0,0,0,0,0,0v0l0,0l0,0v0l-3.1,2.2h3.9h20.9h0.1l0.1,0l0,0l0,0l0,0l0,0
	c0,0,0.1,0,0.1,0c0.1,0,0.3,0,0.5,0c0.4,0,0.9,0.1,1.3,0.2c0.5,0.2,0.9,0.4,1.1,0.7c0.3,0.3,0.5,0.8,0.5,1.7c0,2-0.1,5.1-0.1,8.1
	l0,0.3c-0.1,2.9-0.1,5.7-0.1,7.5c0,0.6-0.3,1.2-0.8,2l-10.4,10.4c-0.1,0.1-0.4,0.3-0.8,0.5c-0.4,0.2-0.7,0.2-0.8,0.2h-18.4
	c-0.3,0-0.4,0-0.6-0.1c-0.1-0.1-0.3-0.2-0.5-0.4l0,0l0,0l-7.6-7.1v-25c0,0,0,0,0.1,0c0.3-0.3,0.8-0.6,1.3-1.1
	c1.1-0.9,2.6-2.3,4.2-3.7c3.2-2.9,6.9-6.4,8.8-8.7c3.6-4.4,5.6-7.9,6.5-10.6c0.1-0.2,0.2-0.3,0.2-0.4c0.1,0,0.1-0.1,0.2-0.1
	C824.9,6,825.2,6.1,825.4,6.4z"/>
<path class="st0" d="M782,63.4V31.5h9.9v31.9H782z"/>
<path class="st0" d="M1147.4,1.6L1147.4,1.6L1147.4,1.6c0.9,1.4,2,4.3,0.7,9.2v0v0c-1.2,4.9-3.2,8.3-4.8,10.5
	c-0.8,1.1-1.6,1.9-2.1,2.4c-0.3,0.3-0.5,0.4-0.6,0.5c-0.1,0.1-0.1,0.1-0.2,0.1c0,0,0,0,0,0v0v0l0,0l0,0l-3.1,2.2h3.8h20.9h0.1l0.1,0
	v0l0,0l0,0l0,0c0,0,0.1,0,0.1,0c0.1,0,0.3,0,0.5,0c0.4,0,0.9,0.1,1.3,0.2c0.5,0.2,0.9,0.4,1.1,0.7c0.3,0.3,0.5,0.8,0.5,1.7
	c0,2-0.1,5.1-0.1,8.2l0,0.3c-0.1,2.9-0.1,5.7-0.1,7.5c0,0.6-0.3,1.2-0.8,2l-10.4,10.4c-0.1,0.1-0.4,0.3-0.8,0.5
	c-0.3,0.2-0.7,0.2-0.8,0.2h-18.4c-0.3,0-0.4,0-0.6-0.1c-0.1-0.1-0.3-0.2-0.5-0.4l0,0l0,0l-7.6-7.1v-25c0,0,0,0,0.1,0
	c0.3-0.3,0.8-0.6,1.3-1.1c1.1-0.9,2.6-2.3,4.2-3.7c3.2-2.9,6.9-6.4,8.8-8.7c3.6-4.4,5.6-7.9,6.5-10.6c0.1-0.2,0.1-0.3,0.2-0.4
	c0.1,0,0.1-0.1,0.2-0.1C1147,1.2,1147.3,1.3,1147.4,1.6z"/>
<path class="st0" d="M1104.1,58.6V26.7h9.9v31.9H1104.1z"/>
<path class="st0" d="M714,6.4L714,6.4L714,6.4c0.9,1.4,2,4.3,0.7,9.2l0,0v0c-1.2,4.9-3.2,8.3-4.8,10.5c-0.8,1.1-1.6,1.9-2.1,2.4
	c-0.3,0.3-0.5,0.4-0.6,0.5c-0.1,0.1-0.1,0.1-0.2,0.1c0,0,0,0,0,0l0,0l0,0l0,0v0l-3.1,2.2h3.8h20.9h0.1l0.1,0c0,0,0,0,0,0l0,0l0,0
	l0,0c0,0,0.1,0,0.1,0c0.1,0,0.3,0,0.5,0c0.4,0,0.9,0.1,1.4,0.2c0.5,0.2,0.9,0.4,1.1,0.7c0.3,0.3,0.5,0.8,0.5,1.7
	c0,2-0.1,5.1-0.1,8.1v0.3c-0.1,2.9-0.1,5.7-0.1,7.5c0,0.6-0.3,1.2-0.8,2l-10.4,10.4c-0.1,0.1-0.4,0.3-0.8,0.5
	c-0.4,0.2-0.7,0.2-0.8,0.2h-18.4c-0.3,0-0.4,0-0.6-0.1c-0.1-0.1-0.3-0.2-0.5-0.4l0,0l0,0l-7.6-7.1v-25c0,0,0,0,0,0
	c0.3-0.3,0.8-0.6,1.3-1.1c1.1-0.9,2.6-2.3,4.2-3.7c3.2-2.9,6.9-6.4,8.8-8.7c3.6-4.4,5.6-7.9,6.5-10.6c0.1-0.2,0.2-0.3,0.2-0.4
	c0.1,0,0.1-0.1,0.2-0.1C713.5,6,713.8,6.1,714,6.4z"/>
<path class="st0" d="M670.7,63.4V31.5h9.9v31.9H670.7z"/>
<path class="st0" d="M1036.1,1.6L1036.1,1.6L1036.1,1.6c0.9,1.4,2,4.3,0.7,9.2l0,0v0c-1.2,4.9-3.2,8.3-4.8,10.5
	c-0.8,1.1-1.6,1.9-2.1,2.4c-0.3,0.3-0.5,0.4-0.6,0.5c-0.1,0.1-0.1,0.1-0.2,0.1c0,0,0,0,0,0v0v0l0,0l0,0l-3.1,2.2h3.8h20.9h0.1l0.1,0
	v0l0,0h0l0,0c0,0,0.1,0,0.1,0c0.1,0,0.3,0,0.5,0c0.4,0,0.9,0.1,1.4,0.2c0.5,0.2,0.9,0.4,1.1,0.7c0.3,0.3,0.5,0.8,0.5,1.7
	c0,2-0.1,5.1-0.1,8.2l0,0.3c-0.1,2.9-0.1,5.7-0.1,7.5c0,0.6-0.3,1.2-0.8,2l-10.4,10.4c-0.2,0.1-0.4,0.3-0.8,0.5
	c-0.4,0.2-0.7,0.2-0.8,0.2h-18.4c-0.3,0-0.4,0-0.6-0.1c-0.1-0.1-0.3-0.2-0.5-0.4l0,0l0,0l-7.6-7.1v-25c0,0,0,0,0.1,0
	c0.3-0.3,0.8-0.6,1.3-1.1c1.1-0.9,2.6-2.3,4.2-3.7c3.2-2.9,6.9-6.4,8.8-8.7c3.6-4.4,5.6-7.9,6.5-10.6c0.1-0.2,0.2-0.3,0.2-0.4
	c0.1,0,0.1-0.1,0.2-0.1C1035.6,1.2,1035.9,1.3,1036.1,1.6z"/>
<path class="st0" d="M992.7,58.6V26.7h9.9v31.9H992.7z"/>
<path class="st0" d="M211.9,80.8L211.9,80.8L211.9,80.8c0.9,1.4,2,4.3,0.7,9.2l0,0l0,0c-1.2,4.9-3.2,8.3-4.8,10.5
	c-0.8,1.1-1.6,1.9-2.1,2.4c-0.3,0.3-0.5,0.4-0.6,0.5c-0.1,0.1-0.1,0.1-0.2,0.1c0,0,0,0,0,0l0,0l0,0l0,0h0l-3.1,2.2h3.8h20.9h0.1
	l0.1,0c0,0,0,0,0,0l0,0h0l0,0c0,0,0.1,0,0.1,0c0.1,0,0.3,0,0.5,0c0.4,0,0.9,0.1,1.4,0.2c0.5,0.2,0.9,0.4,1.1,0.7
	c0.3,0.3,0.5,0.8,0.5,1.7c0,2-0.1,5.1-0.1,8.2l0,0.3c-0.1,2.9-0.1,5.7-0.1,7.5c0,0.6-0.3,1.2-0.8,2l-10.4,10.4
	c-0.1,0.1-0.4,0.3-0.8,0.5c-0.4,0.2-0.7,0.2-0.8,0.2h-18.4c-0.3,0-0.4,0-0.6-0.1c-0.1-0.1-0.3-0.2-0.5-0.4l0,0l0,0l-7.6-7.1v-25
	c0,0,0,0,0,0c0.3-0.3,0.8-0.6,1.3-1.1c1.1-0.9,2.6-2.3,4.2-3.7c3.2-2.9,6.9-6.4,8.8-8.7c3.6-4.4,5.6-7.9,6.5-10.6
	c0.1-0.2,0.2-0.3,0.2-0.3c0.1,0,0.1-0.1,0.2-0.1C211.5,80.4,211.7,80.5,211.9,80.8z"/>
<path class="st0" d="M168.6,137.7v-31.9h9.9v31.9H168.6z"/>
<path class="st0" d="M546,80.8L546,80.8L546,80.8c0.9,1.4,2,4.3,0.7,9.2l0,0l0,0c-1.2,4.9-3.2,8.3-4.8,10.5
	c-0.8,1.1-1.6,1.9-2.1,2.4c-0.3,0.3-0.5,0.4-0.6,0.5c-0.1,0.1-0.1,0.1-0.2,0.1c0,0,0,0,0,0l0,0h0l0,0l0,0l-3.1,2.2h3.8h20.9h0.1
	l0.1,0c0,0,0,0,0,0l0,0h0l0,0c0,0,0.1,0,0.1,0c0.1,0,0.3,0,0.5,0c0.4,0,0.9,0.1,1.4,0.2c0.5,0.2,0.9,0.4,1.1,0.7
	c0.3,0.3,0.5,0.8,0.5,1.7c0,2-0.1,5.1-0.1,8.2l0,0.3c-0.1,2.9-0.1,5.7-0.1,7.5c0,0.6-0.3,1.2-0.8,2l-10.4,10.4
	c-0.1,0.1-0.4,0.3-0.8,0.5c-0.4,0.2-0.7,0.2-0.8,0.2h-18.4c-0.3,0-0.4,0-0.6-0.1c-0.1-0.1-0.3-0.2-0.5-0.4l0,0l0,0l-7.6-7.1v-25
	c0,0,0,0,0,0c0.3-0.3,0.8-0.6,1.3-1.1c1.1-0.9,2.6-2.3,4.2-3.7c3.2-2.9,6.9-6.4,8.8-8.7c3.6-4.4,5.6-7.9,6.5-10.6
	c0.1-0.2,0.2-0.3,0.2-0.3c0.1-0.1,0.1-0.1,0.2-0.1C545.6,80.4,545.8,80.5,546,80.8z"/>
<path class="st0" d="M502.7,137.7v-31.9h9.9v31.9H502.7z"/>
<path class="st0" d="M880.1,80.8L880.1,80.8L880.1,80.8c0.9,1.4,2,4.3,0.7,9.2v0l0,0c-1.2,4.9-3.2,8.3-4.8,10.5
	c-0.8,1.1-1.6,1.9-2.1,2.4c-0.3,0.3-0.5,0.4-0.6,0.5c-0.1,0.1-0.1,0.1-0.2,0.1c0,0,0,0,0,0v0l0,0l0,0l0,0l-3.1,2.2h3.8h20.9h0.1
	l0.1,0l0,0l0,0l0,0l0,0c0,0,0.1,0,0.1,0c0.1,0,0.3,0,0.5,0c0.4,0,0.9,0.1,1.4,0.2c0.5,0.2,0.9,0.4,1.1,0.7c0.3,0.3,0.5,0.8,0.5,1.7
	c0,2-0.1,5.1-0.1,8.2l0,0.3c-0.1,2.9-0.1,5.7-0.1,7.5c0,0.6-0.3,1.2-0.8,2l-10.4,10.4c-0.2,0.1-0.4,0.3-0.8,0.5
	c-0.3,0.2-0.7,0.2-0.8,0.2h-18.4c-0.3,0-0.4,0-0.6-0.1c-0.1-0.1-0.3-0.2-0.5-0.4l0,0l0,0l-7.6-7.1v-25c0,0,0,0,0.1,0
	c0.3-0.3,0.8-0.6,1.3-1.1c1.1-0.9,2.6-2.3,4.2-3.7c3.2-2.9,6.9-6.4,8.8-8.7c3.6-4.4,5.6-7.9,6.5-10.6c0.1-0.2,0.2-0.3,0.2-0.3
	c0.1-0.1,0.1-0.1,0.2-0.1C879.6,80.4,879.9,80.5,880.1,80.8z"/>
<path class="st0" d="M836.8,137.7v-31.9h9.9v31.9H836.8z"/>
<path class="st0" d="M100.5,80.8L100.5,80.8L100.5,80.8c0.9,1.4,2,4.3,0.7,9.2l0,0l0,0c-1.2,4.9-3.2,8.3-4.8,10.5
	c-0.8,1.1-1.6,1.9-2.1,2.4c-0.3,0.3-0.5,0.4-0.6,0.5c-0.1,0.1-0.1,0.1-0.2,0.1c0,0,0,0,0,0l0,0h0l0,0l0,0l-3.1,2.2h3.8h20.9h0.1
	l0.1,0c0,0,0,0,0,0l0,0h0l0,0c0,0,0.1,0,0.1,0c0.1,0,0.3,0,0.5,0c0.4,0,0.9,0.1,1.4,0.2c0.5,0.2,0.9,0.4,1.1,0.7
	c0.3,0.3,0.5,0.8,0.5,1.7c0,2-0.1,5.1-0.1,8.2l0,0.3c-0.1,2.9-0.1,5.7-0.1,7.5c0,0.6-0.3,1.2-0.8,2l-10.4,10.4
	c-0.1,0.1-0.4,0.3-0.8,0.5c-0.4,0.2-0.7,0.2-0.8,0.2H87.3c-0.3,0-0.4,0-0.6-0.1c-0.1-0.1-0.3-0.2-0.5-0.4l0,0l0,0l-7.6-7.1v-25
	c0,0,0,0,0,0c0.3-0.3,0.8-0.6,1.3-1.1c1.1-0.9,2.6-2.3,4.2-3.7c3.2-2.9,6.9-6.4,8.8-8.7c3.6-4.4,5.6-7.9,6.5-10.6
	c0.1-0.2,0.2-0.3,0.2-0.3c0.1-0.1,0.1-0.1,0.2-0.1C100.1,80.4,100.4,80.5,100.5,80.8z"/>
<path class="st0" d="M57.2,137.7v-31.9h9.9v31.9H57.2z"/>
<path class="st0" d="M434.6,80.8L434.6,80.8L434.6,80.8c0.9,1.4,2,4.3,0.7,9.2l0,0l0,0c-1.2,4.9-3.2,8.3-4.8,10.5
	c-0.8,1.1-1.6,1.9-2.1,2.4c-0.3,0.3-0.5,0.4-0.6,0.5c-0.1,0.1-0.1,0.1-0.2,0.1c0,0,0,0,0,0l0,0l0,0l0,0h0l-3.1,2.2h3.8h20.9h0.1
	l0.1,0c0,0,0,0,0,0l0,0h0l0,0c0,0,0.1,0,0.1,0c0.1,0,0.3,0,0.5,0c0.4,0,0.9,0.1,1.4,0.2c0.5,0.2,0.9,0.4,1.1,0.7
	c0.3,0.3,0.5,0.8,0.5,1.7c0,2-0.1,5.1-0.1,8.2l0,0.3c-0.1,2.9-0.1,5.7-0.1,7.5c0,0.6-0.3,1.2-0.8,2l-10.4,10.4
	c-0.1,0.1-0.4,0.3-0.8,0.5c-0.4,0.2-0.7,0.2-0.8,0.2h-18.4c-0.3,0-0.4,0-0.6-0.1c-0.1-0.1-0.3-0.2-0.5-0.4l0,0l0,0l-7.6-7.1v-25
	c0,0,0,0,0,0c0.3-0.3,0.8-0.6,1.3-1.1c1.1-0.9,2.6-2.3,4.2-3.7c3.2-2.9,6.9-6.4,8.8-8.7c3.6-4.4,5.6-7.9,6.5-10.6
	c0.1-0.2,0.2-0.3,0.2-0.3c0.1,0,0.1-0.1,0.2-0.1C434.2,80.4,434.5,80.5,434.6,80.8z"/>
<path class="st0" d="M391.3,137.7v-31.9h9.9v31.9H391.3z"/>
<path class="st1" d="M768.7,80.8L768.7,80.8L768.7,80.8c0.9,1.4,2,4.3,0.7,9.2v0v0c-1.2,4.9-3.2,8.3-4.8,10.5
	c-0.8,1.1-1.6,1.9-2.1,2.4c-0.3,0.3-0.5,0.4-0.6,0.5c-0.1,0.1-0.1,0.1-0.2,0.1c0,0,0,0,0,0v0l0,0l0,0v0l-3.1,2.2h3.8h20.9h0.1l0.1,0
	l0,0l0,0l0,0l0,0c0,0,0.1,0,0.1,0c0.1,0,0.3,0,0.5,0c0.4,0,0.9,0.1,1.4,0.2c0.5,0.2,0.9,0.4,1.1,0.7c0.3,0.3,0.5,0.8,0.5,1.7
	c0,2-0.1,5.1-0.1,8.2l0,0.3c-0.1,2.9-0.1,5.7-0.1,7.5c0,0.6-0.3,1.2-0.8,2l-10.4,10.4c-0.1,0.1-0.4,0.3-0.8,0.5
	c-0.4,0.2-0.7,0.2-0.8,0.2h-18.4c-0.3,0-0.4,0-0.6-0.1c-0.1-0.1-0.3-0.2-0.5-0.4l0,0l0,0l-7.6-7.1v-25c0,0,0,0,0.1,0
	c0.3-0.3,0.8-0.6,1.3-1.1c1.1-0.9,2.6-2.3,4.2-3.7c3.2-2.9,6.9-6.4,8.8-8.7c3.6-4.4,5.6-7.9,6.5-10.6c0.1-0.2,0.2-0.3,0.2-0.3
	c0.1-0.1,0.1-0.1,0.2-0.1C768.3,80.4,768.5,80.5,768.7,80.8z"/>
<path class="st1" d="M725.4,137.7v-31.9h9.9v31.9H725.4z"/>
<path class="st0" d="M1328.2,80.8L1328.2,80.8L1328.2,80.8c0.9,1.4,2,4.3,0.7,9.2l0,0l0,0c-1.2,4.9-3.2,8.3-4.8,10.5
	c-0.8,1.1-1.6,1.9-2.1,2.4c-0.3,0.3-0.5,0.4-0.6,0.5c-0.1,0.1-0.1,0.1-0.2,0.1c0,0,0,0,0,0l0,0h0l0,0v0l-3.1,2.2h3.8h20.9h0.1l0.1,0
	c0,0,0,0,0,0l0,0h0l0,0c0,0,0.1,0,0.1,0c0.1,0,0.3,0,0.5,0c0.4,0,0.9,0.1,1.4,0.2c0.5,0.2,0.9,0.4,1.1,0.7c0.3,0.3,0.5,0.8,0.5,1.7
	c0,2-0.1,5.1-0.1,8.2l0,0.3c-0.1,2.9-0.1,5.7-0.1,7.5c0,0.6-0.3,1.2-0.8,2l-10.4,10.4c-0.1,0.1-0.4,0.3-0.8,0.5
	c-0.4,0.2-0.7,0.2-0.8,0.2h-18.4c-0.3,0-0.4,0-0.6-0.1c-0.1-0.1-0.3-0.2-0.5-0.4l0,0l0,0l-7.6-7.1v-25c0,0,0,0,0.1,0
	c0.3-0.3,0.8-0.6,1.3-1.1c1.1-0.9,2.6-2.3,4.2-3.7c3.2-2.9,6.9-6.4,8.8-8.7c3.6-4.4,5.6-7.9,6.5-10.6c0.1-0.2,0.2-0.3,0.2-0.3
	c0.1-0.1,0.1-0.1,0.2-0.1C1327.7,80.4,1328,80.5,1328.2,80.8z"/>
<path class="st0" d="M1284.8,137.7v-31.9h9.9v31.9H1284.8z"/>
<path class="st0" d="M321,80.4c0.5-1.7,2.5-1.7,3.3-0.3c1.1,1.6,2.2,4.9,0.8,10.2c-2.5,10.2-8.2,14.3-8.2,14.3h20.9
	c0,0,4.9-0.5,4.9,3.8c0,4.1-0.3,12.4-0.3,15.9c0,1.1-0.5,1.9-1.1,2.7l-10.4,10.4c-0.5,0.5-1.6,1.1-2.5,1.1H310
	c-0.8,0-1.4-0.3-1.9-0.8l-8-7.4v-26.1c0,0,11-9.3,14.6-13.7C318.3,86.2,320.2,82.9,321,80.4z"/>
<path class="st0" d="M291.1,104.6h-12.4V139h12.4V104.6z"/>
<path class="st0" d="M657.4,80.8L657.4,80.8L657.4,80.8c0.9,1.4,2,4.3,0.7,9.2v0l0,0c-1.2,4.9-3.2,8.3-4.8,10.5
	c-0.8,1.1-1.6,1.9-2.1,2.4c-0.3,0.3-0.5,0.4-0.6,0.5c-0.1,0.1-0.1,0.1-0.2,0.1c0,0,0,0,0,0l0,0h0l0,0l0,0l-3.1,2.2h3.8h20.9h0.1
	l0.1,0l0,0l0,0l0,0l0,0c0,0,0.1,0,0.1,0c0.1,0,0.3,0,0.5,0c0.4,0,0.9,0.1,1.4,0.2c0.5,0.2,0.9,0.4,1.1,0.7c0.3,0.3,0.5,0.8,0.5,1.7
	c0,2-0.1,5.1-0.1,8.2l0,0.3c-0.1,2.9-0.1,5.7-0.1,7.5c0,0.6-0.3,1.2-0.8,2l-10.4,10.4c-0.2,0.1-0.4,0.3-0.8,0.5
	c-0.3,0.2-0.6,0.2-0.8,0.2h-18.4c-0.3,0-0.4,0-0.6-0.1c-0.1-0.1-0.3-0.2-0.5-0.4l0,0l0,0l-7.6-7.1v-25c0,0,0,0,0.1,0
	c0.3-0.3,0.8-0.6,1.3-1.1c1.1-0.9,2.6-2.3,4.2-3.7c3.2-2.9,6.9-6.4,8.8-8.7c3.6-4.4,5.6-7.9,6.5-10.6c0.1-0.2,0.2-0.3,0.2-0.3
	c0.1-0.1,0.1-0.1,0.2-0.1C656.9,80.4,657.2,80.5,657.4,80.8z"/>
<path class="st0" d="M614,137.7v-31.9h9.9v31.9H614z"/>
<path class="st0" d="M1214.2,80.8L1214.2,80.8L1214.2,80.8c0.9,1.4,2,4.3,0.7,9.2l0,0v0c-1.2,4.9-3.2,8.3-4.8,10.5
	c-0.8,1.1-1.6,1.9-2.1,2.4c-0.3,0.3-0.5,0.4-0.6,0.5c-0.1,0.1-0.1,0.1-0.2,0.1c0,0,0,0,0,0l0,0l0,0l0,0v0l-3.1,2.2h3.8h20.9h0.1
	l0.1,0c0,0,0,0,0,0l0,0l0,0l0,0c0,0,0.1,0,0.1,0c0.1,0,0.3,0,0.5,0c0.4,0,0.9,0.1,1.4,0.2c0.5,0.2,0.9,0.4,1.1,0.7
	c0.3,0.3,0.5,0.8,0.5,1.7c0,2-0.1,5.1-0.1,8.2v0.3c-0.1,2.9-0.1,5.7-0.1,7.5c0,0.6-0.3,1.2-0.8,2l-10.4,10.4
	c-0.2,0.1-0.4,0.3-0.8,0.5c-0.3,0.2-0.7,0.2-0.8,0.2H1201c-0.3,0-0.4,0-0.6-0.1c-0.1-0.1-0.3-0.2-0.5-0.4l0,0l0,0l-7.6-7.1v-25
	c0,0,0,0,0.1,0c0.3-0.3,0.8-0.6,1.3-1.1c1.1-0.9,2.6-2.3,4.2-3.7c3.2-2.9,6.9-6.4,8.8-8.7c3.6-4.4,5.6-7.9,6.5-10.6
	c0.1-0.2,0.2-0.3,0.2-0.3c0.1-0.1,0.1-0.1,0.2-0.1C1213.7,80.4,1214,80.5,1214.2,80.8z"/>
<path class="st0" d="M1170.9,137.7v-31.9h9.9v31.9H1170.9z"/>
<path class="st0" d="M1102.8,80.8L1102.8,80.8L1102.8,80.8c0.9,1.4,2,4.3,0.7,9.2v0v0c-1.2,4.9-3.2,8.3-4.8,10.5
	c-0.8,1.1-1.6,1.9-2.1,2.4c-0.3,0.3-0.5,0.4-0.6,0.5c-0.1,0.1-0.1,0.1-0.2,0.1c0,0,0,0,0,0v0l0,0l0,0v0l-3.1,2.2h3.8h20.9h0.1l0.1,0
	l0,0l0,0l0,0l0,0c0,0,0.1,0,0.1,0c0.1,0,0.3,0,0.4,0c0.4,0,0.9,0.1,1.4,0.2c0.5,0.2,0.9,0.4,1.1,0.7c0.3,0.3,0.5,0.8,0.5,1.7
	c0,2-0.1,5.1-0.1,8.2l0,0.3c-0.1,2.9-0.1,5.7-0.1,7.5c0,0.6-0.3,1.2-0.8,2l-10.4,10.4c-0.1,0.1-0.4,0.3-0.8,0.5
	c-0.3,0.2-0.7,0.2-0.8,0.2h-18.4c-0.3,0-0.4,0-0.6-0.1c-0.1-0.1-0.3-0.2-0.5-0.4l0,0l0,0l-7.6-7.1v-25c0,0,0,0,0.1,0
	c0.3-0.3,0.8-0.6,1.3-1.1c1.1-0.9,2.6-2.3,4.2-3.7c3.2-2.9,6.9-6.4,8.8-8.7c3.6-4.4,5.6-7.9,6.5-10.6c0.1-0.2,0.1-0.3,0.2-0.3
	c0.1-0.1,0.1-0.1,0.2-0.1C1102.4,80.4,1102.6,80.5,1102.8,80.8z"/>
<path class="st0" d="M1059.5,137.7v-31.9h9.9v31.9H1059.5z"/>
<path class="st0" d="M991.5,80.8L991.5,80.8L991.5,80.8c0.9,1.4,2,4.3,0.7,9.2l0,0v0c-1.2,4.9-3.2,8.3-4.8,10.5
	c-0.8,1.1-1.6,1.9-2.1,2.4c-0.3,0.3-0.5,0.4-0.6,0.5c-0.1,0.1-0.1,0.1-0.2,0.1c0,0,0,0,0,0l0,0l0,0l0,0v0l-3.1,2.2h3.8h20.9h0.1
	l0.1,0l0,0l0,0h0l0,0c0,0,0.1,0,0.1,0c0.1,0,0.3,0,0.5,0c0.4,0,0.9,0.1,1.4,0.2c0.5,0.2,0.9,0.4,1.1,0.7c0.3,0.3,0.5,0.8,0.5,1.7
	c0,2-0.1,5.1-0.1,8.2l0,0.3c-0.1,2.9-0.1,5.7-0.1,7.5c0,0.6-0.3,1.2-0.8,2l-10.4,10.4c-0.2,0.1-0.4,0.3-0.8,0.5
	c-0.4,0.2-0.7,0.2-0.8,0.2h-18.4c-0.3,0-0.4,0-0.6-0.1c-0.1-0.1-0.3-0.2-0.5-0.4l0,0l0,0l-7.6-7.1v-25c0,0,0,0,0.1,0
	c0.3-0.3,0.8-0.6,1.3-1.1c1.1-0.9,2.6-2.3,4.2-3.7c3.2-2.9,6.9-6.4,8.8-8.7c3.6-4.4,5.6-7.9,6.5-10.6c0.1-0.2,0.2-0.3,0.2-0.3
	c0.1-0.1,0.1-0.1,0.2-0.1C991,80.4,991.3,80.5,991.5,80.8z"/>
<path class="st0" d="M948.1,137.7v-31.9h9.9v31.9H948.1z"/>
<path class="st0" d="M498.7,158.5L498.7,158.5L498.7,158.5c0.9,1.4,2,4.3,0.7,9.2l0,0l0,0c-1.2,4.9-3.2,8.3-4.8,10.5
	c-0.8,1.1-1.6,1.9-2.1,2.4c-0.3,0.3-0.5,0.4-0.6,0.5c-0.1,0.1-0.1,0.1-0.2,0.1c0,0,0,0,0,0l0,0l0,0l0,0h0l-3.1,2.2h3.8h20.9h0.1
	l0.1,0c0,0,0,0,0,0l0,0h0l0,0c0,0,0.1,0,0.1,0c0.1,0,0.3,0,0.5,0c0.4,0,0.9,0.1,1.4,0.2c0.5,0.2,0.9,0.4,1.1,0.7
	c0.3,0.3,0.5,0.8,0.5,1.7c0,2-0.1,5.1-0.1,8.2l0,0.3c-0.1,2.9-0.1,5.7-0.1,7.5c0,0.6-0.3,1.2-0.8,2l-10.4,10.4
	c-0.1,0.1-0.4,0.3-0.8,0.5c-0.4,0.2-0.7,0.2-0.8,0.2h-18.4c-0.3,0-0.4,0-0.6-0.1c-0.1-0.1-0.3-0.2-0.5-0.4l0,0l0,0l-7.6-7.1v-25
	c0,0,0,0,0,0c0.3-0.3,0.8-0.7,1.3-1.1c1.1-0.9,2.6-2.3,4.2-3.7c3.2-2.9,6.9-6.4,8.8-8.7c3.6-4.4,5.6-7.9,6.5-10.6
	c0.1-0.2,0.2-0.3,0.2-0.3c0.1,0,0.1-0.1,0.2-0.1C498.2,158.1,498.5,158.2,498.7,158.5z"/>
<path class="st0" d="M455.3,215.4v-31.9h9.9v31.9H455.3z"/>
<path class="st0" d="M832.8,158.5L832.8,158.5L832.8,158.5c0.9,1.4,2,4.3,0.7,9.2v0v0c-1.2,4.9-3.2,8.3-4.8,10.5
	c-0.8,1.1-1.6,1.9-2.1,2.4c-0.3,0.3-0.5,0.4-0.6,0.5c-0.1,0.1-0.1,0.1-0.2,0.1c0,0,0,0,0,0v0l0,0l0,0v0l-3.1,2.2h3.8h20.9h0.1l0.1,0
	l0,0l0,0l0,0l0,0c0,0,0.1,0,0.1,0c0.1,0,0.3,0,0.5,0c0.4,0,0.9,0.1,1.4,0.2c0.5,0.2,0.9,0.4,1.1,0.7c0.3,0.3,0.5,0.8,0.5,1.7
	c0,2-0.1,5.1-0.1,8.1l0,0.3c-0.1,2.9-0.1,5.7-0.1,7.5c0,0.6-0.3,1.2-0.8,2l-10.4,10.4c-0.2,0.1-0.4,0.3-0.8,0.5
	c-0.4,0.2-0.7,0.2-0.8,0.2h-18.4c-0.3,0-0.4,0-0.6-0.1c-0.1-0.1-0.3-0.2-0.5-0.4l0,0l0,0l-7.6-7.1v-25c0,0,0,0,0,0
	c0.3-0.3,0.8-0.6,1.3-1.1c1.1-0.9,2.6-2.3,4.2-3.7c3.2-2.9,6.9-6.4,8.8-8.7c3.6-4.4,5.6-7.9,6.5-10.6c0.1-0.2,0.2-0.3,0.2-0.4
	c0.1,0,0.1-0.1,0.2-0.1C832.3,158.1,832.6,158.2,832.8,158.5z"/>
<path class="st0" d="M789.4,215.4v-31.9h9.9v31.9H789.4z"/>
<path class="st0" d="M1146.9,158.5L1146.9,158.5L1146.9,158.5c0.9,1.4,2,4.3,0.7,9.2v0l0,0c-1.2,4.9-3.2,8.3-4.8,10.5
	c-0.8,1.1-1.6,1.9-2.1,2.4c-0.3,0.3-0.5,0.4-0.6,0.5c-0.1,0.1-0.1,0.1-0.2,0.1c0,0,0,0,0,0v0l0,0l0,0l0,0l-3.1,2.2h3.8h20.9h0.1
	l0.1,0l0,0l0,0l0,0l0,0c0,0,0.1,0,0.1,0c0.1,0,0.3,0,0.5,0c0.4,0,0.9,0.1,1.4,0.2s0.9,0.4,1.1,0.7c0.3,0.3,0.5,0.8,0.5,1.7
	c0,2-0.1,5.1-0.1,8.1l0,0.3c-0.1,2.9-0.1,5.7-0.1,7.5c0,0.6-0.3,1.2-0.8,2l-10.4,10.4c-0.1,0.1-0.4,0.3-0.8,0.5
	c-0.4,0.2-0.7,0.2-0.8,0.2h-18.4c-0.3,0-0.4,0-0.6-0.1c-0.1-0.1-0.3-0.2-0.5-0.4l0,0l0,0l-7.6-7.1v-25c0,0,0,0,0,0
	c0.3-0.3,0.8-0.6,1.3-1.1c1.1-0.9,2.6-2.3,4.2-3.7c3.2-2.9,6.9-6.4,8.8-8.7c3.6-4.4,5.6-7.9,6.5-10.6c0.1-0.2,0.2-0.3,0.2-0.4
	c0.1,0,0.1-0.1,0.2-0.1C1146.4,158.1,1146.7,158.2,1146.9,158.5z"/>
<path class="st0" d="M1103.5,215.4v-31.9h9.9v31.9H1103.5z"/>
<path class="st0" d="M387.3,158.5L387.3,158.5L387.3,158.5c0.9,1.4,2,4.3,0.7,9.2l0,0l0,0c-1.2,4.9-3.2,8.3-4.8,10.5
	c-0.8,1.1-1.6,1.9-2.1,2.4c-0.3,0.3-0.5,0.4-0.6,0.5c-0.1,0.1-0.1,0.1-0.2,0.1c0,0,0,0,0,0l0,0h0l0,0l0,0l-3.1,2.2h3.8h20.9h0.1
	l0.1,0c0,0,0,0,0,0l0,0h0l0,0c0,0,0.1,0,0.1,0c0.1,0,0.3,0,0.5,0c0.4,0,0.9,0.1,1.4,0.2c0.5,0.2,0.9,0.4,1.1,0.7
	c0.3,0.3,0.5,0.8,0.5,1.7c0,2-0.1,5.1-0.1,8.1l0,0.3c-0.1,2.9-0.1,5.7-0.1,7.5c0,0.6-0.3,1.2-0.8,2l-10.4,10.4
	c-0.1,0.1-0.4,0.3-0.8,0.5c-0.4,0.2-0.7,0.2-0.8,0.2h-18.4c-0.3,0-0.4,0-0.6-0.1c-0.1-0.1-0.3-0.2-0.5-0.4l0,0l0,0l-7.6-7.1v-25
	c0,0,0,0,0,0c0.3-0.3,0.8-0.6,1.3-1.1c1.1-0.9,2.6-2.3,4.2-3.7c3.2-2.9,6.9-6.4,8.8-8.7c3.6-4.4,5.6-7.9,6.5-10.6
	c0.1-0.2,0.2-0.3,0.2-0.4c0.1,0,0.1-0.1,0.2-0.1C386.9,158.1,387.1,158.2,387.3,158.5z"/>
<path class="st0" d="M344,215.4v-31.9h9.9v31.9H344z"/>
<path class="st0" d="M721.4,158.5L721.4,158.5L721.4,158.5c0.9,1.4,2,4.3,0.7,9.2l0,0v0c-1.2,4.9-3.2,8.3-4.8,10.5
	c-0.8,1.1-1.6,1.9-2.1,2.4c-0.3,0.3-0.5,0.4-0.6,0.5c-0.1,0.1-0.1,0.1-0.2,0.1c0,0,0,0,0,0l0,0v0l0,0l0,0l-3.1,2.2h3.8h20.9h0.1
	l0.1,0c0,0,0,0,0,0l0,0l0,0l0,0c0,0,0.1,0,0.1,0c0.1,0,0.3,0,0.5,0c0.4,0,0.9,0.1,1.4,0.2c0.5,0.2,0.9,0.4,1.1,0.7
	c0.3,0.3,0.5,0.8,0.5,1.7c0,2-0.1,5.1-0.1,8.2v0.3c-0.1,2.9-0.1,5.7-0.1,7.5c0,0.6-0.3,1.2-0.8,2l-10.4,10.4
	c-0.2,0.1-0.4,0.3-0.8,0.5c-0.3,0.2-0.6,0.2-0.8,0.2h-18.4c-0.3,0-0.4,0-0.6-0.1c-0.1-0.1-0.3-0.2-0.5-0.4l0,0l0,0l-7.6-7.1v-25
	c0,0,0,0,0,0c0.3-0.3,0.8-0.7,1.3-1.1c1.1-0.9,2.6-2.3,4.2-3.7c3.2-2.9,6.9-6.4,8.8-8.7c3.6-4.4,5.6-7.9,6.5-10.6
	c0.1-0.2,0.2-0.3,0.2-0.3c0.1,0,0.1-0.1,0.2-0.1C721,158.1,721.2,158.2,721.4,158.5z"/>
<path class="st0" d="M678.1,215.4v-31.9h9.9v31.9H678.1z"/>
<path class="st1" d="M1045.5,158.5L1045.5,158.5L1045.5,158.5c0.9,1.4,2,4.3,0.7,9.2v0v0c-1.2,4.9-3.2,8.3-4.8,10.5
	c-0.8,1.1-1.6,1.9-2.1,2.4c-0.3,0.3-0.5,0.4-0.6,0.5c-0.1,0.1-0.1,0.1-0.2,0.1c0,0,0,0,0,0v0v0l0,0l0,0l-3.1,2.2h3.8h20.9h0.1l0.1,0
	l0,0l0,0l0,0l0,0c0,0,0.1,0,0.1,0c0.1,0,0.3,0,0.5,0c0.4,0,0.9,0.1,1.4,0.2c0.5,0.2,0.9,0.4,1.1,0.7c0.3,0.3,0.5,0.8,0.5,1.7
	c0,2-0.1,5.1-0.1,8.2l0,0.3c-0.1,2.9-0.1,5.7-0.1,7.5c0,0.6-0.3,1.2-0.8,2l-10.4,10.4c-0.2,0.1-0.4,0.3-0.8,0.5
	c-0.4,0.2-0.7,0.2-0.8,0.2h-18.4c-0.3,0-0.4,0-0.6-0.1c-0.1-0.1-0.3-0.2-0.5-0.4l0,0l0,0l-7.6-7.1v-25c0,0,0,0,0,0
	c0.3-0.3,0.8-0.7,1.3-1.1c1.1-0.9,2.6-2.3,4.2-3.7c3.2-2.9,6.9-6.4,8.8-8.7c3.6-4.4,5.7-7.9,6.5-10.6c0.1-0.2,0.2-0.3,0.2-0.3
	c0.1,0,0.1-0.1,0.2-0.1C1045.1,158.1,1045.3,158.2,1045.5,158.5z"/>
<path class="st1" d="M1002.2,215.4v-31.9h9.9v31.9H1002.2z"/>
<path class="st0" d="M276,158.5L276,158.5L276,158.5c0.9,1.4,2,4.3,0.7,9.2l0,0l0,0c-1.2,4.9-3.2,8.3-4.8,10.5
	c-0.8,1.1-1.6,1.9-2.1,2.4c-0.3,0.3-0.5,0.4-0.6,0.5c-0.1,0.1-0.1,0.1-0.2,0.1c0,0,0,0,0,0l0,0h0l0,0v0l-3.1,2.2h3.8h20.9h0.1l0.1,0
	c0,0,0,0,0,0l0,0h0l0,0c0,0,0.1,0,0.1,0c0.1,0,0.3,0,0.5,0c0.4,0,0.9,0.1,1.4,0.2c0.5,0.2,0.9,0.4,1.1,0.7c0.3,0.3,0.5,0.8,0.5,1.7
	c0,2-0.1,5.1-0.1,8.1l0,0.3c-0.1,2.9-0.1,5.7-0.1,7.5c0,0.6-0.3,1.2-0.8,2l-10.4,10.4c-0.1,0.1-0.4,0.3-0.8,0.5
	c-0.4,0.2-0.7,0.2-0.8,0.2h-18.4c-0.3,0-0.4,0-0.6-0.1c-0.1-0.1-0.3-0.2-0.5-0.4l0,0l0,0l-7.6-7.1v-25c0,0,0,0,0,0
	c0.3-0.3,0.8-0.6,1.3-1.1c1.1-0.9,2.6-2.3,4.2-3.7c3.2-2.9,6.9-6.4,8.8-8.7c3.6-4.4,5.6-7.9,6.5-10.6c0.1-0.2,0.2-0.3,0.2-0.4
	c0.1,0,0.1-0.1,0.2-0.1C275.5,158.1,275.8,158.2,276,158.5z"/>
<path class="st0" d="M232.6,215.4v-31.9h9.9v31.9H232.6z"/>
<path class="st0" d="M607.8,158.1c0.5-1.6,2.5-1.6,3.3-0.3c1.1,1.6,2.2,4.9,0.8,10.2c-2.5,10.2-8.2,14.3-8.2,14.3h20.9
	c0,0,4.9-0.5,4.9,3.8c0,4.1-0.3,12.4-0.3,15.9c0,1.1-0.5,1.9-1.1,2.7l-10.4,10.4c-0.5,0.6-1.7,1.1-2.5,1.1h-18.4
	c-0.8,0-1.4-0.3-1.9-0.8l-8-7.4V182c0,0,11-9.3,14.6-13.7C605.1,163.9,607,160.6,607.8,158.1z"/>
<path class="st0" d="M577.8,182.3h-12.4v34.4h12.4V182.3z"/>
<path class="st0" d="M944.1,158.5L944.1,158.5L944.1,158.5c0.9,1.4,2,4.3,0.7,9.2v0l0,0c-1.2,4.9-3.2,8.3-4.8,10.5
	c-0.8,1.1-1.6,1.9-2.1,2.4c-0.3,0.3-0.5,0.4-0.6,0.5c-0.1,0.1-0.1,0.1-0.2,0.1c0,0,0,0,0,0l0,0v0l0,0l0,0l-3.1,2.2h3.8h20.9h0.1
	l0.1,0l0,0l0,0l0,0l0,0c0,0,0.1,0,0.1,0c0.1,0,0.3,0,0.4,0c0.4,0,0.9,0.1,1.4,0.2c0.5,0.2,0.9,0.4,1.1,0.7c0.3,0.3,0.5,0.8,0.5,1.7
	c0,2-0.1,5.1-0.1,8.2l0,0.3c-0.1,2.9-0.1,5.7-0.1,7.5c0,0.6-0.3,1.2-0.8,2l-10.4,10.4c-0.2,0.1-0.4,0.3-0.8,0.5
	c-0.3,0.2-0.6,0.2-0.8,0.2h-18.4c-0.3,0-0.4,0-0.6-0.1c-0.1-0.1-0.3-0.2-0.5-0.4l0,0l0,0l-7.6-7.1v-25c0,0,0,0,0,0
	c0.3-0.3,0.8-0.7,1.3-1.1c1.1-0.9,2.6-2.3,4.2-3.7c3.2-2.9,6.9-6.4,8.8-8.7c3.6-4.4,5.6-7.9,6.5-10.6c0.1-0.2,0.2-0.3,0.2-0.3
	c0.1,0,0.1-0.1,0.2-0.1C943.7,158.1,944,158.2,944.1,158.5z"/>
<path class="st0" d="M900.8,215.4v-31.9h9.9v31.9H900.8z"/>
<path class="st0" d="M1257.2,158.5L1257.2,158.5L1257.2,158.5c0.9,1.4,2,4.3,0.7,9.2l0,0v0c-1.2,4.9-3.2,8.3-4.8,10.5
	c-0.8,1.1-1.6,1.9-2.1,2.4c-0.3,0.3-0.5,0.4-0.6,0.5c-0.1,0.1-0.1,0.1-0.2,0.1c0,0,0,0,0,0l0,0l0,0l0,0v0l-3.1,2.2h3.8h20.9h0.1
	l0.1,0l0,0c0,0,0,0,0,0l0,0l0,0c0,0,0.1,0,0.1,0c0.1,0,0.3,0,0.5,0c0.4,0,0.9,0.1,1.4,0.2s0.9,0.4,1.1,0.7c0.3,0.3,0.5,0.8,0.5,1.7
	c0,2-0.1,5.1-0.1,8.1l0,0.3c-0.1,2.9-0.1,5.7-0.1,7.5c0,0.6-0.3,1.2-0.8,2l-10.4,10.4c-0.1,0.1-0.4,0.3-0.8,0.5
	c-0.4,0.2-0.7,0.2-0.8,0.2H1244c-0.3,0-0.4,0-0.6-0.1c-0.1-0.1-0.3-0.2-0.5-0.4l0,0l0,0l-7.6-7.1v-25c0,0,0,0,0.1,0
	c0.3-0.3,0.8-0.6,1.3-1.1c1.1-0.9,2.6-2.3,4.2-3.7c3.2-2.9,6.9-6.4,8.8-8.7c3.6-4.4,5.6-7.9,6.5-10.6c0.1-0.2,0.2-0.3,0.2-0.4
	c0.1,0,0.1-0.1,0.2-0.1C1256.8,158.1,1257,158.2,1257.2,158.5z"/>
<path class="st0" d="M1213.9,215.4v-31.9h9.9v31.9H1213.9z"/>
<path class="st0" d="M155,157.2L155,157.2L155,157.2c0.9,1.4,2,4.3,0.7,9.2l0,0l0,0c-1.2,4.9-3.2,8.3-4.8,10.5
	c-0.8,1.1-1.6,1.9-2.1,2.4c-0.3,0.3-0.5,0.4-0.6,0.5c-0.1,0.1-0.1,0.1-0.2,0.1c0,0,0,0,0,0l0,0h0l0,0l0,0l-3.1,2.2h3.8h20.9h0.1
	l0.1,0c0,0,0,0,0,0l0,0h0l0,0c0,0,0.1,0,0.1,0c0.1,0,0.3,0,0.5,0c0.4,0,0.9,0.1,1.4,0.2c0.5,0.2,0.9,0.4,1.1,0.7
	c0.3,0.3,0.5,0.8,0.5,1.7c0,2-0.1,5.1-0.1,8.2l0,0.3c-0.1,2.9-0.1,5.7-0.1,7.5c0,0.6-0.3,1.2-0.8,2l-10.4,10.4
	c-0.1,0.1-0.4,0.3-0.8,0.5c-0.4,0.2-0.7,0.2-0.8,0.2h-18.4c-0.3,0-0.4,0-0.6-0.1c-0.1-0.1-0.3-0.2-0.5-0.4l0,0l0,0l-7.6-7.1v-25
	c0,0,0,0,0,0c0.3-0.3,0.8-0.6,1.3-1.1c1.1-0.9,2.6-2.3,4.2-3.7c3.2-2.9,6.9-6.4,8.8-8.7c3.6-4.4,5.6-7.9,6.5-10.6
	c0.1-0.2,0.2-0.3,0.2-0.3c0.1-0.1,0.1-0.1,0.2-0.1C154.6,156.8,154.8,156.8,155,157.2z"/>
<path class="st0" d="M111.7,214.1v-31.9h9.9v31.9H111.7z"/>
<path class="st0" d="M45,159.2L45,159.2L45,159.2c0.9,1.4,2,4.3,0.7,9.2l0,0l0,0c-1.2,4.9-3.2,8.3-4.8,10.5
	c-0.8,1.1-1.6,1.9-2.1,2.4c-0.3,0.3-0.5,0.4-0.6,0.5c-0.1,0.1-0.1,0.1-0.2,0.1c0,0,0,0,0,0l0,0h0l0,0v0l-3.1,2.2h3.8h20.9h0.1l0.1,0
	c0,0,0,0,0,0l0,0h0l0,0c0,0,0.1,0,0.1,0c0.1,0,0.3,0,0.5,0c0.4,0,0.9,0.1,1.4,0.2c0.5,0.2,0.9,0.4,1.1,0.7c0.3,0.3,0.5,0.8,0.5,1.7
	c0,2-0.1,5.1-0.1,8.2l0,0.3c-0.1,2.9-0.1,5.7-0.1,7.5c0,0.6-0.3,1.2-0.8,2l-10.4,10.4c-0.1,0.1-0.4,0.3-0.8,0.5
	c-0.4,0.2-0.7,0.2-0.8,0.2H31.8c-0.3,0-0.4,0-0.6-0.1c-0.1-0.1-0.3-0.2-0.5-0.4l0,0l0,0l-7.6-7.1v-25c0,0,0,0,0.1,0
	c0.3-0.3,0.8-0.6,1.3-1.1c1.1-0.9,2.6-2.3,4.2-3.7c3.2-2.9,6.9-6.4,8.8-8.7c3.6-4.4,5.6-7.9,6.5-10.6c0.1-0.2,0.2-0.3,0.2-0.3
	c0.1-0.1,0.1-0.1,0.2-0.1C44.6,158.8,44.8,158.8,45,159.2z"/>
<path class="st0" d="M1.7,216.1v-31.9h9.9v31.9H1.7z"/>
<path class="st0" d="M1595.1,6.6L1595.1,6.6L1595.1,6.6c0.9,1.4,2,4.3,0.7,9.2l0,0l0,0c-1.2,4.9-3.2,8.3-4.8,10.5
	c-0.8,1.1-1.6,1.9-2.1,2.4c-0.3,0.3-0.5,0.4-0.6,0.5c-0.1,0.1-0.1,0.1-0.2,0.1c0,0,0,0,0,0l0,0h0l0,0l0,0l-3.1,2.2h3.8h20.9h0.1
	l0.1,0c0,0,0,0,0,0l0,0h0l0,0c0,0,0.1,0,0.1,0c0.1,0,0.3,0,0.5,0c0.4,0,0.9,0.1,1.4,0.2c0.5,0.2,0.9,0.4,1.1,0.7
	c0.3,0.3,0.5,0.8,0.5,1.7c0,2-0.1,5.1-0.1,8.1l0,0.3c-0.1,2.9-0.1,5.7-0.1,7.5c0,0.6-0.3,1.2-0.8,2l-10.4,10.4
	c-0.1,0.1-0.4,0.3-0.8,0.5c-0.4,0.2-0.7,0.2-0.8,0.2h-18.4c-0.3,0-0.4,0-0.6-0.1c-0.1-0.1-0.3-0.2-0.5-0.4l0,0l0,0l-7.6-7.1v-25
	c0,0,0,0,0.1,0c0.3-0.3,0.8-0.6,1.3-1.1c1.1-0.9,2.6-2.3,4.2-3.7c3.2-2.9,6.9-6.4,8.8-8.7c3.6-4.4,5.6-7.9,6.5-10.6
	c0.1-0.2,0.2-0.3,0.2-0.4c0.1,0,0.1-0.1,0.2-0.1C1594.6,6.2,1594.9,6.3,1595.1,6.6z"/>
<path class="st0" d="M1551.7,63.5V31.6h9.9v31.9H1551.7z"/>
<path class="st0" d="M1929.2,6.6L1929.2,6.6L1929.2,6.6c0.9,1.4,2,4.3,0.7,9.2l0,0l0,0c-1.2,4.9-3.2,8.3-4.8,10.5
	c-0.8,1.1-1.6,1.9-2.1,2.4c-0.3,0.3-0.5,0.4-0.6,0.5c-0.1,0.1-0.1,0.1-0.2,0.1c0,0,0,0,0,0l0,0h0l0,0l0,0l-3.1,2.2h3.8h20.9h0.1
	l0.1,0c0,0,0,0,0,0l0,0h0l0,0c0,0,0.1,0,0.1,0c0.1,0,0.3,0,0.5,0c0.4,0,0.9,0.1,1.4,0.2c0.5,0.2,0.9,0.4,1.1,0.7
	c0.3,0.3,0.5,0.8,0.5,1.7c0,2-0.1,5.1-0.1,8.1l0,0.3c-0.1,2.9-0.1,5.7-0.1,7.5c0,0.6-0.3,1.2-0.8,2l-10.4,10.4
	c-0.1,0.1-0.4,0.3-0.8,0.5c-0.4,0.2-0.7,0.2-0.8,0.2h-18.4c-0.3,0-0.4,0-0.6-0.1c-0.1-0.1-0.3-0.2-0.5-0.4l0,0l0,0l-7.6-7.1v-25
	c0,0,0,0,0.1,0c0.3-0.3,0.8-0.6,1.3-1.1c1.1-0.9,2.6-2.3,4.2-3.7c3.2-2.9,6.9-6.4,8.8-8.7c3.6-4.4,5.6-7.9,6.5-10.6
	c0.1-0.2,0.2-0.3,0.2-0.4c0.1,0,0.1-0.1,0.2-0.1C1928.7,6.2,1929,6.3,1929.2,6.6z"/>
<path class="st0" d="M1885.8,63.5V31.6h9.9v31.9H1885.8z"/>
<path class="st1" d="M1483.7,6.6L1483.7,6.6L1483.7,6.6c0.9,1.4,2,4.3,0.7,9.2l0,0l0,0c-1.2,4.9-3.2,8.3-4.8,10.5
	c-0.8,1.1-1.6,1.9-2.1,2.4c-0.3,0.3-0.5,0.4-0.6,0.5c-0.1,0.1-0.1,0.1-0.2,0.1c0,0,0,0,0,0l0,0h0l0,0l0,0l-3.1,2.2h3.8h20.9h0.1
	l0.1,0c0,0,0,0,0,0l0,0h0l0,0c0,0,0.1,0,0.1,0c0.1,0,0.3,0,0.5,0c0.4,0,0.9,0.1,1.4,0.2c0.5,0.2,0.9,0.4,1.1,0.7
	c0.3,0.3,0.5,0.8,0.5,1.7c0,2-0.1,5.1-0.1,8.1l0,0.3c-0.1,2.9-0.1,5.7-0.1,7.5c0,0.6-0.3,1.2-0.8,2l-10.4,10.4
	c-0.1,0.1-0.4,0.3-0.8,0.5c-0.4,0.2-0.7,0.2-0.8,0.2h-18.4c-0.3,0-0.4,0-0.6-0.1c-0.1-0.1-0.3-0.2-0.5-0.4l0,0l0,0l-7.6-7.1v-25
	c0,0,0,0,0.1,0c0.3-0.3,0.8-0.6,1.3-1.1c1.1-0.9,2.6-2.3,4.2-3.7c3.2-2.9,6.9-6.4,8.8-8.7c3.6-4.4,5.6-7.9,6.5-10.6
	c0.1-0.2,0.2-0.3,0.2-0.4c0.1,0,0.1-0.1,0.2-0.1C1483.2,6.2,1483.5,6.3,1483.7,6.6z"/>
<path class="st1" d="M1440.3,63.5V31.6h9.9v31.9H1440.3z"/>
<path class="st0" d="M1817.8,6.6L1817.8,6.6L1817.8,6.6c0.9,1.4,2,4.3,0.7,9.2l0,0l0,0c-1.2,4.9-3.2,8.3-4.8,10.5
	c-0.8,1.1-1.6,1.9-2.1,2.4c-0.3,0.3-0.5,0.4-0.6,0.5c-0.1,0.1-0.1,0.1-0.2,0.1c0,0,0,0,0,0l0,0h0l0,0v0l-3.1,2.2h3.8h20.9h0.1l0.1,0
	c0,0,0,0,0,0l0,0h0l0,0c0,0,0.1,0,0.1,0c0.1,0,0.3,0,0.5,0c0.4,0,0.9,0.1,1.4,0.2c0.5,0.2,0.9,0.4,1.1,0.7c0.3,0.3,0.5,0.8,0.5,1.7
	c0,2-0.1,5.1-0.1,8.1l0,0.3c-0.1,2.9-0.1,5.7-0.1,7.5c0,0.6-0.3,1.2-0.8,2l-10.4,10.4c-0.1,0.1-0.4,0.3-0.8,0.5
	c-0.4,0.2-0.7,0.2-0.8,0.2h-18.4c-0.3,0-0.4,0-0.6-0.1c-0.1-0.1-0.3-0.2-0.5-0.4l0,0l0,0l-7.6-7.1v-25c0,0,0,0,0.1,0
	c0.3-0.3,0.8-0.6,1.3-1.1c1.1-0.9,2.6-2.3,4.2-3.7c3.2-2.9,6.9-6.4,8.8-8.7c3.6-4.4,5.6-7.9,6.5-10.6c0.1-0.2,0.2-0.3,0.2-0.4
	c0.1,0,0.1-0.1,0.2-0.1C1817.3,6.2,1817.6,6.3,1817.8,6.6z"/>
<path class="st0" d="M1774.4,63.5V31.6h9.9v31.9H1774.4z"/>
<path class="st0" d="M1370.1,6.2c0.5-1.6,2.5-1.6,3.3-0.3c1.1,1.7,2.2,4.9,0.8,10.2c-2.5,10.2-8.2,14.3-8.2,14.3h20.9
	c0,0,4.9-0.5,4.9,3.8c0,4.1-0.3,12.4-0.3,15.9c0,1.1-0.6,1.9-1.1,2.8L1380,63.4c-0.6,0.5-1.6,1.1-2.5,1.1h-18.4
	c-0.8,0-1.4-0.3-1.9-0.8l-8-7.4V30.1c0,0,11-9.3,14.6-13.7C1367.3,12,1369.3,8.7,1370.1,6.2z"/>
<path class="st0" d="M1340.1,30.4h-12.4v34.4h12.4V30.4z"/>
<path class="st0" d="M1706.4,6.6L1706.4,6.6L1706.4,6.6c0.9,1.4,2,4.3,0.7,9.2l0,0l0,0c-1.2,4.9-3.2,8.3-4.8,10.5
	c-0.8,1.1-1.6,1.9-2.1,2.4c-0.3,0.3-0.5,0.4-0.6,0.5c-0.1,0.1-0.1,0.1-0.2,0.1c0,0,0,0,0,0l0,0h0l0,0l0,0l-3.1,2.2h3.8h20.9h0.1
	l0.1,0c0,0,0,0,0,0l0,0h0l0,0c0,0,0.1,0,0.1,0c0.1,0,0.3,0,0.5,0c0.4,0,0.9,0.1,1.4,0.2c0.5,0.2,0.9,0.4,1.1,0.7
	c0.3,0.3,0.5,0.8,0.5,1.7c0,2-0.1,5.1-0.1,8.1l0,0.3c-0.1,2.9-0.1,5.7-0.1,7.5c0,0.6-0.3,1.2-0.8,2l-10.4,10.4
	c-0.1,0.1-0.4,0.3-0.8,0.5c-0.4,0.2-0.7,0.2-0.8,0.2h-18.4c-0.3,0-0.4,0-0.6-0.1c-0.1-0.1-0.3-0.2-0.5-0.4l0,0l0,0l-7.6-7.1v-25
	c0,0,0,0,0.1,0c0.3-0.3,0.8-0.6,1.3-1.1c1.1-0.9,2.6-2.3,4.2-3.7c3.2-2.9,6.9-6.4,8.8-8.7c3.6-4.4,5.6-7.9,6.5-10.6
	c0.1-0.2,0.2-0.3,0.2-0.4c0.1,0,0.1-0.1,0.2-0.1C1706,6.2,1706.2,6.3,1706.4,6.6z"/>
<path class="st0" d="M1663.1,63.5V31.6h9.9v31.9H1663.1z"/>
<path class="st0" d="M2263.3,6.6L2263.3,6.6L2263.3,6.6c0.9,1.4,2,4.3,0.7,9.2v0l0,0c-1.2,4.9-3.2,8.3-4.8,10.5
	c-0.8,1.1-1.6,1.9-2.1,2.4c-0.3,0.3-0.5,0.4-0.6,0.5c-0.1,0.1-0.1,0.1-0.2,0.1c0,0,0,0,0,0l0,0l0,0l0,0v0l-3.1,2.2h3.8h20.9h0.1
	l0.1,0l0,0l0,0l0,0l0,0c0,0,0.1,0,0.1,0c0.1,0,0.3,0,0.4,0c0.4,0,0.9,0.1,1.4,0.2c0.5,0.2,0.9,0.4,1.1,0.7c0.3,0.3,0.5,0.8,0.5,1.7
	c0,2-0.1,5.1-0.1,8.1v0.3c-0.1,2.9-0.1,5.7-0.1,7.5c0,0.6-0.3,1.2-0.8,2L2270,62.5c-0.1,0.1-0.4,0.3-0.8,0.5
	c-0.3,0.2-0.6,0.2-0.8,0.2H2250c-0.3,0-0.4,0-0.6-0.1c-0.1-0.1-0.3-0.2-0.5-0.4l0,0l0,0l-7.6-7.1v-25c0,0,0,0,0.1,0
	c0.3-0.3,0.8-0.6,1.3-1.1c1.1-0.9,2.6-2.3,4.2-3.7c3.2-2.9,6.9-6.4,8.8-8.7c3.6-4.4,5.6-7.9,6.5-10.6c0.1-0.2,0.2-0.3,0.2-0.4
	c0.1,0,0.1-0.1,0.2-0.1C2262.8,6.2,2263.1,6.3,2263.3,6.6z"/>
<path class="st0" d="M2219.9,63.5V31.6h9.9v31.9H2219.9z"/>
<path class="st0" d="M2585.3,1.8L2585.3,1.8L2585.3,1.8c0.9,1.4,2,4.3,0.7,9.2l0,0v0c-1.2,4.9-3.2,8.3-4.8,10.5
	c-0.8,1.1-1.6,1.9-2.1,2.4c-0.3,0.3-0.5,0.4-0.6,0.5c-0.1,0.1-0.1,0.1-0.2,0.1c0,0,0,0,0,0l0,0v0l0,0l0,0l-3.1,2.2h3.8h20.9h0.1
	l0.1,0c0,0,0,0,0,0l0,0l0,0l0,0c0,0,0.1,0,0.1,0c0.1,0,0.3,0,0.5,0c0.4,0,0.9,0.1,1.4,0.2c0.5,0.2,0.9,0.4,1.1,0.7
	c0.3,0.3,0.5,0.8,0.5,1.7c0,2-0.1,5.1-0.1,8.2v0.3c-0.1,2.9-0.1,5.7-0.1,7.5c0,0.6-0.3,1.2-0.8,2l-10.4,10.4
	c-0.2,0.1-0.4,0.3-0.8,0.5c-0.4,0.2-0.7,0.2-0.8,0.2h-18.4c-0.3,0-0.4,0-0.6-0.1c-0.1-0.1-0.3-0.2-0.5-0.4l0,0l0,0l-7.6-7.1v-25
	c0,0,0,0,0.1,0c0.3-0.3,0.8-0.6,1.3-1.1c1.1-0.9,2.6-2.3,4.2-3.7c3.2-2.9,6.9-6.4,8.8-8.7c3.6-4.4,5.6-7.9,6.5-10.6
	c0.1-0.2,0.2-0.3,0.2-0.4c0.1,0,0.1-0.1,0.2-0.1C2584.9,1.4,2585.1,1.4,2585.3,1.8z"/>
<path class="st0" d="M2542,58.7V26.8h9.9v31.9H2542z"/>
<path class="st0" d="M2151.9,6.6L2151.9,6.6L2151.9,6.6c0.9,1.4,2,4.3,0.7,9.2v0v0c-1.2,4.9-3.2,8.3-4.8,10.5
	c-0.8,1.1-1.6,1.9-2.1,2.4c-0.3,0.3-0.5,0.4-0.6,0.5c-0.1,0.1-0.1,0.1-0.2,0.1c0,0,0,0,0,0v0l0,0l0,0v0l-3.1,2.2h3.9h20.9h0.1l0.1,0
	l0,0l0,0l0,0l0,0c0,0,0.1,0,0.1,0c0.1,0,0.3,0,0.5,0c0.4,0,0.9,0.1,1.3,0.2c0.5,0.2,0.9,0.4,1.1,0.7c0.3,0.3,0.5,0.8,0.5,1.7
	c0,2-0.1,5.1-0.1,8.1l0,0.3c-0.1,2.9-0.1,5.7-0.1,7.5c0,0.6-0.3,1.2-0.8,2l-10.4,10.4c-0.1,0.1-0.4,0.3-0.8,0.5
	c-0.4,0.2-0.7,0.2-0.8,0.2h-18.4c-0.3,0-0.4,0-0.6-0.1c-0.1-0.1-0.3-0.2-0.5-0.4l0,0l0,0l-7.6-7.1v-25c0,0,0,0,0.1,0
	c0.3-0.3,0.8-0.6,1.3-1.1c1.1-0.9,2.6-2.3,4.2-3.7c3.2-2.9,6.9-6.4,8.8-8.7c3.6-4.4,5.6-7.9,6.5-10.6c0.1-0.2,0.1-0.3,0.2-0.4
	c0.1,0,0.1-0.1,0.2-0.1C2151.4,6.2,2151.7,6.3,2151.9,6.6z"/>
<path class="st0" d="M2108.5,63.5V31.6h9.9v31.9H2108.5z"/>
<path class="st0" d="M2474,1.8L2474,1.8L2474,1.8c0.9,1.4,2,4.3,0.7,9.2v0v0c-1.2,4.9-3.2,8.3-4.8,10.5c-0.8,1.1-1.6,1.9-2.1,2.4
	c-0.3,0.3-0.5,0.4-0.6,0.5c-0.1,0.1-0.1,0.1-0.2,0.1c0,0,0,0,0,0v0v0l0,0l0,0l-3.1,2.2h3.8h20.9h0.1l0.1,0v0l0,0l0,0l0,0
	c0,0,0.1,0,0.1,0c0.1,0,0.3,0,0.5,0c0.4,0,0.9,0.1,1.4,0.2c0.5,0.2,0.9,0.4,1.1,0.7c0.3,0.3,0.5,0.8,0.5,1.7c0,2-0.1,5.1-0.1,8.2
	l0,0.3c-0.1,2.9-0.1,5.7-0.1,7.5c0,0.6-0.3,1.2-0.8,2l-10.4,10.4c-0.1,0.1-0.4,0.3-0.8,0.5c-0.3,0.2-0.6,0.2-0.8,0.2h-18.4
	c-0.3,0-0.4,0-0.6-0.1c-0.1-0.1-0.3-0.2-0.5-0.4l0,0l0,0l-7.6-7.1v-25c0,0,0,0,0.1,0c0.3-0.3,0.8-0.6,1.3-1.1
	c1.1-0.9,2.6-2.3,4.2-3.7c3.2-2.9,6.9-6.4,8.8-8.7c3.6-4.4,5.6-7.9,6.5-10.6c0.1-0.2,0.1-0.3,0.2-0.4c0.1,0,0.1-0.1,0.2-0.1
	C2473.5,1.4,2473.8,1.4,2474,1.8z"/>
<path class="st0" d="M2430.6,58.7V26.8h9.9v31.9H2430.6z"/>
<path class="st0" d="M2040.5,6.6L2040.5,6.6L2040.5,6.6c0.9,1.4,2,4.3,0.7,9.2l0,0v0c-1.2,4.9-3.2,8.3-4.8,10.5
	c-0.8,1.1-1.6,1.9-2.1,2.4c-0.3,0.3-0.5,0.4-0.6,0.5c-0.1,0.1-0.1,0.1-0.2,0.1c0,0,0,0,0,0l0,0l0,0l0,0v0l-3.1,2.2h3.8h20.9h0.1
	l0.1,0c0,0,0,0,0,0l0,0l0,0l0,0c0,0,0.1,0,0.1,0c0.1,0,0.3,0,0.5,0c0.4,0,0.9,0.1,1.4,0.2c0.5,0.2,0.9,0.4,1.1,0.7
	c0.3,0.3,0.5,0.8,0.5,1.7c0,2-0.1,5.1-0.1,8.1v0.3c-0.1,2.9-0.1,5.7-0.1,7.5c0,0.6-0.3,1.2-0.8,2l-10.4,10.4
	c-0.1,0.1-0.4,0.3-0.8,0.5c-0.4,0.2-0.7,0.2-0.8,0.2h-18.4c-0.3,0-0.4,0-0.6-0.1c-0.1-0.1-0.3-0.2-0.5-0.4l0,0l0,0l-7.6-7.1v-25
	c0,0,0,0,0,0c0.3-0.3,0.8-0.6,1.3-1.1c1.1-0.9,2.6-2.3,4.2-3.7c3.2-2.9,6.9-6.4,8.8-8.7c3.6-4.4,5.6-7.9,6.5-10.6
	c0.1-0.2,0.2-0.3,0.2-0.4c0.1,0,0.1-0.1,0.2-0.1C2040.1,6.2,2040.3,6.3,2040.5,6.6z"/>
<path class="st0" d="M1997.2,63.5V31.6h9.9v31.9H1997.2z"/>
<path class="st0" d="M2362.6,1.8L2362.6,1.8L2362.6,1.8c0.9,1.4,2,4.3,0.7,9.2l0,0v0c-1.2,4.9-3.2,8.3-4.8,10.5
	c-0.8,1.1-1.6,1.9-2.1,2.4c-0.3,0.3-0.5,0.4-0.6,0.5c-0.1,0.1-0.1,0.1-0.1,0.1c0,0,0,0,0,0v0v0l0,0l0,0l-3.1,2.2h3.8h20.9h0.1l0.1,0
	v0l0,0h0l0,0c0,0,0.1,0,0.1,0c0.1,0,0.3,0,0.5,0c0.4,0,0.9,0.1,1.4,0.2c0.5,0.2,0.9,0.4,1.1,0.7c0.3,0.3,0.5,0.8,0.5,1.7
	c0,2-0.1,5.1-0.1,8.2l0,0.3c-0.1,2.9-0.1,5.7-0.1,7.5c0,0.6-0.3,1.2-0.8,2l-10.4,10.4c-0.2,0.1-0.4,0.3-0.8,0.5
	c-0.4,0.2-0.7,0.2-0.8,0.2h-18.4c-0.3,0-0.4,0-0.6-0.1c-0.1-0.1-0.3-0.2-0.5-0.4l0,0l0,0l-7.6-7.1v-25c0,0,0,0,0.1,0
	c0.3-0.3,0.8-0.6,1.3-1.1c1.1-0.9,2.6-2.3,4.2-3.7c3.2-2.9,6.9-6.4,8.8-8.7c3.6-4.4,5.6-7.9,6.5-10.6c0.1-0.2,0.2-0.3,0.2-0.4
	c0.1,0,0.1-0.1,0.2-0.1C2362.1,1.4,2362.4,1.4,2362.6,1.8z"/>
<path class="st0" d="M2319.3,58.7V26.8h9.9v31.9H2319.3z"/>
<path class="st0" d="M1538.4,80.9L1538.4,80.9L1538.4,80.9c0.9,1.4,2,4.3,0.7,9.2l0,0l0,0c-1.2,4.9-3.2,8.3-4.8,10.5
	c-0.8,1.1-1.6,1.9-2.1,2.4c-0.3,0.3-0.5,0.4-0.6,0.5c-0.1,0.1-0.1,0.1-0.2,0.1c0,0,0,0,0,0l0,0l0,0l0,0h0l-3.1,2.2h3.8h20.9h0.1
	l0.1,0c0,0,0,0,0,0l0,0h0l0,0c0,0,0.1,0,0.1,0c0.1,0,0.3,0,0.5,0c0.4,0,0.9,0.1,1.4,0.2c0.5,0.2,0.9,0.4,1.1,0.7
	c0.3,0.3,0.5,0.8,0.5,1.7c0,2-0.1,5.1-0.1,8.2l0,0.3c-0.1,2.9-0.1,5.7-0.1,7.5c0,0.6-0.3,1.2-0.8,2l-10.4,10.4
	c-0.1,0.1-0.4,0.3-0.8,0.5c-0.4,0.2-0.7,0.2-0.8,0.2h-18.4c-0.3,0-0.4,0-0.6-0.1c-0.1-0.1-0.3-0.2-0.5-0.4l0,0l0,0l-7.6-7.1v-25
	c0,0,0,0,0,0c0.3-0.3,0.8-0.6,1.3-1.1c1.1-0.9,2.6-2.3,4.2-3.7c3.2-2.9,6.9-6.4,8.8-8.7c3.6-4.4,5.6-7.9,6.5-10.6
	c0.1-0.2,0.2-0.3,0.2-0.3c0.1,0,0.1-0.1,0.2-0.1C1538,80.5,1538.2,80.6,1538.4,80.9z"/>
<path class="st0" d="M1495.1,137.9V106h9.9v31.9H1495.1z"/>
<path class="st0" d="M1872.5,80.9L1872.5,80.9L1872.5,80.9c0.9,1.4,2,4.3,0.7,9.2l0,0l0,0c-1.2,4.9-3.2,8.3-4.8,10.5
	c-0.8,1.1-1.6,1.9-2.1,2.4c-0.3,0.3-0.5,0.4-0.6,0.5c-0.1,0.1-0.1,0.1-0.2,0.1c0,0,0,0,0,0l0,0h0l0,0l0,0l-3.1,2.2h3.8h20.9h0.1
	l0.1,0c0,0,0,0,0,0l0,0h0l0,0c0,0,0.1,0,0.1,0c0.1,0,0.3,0,0.5,0c0.4,0,0.9,0.1,1.4,0.2c0.5,0.2,0.9,0.4,1.1,0.7
	c0.3,0.3,0.5,0.8,0.5,1.7c0,2-0.1,5.1-0.1,8.2l0,0.3c-0.1,2.9-0.1,5.7-0.1,7.5c0,0.6-0.3,1.2-0.8,2l-10.4,10.4
	c-0.1,0.1-0.4,0.3-0.8,0.5c-0.4,0.2-0.7,0.2-0.8,0.2h-18.4c-0.3,0-0.4,0-0.6-0.1c-0.1-0.1-0.3-0.2-0.5-0.4l0,0l0,0l-7.6-7.1v-25
	c0,0,0,0,0.1,0c0.3-0.3,0.8-0.6,1.3-1.1c1.1-0.9,2.6-2.3,4.2-3.7c3.2-2.9,6.9-6.4,8.8-8.7c3.6-4.4,5.6-7.9,6.5-10.6
	c0.1-0.2,0.2-0.3,0.2-0.3c0.1-0.1,0.1-0.1,0.2-0.1C1872.1,80.5,1872.3,80.6,1872.5,80.9z"/>
<path class="st0" d="M1829.2,137.9V106h9.9v31.9H1829.2z"/>
<path class="st0" d="M2206.6,80.9L2206.6,80.9L2206.6,80.9c0.9,1.4,2,4.3,0.7,9.2v0l0,0c-1.2,4.9-3.2,8.3-4.8,10.5
	c-0.8,1.1-1.6,1.9-2.1,2.4c-0.3,0.3-0.5,0.4-0.6,0.5c-0.1,0.1-0.1,0.1-0.2,0.1c0,0,0,0,0,0v0l0,0l0,0l0,0l-3.1,2.2h3.8h20.9h0.1
	l0.1,0l0,0l0,0l0,0l0,0c0,0,0.1,0,0.1,0c0.1,0,0.3,0,0.5,0c0.4,0,0.9,0.1,1.4,0.2c0.5,0.2,0.9,0.4,1.1,0.7c0.3,0.3,0.5,0.8,0.5,1.7
	c0,2-0.1,5.1-0.1,8.2l0,0.3c-0.1,2.9-0.1,5.7-0.1,7.5c0,0.6-0.3,1.2-0.8,2l-10.4,10.4c-0.2,0.1-0.4,0.3-0.8,0.5
	c-0.4,0.2-0.7,0.2-0.8,0.2h-18.4c-0.3,0-0.4,0-0.6-0.1c-0.1-0.1-0.3-0.2-0.5-0.4l0,0l0,0l-7.6-7.1v-25c0,0,0,0,0.1,0
	c0.3-0.3,0.8-0.6,1.3-1.1c1.1-0.9,2.6-2.3,4.2-3.7c3.2-2.9,6.9-6.4,8.8-8.7c3.6-4.4,5.6-7.9,6.5-10.6c0.1-0.2,0.2-0.3,0.2-0.3
	c0.1-0.1,0.1-0.1,0.2-0.1C2206.2,80.5,2206.4,80.6,2206.6,80.9z"/>
<path class="st0" d="M2163.3,137.9V106h9.9v31.9H2163.3z"/>
<path class="st0" d="M1427.1,80.9L1427.1,80.9L1427.1,80.9c0.9,1.4,2,4.3,0.7,9.2l0,0l0,0c-1.2,4.9-3.2,8.3-4.8,10.5
	c-0.8,1.1-1.6,1.9-2.1,2.4c-0.3,0.3-0.5,0.4-0.6,0.5c-0.1,0.1-0.1,0.1-0.2,0.1c0,0,0,0,0,0l0,0h0l0,0l0,0l-3.1,2.2h3.8h20.9h0.1
	l0.1,0c0,0,0,0,0,0l0,0h0l0,0c0,0,0.1,0,0.1,0c0.1,0,0.3,0,0.5,0c0.4,0,0.9,0.1,1.4,0.2c0.5,0.2,0.9,0.4,1.1,0.7
	c0.3,0.3,0.5,0.8,0.5,1.7c0,2-0.1,5.1-0.1,8.2l0,0.3c-0.1,2.9-0.1,5.7-0.1,7.5c0,0.6-0.3,1.2-0.8,2l-10.4,10.4
	c-0.1,0.1-0.4,0.3-0.8,0.5c-0.4,0.2-0.7,0.2-0.8,0.2h-18.4c-0.3,0-0.4,0-0.6-0.1c-0.1-0.1-0.3-0.2-0.5-0.4l0,0l0,0l-7.6-7.1v-25
	c0,0,0,0,0.1,0c0.3-0.3,0.8-0.6,1.3-1.1c1.1-0.9,2.6-2.3,4.2-3.7c3.2-2.9,6.9-6.4,8.8-8.7c3.6-4.4,5.6-7.9,6.5-10.6
	c0.1-0.2,0.2-0.3,0.2-0.3c0.1-0.1,0.1-0.1,0.2-0.1C1426.6,80.5,1426.9,80.6,1427.1,80.9z"/>
<path class="st0" d="M1383.7,137.9V106h9.9v31.9H1383.7z"/>
<path class="st0" d="M1761.2,80.9L1761.2,80.9L1761.2,80.9c0.9,1.4,2,4.3,0.7,9.2l0,0l0,0c-1.2,4.9-3.2,8.3-4.8,10.5
	c-0.8,1.1-1.6,1.9-2.1,2.4c-0.3,0.3-0.5,0.4-0.6,0.5c-0.1,0.1-0.1,0.1-0.2,0.1c0,0,0,0,0,0l0,0l0,0l0,0h0l-3.1,2.2h3.8h20.9h0.1
	l0.1,0c0,0,0,0,0,0l0,0h0l0,0c0,0,0.1,0,0.1,0c0.1,0,0.3,0,0.5,0c0.4,0,0.9,0.1,1.4,0.2c0.5,0.2,0.9,0.4,1.1,0.7
	c0.3,0.3,0.5,0.8,0.5,1.7c0,2-0.1,5.1-0.1,8.2l0,0.3c-0.1,2.9-0.1,5.7-0.1,7.5c0,0.6-0.3,1.2-0.8,2l-10.4,10.4
	c-0.1,0.1-0.4,0.3-0.8,0.5c-0.4,0.2-0.7,0.2-0.8,0.2h-18.4c-0.3,0-0.4,0-0.6-0.1c-0.1-0.1-0.3-0.2-0.5-0.4l0,0l0,0l-7.6-7.1v-25
	c0,0,0,0,0,0c0.3-0.3,0.8-0.6,1.3-1.1c1.1-0.9,2.6-2.3,4.2-3.7c3.2-2.9,6.9-6.4,8.8-8.7c3.6-4.4,5.6-7.9,6.5-10.6
	c0.1-0.2,0.2-0.3,0.2-0.3c0.1,0,0.1-0.1,0.2-0.1C1760.7,80.5,1761,80.6,1761.2,80.9z"/>
<path class="st0" d="M1717.8,137.9V106h9.9v31.9H1717.8z"/>
<path class="st1" d="M2095.3,80.9L2095.3,80.9L2095.3,80.9c0.9,1.4,2,4.3,0.7,9.2v0v0c-1.2,4.9-3.2,8.3-4.8,10.5
	c-0.8,1.1-1.6,1.9-2.1,2.4c-0.3,0.3-0.5,0.4-0.6,0.5c-0.1,0.1-0.1,0.1-0.2,0.1c0,0,0,0,0,0v0l0,0l0,0v0l-3.1,2.2h3.8h20.9h0.1l0.1,0
	l0,0l0,0l0,0l0,0c0,0,0.1,0,0.1,0c0.1,0,0.3,0,0.5,0c0.4,0,0.9,0.1,1.4,0.2c0.5,0.2,0.9,0.4,1.1,0.7c0.3,0.3,0.5,0.8,0.5,1.7
	c0,2-0.1,5.1-0.1,8.2l0,0.3c-0.1,2.9-0.1,5.7-0.1,7.5c0,0.6-0.3,1.2-0.8,2l-10.4,10.4c-0.1,0.1-0.4,0.3-0.8,0.5
	c-0.4,0.2-0.7,0.2-0.8,0.2H2082c-0.3,0-0.4,0-0.6-0.1c-0.1-0.1-0.3-0.2-0.5-0.4l0,0l0,0l-7.6-7.1v-25c0,0,0,0,0.1,0
	c0.3-0.3,0.8-0.6,1.3-1.1c1.1-0.9,2.6-2.3,4.2-3.7c3.2-2.9,6.9-6.4,8.8-8.7c3.6-4.4,5.6-7.9,6.5-10.6c0.1-0.2,0.2-0.3,0.2-0.3
	c0.1-0.1,0.1-0.1,0.2-0.1C2094.8,80.5,2095.1,80.6,2095.3,80.9z"/>
<path class="st1" d="M2051.9,137.9V106h9.9v31.9H2051.9z"/>
<path class="st0" d="M2654.7,80.9L2654.7,80.9L2654.7,80.9c0.9,1.4,2,4.3,0.7,9.2l0,0l0,0c-1.2,4.9-3.2,8.3-4.8,10.5
	c-0.8,1.1-1.6,1.9-2.1,2.4c-0.3,0.3-0.5,0.4-0.6,0.5c-0.1,0.1-0.1,0.1-0.2,0.1c0,0,0,0,0,0l0,0h0l0,0v0l-3.1,2.2h3.8h20.9h0.1l0.1,0
	c0,0,0,0,0,0l0,0h0l0,0c0,0,0.1,0,0.1,0c0.1,0,0.3,0,0.5,0c0.4,0,0.9,0.1,1.4,0.2c0.5,0.2,0.9,0.4,1.1,0.7c0.3,0.3,0.5,0.8,0.5,1.7
	c0,2-0.1,5.1-0.1,8.2l0,0.3c-0.1,2.9-0.1,5.7-0.1,7.5c0,0.6-0.3,1.2-0.8,2l-10.4,10.4c-0.1,0.1-0.4,0.3-0.8,0.5
	c-0.4,0.2-0.7,0.2-0.8,0.2h-18.4c-0.3,0-0.4,0-0.6-0.1c-0.1-0.1-0.3-0.2-0.5-0.4l0,0l0,0l-7.6-7.1v-25c0,0,0,0,0.1,0
	c0.3-0.3,0.8-0.6,1.3-1.1c1.1-0.9,2.6-2.3,4.2-3.7c3.2-2.9,6.9-6.4,8.8-8.7c3.6-4.4,5.6-7.9,6.5-10.6c0.1-0.2,0.2-0.3,0.2-0.3
	c0.1-0.1,0.1-0.1,0.2-0.1C2654.2,80.5,2654.5,80.6,2654.7,80.9z"/>
<path class="st0" d="M2611.3,137.9V106h9.9v31.9H2611.3z"/>
<path class="st0" d="M1647.5,80.6c0.5-1.7,2.5-1.7,3.3-0.3c1.1,1.6,2.2,4.9,0.8,10.2c-2.5,10.2-8.2,14.3-8.2,14.3h20.9
	c0,0,4.9-0.5,4.9,3.8c0,4.1-0.3,12.4-0.3,15.9c0,1.1-0.6,1.9-1.1,2.7l-10.4,10.4c-0.6,0.5-1.6,1.1-2.5,1.1h-18.4
	c-0.8,0-1.4-0.3-1.9-0.8l-8-7.4v-26.1c0,0,11-9.3,14.6-13.7C1644.8,86.3,1646.7,83,1647.5,80.6z"/>
<path class="st0" d="M1617.6,104.8h-12.4v34.4h12.4V104.8z"/>
<path class="st0" d="M1983.9,80.9L1983.9,80.9L1983.9,80.9c0.9,1.4,2,4.3,0.7,9.2v0l0,0c-1.2,4.9-3.2,8.3-4.8,10.5
	c-0.8,1.1-1.6,1.9-2.1,2.4c-0.3,0.3-0.5,0.4-0.6,0.5c-0.1,0.1-0.1,0.1-0.2,0.1c0,0,0,0,0,0l0,0h0l0,0l0,0l-3.1,2.2h3.8h20.9h0.1
	l0.1,0l0,0l0,0l0,0l0,0c0,0,0.1,0,0.1,0c0.1,0,0.3,0,0.4,0c0.4,0,0.9,0.1,1.4,0.2c0.5,0.2,0.9,0.4,1.1,0.7c0.3,0.3,0.5,0.8,0.5,1.7
	c0,2-0.1,5.1-0.1,8.2l0,0.3c-0.1,2.9-0.1,5.7-0.1,7.5c0,0.6-0.3,1.2-0.8,2l-10.4,10.4c-0.2,0.1-0.4,0.3-0.8,0.5
	c-0.3,0.2-0.6,0.2-0.8,0.2h-18.4c-0.3,0-0.4,0-0.6-0.1c-0.1-0.1-0.3-0.2-0.5-0.4l0,0l0,0l-7.6-7.1v-25c0,0,0,0,0.1,0
	c0.3-0.3,0.8-0.6,1.3-1.1c1.1-0.9,2.6-2.3,4.2-3.7c3.2-2.9,6.9-6.4,8.8-8.7c3.6-4.4,5.6-7.9,6.5-10.6c0.1-0.2,0.2-0.3,0.2-0.3
	c0.1-0.1,0.1-0.1,0.2-0.1C1983.4,80.5,1983.7,80.6,1983.9,80.9z"/>
<path class="st0" d="M1940.5,137.9V106h9.9v31.9H1940.5z"/>
<path class="st0" d="M2540.7,80.9L2540.7,80.9L2540.7,80.9c0.9,1.4,2,4.3,0.7,9.2l0,0v0c-1.2,4.9-3.2,8.3-4.8,10.5
	c-0.8,1.1-1.6,1.9-2.1,2.4c-0.3,0.3-0.5,0.4-0.6,0.5c-0.1,0.1-0.1,0.1-0.2,0.1c0,0,0,0,0,0l0,0l0,0l0,0v0l-3.1,2.2h3.8h20.9h0.1
	l0.1,0c0,0,0,0,0,0l0,0l0,0l0,0c0,0,0.1,0,0.1,0c0.1,0,0.3,0,0.5,0c0.4,0,0.9,0.1,1.4,0.2c0.5,0.2,0.9,0.4,1.1,0.7
	c0.3,0.3,0.5,0.8,0.5,1.7c0,2-0.1,5.1-0.1,8.2v0.3c-0.1,2.9-0.1,5.7-0.1,7.5c0,0.6-0.3,1.2-0.8,2l-10.4,10.4
	c-0.1,0.1-0.4,0.3-0.8,0.5c-0.3,0.2-0.6,0.2-0.8,0.2h-18.4c-0.3,0-0.4,0-0.6-0.1c-0.1-0.1-0.3-0.2-0.5-0.4l0,0l0,0l-7.6-7.1v-25
	c0,0,0,0,0.1,0c0.3-0.3,0.8-0.6,1.3-1.1c1.1-0.9,2.6-2.3,4.2-3.7c3.2-2.9,6.9-6.4,8.8-8.7c3.6-4.4,5.6-7.9,6.5-10.6
	c0.1-0.2,0.2-0.3,0.2-0.3c0.1-0.1,0.1-0.1,0.2-0.1C2540.3,80.5,2540.5,80.6,2540.7,80.9z"/>
<path class="st0" d="M2497.4,137.9V106h9.9v31.9H2497.4z"/>
<path class="st0" d="M2429.4,80.9L2429.4,80.9L2429.4,80.9c0.9,1.4,2,4.3,0.7,9.2v0v0c-1.2,4.9-3.2,8.3-4.8,10.5
	c-0.8,1.1-1.6,1.9-2.1,2.4c-0.3,0.3-0.5,0.4-0.6,0.5c-0.1,0.1-0.1,0.1-0.2,0.1c0,0,0,0,0,0v0l0,0l0,0v0l-3.1,2.2h3.8h20.9h0.1l0.1,0
	l0,0l0,0l0,0l0,0c0,0,0.1,0,0.1,0c0.1,0,0.3,0,0.4,0c0.4,0,0.9,0.1,1.4,0.2c0.5,0.2,0.9,0.4,1.1,0.7c0.3,0.3,0.5,0.8,0.5,1.7
	c0,2-0.1,5.1-0.1,8.2l0,0.3c-0.1,2.9-0.1,5.7-0.1,7.5c0,0.6-0.3,1.2-0.8,2l-10.4,10.4c-0.1,0.1-0.4,0.3-0.8,0.5
	c-0.4,0.2-0.7,0.2-0.8,0.2h-18.4c-0.3,0-0.4,0-0.6-0.1c-0.1-0.1-0.3-0.2-0.5-0.4l0,0l0,0l-7.6-7.1v-25c0,0,0,0,0.1,0
	c0.3-0.3,0.8-0.6,1.3-1.1c1.1-0.9,2.6-2.3,4.2-3.7c3.2-2.9,6.9-6.4,8.8-8.7c3.6-4.4,5.6-7.9,6.5-10.6c0.1-0.2,0.1-0.3,0.2-0.3
	c0.1-0.1,0.1-0.1,0.2-0.1C2428.9,80.5,2429.2,80.6,2429.4,80.9z"/>
<path class="st0" d="M2386,137.9V106h9.9v31.9H2386z"/>
<path class="st0" d="M2318,80.9L2318,80.9L2318,80.9c0.9,1.4,2,4.3,0.7,9.2l0,0v0c-1.2,4.9-3.2,8.3-4.8,10.5
	c-0.8,1.1-1.6,1.9-2.1,2.4c-0.3,0.3-0.5,0.4-0.6,0.5c-0.1,0.1-0.1,0.1-0.2,0.1c0,0,0,0,0,0l0,0l0,0l0,0v0l-3.1,2.2h3.8h20.9h0.1
	l0.1,0l0,0l0,0h0l0,0c0,0,0.1,0,0.1,0c0.1,0,0.3,0,0.5,0c0.4,0,0.9,0.1,1.4,0.2c0.5,0.2,0.9,0.4,1.1,0.7c0.3,0.3,0.5,0.8,0.5,1.7
	c0,2-0.1,5.1-0.1,8.2l0,0.3c-0.1,2.9-0.1,5.7-0.1,7.5c0,0.6-0.3,1.2-0.8,2l-10.4,10.4c-0.1,0.1-0.4,0.3-0.8,0.5
	c-0.4,0.2-0.6,0.2-0.8,0.2h-18.4c-0.3,0-0.4,0-0.6-0.1c-0.1-0.1-0.3-0.2-0.5-0.4l0,0l0,0l-7.6-7.1v-25c0,0,0,0,0.1,0
	c0.3-0.3,0.8-0.6,1.3-1.1c1.1-0.9,2.6-2.3,4.2-3.7c3.2-2.9,6.9-6.4,8.8-8.7c3.6-4.4,5.6-7.9,6.5-10.6c0.1-0.2,0.2-0.3,0.2-0.3
	c0.1-0.1,0.1-0.1,0.2-0.1C2317.5,80.5,2317.8,80.6,2318,80.9z"/>
<path class="st0" d="M2274.6,137.9V106h9.9v31.9H2274.6z"/>
<path class="st0" d="M1825.2,158.6L1825.2,158.6L1825.2,158.6c0.9,1.4,2,4.3,0.7,9.2l0,0l0,0c-1.2,4.9-3.2,8.3-4.8,10.5
	c-0.8,1.1-1.6,1.9-2.1,2.4c-0.3,0.3-0.5,0.4-0.6,0.5c-0.1,0.1-0.1,0.1-0.2,0.1c0,0,0,0,0,0l0,0l0,0l0,0h0l-3.1,2.2h3.8h20.9h0.1
	l0.1,0c0,0,0,0,0,0l0,0h0l0,0c0,0,0.1,0,0.1,0c0.1,0,0.3,0,0.5,0c0.4,0,0.9,0.1,1.4,0.2c0.5,0.2,0.9,0.4,1.1,0.7
	c0.3,0.3,0.5,0.8,0.5,1.7c0,2-0.1,5.1-0.1,8.2l0,0.3c-0.1,2.9-0.1,5.7-0.1,7.5c0,0.6-0.3,1.2-0.8,2l-10.4,10.4
	c-0.1,0.1-0.4,0.3-0.8,0.5c-0.4,0.2-0.7,0.2-0.8,0.2H1812c-0.3,0-0.4,0-0.6-0.1c-0.1-0.1-0.3-0.2-0.5-0.4l0,0l0,0l-7.6-7.1v-25
	c0,0,0,0,0.1,0c0.3-0.3,0.8-0.7,1.3-1.1c1.1-0.9,2.6-2.3,4.2-3.7c3.2-2.9,6.9-6.4,8.8-8.7c3.6-4.4,5.6-7.9,6.5-10.6
	c0.1-0.2,0.2-0.3,0.2-0.3c0.1,0,0.1-0.1,0.2-0.1C1824.7,158.2,1825,158.3,1825.2,158.6z"/>
<path class="st0" d="M1781.8,215.6v-31.9h9.9v31.9H1781.8z"/>
<path class="st0" d="M2159.3,158.6L2159.3,158.6L2159.3,158.6c0.9,1.4,2,4.3,0.7,9.2v0v0c-1.2,4.9-3.2,8.3-4.8,10.5
	c-0.8,1.1-1.6,1.9-2.1,2.4c-0.3,0.3-0.5,0.4-0.6,0.5c-0.1,0.1-0.1,0.1-0.2,0.1c0,0,0,0,0,0v0l0,0l0,0v0l-3.1,2.2h3.8h20.9h0.1l0.1,0
	l0,0l0,0l0,0l0,0c0,0,0.1,0,0.1,0c0.1,0,0.3,0,0.5,0c0.4,0,0.9,0.1,1.4,0.2c0.5,0.2,0.9,0.4,1.1,0.7c0.3,0.3,0.5,0.8,0.5,1.7
	c0,2-0.1,5.1-0.1,8.1l0,0.3c-0.1,2.9-0.1,5.7-0.1,7.5c0,0.6-0.3,1.2-0.8,2l-10.4,10.4c-0.2,0.1-0.4,0.3-0.8,0.5
	c-0.4,0.2-0.7,0.2-0.8,0.2h-18.4c-0.3,0-0.4,0-0.6-0.1c-0.1-0.1-0.3-0.2-0.5-0.4l0,0l0,0l-7.6-7.1v-25c0,0,0,0,0,0
	c0.3-0.3,0.8-0.6,1.3-1.1c1.1-0.9,2.6-2.3,4.2-3.7c3.2-2.9,6.9-6.4,8.8-8.7c3.6-4.4,5.6-7.9,6.5-10.6c0.1-0.2,0.2-0.3,0.2-0.4
	c0.1,0,0.1-0.1,0.2-0.1C2158.8,158.2,2159.1,158.3,2159.3,158.6z"/>
<path class="st0" d="M2116,215.6v-31.9h9.9v31.9H2116z"/>
<path class="st0" d="M2473.4,158.6L2473.4,158.6L2473.4,158.6c0.9,1.4,2,4.3,0.7,9.2v0l0,0c-1.2,4.9-3.2,8.3-4.8,10.5
	c-0.8,1.1-1.6,1.9-2.1,2.4c-0.3,0.3-0.5,0.4-0.6,0.5c-0.1,0.1-0.1,0.1-0.2,0.1c0,0,0,0,0,0v0l0,0l0,0l0,0l-3.1,2.2h3.8h20.9h0.1
	l0.1,0l0,0l0,0l0,0l0,0c0,0,0.1,0,0.1,0c0.1,0,0.3,0,0.5,0c0.4,0,0.9,0.1,1.4,0.2s0.9,0.4,1.1,0.7c0.3,0.3,0.5,0.8,0.5,1.7
	c0,2-0.1,5.1-0.1,8.1l0,0.3c-0.1,2.9-0.1,5.7-0.1,7.5c0,0.6-0.3,1.2-0.8,2l-10.4,10.4c-0.1,0.1-0.4,0.3-0.8,0.5
	c-0.4,0.2-0.7,0.2-0.8,0.2h-18.4c-0.3,0-0.4,0-0.6-0.1c-0.1-0.1-0.3-0.2-0.5-0.4l0,0l0,0l-7.6-7.1v-25c0,0,0,0,0.1,0
	c0.3-0.3,0.8-0.6,1.3-1.1c1.1-0.9,2.6-2.3,4.2-3.7c3.2-2.9,6.9-6.4,8.8-8.7c3.6-4.4,5.6-7.9,6.5-10.6c0.1-0.2,0.2-0.3,0.2-0.4
	c0.1,0,0.1-0.1,0.2-0.1C2472.9,158.2,2473.2,158.3,2473.4,158.6z"/>
<path class="st0" d="M2430,215.6v-31.9h9.9v31.9H2430z"/>
<path class="st0" d="M1713.8,158.6L1713.8,158.6L1713.8,158.6c0.9,1.4,2,4.3,0.7,9.2l0,0l0,0c-1.2,4.9-3.2,8.3-4.8,10.5
	c-0.8,1.1-1.6,1.9-2.1,2.4c-0.3,0.3-0.5,0.4-0.6,0.5c-0.1,0.1-0.1,0.1-0.2,0.1c0,0,0,0,0,0l0,0h0l0,0l0,0l-3.1,2.2h3.8h20.9h0.1
	l0.1,0c0,0,0,0,0,0l0,0h0l0,0c0,0,0.1,0,0.1,0c0.1,0,0.3,0,0.5,0c0.4,0,0.9,0.1,1.4,0.2c0.5,0.2,0.9,0.4,1.1,0.7
	c0.3,0.3,0.5,0.8,0.5,1.7c0,2-0.1,5.1-0.1,8.1l0,0.3c-0.1,2.9-0.1,5.7-0.1,7.5c0,0.6-0.3,1.2-0.8,2l-10.4,10.4
	c-0.1,0.1-0.4,0.3-0.8,0.5c-0.4,0.2-0.7,0.2-0.8,0.2h-18.4c-0.3,0-0.4,0-0.6-0.1c-0.1-0.1-0.3-0.2-0.5-0.4l0,0l0,0l-7.6-7.1v-25
	c0,0,0,0,0.1,0c0.3-0.3,0.8-0.6,1.3-1.1c1.1-0.9,2.6-2.3,4.2-3.7c3.2-2.9,6.9-6.4,8.8-8.7c3.6-4.4,5.6-7.9,6.5-10.6
	c0.1-0.2,0.2-0.3,0.2-0.4c0.1,0,0.1-0.1,0.2-0.1C1713.4,158.2,1713.6,158.3,1713.8,158.6z"/>
<path class="st0" d="M1670.5,215.6v-31.9h9.9v31.9H1670.5z"/>
<path class="st0" d="M2047.9,158.6L2047.9,158.6L2047.9,158.6c0.9,1.4,2,4.3,0.7,9.2l0,0v0c-1.2,4.9-3.2,8.3-4.8,10.5
	c-0.8,1.1-1.6,1.9-2.1,2.4c-0.3,0.3-0.5,0.4-0.6,0.5c-0.1,0.1-0.1,0.1-0.2,0.1c0,0,0,0,0,0l0,0v0l0,0l0,0l-3.1,2.2h3.8h20.9h0.1
	l0.1,0c0,0,0,0,0,0l0,0l0,0l0,0c0,0,0.1,0,0.1,0c0.1,0,0.3,0,0.5,0c0.4,0,0.9,0.1,1.4,0.2c0.5,0.2,0.9,0.4,1.1,0.7
	c0.3,0.3,0.5,0.8,0.5,1.7c0,2-0.1,5.1-0.1,8.2v0.3c-0.1,2.9-0.1,5.7-0.1,7.5c0,0.6-0.3,1.2-0.8,2l-10.4,10.4
	c-0.1,0.1-0.4,0.3-0.8,0.5c-0.3,0.2-0.6,0.2-0.8,0.2h-18.4c-0.3,0-0.4,0-0.6-0.1c-0.1-0.1-0.3-0.2-0.5-0.4l0,0l0,0l-7.6-7.1v-25
	c0,0,0,0,0,0c0.3-0.3,0.8-0.7,1.3-1.1c1.1-0.9,2.6-2.3,4.2-3.7c3.2-2.9,6.9-6.4,8.8-8.7c3.6-4.4,5.6-7.9,6.5-10.6
	c0.1-0.2,0.2-0.3,0.2-0.3c0.1,0,0.1-0.1,0.2-0.1C2047.5,158.2,2047.7,158.3,2047.9,158.6z"/>
<path class="st0" d="M2004.6,215.6v-31.9h9.9v31.9H2004.6z"/>
<path class="st1" d="M2372,158.6L2372,158.6L2372,158.6c0.9,1.4,2,4.3,0.7,9.2v0v0c-1.2,4.9-3.2,8.3-4.8,10.5
	c-0.8,1.1-1.6,1.9-2.1,2.4c-0.3,0.3-0.5,0.4-0.6,0.5c-0.1,0.1-0.1,0.1-0.2,0.1c0,0,0,0,0,0v0v0l0,0l0,0l-3.1,2.2h3.8h20.9h0.1l0.1,0
	l0,0l0,0l0,0l0,0c0,0,0.1,0,0.1,0c0.1,0,0.3,0,0.5,0c0.4,0,0.9,0.1,1.4,0.2c0.5,0.2,0.9,0.4,1.1,0.7c0.3,0.3,0.5,0.8,0.5,1.7
	c0,2-0.1,5.1-0.1,8.2l0,0.3c-0.1,2.9-0.1,5.7-0.1,7.5c0,0.6-0.3,1.2-0.8,2l-10.4,10.4c-0.2,0.1-0.4,0.3-0.8,0.5
	c-0.4,0.2-0.7,0.2-0.8,0.2h-18.4c-0.3,0-0.4,0-0.6-0.1c-0.1-0.1-0.3-0.2-0.5-0.4l0,0l0,0l-7.6-7.1v-25c0,0,0,0,0,0
	c0.3-0.3,0.8-0.7,1.3-1.1c1.1-0.9,2.6-2.3,4.2-3.7c3.2-2.9,6.9-6.4,8.8-8.7c3.6-4.4,5.7-7.9,6.5-10.6c0.1-0.2,0.2-0.3,0.2-0.3
	c0.1,0,0.1-0.1,0.2-0.1C2371.6,158.2,2371.8,158.3,2372,158.6z"/>
<path class="st1" d="M2328.7,215.6v-31.9h9.9v31.9H2328.7z"/>
<path class="st0" d="M1602.5,158.6L1602.5,158.6L1602.5,158.6c0.9,1.4,2,4.3,0.7,9.2l0,0l0,0c-1.2,4.9-3.2,8.3-4.8,10.5
	c-0.8,1.1-1.6,1.9-2.1,2.4c-0.3,0.3-0.5,0.4-0.6,0.5c-0.1,0.1-0.1,0.1-0.2,0.1c0,0,0,0,0,0l0,0h0l0,0v0l-3.1,2.2h3.8h20.9h0.1l0.1,0
	c0,0,0,0,0,0l0,0h0l0,0c0,0,0.1,0,0.1,0c0.1,0,0.3,0,0.5,0c0.4,0,0.9,0.1,1.4,0.2c0.5,0.2,0.9,0.4,1.1,0.7c0.3,0.3,0.5,0.8,0.5,1.7
	c0,2-0.1,5.1-0.1,8.1l0,0.3c-0.1,2.9-0.1,5.7-0.1,7.5c0,0.6-0.3,1.2-0.8,2l-10.4,10.4c-0.1,0.1-0.4,0.3-0.8,0.5
	c-0.4,0.2-0.7,0.2-0.8,0.2h-18.4c-0.3,0-0.4,0-0.6-0.1c-0.1-0.1-0.3-0.2-0.5-0.4l0,0l0,0l-7.6-7.1v-25c0,0,0,0,0.1,0
	c0.3-0.3,0.8-0.6,1.3-1.1c1.1-0.9,2.6-2.3,4.2-3.7c3.2-2.9,6.9-6.4,8.8-8.7c3.6-4.4,5.6-7.9,6.5-10.6c0.1-0.2,0.2-0.3,0.2-0.4
	c0.1,0,0.1-0.1,0.2-0.1C1602,158.2,1602.3,158.3,1602.5,158.6z"/>
<path class="st0" d="M1559.1,215.6v-31.9h9.9v31.9H1559.1z"/>
<path class="st0" d="M1934.3,158.3c0.5-1.6,2.5-1.6,3.3-0.3c1.1,1.6,2.2,4.9,0.8,10.2c-2.5,10.2-8.2,14.3-8.2,14.3h20.9
	c0,0,4.9-0.5,4.9,3.8c0,4.1-0.3,12.4-0.3,15.9c0,1.1-0.6,1.9-1.1,2.7l-10.4,10.4c-0.6,0.6-1.7,1.1-2.5,1.1h-18.4
	c-0.8,0-1.4-0.3-1.9-0.8l-8-7.4v-26.1c0,0,11-9.3,14.6-13.7C1931.6,164,1933.5,160.7,1934.3,158.3z"/>
<path class="st0" d="M1904.4,182.4H1892v34.4h12.4V182.4z"/>
<path class="st0" d="M2270.7,158.6L2270.7,158.6L2270.7,158.6c0.9,1.4,2,4.3,0.7,9.2v0l0,0c-1.2,4.9-3.2,8.3-4.8,10.5
	c-0.8,1.1-1.6,1.9-2.1,2.4c-0.3,0.3-0.5,0.4-0.6,0.5c-0.1,0.1-0.1,0.1-0.2,0.1c0,0,0,0,0,0l0,0v0l0,0l0,0l-3.1,2.2h3.8h20.9h0.1
	l0.1,0l0,0l0,0l0,0l0,0c0,0,0.1,0,0.1,0c0.1,0,0.3,0,0.4,0c0.4,0,0.9,0.1,1.4,0.2c0.5,0.2,0.9,0.4,1.1,0.7c0.3,0.3,0.5,0.8,0.5,1.7
	c0,2-0.1,5.1-0.1,8.2l0,0.3c-0.1,2.9-0.1,5.7-0.1,7.5c0,0.6-0.3,1.2-0.8,2l-10.4,10.4c-0.1,0.1-0.4,0.3-0.8,0.5
	c-0.3,0.2-0.6,0.2-0.8,0.2h-18.4c-0.3,0-0.4,0-0.6-0.1c-0.1-0.1-0.3-0.2-0.5-0.4l0,0l0,0l-7.6-7.1v-25c0,0,0,0,0.1,0
	c0.3-0.3,0.8-0.7,1.3-1.1c1.1-0.9,2.6-2.3,4.2-3.7c3.2-2.9,6.9-6.4,8.8-8.7c3.6-4.4,5.6-7.9,6.5-10.6c0.1-0.2,0.2-0.3,0.2-0.3
	c0.1,0,0.1-0.1,0.2-0.1C2270.2,158.2,2270.5,158.3,2270.7,158.6z"/>
<path class="st0" d="M2227.3,215.6v-31.9h9.9v31.9H2227.3z"/>
<path class="st0" d="M2583.8,158.6L2583.8,158.6L2583.8,158.6c0.9,1.4,2,4.3,0.7,9.2l0,0v0c-1.2,4.9-3.2,8.3-4.8,10.5
	c-0.8,1.1-1.6,1.9-2.1,2.4c-0.3,0.3-0.5,0.4-0.6,0.5c-0.1,0.1-0.1,0.1-0.2,0.1c0,0,0,0,0,0l0,0l0,0l0,0v0l-3.1,2.2h3.8h20.9h0.1
	l0.1,0l0,0c0,0,0,0,0,0l0,0l0,0c0,0,0.1,0,0.1,0c0.1,0,0.3,0,0.5,0c0.4,0,0.9,0.1,1.4,0.2s0.9,0.4,1.1,0.7c0.3,0.3,0.5,0.8,0.5,1.7
	c0,2-0.1,5.1-0.1,8.1l0,0.3c-0.1,2.9-0.1,5.7-0.1,7.5c0,0.6-0.3,1.2-0.8,2l-10.4,10.4c-0.1,0.1-0.4,0.3-0.8,0.5
	c-0.4,0.2-0.6,0.2-0.8,0.2h-18.4c-0.3,0-0.4,0-0.6-0.1c-0.1-0.1-0.3-0.2-0.5-0.4l0,0l0,0l-7.6-7.1v-25c0,0,0,0,0.1,0
	c0.3-0.3,0.8-0.6,1.3-1.1c1.1-0.9,2.6-2.3,4.2-3.7c3.2-2.9,6.9-6.4,8.8-8.7c3.6-4.4,5.6-7.9,6.5-10.6c0.1-0.2,0.2-0.3,0.2-0.4
	c0.1,0,0.1-0.1,0.2-0.1C2583.3,158.2,2583.6,158.3,2583.8,158.6z"/>
<path class="st0" d="M2540.4,215.6v-31.9h9.9v31.9H2540.4z"/>
<path class="st0" d="M1481.5,157.3L1481.5,157.3L1481.5,157.3c0.9,1.4,2,4.3,0.7,9.2l0,0l0,0c-1.2,4.9-3.2,8.3-4.8,10.5
	c-0.8,1.1-1.6,1.9-2.1,2.4c-0.3,0.3-0.5,0.4-0.6,0.5c-0.1,0.1-0.1,0.1-0.2,0.1c0,0,0,0,0,0l0,0h0l0,0l0,0l-3.1,2.2h3.8h20.9h0.1
	l0.1,0c0,0,0,0,0,0l0,0h0l0,0c0,0,0.1,0,0.1,0c0.1,0,0.3,0,0.5,0c0.4,0,0.9,0.1,1.4,0.2c0.5,0.2,0.9,0.4,1.1,0.7
	c0.3,0.3,0.5,0.8,0.5,1.7c0,2-0.1,5.1-0.1,8.2l0,0.3c-0.1,2.9-0.1,5.7-0.1,7.5c0,0.6-0.3,1.2-0.8,2l-10.4,10.4
	c-0.1,0.1-0.4,0.3-0.8,0.5c-0.4,0.2-0.7,0.2-0.8,0.2h-18.4c-0.3,0-0.4,0-0.6-0.1c-0.1-0.1-0.3-0.2-0.5-0.4l0,0l0,0l-7.6-7.1v-25
	c0,0,0,0,0.1,0c0.3-0.3,0.8-0.6,1.3-1.1c1.1-0.9,2.6-2.3,4.2-3.7c3.2-2.9,6.9-6.4,8.8-8.7c3.6-4.4,5.6-7.9,6.5-10.6
	c0.1-0.2,0.2-0.3,0.2-0.3c0.1-0.1,0.1-0.1,0.2-0.1C1481.1,156.9,1481.3,157,1481.5,157.3z"/>
<path class="st0" d="M1438.2,214.3v-31.9h9.9v31.9H1438.2z"/>
<path class="st0" d="M1371.5,159.3L1371.5,159.3L1371.5,159.3c0.9,1.4,2,4.3,0.7,9.2l0,0l0,0c-1.2,4.9-3.2,8.3-4.8,10.5
	c-0.8,1.1-1.6,1.9-2.1,2.4c-0.3,0.3-0.5,0.4-0.6,0.5c-0.1,0.1-0.1,0.1-0.2,0.1c0,0,0,0,0,0l0,0h0l0,0v0l-3.1,2.2h3.8h20.9h0.1l0.1,0
	c0,0,0,0,0,0l0,0h0l0,0c0,0,0.1,0,0.1,0c0.1,0,0.3,0,0.5,0c0.4,0,0.9,0.1,1.4,0.2c0.5,0.2,0.9,0.4,1.1,0.7c0.3,0.3,0.5,0.8,0.5,1.7
	c0,2-0.1,5.1-0.1,8.2l0,0.3c-0.1,2.9-0.1,5.7-0.1,7.5c0,0.6-0.3,1.2-0.8,2l-10.4,10.4c-0.1,0.1-0.4,0.3-0.8,0.5
	c-0.4,0.2-0.7,0.2-0.8,0.2h-18.4c-0.3,0-0.4,0-0.6-0.1c-0.1-0.1-0.3-0.2-0.5-0.4l0,0l0,0l-7.6-7.1v-25c0,0,0,0,0.1,0
	c0.3-0.3,0.8-0.6,1.3-1.1c1.1-0.9,2.6-2.3,4.2-3.7c3.2-2.9,6.9-6.4,8.8-8.7c3.6-4.4,5.6-7.9,6.5-10.6c0.1-0.2,0.2-0.3,0.2-0.3
	c0.1-0.1,0.1-0.1,0.2-0.1C1371.1,158.9,1371.3,159,1371.5,159.3z"/>
<path class="st0" d="M1328.2,216.3v-31.9h9.9v31.9H1328.2z"/>
</svg>
