<svg width="491" height="120" viewBox="0 0 491 120" fill="none" xmlns="http://www.w3.org/2000/svg">
<mask id="mask0" mask-type="alpha" maskUnits="userSpaceOnUse" x="0" y="0" width="491" height="120">
<rect width="491" height="120" fill="#C4C4C4"/>
</mask>
<g mask="url(#mask0)">
<g clip-path="url(#clip0)">
<path d="M25.5002 2.59992C26.0002 3.29992 26.6002 4.89992 25.9002 7.59992C25.2002 10.2999 24.2002 12.1999 23.3002 13.3999C22.8002 13.9999 22.4002 14.3999 22.1002 14.6999C22.0002 14.7999 21.8002 14.8999 21.8002 14.9999L21.7002 15.0999L19.7002 16.4999H22.2002H33.7002C33.7002 16.4999 33.7002 16.4999 33.8002 16.4999C33.9002 16.4999 33.9002 16.4999 34.0002 16.4999C34.2002 16.4999 34.5002 16.4999 34.7002 16.5999C34.9002 16.6999 35.1002 16.7999 35.3002 16.9999C35.4002 17.1999 35.5002 17.3999 35.5002 17.8999C35.5002 18.9999 35.5002 20.6999 35.4002 22.3999V22.5999C35.4002 24.1999 35.3002 25.7999 35.3002 26.6999C35.3002 26.9999 35.2002 27.2999 34.9002 27.6999L29.2002 33.3999C29.1002 33.4999 29.0002 33.5999 28.8002 33.6999C28.6002 33.7999 28.5002 33.7999 28.4002 33.7999H18.3002C18.2002 33.7999 18.1002 33.7999 18.0002 33.7999C17.9002 33.7999 17.9002 33.6999 17.8002 33.5999L13.7002 29.6999V15.8999C13.9002 15.7999 14.1002 15.4999 14.4002 15.2999C15.0002 14.7999 15.8002 14.0999 16.7002 13.2999C18.5002 11.6999 20.5002 9.79992 21.5002 8.49992C23.5002 5.99992 24.6002 4.09992 25.1002 2.59992C25.1002 2.49992 25.2002 2.49992 25.2002 2.49992C25.2002 2.49992 25.2002 2.49992 25.3002 2.49992C25.3002 2.39992 25.4002 2.49992 25.5002 2.59992Z" fill="#727272" stroke="" stroke-opacity="0" fill-opacity="0.1" stroke-width="1.5796"/>
<path d="M1.7998 33.9V16.5H6.9998V33.9H1.7998Z" fill="#727272" stroke="" stroke-opacity="0" fill-opacity="0.1" stroke-width="1.5796"/>
<path d="M209.8 2.59992C210.3 3.29992 210.9 4.89992 210.2 7.59992C209.5 10.2999 208.5 12.1999 207.6 13.3999C207.1 13.9999 206.7 14.3999 206.4 14.6999C206.3 14.7999 206.1 14.8999 206.1 14.9999L206 15.0999L204 16.4999H206.5H218C218 16.4999 218 16.4999 218.1 16.4999C218.2 16.4999 218.2 16.4999 218.3 16.4999C218.5 16.4999 218.8 16.4999 219 16.5999C219.2 16.6999 219.4 16.7999 219.6 16.9999C219.7 17.1999 219.8 17.3999 219.8 17.8999C219.8 18.9999 219.8 20.6999 219.7 22.3999V22.5999C219.7 24.1999 219.6 25.7999 219.6 26.6999C219.6 26.9999 219.5 27.2999 219.2 27.6999L213.5 33.3999C213.4 33.4999 213.3 33.5999 213.1 33.6999C212.9 33.7999 212.8 33.7999 212.7 33.7999H202.5C202.4 33.7999 202.3 33.7999 202.2 33.7999C202.1 33.7999 202.1 33.6999 202 33.5999L197.9 29.6999V15.8999C198.1 15.7999 198.3 15.4999 198.6 15.2999C199.2 14.7999 200 14.0999 200.9 13.2999C202.7 11.6999 204.7 9.79992 205.7 8.49992C207.7 5.99992 208.8 4.09992 209.3 2.59992C209.3 2.49992 209.4 2.49992 209.4 2.49992C209.4 2.49992 209.4 2.49992 209.5 2.49992C209.6 2.39992 209.7 2.49992 209.8 2.59992Z" fill="#727272" stroke="" stroke-opacity="0" fill-opacity="0.1" stroke-width="1.5796"/>
<path d="M186.1 33.9V16.5H191.3V33.9H186.1Z" fill="#727272" stroke="" stroke-opacity="0" fill-opacity="0.1" stroke-width="1.5796"/>
<path d="M394 2.59992C394.5 3.29992 395.1 4.89992 394.4 7.59992C393.7 10.2999 392.7 12.1999 391.8 13.3999C391.3 13.9999 390.9 14.3999 390.6 14.6999C390.5 14.7999 390.3 14.8999 390.3 14.9999L390.2 15.0999L388.2 16.4999H390.7H402.2C402.2 16.4999 402.2 16.4999 402.3 16.4999C402.4 16.4999 402.4 16.4999 402.5 16.4999C402.7 16.4999 403 16.4999 403.2 16.5999C403.4 16.6999 403.6 16.7999 403.8 16.9999C403.9 17.1999 404 17.3999 404 17.8999C404 18.9999 404 20.6999 403.9 22.3999V22.5999C403.9 24.1999 403.8 25.7999 403.8 26.6999C403.8 26.9999 403.7 27.2999 403.4 27.6999L397.7 33.3999C397.6 33.4999 397.5 33.5999 397.3 33.6999C397.1 33.7999 397 33.7999 396.9 33.7999H386.7C386.6 33.7999 386.5 33.7999 386.4 33.7999C386.3 33.7999 386.3 33.6999 386.2 33.5999L382.1 29.6999V15.8999C382.3 15.7999 382.5 15.4999 382.8 15.2999C383.4 14.7999 384.2 14.0999 385.1 13.2999C386.9 11.6999 388.9 9.79992 389.9 8.49992C391.9 5.99992 393 4.09992 393.5 2.59992C393.5 2.49992 393.6 2.49992 393.6 2.49992C393.6 2.49992 393.6 2.49992 393.7 2.49992C393.8 2.39992 393.9 2.49992 394 2.59992Z" fill="#727272" stroke="" stroke-opacity="0" fill-opacity="0.1" stroke-width="1.5796"/>
<path d="M370.3 33.9V16.5H375.5V33.9H370.3Z" fill="#727272" stroke="" stroke-opacity="0" fill-opacity="0.1" stroke-width="1.5796"/>
<path d="M148.3 2.59992C148.8 3.29992 149.4 4.89992 148.7 7.59992C148 10.2999 147 12.1999 146.1 13.3999C145.6 13.9999 145.2 14.3999 144.9 14.6999C144.8 14.7999 144.6 14.8999 144.6 14.9999L144.5 15.0999L142.5 16.4999H145H156.5C156.5 16.4999 156.5 16.4999 156.6 16.4999C156.7 16.4999 156.7 16.4999 156.8 16.4999C157 16.4999 157.3 16.4999 157.5 16.5999C157.7 16.6999 157.9 16.7999 158.1 16.9999C158.2 17.1999 158.3 17.3999 158.3 17.8999C158.3 18.9999 158.3 20.6999 158.2 22.3999V22.5999C158.2 24.1999 158.1 25.7999 158.1 26.6999C158.1 26.9999 158 27.2999 157.7 27.6999L152 33.3999C151.9 33.4999 151.8 33.5999 151.6 33.6999C151.4 33.7999 151.3 33.7999 151.2 33.7999H141C140.9 33.7999 140.8 33.7999 140.7 33.7999C140.6 33.7999 140.6 33.6999 140.5 33.5999L136.4 29.6999V15.8999C136.6 15.7999 136.8 15.4999 137.1 15.2999C137.7 14.7999 138.5 14.0999 139.4 13.2999C141.2 11.6999 143.2 9.79992 144.2 8.49992C146.2 5.99992 147.3 4.09992 147.8 2.59992C147.8 2.49992 147.9 2.49992 147.9 2.49992C147.9 2.49992 147.9 2.49992 148 2.49992C148.1 2.39992 148.3 2.49992 148.3 2.59992Z" fill="#727272" stroke="" stroke-opacity="0" fill-opacity="0.1" stroke-width="1.5796"/>
<path d="M124.6 33.9V16.5H129.8V33.9H124.6Z" fill="#727272" stroke="" stroke-opacity="0" fill-opacity="0.1" stroke-width="1.5796"/>
<path d="M332.6 2.59992C333.1 3.29992 333.7 4.89992 333 7.59992C332.3 10.2999 331.3 12.1999 330.4 13.3999C329.9 13.9999 329.5 14.3999 329.2 14.6999C329.1 14.7999 328.9 14.8999 328.9 14.9999L328.8 15.0999L326.8 16.4999H329.3H340.8C340.8 16.4999 340.8 16.4999 340.9 16.4999C341 16.4999 341 16.4999 341.1 16.4999C341.3 16.4999 341.6 16.4999 341.8 16.5999C342 16.6999 342.2 16.7999 342.4 16.9999C342.5 17.1999 342.6 17.3999 342.6 17.8999C342.6 18.9999 342.6 20.6999 342.5 22.3999V22.5999C342.5 24.1999 342.4 25.7999 342.4 26.6999C342.4 26.9999 342.3 27.2999 342 27.6999L336.3 33.3999C336.2 33.4999 336.1 33.5999 335.9 33.6999C335.7 33.7999 335.6 33.7999 335.5 33.7999H325.3C325.2 33.7999 325.1 33.7999 325 33.7999C324.9 33.7999 324.9 33.6999 324.8 33.5999L320.7 29.6999V15.8999C320.9 15.7999 321.1 15.4999 321.4 15.2999C322 14.7999 322.8 14.0999 323.7 13.2999C325.5 11.6999 327.5 9.79992 328.5 8.49992C330.5 5.99992 331.6 4.09992 332.1 2.59992C332.1 2.49992 332.2 2.49992 332.2 2.49992C332.2 2.49992 332.2 2.49992 332.3 2.49992C332.4 2.39992 332.5 2.49992 332.6 2.59992Z" fill="#727272" stroke="" stroke-opacity="0" fill-opacity="0.1" stroke-width="1.5796"/>
<path d="M308.9 33.9V16.5H314.1V33.9H308.9Z" fill="#727272" stroke="" stroke-opacity="0" fill-opacity="0.1" stroke-width="1.5796"/>
<path d="M85.8002 2.4001C86.1002 1.5001 87.2002 1.5001 87.6002 2.2001C88.2002 3.1001 88.8002 4.9001 88.1002 7.8001C86.7002 13.4001 83.6002 15.7001 83.6002 15.7001H95.0002C95.0002 15.7001 97.7002 15.4001 97.7002 17.8001C97.7002 20.1001 97.5002 24.6001 97.5002 26.6001C97.5002 27.2001 97.2002 27.7001 96.9002 28.1001L91.1002 33.9001C90.8002 34.2001 90.2002 34.5001 89.7002 34.5001H79.7002C79.2002 34.5001 78.9002 34.3001 78.6002 34.0001L74.2002 29.9001V15.5001C74.2002 15.5001 80.3002 10.3001 82.2002 7.9001C84.3002 5.5001 85.3002 3.7001 85.8002 2.4001Z" fill="#F4E455" stroke="" stroke-opacity="0" stroke-width="1.5796"/>
<path d="M69.1999 15.7H62.3999V34.7H69.1999V15.7Z" fill="#F4E455" stroke="" stroke-opacity="0" stroke-width="1.5796"/>
<path d="M271.2 2.59992C271.7 3.29992 272.3 4.89992 271.6 7.59992C270.9 10.2999 269.9 12.1999 269 13.3999C268.5 13.9999 268.1 14.3999 267.8 14.6999C267.7 14.7999 267.5 14.8999 267.5 14.9999L267.4 15.0999L265.4 16.4999H267.9H279.4C279.4 16.4999 279.4 16.4999 279.5 16.4999C279.6 16.4999 279.6 16.4999 279.7 16.4999C279.9 16.4999 280.2 16.4999 280.4 16.5999C280.6 16.6999 280.8 16.7999 281 16.9999C281.1 17.1999 281.2 17.3999 281.2 17.8999C281.2 18.9999 281.2 20.6999 281.1 22.3999V22.5999C281.1 24.1999 281 25.7999 281 26.6999C281 26.9999 280.9 27.2999 280.6 27.6999L274.9 33.3999C274.8 33.4999 274.7 33.5999 274.5 33.6999C274.3 33.7999 274.2 33.7999 274.1 33.7999H264C263.9 33.7999 263.8 33.7999 263.7 33.7999C263.6 33.7999 263.6 33.6999 263.5 33.5999L259.4 29.6999V15.8999C259.6 15.7999 259.8 15.4999 260.1 15.2999C260.7 14.7999 261.5 14.0999 262.4 13.2999C264.2 11.6999 266.2 9.79992 267.2 8.49992C269.2 5.99992 270.3 4.09992 270.8 2.59992C270.8 2.49992 270.9 2.49992 270.9 2.49992C270.9 2.49992 270.9 2.49992 271 2.49992C271 2.39992 271.1 2.49992 271.2 2.59992Z" fill="#727272" stroke="" stroke-opacity="0" fill-opacity="0.1" stroke-width="1.5796"/>
<path d="M247.5 33.9V16.5H252.7V33.9H247.5Z" fill="#727272" stroke="" stroke-opacity="0" fill-opacity="0.1" stroke-width="1.5796"/>
<path d="M455.5 2.59992C456 3.29992 456.6 4.89992 455.9 7.59992C455.2 10.2999 454.2 12.1999 453.3 13.3999C452.8 13.9999 452.4 14.3999 452.1 14.6999C452 14.7999 451.8 14.8999 451.8 14.9999L451.7 15.0999L449.7 16.4999H452.2H463.7C463.7 16.4999 463.7 16.4999 463.8 16.4999C463.9 16.4999 463.9 16.4999 464 16.4999C464.2 16.4999 464.5 16.4999 464.7 16.5999C464.9 16.6999 465.1 16.7999 465.3 16.9999C465.4 17.1999 465.5 17.3999 465.5 17.8999C465.5 18.9999 465.5 20.6999 465.4 22.3999V22.5999C465.4 24.1999 465.3 25.7999 465.3 26.6999C465.3 26.9999 465.2 27.2999 464.9 27.6999L459.2 33.3999C459.1 33.4999 459 33.5999 458.8 33.6999C458.6 33.7999 458.5 33.7999 458.4 33.7999H448.2C448.1 33.7999 448 33.7999 447.9 33.7999C447.8 33.7999 447.8 33.6999 447.7 33.5999L443.6 29.6999V15.8999C443.8 15.7999 444 15.4999 444.3 15.2999C444.9 14.7999 445.7 14.0999 446.6 13.2999C448.4 11.6999 450.4 9.79992 451.4 8.49992C453.4 5.99992 454.5 4.09992 455 2.59992C455 2.49992 455.1 2.49992 455.1 2.49992C455.1 2.49992 455.1 2.49992 455.2 2.49992C455.3 2.39992 455.4 2.49992 455.5 2.59992Z" fill="#727272" stroke="" stroke-opacity="0" fill-opacity="0.1" stroke-width="1.5796"/>
<path d="M-5.10001 44.1414C-4.60001 44.8414 -4.00001 46.4414 -4.70001 49.1414C-5.40001 51.8414 -6.40002 53.7414 -7.30002 54.9414C-7.80002 55.5414 -8.2 55.9414 -8.5 56.2414C-8.6 56.3414 -8.80002 56.4414 -8.80002 56.5414L-8.89999 56.6414L-10.9 58.0414H-8.39999H3.10001C3.10001 58.0414 3.09998 58.0414 3.19998 58.0414C3.29998 58.0414 3.29999 58.0414 3.39999 58.0414C3.59999 58.0414 3.90001 58.0414 4.10001 58.1414C4.30001 58.2414 4.49998 58.3414 4.69998 58.5414C4.79998 58.7414 4.89999 58.9414 4.89999 59.4414C4.89999 60.5414 4.89999 62.2414 4.79999 63.9414V64.1414C4.79999 65.7414 4.69998 67.3414 4.69998 68.2414C4.69998 68.5414 4.59999 68.8414 4.29999 69.2414L-1.39999 74.9414C-1.49999 75.0414 -1.60002 75.1414 -1.80002 75.2414C-2.00002 75.3414 -2.10001 75.3414 -2.20001 75.3414H-12.4C-12.5 75.3414 -12.6 75.3414 -12.7 75.3414C-12.8 75.3414 -12.8 75.2414 -12.9 75.1414L-17 71.2414V57.4414C-16.8 57.3414 -16.6 57.0414 -16.3 56.8414C-15.7 56.3414 -14.9 55.6414 -14 54.8414C-12.2 53.2414 -10.2 51.3414 -9.20001 50.0414C-7.20001 47.5414 -6.10001 45.6414 -5.60001 44.1414C-5.60001 44.0414 -5.5 44.0414 -5.5 44.0414C-5.5 44.0414 -5.49999 44.0414 -5.39999 44.0414C-5.29999 43.9414 -5.20001 44.0414 -5.10001 44.1414Z" fill="#727272" stroke="" stroke-opacity="0" fill-opacity="0.1" stroke-width="1.5796"/>
<path d="M431.7 33.9V16.5H436.9V33.9H431.7Z" fill="#727272" stroke="" stroke-opacity="0" fill-opacity="0.1" stroke-width="1.5796"/>
<path d="M178.5 43.5999C179 44.2999 179.6 45.8999 178.9 48.5999C178.2 51.2999 177.2 53.1999 176.3 54.3999C175.8 54.9999 175.4 55.3999 175.1 55.6999C175 55.7999 174.8 55.8999 174.8 55.9999L174.7 56.0999L172.7 57.4999H175.2H186.7C186.7 57.4999 186.7 57.4999 186.8 57.4999C186.9 57.4999 186.9 57.4999 187 57.4999C187.2 57.4999 187.5 57.4999 187.7 57.5999C187.9 57.6999 188.1 57.7999 188.3 57.9999C188.4 58.1999 188.5 58.3999 188.5 58.8999C188.5 59.9999 188.5 61.6999 188.4 63.3999V63.5999C188.4 65.1999 188.3 66.7999 188.3 67.6999C188.3 67.9999 188.2 68.2999 187.9 68.6999L182.2 74.3999C182.1 74.4999 182 74.5999 181.8 74.6999C181.6 74.7999 181.5 74.7999 181.4 74.7999H171.2C171.1 74.7999 171 74.7999 170.9 74.7999C170.8 74.7999 170.8 74.6999 170.7 74.5999L166.6 70.6999V56.8999C166.8 56.7999 167 56.4999 167.3 56.2999C167.9 55.7999 168.7 55.0999 169.6 54.2999C171.4 52.6999 173.4 50.7999 174.4 49.4999C176.4 46.9999 177.5 45.0999 178 43.5999C178 43.4999 178.1 43.4999 178.1 43.4999C178.1 43.4999 178.1 43.4999 178.2 43.4999C178.3 43.3999 178.4 43.4999 178.5 43.5999Z" fill="#727272" stroke="" stroke-opacity="0" fill-opacity="0.1" stroke-width="1.5796"/>
<path d="M154.8 74.9V57.5H160V74.9H154.8Z" fill="#727272" stroke="" stroke-opacity="0" fill-opacity="0.1" stroke-width="1.5796"/>
<path d="M362.8 43.5999C363.3 44.2999 363.9 45.8999 363.2 48.5999C362.5 51.2999 361.5 53.1999 360.6 54.3999C360.1 54.9999 359.7 55.3999 359.4 55.6999C359.3 55.7999 359.1 55.8999 359.1 55.9999L359 56.0999L357 57.4999H359.5H371C371 57.4999 371 57.4999 371.1 57.4999C371.2 57.4999 371.2 57.4999 371.3 57.4999C371.5 57.4999 371.8 57.4999 372 57.5999C372.2 57.6999 372.4 57.7999 372.6 57.9999C372.7 58.1999 372.8 58.3999 372.8 58.8999C372.8 59.9999 372.8 61.6999 372.7 63.3999V63.5999C372.7 65.1999 372.6 66.7999 372.6 67.6999C372.6 67.9999 372.5 68.2999 372.2 68.6999L366.5 74.3999C366.4 74.4999 366.3 74.5999 366.1 74.6999C365.9 74.7999 365.8 74.7999 365.7 74.7999H355.5C355.4 74.7999 355.3 74.7999 355.2 74.7999C355.1 74.7999 355.1 74.6999 355 74.5999L350.9 70.6999V56.8999C351.1 56.7999 351.3 56.4999 351.6 56.2999C352.2 55.7999 353 55.0999 353.9 54.2999C355.7 52.6999 357.7 50.7999 358.7 49.4999C360.7 46.9999 361.8 45.0999 362.3 43.5999C362.3 43.4999 362.4 43.4999 362.4 43.4999C362.4 43.4999 362.4 43.4999 362.5 43.4999C362.6 43.3999 362.7 43.4999 362.8 43.5999Z" fill="#727272" stroke="" stroke-opacity="0" fill-opacity="0.1" stroke-width="1.5796"/>
<path d="M339.1 74.9V57.5H344.3V74.9H339.1Z" fill="#727272" stroke="" stroke-opacity="0" fill-opacity="0.1" stroke-width="1.5796"/>
<path d="M117.1 43.5999C117.6 44.2999 118.2 45.8999 117.5 48.5999C116.8 51.2999 115.8 53.1999 114.9 54.3999C114.4 54.9999 114 55.3999 113.7 55.6999C113.6 55.7999 113.4 55.8999 113.4 55.9999L113.3 56.0999L111.3 57.4999H113.8H125.3C125.3 57.4999 125.3 57.4999 125.4 57.4999C125.5 57.4999 125.5 57.4999 125.6 57.4999C125.8 57.4999 126.1 57.4999 126.3 57.5999C126.5 57.6999 126.7 57.7999 126.9 57.9999C127 58.1999 127.1 58.3999 127.1 58.8999C127.1 59.9999 127.1 61.6999 127 63.3999V63.5999C127 65.1999 126.9 66.7999 126.9 67.6999C126.9 67.9999 126.8 68.2999 126.5 68.6999L120.8 74.3999C120.7 74.4999 120.6 74.5999 120.4 74.6999C120.2 74.7999 120.1 74.7999 120 74.7999H109.8C109.7 74.7999 109.6 74.7999 109.5 74.7999C109.4 74.7999 109.4 74.6999 109.3 74.5999L105.2 70.6999V56.8999C105.4 56.7999 105.6 56.4999 105.9 56.2999C106.5 55.7999 107.3 55.0999 108.2 54.2999C110 52.6999 112 50.7999 113 49.4999C115 46.9999 116.1 45.0999 116.6 43.5999C116.6 43.4999 116.7 43.4999 116.7 43.4999C116.7 43.4999 116.7 43.4999 116.8 43.4999C116.9 43.3999 117 43.4999 117.1 43.5999Z" fill="#727272" stroke="" stroke-opacity="0" fill-opacity="0.1" stroke-width="1.5796"/>
<path d="M93.3999 74.9V57.5H98.5999V74.9H93.3999Z" fill="#727272" stroke="" stroke-opacity="0" fill-opacity="0.1" stroke-width="1.5796"/>
<path d="M301.4 43.5999C301.9 44.2999 302.5 45.8999 301.8 48.5999C301.1 51.2999 300.1 53.1999 299.2 54.3999C298.7 54.9999 298.3 55.3999 298 55.6999C297.9 55.7999 297.7 55.8999 297.7 55.9999L297.6 56.0999L295.6 57.4999H298.1H309.6C309.6 57.4999 309.6 57.4999 309.7 57.4999C309.8 57.4999 309.8 57.4999 309.9 57.4999C310.1 57.4999 310.4 57.4999 310.6 57.5999C310.8 57.6999 311 57.7999 311.2 57.9999C311.3 58.1999 311.4 58.3999 311.4 58.8999C311.4 59.9999 311.4 61.6999 311.3 63.3999V63.5999C311.3 65.1999 311.2 66.7999 311.2 67.6999C311.2 67.9999 311.1 68.2999 310.8 68.6999L305.1 74.3999C305 74.4999 304.9 74.5999 304.7 74.6999C304.5 74.7999 304.4 74.7999 304.3 74.7999H294.1C294 74.7999 293.9 74.7999 293.8 74.7999C293.7 74.7999 293.7 74.6999 293.6 74.5999L289.5 70.6999V56.8999C289.7 56.7999 289.9 56.4999 290.2 56.2999C290.8 55.7999 291.6 55.0999 292.5 54.2999C294.3 52.6999 296.3 50.7999 297.3 49.4999C299.3 46.9999 300.4 45.0999 300.9 43.5999C300.9 43.4999 301 43.4999 301 43.4999C301 43.4999 301 43.4999 301.1 43.4999C301.2 43.3999 301.3 43.4999 301.4 43.5999Z" fill="#727272" stroke="" stroke-opacity="0" fill-opacity="0.1" stroke-width="1.5796"/>
<path d="M277.7 74.9V57.5H282.9V74.9H277.7Z" fill="#727272" stroke="" stroke-opacity="0" fill-opacity="0.1" stroke-width="1.5796"/>
<path d="M485.6 43.5999C486.1 44.2999 486.7 45.8999 486 48.5999C485.3 51.2999 484.3 53.1999 483.4 54.3999C482.9 54.9999 482.5 55.3999 482.2 55.6999C482.1 55.7999 481.9 55.8999 481.9 55.9999L481.8 56.0999L479.8 57.4999H482.3H493.8C493.8 57.4999 493.8 57.4999 493.9 57.4999C494 57.4999 494 57.4999 494.1 57.4999C494.3 57.4999 494.6 57.4999 494.8 57.5999C495 57.6999 495.2 57.7999 495.4 57.9999C495.5 58.1999 495.6 58.3999 495.6 58.8999C495.6 59.9999 495.6 61.6999 495.5 63.3999V63.5999C495.5 65.1999 495.4 66.7999 495.4 67.6999C495.4 67.9999 495.3 68.2999 495 68.6999L489.3 74.3999C489.2 74.4999 489.1 74.5999 488.9 74.6999C488.7 74.7999 488.6 74.7999 488.5 74.7999H478.3C478.2 74.7999 478.1 74.7999 478 74.7999C477.9 74.7999 477.9 74.6999 477.8 74.5999L473.7 70.6999V56.8999C473.9 56.7999 474.1 56.4999 474.4 56.2999C475 55.7999 475.8 55.0999 476.7 54.2999C478.5 52.6999 480.5 50.7999 481.5 49.4999C483.5 46.9999 484.6 45.0999 485.1 43.5999C485.1 43.4999 485.2 43.4999 485.2 43.4999C485.2 43.4999 485.2 43.4999 485.3 43.4999C485.4 43.3999 485.6 43.4999 485.6 43.5999Z" fill="#727272" stroke="" stroke-opacity="0" fill-opacity="0.1" stroke-width="1.5796"/>
<path d="M461.9 74.9V57.5H467.1V74.9H461.9Z" fill="#727272" stroke="" stroke-opacity="0" fill-opacity="0.1" stroke-width="1.5796"/>
<path d="M55.6999 43.5999C56.1999 44.2999 56.7999 45.8999 56.0999 48.5999C55.3999 51.2999 54.3999 53.1999 53.4999 54.3999C52.9999 54.9999 52.5999 55.3999 52.2999 55.6999C52.1999 55.7999 51.9999 55.8999 51.9999 55.9999L51.8999 56.0999L49.8999 57.4999H52.3999H63.8999C63.8999 57.4999 63.8999 57.4999 63.9999 57.4999C64.0999 57.4999 64.0999 57.4999 64.1999 57.4999C64.3999 57.4999 64.6999 57.4999 64.8999 57.5999C65.0999 57.6999 65.2999 57.7999 65.4999 57.9999C65.5999 58.1999 65.6999 58.3999 65.6999 58.8999C65.6999 59.9999 65.6999 61.6999 65.5999 63.3999V63.5999C65.5999 65.1999 65.4999 66.7999 65.4999 67.6999C65.4999 67.9999 65.3999 68.2999 65.0999 68.6999L59.3999 74.3999C59.2999 74.4999 59.1999 74.5999 58.9999 74.6999C58.7999 74.7999 58.6999 74.7999 58.5999 74.7999H48.4999C48.3999 74.7999 48.2999 74.7999 48.1999 74.7999C48.0999 74.7999 48.0999 74.6999 47.9999 74.5999L43.8999 70.6999V56.8999C44.0999 56.7999 44.2999 56.4999 44.5999 56.2999C45.1999 55.7999 45.9999 55.0999 46.8999 54.2999C48.6999 52.6999 50.6999 50.7999 51.6999 49.4999C53.6999 46.9999 54.7999 45.0999 55.2999 43.5999C55.2999 43.4999 55.3999 43.4999 55.3999 43.4999C55.3999 43.4999 55.3999 43.4999 55.4999 43.4999C55.4999 43.3999 55.5999 43.4999 55.6999 43.5999Z" fill="#727272" stroke="" stroke-opacity="0" fill-opacity="0.1" stroke-width="1.5796"/>
<path d="M32 74.9V57.5H37.2V74.9H32Z" fill="#727272" stroke="" stroke-opacity="0" fill-opacity="0.1" stroke-width="1.5796"/>
<path d="M238.8 43.4001C239.1 42.5001 240.2 42.5001 240.6 43.2001C241.2 44.1001 241.8 45.9001 241.1 48.8001C239.7 54.4001 236.6 56.7001 236.6 56.7001H248.1C248.1 56.7001 250.8 56.4001 250.8 58.8001C250.8 61.1001 250.6 65.6001 250.6 67.6001C250.6 68.2001 250.3 68.7001 250 69.1001L244.2 74.9001C243.9 75.2001 243.3 75.5001 242.8 75.5001H232.6C232.1 75.5001 231.8 75.3001 231.5 75.0001L227.1 70.9001V56.5001C227.1 56.5001 233.2 51.3001 235.1 48.9001C237 46.5001 238.4 44.7001 238.8 43.4001Z" fill="#F4E455" stroke="" stroke-opacity="0" stroke-width="1.5796"/>
<path d="M222.3 56.7H215.5V75.6999H222.3V56.7Z" fill="#F4E455" stroke="" stroke-opacity="0" stroke-width="1.5796"/>
<path d="M424.2 43.5999C424.7 44.2999 425.3 45.8999 424.6 48.5999C423.9 51.2999 422.9 53.1999 422 54.3999C421.5 54.9999 421.1 55.3999 420.8 55.6999C420.7 55.7999 420.5 55.8999 420.5 55.9999L420.4 56.0999L418.4 57.4999H420.9H432.4C432.4 57.4999 432.4 57.4999 432.5 57.4999C432.6 57.4999 432.6 57.4999 432.7 57.4999C432.9 57.4999 433.2 57.4999 433.4 57.5999C433.6 57.6999 433.8 57.7999 434 57.9999C434.1 58.1999 434.2 58.3999 434.2 58.8999C434.2 59.9999 434.2 61.6999 434.1 63.3999V63.5999C434.1 65.1999 434 66.7999 434 67.6999C434 67.9999 433.9 68.2999 433.6 68.6999L427.9 74.3999C427.8 74.4999 427.7 74.5999 427.5 74.6999C427.3 74.7999 427.2 74.7999 427.1 74.7999H417C416.9 74.7999 416.8 74.7999 416.7 74.7999C416.6 74.7999 416.6 74.6999 416.5 74.5999L412.4 70.6999V56.8999C412.6 56.7999 412.8 56.4999 413.1 56.2999C413.7 55.7999 414.5 55.0999 415.4 54.2999C417.2 52.6999 419.2 50.7999 420.2 49.4999C422.2 46.9999 423.3 45.0999 423.8 43.5999C423.8 43.4999 423.9 43.4999 423.9 43.4999C423.9 43.4999 423.9 43.4999 424 43.4999C424 43.3999 424.1 43.4999 424.2 43.5999Z" fill="#727272" stroke="" stroke-opacity="0" fill-opacity="0.1" stroke-width="1.5796"/>
<path d="M400.5 74.9V57.5H405.7V74.9H400.5Z" fill="#727272" stroke="" stroke-opacity="0" fill-opacity="0.1" stroke-width="1.5796"/>
<path d="M336.7 86.5001C337.2 87.2001 337.8 88.8001 337.1 91.5001C336.4 94.2001 335.4 96.1001 334.5 97.3001C334 97.9001 333.6 98.3001 333.3 98.6001C333.2 98.7001 333 98.8001 333 98.9001L332.9 99.0001L330.9 100.4H333.4H344.9C344.9 100.4 344.9 100.4 345 100.4C345.1 100.4 345.1 100.4 345.2 100.4C345.4 100.4 345.7 100.4 345.9 100.5C346.1 100.6 346.3 100.7 346.5 100.9C346.6 101.1 346.7 101.3 346.7 101.8C346.7 102.9 346.7 104.6 346.6 106.3V106.5C346.6 108.1 346.5 109.7 346.5 110.6C346.5 110.9 346.4 111.2 346.1 111.6L340.4 117.3C340.3 117.4 340.2 117.5 340 117.6C339.8 117.7 339.7 117.7 339.6 117.7H329.4C329.3 117.7 329.2 117.7 329.1 117.7C329 117.7 329 117.6 328.9 117.5L324.8 113.6V99.9001C325 99.8001 325.2 99.5001 325.5 99.3001C326.1 98.8001 326.9 98.1001 327.8 97.3001C329.6 95.7001 331.6 93.8001 332.6 92.5001C334.6 90.0001 335.7 88.1001 336.2 86.6001C336.2 86.5001 336.3 86.5001 336.3 86.5001C336.3 86.5001 336.3 86.5001 336.4 86.5001C336.5 86.3001 336.6 86.3001 336.7 86.5001Z" fill="#727272" stroke="" stroke-opacity="0" fill-opacity="0.1" stroke-width="1.5796"/>
<path d="M313 117.7V100.3H318.2V117.7H313V117.7Z" fill="#727272" stroke="" stroke-opacity="0" fill-opacity="0.1" stroke-width="1.5796"/>
<path d="M275.3 86.5001C275.8 87.2001 276.4 88.8001 275.7 91.5001C275 94.2001 274 96.1001 273.1 97.3001C272.6 97.9001 272.2 98.3001 271.9 98.6001C271.8 98.7001 271.6 98.8001 271.6 98.9001L271.5 99.0001L269.5 100.4H272H283.5C283.5 100.4 283.5 100.4 283.6 100.4C283.7 100.4 283.7 100.4 283.8 100.4C284 100.4 284.3 100.4 284.5 100.5C284.7 100.6 284.9 100.7 285.1 100.9C285.2 101.1 285.3 101.3 285.3 101.8C285.3 102.9 285.3 104.6 285.2 106.3V106.5C285.2 108.1 285.1 109.7 285.1 110.6C285.1 110.9 285 111.2 284.7 111.6L279 117.3C278.9 117.4 278.8 117.5 278.6 117.6C278.4 117.7 278.3 117.7 278.2 117.7H268C267.9 117.7 267.8 117.7 267.7 117.7C267.6 117.7 267.6 117.6 267.5 117.5L263.4 113.6V99.9001C263.6 99.8001 263.8 99.5001 264.1 99.3001C264.7 98.8001 265.5 98.1001 266.4 97.3001C268.2 95.7001 270.2 93.8001 271.2 92.5001C273.2 90.0001 274.3 88.1001 274.8 86.6001C274.8 86.5001 274.9 86.5001 274.9 86.5001C274.9 86.5001 274.9 86.5001 275 86.5001C275.1 86.3001 275.2 86.3001 275.3 86.5001Z" fill="#727272" stroke="" stroke-opacity="0" fill-opacity="0.1" stroke-width="1.5796"/>
<path d="M251.6 117.7V100.3H256.8V117.7H251.6V117.7Z" fill="#727272" stroke="" stroke-opacity="0" fill-opacity="0.1" stroke-width="1.5796"/>
<path d="M459.5 86.5001C460 87.2001 460.6 88.8001 459.9 91.5001C459.2 94.2001 458.2 96.1001 457.3 97.3001C456.8 97.9001 456.4 98.3001 456.1 98.6001C456 98.7001 455.8 98.8001 455.8 98.9001L455.7 99.0001L453.7 100.4H456.2H467.7C467.7 100.4 467.7 100.4 467.8 100.4C467.9 100.4 467.9 100.4 468 100.4C468.2 100.4 468.5 100.4 468.7 100.5C468.9 100.6 469.1 100.7 469.3 100.9C469.4 101.1 469.5 101.3 469.5 101.8C469.5 102.9 469.5 104.6 469.4 106.3V106.5C469.4 108.1 469.3 109.7 469.3 110.6C469.3 110.9 469.2 111.2 468.9 111.6L463.2 117.3C463.1 117.4 463 117.5 462.8 117.6C462.6 117.7 462.5 117.7 462.4 117.7H452.2C452.1 117.7 452 117.7 451.9 117.7C451.8 117.7 451.8 117.6 451.7 117.5L447.6 113.6V99.9001C447.8 99.8001 448 99.5001 448.3 99.3001C448.9 98.8001 449.7 98.1001 450.6 97.3001C452.4 95.7001 454.4 93.8001 455.4 92.5001C457.4 90.0001 458.5 88.1001 459 86.6001C459 86.5001 459.1 86.5001 459.1 86.5001C459.1 86.5001 459.1 86.5001 459.2 86.5001C459.3 86.3001 459.5 86.3001 459.5 86.5001Z" fill="#727272" stroke="" stroke-opacity="0" fill-opacity="0.1" stroke-width="1.5796"/>
<path d="M435.8 117.7V100.3H441V117.7H435.8V117.7Z" fill="#727272" stroke="" stroke-opacity="0" fill-opacity="0.1" stroke-width="1.5796"/>
<path d="M213.8 86.5001C214.3 87.2001 214.9 88.8001 214.2 91.5001C213.5 94.2001 212.5 96.1001 211.6 97.3001C211.1 97.9001 210.7 98.3001 210.4 98.6001C210.3 98.7001 210.1 98.8001 210.1 98.9001L210 99.0001L208 100.4H210.5H222C222 100.4 222 100.4 222.1 100.4C222.2 100.4 222.2 100.4 222.3 100.4C222.5 100.4 222.8 100.4 223 100.5C223.2 100.6 223.4 100.7 223.6 100.9C223.7 101.1 223.8 101.3 223.8 101.8C223.8 102.9 223.8 104.6 223.7 106.3V106.5C223.7 108.1 223.6 109.7 223.6 110.6C223.6 110.9 223.5 111.2 223.2 111.6L217.5 117.3C217.4 117.4 217.3 117.5 217.1 117.6C216.9 117.7 216.8 117.7 216.7 117.7H206.5C206.4 117.7 206.3 117.7 206.2 117.7C206.1 117.7 206.1 117.6 206 117.5L201.9 113.6V99.9001C202.1 99.8001 202.3 99.5001 202.6 99.3001C203.2 98.8001 204 98.1001 204.9 97.3001C206.7 95.7001 208.7 93.8001 209.7 92.5001C211.7 90.0001 212.8 88.1001 213.3 86.6001C213.3 86.5001 213.4 86.5001 213.4 86.5001C213.4 86.5001 213.4 86.5001 213.5 86.5001C213.7 86.3001 213.8 86.3001 213.8 86.5001Z" fill="#727272" stroke="" stroke-opacity="0" fill-opacity="0.1" stroke-width="1.5796"/>
<path d="M190.1 117.7V100.3H195.3V117.7H190.1V117.7Z" fill="#727272" stroke="" stroke-opacity="0" fill-opacity="0.1" stroke-width="1.5796"/>
<path d="M397 86.1999C397.3 85.2999 398.4 85.2999 398.8 85.9999C399.4 86.8999 400 88.6999 399.3 91.5999C397.9 97.1999 394.8 99.4999 394.8 99.4999H406.3C406.3 99.4999 409 99.1999 409 101.6C409 103.9 408.8 108.4 408.8 110.4C408.8 111 408.5 111.5 408.2 111.9L402.4 117.7C402.1 118 401.5 118.3 401 118.3H390.8C390.3 118.3 390 118.1 389.7 117.8L385.3 113.7V99.2999C385.3 99.2999 391.4 94.0999 393.3 91.6999C395.5 89.3999 396.5 87.5999 397 86.1999Z" fill="#F4E455" stroke="" stroke-opacity="0" stroke-width="1.5796"/>
<path d="M380.4 99.5H373.6V118.5H380.4V99.5Z" fill="#F4E455" stroke="" stroke-opacity="0" stroke-width="1.5796"/>
<path d="M150.5 87.1C151 87.8 151.6 89.4 150.9 92.1C150.2 94.8 149.2 96.7 148.3 97.9C147.8 98.5 147.4 98.8999 147.1 99.1999C147 99.2999 146.8 99.4 146.8 99.5L146.7 99.6L144.7 101H147.2H158.7C158.7 101 158.7 101 158.8 101C158.9 101 158.9 101 159 101C159.2 101 159.5 101 159.7 101.1C159.9 101.2 160.1 101.3 160.3 101.5C160.4 101.7 160.5 101.9 160.5 102.4C160.5 103.5 160.5 105.2 160.4 106.9V107.1C160.4 108.7 160.3 110.3 160.3 111.2C160.3 111.5 160.2 111.8 159.9 112.2L154.2 117.9C154.1 118 154 118.1 153.8 118.2C153.6 118.3 153.5 118.3 153.4 118.3H143.2C143.1 118.3 143 118.3 142.9 118.3C142.8 118.3 142.8 118.2 142.7 118.1L138.6 114.2V100.5C138.8 100.4 139 100.1 139.3 99.9C139.9 99.4 140.7 98.7 141.6 97.9C143.4 96.3 145.4 94.4 146.4 93.1C148.4 90.6 149.5 88.6999 150 87.1999C150 87.0999 150.1 87.1 150.1 87.1C150.1 87.1 150.1 87.1 150.2 87.1C150.3 86.9 150.5 86.9 150.5 87.1Z" fill="#727272" stroke="" stroke-opacity="0" fill-opacity="0.1" stroke-width="1.5796"/>
<path d="M126.8 118.3V100.9H132V118.3H126.8V118.3Z" fill="#727272" stroke="" stroke-opacity="0" fill-opacity="0.1" stroke-width="1.5796"/>
<path d="M89.0998 87.1C89.5998 87.8 90.1998 89.4 89.4998 92.1C88.7998 94.8 87.7998 96.7 86.8998 97.9C86.3998 98.5 85.9998 98.8999 85.6998 99.1999C85.5998 99.2999 85.3998 99.4 85.3998 99.5L85.2998 99.6L83.2998 101H85.7998H97.2998C97.2998 101 97.2998 101 97.3998 101C97.4998 101 97.4998 101 97.5998 101C97.7998 101 98.0998 101 98.2998 101.1C98.4998 101.2 98.6998 101.3 98.8998 101.5C98.9998 101.7 99.0998 101.9 99.0998 102.4C99.0998 103.5 99.0998 105.2 98.9998 106.9V107.1C98.9998 108.7 98.8998 110.3 98.8998 111.2C98.8998 111.5 98.7998 111.8 98.4998 112.2L92.7998 117.9C92.6998 118 92.5998 118.1 92.3998 118.2C92.1998 118.3 92.0998 118.3 91.9998 118.3H81.8998C81.7998 118.3 81.6998 118.3 81.5998 118.3C81.4998 118.3 81.4998 118.2 81.3998 118.1L77.2998 114.2V100.5C77.4998 100.4 77.6998 100.1 77.9998 99.9C78.5998 99.4 79.3998 98.7 80.2998 97.9C82.0998 96.3 84.0998 94.4 85.0998 93.1C87.0998 90.6 88.1998 88.6999 88.6998 87.1999C88.6998 87.0999 88.7998 87.1 88.7998 87.1C88.7998 87.1 88.7998 87.1 88.8998 87.1C88.8998 86.9 88.9998 86.9 89.0998 87.1Z" fill="#727272" stroke="" stroke-opacity="0" fill-opacity="0.1" stroke-width="1.5796"/>
<path d="M65.3999 118.3V100.9H70.5999V118.3H65.3999V118.3Z" fill="#727272" stroke="" stroke-opacity="0" fill-opacity="0.1" stroke-width="1.5796"/>
<path d="M27.6999 87.1C28.1999 87.8 28.7999 89.4 28.0999 92.1C27.3999 94.8 26.3999 96.7 25.4999 97.9C24.9999 98.5 24.5999 98.8999 24.2999 99.1999C24.1999 99.2999 23.9999 99.4 23.9999 99.5L23.8999 99.6L21.8999 101H24.3999H35.8999C35.8999 101 35.8999 101 35.9999 101C36.0999 101 36.0999 101 36.1999 101C36.3999 101 36.6999 101 36.8999 101.1C37.0999 101.2 37.2999 101.3 37.4999 101.5C37.5999 101.7 37.6999 101.9 37.6999 102.4C37.6999 103.5 37.6999 105.2 37.5999 106.9V107.1C37.5999 108.7 37.4999 110.3 37.4999 111.2C37.4999 111.5 37.3999 111.8 37.0999 112.2L31.3999 117.9C31.2999 118 31.1999 118.1 30.9999 118.2C30.7999 118.3 30.6999 118.3 30.5999 118.3H20.4999C20.3999 118.3 20.2999 118.3 20.1999 118.3C20.0999 118.3 20.0999 118.2 19.9999 118.1L15.8999 114.2V100.5C16.0999 100.4 16.2999 100.1 16.5999 99.9C17.1999 99.4 17.9999 98.7 18.8999 97.9C20.6999 96.3 22.6999 94.4 23.6999 93.1C25.6999 90.6 26.7999 88.6999 27.2999 87.1999C27.2999 87.0999 27.3999 87.1 27.3999 87.1C27.3999 87.1 27.3999 87.1 27.4999 87.1C27.4999 86.9 27.5999 86.9 27.6999 87.1Z" fill="#727272" stroke="" stroke-opacity="0" fill-opacity="0.1" stroke-width="1.5796"/>
<path d="M4 118.3V100.9H9.2V118.3H4V118.3Z" fill="#727272" stroke="" stroke-opacity="0" fill-opacity="0.1" stroke-width="1.5796"/>
</g>
</g>
<defs>
<clipPath id="clip0">
<rect width="653.6" height="120.3" fill="white" transform="translate(1 -1)"/>
</clipPath>
</defs>
</svg>
