<svg width="1327" height="218" viewBox="0 0 1327 218" fill="none" xmlns="http://www.w3.org/2000/svg">
<mask id="mask0" mask-type="alpha" maskUnits="userSpaceOnUse" x="0" y="0" width="1327" height="218">
<rect width="1327" height="218" fill="#C4C4C4"/>
</mask>
<g mask="url(#mask0)">
<g clip-path="url(#clip0)">
<path d="M159.5 6.4C160.4 7.8 161.5 10.7 160.2 15.6C159 20.5 157 23.9 155.4 26.1C154.6 27.2 153.8 28 153.3 28.5C153 28.8 152.8 28.9 152.7 29C152.6 29.1 152.6 29.1 152.5 29.1L149.4 31.3H153.2H174.1H174.2H174.3H174.4C174.5 31.3 174.7 31.3 174.9 31.3C175.3 31.3 175.8 31.4 176.3 31.5C176.8 31.7 177.2 31.9 177.4 32.2C177.7 32.5 177.9 33 177.9 33.9C177.9 35.9 177.8 39 177.8 42V42.3C177.7 45.2 177.7 48 177.7 49.8C177.7 50.4 177.4 51 176.9 51.8L166.5 62.2C166.4 62.3 166.1 62.5 165.7 62.7C165.3 62.9 165 62.9 164.9 62.9H146.5C146.2 62.9 146.1 62.9 145.9 62.8C145.8 62.7 145.6 62.6 145.4 62.4L137.8 55.3V30.3C138.1 30 138.6 29.7 139.1 29.2C140.2 28.3 141.7 26.9 143.3 25.5C146.5 22.6 150.2 19.1 152.1 16.8C155.7 12.4 157.7 8.9 158.6 6.2C158.7 6 158.8 5.9 158.8 5.8C158.9 5.8 158.9 5.7 159 5.7C159.1 6 159.4 6.1 159.5 6.4Z" fill="#727272" stroke="" stroke-opacity="0" fill-opacity="0.1" stroke-width="2.4622"/>
<path d="M116.2 63.4V31.5H126.1V63.4H116.2Z" fill="#727272" stroke="" stroke-opacity="0" fill-opacity="0.1" stroke-width="2.4622"/>
<path d="M493.6 6.4C494.5 7.8 495.6 10.7 494.3 15.6C493.1 20.5 491.1 23.9 489.5 26.1C488.7 27.2 487.9 28 487.4 28.5C487.1 28.8 486.9 28.9 486.8 29C486.7 29.1 486.7 29.1 486.6 29.1L483.5 31.3H487.3H508.2H508.3H508.4H508.5C508.6 31.3 508.8 31.3 509 31.3C509.4 31.3 509.9 31.4 510.4 31.5C510.9 31.7 511.3 31.9 511.5 32.2C511.8 32.5 512 33 512 33.9C512 35.9 511.9 39 511.9 42V42.3C511.8 45.2 511.8 48 511.8 49.8C511.8 50.4 511.5 51 511 51.8L500.6 62.2C500.5 62.3 500.2 62.5 499.8 62.7C499.4 62.9 499.1 62.9 499 62.9H480.6C480.3 62.9 480.2 62.9 480 62.8C479.9 62.7 479.7 62.6 479.5 62.4L471.9 55.3V30.3C471.9 30.3 471.9 30.3 472 30.3C472.3 30 472.8 29.7 473.3 29.2C474.4 28.3 475.9 26.9 477.5 25.5C480.7 22.6 484.4 19.1 486.3 16.8C489.9 12.4 491.9 8.9 492.8 6.2C492.9 6 493 5.9 493 5.8C493.1 5.8 493.1 5.7 493.2 5.7C493.2 6 493.4 6.1 493.6 6.4Z" fill="#727272" stroke="" stroke-opacity="0" fill-opacity="0.1" stroke-width="2.4622"/>
<path d="M450.3 63.4V31.5H460.2V63.4H450.3Z" fill="#727272" stroke="" stroke-opacity="0" fill-opacity="0.1" stroke-width="2.4622"/>
<path d="M48.2 6.4C49.1 7.8 50.2 10.7 48.9 15.6C47.7 20.5 45.7001 23.9 44.1001 26.1C43.3001 27.2 42.5 28 42 28.5C41.7 28.8 41.5 28.9 41.4 29C41.3 29.1 41.3 29.1 41.2 29.1L38.1001 31.3H41.9H62.8H62.9H63H63.1001C63.2001 31.3 63.4001 31.3 63.6001 31.3C64.0001 31.3 64.5 31.4 65 31.5C65.5 31.7 65.9001 31.9 66.1001 32.2C66.4001 32.5 66.6001 33 66.6001 33.9C66.6001 35.9 66.5 39 66.5 42V42.3C66.4 45.2 66.4 48 66.4 49.8C66.4 50.4 66.1001 51 65.6001 51.8L55 62.4C54.9 62.5 54.6 62.7 54.2 62.9C53.8 63.1 53.5 63.1 53.4 63.1H35C34.7 63.1 34.6 63.1 34.4 63C34.3 62.9 34.1 62.8 33.9 62.6L26.3 55.5V30.5C26.3 30.5 26.3 30.5 26.4 30.5C26.7 30.2 27.2 29.9 27.7 29.4C28.8 28.5 30.3 27.1 31.9 25.7C35.1 22.8 38.8 19.3 40.7 17C44.3 12.6 46.3 9.1 47.2 6.4C47.3 6.2 47.4 6.1 47.4 6C47.5 6 47.5001 5.9 47.6001 5.9C47.7001 6 48 6.1 48.2 6.4Z" fill="#F4E455" stroke="" stroke-opacity="0" stroke-width="2.4622"/>
<path d="M4.80005 63.4V31.5H14.7V63.4H4.80005Z" fill="#F4E455" stroke="" stroke-opacity="0" stroke-width="2.4622"/>
<path d="M382.3 6.4C383.2 7.8 384.3 10.7 383 15.6C381.8 20.5 379.8 23.9 378.2 26.1C377.4 27.2 376.6 28 376.1 28.5C375.8 28.8 375.6 28.9 375.5 29C375.4 29.1 375.4 29.1 375.3 29.1L372.2 31.3H376H396.9H397H397.1H397.2C397.3 31.3 397.5 31.3 397.7 31.3C398.1 31.3 398.6 31.4 399.1 31.5C399.6 31.7 400 31.9 400.2 32.2C400.5 32.5 400.7 33 400.7 33.9C400.7 35.9 400.6 39 400.6 42V42.3C400.5 45.2 400.5 48 400.5 49.8C400.5 50.4 400.2 51 399.7 51.8L389.3 62.2C389.2 62.3 388.9 62.5 388.5 62.7C388.1 62.9 387.8 62.9 387.7 62.9H369C368.7 62.9 368.6 62.9 368.4 62.8C368.3 62.7 368.1 62.6 367.9 62.4L360.3 55.3V30.3C360.3 30.3 360.3 30.3 360.4 30.3C360.7 30 361.2 29.7 361.7 29.2C362.8 28.3 364.3 26.9 365.9 25.5C369.1 22.6 372.8 19.1 374.7 16.8C378.3 12.4 380.3 8.9 381.2 6.2C381.3 6 381.4 5.9 381.4 5.8C381.5 5.8 381.5 5.7 381.6 5.7C381.8 6 382.1 6.1 382.3 6.4Z" fill="#727272" stroke="" stroke-opacity="0" fill-opacity="0.1" stroke-width="2.4622"/>
<path d="M338.9 63.4V31.5H348.8V63.4H338.9Z" fill="#727272" stroke="" stroke-opacity="0" fill-opacity="0.1" stroke-width="2.4622"/>
<path d="M270.9 6.4C271.8 7.8 272.9 10.7 271.6 15.6C270.4 20.5 268.4 23.9 266.8 26.1C266 27.2 265.2 28 264.7 28.5C264.4 28.8 264.2 28.9 264.1 29C264 29.1 264 29.1 263.9 29.1L260.8 31.3H264.6H285.5H285.6H285.7H285.8C285.9 31.3 286.1 31.3 286.3 31.3C286.7 31.3 287.2 31.4 287.7 31.5C288.2 31.7 288.6 31.9 288.8 32.2C289.1 32.5 289.3 33 289.3 33.9C289.3 35.9 289.2 39 289.2 42V42.3C289.1 45.2 289.1 48 289.1 49.8C289.1 50.4 288.8 51 288.3 51.8L277.9 62.2C277.8 62.3 277.5 62.5 277.1 62.7C276.7 62.9 276.4 62.9 276.3 62.9H257.9C257.6 62.9 257.5 62.9 257.3 62.8C257.2 62.7 257 62.6 256.8 62.4L249.2 55.3V30.3C249.5 30 250 29.7 250.5 29.2C251.6 28.3 253.1 26.9 254.7 25.5C257.9 22.6 261.6 19.1 263.5 16.8C267.1 12.4 269.1 8.9 270 6.2C270.1 6 270.2 5.9 270.2 5.8C270.3 5.8 270.3 5.7 270.4 5.7C270.4 6 270.7 6.1 270.9 6.4Z" fill="#727272" stroke="" stroke-opacity="0" fill-opacity="0.1" stroke-width="2.4622"/>
<path d="M227.6 63.4V31.5H237.5V63.4H227.6Z" fill="#727272" stroke="" stroke-opacity="0" fill-opacity="0.1" stroke-width="2.4622"/>
<path d="M827.7 6.4C828.6 7.8 829.7 10.7 828.4 15.6C827.2 20.5 825.2 23.9 823.6 26.1C822.8 27.2 822 28 821.5 28.5C821.2 28.8 821 28.9 820.9 29C820.8 29.1 820.8 29.1 820.7 29.1L817.6 31.3H821.4H842.3H842.4H842.5H842.6C842.7 31.3 842.9 31.3 843.1 31.3C843.5 31.3 844 31.4 844.5 31.5C845 31.7 845.4 31.9 845.6 32.2C845.9 32.5 846.1 33 846.1 33.9C846.1 35.9 846 39 846 42V42.3C845.9 45.2 845.9 48 845.9 49.8C845.9 50.4 845.6 51 845.1 51.8L834.7 62.2C834.5 62.3 834.3 62.5 833.9 62.7C833.6 62.9 833.2 62.9 833.1 62.9H814.7C814.4 62.9 814.3 62.9 814.1 62.8C814 62.7 813.8 62.6 813.6 62.4L806 55.3V30.3C806 30.3 806 30.3 806.1 30.3C806.4 30 806.9 29.7 807.4 29.2C808.5 28.3 810 26.9 811.6 25.5C814.8 22.6 818.5 19.1 820.4 16.8C824 12.4 826 8.9 826.9 6.2C827 6 827.1 5.9 827.1 5.8C827.2 5.8 827.2 5.7 827.3 5.7C827.3 6 827.5 6.1 827.7 6.4Z" fill="#727272" stroke="" stroke-opacity="0" fill-opacity="0.1" stroke-width="2.4622"/>
<path d="M784.4 63.4V31.5H794.3V63.4H784.4Z" fill="#727272" stroke="" stroke-opacity="0" fill-opacity="0.1" stroke-width="2.4622"/>
<path d="M1149.8 1.6C1150.7 3 1151.8 5.9 1150.5 10.8C1149.3 15.7 1147.3 19.1 1145.7 21.3C1144.9 22.4 1144.1 23.2 1143.6 23.7C1143.3 24 1143.1 24.1 1143 24.2C1142.9 24.3 1142.9 24.3 1142.8 24.3L1139.7 26.5H1143.5H1164.4H1164.5H1164.6H1164.7C1164.8 26.5 1165 26.5 1165.2 26.5C1165.6 26.5 1166.1 26.6 1166.6 26.7C1167.1 26.9 1167.5 27.1 1167.7 27.4C1168 27.7 1168.2 28.2 1168.2 29.1C1168.2 31.1 1168.1 34.2 1168.1 37.3V37.6C1168 40.5 1168 43.3 1168 45.1C1168 45.7 1167.7 46.3 1167.2 47.1L1156.8 57.5C1156.6 57.6 1156.4 57.8 1156 58C1155.7 58.2 1155.3 58.2 1155.2 58.2H1136.8C1136.5 58.2 1136.4 58.2 1136.2 58.1C1136.1 58 1135.9 57.9 1135.7 57.7L1128.1 50.6V25.6C1128.1 25.6 1128.1 25.6 1128.2 25.6C1128.5 25.3 1129 25 1129.5 24.5C1130.6 23.6 1132.1 22.2 1133.7 20.8C1136.9 17.9 1140.6 14.4 1142.5 12.1C1146.1 7.7 1148.1 4.2 1149 1.5C1149.1 1.3 1149.2 1.2 1149.2 1.1C1149.3 1.1 1149.3 1 1149.4 1C1149.4 1.2 1149.6 1.3 1149.8 1.6Z" fill="#727272" stroke="" stroke-opacity="0" fill-opacity="0.1" stroke-width="2.4622"/>
<path d="M1106.5 58.6V26.7H1116.4V58.6H1106.5V58.6Z" fill="#727272" stroke="" stroke-opacity="0" fill-opacity="0.1" stroke-width="2.4622"/>
<path d="M716.4 6.4C717.3 7.8 718.4 10.7 717.1 15.6C715.9 20.5 713.9 23.9 712.3 26.1C711.5 27.2 710.7 28 710.2 28.5C709.9 28.8 709.7 28.9 709.6 29C709.5 29.1 709.5 29.1 709.4 29.1L706.3 31.3H710.2H731.1H731.2H731.3H731.4C731.5 31.3 731.7 31.3 731.9 31.3C732.3 31.3 732.8 31.4 733.2 31.5C733.7 31.7 734.1 31.9 734.3 32.2C734.6 32.5 734.8 33 734.8 33.9C734.8 35.9 734.7 39 734.7 42V42.3C734.6 45.2 734.6 48 734.6 49.8C734.6 50.4 734.3 51 733.8 51.8L723.4 62.2C723.3 62.3 723 62.5 722.6 62.7C722.2 62.9 721.9 62.9 721.8 62.9H703.4C703.1 62.9 703 62.9 702.8 62.8C702.7 62.7 702.5 62.6 702.3 62.4L694.7 55.3V30.3C694.7 30.3 694.7 30.3 694.8 30.3C695.1 30 695.6 29.7 696.1 29.2C697.2 28.3 698.7 26.9 700.3 25.5C703.5 22.6 707.2 19.1 709.1 16.8C712.7 12.4 714.7 8.9 715.6 6.2C715.7 6 715.8 5.9 715.8 5.8C715.9 5.8 715.9 5.7 716 5.7C715.9 6 716.2 6.1 716.4 6.4Z" fill="#727272" stroke="" stroke-opacity="0" fill-opacity="0.1" stroke-width="2.4622"/>
<path d="M673 63.4V31.5H682.9V63.4H673Z" fill="#727272" stroke="" stroke-opacity="0" fill-opacity="0.1" stroke-width="2.4622"/>
<path d="M1038.4 1.6C1039.3 3 1040.4 5.9 1039.1 10.8C1037.9 15.7 1035.9 19.1 1034.3 21.3C1033.5 22.4 1032.7 23.2 1032.2 23.7C1031.9 24 1031.7 24.1 1031.6 24.2C1031.5 24.3 1031.5 24.3 1031.4 24.3L1028.3 26.5H1032.1H1053H1053.1H1053.2H1053.3C1053.4 26.5 1053.6 26.5 1053.8 26.5C1054.2 26.5 1054.7 26.6 1055.1 26.7C1055.6 26.9 1056 27.1 1056.2 27.4C1056.5 27.7 1056.7 28.2 1056.7 29.1C1056.7 31.1 1056.6 34.2 1056.6 37.3V37.6C1056.5 40.5 1056.5 43.3 1056.5 45.1C1056.5 45.7 1056.2 46.3 1055.7 47.1L1045.3 57.5C1045.2 57.6 1044.9 57.8 1044.5 58C1044.2 58.2 1043.8 58.2 1043.7 58.2H1025.3C1025 58.2 1024.9 58.2 1024.7 58.1C1024.6 58 1024.4 57.9 1024.2 57.7L1016.6 50.6V25.6C1016.6 25.6 1016.6 25.6 1016.7 25.6C1017 25.3 1017.5 25 1018 24.5C1019.1 23.6 1020.6 22.2 1022.2 20.8C1025.4 17.9 1029.1 14.4 1031 12.1C1034.6 7.7 1036.6 4.2 1037.5 1.5C1037.6 1.3 1037.6 1.2 1037.7 1.1C1037.8 1.1 1037.8 1 1037.9 1C1038 1.2 1038.3 1.3 1038.4 1.6Z" fill="#727272" stroke="" stroke-opacity="0" fill-opacity="0.1" stroke-width="2.4622"/>
<path d="M995.1 58.6V26.7H1005V58.6H995.1V58.6Z" fill="#727272" stroke="" stroke-opacity="0" fill-opacity="0.1" stroke-width="2.4622"/>
<path d="M605 6.4C605.9 7.8 607 10.7 605.7 15.6C604.5 20.5 602.5 23.9 600.9 26.1C600.1 27.2 599.3 28 598.8 28.5C598.5 28.8 598.3 28.9 598.2 29C598.1 29.1 598.1 29.1 598 29.1L594.9 31.3H598.7H619.6H619.7H619.8H619.9C620 31.3 620.2 31.3 620.4 31.3C620.8 31.3 621.3 31.4 621.8 31.5C622.3 31.7 622.7 31.9 622.9 32.2C623.2 32.5 623.4 33 623.4 33.9C623.4 35.9 623.3 39 623.3 42V42.3C623.2 45.2 623.2 48 623.2 49.8C623.2 50.4 622.9 51 622.4 51.8L612 62.2C611.9 62.3 611.6 62.5 611.2 62.7C610.8 62.9 610.5 62.9 610.4 62.9H592C591.7 62.9 591.6 62.9 591.4 62.8C591.3 62.7 591.1 62.6 590.9 62.4L583.3 55.3V30.3C583.6 30 584.1 29.7 584.6 29.2C585.7 28.3 587.2 26.9 588.8 25.5C592 22.6 595.7 19.1 597.6 16.8C601.2 12.4 603.2 8.9 604.1 6.2C604.2 6 604.3 5.9 604.3 5.8C604.4 5.8 604.4 5.7 604.5 5.7C604.5 6 604.8 6.1 605 6.4Z" fill="#727272" stroke="" stroke-opacity="0" fill-opacity="0.1" stroke-width="2.4622"/>
<path d="M561.7 63.4V31.5H571.6V63.4H561.7Z" fill="#727272" stroke="" stroke-opacity="0" fill-opacity="0.1" stroke-width="2.4622"/>
<path d="M927.1 1.6C928 3 929.1 5.9 927.8 10.8C926.6 15.7 924.6 19.1 923 21.3C922.2 22.4 921.4 23.2 920.9 23.7C920.6 24 920.4 24.1 920.3 24.2C920.2 24.3 920.2 24.3 920.1 24.3L917 26.5H920.8H941.7H941.8H941.9H942C942.1 26.5 942.3 26.5 942.5 26.5C942.9 26.5 943.4 26.6 943.9 26.7C944.4 26.9 944.8 27.1 945 27.4C945.3 27.7 945.5 28.2 945.5 29.1C945.5 31.1 945.4 34.2 945.4 37.3V37.6C945.3 40.5 945.3 43.3 945.3 45.1C945.3 45.7 945 46.3 944.5 47.1L934.1 57.5C933.9 57.6 933.7 57.8 933.3 58C932.9 58.2 932.6 58.2 932.5 58.2H914.1C913.8 58.2 913.7 58.2 913.5 58.1C913.4 58 913.2 57.9 913 57.7L905.4 50.6V25.6C905.4 25.6 905.4 25.6 905.5 25.6C905.8 25.3 906.3 25 906.8 24.5C907.9 23.6 909.4 22.2 911 20.8C914.2 17.9 917.9 14.4 919.8 12.1C923.4 7.7 925.4 4.2 926.3 1.5C926.4 1.3 926.5 1.2 926.5 1.1C926.6 1.1 926.6 1 926.7 1C926.6 1.2 926.9 1.3 927.1 1.6Z" fill="#727272" stroke="" stroke-opacity="0" fill-opacity="0.1" stroke-width="2.4622"/>
<path d="M883.7 58.6V26.7H893.6V58.6H883.7V58.6Z" fill="#727272" stroke="" stroke-opacity="0" fill-opacity="0.1" stroke-width="2.4622"/>
<path d="M102.9 80.8C103.8 82.2 104.9 85.1 103.6 90C102.4 94.9 100.4 98.3 98.8 100.5C98 101.6 97.2 102.4 96.7 102.9C96.4 103.2 96.2 103.3 96.1 103.4C96 103.5 95.9999 103.5 95.8999 103.5L92.8 105.7H96.6H117.5H117.6H117.7H117.8C117.9 105.7 118.1 105.7 118.3 105.7C118.7 105.7 119.2 105.8 119.7 105.9C120.2 106.1 120.6 106.3 120.8 106.6C121.1 106.9 121.3 107.4 121.3 108.3C121.3 110.3 121.2 113.4 121.2 116.5V116.8C121.1 119.7 121.1 122.5 121.1 124.3C121.1 124.9 120.8 125.5 120.3 126.3L109.9 136.7C109.8 136.8 109.5 137 109.1 137.2C108.7 137.4 108.4 137.4 108.3 137.4H89.8999C89.5999 137.4 89.5 137.4 89.3 137.3C89.2 137.2 89 137.1 88.8 136.9L81.2 129.8V104.8C81.5 104.5 82 104.2 82.5 103.7C83.6 102.8 85.1 101.4 86.7 100C89.9 97.1 93.6 93.6 95.5 91.3C99.1 86.9 101.1 83.4 102 80.7C102.1 80.5 102.2 80.4 102.2 80.4C102.3 80.4 102.3 80.3 102.4 80.3C102.5 80.4 102.7 80.5 102.9 80.8Z" fill="#727272" stroke="" stroke-opacity="0" fill-opacity="0.1" stroke-width="2.4622"/>
<path d="M59.6 137.7V105.8H69.5V137.7H59.6Z" fill="#727272" stroke="" stroke-opacity="0" fill-opacity="0.1" stroke-width="2.4622"/>
<path d="M437 80.8C437.9 82.2 439 85.1 437.7 90C436.5 94.9 434.5 98.3 432.9 100.5C432.1 101.6 431.3 102.4 430.8 102.9C430.5 103.2 430.3 103.3 430.2 103.4C430.1 103.5 430.1 103.5 430 103.5L426.9 105.7H430.7H451.6H451.7H451.8H451.9C452 105.7 452.2 105.7 452.4 105.7C452.8 105.7 453.3 105.8 453.8 105.9C454.3 106.1 454.7 106.3 454.9 106.6C455.2 106.9 455.4 107.4 455.4 108.3C455.4 110.3 455.3 113.4 455.3 116.5V116.8C455.2 119.7 455.2 122.5 455.2 124.3C455.2 124.9 454.9 125.5 454.4 126.3L444 136.7C443.9 136.8 443.6 137 443.2 137.2C442.8 137.4 442.5 137.4 442.4 137.4H424C423.7 137.4 423.6 137.4 423.4 137.3C423.3 137.2 423.1 137.1 422.9 136.9L415.3 129.8V104.8C415.6 104.5 416.1 104.2 416.6 103.7C417.7 102.8 419.2 101.4 420.8 100C424 97.1 427.7 93.6 429.6 91.3C433.2 86.9 435.2 83.4 436.1 80.7C436.2 80.5 436.3 80.4 436.3 80.4C436.4 80.3 436.4 80.3 436.5 80.3C436.6 80.4 436.8 80.5 437 80.8Z" fill="#727272" stroke="" stroke-opacity="0" fill-opacity="0.1" stroke-width="2.4622"/>
<path d="M393.7 137.7V105.8H403.6V137.7H393.7Z" fill="#727272" stroke="" stroke-opacity="0" fill-opacity="0.1" stroke-width="2.4622"/>
<path d="M771.1 80.8C772 82.2 773.1 85.1 771.8 90C770.6 94.9 768.6 98.3 767 100.5C766.2 101.6 765.4 102.4 764.9 102.9C764.6 103.2 764.4 103.3 764.3 103.4C764.2 103.5 764.2 103.5 764.1 103.5L761 105.7H764.8H785.7H785.8H785.9H786C786.1 105.7 786.3 105.7 786.5 105.7C786.9 105.7 787.4 105.8 787.9 105.9C788.4 106.1 788.8 106.3 789 106.6C789.3 106.9 789.5 107.4 789.5 108.3C789.5 110.3 789.4 113.4 789.4 116.5V116.8C789.3 119.7 789.3 122.5 789.3 124.3C789.3 124.9 789 125.5 788.5 126.3L778.1 136.7C777.9 136.8 777.7 137 777.3 137.2C777 137.4 776.6 137.4 776.5 137.4H758.1C757.8 137.4 757.7 137.4 757.5 137.3C757.4 137.2 757.2 137.1 757 136.9L749.4 129.8V104.8C749.4 104.8 749.4 104.8 749.5 104.8C749.8 104.5 750.3 104.2 750.8 103.7C751.9 102.8 753.4 101.4 755 100C758.2 97.1 761.9 93.6 763.8 91.3C767.4 86.9 769.4 83.4 770.3 80.7C770.4 80.5 770.5 80.4 770.5 80.4C770.6 80.3 770.6 80.3 770.7 80.3C770.6 80.4 770.9 80.5 771.1 80.8Z" fill="#727272" stroke="" stroke-opacity="0" fill-opacity="0.1" stroke-width="2.4622"/>
<path d="M727.8 137.7V105.8H737.7V137.7H727.8Z" fill="#727272" stroke="" stroke-opacity="0" fill-opacity="0.1" stroke-width="2.4622"/>
<path d="M-8.50002 80.8C-7.60002 82.2 -6.50003 85.1 -7.80003 90C-9.00003 94.9 -11 98.3 -12.6 100.5C-13.4 101.6 -14.2 102.4 -14.7 102.9C-15 103.2 -15.2 103.3 -15.3 103.4C-15.4 103.5 -15.4 103.5 -15.5 103.5L-18.6 105.7H-14.8H6.09998H6.19997H6.29998H6.39998C6.49998 105.7 6.69998 105.7 6.89998 105.7C7.29998 105.7 7.79998 105.8 8.29998 105.9C8.79998 106.1 9.19998 106.3 9.39998 106.6C9.69998 106.9 9.89998 107.4 9.89998 108.3C9.89998 110.3 9.79998 113.4 9.79998 116.5V116.8C9.69998 119.7 9.69997 122.5 9.69997 124.3C9.69997 124.9 9.39998 125.5 8.89998 126.3L-1.50002 136.7C-1.60002 136.8 -1.90003 137 -2.30003 137.2C-2.70003 137.4 -3.00002 137.4 -3.10002 137.4H-21.7C-22 137.4 -22.1 137.4 -22.3 137.3C-22.4 137.2 -22.6 137.1 -22.8 136.9L-30.4 129.8V104.8C-30.1 104.5 -29.6 104.2 -29.1 103.7C-28 102.8 -26.5 101.4 -24.9 100C-21.7 97.1 -18 93.6 -16.1 91.3C-12.5 86.9 -10.5 83.4 -9.60002 80.7C-9.50002 80.5 -9.40002 80.4 -9.40002 80.4C-9.30002 80.3 -9.30002 80.3 -9.20002 80.3C-8.90002 80.4 -8.60002 80.5 -8.50002 80.8Z" fill="#727272" stroke="" stroke-opacity="0" fill-opacity="0.1" stroke-width="2.4622"/>
<path d="M325.6 80.8C326.5 82.2 327.6 85.1 326.3 90C325.1 94.9 323.1 98.3 321.5 100.5C320.7 101.6 319.9 102.4 319.4 102.9C319.1 103.2 318.9 103.3 318.8 103.4C318.7 103.5 318.7 103.5 318.6 103.5L315.5 105.7H319.3H340.2H340.3H340.4H340.5C340.6 105.7 340.8 105.7 341 105.7C341.4 105.7 341.9 105.8 342.4 105.9C342.9 106.1 343.3 106.3 343.5 106.6C343.8 106.9 344 107.4 344 108.3C344 110.3 343.9 113.4 343.9 116.5V116.8C343.8 119.7 343.8 122.5 343.8 124.3C343.8 124.9 343.5 125.5 343 126.3L332.6 136.7C332.5 136.8 332.2 137 331.8 137.2C331.4 137.4 331.1 137.4 331 137.4H312.6C312.3 137.4 312.2 137.4 312 137.3C311.9 137.2 311.7 137.1 311.5 136.9L303.9 129.8V104.8C304.2 104.5 304.7 104.2 305.2 103.7C306.3 102.8 307.8 101.4 309.4 100C312.6 97.1 316.3 93.6 318.2 91.3C321.8 86.9 323.8 83.4 324.7 80.7C324.8 80.5 324.9 80.4 324.9 80.4C325 80.4 325 80.3 325.1 80.3C325.2 80.4 325.5 80.5 325.6 80.8Z" fill="#727272" stroke="" stroke-opacity="0" fill-opacity="0.1" stroke-width="2.4622"/>
<path d="M282.3 137.7V105.8H292.2V137.7H282.3Z" fill="#727272" stroke="" stroke-opacity="0" fill-opacity="0.1" stroke-width="2.4622"/>
<path d="M659.7 80.8C660.6 82.2 661.7 85.1 660.4 90C659.2 94.9 657.2 98.3 655.6 100.5C654.8 101.6 654 102.4 653.5 102.9C653.2 103.2 653 103.3 652.9 103.4C652.8 103.5 652.8 103.5 652.7 103.5L649.6 105.7H653.4H674.3H674.4H674.5H674.6C674.7 105.7 674.9 105.7 675.1 105.7C675.5 105.7 676 105.8 676.5 105.9C677 106.1 677.4 106.3 677.6 106.6C677.9 106.9 678.1 107.4 678.1 108.3C678.1 110.3 678 113.4 678 116.5V116.8C677.9 119.7 677.9 122.5 677.9 124.3C677.9 124.9 677.6 125.5 677.1 126.3L666.7 136.7C666.6 136.8 666.3 137 665.9 137.2C665.5 137.4 665.2 137.4 665.1 137.4H646.7C646.4 137.4 646.3 137.4 646.1 137.3C646 137.2 645.8 137.1 645.6 136.9L638 129.8V104.8C638 104.8 638 104.8 638.1 104.8C638.4 104.5 638.9 104.2 639.4 103.7C640.5 102.8 642 101.4 643.6 100C646.8 97.1 650.5 93.6 652.4 91.3C656 86.9 658 83.4 658.9 80.7C659 80.5 659.1 80.4 659.1 80.4C659.2 80.3 659.2 80.3 659.3 80.3C659.3 80.4 659.5 80.5 659.7 80.8Z" fill="#F4E455" stroke="" stroke-opacity="0" stroke-width="2.4622"/>
<path d="M616.4 137.7V105.8H626.3V137.7H616.4Z" fill="#F4E455" stroke="" stroke-opacity="0" stroke-width="2.4622"/>
<path d="M1219.2 80.8C1220.1 82.2 1221.2 85.1 1219.9 90C1218.7 94.9 1216.7 98.3 1215.1 100.5C1214.3 101.6 1213.5 102.4 1213 102.9C1212.7 103.2 1212.5 103.3 1212.4 103.4C1212.3 103.5 1212.3 103.5 1212.2 103.5L1209.1 105.7H1212.9H1233.8H1233.9H1234H1234.1C1234.2 105.7 1234.4 105.7 1234.6 105.7C1235 105.7 1235.5 105.8 1236 105.9C1236.5 106.1 1236.9 106.3 1237.1 106.6C1237.4 106.9 1237.6 107.4 1237.6 108.3C1237.6 110.3 1237.5 113.4 1237.5 116.5V116.8C1237.4 119.7 1237.4 122.5 1237.4 124.3C1237.4 124.9 1237.1 125.5 1236.6 126.3L1226.2 136.7C1226.1 136.8 1225.8 137 1225.4 137.2C1225 137.4 1224.7 137.4 1224.6 137.4H1206.2C1205.9 137.4 1205.8 137.4 1205.6 137.3C1205.5 137.2 1205.3 137.1 1205.1 136.9L1197.5 129.8V104.8C1197.5 104.8 1197.5 104.8 1197.6 104.8C1197.9 104.5 1198.4 104.2 1198.9 103.7C1200 102.8 1201.5 101.4 1203.1 100C1206.3 97.1 1210 93.6 1211.9 91.3C1215.5 86.9 1217.5 83.4 1218.4 80.7C1218.5 80.5 1218.6 80.4 1218.6 80.4C1218.7 80.3 1218.7 80.3 1218.8 80.3C1218.7 80.4 1219 80.5 1219.2 80.8Z" fill="#727272" stroke="" stroke-opacity="0" fill-opacity="0.1" stroke-width="2.4622"/>
<path d="M1175.8 137.7V105.8H1185.7V137.7H1175.8Z" fill="#727272" stroke="" stroke-opacity="0" fill-opacity="0.1" stroke-width="2.4622"/>
<path d="M212 80.4C212.5 78.7 214.5 78.7 215.3 80.1C216.4 81.7 217.5 85 216.1 90.3C213.6 100.5 207.9 104.6 207.9 104.6H228.8C228.8 104.6 233.7 104.1 233.7 108.4C233.7 112.5 233.4 120.8 233.4 124.3C233.4 125.4 232.9 126.2 232.3 127L221.9 137.4C221.4 137.9 220.3 138.5 219.4 138.5H201C200.2 138.5 199.6 138.2 199.1 137.7L191.1 130.3V104.2C191.1 104.2 202.1 94.9 205.7 90.5C209.3 86.2 211.2 82.9 212 80.4Z" fill="#727272" stroke="" stroke-opacity="0" fill-opacity="0.1" stroke-width="2.4622"/>
<path d="M182.1 104.6H169.7V139H182.1V104.6Z" fill="#727272" stroke="" stroke-opacity="0" fill-opacity="0.1" stroke-width="2.4622"/>
<path d="M548.4 80.8C549.3 82.2 550.4 85.1 549.1 90C547.9 94.9 545.9 98.3 544.3 100.5C543.5 101.6 542.7 102.4 542.2 102.9C541.9 103.2 541.7 103.3 541.6 103.4C541.5 103.5 541.5 103.5 541.4 103.5L538.3 105.7H542.1H563H563.1H563.2H563.3C563.4 105.7 563.6 105.7 563.8 105.7C564.2 105.7 564.7 105.8 565.2 105.9C565.7 106.1 566.1 106.3 566.3 106.6C566.6 106.9 566.8 107.4 566.8 108.3C566.8 110.3 566.7 113.4 566.7 116.5V116.8C566.6 119.7 566.6 122.5 566.6 124.3C566.6 124.9 566.3 125.5 565.8 126.3L555.4 136.7C555.2 136.8 555 137 554.6 137.2C554.3 137.4 554 137.4 553.8 137.4H535.4C535.1 137.4 535 137.4 534.8 137.3C534.7 137.2 534.5 137.1 534.3 136.9L526.7 129.8V104.8C526.7 104.8 526.7 104.8 526.8 104.8C527.1 104.5 527.6 104.2 528.1 103.7C529.2 102.8 530.7 101.4 532.3 100C535.5 97.1 539.2 93.6 541.1 91.3C544.7 86.9 546.7 83.4 547.6 80.7C547.7 80.5 547.8 80.4 547.8 80.4C547.9 80.3 547.9 80.3 548 80.3C547.9 80.4 548.2 80.5 548.4 80.8Z" fill="#727272" stroke="" stroke-opacity="0" fill-opacity="0.1" stroke-width="2.4622"/>
<path d="M505 137.7V105.8H514.9V137.7H505Z" fill="#727272" stroke="" stroke-opacity="0" fill-opacity="0.1" stroke-width="2.4622"/>
<path d="M1105.2 80.8C1106.1 82.2 1107.2 85.1 1105.9 90C1104.7 94.9 1102.7 98.3 1101.1 100.5C1100.3 101.6 1099.5 102.4 1099 102.9C1098.7 103.2 1098.5 103.3 1098.4 103.4C1098.3 103.5 1098.3 103.5 1098.2 103.5L1095.1 105.7H1098.9H1119.8H1119.9H1120H1120.1C1120.2 105.7 1120.4 105.7 1120.6 105.7C1121 105.7 1121.5 105.8 1122 105.9C1122.5 106.1 1122.9 106.3 1123.1 106.6C1123.4 106.9 1123.6 107.4 1123.6 108.3C1123.6 110.3 1123.5 113.4 1123.5 116.5V116.8C1123.4 119.7 1123.4 122.5 1123.4 124.3C1123.4 124.9 1123.1 125.5 1122.6 126.3L1112.2 136.7C1112 136.8 1111.8 137 1111.4 137.2C1111.1 137.4 1110.7 137.4 1110.6 137.4H1092C1091.7 137.4 1091.6 137.4 1091.4 137.3C1091.3 137.2 1091.1 137.1 1090.9 136.9L1083.3 129.8V104.8C1083.3 104.8 1083.3 104.8 1083.4 104.8C1083.7 104.5 1084.2 104.2 1084.7 103.7C1085.8 102.8 1087.3 101.4 1088.9 100C1092.1 97.1 1095.8 93.6 1097.7 91.3C1101.3 86.9 1103.3 83.4 1104.2 80.7C1104.3 80.5 1104.4 80.4 1104.4 80.4C1104.5 80.3 1104.5 80.3 1104.6 80.3C1104.7 80.4 1105 80.5 1105.2 80.8Z" fill="#727272" stroke="" stroke-opacity="0" fill-opacity="0.1" stroke-width="2.4622"/>
<path d="M1061.9 137.7V105.8H1071.8V137.7H1061.9Z" fill="#727272" stroke="" stroke-opacity="0" fill-opacity="0.1" stroke-width="2.4622"/>
<path d="M993.8 80.8C994.7 82.2 995.8 85.1 994.5 90C993.3 94.9 991.3 98.3 989.7 100.5C988.9 101.6 988.1 102.4 987.6 102.9C987.3 103.2 987.1 103.3 987 103.4C986.9 103.5 986.9 103.5 986.8 103.5L983.7 105.7H987.5H1008.4H1008.5H1008.6H1008.7C1008.8 105.7 1009 105.7 1009.1 105.7C1009.5 105.7 1010 105.8 1010.5 105.9C1011 106.1 1011.4 106.3 1011.6 106.6C1011.9 106.9 1012.1 107.4 1012.1 108.3C1012.1 110.3 1012 113.4 1012 116.5V116.8C1011.9 119.7 1011.9 122.5 1011.9 124.3C1011.9 124.9 1011.6 125.5 1011.1 126.3L1000.7 136.7C1000.6 136.8 1000.3 137 999.9 137.2C999.6 137.4 999.2 137.4 999.1 137.4H980.7C980.4 137.4 980.3 137.4 980.1 137.3C980 137.2 979.8 137.1 979.6 136.9L972 129.8V104.8C972 104.8 972 104.8 972.1 104.8C972.4 104.5 972.9 104.2 973.4 103.7C974.5 102.8 976 101.4 977.6 100C980.8 97.1 984.5 93.6 986.4 91.3C990 86.9 992 83.4 992.9 80.7C993 80.5 993 80.4 993.1 80.4C993.2 80.3 993.2 80.3 993.3 80.3C993.4 80.4 993.6 80.5 993.8 80.8Z" fill="#727272" stroke="" stroke-opacity="0" fill-opacity="0.1" stroke-width="2.4622"/>
<path d="M950.5 137.7V105.8H960.4V137.7H950.5Z" fill="#727272" stroke="" stroke-opacity="0" fill-opacity="0.1" stroke-width="2.4622"/>
<path d="M882.5 80.8C883.4 82.2 884.5 85.1 883.2 90C882 94.9 880 98.3 878.4 100.5C877.6 101.6 876.8 102.4 876.3 102.9C876 103.2 875.8 103.3 875.7 103.4C875.6 103.5 875.6 103.5 875.5 103.5L872.4 105.7H876.2H897.1H897.2H897.3H897.4C897.5 105.7 897.7 105.7 897.9 105.7C898.3 105.7 898.8 105.8 899.3 105.9C899.8 106.1 900.2 106.3 900.4 106.6C900.7 106.9 900.9 107.4 900.9 108.3C900.9 110.3 900.8 113.4 900.8 116.5V116.8C900.7 119.7 900.7 122.5 900.7 124.3C900.7 124.9 900.4 125.5 899.9 126.3L889.5 136.7C889.3 136.8 889.1 137 888.7 137.2C888.3 137.4 888 137.4 887.9 137.4H869.5C869.2 137.4 869.1 137.4 868.9 137.3C868.8 137.2 868.6 137.1 868.4 136.9L860.8 129.8V104.8C860.8 104.8 860.8 104.8 860.9 104.8C861.2 104.5 861.7 104.2 862.2 103.7C863.3 102.8 864.8 101.4 866.4 100C869.6 97.1 873.3 93.6 875.2 91.3C878.8 86.9 880.8 83.4 881.7 80.7C881.8 80.5 881.9 80.4 881.9 80.4C882 80.3 882 80.3 882.1 80.3C882 80.4 882.3 80.5 882.5 80.8Z" fill="#727272" stroke="" stroke-opacity="0" fill-opacity="0.1" stroke-width="2.4622"/>
<path d="M839.1 137.7V105.8H849V137.7H839.1Z" fill="#727272" stroke="" stroke-opacity="0" fill-opacity="0.1" stroke-width="2.4622"/>
<path d="M389.7 158.5C390.6 159.9 391.7 162.8 390.4 167.7C389.2 172.6 387.2 176 385.6 178.2C384.8 179.3 384 180.1 383.5 180.6C383.2 180.9 383 181 382.9 181.1C382.8 181.2 382.8 181.2 382.7 181.2L379.6 183.4H383.4H404.3H404.4H404.5H404.6C404.7 183.4 404.9 183.4 405.1 183.4C405.5 183.4 406 183.5 406.5 183.6C407 183.8 407.4 184 407.6 184.3C407.9 184.6 408.1 185.1 408.1 186C408.1 188 408 191.1 408 194.2V194.5C407.9 197.4 407.9 200.2 407.9 202C407.9 202.6 407.6 203.2 407.1 204L396.7 214.4C396.6 214.5 396.3 214.7 395.9 214.9C395.5 215.1 395.2 215.1 395.1 215.1H376.7C376.4 215.1 376.3 215.1 376.1 215C376 214.9 375.8 214.8 375.6 214.6L368 207.5V182.5C368.3 182.2 368.8 181.8 369.3 181.4C370.4 180.5 371.9 179.1 373.5 177.7C376.7 174.8 380.4 171.3 382.3 169C385.9 164.6 387.9 161.1 388.8 158.4C388.9 158.2 389 158.1 389 158.1C389.1 158.1 389.1 158 389.2 158C389.2 158.1 389.5 158.2 389.7 158.5Z" fill="#727272" stroke="" stroke-opacity="0" fill-opacity="0.1" stroke-width="2.4622"/>
<path d="M346.3 215.4V183.5H356.2V215.4H346.3Z" fill="#727272" stroke="" stroke-opacity="0" fill-opacity="0.1" stroke-width="2.4622"/>
<path d="M723.8 158.5C724.7 159.9 725.8 162.8 724.5 167.7C723.3 172.6 721.3 176 719.7 178.2C718.9 179.3 718.1 180.1 717.6 180.6C717.3 180.9 717.1 181 717 181.1C716.9 181.2 716.9 181.2 716.8 181.2L713.7 183.4H717.5H738.4H738.5H738.6H738.7C738.8 183.4 739 183.4 739.2 183.4C739.6 183.4 740.1 183.5 740.6 183.6C741.1 183.8 741.5 184 741.7 184.3C742 184.6 742.2 185.1 742.2 186C742.2 188 742.1 191.1 742.1 194.1V194.4C742 197.3 742 200.1 742 201.9C742 202.5 741.7 203.1 741.2 203.9L730.8 214.3C730.6 214.4 730.4 214.6 730 214.8C729.6 215 729.3 215 729.2 215H710.8C710.5 215 710.4 215 710.2 214.9C710.1 214.8 709.9 214.7 709.7 214.5L702.1 207.4V182.4C702.4 182.1 702.9 181.8 703.4 181.3C704.5 180.4 706 179 707.6 177.6C710.8 174.7 714.5 171.2 716.4 168.9C720 164.5 722 161 722.9 158.3C723 158.1 723.1 158 723.1 157.9C723.2 157.9 723.2 157.8 723.3 157.8C723.3 158.1 723.6 158.2 723.8 158.5Z" fill="#727272" stroke="" stroke-opacity="0" fill-opacity="0.1" stroke-width="2.4622"/>
<path d="M680.4 215.4V183.5H690.3V215.4H680.4Z" fill="#727272" stroke="" stroke-opacity="0" fill-opacity="0.1" stroke-width="2.4622"/>
<path d="M1037.9 158.5C1038.8 159.9 1039.9 162.8 1038.6 167.7C1037.4 172.6 1035.4 176 1033.8 178.2C1033 179.3 1032.2 180.1 1031.7 180.6C1031.4 180.9 1031.2 181 1031.1 181.1C1031 181.2 1031 181.2 1030.9 181.2L1027.8 183.4H1031.6H1052.5H1052.6H1052.7H1052.8C1052.9 183.4 1053.1 183.4 1053.3 183.4C1053.7 183.4 1054.2 183.5 1054.7 183.6C1055.2 183.7 1055.6 184 1055.8 184.3C1056.1 184.6 1056.3 185.1 1056.3 186C1056.3 188 1056.2 191.1 1056.2 194.1V194.4C1056.1 197.3 1056.1 200.1 1056.1 201.9C1056.1 202.5 1055.8 203.1 1055.3 203.9L1044.9 214.3C1044.8 214.4 1044.5 214.6 1044.1 214.8C1043.7 215 1043.4 215 1043.3 215H1024.9C1024.6 215 1024.5 215 1024.3 214.9C1024.2 214.8 1024 214.7 1023.8 214.5L1016.2 207.4V182.4C1016.5 182.1 1017 181.8 1017.5 181.3C1018.6 180.4 1020.1 179 1021.7 177.6C1024.9 174.7 1028.6 171.2 1030.5 168.9C1034.1 164.5 1036.1 161 1037 158.3C1037.1 158.1 1037.2 158 1037.2 157.9C1037.3 157.9 1037.3 157.8 1037.4 157.8C1037.4 158.1 1037.7 158.2 1037.9 158.5Z" fill="#727272" stroke="" stroke-opacity="0" fill-opacity="0.1" stroke-width="2.4622"/>
<path d="M994.5 215.4V183.5H1004.4V215.4H994.5Z" fill="#727272" stroke="" stroke-opacity="0" fill-opacity="0.1" stroke-width="2.4622"/>
<path d="M278.3 158.5C279.2 159.9 280.3 162.8 279 167.7C277.8 172.6 275.8 176 274.2 178.2C273.4 179.3 272.6 180.1 272.1 180.6C271.8 180.9 271.6 181 271.5 181.1C271.4 181.2 271.4 181.2 271.3 181.2L268.2 183.4H272H292.9H293H293.1H293.2C293.3 183.4 293.5 183.4 293.7 183.4C294.1 183.4 294.6 183.5 295.1 183.6C295.6 183.8 296 184 296.2 184.3C296.5 184.6 296.7 185.1 296.7 186C296.7 188 296.6 191.1 296.6 194.1V194.4C296.5 197.3 296.5 200.1 296.5 201.9C296.5 202.5 296.2 203.1 295.7 203.9L285.3 214.3C285.2 214.4 284.9 214.6 284.5 214.8C284.1 215 283.8 215 283.7 215H265.3C265 215 264.9 215 264.7 214.9C264.6 214.8 264.4 214.7 264.2 214.5L256.6 207.4V182.4C256.9 182.1 257.4 181.8 257.9 181.3C259 180.4 260.5 179 262.1 177.6C265.3 174.7 269 171.2 270.9 168.9C274.5 164.5 276.5 161 277.4 158.3C277.5 158.1 277.6 158 277.6 157.9C277.7 157.9 277.7 157.8 277.8 157.8C277.9 158.1 278.1 158.2 278.3 158.5Z" fill="#727272" stroke="" stroke-opacity="0" fill-opacity="0.1" stroke-width="2.4622"/>
<path d="M235 215.4V183.5H244.9V215.4H235Z" fill="#727272" stroke="" stroke-opacity="0" fill-opacity="0.1" stroke-width="2.4622"/>
<path d="M612.4 158.5C613.3 159.9 614.4 162.8 613.1 167.7C611.9 172.6 609.9 176 608.3 178.2C607.5 179.3 606.7 180.1 606.2 180.6C605.9 180.9 605.7 181 605.6 181.1C605.5 181.2 605.5 181.2 605.4 181.2L602.3 183.4H606.1H627H627.1H627.2H627.3C627.4 183.4 627.6 183.4 627.8 183.4C628.2 183.4 628.7 183.5 629.2 183.6C629.7 183.8 630.1 184 630.3 184.3C630.6 184.6 630.8 185.1 630.8 186C630.8 188 630.7 191.1 630.7 194.2V194.5C630.6 197.4 630.6 200.2 630.6 202C630.6 202.6 630.3 203.2 629.8 204L619.4 214.4C619.2 214.5 619 214.7 618.6 214.9C618.3 215.1 618 215.1 617.8 215.1H599.4C599.1 215.1 599 215.1 598.8 215C598.7 214.9 598.5 214.8 598.3 214.6L590.7 207.5V182.5C591 182.2 591.5 181.8 592 181.4C593.1 180.5 594.6 179.1 596.2 177.7C599.4 174.8 603.1 171.3 605 169C608.6 164.6 610.6 161.1 611.5 158.4C611.6 158.2 611.7 158.1 611.7 158.1C611.8 158.1 611.8 158 611.9 158C612 158.1 612.2 158.2 612.4 158.5Z" fill="#727272" stroke="" stroke-opacity="0" fill-opacity="0.1" stroke-width="2.4622"/>
<path d="M569.1 215.4V183.5H579V215.4H569.1Z" fill="#727272" stroke="" stroke-opacity="0" fill-opacity="0.1" stroke-width="2.4622"/>
<path d="M936.5 158.5C937.4 159.9 938.5 162.8 937.2 167.7C936 172.6 934 176 932.4 178.2C931.6 179.3 930.8 180.1 930.3 180.6C930 180.9 929.8 181 929.7 181.1C929.6 181.2 929.6 181.2 929.5 181.2L926.4 183.4H930.2H951.1H951.2H951.3H951.4C951.5 183.4 951.7 183.4 951.9 183.4C952.3 183.4 952.8 183.5 953.3 183.6C953.8 183.8 954.2 184 954.4 184.3C954.7 184.6 954.9 185.1 954.9 186C954.9 188 954.8 191.1 954.8 194.2V194.5C954.7 197.4 954.7 200.2 954.7 202C954.7 202.6 954.4 203.2 953.9 204L943.5 214.4C943.3 214.5 943.1 214.7 942.7 214.9C942.3 215.1 942 215.1 941.9 215.1H923.5C923.2 215.1 923.1 215.1 922.9 215C922.8 214.9 922.6 214.8 922.4 214.6L914.8 207.5V182.5C915.1 182.2 915.6 181.8 916.1 181.4C917.2 180.5 918.7 179.1 920.3 177.7C923.5 174.8 927.2 171.3 929.1 169C932.7 164.6 934.8 161.1 935.6 158.4C935.7 158.2 935.8 158.1 935.8 158.1C935.9 158.1 935.9 158 936 158C936.1 158.1 936.3 158.2 936.5 158.5Z" fill="#F4E455" stroke="" stroke-opacity="0" stroke-width="2.4622"/>
<path d="M893.2 215.4V183.5H903.1V215.4H893.2Z" fill="#F4E455" stroke="" stroke-opacity="0" stroke-width="2.4622"/>
<path d="M167 158.5C167.9 159.9 169 162.8 167.7 167.7C166.5 172.6 164.5 176 162.9 178.2C162.1 179.3 161.3 180.1 160.8 180.6C160.5 180.9 160.3 181 160.2 181.1C160.1 181.2 160.1 181.2 160 181.2L156.9 183.4H160.7H181.6H181.7H181.8H181.9C182 183.4 182.2 183.4 182.4 183.4C182.8 183.4 183.3 183.5 183.8 183.6C184.3 183.8 184.7 184 184.9 184.3C185.2 184.6 185.4 185.1 185.4 186C185.4 188 185.3 191.1 185.3 194.1V194.4C185.2 197.3 185.2 200.1 185.2 201.9C185.2 202.5 184.9 203.1 184.4 203.9L174 214.3C173.9 214.4 173.6 214.6 173.2 214.8C172.8 215 172.5 215 172.4 215H154C153.7 215 153.6 215 153.4 214.9C153.3 214.8 153.1 214.7 152.9 214.5L145.3 207.4V182.4C145.6 182.1 146.1 181.8 146.6 181.3C147.7 180.4 149.2 179 150.8 177.6C154 174.7 157.7 171.2 159.6 168.9C163.2 164.5 165.2 161 166.1 158.3C166.2 158.1 166.3 158 166.3 157.9C166.4 157.9 166.4 157.8 166.5 157.8C166.5 158.1 166.8 158.2 167 158.5Z" fill="#727272" stroke="" stroke-opacity="0" fill-opacity="0.1" stroke-width="2.4622"/>
<path d="M123.6 215.4V183.5H133.5V215.4H123.6Z" fill="#727272" stroke="" stroke-opacity="0" fill-opacity="0.1" stroke-width="2.4622"/>
<path d="M498.8 158.1C499.3 156.5 501.3 156.5 502.1 157.8C503.2 159.4 504.3 162.7 502.9 168C500.4 178.2 494.7 182.3 494.7 182.3H515.6C515.6 182.3 520.5 181.8 520.5 186.1C520.5 190.2 520.2 198.5 520.2 202C520.2 203.1 519.7 203.9 519.1 204.7L508.7 215.1C508.2 215.7 507 216.2 506.2 216.2H487.8C487 216.2 486.4 215.9 485.9 215.4L477.9 208V182C477.9 182 488.9 172.7 492.5 168.3C496.1 163.9 498 160.6 498.8 158.1Z" fill="#727272" stroke="" stroke-opacity="0" fill-opacity="0.1" stroke-width="2.4622"/>
<path d="M468.8 182.3H456.4V216.7H468.8V182.3Z" fill="#727272" stroke="" stroke-opacity="0" fill-opacity="0.1" stroke-width="2.4622"/>
<path d="M835.1 158.5C836 159.9 837.1 162.8 835.8 167.7C834.6 172.6 832.6 176 831 178.2C830.2 179.3 829.4 180.1 828.9 180.6C828.6 180.9 828.4 181 828.3 181.1C828.2 181.2 828.2 181.2 828.1 181.2L825 183.4H828.8H849.7H849.8H849.9H850C850.1 183.4 850.3 183.4 850.4 183.4C850.8 183.4 851.3 183.5 851.8 183.6C852.3 183.8 852.7 184 852.9 184.3C853.2 184.6 853.4 185.1 853.4 186C853.4 188 853.3 191.1 853.3 194.2V194.5C853.2 197.4 853.2 200.2 853.2 202C853.2 202.6 852.9 203.2 852.4 204L842 214.4C841.8 214.5 841.6 214.7 841.2 214.9C840.9 215.1 840.6 215.1 840.4 215.1H822C821.7 215.1 821.6 215.1 821.4 215C821.3 214.9 821.1 214.8 820.9 214.6L813.3 207.5V182.5C813.6 182.2 814.1 181.8 814.6 181.4C815.7 180.5 817.2 179.1 818.8 177.7C822 174.8 825.7 171.3 827.6 169C831.2 164.6 833.2 161.1 834.1 158.4C834.2 158.2 834.3 158.1 834.3 158.1C834.4 158.1 834.4 158 834.5 158C834.7 158.1 835 158.2 835.1 158.5Z" fill="#727272" stroke="" stroke-opacity="0" fill-opacity="0.1" stroke-width="2.4622"/>
<path d="M791.8 215.4V183.5H801.7V215.4H791.8Z" fill="#727272" stroke="" stroke-opacity="0" fill-opacity="0.1" stroke-width="2.4622"/>
<path d="M1148.2 158.5C1149.1 159.9 1150.2 162.8 1148.9 167.7C1147.7 172.6 1145.7 176 1144.1 178.2C1143.3 179.3 1142.5 180.1 1142 180.6C1141.7 180.9 1141.5 181 1141.4 181.1C1141.3 181.2 1141.3 181.2 1141.2 181.2L1138.1 183.4H1141.9H1162.8H1162.9H1163H1163.1C1163.2 183.4 1163.4 183.4 1163.6 183.4C1164 183.4 1164.5 183.5 1165 183.6C1165.5 183.7 1165.9 184 1166.1 184.3C1166.4 184.6 1166.6 185.1 1166.6 186C1166.6 188 1166.5 191.1 1166.5 194.1V194.4C1166.4 197.3 1166.4 200.1 1166.4 201.9C1166.4 202.5 1166.1 203.1 1165.6 203.9L1155.2 214.3C1155.1 214.4 1154.8 214.6 1154.4 214.8C1154 215 1153.7 215 1153.6 215H1135C1134.7 215 1134.6 215 1134.4 214.9C1134.3 214.8 1134.1 214.7 1133.9 214.5L1126.3 207.4V182.4C1126.3 182.4 1126.3 182.4 1126.4 182.4C1126.7 182.1 1127.2 181.8 1127.7 181.3C1128.8 180.4 1130.3 179 1131.9 177.6C1135.1 174.7 1138.8 171.2 1140.7 168.9C1144.3 164.5 1146.3 161 1147.2 158.3C1147.3 158.1 1147.4 158 1147.4 157.9C1147.5 157.9 1147.5 157.8 1147.6 157.8C1147.8 158.1 1148 158.2 1148.2 158.5Z" fill="#727272" stroke="" stroke-opacity="0" fill-opacity="0.1" stroke-width="2.4622"/>
<path d="M1104.9 215.4V183.5H1114.8V215.4H1104.9Z" fill="#727272" stroke="" stroke-opacity="0" fill-opacity="0.1" stroke-width="2.4622"/>
<path d="M46 157.2C46.9 158.6 48 161.5 46.7 166.4C45.5 171.3 43.5 174.7 41.9 176.9C41.1 178 40.3 178.8 39.8 179.3C39.5 179.6 39.3 179.7 39.2 179.8C39.1 179.9 39.1 179.9 39 179.9L35.9 182.1H39.7H60.6001H60.7H60.8H60.9C61 182.1 61.2 182.1 61.4 182.1C61.8 182.1 62.3 182.2 62.8 182.3C63.3 182.5 63.7 182.7 63.9 183C64.2 183.3 64.4 183.8 64.4 184.7C64.4 186.7 64.3 189.8 64.3 192.9V193.2C64.2 196.1 64.2 198.9 64.2 200.7C64.2 201.3 63.9 201.9 63.4 202.7L53 213.1C52.9 213.2 52.6 213.4 52.2 213.6C51.8 213.8 51.5 213.8 51.4 213.8H33C32.7 213.8 32.6 213.8 32.4 213.7C32.3 213.6 32.1 213.5 31.9 213.3L24.3 206.2V181.2C24.6 180.9 25.1001 180.6 25.6001 180.1C26.7001 179.2 28.2 177.8 29.8 176.4C33 173.5 36.7001 170 38.6001 167.7C42.2001 163.3 44.2001 159.8 45.1001 157.1C45.2001 156.9 45.3 156.8 45.3 156.8C45.4 156.7 45.4 156.7 45.5 156.7C45.6 156.8 45.8 156.8 46 157.2Z" fill="#727272" stroke="" stroke-opacity="0" fill-opacity="0.1" stroke-width="2.4622"/>
<path d="M2.69995 214.1V182.2H12.6V214.1H2.69995Z" fill="#727272" stroke="" stroke-opacity="0" fill-opacity="0.1" stroke-width="2.4622"/>
<path d="M1261.1 6.2C1261.6 4.6 1263.6 4.6 1264.4 5.9C1265.5 7.6 1266.6 10.8 1265.2 16.1C1262.7 26.3 1257 30.4 1257 30.4H1277.9C1277.9 30.4 1282.8 29.9 1282.8 34.2C1282.8 38.3 1282.5 46.6 1282.5 50.1C1282.5 51.2 1281.9 52 1281.4 52.9L1271 63.4C1270.4 63.9 1269.4 64.5 1268.5 64.5H1250.1C1249.3 64.5 1248.7 64.2 1248.2 63.7L1240.2 56.3V30.1C1240.2 30.1 1251.2 20.8 1254.8 16.4C1258.3 12 1260.3 8.7 1261.1 6.2Z" fill="#727272" stroke="" stroke-opacity="0" fill-opacity="0.1" stroke-width="2.4622"/>
<path d="M1231.1 30.4H1218.7V64.8H1231.1V30.4Z" fill="#727272" stroke="" stroke-opacity="0" fill-opacity="0.1" stroke-width="2.4622"/>
<path d="M1318.1 80.9C1319 82.3 1320.1 85.2 1318.8 90.1C1317.6 95 1315.6 98.4 1314 100.6C1313.2 101.7 1312.4 102.5 1311.9 103C1311.6 103.3 1311.4 103.4 1311.3 103.5C1311.2 103.6 1311.2 103.6 1311.1 103.6L1308 105.8H1311.8H1332.7H1332.8H1332.9H1333C1333.1 105.8 1333.3 105.8 1333.5 105.8C1333.9 105.8 1334.4 105.9 1334.9 106C1335.4 106.2 1335.8 106.4 1336 106.7C1336.3 107 1336.5 107.5 1336.5 108.4C1336.5 110.4 1336.4 113.5 1336.4 116.6V116.9C1336.3 119.8 1336.3 122.6 1336.3 124.4C1336.3 125 1336 125.6 1335.5 126.4L1325.1 136.8C1325 136.9 1324.7 137.1 1324.3 137.3C1323.9 137.5 1323.6 137.5 1323.5 137.5H1305.1C1304.8 137.5 1304.7 137.5 1304.5 137.4C1304.4 137.3 1304.2 137.2 1304 137L1296.4 129.9V104.9C1296.4 104.9 1296.4 104.9 1296.5 104.9C1296.8 104.6 1297.3 104.3 1297.8 103.8C1298.9 102.9 1300.4 101.5 1302 100.1C1305.2 97.2 1308.9 93.7 1310.8 91.4C1314.4 87 1316.4 83.5 1317.3 80.8C1317.4 80.6 1317.5 80.5 1317.5 80.5C1317.6 80.4 1317.6 80.4 1317.7 80.4C1317.6 80.5 1317.9 80.6 1318.1 80.9Z" fill="#727272" stroke="" stroke-opacity="0" fill-opacity="0.1" stroke-width="2.4622"/>
<path d="M1274.7 137.9V106H1284.6V137.9H1274.7Z" fill="#727272" stroke="" stroke-opacity="0" fill-opacity="0.1" stroke-width="2.4622"/>
<path d="M1262.5 159.3C1263.4 160.7 1264.5 163.6 1263.2 168.5C1262 173.4 1260 176.8 1258.4 179C1257.6 180.1 1256.8 180.9 1256.3 181.4C1256 181.7 1255.8 181.8 1255.7 181.9C1255.6 182 1255.6 182 1255.5 182L1252.4 184.2H1256.2H1277.1H1277.2H1277.3H1277.4C1277.5 184.2 1277.7 184.2 1277.9 184.2C1278.3 184.2 1278.8 184.3 1279.3 184.4C1279.8 184.6 1280.2 184.8 1280.4 185.1C1280.7 185.4 1280.9 185.9 1280.9 186.8C1280.9 188.8 1280.8 191.9 1280.8 195V195.3C1280.7 198.2 1280.7 201 1280.7 202.8C1280.7 203.4 1280.4 204 1279.9 204.8L1269.5 215.2C1269.4 215.3 1269.1 215.5 1268.7 215.7C1268.3 215.9 1268 215.9 1267.9 215.9H1249.5C1249.2 215.9 1249.1 215.9 1248.9 215.8C1248.8 215.7 1248.6 215.6 1248.4 215.4L1240.8 208.3V183.3C1240.8 183.3 1240.8 183.3 1240.9 183.3C1241.2 183 1241.7 182.7 1242.2 182.2C1243.3 181.3 1244.8 179.9 1246.4 178.5C1249.6 175.6 1253.3 172.1 1255.2 169.8C1258.8 165.4 1260.8 161.9 1261.7 159.2C1261.8 159 1261.9 158.9 1261.9 158.9C1262 158.8 1262 158.8 1262.1 158.8C1262.1 158.9 1262.3 159 1262.5 159.3Z" fill="#727272" stroke="" stroke-opacity="0" fill-opacity="0.1" stroke-width="2.4622"/>
<path d="M1219.2 216.3V184.4H1229.1V216.3H1219.2Z" fill="#727272" stroke="" stroke-opacity="0" fill-opacity="0.1" stroke-width="2.4622"/>
</g>
</g>
<defs>
<clipPath id="clip0">
<rect width="2691" height="217.9" fill="white" transform="translate(-109)"/>
</clipPath>
</defs>
</svg>
