<svg width="528" height="43" viewBox="0 0 528 43" fill="none" xmlns="http://www.w3.org/2000/svg">
<path d="M29.435 4.205L28.9511 5.08016L28.9591 5.08447L29.435 4.205ZM36.75 11.355L35.8817 11.8511L35.8843 11.8556L36.75 11.355ZM36.75 32.2L37.6157 32.7006L37.6182 32.6961L36.75 32.2ZM29.435 39.35L29.911 40.2295L29.9189 40.2251L29.435 39.35ZM8.755 39.9L8.34464 40.8119L8.755 39.9ZM1.495 34.18L0.829084 33.434L0.137618 34.0512L0.700642 34.7874L1.495 34.18ZM9.69 26.865L10.4737 26.2438L9.81505 25.4129L9.02408 26.119L9.69 26.865ZM22.67 30.055L22.1044 29.2302L22.0933 29.238L22.67 30.055ZM25.53 26.315L26.4628 26.6754L26.9884 25.315H25.53V26.315ZM13.54 26.315H12.54V27.315H13.54V26.315ZM13.54 16.965V15.965H12.54V16.965H13.54ZM25.475 16.965V17.965H26.9586L26.4019 16.5898L25.475 16.965ZM22.615 13.39L22.0658 14.2257L22.615 13.39ZM9.69 16.635L9.02408 17.381L9.81505 18.0871L10.4737 17.2562L9.69 16.635ZM1.495 9.32L0.700642 8.71255L0.137618 9.44881L0.829084 10.066L1.495 9.32ZM8.755 3.6L9.16536 4.51192H9.16537L8.755 3.6ZM18.765 2.62C22.6135 2.62 26 3.44832 28.9511 5.08012L29.9189 3.32987C26.6367 1.51501 22.9099 0.619999 18.765 0.619999V2.62ZM28.9591 5.08447C31.9116 6.68232 34.2141 8.93281 35.8818 11.8511L37.6182 10.8589C35.7659 7.61719 33.1917 5.10101 29.911 3.32553L28.9591 5.08447ZM35.8843 11.8556C37.5473 14.7311 38.39 18.0201 38.39 21.75H40.39C40.39 17.7066 39.4727 14.0655 37.6157 10.8544L35.8843 11.8556ZM38.39 21.75C38.39 25.4797 37.5473 28.7891 35.8818 31.7039L37.6182 32.6961C39.4727 29.4509 40.39 25.7936 40.39 21.75H38.39ZM35.8843 31.6994C34.2165 34.5834 31.9111 36.8382 28.9511 38.4749L29.9189 40.2251C33.1923 38.4151 35.7635 35.9033 37.6157 32.7006L35.8843 31.6994ZM28.9591 38.4705C26.0064 40.0684 22.617 40.88 18.765 40.88V42.88C22.9063 42.88 26.6303 42.0049 29.911 40.2295L28.9591 38.4705ZM18.765 40.88C15.1436 40.88 11.9504 40.2413 9.16537 38.9881L8.34464 40.8119C11.4263 42.1987 14.9064 42.88 18.765 42.88V40.88ZM9.16537 38.9881C6.3794 37.7344 4.09269 35.9308 2.28936 33.5725L0.700642 34.7874C2.71064 37.4159 5.26394 39.4256 8.34464 40.8119L9.16537 38.9881ZM2.16092 34.926L10.3559 27.611L9.02408 26.119L0.829084 33.434L2.16092 34.926ZM8.90634 27.4862C11.4393 30.6817 14.5139 32.375 18.105 32.375V30.375C15.2428 30.375 12.7073 29.0617 10.4737 26.2438L8.90634 27.4862ZM18.105 32.375C20.0706 32.375 21.803 31.8911 23.2467 30.872L22.0933 29.238C21.0437 29.9789 19.7328 30.375 18.105 30.375V32.375ZM23.2355 30.8797C24.7037 29.873 25.7752 28.4552 26.4628 26.6754L24.5972 25.9546C24.0382 27.4015 23.203 28.477 22.1045 29.2303L23.2355 30.8797ZM25.53 25.315H13.54V27.315H25.53V25.315ZM14.54 26.315V16.965H12.54V26.315H14.54ZM13.54 17.965H25.475V15.965H13.54V17.965ZM26.4019 16.5898C25.709 14.8777 24.6313 13.5184 23.1642 12.5543L22.0658 14.2257C23.1653 14.9482 23.9944 15.9723 24.5481 17.3402L26.4019 16.5898ZM23.1642 12.5543C21.6983 11.591 19.9988 11.125 18.105 11.125V13.125C19.6578 13.125 20.9651 13.5023 22.0658 14.2257L23.1642 12.5543ZM18.105 11.125C14.5139 11.125 11.4393 12.8183 8.90634 16.0138L10.4737 17.2562C12.7073 14.4383 15.2428 13.125 18.105 13.125V11.125ZM10.3559 15.889L2.16092 8.57397L0.829084 10.066L9.02408 17.381L10.3559 15.889ZM2.28936 9.92745C4.09269 7.56924 6.37939 5.76561 9.16536 4.51192L8.34464 2.68808C5.26394 4.07439 2.71064 6.08408 0.700642 8.71255L2.28936 9.92745ZM9.16537 4.51192C11.9504 3.25867 15.1436 2.62 18.765 2.62V0.619999C14.9064 0.619999 11.4263 1.30132 8.34464 2.68808L9.16537 4.51192ZM76.899 12.565V13.565H77.899V12.565H76.899ZM65.624 12.565V11.565H64.624V12.565H65.624ZM65.624 41V42H66.624V41H65.624ZM52.864 41H51.864V42H52.864V41ZM52.864 12.565H53.864V11.565H52.864V12.565ZM41.589 12.565H40.589V13.565H41.589V12.565ZM41.589 2.5V1.5H40.589V2.5H41.589ZM76.899 2.5H77.899V1.5H76.899V2.5ZM76.899 11.565H65.624V13.565H76.899V11.565ZM64.624 12.565V41H66.624V12.565H64.624ZM65.624 40H52.864V42H65.624V40ZM53.864 41V12.565H51.864V41H53.864ZM52.864 11.565H41.589V13.565H52.864V11.565ZM42.589 12.565V2.5H40.589V12.565H42.589ZM41.589 3.5H76.899V1.5H41.589V3.5ZM75.899 2.5V12.565H77.899V2.5H75.899ZM89.5574 39.295L90.0203 38.4086L89.5574 39.295ZM81.8024 32.145L80.9476 32.664L80.9504 32.6685L81.8024 32.145ZM81.8024 11.41L82.6544 11.9335L82.6572 11.929L81.8024 11.41ZM111.887 4.205L112.35 3.31859L111.887 4.205ZM119.642 11.41L118.788 11.929L118.79 11.9335L119.642 11.41ZM119.642 32.145L120.494 32.6685L120.497 32.664L119.642 32.145ZM111.887 39.295L112.35 40.1814L111.887 39.295ZM105.067 30.22L105.582 31.0775L105.589 31.0733L105.067 30.22ZM108.202 26.865L109.083 27.3391L109.088 27.3298L108.202 26.865ZM108.202 16.69L107.317 17.1549L107.322 17.1641L108.202 16.69ZM105.067 13.335L104.535 14.1816L104.549 14.1904L104.564 14.1988L105.067 13.335ZM96.3224 13.335L96.8369 14.1925L96.8439 14.1883L96.3224 13.335ZM93.2424 16.69L94.1229 17.1641L94.1278 17.1548L93.2424 16.69ZM93.2424 26.865L92.357 27.3299L92.362 27.3391L93.2424 26.865ZM96.3224 30.22L95.7903 31.0666L95.8043 31.0754L95.8186 31.0838L96.3224 30.22ZM100.722 40.88C96.7218 40.88 93.1619 40.0492 90.0203 38.4086L89.0945 40.1814C92.5529 41.9875 96.4364 42.88 100.722 42.88V40.88ZM90.0203 38.4086C86.8733 36.7652 84.4258 34.5043 82.6544 31.6215L80.9504 32.6685C82.9191 35.8724 85.6415 38.3782 89.0945 40.1814L90.0203 38.4086ZM82.6572 31.626C80.8887 28.7132 79.9974 25.43 79.9974 21.75H77.9974C77.9974 25.77 78.9761 29.4168 80.9476 32.664L82.6572 31.626ZM79.9974 21.75C79.9974 18.0699 80.8887 14.8071 82.6544 11.9335L80.9504 10.8865C78.9761 14.0996 77.9974 17.7301 77.9974 21.75H79.9974ZM82.6572 11.929C84.4293 9.01025 86.8764 6.73324 90.0203 5.09141L89.0945 3.31859C85.6385 5.12342 82.9156 7.64975 80.9476 10.891L82.6572 11.929ZM90.0203 5.09141C93.1619 3.45081 96.7218 2.62 100.722 2.62V0.619999C96.4364 0.619999 92.5529 1.51252 89.0945 3.31859L90.0203 5.09141ZM100.722 2.62C104.723 2.62 108.283 3.45081 111.425 5.09141L112.35 3.31859C108.892 1.51252 105.008 0.619999 100.722 0.619999V2.62ZM111.425 5.09141C114.568 6.73324 117.016 9.01025 118.788 11.929L120.497 10.891C118.529 7.64975 115.806 5.12342 112.35 3.31859L111.425 5.09141ZM118.79 11.9335C120.556 14.8071 121.447 18.0699 121.447 21.75H123.447C123.447 17.7301 122.469 14.0996 120.494 10.8865L118.79 11.9335ZM121.447 21.75C121.447 25.43 120.556 28.7132 118.788 31.626L120.497 32.664C122.469 29.4168 123.447 25.77 123.447 21.75H121.447ZM118.79 31.6215C117.019 34.5043 114.572 36.7652 111.425 38.4086L112.35 40.1814C115.803 38.3782 118.526 35.8724 120.494 32.6685L118.79 31.6215ZM111.425 38.4086C108.283 40.0492 104.723 40.88 100.722 40.88V42.88C105.008 42.88 108.892 41.9875 112.35 40.1814L111.425 38.4086ZM100.722 32.375C102.502 32.375 104.131 31.948 105.582 31.0775L104.553 29.3625C103.437 30.032 102.169 30.375 100.722 30.375V32.375ZM105.589 31.0733C107.068 30.1696 108.233 28.917 109.083 27.3391L107.322 26.3909C106.632 27.673 105.707 28.6571 104.546 29.3667L105.589 31.0733ZM109.088 27.3298C109.945 25.6969 110.357 23.8272 110.357 21.75H108.357C108.357 23.5594 108 25.0998 107.317 26.4002L109.088 27.3298ZM110.357 21.75C110.357 19.6736 109.945 17.8177 109.083 16.2159L107.322 17.1641C107.999 18.4223 108.357 19.9398 108.357 21.75H110.357ZM109.088 16.2252C108.238 14.6069 107.067 13.3437 105.571 12.4712L104.564 14.1988C105.708 14.8663 106.627 15.8398 107.317 17.1548L109.088 16.2252ZM105.6 12.4884C104.146 11.575 102.511 11.125 100.722 11.125V13.125C102.16 13.125 103.422 13.4817 104.535 14.1816L105.6 12.4884ZM100.722 11.125C98.9334 11.125 97.2849 11.5749 95.801 12.4817L96.8439 14.1883C98 13.4818 99.2848 13.125 100.722 13.125V11.125ZM95.8079 12.4775C94.3508 13.3518 93.2029 14.6139 92.357 16.2252L94.1278 17.1548C94.8219 15.8327 95.7274 14.8582 96.8369 14.1925L95.8079 12.4775ZM92.362 16.2159C91.4995 17.8177 91.0874 19.6736 91.0874 21.75H93.0874C93.0874 19.9398 93.4454 18.4223 94.1229 17.1641L92.362 16.2159ZM91.0874 21.75C91.0874 23.8272 91.4997 25.6969 92.357 27.3298L94.1278 26.4002C93.4451 25.0998 93.0874 23.5594 93.0874 21.75H91.0874ZM92.362 27.3391C93.2079 28.9101 94.3501 30.1614 95.7903 31.0666L96.8546 29.3734C95.728 28.6652 94.817 27.6799 94.1229 26.3909L92.362 27.3391ZM95.8186 31.0838C97.3001 31.948 98.9423 32.375 100.722 32.375V30.375C99.2759 30.375 97.9847 30.032 96.8263 29.3562L95.8186 31.0838ZM144.608 2.5V1.5H143.608V2.5H144.608ZM177.993 2.5H178.993V1.5H177.993V2.5ZM177.993 12.29V13.29H178.993V12.29H177.993ZM157.368 12.29V11.29H156.368V12.29H157.368ZM157.368 16.745H156.368V17.745H157.368V16.745ZM177.333 19.77L176.704 20.5475L176.711 20.5526L176.717 20.5575L177.333 19.77ZM176.838 37.645L176.222 36.8573H176.222L176.838 37.645ZM144.608 41H143.608V42H144.608V41ZM166.993 31.1L166.393 30.3L166.383 30.3074L166.374 30.3151L166.993 31.1ZM157.368 25.765V24.765H156.368V25.765H157.368ZM157.368 31.925H156.368V32.925H157.368V31.925ZM144.608 3.5H177.993V1.5H144.608V3.5ZM176.993 2.5V12.29H178.993V2.5H176.993ZM177.993 11.29H157.368V13.29H177.993V11.29ZM156.368 12.29V16.745H158.368V12.29H156.368ZM157.368 17.745H166.553V15.745H157.368V17.745ZM166.553 17.745C171.12 17.745 174.455 18.7283 176.704 20.5475L177.962 18.9925C175.225 16.7783 171.373 15.745 166.553 15.745V17.745ZM176.717 20.5575C178.961 22.3135 180.128 24.8753 180.128 28.405H182.128C182.128 24.3814 180.766 21.1865 177.95 18.9825L176.717 20.5575ZM180.128 28.405C180.128 32.0492 178.818 34.8271 176.222 36.8573L177.454 38.4327C180.578 35.9896 182.128 32.6074 182.128 28.405H180.128ZM176.222 36.8573C173.597 38.9104 169.865 40 164.903 40V42C170.135 42 174.36 40.8529 177.454 38.4327L176.222 36.8573ZM164.903 40H144.608V42H164.903V40ZM145.608 41V2.5H143.608V41H145.608ZM164.023 32.925C165.434 32.925 166.676 32.6244 167.613 31.8849L166.374 30.3151C165.917 30.6756 165.179 30.925 164.023 30.925V32.925ZM167.593 31.9C168.611 31.1366 169.093 30.0331 169.093 28.735H167.093C167.093 29.4903 166.842 29.9634 166.393 30.3L167.593 31.9ZM169.093 28.735C169.093 27.4906 168.65 26.4182 167.665 25.6997C166.739 25.024 165.472 24.765 164.023 24.765V26.765C165.288 26.765 166.056 27.001 166.486 27.3153C166.858 27.5868 167.093 27.9994 167.093 28.735H169.093ZM164.023 24.765H157.368V26.765H164.023V24.765ZM156.368 25.765V31.925H158.368V25.765H156.368ZM157.368 32.925H164.023V30.925H157.368V32.925ZM218.1 31.21H219.1V30.21H218.1V31.21ZM218.1 41V42H219.1V41H218.1ZM186.09 41H185.09V42H186.09V41ZM186.09 2.5V1.5H185.09V2.5H186.09ZM217.385 2.5H218.385V1.5H217.385V2.5ZM217.385 12.29V13.29H218.385V12.29H217.385ZM198.85 12.29V11.29H197.85V12.29H198.85ZM198.85 16.8H197.85V17.8H198.85V16.8ZM215.13 16.8H216.13V15.8H215.13V16.8ZM215.13 26.15V27.15H216.13V26.15H215.13ZM198.85 26.15V25.15H197.85V26.15H198.85ZM198.85 31.21H197.85V32.21H198.85V31.21ZM217.1 31.21V41H219.1V31.21H217.1ZM218.1 40H186.09V42H218.1V40ZM187.09 41V2.5H185.09V41H187.09ZM186.09 3.5H217.385V1.5H186.09V3.5ZM216.385 2.5V12.29H218.385V2.5H216.385ZM217.385 11.29H198.85V13.29H217.385V11.29ZM197.85 12.29V16.8H199.85V12.29H197.85ZM198.85 17.8H215.13V15.8H198.85V17.8ZM214.13 16.8V26.15H216.13V16.8H214.13ZM215.13 25.15H198.85V27.15H215.13V25.15ZM197.85 26.15V31.21H199.85V26.15H197.85ZM198.85 32.21H218.1V30.21H198.85V32.21ZM249.66 20.98L249.188 20.0982L247.318 21.0989L249.28 21.905L249.66 20.98ZM254.445 24.665L253.628 25.241L253.632 25.2471L253.636 25.2532L254.445 24.665ZM253.62 36.49L252.898 35.7978L252.898 35.7981L253.62 36.49ZM246.745 40.56L247.05 41.5123L247.058 41.5099L246.745 40.56ZM221.17 38.58L220.249 38.1902L219.865 39.0967L220.766 39.4946L221.17 38.58ZM224.965 29.615L225.343 28.6892L224.429 28.3161L224.044 29.2252L224.965 29.615ZM230.575 31.32L230.372 32.2991L230.381 32.301L230.39 32.3027L230.575 31.32ZM241.135 30.99L240.729 30.0761L240.719 30.0805L241.135 30.99ZM228.925 26.095H227.925V27.095H228.925V26.095ZM228.925 16.745V15.745H227.925V16.745H228.925ZM240.695 16.14L240.129 15.316L240.116 15.3246L240.104 15.3336L240.695 16.14ZM240.035 12.235L239.575 13.1228L239.581 13.1261L239.588 13.1294L240.035 12.235ZM231.07 12.125L230.832 11.1537V11.1537L231.07 12.125ZM225.955 13.995L225.025 14.3618L225.425 15.3779L226.402 14.8894L225.955 13.995ZM222.16 4.37L221.745 3.46044L220.882 3.85455L221.23 4.7368L222.16 4.37ZM245.26 2.83L244.951 3.78113L244.955 3.78228L245.26 2.83ZM252.08 6.845L251.358 7.5369L251.365 7.54458L251.373 7.5521L252.08 6.845ZM253.345 17.625L254.191 18.159L253.345 17.625ZM249.28 21.905C251.18 22.6853 252.614 23.8021 253.628 25.241L255.263 24.089C254.003 22.3012 252.247 20.9613 250.04 20.055L249.28 21.905ZM253.636 25.2532C254.682 26.6903 255.205 28.3164 255.205 30.165H257.205C257.205 27.907 256.555 25.8664 255.254 24.0768L253.636 25.2532ZM255.205 30.165C255.205 32.3189 254.449 34.1814 252.898 35.7978L254.342 37.1822C256.238 35.2053 257.205 32.8511 257.205 30.165H255.205ZM252.898 35.7981C251.35 37.4139 249.212 38.6954 246.432 39.6101L247.058 41.5099C250.072 40.518 252.517 39.0861 254.342 37.1819L252.898 35.7981ZM246.44 39.6077C243.694 40.4879 240.609 40.935 237.175 40.935V42.935C240.781 42.935 244.076 42.4655 247.05 41.5123L246.44 39.6077ZM237.175 40.935C231.702 40.935 226.505 39.8449 221.574 37.6654L220.766 39.4946C225.955 41.7884 231.428 42.935 237.175 42.935V40.935ZM222.091 38.9698L225.886 30.0048L224.044 29.2252L220.249 38.1902L222.091 38.9698ZM224.587 30.5408C226.442 31.2978 228.37 31.8837 230.372 32.2991L230.778 30.3409C228.893 29.9496 227.082 29.3989 225.343 28.6892L224.587 30.5408ZM230.39 32.3027C232.385 32.6792 234.281 32.87 236.075 32.87V30.87C234.422 30.87 232.651 30.6941 230.76 30.3373L230.39 32.3027ZM236.075 32.87C238.245 32.87 240.09 32.5674 241.551 31.8995L240.719 30.0805C239.614 30.5859 238.085 30.87 236.075 30.87V32.87ZM241.541 31.9038C242.305 31.5642 242.954 31.1121 243.414 30.5118C243.884 29.8978 244.115 29.182 244.115 28.405H242.115C242.115 28.7646 242.016 29.048 241.826 29.2957C241.626 29.5571 241.285 29.8291 240.729 30.0762L241.541 31.9038ZM244.115 28.405C244.115 27.303 243.631 26.3934 242.686 25.8183C241.822 25.2922 240.654 25.095 239.32 25.095V27.095C240.516 27.095 241.246 27.2828 241.646 27.5267C241.967 27.7216 242.115 27.967 242.115 28.405H244.115ZM239.32 25.095H228.925V27.095H239.32V25.095ZM229.925 26.095V16.745H227.925V26.095H229.925ZM228.925 17.745H238.22V15.745H228.925V17.745ZM238.22 17.745C239.413 17.745 240.488 17.5316 241.286 16.9464L240.104 15.3336C239.802 15.5551 239.227 15.745 238.22 15.745V17.745ZM241.262 16.964C242.129 16.3676 242.575 15.4858 242.575 14.435H240.575C240.575 14.8509 240.434 15.1058 240.129 15.316L241.262 16.964ZM242.575 14.435C242.575 13.7673 242.391 13.1425 242.009 12.5965C241.634 12.0605 241.103 11.6512 240.482 11.3406L239.588 13.1294C239.993 13.3322 240.233 13.5462 240.371 13.7435C240.502 13.9309 240.575 14.1494 240.575 14.435H242.575ZM240.495 11.3472C239.311 10.7333 237.814 10.465 236.075 10.465V12.465C237.636 12.465 238.779 12.7101 239.575 13.1228L240.495 11.3472ZM236.075 10.465C234.441 10.465 232.692 10.6983 230.832 11.1537L231.308 13.0963C233.042 12.6717 234.629 12.465 236.075 12.465V10.465ZM230.832 11.1537C228.965 11.611 227.19 12.2597 225.508 13.1006L226.402 14.8894C227.947 14.117 229.582 13.519 231.308 13.0963L230.832 11.1537ZM226.885 13.6282L223.09 4.0032L221.23 4.7368L225.025 14.3618L226.885 13.6282ZM222.576 5.27956C226.69 3.39972 231.167 2.455 236.02 2.455V0.454998C230.9 0.454998 226.137 1.45361 221.745 3.46044L222.576 5.27956ZM236.02 2.455C239.265 2.455 242.239 2.90058 244.951 3.78112L245.569 1.87887C242.634 0.926084 239.449 0.454998 236.02 0.454998V2.455ZM244.955 3.78228C247.693 4.65981 249.81 5.92181 251.358 7.5369L252.802 6.15309C250.977 4.24819 248.547 2.83353 245.565 1.87772L244.955 3.78228ZM251.373 7.5521C252.917 9.09597 253.665 10.8798 253.665 12.95H255.665C255.665 10.3269 254.69 8.04069 252.787 6.13789L251.373 7.5521ZM253.665 12.95C253.665 14.4934 253.274 15.865 252.5 17.091L254.191 18.159C255.176 16.5983 255.665 14.8533 255.665 12.95H253.665ZM252.5 17.091C251.72 18.3257 250.626 19.3294 249.188 20.0982L250.132 21.8618C251.848 20.944 253.21 19.7109 254.191 18.159L252.5 17.091ZM269.733 39.295L270.196 38.4086L269.733 39.295ZM261.978 32.145L261.123 32.664L261.126 32.6685L261.978 32.145ZM261.978 11.41L262.83 11.9335L262.833 11.929L261.978 11.41ZM292.063 4.205L292.526 3.31859L292.063 4.205ZM299.818 11.41L298.963 11.929L298.966 11.9335L299.818 11.41ZM299.818 32.145L300.67 32.6685L300.673 32.664L299.818 32.145ZM292.063 39.295L292.526 40.1814L292.063 39.295ZM285.243 30.22L285.758 31.0775L285.765 31.0733L285.243 30.22ZM288.378 26.865L289.259 27.3391L289.264 27.3298L288.378 26.865ZM288.378 16.69L287.493 17.1549L287.498 17.1641L288.378 16.69ZM285.243 13.335L284.711 14.1816L284.725 14.1904L284.739 14.1988L285.243 13.335ZM276.498 13.335L277.013 14.1925L277.02 14.1883L276.498 13.335ZM273.418 16.69L274.299 17.1641L274.304 17.1548L273.418 16.69ZM273.418 26.865L272.533 27.3299L272.538 27.3391L273.418 26.865ZM276.498 30.22L275.966 31.0666L275.98 31.0754L275.994 31.0838L276.498 30.22ZM280.898 40.88C276.898 40.88 273.338 40.0492 270.196 38.4086L269.27 40.1814C272.729 41.9875 276.612 42.88 280.898 42.88V40.88ZM270.196 38.4086C267.049 36.7652 264.602 34.5043 262.83 31.6215L261.126 32.6685C263.095 35.8724 265.817 38.3782 269.27 40.1814L270.196 38.4086ZM262.833 31.626C261.065 28.7132 260.173 25.43 260.173 21.75H258.173C258.173 25.77 259.152 29.4168 261.123 32.664L262.833 31.626ZM260.173 21.75C260.173 18.0699 261.065 14.8071 262.83 11.9335L261.126 10.8865C259.152 14.0996 258.173 17.7301 258.173 21.75H260.173ZM262.833 11.929C264.605 9.01025 267.052 6.73324 270.196 5.09141L269.27 3.31859C265.814 5.12342 263.091 7.64975 261.123 10.891L262.833 11.929ZM270.196 5.09141C273.338 3.45081 276.898 2.62 280.898 2.62V0.619999C276.612 0.619999 272.729 1.51252 269.27 3.31859L270.196 5.09141ZM280.898 2.62C284.899 2.62 288.459 3.45081 291.6 5.09141L292.526 3.31859C289.068 1.51252 285.184 0.619999 280.898 0.619999V2.62ZM291.6 5.09141C294.744 6.73324 297.191 9.01025 298.963 11.929L300.673 10.891C298.705 7.64975 295.982 5.12342 292.526 3.31859L291.6 5.09141ZM298.966 11.9335C300.732 14.8071 301.623 18.0699 301.623 21.75H303.623C303.623 17.7301 302.645 14.0996 300.67 10.8865L298.966 11.9335ZM301.623 21.75C301.623 25.43 300.732 28.7132 298.963 31.626L300.673 32.664C302.645 29.4168 303.623 25.77 303.623 21.75H301.623ZM298.966 31.6215C297.195 34.5043 294.747 36.7652 291.6 38.4086L292.526 40.1814C295.979 38.3782 298.702 35.8724 300.67 32.6685L298.966 31.6215ZM291.6 38.4086C288.459 40.0492 284.899 40.88 280.898 40.88V42.88C285.184 42.88 289.068 41.9875 292.526 40.1814L291.6 38.4086ZM280.898 32.375C282.678 32.375 284.307 31.948 285.758 31.0775L284.729 29.3625C283.613 30.032 282.345 30.375 280.898 30.375V32.375ZM285.765 31.0733C287.243 30.1696 288.409 28.917 289.259 27.3391L287.498 26.3909C286.807 27.673 285.883 28.6571 284.722 29.3667L285.765 31.0733ZM289.264 27.3298C290.121 25.6969 290.533 23.8272 290.533 21.75H288.533C288.533 23.5594 288.176 25.0998 287.493 26.4002L289.264 27.3298ZM290.533 21.75C290.533 19.6736 290.121 17.8177 289.259 16.2159L287.498 17.1641C288.175 18.4223 288.533 19.9398 288.533 21.75H290.533ZM289.264 16.2252C288.414 14.6069 287.243 13.3437 285.747 12.4712L284.739 14.1988C285.884 14.8663 286.802 15.8398 287.493 17.1548L289.264 16.2252ZM285.775 12.4884C284.322 11.575 282.687 11.125 280.898 11.125V13.125C282.336 13.125 283.598 13.4817 284.711 14.1816L285.775 12.4884ZM280.898 11.125C279.109 11.125 277.461 11.5749 275.977 12.4817L277.02 14.1883C278.176 13.4818 279.461 13.125 280.898 13.125V11.125ZM275.984 12.4775C274.527 13.3518 273.379 14.6139 272.533 16.2252L274.304 17.1548C274.998 15.8327 275.903 14.8582 277.013 14.1925L275.984 12.4775ZM272.538 16.2159C271.675 17.8177 271.263 19.6736 271.263 21.75H273.263C273.263 19.9398 273.621 18.4223 274.299 17.1641L272.538 16.2159ZM271.263 21.75C271.263 23.8272 271.676 25.6969 272.533 27.3298L274.304 26.4002C273.621 25.0998 273.263 23.5594 273.263 21.75H271.263ZM272.538 27.3391C273.384 28.9101 274.526 30.1614 275.966 31.0666L277.03 29.3734C275.904 28.6652 274.993 27.6799 274.299 26.3909L272.538 27.3391ZM275.994 31.0838C277.476 31.948 279.118 32.375 280.898 32.375V30.375C279.452 30.375 278.161 30.032 277.002 29.3562L275.994 31.0838ZM345.03 2.5H346.03V1.5H345.03V2.5ZM345.03 41V42H346.03V41H345.03ZM332.27 41H331.27V42H332.27V41ZM332.27 12.565H333.27V11.565H332.27V12.565ZM320.555 12.565V11.565H319.555V12.565H320.555ZM320.555 41V42H321.555V41H320.555ZM307.795 41H306.795V42H307.795V41ZM307.795 2.5V1.5H306.795V2.5H307.795ZM344.03 2.5V41H346.03V2.5H344.03ZM345.03 40H332.27V42H345.03V40ZM333.27 41V12.565H331.27V41H333.27ZM332.27 11.565H320.555V13.565H332.27V11.565ZM319.555 12.565V41H321.555V12.565H319.555ZM320.555 40H307.795V42H320.555V40ZM308.795 41V2.5H306.795V41H308.795ZM307.795 3.5H345.03V1.5H307.795V3.5ZM379.508 34.29L380.441 33.9305L380.194 33.29H379.508V34.29ZM364.878 34.29V33.29H364.191L363.945 33.9305L364.878 34.29ZM362.293 41V42H362.979L363.226 41.3595L362.293 41ZM349.093 41L348.176 40.5995L347.564 42H349.093V41ZM365.923 2.5V1.5H365.268L365.006 2.09945L365.923 2.5ZM378.683 2.5L379.599 2.09945L379.337 1.5H378.683V2.5ZM395.513 41V42H397.041L396.429 40.5995L395.513 41ZM382.093 41L381.16 41.3595L381.406 42H382.093V41ZM375.933 24.94V25.94H377.391L376.866 24.5796L375.933 24.94ZM372.193 15.26L373.126 14.8996L372.193 12.4853L371.26 14.8996L372.193 15.26ZM368.453 24.94L367.52 24.5796L366.994 25.94H368.453V24.94ZM379.508 33.29H364.878V35.29H379.508V33.29ZM363.945 33.9305L361.36 40.6405L363.226 41.3595L365.811 34.6495L363.945 33.9305ZM362.293 40H349.093V42H362.293V40ZM350.009 41.4005L366.839 2.90054L365.006 2.09945L348.176 40.5995L350.009 41.4005ZM365.923 3.5H378.683V1.5H365.923V3.5ZM377.766 2.90054L394.596 41.4005L396.429 40.5995L379.599 2.09945L377.766 2.90054ZM395.513 40H382.093V42H395.513V40ZM383.026 40.6405L380.441 33.9305L378.575 34.6495L381.16 41.3595L383.026 40.6405ZM376.866 24.5796L373.126 14.8996L371.26 15.6204L375 25.3004L376.866 24.5796ZM371.26 14.8996L367.52 24.5796L369.386 25.3004L373.126 15.6204L371.26 14.8996ZM368.453 25.94H375.933V23.94H368.453V25.94ZM407.389 39.35L406.922 40.2343L406.93 40.2384L407.389 39.35ZM399.689 32.2L398.83 32.7115L398.837 32.7235L399.689 32.2ZM399.689 11.355L398.834 10.836L398.833 10.839L399.689 11.355ZM407.389 4.205L407.848 5.09339L407.856 5.08927L407.389 4.205ZM428.399 3.6L427.989 4.51192L428.399 3.6ZM435.659 9.32L436.325 10.066L437.017 9.44881L436.453 8.71255L435.659 9.32ZM427.464 16.635L426.68 17.2562L427.339 18.0871L428.13 17.381L427.464 16.635ZM412.504 14.765L413.227 15.4566L413.234 15.4489L412.504 14.765ZM412.504 28.79L411.775 29.474L411.782 29.4816L412.504 28.79ZM427.464 26.865L428.13 26.119L427.339 25.4129L426.68 26.2438L427.464 26.865ZM435.659 34.18L436.453 34.7874L437.017 34.0512L436.325 33.434L435.659 34.18ZM428.399 39.9L427.989 38.9881L428.399 39.9ZM418.389 40.88C414.461 40.88 410.955 40.0673 407.848 38.4616L406.93 40.2384C410.35 42.006 414.177 42.88 418.389 42.88V40.88ZM407.856 38.4657C404.746 36.8231 402.314 34.562 400.541 31.6765L398.837 32.7235C400.804 35.9246 403.506 38.4302 406.922 40.2343L407.856 38.4657ZM400.548 31.6885C398.815 28.7762 397.939 25.4723 397.939 21.75H395.939C395.939 25.801 396.897 29.4638 398.83 32.7115L400.548 31.6885ZM397.939 21.75C397.939 18.0275 398.815 14.7441 400.546 11.871L398.833 10.839C396.897 14.0525 395.939 17.6991 395.939 21.75H397.939ZM400.544 11.874C402.317 8.95433 404.745 6.69734 407.848 5.09336L406.93 3.31664C403.507 5.08599 400.802 7.59567 398.834 10.836L400.544 11.874ZM407.856 5.08927C410.961 3.44952 414.465 2.62 418.389 2.62V0.619999C414.173 0.619999 410.344 1.51381 406.922 3.32073L407.856 5.08927ZM418.389 2.62C422.01 2.62 425.204 3.25867 427.989 4.51192L428.81 2.68808C425.728 1.30132 422.248 0.619999 418.389 0.619999V2.62ZM427.989 4.51192C430.775 5.76561 433.061 7.56924 434.865 9.92745L436.453 8.71255C434.444 6.08408 431.89 4.07439 428.81 2.68808L427.989 4.51192ZM434.993 8.57397L426.798 15.889L428.13 17.381L436.325 10.066L434.993 8.57397ZM428.248 16.0138C425.715 12.8183 422.64 11.125 419.049 11.125V13.125C421.911 13.125 424.447 14.4383 426.68 17.2562L428.248 16.0138ZM419.049 11.125C416.097 11.125 413.638 12.0933 411.775 14.0811L413.234 15.4489C414.67 13.9167 416.574 13.125 419.049 13.125V11.125ZM411.782 14.0734C409.915 16.0235 409.029 18.6214 409.029 21.75H411.029C411.029 19.012 411.794 16.9531 413.226 15.4566L411.782 14.0734ZM409.029 21.75C409.029 24.8795 409.915 27.4903 411.775 29.4739L413.234 28.1061C411.793 26.5697 411.029 24.4872 411.029 21.75H409.029ZM411.782 29.4816C413.647 31.4297 416.104 32.375 419.049 32.375V30.375C416.568 30.375 414.661 29.597 413.226 28.0984L411.782 29.4816ZM419.049 32.375C422.64 32.375 425.715 30.6817 428.248 27.4862L426.68 26.2438C424.447 29.0617 421.911 30.375 419.049 30.375V32.375ZM426.798 27.611L434.993 34.926L436.325 33.434L428.13 26.119L426.798 27.611ZM434.865 33.5725C433.061 35.9308 430.775 37.7344 427.989 38.9881L428.81 40.8119C431.89 39.4256 434.444 37.4159 436.453 34.7874L434.865 33.5725ZM427.989 38.9881C425.204 40.2413 422.01 40.88 418.389 40.88V42.88C422.248 42.88 425.728 42.1987 428.81 40.8119L427.989 38.9881ZM478.031 2.5H479.031V1.5H478.031V2.5ZM478.031 41V42H479.031V41H478.031ZM465.051 41H464.051V42H465.051V41ZM465.051 26.81H466.051V25.81H465.051V26.81ZM453.061 26.81V25.81H452.061V26.81H453.061ZM453.061 41V42H454.061V41H453.061ZM440.081 41H439.081V42H440.081V41ZM440.081 2.5V1.5H439.081V2.5H440.081ZM453.061 2.5H454.061V1.5H453.061V2.5ZM453.061 16.14H452.061V17.14H453.061V16.14ZM465.051 16.14V17.14H466.051V16.14H465.051ZM465.051 2.5V1.5H464.051V2.5H465.051ZM477.031 2.5V41H479.031V2.5H477.031ZM478.031 40H465.051V42H478.031V40ZM466.051 41V26.81H464.051V41H466.051ZM465.051 25.81H453.061V27.81H465.051V25.81ZM452.061 26.81V41H454.061V26.81H452.061ZM453.061 40H440.081V42H453.061V40ZM441.081 41V2.5H439.081V41H441.081ZM440.081 3.5H453.061V1.5H440.081V3.5ZM452.061 2.5V16.14H454.061V2.5H452.061ZM453.061 17.14H465.051V15.14H453.061V17.14ZM466.051 16.14V2.5H464.051V16.14H466.051ZM465.051 3.5H478.031V1.5H465.051V3.5ZM493.791 39.295L494.254 38.4086L493.791 39.295ZM486.036 32.145L485.181 32.664L485.184 32.6685L486.036 32.145ZM486.036 11.41L486.888 11.9335L486.891 11.929L486.036 11.41ZM516.121 4.205L516.584 3.31859L516.121 4.205ZM523.876 11.41L523.021 11.929L523.024 11.9335L523.876 11.41ZM523.876 32.145L524.728 32.6685L524.731 32.664L523.876 32.145ZM516.121 39.295L516.584 40.1814L516.121 39.295ZM509.301 30.22L509.815 31.0775L509.822 31.0733L509.301 30.22ZM512.436 26.865L513.316 27.3391L513.321 27.3298L512.436 26.865ZM512.436 16.69L511.55 17.1549L511.555 17.1641L512.436 16.69ZM509.301 13.335L508.769 14.1816L508.783 14.1904L508.797 14.1988L509.301 13.335ZM500.556 13.335L501.07 14.1925L501.077 14.1883L500.556 13.335ZM497.476 16.69L498.356 17.1641L498.361 17.1548L497.476 16.69ZM497.476 26.865L496.59 27.3299L496.595 27.3391L497.476 26.865ZM500.556 30.22L500.024 31.0666L500.038 31.0754L500.052 31.0838L500.556 30.22ZM504.956 40.88C500.955 40.88 497.395 40.0492 494.254 38.4086L493.328 40.1814C496.786 41.9875 500.67 42.88 504.956 42.88V40.88ZM494.254 38.4086C491.107 36.7652 488.659 34.5043 486.888 31.6215L485.184 32.6685C487.152 35.8724 489.875 38.3782 493.328 40.1814L494.254 38.4086ZM486.891 31.626C485.122 28.7132 484.231 25.43 484.231 21.75H482.231C482.231 25.77 483.21 29.4168 485.181 32.664L486.891 31.626ZM484.231 21.75C484.231 18.0699 485.122 14.8071 486.888 11.9335L485.184 10.8865C483.21 14.0996 482.231 17.7301 482.231 21.75H484.231ZM486.891 11.929C488.663 9.01025 491.11 6.73324 494.254 5.09141L493.328 3.31859C489.872 5.12342 487.149 7.64975 485.181 10.891L486.891 11.929ZM494.254 5.09141C497.395 3.45081 500.955 2.62 504.956 2.62V0.619999C500.67 0.619999 496.786 1.51252 493.328 3.31859L494.254 5.09141ZM504.956 2.62C508.956 2.62 512.516 3.45081 515.658 5.09141L516.584 3.31859C513.125 1.51252 509.242 0.619999 504.956 0.619999V2.62ZM515.658 5.09141C518.802 6.73324 521.249 9.01025 523.021 11.929L524.731 10.891C522.763 7.64975 520.04 5.12342 516.584 3.31859L515.658 5.09141ZM523.024 11.9335C524.789 14.8071 525.681 18.0699 525.681 21.75H527.681C527.681 17.7301 526.702 14.0996 524.728 10.8865L523.024 11.9335ZM525.681 21.75C525.681 25.43 524.789 28.7132 523.021 31.626L524.731 32.664C526.702 29.4168 527.681 25.77 527.681 21.75H525.681ZM523.024 31.6215C521.252 34.5043 518.805 36.7652 515.658 38.4086L516.584 40.1814C520.037 38.3782 522.759 35.8724 524.728 32.6685L523.024 31.6215ZM515.658 38.4086C512.516 40.0492 508.956 40.88 504.956 40.88V42.88C509.242 42.88 513.125 41.9875 516.584 40.1814L515.658 38.4086ZM504.956 32.375C506.736 32.375 508.364 31.948 509.815 31.0775L508.786 29.3625C507.671 30.032 506.403 30.375 504.956 30.375V32.375ZM509.822 31.0733C511.301 30.1696 512.467 28.917 513.316 27.3391L511.555 26.3909C510.865 27.673 509.941 28.6571 508.779 29.3667L509.822 31.0733ZM513.321 27.3298C514.179 25.6969 514.591 23.8272 514.591 21.75H512.591C512.591 23.5594 512.233 25.0998 511.55 26.4002L513.321 27.3298ZM514.591 21.75C514.591 19.6736 514.179 17.8177 513.316 16.2159L511.555 17.1641C512.233 18.4223 512.591 19.9398 512.591 21.75H514.591ZM513.321 16.2252C512.472 14.6069 511.3 13.3437 509.805 12.4712L508.797 14.1988C509.941 14.8663 510.86 15.8398 511.55 17.1548L513.321 16.2252ZM509.833 12.4884C508.38 11.575 506.745 11.125 504.956 11.125V13.125C506.394 13.125 507.655 13.4817 508.769 14.1816L509.833 12.4884ZM504.956 11.125C503.167 11.125 501.518 11.5749 500.034 12.4817L501.077 14.1883C502.233 13.4818 503.518 13.125 504.956 13.125V11.125ZM500.041 12.4775C498.584 13.3518 497.436 14.6139 496.59 16.2252L498.361 17.1548C499.055 15.8327 499.961 14.8582 501.07 14.1925L500.041 12.4775ZM496.595 16.2159C495.733 17.8177 495.321 19.6736 495.321 21.75H497.321C497.321 19.9398 497.679 18.4223 498.356 17.1641L496.595 16.2159ZM495.321 21.75C495.321 23.8272 495.733 25.6969 496.59 27.3298L498.361 26.4002C497.679 25.0998 497.321 23.5594 497.321 21.75H495.321ZM496.595 27.3391C497.441 28.9101 498.584 30.1614 500.024 31.0666L501.088 29.3734C499.961 28.6652 499.05 27.6799 498.356 26.3909L496.595 27.3391ZM500.052 31.0838C501.534 31.948 503.176 32.375 504.956 32.375V30.375C503.509 30.375 502.218 30.032 501.06 29.3562L500.052 31.0838Z" fill="#F9ED4F"/>
</svg>
