<svg width="152" height="32" viewBox="0 0 152 32" fill="none" xmlns="http://www.w3.org/2000/svg">
<path d="M20.0228 15.9219C20.0042 14.0438 21.545 13.143 21.6139 13.0975C20.748 11.8236 19.3989 11.6488 18.9187 11.629C17.7715 11.5117 16.6791 12.3088 16.0972 12.3088C15.5164 12.3088 14.6172 11.6461 13.6659 11.663C12.4144 11.6817 11.2609 12.3953 10.6169 13.5225C9.31728 15.7909 10.2845 19.1526 11.5509 20.9937C12.17 21.8936 12.9084 22.9062 13.877 22.8691C14.8107 22.832 15.1629 22.2615 16.2915 22.2615C17.4202 22.2615 17.7371 22.8691 18.7246 22.8501C19.7287 22.8317 20.3652 21.933 20.9792 21.0295C21.69 19.9841 21.9826 18.9718 22 18.9206C21.9781 18.9103 20.0429 18.1644 20.0228 15.9219Z" fill="white"/>
<path d="M18.1674 10.4102C18.6811 9.78277 19.0292 8.91091 18.9345 8.04297C18.1932 8.07311 17.2958 8.53872 16.7635 9.16556C16.2867 9.72189 15.8697 10.6076 15.9814 11.4599C16.8084 11.5244 17.6519 11.0365 18.1674 10.4102Z" fill="white"/>
<rect opacity="0.2" x="1" y="1" width="150" height="30.184" rx="6" stroke="white"/>
<path d="M30.0564 13.7754V19.5634H30.0597C30.1 20.0523 30.547 20.4408 31.0882 20.4408H36.8728C37.4139 20.4408 37.8609 20.0523 37.9013 19.5634H37.9046V13.7754H30.0564Z" fill="white"/>
<path d="M29.757 18.0148C29.757 18.5857 29.3617 19.0528 28.8786 19.0528C28.3954 19.0528 28 18.5857 28 18.0148V14.6172C28 14.0462 28.3953 13.5791 28.8786 13.5791C29.3617 13.5791 29.757 14.0462 29.757 14.6172V18.0148Z" fill="white"/>
<path d="M33.4186 22.2305C33.4186 22.8015 33.0232 23.2687 32.5401 23.2687C32.0569 23.2687 31.6616 22.8015 31.6616 22.2305V18.833C31.6616 18.2621 32.0569 17.7949 32.5401 17.7949C33.0232 17.7949 33.4186 18.2621 33.4186 18.833V22.2305Z" fill="white"/>
<path d="M36.3472 22.2305C36.3472 22.8015 35.9518 23.2687 35.4686 23.2687C34.9855 23.2687 34.5901 22.8015 34.5901 22.2305V18.833C34.5901 18.2621 34.9855 17.7949 35.4686 17.7949C35.9518 17.7949 36.3472 18.2621 36.3472 18.833V22.2305Z" fill="white"/>
<path d="M40.0002 18.0148C40.0002 18.5857 39.6049 19.0528 39.1217 19.0528C38.6386 19.0528 38.2432 18.5857 38.2432 18.0148V14.6172C38.2432 14.0462 38.6386 13.5791 39.1217 13.5791C39.6049 13.5791 40.0002 14.0462 40.0002 14.6172V18.0148Z" fill="white"/>
<path d="M35.9208 10.2943L36.4845 9.27668C36.5305 9.19355 36.517 9.09681 36.4544 9.06168C36.3917 9.02659 36.3028 9.06589 36.2568 9.14899L35.68 10.1902C35.1658 9.98664 34.5894 9.87253 33.9805 9.87253C33.3671 9.87253 32.7866 9.98838 32.2694 10.1949L31.6901 9.14899C31.644 9.06586 31.5551 9.02659 31.4925 9.06168C31.4299 9.09678 31.4164 9.19355 31.4624 9.27668L32.0289 10.2994C30.8503 10.8563 30.0564 11.9021 30.0564 13.1005C30.0564 13.2223 30.0649 13.3424 30.0808 13.4606H37.8802C37.8961 13.3424 37.9046 13.2223 37.9046 13.1005C37.9046 11.8984 37.1056 10.8498 35.9208 10.2943ZM32.1997 12.0706C32.0101 12.0706 31.8565 11.916 31.8565 11.7253C31.8565 11.5346 32.0101 11.38 32.1997 11.38C32.3892 11.38 32.5429 11.5346 32.5429 11.7253C32.5429 11.916 32.3892 12.0706 32.1997 12.0706ZM35.7808 12.0706C35.5912 12.0706 35.4376 11.916 35.4376 11.7253C35.4376 11.5346 35.5912 11.38 35.7808 11.38C35.9703 11.38 36.124 11.5346 36.124 11.7253C36.124 11.916 35.9703 12.0706 35.7808 12.0706Z" fill="white"/>
<path d="M57.0078 21.0303H55.5V10.8896H49.8906V21.0303H48.3906V9.65527H57.0078V21.0303ZM66.6562 16.8975C66.6562 18.1839 66.362 19.2204 65.7734 20.0068C65.1849 20.7933 64.388 21.1865 63.3828 21.1865C62.3568 21.1865 61.5495 20.861 60.9609 20.21V24.2803H59.5156V12.5771H60.8359L60.9062 13.5146C61.4948 12.7855 62.3125 12.4209 63.3594 12.4209C64.375 12.4209 65.1771 12.8037 65.7656 13.5693C66.3594 14.335 66.6562 15.4001 66.6562 16.7646V16.8975ZM65.2109 16.7334C65.2109 15.7803 65.0078 15.0277 64.6016 14.4756C64.1953 13.9235 63.638 13.6475 62.9297 13.6475C62.0547 13.6475 61.3984 14.0355 60.9609 14.8115V18.8506C61.3932 19.6214 62.0547 20.0068 62.9453 20.0068C63.638 20.0068 64.1875 19.7334 64.5938 19.1865C65.0052 18.6344 65.2109 17.8167 65.2109 16.7334ZM73.9688 12.5771H75.4141V21.0303H73.9688V14.8662L70.0703 21.0303H68.625V12.5771H70.0703V18.749L73.9688 12.5771ZM84.6641 12.5771V21.0303H83.2109V13.7725H80.3359L80.1641 16.9365C80.0703 18.3896 79.8255 19.4287 79.4297 20.0537C79.0391 20.6787 78.4167 21.0042 77.5625 21.0303H76.9844V19.7568L77.3984 19.7256C77.8672 19.6735 78.2031 19.4027 78.4062 18.9131C78.6094 18.4235 78.7396 17.5173 78.7969 16.1943L78.9531 12.5771H84.6641ZM86.6016 16.7256C86.6016 15.8975 86.763 15.1527 87.0859 14.4912C87.4141 13.8298 87.8672 13.3193 88.4453 12.96C89.0286 12.6006 89.6927 12.4209 90.4375 12.4209C91.5885 12.4209 92.5182 12.8193 93.2266 13.6162C93.9401 14.4131 94.2969 15.473 94.2969 16.7959V16.8975C94.2969 17.7204 94.138 18.46 93.8203 19.1162C93.5078 19.7673 93.0573 20.2751 92.4688 20.6396C91.8854 21.0042 91.2135 21.1865 90.4531 21.1865C89.3073 21.1865 88.3776 20.7881 87.6641 19.9912C86.9557 19.1943 86.6016 18.1396 86.6016 16.8271V16.7256ZM88.0547 16.8975C88.0547 17.835 88.2708 18.5876 88.7031 19.1553C89.1406 19.723 89.724 20.0068 90.4531 20.0068C91.1875 20.0068 91.7708 19.7204 92.2031 19.1475C92.6354 18.5693 92.8516 17.762 92.8516 16.7256C92.8516 15.7985 92.6302 15.0485 92.1875 14.4756C91.75 13.8975 91.1667 13.6084 90.4375 13.6084C89.724 13.6084 89.1484 13.8923 88.7109 14.46C88.2734 15.0277 88.0547 15.8402 88.0547 16.8975ZM102.68 17.3584H101.664V21.0303H100.219V17.3584H99.2031L96.8359 21.0303H95.0078L98.0312 16.6553L95.2969 12.5771H97.0469L99.2266 16.0771H100.219V12.5771H101.664V16.0771H102.648L104.844 12.5771H106.594L103.852 16.6631L106.875 21.0303H105.047L102.68 17.3584ZM111.539 21.1865C110.393 21.1865 109.461 20.8115 108.742 20.0615C108.023 19.3063 107.664 18.2985 107.664 17.0381V16.7725C107.664 15.9339 107.823 15.1865 108.141 14.5303C108.464 13.8688 108.911 13.3532 109.484 12.9834C110.062 12.6084 110.688 12.4209 111.359 12.4209C112.458 12.4209 113.312 12.7829 113.922 13.5068C114.531 14.2308 114.836 15.2673 114.836 16.6162V17.2178H109.109C109.13 18.0511 109.372 18.7256 109.836 19.2412C110.305 19.7516 110.898 20.0068 111.617 20.0068C112.128 20.0068 112.56 19.9027 112.914 19.6943C113.268 19.486 113.578 19.21 113.844 18.8662L114.727 19.5537C114.018 20.6423 112.956 21.1865 111.539 21.1865ZM111.359 13.6084C110.776 13.6084 110.286 13.8219 109.891 14.249C109.495 14.6709 109.25 15.2646 109.156 16.0303H113.391V15.9209C113.349 15.1865 113.151 14.6188 112.797 14.2178C112.443 13.8115 111.964 13.6084 111.359 13.6084ZM123.422 21.0303H121.977V17.4209H118.094V21.0303H116.641V12.5771H118.094V16.2412H121.977V12.5771H123.422V21.0303ZM131.219 12.5771H132.664V21.0303H131.219V14.8662L127.32 21.0303H125.875V12.5771H127.32V18.749L131.219 12.5771ZM141.445 12.5771V21.0303H139.992V17.7412H137.812L135.82 21.0303H134.258L136.383 17.5225C135.841 17.3245 135.424 17.0199 135.133 16.6084C134.846 16.1917 134.703 15.7074 134.703 15.1553C134.703 14.3844 134.992 13.7646 135.57 13.2959C136.148 12.8219 136.922 12.5824 137.891 12.5771H141.445ZM136.156 15.1709C136.156 15.5824 136.297 15.9157 136.578 16.1709C136.859 16.4209 137.232 16.5485 137.695 16.5537H139.992V13.749H137.914C137.378 13.749 136.951 13.8818 136.633 14.1475C136.315 14.4079 136.156 14.749 136.156 15.1709Z" fill="white"/>
</svg>
