<svg width="12" height="15" viewBox="0 0 12 15" fill="none" xmlns="http://www.w3.org/2000/svg">
<path d="M2.0564 4.77539V10.5634H2.05968C2.10002 11.0523 2.54699 11.4408 3.08818 11.4408H8.87281C9.41394 11.4408 9.86088 11.0523 9.9013 10.5634H9.90462V4.77539H2.0564Z" fill="#FFFFFF"/>
<path d="M1.75702 9.01477C1.75702 9.58567 1.36171 10.0528 0.878582 10.0528C0.395369 10.0528 0 9.58567 0 9.01477V5.61724C0 5.04622 0.39534 4.5791 0.878582 4.5791C1.36171 4.5791 1.75702 5.04622 1.75702 5.61724V9.01477Z" fill="#FFFFFF"/>
<path d="M5.41861 13.2305C5.41861 13.8015 5.02324 14.2687 4.54006 14.2687C4.05693 14.2687 3.66162 13.8015 3.66162 13.2305V9.83303C3.66162 9.26207 4.05693 8.79492 4.54006 8.79492C5.02324 8.79492 5.41861 9.26207 5.41861 9.83303V13.2305Z" fill="#FFFFFF"/>
<path d="M8.34719 13.2305C8.34719 13.8015 7.95182 14.2687 7.46864 14.2687C6.98546 14.2687 6.59009 13.8015 6.59009 13.2305V9.83303C6.59009 9.26207 6.98546 8.79492 7.46864 8.79492C7.95182 8.79492 8.34719 9.26207 8.34719 9.83303V13.2305Z" fill="#FFFFFF"/>
<path d="M12.0002 9.01477C12.0002 9.58567 11.6049 10.0528 11.1217 10.0528C10.6386 10.0528 10.2432 9.58567 10.2432 9.01477V5.61724C10.2432 5.04622 10.6386 4.5791 11.1217 4.5791C11.6049 4.5791 12.0002 5.04622 12.0002 5.61724V9.01477Z" fill="#FFFFFF"/>
<path d="M7.92077 1.29431L8.4845 0.27668C8.53048 0.193547 8.51696 0.0968106 8.45437 0.0616838C8.39173 0.026586 8.30276 0.0658897 8.25678 0.148993L7.68001 1.19021C7.16584 0.986642 6.58939 0.87253 5.98054 0.87253C5.36713 0.87253 4.78665 0.988382 4.26938 1.19491L3.69005 0.148993C3.64404 0.0658607 3.5551 0.026586 3.49254 0.0616838C3.4299 0.0967816 3.4164 0.193547 3.46242 0.27668L4.02889 1.29945C2.85033 1.85634 2.0564 2.90214 2.0564 4.10051C2.0564 4.22228 2.0649 4.34237 2.08079 4.4606H9.88017C9.89614 4.34237 9.90465 4.22231 9.90465 4.10051C9.90465 2.89837 9.10561 1.84985 7.92077 1.29431ZM4.19967 3.07058C4.01012 3.07058 3.85649 2.91601 3.85649 2.72529C3.85649 2.5346 4.01012 2.37997 4.19967 2.37997C4.3892 2.37997 4.54289 2.5346 4.54289 2.72529C4.54289 2.91604 4.3892 3.07058 4.19967 3.07058ZM7.7808 3.07058C7.59122 3.07058 7.43755 2.91601 7.43755 2.72529C7.43755 2.5346 7.59122 2.37997 7.7808 2.37997C7.97033 2.37997 8.12399 2.5346 8.12399 2.72529C8.12399 2.91604 7.97033 3.07058 7.7808 3.07058Z" fill="#FFFFFF"/>
</svg>
