<svg width="75" height="75" viewBox="0 0 75 75" fill="none" xmlns="http://www.w3.org/2000/svg">
<path d="M23.0452 20.3362H17.881C15.8959 20.3362 14.8735 20.68 14.8735 22.3242V24.2002C14.8735 25.8444 15.8959 26.1882 17.881 26.1882H19.075C19.8138 26.1882 20.1497 26.5843 20.1497 27.7203V52.2644C20.1497 54.2525 20.4929 55.2764 22.1347 55.2764H24.0601C25.7094 55.2764 26.0452 54.2525 26.0452 52.2644V22.3317C26.0452 20.68 25.0303 20.3362 23.0452 20.3362Z" fill="white" fill-opacity="0.1"/>
<path d="M58.4328 3.29596C56.2164 1.13602 53.4403 0 50.0896 0H24.903C21.5522 0 18.7164 1.13602 16.5672 3.29596L3.23134 16.5919C1.13433 18.6921 0 21.4723 0 24.5441V50.1644C0 53.6846 1.19403 56.4126 3.57463 58.7444L16.2239 71.4126C18.7164 73.9088 21.5 75.0523 25.0746 74.9925H49.9254C53.3881 74.9925 56.2239 73.9686 58.7761 71.4126L71.4254 58.7444C73.7537 56.4126 75 53.6323 75 50.1644V24.5441C75 21.4723 73.8657 18.6921 71.7687 16.5919L58.4328 3.29596ZM70.0597 33.296C70.0597 34.148 69.6642 34.6039 68.8657 34.6039H65.0672V31.9357C65.0672 29.9477 64.7836 28.9238 63.0821 28.9238H61.3806C59.6791 28.9238 59.3955 29.9477 59.3955 31.9357V34.6039H56.7313C54.7463 34.6039 53.7239 34.8879 53.7239 36.5919V38.4081C53.7239 40.1121 54.7463 40.3961 56.7313 40.3961H59.3955V43.0643C59.3955 45.0523 59.6791 46.0762 61.3806 46.0762H63.0821C64.7836 46.0762 65.0672 45.0523 65.0672 43.0643V40.3961H68.8657C69.6045 40.3961 70 40.7922 70.0597 41.5321V50.1644C70.0597 52.2646 69.4328 53.8565 67.9627 55.2765L55.3134 67.9522C53.8358 69.432 52.194 70.1121 50.1493 70.1121H24.8433C22.7985 70.1121 21.1567 69.432 19.6791 67.9522L7.03731 55.2765C5.5597 53.7967 4.8806 52.2646 4.9403 50.1644V25.1121C4.9403 23.012 5.6194 21.1883 7.15672 19.6562L20.0224 6.59193C21.3284 5.28401 22.9701 4.88789 24.8433 4.88789H50.1493C52.0224 4.88789 53.6642 5.28401 54.9701 6.59193L67.8507 19.6562C69.3284 21.1883 70.0597 23.0045 70.0597 25.1121V33.296Z" fill="white" fill-opacity="0.1"/>
<path d="M47.7082 37.1597C50.8873 34.8279 50.9395 32.4437 50.9395 30.5155V28.5872C50.5963 22.1672 48.447 19.7233 41.0142 19.7233C33.5813 19.7233 31.4246 22.1672 31.0888 28.5872V30.5155C31.0888 32.4437 31.1485 34.8354 34.3201 37.1597C30.5216 38.6396 30.238 41.8757 30.238 46.1358C30.238 52.4437 32.447 55.5678 41.0142 55.7397C49.5813 55.5678 51.7903 52.4437 51.7903 46.1358C51.7903 41.8683 51.5067 38.6321 47.7082 37.1597ZM41.0142 24.94C44.1336 24.94 45.3798 26.076 45.3798 29.8802C45.3798 33.5723 44.1336 34.8204 41.0142 34.8204C37.8948 34.8204 36.6485 33.5723 36.6485 29.8802C36.6485 26.076 37.8948 24.94 41.0142 24.94ZM41.0142 50.3361C37.3873 50.3361 36.0813 48.9161 36.0813 45.3361C36.0813 41.7562 37.3873 40.1119 41.0142 40.1119C44.6485 40.1119 45.947 41.7562 45.947 45.3361C45.947 48.9161 44.6485 50.3361 41.0142 50.3361Z" fill="white" fill-opacity="0.1"/>
</svg>
