<svg width="12" height="15" viewBox="0 0 12 15" fill="none" xmlns="http://www.w3.org/2000/svg">
<path d="M10.0228 7.92195C10.0042 6.04382 11.545 5.14303 11.6139 5.09752C10.748 3.82364 9.39888 3.64885 8.91873 3.62896C7.77153 3.51173 6.67914 4.30884 6.09715 4.30884C5.51636 4.30884 4.61717 3.64614 3.66587 3.66301C2.41443 3.6817 1.26094 4.39534 0.616945 5.52245C-0.682718 7.79085 0.284466 11.1526 1.55088 12.9937C2.17001 13.8936 2.90835 14.9062 3.87703 14.8691C4.81067 14.832 5.16292 14.2615 6.29155 14.2615C7.42018 14.2615 7.73708 14.8691 8.72464 14.8501C9.72866 14.8317 10.3652 13.933 10.9792 13.0295C11.69 11.9841 11.9826 10.9718 12 10.9206C11.9781 10.9103 10.0429 10.1644 10.0228 7.92195Z" fill="#FFFFFF"/>
<path d="M8.16741 2.41021C8.68111 1.78277 9.02916 0.910909 8.93451 0.0429688C8.19317 0.0731056 7.29578 0.538719 6.76351 1.16556C6.28666 1.72189 5.86971 2.60761 5.98144 3.45988C6.80844 3.52437 7.65192 3.03646 8.16741 2.41021Z" fill="#FFFFFF"/>
</svg>
