<svg width="122" height="34" viewBox="0 0 122 34" fill="none" xmlns="http://www.w3.org/2000/svg">
<path fill-rule="evenodd" clip-rule="evenodd" d="M17.1146 6.71537L19.2656 5.6036C19.4526 5.51095 19.5462 5.23301 19.4526 5.00139L16.9743 0.230033C16.834 -0.0015868 16.6002 -0.0479107 16.3664 0.0447371L14.2154 1.15651C13.9816 1.29548 13.9348 1.5271 14.0283 1.75872L16.5067 6.53008C16.6469 6.7617 16.8808 6.80802 17.1146 6.71537ZM11.9241 28.1634C11.8774 28.673 11.6903 29.3679 11.4565 29.8311L9.67958 33.4444C9.67958 33.537 9.58606 33.537 9.49254 33.537C4.02147 32.0546 0 27.0517 0 21.1685C0 14.081 5.84516 8.29049 13.0464 8.33681C13.8413 8.33681 14.5895 8.38314 15.3377 8.52211C15.3845 8.52211 15.4312 8.56843 15.4312 8.61476C15.3577 9.22174 15.1814 10.554 15.0168 11.798C14.8674 12.9275 14.7275 13.9842 14.683 14.3589C14.5157 15.5606 13.862 15.9098 13.1905 16.2684L13.1903 16.2685C13.1112 16.3108 13.0318 16.3532 12.9529 16.3972L12.8872 16.4311C11.8464 16.9697 11.0966 17.3576 9.5393 16.7678C8.4091 16.3453 7.52201 15.9998 6.75387 15.7007C5.8376 15.3439 5.09057 15.053 4.30204 14.7758C3.83442 14.5905 3.17977 14.7758 2.99272 15.2854C2.80568 15.795 2.99272 16.3045 3.5071 16.4898C3.5071 16.4898 6.12573 17.4626 7.20124 17.9259C7.60131 18.106 7.9731 18.2599 8.31763 18.4025L8.31802 18.4026L8.31806 18.4027C9.74513 18.9933 10.7045 19.3903 11.2695 20.659C11.5968 21.4465 12.2515 23.1141 12.2515 23.8553C12.2047 24.9208 11.9241 28.1634 11.9241 28.1634ZM25.9524 21.7242C25.6718 28.3948 20.154 33.8147 13.4204 34H13.4203C12.9059 34 12.3916 34 11.8773 33.9537C11.7837 33.9537 11.737 33.8147 11.7837 33.7684L13.6074 30.572C13.888 30.1088 14.075 29.6456 14.1218 29.0897L14.4959 26.3102C14.5427 25.7543 14.8232 25.1985 15.3376 25.0132L16.2261 24.7815C16.7404 24.5963 17.1613 24.7815 17.3951 25.2448C17.5821 25.5691 18.0498 26.4955 18.2368 26.8661C18.3771 27.0977 18.3303 27.3757 18.19 27.5147C17.9589 27.7763 17.7569 28.0034 17.5676 28.2161L17.5658 28.2182L17.5657 28.2183C17.2196 28.6073 16.9158 28.9488 16.5534 29.3676C16.1793 29.7845 15.852 30.4331 16.5066 30.9889C17.1145 31.5448 17.7224 30.9426 18.0965 30.572C18.5641 30.1088 19.3123 29.2286 19.7799 28.6728C20.2008 28.2095 20.4346 27.8852 20.4813 27.283C20.4813 27.0514 20.4813 26.8198 20.3878 26.5419C20.3006 26.2825 19.9589 25.4384 19.5194 24.3529L19.5192 24.3523L19.5188 24.3514L19.5187 24.3512L19.5187 24.3511L19.5186 24.3508L19.5184 24.3504L19.5183 24.3502L19.5179 24.3492L19.5177 24.3488L19.5177 24.3487L19.5177 24.3486C19.0154 23.108 18.386 21.5531 17.8627 20.1955C17.021 17.9719 16.6002 15.7021 16.8807 13.3396L17.3483 9.07776C17.3483 9.03143 17.3951 8.98511 17.4886 8.98511C22.5856 10.9307 26.1862 15.9337 25.9524 21.7242ZM10.5682 10.4212C9.21209 10.5602 8.18335 11.7646 8.32363 13.108C8.46391 14.4514 9.67971 15.4242 11.0358 15.3316C12.3919 15.1926 13.4206 13.9882 13.2803 12.6448C13.14 11.3014 11.9242 10.2823 10.5682 10.4212ZM115.687 10.375C112.18 10.375 109.374 12.7838 109.374 16.4897C109.374 20.1956 112.18 22.6045 115.687 22.6045C119.194 22.6045 122 20.1956 122 16.4897C122 12.8302 119.194 10.375 115.687 10.375ZM112.788 16.5359C112.788 18.3425 114.004 19.5006 115.687 19.5006C117.371 19.5006 118.586 18.3425 118.586 16.5359C118.586 14.7292 117.371 13.5711 115.687 13.5711C114.004 13.5711 112.788 14.7292 112.788 16.5359ZM89.7352 10.375C86.2281 10.375 83.4224 12.7838 83.4224 16.4897C83.4224 20.1956 86.2281 22.6045 89.7352 22.6045C93.2422 22.6045 96.0479 20.1956 96.0479 16.4897C96.0479 12.8302 93.2422 10.375 89.7352 10.375ZM86.8358 16.5359C86.8358 18.3425 88.0516 19.5006 89.735 19.5006C91.4184 19.5006 92.6342 18.3425 92.6342 16.5359C92.6342 14.7292 91.4184 13.5711 89.735 13.5711C88.0516 13.5711 86.8358 14.7292 86.8358 16.5359ZM71.3109 10.6064H80.3358V22.419H76.9222V13.7101H74.2568L73.9763 17.7403C73.9659 17.849 73.9559 17.9573 73.946 18.0651C73.7315 20.392 73.5404 22.4653 70.1886 22.4653H68.739L69.1599 19.5933C70.8536 19.5523 70.8685 19.2583 71.1715 13.281V13.2809C71.2114 12.4925 71.2564 11.6051 71.3109 10.6064ZM54.5235 16.4897C54.5235 12.7838 57.3292 10.375 60.8363 10.375C64.3434 10.375 67.1491 12.8302 67.1491 16.4897C67.1491 20.1956 64.3434 22.6045 60.8363 22.6045C57.3292 22.6045 54.5235 20.1956 54.5235 16.4897ZM60.8364 19.5006C59.153 19.5006 57.9372 18.3425 57.9372 16.5359C57.9372 14.7292 59.153 13.5711 60.8364 13.5711C62.5198 13.5711 63.7356 14.7292 63.7356 16.5359C63.7356 18.3425 62.5198 19.5006 60.8364 19.5006ZM36.848 19.2229C34.9775 19.2229 33.2941 18.8987 33.2941 16.3972C33.2941 14.5905 34.2761 13.7104 36.2401 13.7567C37.1753 13.7567 38.2508 13.942 39.0458 14.2199L40.168 11.3479C38.9522 10.7457 37.5026 10.4677 36.0998 10.4677C32.0783 10.4677 29.7403 13.0155 29.7403 16.5361C29.7403 20.7516 32.6395 22.5582 36.0998 22.5582C37.4091 22.5582 38.7652 22.3266 39.8875 21.956L39.8407 18.806C38.999 19.0376 37.8767 19.2229 36.848 19.2229ZM42.6931 10.6064H53.0274L52.4195 13.6638H49.4267V22.419H46.0132V13.7101H42.6931V10.6064ZM108.056 10.6528L108.065 10.6064V10.6528H108.056ZM97.4035 10.6528H108.056L107.457 13.6638H104.464V22.419H101.004V13.7101H98.0114L97.4035 10.6528ZM34.4163 27.1443H31.8912V31.7767H31.1898V26.5884H34.4163V27.1443ZM34.5565 28.812C34.4162 29.1363 34.3227 29.4606 34.3227 29.8312C34.3227 30.4334 34.463 30.9429 34.7903 31.3135C35.1177 31.6841 35.5385 31.8694 36.0529 31.8694C36.427 31.8694 36.7075 31.8231 36.9881 31.6378C37.2219 31.4525 37.4557 31.2209 37.596 30.9429C37.7363 30.6187 37.8298 30.2944 37.8298 29.9238V29.8775C37.8298 29.2753 37.6895 28.812 37.3622 28.4415C37.0349 28.0709 36.614 27.8856 36.0996 27.8856C35.7256 27.8856 35.445 27.9319 35.1644 28.1172C34.9306 28.2562 34.6968 28.4878 34.5565 28.812ZM34.9775 29.8773C34.9775 30.2942 35.071 30.6648 35.2581 30.8964C35.4451 31.1744 35.7257 31.267 36.053 31.267C36.3803 31.267 36.6609 31.128 36.848 30.8964C37.035 30.6648 37.1285 30.2479 37.1285 29.7846C37.1285 29.3677 37.035 28.9971 36.848 28.7655C36.6609 28.4876 36.3803 28.3949 36.053 28.3949C35.7257 28.3949 35.4451 28.5339 35.2581 28.7655C35.071 29.0435 34.9775 29.4141 34.9775 29.8773ZM40.8226 31.0815C40.6823 31.2205 40.4485 31.3131 40.2147 31.3131C39.8874 31.3131 39.6068 31.1741 39.4198 30.9889C39.2327 30.7572 39.1392 30.433 39.1392 29.9697V29.8308C39.1392 29.3675 39.2327 28.9969 39.4198 28.7653C39.6068 28.5337 39.8874 28.3947 40.2147 28.3947C40.4953 28.3947 40.6823 28.4874 40.8694 28.6263C41.0564 28.7653 41.15 28.9969 41.15 29.2285H41.7111C41.6643 28.8116 41.524 28.4874 41.2435 28.2094C40.9629 27.9778 40.5888 27.8388 40.168 27.8388C39.7939 27.8388 39.5133 27.9315 39.2327 28.0704C38.9522 28.2557 38.7651 28.4874 38.6248 28.7653C38.4846 29.0896 38.4378 29.4138 38.4378 29.7844V29.8771C38.4378 30.4793 38.5781 30.9425 38.9054 31.3131C39.2327 31.6374 39.6536 31.8227 40.168 31.8227C40.4485 31.8227 40.6823 31.7764 40.9161 31.6374C41.15 31.5447 41.337 31.3594 41.4773 31.1741C41.6176 30.9425 41.7111 30.7572 41.7111 30.5256H41.1032C41.1032 30.7572 41.0097 30.9425 40.8226 31.0815ZM43.8154 30.8036L44.7039 27.9316H45.4053L43.8622 32.3786C43.6284 33.0272 43.2543 33.3514 42.6931 33.3514H42.5529L42.319 33.3051V32.7492H42.5061C42.7399 32.7492 42.9269 32.7029 43.0205 32.6103C43.1607 32.5176 43.2543 32.3323 43.3478 32.1007L43.4881 31.7301L42.0852 27.9316H42.8334L43.8154 30.8036ZM46.0132 30.9426L45.7794 31.2206H45.4989V32.8882H46.1535V31.7764H48.8657V32.8882H49.5203V31.2206H49.006V27.9316H46.4809L46.4341 29.4602C46.4341 30.1088 46.2938 30.6183 46.0132 30.9426ZM46.5741 31.2207H48.3511V28.5339H47.1353L47.0885 29.4604C47.0417 30.2016 46.9015 30.8038 46.5741 31.2207ZM52.6006 31.5679C52.6145 31.653 52.6259 31.7225 52.6531 31.7764V31.73H53.4013V31.6837C53.3078 31.4984 53.261 31.2205 53.261 30.8499V29.0896C53.261 28.6727 53.1675 28.3947 52.8869 28.1631C52.6063 27.9315 52.279 27.8388 51.8114 27.8388C51.5308 27.8388 51.2503 27.8852 51.0165 27.9778C50.7826 28.0704 50.5956 28.2094 50.4553 28.3947C50.315 28.58 50.2683 28.7653 50.2683 28.9506H50.9229C50.9229 28.8116 51.0165 28.6727 51.1567 28.5337C51.3438 28.3947 51.5308 28.3484 51.7646 28.3484C52.0452 28.3484 52.2322 28.3947 52.3725 28.5337C52.5128 28.6727 52.5596 28.858 52.5596 29.0896V29.4138H51.9049C51.3438 29.4138 50.9229 29.5065 50.5956 29.7381C50.2683 29.9697 50.128 30.2477 50.128 30.6646C50.128 30.9889 50.2683 31.2668 50.5021 31.4984C50.7359 31.73 51.0632 31.8227 51.4373 31.8227C51.9049 31.8227 52.2322 31.6837 52.5596 31.3594C52.5792 31.4371 52.5905 31.5065 52.6006 31.5679ZM51.5308 31.2669C51.7179 31.2669 51.9517 31.2206 52.1387 31.1279C52.3258 31.0353 52.4661 30.8963 52.5596 30.711V29.9235H52.0452C51.2503 29.9235 50.8294 30.1551 50.8294 30.6184C50.8294 30.8037 50.8762 30.989 51.0165 31.0816C51.1568 31.2206 51.297 31.2669 51.5308 31.2669ZM57.0955 31.3131C57.3761 30.9425 57.5163 30.4793 57.5163 29.8771H57.5631V29.7844C57.5631 29.1822 57.4228 28.719 57.1423 28.3484C56.8617 28.0241 56.4876 27.8388 56.02 27.8388C55.5524 27.8388 55.1783 28.0241 54.8977 28.3484L54.851 27.9315H54.2431V33.2587H54.8977V31.4058C55.1783 31.73 55.5524 31.869 56.02 31.869C56.4408 31.869 56.8149 31.6837 57.0955 31.3131ZM56.8617 29.8311C56.8617 29.4142 56.7682 29.0436 56.5811 28.812C56.3941 28.5804 56.1603 28.4414 55.833 28.4414C55.4121 28.4414 55.1315 28.6267 54.9445 28.951V30.8039C55.1315 31.1745 55.4589 31.3135 55.8797 31.3135C56.2071 31.3135 56.4409 31.1745 56.6279 30.9429C56.7682 30.665 56.8617 30.2944 56.8617 29.8311ZM60.5091 31.0815C60.3689 31.2205 60.1351 31.3131 59.9013 31.3131C59.5739 31.3131 59.3401 31.1741 59.0595 30.9889C58.8725 30.7572 58.779 30.433 58.779 29.9697V29.8308C58.779 29.3675 58.8725 28.9969 59.0595 28.7653C59.2466 28.5337 59.5272 28.3947 59.8545 28.3947C60.1351 28.3947 60.3221 28.4874 60.5091 28.6263C60.6962 28.7653 60.7897 28.9969 60.7897 29.2285H61.3976C61.3509 28.8116 61.2106 28.4874 60.93 28.2094C60.6494 27.9778 60.2753 27.8388 59.8545 27.8388C59.4804 27.8388 59.1998 27.9315 58.9193 28.0704C58.6387 28.2557 58.4516 28.4874 58.3114 28.7653C58.1711 29.0896 58.1243 29.4138 58.1243 29.7844V29.8771C58.1243 30.4793 58.2646 30.9425 58.5919 31.3131C58.9193 31.6374 59.3401 31.8227 59.8545 31.8227C60.1351 31.8227 60.3689 31.7764 60.6027 31.6374C60.8365 31.5447 61.0235 31.3594 61.1638 31.1741C61.3041 30.9425 61.3976 30.7572 61.3976 30.5256H60.7897C60.7897 30.7572 60.6962 30.9425 60.5091 31.0815ZM65.0916 28.4415H63.7823V31.7768H63.1276V28.4415H61.8651V27.8856H65.0916V28.4415ZM65.793 27.9316V31.7764H67.5699C68.0376 31.7764 68.4116 31.6838 68.6922 31.4985C68.926 31.2669 69.0663 31.0353 69.0663 30.6647C69.0663 30.4794 68.9728 30.2478 68.8325 30.1088C68.6922 29.9235 68.5052 29.8308 68.2714 29.7845C68.4584 29.6919 68.6454 29.5992 68.739 29.4602C68.8325 29.3213 68.8793 29.1823 68.8793 28.997C68.8793 28.6727 68.739 28.3948 68.4584 28.2095C68.2246 28.0242 67.8037 27.9316 67.2894 27.9316H65.793ZM66.4945 29.5532H67.3362C67.9441 29.5532 68.2714 29.3679 68.2714 28.9973C68.2714 28.6267 67.9908 28.4414 67.3829 28.4414H66.4945V29.5532ZM66.4945 31.2206V30.1088H67.5232C68.0843 30.1088 68.3649 30.2941 68.3649 30.6647C68.3649 30.85 68.3181 30.989 68.1779 31.0816C68.0376 31.1743 67.8505 31.2206 67.57 31.2206H66.4945ZM71.5448 31.8227C71.0304 31.8227 70.6096 31.6374 70.2822 31.3131C69.9549 30.9889 69.7679 30.5256 69.7679 29.9234V29.7844C69.7679 29.4138 69.8614 29.0432 70.0017 28.7653C70.1419 28.4874 70.3757 28.2094 70.6096 28.0704C70.8901 27.8852 71.1707 27.8388 71.4513 27.8388C71.9656 27.8388 72.3397 28.0241 72.6203 28.3484C72.9009 28.6727 73.0411 29.1359 73.0411 29.7844V30.0624H70.4225C70.4225 30.433 70.5628 30.7572 70.7498 30.9889C70.9837 31.2205 71.2175 31.3594 71.5448 31.3594C71.7786 31.3594 71.9656 31.3131 72.1527 31.2205C72.293 31.1278 72.48 30.9889 72.5735 30.8499L72.9944 31.1741C72.7138 31.5911 72.1994 31.8227 71.5448 31.8227ZM70.8433 28.6729C70.9836 28.4876 71.2174 28.3949 71.4979 28.3949C71.7785 28.3949 71.9656 28.4876 72.1994 28.6729C72.3864 28.8582 72.4799 29.1361 72.4799 29.4604V29.5067H70.516C70.5627 29.1361 70.6562 28.8582 70.8433 28.6729ZM76.9692 31.7764H76.3613V30.1551H74.5843V31.7764H73.8829V27.9316H74.5376V29.5992H76.3145V27.9316H76.9692V31.7764ZM80.6165 31.7764H81.2711V27.9316H80.6165V29.5992H78.8395V27.9316H78.1849V31.7764H78.8395V30.1551H80.6165V31.7764ZM83.048 29.2286H84.0767C84.4975 29.2286 84.8716 29.3676 85.1054 29.5529C85.3392 29.7845 85.4795 30.0625 85.4795 30.4794C85.4795 30.85 85.3392 31.1742 85.1054 31.4058C84.8249 31.6375 84.4975 31.7764 84.0299 31.7764H82.3933V27.9316H83.048V29.2286ZM83.0481 31.2206V29.7846H84.0301C84.2639 29.8309 84.4509 29.8772 84.5912 30.0162C84.7315 30.1552 84.7782 30.2941 84.7782 30.5257C84.7782 30.7574 84.7315 30.8963 84.5912 31.0353C84.4509 31.1743 84.2639 31.2206 84.0301 31.2206H83.0481ZM86.8826 31.7764H86.2279V27.9316H86.8826V31.7764ZM88.379 31.3131C88.7063 31.6374 89.1271 31.8227 89.6415 31.8227C90.2962 31.8227 90.8105 31.5911 91.0911 31.1741L90.6703 30.8499C90.5767 30.9889 90.3897 31.1278 90.2494 31.2205C90.0624 31.3131 89.8753 31.3594 89.6415 31.3594C89.3142 31.3594 89.0804 31.2205 88.8466 30.9889C88.6595 30.7572 88.5192 30.433 88.5192 30.0624H91.1379V29.7844C91.1379 29.1359 90.9976 28.6727 90.717 28.3484C90.4365 28.0241 90.0624 27.8388 89.548 27.8388C89.2674 27.8388 88.9869 27.8852 88.7063 28.0704C88.4725 28.2094 88.2387 28.4874 88.0984 28.7653C87.9581 29.0432 87.8646 29.4138 87.8646 29.7844V29.9234C87.8646 30.5256 88.0516 30.9889 88.379 31.3131ZM89.5478 28.3949C89.2672 28.3949 89.0334 28.4876 88.8931 28.6729C88.7061 28.8582 88.6125 29.1361 88.5658 29.5067H90.5298V29.4604C90.5298 29.1361 90.4362 28.8582 90.2492 28.6729C90.0621 28.4876 89.8283 28.3949 89.5478 28.3949ZM96.9361 31.7764V27.9316H94.3642L94.2707 29.5992C94.2239 30.2014 94.1771 30.6183 94.0836 30.85C93.9901 31.0816 93.8498 31.1742 93.616 31.2206H93.429V31.8228H93.7095C94.0836 31.7764 94.3642 31.6375 94.5512 31.3595C94.7383 31.0816 94.8318 30.572 94.8786 29.9235L94.9721 28.4874H96.2814V31.7764H96.9361ZM97.8245 29.8312C97.8245 29.4606 97.918 29.1363 98.0583 28.812C98.1986 28.4878 98.4324 28.2562 98.6662 28.1172C98.9468 27.9319 99.2273 27.8856 99.6014 27.8856C100.116 27.8856 100.537 28.0709 100.864 28.4415C101.191 28.812 101.332 29.2753 101.332 29.8775V29.9238C101.332 30.2944 101.238 30.6187 101.098 30.9429C100.958 31.2209 100.724 31.4525 100.49 31.6378C100.209 31.8231 99.9288 31.8694 99.5547 31.8694C99.0403 31.8694 98.6195 31.6841 98.2921 31.3135C98.0116 30.9429 97.8245 30.4334 97.8245 29.8312ZM98.7599 30.8964C98.5728 30.6648 98.4793 30.2942 98.4793 29.8773C98.4793 29.4141 98.6196 29.0435 98.7599 28.7655C98.9469 28.5339 99.2275 28.3949 99.5548 28.3949C99.8821 28.3949 100.163 28.4876 100.35 28.7655C100.537 28.9971 100.63 29.3677 100.63 29.7846C100.63 30.2479 100.537 30.6648 100.35 30.8964C100.163 31.128 99.8821 31.267 99.5548 31.267C99.2275 31.267 98.9469 31.1744 98.7599 30.8964ZM105.026 28.4415H103.716V31.7768H103.062V28.4415H101.799V27.8856H105.026V28.4415ZM105.727 31.3131C106.054 31.6374 106.475 31.8227 106.99 31.8227C107.644 31.8227 108.112 31.5911 108.439 31.1741L108.018 30.8499C107.925 30.9889 107.738 31.1278 107.598 31.2205C107.411 31.3131 107.223 31.3594 106.99 31.3594C106.662 31.3594 106.429 31.2205 106.195 30.9889C106.008 30.7572 105.867 30.433 105.867 30.0624H108.486V29.7844C108.486 29.1359 108.346 28.6727 108.065 28.3484C107.785 28.0241 107.411 27.8388 106.896 27.8388C106.616 27.8388 106.335 27.8852 106.054 28.0704C105.821 28.2094 105.587 28.4874 105.447 28.7653C105.306 29.0432 105.213 29.4138 105.213 29.7844V29.9234C105.213 30.5256 105.4 30.9889 105.727 31.3131ZM106.896 28.3949C106.616 28.3949 106.382 28.4876 106.241 28.6729C106.054 28.8582 105.961 29.1361 105.914 29.5067H107.878V29.4604C107.878 29.1361 107.785 28.8582 107.598 28.6729C107.411 28.4876 107.177 28.3949 106.896 28.3949ZM112.134 31.3131C112.414 30.9425 112.554 30.4793 112.554 29.8771H112.601V29.7844C112.601 29.1822 112.461 28.719 112.18 28.3484C111.9 28.0241 111.526 27.8388 111.058 27.8388C110.59 27.8388 110.216 28.0241 109.936 28.3484L109.889 27.9315H109.281V33.2587H109.936V31.4058C110.216 31.73 110.59 31.869 111.058 31.869C111.479 31.869 111.853 31.6837 112.134 31.3131ZM111.9 29.8311C111.9 29.4142 111.806 29.0436 111.619 28.812C111.432 28.5804 111.198 28.4414 110.871 28.4414C110.45 28.4414 110.169 28.6267 109.982 28.951V30.8039C110.169 31.1745 110.497 31.3135 110.918 31.3135C111.245 31.3135 111.479 31.1745 111.666 30.9429C111.806 30.665 111.9 30.2944 111.9 29.8311ZM113.723 31.3131C114.051 31.6374 114.472 31.8227 114.986 31.8227C115.641 31.8227 116.155 31.5911 116.436 31.1741L116.015 30.8499C115.921 30.9889 115.734 31.1278 115.594 31.2205C115.407 31.3131 115.22 31.3594 114.986 31.3594C114.659 31.3594 114.425 31.2205 114.191 30.9889C114.004 30.7572 113.864 30.433 113.864 30.0624H116.482V29.7844C116.482 29.1359 116.342 28.6727 116.062 28.3484C115.781 28.0241 115.407 27.8388 114.892 27.8388C114.612 27.8388 114.331 27.8852 114.051 28.0704C113.817 28.2094 113.583 28.4874 113.443 28.7653C113.303 29.0432 113.209 29.4138 113.209 29.7844V29.9234C113.209 30.5256 113.396 30.9889 113.723 31.3131ZM114.939 28.3949C114.659 28.3949 114.425 28.4876 114.284 28.6729C114.097 28.8582 114.004 29.1361 113.957 29.5067H115.921V29.4604C115.921 29.1361 115.828 28.8582 115.641 28.6729C115.407 28.4876 115.22 28.3949 114.939 28.3949ZM120.457 27.9316H119.802L118.025 30.7573V27.9316H117.371V31.7764H118.025L119.802 28.9507V31.7764H120.457V27.9316Z" fill="#ffffff"/>
</svg>
