<svg  viewBox="0 0 72 81" fill="none" xmlns="http://www.w3.org/2000/svg">
<path d="M1.79586 1.67086H57.4783V78.9697H1.79586V1.67086Z" fill="#FFCD17"/>
<path class ="color-str" d="M1.79586 1.67086H57.4783V78.9697H1.79586V1.67086Z" stroke="white" stroke-width="2.21868"/>
<path class ="color-str" d="M1.79586 1.67086H57.4783V78.9697H1.79586V1.67086Z" stroke="#39363D" stroke-width="2.21868"/>
<circle cx="18.3961" cy="18.7818" r="9.22374" fill="#39363D"/>
<path fill-rule="evenodd" clip-rule="evenodd" d="M12.9747 23.1124C14.3768 21.6703 16.3378 20.7744 18.5081 20.7744C20.6789 20.7744 22.6404 21.6708 24.0426 23.1135C22.7942 24.8144 20.7806 25.9185 18.509 25.9185C16.237 25.9185 14.223 24.8139 12.9747 23.1124ZM21.0803 16.4874C21.0803 17.9081 19.9286 19.0598 18.5079 19.0598C17.0872 19.0598 15.9356 17.9081 15.9356 16.4874C15.9356 15.0667 17.0872 13.915 18.5079 13.915C19.9286 13.915 21.0803 15.0667 21.0803 16.4874Z" fill="white"/>
<path d="M70.1171 55.0702C70.1171 62.936 63.6014 69.3513 55.5153 69.3513C47.4293 69.3513 40.9135 62.936 40.9135 55.0702C40.9135 47.2044 47.4293 40.789 55.5153 40.789C63.6014 40.789 70.1171 47.2044 70.1171 55.0702Z" fill="white" stroke="#39363D" stroke-width="2.21868"/>
<path d="M62.2486 52.5049L53.0784 60.8414L48.1406 56.3525L50.2568 54.4287L53.0784 56.9938L60.1324 50.5811L62.2486 52.5049Z" fill="#FFCD17"/>
<rect x="8.91748" y="34.2505" width="30.8806" height="2.70205" fill="#39363D"/>
<rect x="8.91748" y="40.813" width="30.8806" height="2.70205" fill="#39363D"/>
<rect x="8.91748" y="47.374" width="15.4403" height="2.70205" fill="#39363D"/>
</svg>
