<svg xmlns="http://www.w3.org/2000/svg"  viewBox="0 0 108 109" >
<style type="text/css">
	.st3{fill:#FFFFFF;stroke:#39363D;stroke-width:1.4;}
	.st4{fill:#FFCD17;stroke:#39363D;stroke-width:1.6;}
</style>
<ellipse fill-opacity="5.5" cx="55.1" cy="102.4" rx="20.4" ry="3.8"/>
<path fill-rule="evenodd" clip-rule="evenodd" fill="#3E3E3E" d="M53.9,91.1l-2.6,4.8c1.2,0.1,2.5,0.2,3.8,0.2C72.7,96.1,87,81.8,87,64.2c0-14.4-9.5-26.5-22.5-30.5l-0.9,7.6
	c-0.8,6.8,0.4,13.4,2.9,19.8c1.5,3.9,3.4,8.4,4.9,12l0,0c1.3,3.1,2.3,5.6,2.6,6.3c0.3,0.8,0.3,1.5,0.3,2.1c-0.1,1.7-0.8,2.7-2.1,4
	c-1.4,1.6-3.6,4.1-5,5.5c-1.1,1.1-2.9,2.8-4.7,1.2c-1.9-1.6-1-3.5,0.1-4.7s2-2.2,3-3.3l0,0c0.6-0.6,1.2-1.3,1.8-2
	c0.4-0.4,0.6-1.2,0.1-1.9c-0.6-1.1-1.9-3.7-2.5-4.7c-0.7-1.3-1.9-1.9-3.4-1.3L59,75c-1.5,0.5-2.3,2.1-2.5,3.7l-1.1,8
	C55.3,88.4,54.7,89.7,53.9,91.1z M23.2,64.2c0,14.1,9.2,26.1,21.8,30.3l2.5-5.5c0.7-1.3,1.2-3.3,1.4-4.8c0,0,0.8-9.4,1-12.4
	c0-2.1-1.9-7-2.9-9.2c-1.7-3.7-4.5-4.8-8.7-6.5l0,0c-1-0.4-2.1-0.9-3.3-1.4c-2.2-0.9-6.6-2.6-9-3.5C24.2,55.1,23.2,59.5,23.2,64.2z
	 M33.7,48.1c-1.8-0.7-3.4-1.3-5-1.9c2.7-4,6.4-7.4,10.6-9.8c-0.8,1-1.2,2.3-1.2,3.6c0,3.7,3.5,6.7,7.9,6.7c4.3,0,7.9-3,7.9-6.7
	c0-3.4-3-6.3-6.9-6.7c2.6-0.7,5.3-1,8.1-1c1.2,0,2.4,0.1,3.6,0.2c-0.2,1.4-0.4,2.9-0.6,4.4c-0.4,3.3-0.9,6.3-1,7.4
	c-0.5,3.5-2.4,4.5-4.4,5.5c-0.2,0.1-0.5,0.2-0.7,0.4l-0.2,0.1c-3.1,1.6-5.3,2.7-9.9,1C38.6,50,36,49,33.7,48.1L33.7,48.1z"/>
<path fill="#39363D" d="M48.4,100.1c-0.2,0.3-0.1,0.8,0.3,1c0.3,0.2,0.8,0.1,1-0.3L48.4,100.1z M54.4,91.3l-0.6-0.4l0,0L54.4,91.3z
	 M55.9,87l-0.7-0.1l0,0L55.9,87z M57,78.9l0.7,0.1l0,0L57,78.9z M59.5,75.2l-0.2-0.7c0,0,0,0-0.1,0L59.5,75.2z M62.1,74.5l0.2,0.7
	c0,0,0,0,0.1,0L62.1,74.5z M65.5,75.9l-0.6,0.3l0,0L65.5,75.9z M68,80.5l-0.6,0.3l0,0L68,80.5z M67.9,82.4l-0.5-0.5l0,0L67.9,82.4z
	 M66,84.5L65.5,84l0,0L66,84.5z M63,87.8l0.5,0.5l0,0L63,87.8z M62.9,92.5l0.5-0.5l0,0L62.9,92.5z M67.6,91.3l0.5,0.5l0,0L67.6,91.3
	z M72.5,85.8L72,85.3l0,0L72.5,85.8z M74.6,81.8l0.7,0.1c0,0,0,0,0-0.1H74.6z M74.3,79.6l-0.7,0.2l0,0L74.3,79.6z M71.8,73.3
	l0.7-0.3l0,0L71.8,73.3z M66.9,61.3l-0.7,0.3l0,0L66.9,61.3z M64,41.5l0.7,0.1l0,0L64,41.5z M66.1,29.2c0-0.4-0.2-0.7-0.6-0.8
	c-0.4,0-0.7,0.2-0.8,0.6L66.1,29.2z M48,89.1l-0.6-0.3l0,0L48,89.1z M49.4,84.3l0.7,0.1l0,0L49.4,84.3z M50.4,71.9h0.7l0,0H50.4z
	 M47.5,62.6l0.7-0.3l0,0L47.5,62.6z M38.8,56.1l-0.3,0.7l0,0L38.8,56.1z M35.5,54.7l0.3-0.6l0,0L35.5,54.7z M24.6,50.6l0.2-0.7l0,0
	L24.6,50.6z M23.1,47.1l-0.7-0.2l0,0L23.1,47.1z M26.9,45.6l-0.3,0.7l0,0L26.9,45.6z M34.2,48.3l0.3-0.7l0,0L34.2,48.3z M42.4,51.4
	l0.2-0.7l0,0L42.4,51.4z M52.2,50.4l-0.3-0.6l0,0L52.2,50.4z M52.4,50.3l0.3,0.6l0,0L52.4,50.3z M53.1,49.9l-0.3-0.6l0,0L53.1,49.9z
	 M57.5,44.4l0.7,0.1l0,0L57.5,44.4z M58.5,37l0.7,0.1l0,0L58.5,37z M60.4,27.9c0-0.4-0.2-0.7-0.6-0.8c-0.4,0-0.7,0.2-0.8,0.6
	L60.4,27.9z M42.1,99.2c-0.2,0.4,0,0.8,0.3,1c0.4,0.2,0.8,0,1-0.3L42.1,99.2z M49.6,100.8l5.4-9.2l-1.2-0.7l-5.4,9.2L49.6,100.8z
	 M55,91.6c0.9-1.4,1.5-2.8,1.6-4.6l-1.4-0.1c-0.1,1.5-0.6,2.7-1.4,4L55,91.6z M56.6,87.1l1.1-8l-1.4-0.2l-1.1,8L56.6,87.1z M57.7,79
	c0.1-1.5,0.9-2.7,2-3.1l-0.5-1.3c-1.9,0.7-2.8,2.6-3,4.4H57.7z M59.6,75.9l2.6-0.7l-0.4-1.4l-2.6,0.7L59.6,75.9z M62.3,75.2
	c0.6-0.2,1.1-0.2,1.5,0c0.4,0.2,0.8,0.5,1,1l1.3-0.6c-0.4-0.8-1-1.4-1.8-1.7c-0.8-0.3-1.6-0.3-2.5,0L62.3,75.2z M64.9,76.2
	c0.5,0.9,1.9,3.6,2.5,4.6l1.3-0.6c-0.5-1.1-1.9-3.8-2.5-4.7L64.9,76.2z M67.4,80.9c0.3,0.4,0.1,0.8,0,1l1,1c0.7-0.7,0.8-1.8,0.2-2.8
	L67.4,80.9z M67.3,81.9c-0.7,0.8-1.3,1.4-1.8,2l1.1,1c0.6-0.6,1.2-1.3,1.8-2L67.3,81.9z M65.5,84c-1,1.1-1.9,2.1-3,3.3l1.1,0.9
	c1.1-1.2,2-2.2,3-3.3L65.5,84z M62.5,87.3c-0.6,0.6-1.2,1.5-1.4,2.6s0.2,2.2,1.3,3.2l0.9-1.1c-0.8-0.7-0.9-1.3-0.8-1.8
	c0.1-0.6,0.5-1.3,1-1.8L62.5,87.3z M62.4,93c0.5,0.5,1.1,0.8,1.7,0.8c0.6,0.1,1.2-0.1,1.6-0.3c0.9-0.4,1.8-1.2,2.3-1.7l-1-1
	c-0.6,0.6-1.2,1.2-1.9,1.5c-0.3,0.1-0.6,0.2-0.9,0.2c-0.3,0-0.6-0.1-0.9-0.5L62.4,93z M68.1,91.8c1.4-1.4,3.6-3.9,5-5.5l-1.1-1
	c-1.4,1.6-3.6,4.1-4.9,5.4L68.1,91.8z M73.1,86.2c0.6-0.7,1.2-1.3,1.5-2c0.4-0.7,0.6-1.5,0.7-2.4l-1.4-0.1c-0.1,0.8-0.2,1.3-0.5,1.9
	c-0.3,0.5-0.7,1.1-1.3,1.7L73.1,86.2z M75.3,81.8L75.3,81.8h-1.4l0,0H75.3z M75.3,81.8c0-0.7,0-1.4-0.3-2.4l-1.3,0.5
	c0.2,0.7,0.2,1.2,0.2,1.9H75.3z M75,79.4c-0.3-0.8-1.3-3.3-2.6-6.4l-1.3,0.5c1.3,3.2,2.3,5.6,2.5,6.3L75,79.4z M72.4,73
	c-1.5-3.6-3.3-8.1-4.9-12l-1.3,0.5c1.5,3.9,3.4,8.4,4.9,12L72.4,73z M67.6,61c-2.5-6.3-3.7-12.8-2.9-19.5l-1.4-0.2
	c-0.8,7,0.4,13.6,2.9,20.1L67.6,61z M64.7,41.6l1.4-12.3l-1.4-0.2l-1.4,12.3L64.7,41.6z M48.6,89.4c0.7-1.4,1.3-3.5,1.5-5.1
	l-1.4-0.1c-0.1,1.4-0.7,3.3-1.3,4.6L48.6,89.4z M49.4,84.3c0.7,0.1,0.7,0.1,0.7,0.1l0,0l0,0l0,0l0,0c0,0,0,0,0-0.1s0-0.2,0-0.3
	c0-0.3,0.1-0.6,0.1-1.1c0.1-0.9,0.2-2.2,0.3-3.6c0.2-2.7,0.5-5.8,0.5-7.4l-1.4-0.1c-0.1,1.5-0.3,4.6-0.5,7.3
	c-0.1,1.4-0.2,2.6-0.3,3.6c0,0.5-0.1,0.8-0.1,1.1c0,0.1,0,0.2,0,0.3v0.1l0,0l0,0l0,0l0,0C48.7,84.2,48.7,84.2,49.4,84.3z M51.1,71.9
	c0-1.2-0.5-3.1-1.1-4.8c-0.6-1.8-1.3-3.6-1.8-4.7L46.9,63c0.5,1.1,1.2,2.9,1.8,4.6c0.6,1.8,1,3.4,1,4.3H51.1z M48.1,62.3
	c-1.8-4-4.9-5.2-9.1-6.9l-0.5,1.3c4.2,1.7,6.8,2.8,8.3,6.2L48.1,62.3z M39,55.4c-1-0.4-2.1-0.9-3.3-1.4l-0.6,1.3
	c1.2,0.5,2.3,1,3.3,1.4L39,55.4z M35.7,54.1c-1.6-0.7-4.3-1.7-6.7-2.6c-1.2-0.4-2.2-0.8-3-1.1c-0.4-0.1-0.7-0.3-0.9-0.3
	c-0.1,0-0.2-0.1-0.3-0.1h-0.1l0,0l0,0l0,0l0,0c0,0,0,0-0.2,0.7s-0.2,0.7-0.2,0.7l0,0l0,0l0,0l0,0c0,0,0,0,0.1,0s0.1,0.1,0.2,0.1
	c0.2,0.1,0.5,0.2,0.9,0.3c0.8,0.3,1.8,0.7,3,1.1c2.3,0.9,5,1.9,6.6,2.6L35.7,54.1z M24.8,49.9c-0.6-0.2-0.9-0.6-1.1-1s-0.2-1,0-1.6
	l-1.3-0.5c-0.3,0.9-0.3,1.8,0,2.6s1,1.5,2,1.8L24.8,49.9z M23.7,47.3c0.2-0.5,0.6-0.9,1.2-1.1c0.6-0.2,1.2-0.2,1.8,0l0.5-1.3
	c-0.9-0.3-1.9-0.3-2.7,0c-0.9,0.3-1.7,0.9-2.1,1.9L23.7,47.3z M26.7,46.3c2.3,0.8,4.5,1.6,7.2,2.7l0.5-1.3c-2.7-1-4.9-1.9-7.2-2.7
	L26.7,46.3z M33.9,49c2.3,0.9,4.9,1.9,8.2,3.1l0.5-1.3c-3.3-1.2-5.9-2.2-8.2-3.1L33.9,49z M42.1,52c2.4,0.9,4.2,1.1,5.9,0.8
	c1.6-0.3,3-1,4.6-1.8L52,49.7c-1.6,0.8-2.8,1.4-4.2,1.6c-1.4,0.2-2.9,0.1-5.1-0.7L42.1,52z M52.5,51c0.1,0,0.1-0.1,0.2-0.1l-0.6-1.3
	c-0.1,0-0.1,0.1-0.2,0.1L52.5,51z M52.8,50.9c0.2-0.1,0.5-0.2,0.7-0.4l-0.7-1.3c-0.2,0.1-0.5,0.2-0.7,0.4L52.8,50.9z M53.5,50.6
	c1-0.5,2.1-1.1,2.9-2c0.9-0.9,1.6-2.2,1.8-4.1l-1.4-0.2c-0.2,1.6-0.8,2.6-1.4,3.3c-0.7,0.7-1.6,1.2-2.6,1.7L53.5,50.6z M58.2,44.5
	c0.1-1.1,0.5-4.1,1-7.4l-1.4-0.2c-0.4,3.3-0.9,6.3-1,7.4L58.2,44.5z M59.2,37.1c0.5-3.6,1-7.4,1.2-9.2L59,27.7
	c-0.2,1.7-0.7,5.6-1.2,9.2L59.2,37.1z M43.4,99.9l5.2-10.4l-1.3-0.6l-5.2,10.4L43.4,99.9z"/>
<path class="st3 color-o" d="M71,19.1l-6.3,3.2c-0.7,0.3-1.4,0.1-1.8-0.5L55.6,8c-0.3-0.7-0.1-1.3,0.6-1.7l6.3-3.2c0.7-0.3,1.4-0.1,1.8,0.5
	l7.3,13.8C71.9,18.1,71.6,18.9,71,19.1z"/>
<path class="st4 color-fill" d="M10.4,63.2l-0.5,0.6L10.4,63.2l3.8,3.4l4.4-2.5c0.9-0.5,2,0.4,1.6,1.4L18,70.2l3.8,3.4c0.8,0.7,0.2,2.1-0.9,2
	l-5-0.5l-2.1,4.6 M10.4,63.2c-0.8-0.7-2.1,0-1.9,1.1l1.1,5l-4.4,2.5c-0.9,0.5-0.6,2,0.4,2.1l5,0.5l1.1,5c0.2,1.1,1.7,1.2,2.1,0.2"/>
<path class="st4 color-fill" d="M17.7,16.4c-0.6-0.9-2-0.5-2.1,0.6l-0.3,5l-4.9,1.3c-1.1,0.3-1.1,1.7-0.1,2.1l4.7,1.8l-0.3,5.1
	c-0.1,1.1,1.3,1.6,2,0.8l3.2-3.9l4.7,1.8c1,0.4,1.9-0.8,1.3-1.7L23.1,25l3.2-3.9c0.7-0.8-0.1-2.1-1.2-1.8l-4.9,1.3L17.7,16.4z"/>
<path class="st4 color-fill" d="M95.7,26.1c-0.1-1.1-1.5-1.5-2.1-0.6l-2.8,4.3L86,28.5c-1.1-0.3-1.9,0.9-1.2,1.8l3.2,3.9l-2.8,4.3
	c-0.6,0.9,0.3,2.1,1.3,1.7l-0.3-0.8l0.3,0.8l4.7-1.8l3.2,3.9c0.7,0.8,2.1,0.3,2-0.8l-0.3-5.1l4.7-1.8c1-0.4,0.9-1.9-0.1-2.1L96,31.1
	L95.7,26.1z"/>
<path class="st4 color-fill" d="M91.4,57.4c0.2-1.1-1-1.8-1.9-1.1l-3.8,3.4l-4.4-2.5c-0.9-0.5-2,0.4-1.6,1.4l2.1,4.6L78,66.7
	c-0.8,0.7-0.2,2.1,0.9,2l5-0.5l2.1,4.6c0.4,1,1.9,0.8,2.1-0.2l1.1-5l5-0.5c1.1-0.1,1.4-1.6,0.4-2.1l-4.4-2.5L91.4,57.4z"/>
<ellipse fill="none" stroke="#39363D" stroke-width="1.8" stroke-miterlimit="10" cx="46.1" cy="39.9" rx="7.8" ry="7.6"/>
</svg>
