<svg width="74" height="74" viewBox="0 0 74 74" fill="none" xmlns="http://www.w3.org/2000/svg">
<circle opacity="0.5" cx="37" cy="37" r="37" fill="#FFBF42"/>
<path d="M34.8776 20.0755C34.8776 17.7932 31.1981 16 26.7009 16C22.2037 16 18.5242 17.7932 18.5242 20.0755C18.5242 22.3578 22.2037 24.151 26.7009 24.151C31.1981 24.151 34.8776 22.3578 34.8776 20.0755Z" stroke="white" stroke-width="1.56312" stroke-miterlimit="10"/>
<path d="M18.5242 20.0757V24.1512C18.5242 26.4335 22.2037 28.2267 26.7009 28.2267C31.1981 28.2267 34.8776 26.4335 34.8776 24.1512V20.0757" stroke="white" stroke-width="1.56312" stroke-miterlimit="10"/>
<path d="M34.8781 28.2264V24.1509" stroke="white" stroke-width="1.56312" stroke-miterlimit="10" stroke-linecap="round"/>
<path d="M18.5242 24.1509V28.2264C18.5242 30.0196 20.8954 31.5683 24.2479 32.1389" stroke="white" stroke-width="1.56312" stroke-miterlimit="10" stroke-linecap="round"/>
<path d="M18.5242 28.2266V32.3021C18.5242 33.4432 19.4236 34.5029 20.9772 35.2364" stroke="white" stroke-width="1.56312" stroke-miterlimit="10" stroke-linecap="round"/>
<path d="M18.5242 28.2266V37.1927" stroke="white" stroke-width="1.56312" stroke-miterlimit="10" stroke-linecap="round"/>
<path d="M47.1432 33.1172V34.7474" stroke="white" stroke-width="1.56312" stroke-miterlimit="10"/>
<path d="M30.7893 41.2681V42.8983" stroke="white" stroke-width="1.56312" stroke-miterlimit="10"/>
<path d="M64.0684 34.0135L64.4314 34.7056C64.689 34.5705 64.8503 34.3036 64.85 34.0127C64.8497 33.7218 64.6879 33.4552 64.4301 33.3206L64.0684 34.0135ZM51.9183 40.385L51.5577 41.0784C51.7846 41.1964 52.0548 41.1959 52.2813 41.0772L51.9183 40.385ZM46.7338 24.9658L47.0954 24.273C46.8689 24.1547 46.5988 24.1547 46.3722 24.273L46.7338 24.9658ZM34.5243 31.3383L34.1626 30.6455C33.9044 30.7803 33.7425 31.0476 33.7427 31.3389C33.7429 31.6302 33.9052 31.8973 34.1636 32.0317L34.5243 31.3383ZM43.0544 45.0333L43.4173 45.7255C43.6747 45.5905 43.8359 45.3239 43.8359 45.0333H43.0544ZM43.0544 44.8544H43.8359C43.8359 44.5719 43.6835 44.3114 43.4372 44.173L43.0544 44.8544ZM26.4755 35.5393L26.8583 34.8579C26.628 34.7285 26.348 34.7242 26.1138 34.8464L26.4755 35.5393ZM13.7817 42.1645L13.4201 41.4716C13.1624 41.6061 13.0007 41.8724 13.0002 42.163C12.9996 42.4537 13.1604 42.7206 13.4175 42.856L13.7817 42.1645ZM31.1163 51.2936L30.7521 51.9852C30.9797 52.105 31.2516 52.1052 31.4793 51.9858L31.1163 51.2936ZM63.7055 33.3213L51.5554 39.6928L52.2813 41.0772L64.4314 34.7056L63.7055 33.3213ZM46.3722 25.6587L63.7068 34.7063L64.4301 33.3206L47.0954 24.273L46.3722 25.6587ZM34.8859 32.0312L47.0954 25.6587L46.3722 24.273L34.1626 30.6455L34.8859 32.0312ZM34.1636 32.0317L51.5577 41.0784L52.279 39.6916L34.8849 30.645L34.1636 32.0317ZM43.8359 45.0333V44.8544H42.2728V45.0333H43.8359ZM43.4372 44.173L26.8583 34.8579L26.0926 36.2206L42.6715 45.5358L43.4372 44.173ZM14.1433 42.8574L26.8371 36.2321L26.1138 34.8464L13.4201 41.4716L14.1433 42.8574ZM31.4805 50.6021L14.1459 41.473L13.4175 42.856L30.7521 51.9852L31.4805 50.6021ZM42.6914 44.3411L30.7533 50.6015L31.4793 51.9858L43.4173 45.7255L42.6914 44.3411Z" fill="white"/>
<path d="M43.0544 44.8547L25.0656 34.7474L33.2423 30.6719L52.0487 40.4531V50.3159L43.0544 55.125V44.8547Z" stroke="white" stroke-width="1.56312" stroke-miterlimit="10" stroke-linejoin="round"/>
<path fill-rule="evenodd" clip-rule="evenodd" d="M43.0544 52.139L31.1155 58.3998L14.1434 49.5414C13.7607 49.3416 13.2886 49.4899 13.0889 49.8726C12.8891 50.2553 13.0374 50.7274 13.4201 50.9271L30.7547 59.9747C30.9818 60.0932 31.2525 60.093 31.4793 59.974L43.0544 53.904V52.139ZM52.0487 49.1874L64.4314 42.6938C64.8137 42.4934 64.9611 42.021 64.7606 41.6387C64.5601 41.2564 64.0877 41.1091 63.7055 41.3095L52.0487 47.4223V49.1874Z" fill="white"/>
<path fill-rule="evenodd" clip-rule="evenodd" d="M43.0544 48.1451L31.1155 54.4059L14.1434 45.5475C13.7607 45.3477 13.2886 45.496 13.0889 45.8787C12.8891 46.2614 13.0374 46.7335 13.4201 46.9332L30.7547 55.9808C30.9818 56.0994 31.2525 56.0991 31.4793 55.9801L43.0544 49.9101V48.1451ZM52.0487 45.1935L64.4314 38.7C64.8137 38.4995 64.9611 38.0271 64.7606 37.6448C64.5601 37.2626 64.0877 37.1152 63.7055 37.3156L52.0487 43.4285V45.1935Z" fill="white"/>
<path d="M54.8293 33.4429L55.1779 34.1424L56.5414 33.4627L55.1941 32.7517L54.8293 33.4429ZM47.8791 29.7749L48.2439 29.0837L47.8893 28.8966L47.5304 29.0754L47.8791 29.7749ZM54.8293 35.3176L55.1905 36.0107L56.4484 35.355L55.2222 34.642L54.8293 35.3176ZM48.5091 38.6121L48.1484 39.3055L48.5095 39.4932L48.8703 39.3051L48.5091 38.6121ZM38.012 33.1526L37.6487 32.4606L36.3245 33.1559L37.6514 33.8459L38.012 33.1526ZM44.4449 29.7749L44.8182 29.0883L44.4513 28.8888L44.0815 29.0829L44.4449 29.7749ZM29.8524 37.4369L30.2352 36.7555L29.865 36.5475L29.4891 36.7449L29.8524 37.4369ZM23.0219 41.0233L22.6586 40.3314L21.3062 41.0414L22.6733 41.7228L23.0219 41.0233ZM23.0219 42.8166L22.6733 42.1171L21.3098 42.7967L22.6571 43.5078L23.0219 42.8166ZM29.9721 46.4845L29.6073 47.1757L29.9619 47.3629L30.3208 47.184L29.9721 46.4845ZM33.4063 46.4845L33.0577 47.184L33.4143 47.3617L33.7676 47.1776L33.4063 46.4845ZM39.916 43.0913L40.2773 43.7843L41.5574 43.1171L40.2988 42.4099L39.916 43.0913ZM55.1941 32.7517L48.2439 29.0837L47.5143 30.4661L54.4645 34.1341L55.1941 32.7517ZM55.2222 34.642C55.0261 34.528 54.9091 34.4271 54.8477 34.3554C54.7867 34.2844 54.8087 34.2768 54.8121 34.3313C54.8164 34.4 54.7839 34.4268 54.8112 34.3937C54.8483 34.3487 54.9501 34.2559 55.1779 34.1424L54.4806 32.7434C53.8367 33.0644 53.2006 33.6084 53.252 34.4291C53.2986 35.1716 53.9015 35.6822 54.4364 35.9932L55.2222 34.642ZM48.8703 39.3051L55.1905 36.0107L54.468 34.6245L48.1478 37.919L48.8703 39.3051ZM37.6514 33.8459L48.1484 39.3055L48.8697 37.9187L38.3727 32.4592L37.6514 33.8459ZM44.0815 29.0829L37.6487 32.4606L38.3754 33.8445L44.8082 30.4669L44.0815 29.0829ZM47.5304 29.0754C46.6131 29.5327 45.4926 29.455 44.8182 29.0883L44.0715 30.4615C45.1961 31.073 46.8556 31.1583 48.2277 30.4744L47.5304 29.0754ZM29.4891 36.7449L22.6586 40.3314L23.3852 41.7153L30.2157 38.1289L29.4891 36.7449ZM22.6733 41.7228C22.901 41.8363 23.004 41.9297 23.042 41.9753C23.0715 42.0107 23.034 41.9803 23.0392 41.9C23.0437 41.8307 23.0742 41.8243 23.023 41.8797C22.9704 41.9366 22.8625 42.0228 22.6733 42.1171L23.3706 43.516C23.9153 43.2445 24.55 42.7588 24.5991 42.001C24.6519 41.1852 24.008 40.6416 23.3706 40.3238L22.6733 41.7228ZM22.6571 43.5078L29.6073 47.1757L30.3369 45.7933L23.3867 42.1253L22.6571 43.5078ZM30.3208 47.184C31.1006 46.7953 32.1501 46.7316 33.0577 47.184L33.755 45.785C32.3731 45.0963 30.806 45.1956 29.6235 45.785L30.3208 47.184ZM33.7676 47.1776L40.2773 43.7843L39.5547 42.3982L33.0451 45.7915L33.7676 47.1776ZM40.2988 42.4099L30.2352 36.7555L29.4696 38.1183L39.5332 43.7727L40.2988 42.4099Z" fill="white"/>
</svg>
