<svg width="74" height="74" viewBox="0 0 74 74" fill="none" xmlns="http://www.w3.org/2000/svg">
<circle opacity="0.5" cx="37" cy="37" r="37" fill="#FFBF42"/>
<path d="M25.4663 23.7049C25.9988 22.8226 28.4385 20.0724 29.0887 19.23C29.2745 18.9492 29.3674 18.762 29.1816 18.5748C28.9958 18.3876 28.6243 18.3876 28.2528 18.4812C27.5097 18.6684 26.488 18.4812 25.4663 18.1068C23.33 17.4516 20.1721 16.6092 18.9646 18.8556C18.8717 19.0428 18.9646 19.1364 19.1504 19.4172C19.8005 20.166 21.9124 22.7689 22.4696 23.7049H25.4663Z" stroke="white" stroke-width="1.7" stroke-miterlimit="10"/>
<path d="M24.5375 47.497C20.0792 47.497 15.528 46.6546 11.7198 44.9698C11.4412 44.7826 11.1625 44.5954 11.0697 44.221C10.9768 43.9402 10.9768 43.5658 11.0697 43.1914C11.7198 41.5066 11.9985 39.7282 12.1842 37.4818C12.2771 35.9842 12.37 34.861 12.5558 34.1122C13.2059 31.3042 14.5992 27.9346 21.1009 24.4714C21.4874 24.2767 21.9477 24.0654 22.4697 23.904C23.0809 23.7149 23.7767 23.5941 24.5375 23.6482C25.3129 23.7034 26.1557 23.9402 27.0453 24.4714C29.217 25.7587 30.8286 26.9686 32.035 28.1162" stroke="white" stroke-width="1.7" stroke-miterlimit="10"/>
<path d="M44.9678 23.264C45.8038 22.328 48.5939 17.7325 49.5227 16.5157C49.8013 16.1413 49.8942 15.8605 49.6156 15.5797C49.3369 15.2989 48.8725 15.2989 48.2223 15.4861C47.1077 15.7669 45.7145 15.4861 44.2284 15.0181C41.1633 14.0821 36.705 12.8653 34.9402 16.1413C34.7545 16.4221 34.8474 16.5157 35.2189 16.8901C36.1477 17.9197 38.9311 22.328 39.6742 23.264C39.6742 23.264 40.9976 22.8228 42.321 22.8228C43.6444 22.8228 44.9678 23.264 44.9678 23.264Z" stroke="white" stroke-width="1.7" stroke-miterlimit="10"/>
<path d="M60.8543 50.7733C59.9255 48.4333 59.5539 45.9061 59.2753 42.7237C59.0895 40.5709 58.9038 38.9797 58.718 37.8565C57.7892 33.8317 55.56 29.4325 46.4576 24.0973C42.8352 22.0381 39.863 23.1613 38.0054 24.0973C28.7172 28.9645 26.7667 33.8317 25.745 37.8565C25.4663 38.8861 25.3734 40.5709 25.1877 42.7237C24.909 45.9061 24.5375 48.4333 23.6087 50.7733C23.4229 51.2413 23.4229 51.8029 23.6087 52.2709C23.7944 52.7389 24.166 53.1132 24.5375 53.3004C29.9246 55.6404 36.5192 56.8572 42.8352 56.8572C49.2441 56.8572 55.3742 55.6404 60.1112 53.3004C60.8543 52.8324 61.2258 51.7093 60.8543 50.7733Z" stroke="white" stroke-width="1.7" stroke-miterlimit="10"/>
<path d="M40.7919 26.999C32.8041 31.211 31.0393 35.3294 30.2034 38.8862" stroke="white" stroke-width="1.7" stroke-miterlimit="10"/>
<path d="M22.7728 28.2156C17.9429 30.7428 16.8283 33.27 16.3639 35.4228" stroke="white" stroke-width="1.7" stroke-miterlimit="10"/>
<path d="M38.6024 48.9988V46.0068H36.6884V44.5768H38.6024V42.6188H36.6884V40.9468H38.6024V33.2908H42.7384C44.6598 33.2908 46.0824 33.6794 47.0064 34.4568C47.9451 35.2341 48.4144 36.3634 48.4144 37.8448C48.4144 39.3408 47.9084 40.5141 46.8964 41.3648C45.8844 42.2008 44.3958 42.6188 42.4304 42.6188H40.5824V44.5768H44.2124V46.0068H40.5824V48.9988H38.6024ZM40.5824 40.9468H42.1444C43.4791 40.9468 44.5131 40.7268 45.2464 40.2868C45.9944 39.8468 46.3684 39.0548 46.3684 37.9108C46.3684 36.9134 46.0604 36.1728 45.4444 35.6888C44.8284 35.2048 43.8678 34.9628 42.5624 34.9628H40.5824V40.9468Z" fill="white"/>
<path d="M38.6024 48.9988H38.3524V49.2488H38.6024V48.9988ZM38.6024 46.0068H38.8524V45.7568H38.6024V46.0068ZM36.6884 46.0068H36.4384V46.2568H36.6884V46.0068ZM36.6884 44.5768V44.3268H36.4384V44.5768H36.6884ZM38.6024 44.5768V44.8268H38.8524V44.5768H38.6024ZM38.6024 42.6188H38.8524V42.3688H38.6024V42.6188ZM36.6884 42.6188H36.4384V42.8688H36.6884V42.6188ZM36.6884 40.9468V40.6968H36.4384V40.9468H36.6884ZM38.6024 40.9468V41.1968H38.8524V40.9468H38.6024ZM38.6024 33.2908V33.0408H38.3524V33.2908H38.6024ZM47.0064 34.4568L46.8455 34.6481L46.847 34.6493L47.0064 34.4568ZM46.8964 41.3648L47.0557 41.5575L47.0573 41.5562L46.8964 41.3648ZM40.5824 42.6188V42.3688H40.3324V42.6188H40.5824ZM40.5824 44.5768H40.3324V44.8268H40.5824V44.5768ZM44.2124 44.5768H44.4624V44.3268H44.2124V44.5768ZM44.2124 46.0068V46.2568H44.4624V46.0068H44.2124ZM40.5824 46.0068V45.7568H40.3324V46.0068H40.5824ZM40.5824 48.9988V49.2488H40.8324V48.9988H40.5824ZM40.5824 40.9468H40.3324V41.1968H40.5824V40.9468ZM45.2464 40.2868L45.1197 40.0713L45.1178 40.0724L45.2464 40.2868ZM40.5824 34.9628V34.7128H40.3324V34.9628H40.5824ZM38.8524 48.9988V46.0068H38.3524V48.9988H38.8524ZM38.6024 45.7568H36.6884V46.2568H38.6024V45.7568ZM36.9384 46.0068V44.5768H36.4384V46.0068H36.9384ZM36.6884 44.8268H38.6024V44.3268H36.6884V44.8268ZM38.8524 44.5768V42.6188H38.3524V44.5768H38.8524ZM38.6024 42.3688H36.6884V42.8688H38.6024V42.3688ZM36.9384 42.6188V40.9468H36.4384V42.6188H36.9384ZM36.6884 41.1968H38.6024V40.6968H36.6884V41.1968ZM38.8524 40.9468V33.2908H38.3524V40.9468H38.8524ZM38.6024 33.5408H42.7384V33.0408H38.6024V33.5408ZM42.7384 33.5408C44.6337 33.5408 45.9865 33.9254 46.8455 34.6481L47.1674 34.2655C46.1784 33.4334 44.6859 33.0408 42.7384 33.0408V33.5408ZM46.847 34.6493C47.716 35.369 48.1644 36.4203 48.1644 37.8448H48.6644C48.6644 36.3066 48.1742 35.0993 47.1659 34.2642L46.847 34.6493ZM48.1644 37.8448C48.1644 39.2779 47.6832 40.3768 46.7356 41.1734L47.0573 41.5562C48.1337 40.6514 48.6644 39.4037 48.6644 37.8448H48.1644ZM46.7372 41.172C45.7876 41.9565 44.3655 42.3688 42.4304 42.3688V42.8688C44.4261 42.8688 45.9813 42.445 47.0557 41.5575L46.7372 41.172ZM42.4304 42.3688H40.5824V42.8688H42.4304V42.3688ZM40.3324 42.6188V44.5768H40.8324V42.6188H40.3324ZM40.5824 44.8268H44.2124V44.3268H40.5824V44.8268ZM43.9624 44.5768V46.0068H44.4624V44.5768H43.9624ZM44.2124 45.7568H40.5824V46.2568H44.2124V45.7568ZM40.3324 46.0068V48.9988H40.8324V46.0068H40.3324ZM40.5824 48.7488H38.6024V49.2488H40.5824V48.7488ZM40.5824 41.1968H42.1444V40.6968H40.5824V41.1968ZM42.1444 41.1968C43.5012 41.1968 44.5869 40.9741 45.3751 40.5012L45.1178 40.0724C44.4393 40.4795 43.457 40.6968 42.1444 40.6968V41.1968ZM45.3732 40.5023C46.2217 40.0031 46.6184 39.1113 46.6184 37.9108H46.1184C46.1184 38.9983 45.7672 39.6904 45.1197 40.0713L45.3732 40.5023ZM46.6184 37.9108C46.6184 36.8596 46.2912 36.0361 45.5989 35.4922L45.29 35.8854C45.8297 36.3094 46.1184 36.9673 46.1184 37.9108H46.6184ZM45.5989 35.4922C44.918 34.9572 43.8896 34.7128 42.5624 34.7128V35.2128C43.8459 35.2128 44.7389 35.4524 45.29 35.8854L45.5989 35.4922ZM42.5624 34.7128H40.5824V35.2128H42.5624V34.7128ZM40.3324 34.9628V40.9468H40.8324V34.9628H40.3324Z" fill="white"/>
</svg>
