<svg width="375" height="276" viewBox="0 0 375 276" fill="none" xmlns="http://www.w3.org/2000/svg">
<mask id="mask0" mask-type="alpha" maskUnits="userSpaceOnUse" x="0" y="0" width="375" height="276">
<rect width="375" height="275.897" fill="#C4C4C4"/>
</mask>
<g mask="url(#mask0)">
<g style="mix-blend-mode:screen" opacity="0.1">
<path d="M-382.707 -14.7321C-298.256 17.9358 -239.804 39.883 -133.523 56.3561C-104.861 59.6863 -45.9038 65.3554 23.6496 51.404C93.7425 38.8125 170.73 2.95286 239.727 -38.5151C308.725 -79.9832 375.706 -120.418 431.232 -135.054C461.365 -142.836 492.172 -148.056 523.337 -150.071C554.435 -152.687 585.699 -152.077 616.726 -148.4C670.515 -142.161 757.292 -119.888 796.802 -40.2923C815.275 -1.56962 820.582 42.4567 811.919 84.5754C803.616 126.452 772.96 159.03 740.289 173.581C672.537 205.381 610.001 179.828 584.642 169.645C533.731 152.748 490.66 145.328 451.892 153.859C432.828 158.393 415.393 168.831 402.176 184.077C396.024 191.446 389.892 202.464 395.245 212.216C400.709 222.969 417.432 218.287 418.723 205.573C418.5 219.183 398.005 226.512 391.516 215.263C385.028 204.014 393.153 191.763 399.091 184.214C412.748 167.703 430.814 155.979 450.937 150.517C490.551 140.879 534.387 148.214 585.681 165.07C611.85 175.569 671.741 199.994 738.266 169.343C770.002 155.098 799.452 123.869 807.506 83.2367C816.112 42.3409 810.917 -0.683826 792.748 -38.426C754.655 -115.745 669.623 -138.007 616.047 -144.066C585.212 -147.765 554.353 -148.217 523.424 -145.823C492.642 -143.85 462.004 -138.851 432.085 -130.89C377.302 -116.538 310.873 -76.3671 241.684 -34.878C172.495 6.61112 95.192 43.1139 24.5249 55.7686C-45.8165 69.6041 -105.134 64.1775 -134.01 60.6681C-241.057 44.2794 -299.305 20.6875 -382.707 -14.7321Z" fill="#A81C25" fill-opacity="0.3"/>
<path d="M-382.707 -14.7321C-298.256 17.9358 -239.804 39.883 -133.523 56.3561C-104.861 59.6863 -45.9038 65.3554 23.6496 51.404C93.7425 38.8125 170.73 2.95286 239.727 -38.5151C308.725 -79.9832 375.706 -120.418 431.232 -135.054C461.365 -142.836 492.172 -148.056 523.337 -150.071C554.435 -152.687 585.699 -152.077 616.726 -148.4C670.515 -142.161 757.292 -119.888 796.802 -40.2923C815.275 -1.56962 820.582 42.4567 811.919 84.5754C803.616 126.452 772.96 159.03 740.289 173.581C672.537 205.381 610.001 179.828 584.642 169.645C533.731 152.748 490.66 145.328 451.892 153.859C432.828 158.393 415.393 168.831 402.176 184.077C396.024 191.446 389.892 202.464 395.245 212.216C400.709 222.969 417.432 218.287 418.723 205.573C418.5 219.183 398.005 226.512 391.516 215.263C385.028 204.014 393.153 191.763 399.091 184.214C412.748 167.703 430.814 155.979 450.937 150.517C490.551 140.879 534.387 148.214 585.681 165.07C611.85 175.569 671.741 199.994 738.266 169.343C770.002 155.098 799.452 123.869 807.506 83.2367C816.112 42.3409 810.917 -0.683826 792.748 -38.426C754.655 -115.745 669.623 -138.007 616.047 -144.066C585.212 -147.765 554.353 -148.217 523.424 -145.823C492.642 -143.85 462.004 -138.851 432.085 -130.89C377.302 -116.538 310.873 -76.3671 241.684 -34.878C172.495 6.61112 95.192 43.1139 24.5249 55.7686C-45.8165 69.6041 -105.134 64.1775 -134.01 60.6681C-241.057 44.2794 -299.305 20.6875 -382.707 -14.7321Z" fill="#FFD43E"/>
<path d="M79.7867 198.418C89.4463 191.293 99.8365 185.503 110.766 181.068C127.425 174.184 144.409 168.478 161.977 164.526C175.573 161.415 189.494 159.48 203.549 158.744C217.626 158.208 231.714 159.489 245.429 162.63C267.786 166.842 288.943 181.09 295.968 193.657C305.701 211.383 294.688 223.71 280.859 223.006C293.453 219.601 292.729 207.959 287.066 195.444C283.751 188.33 266.129 171.067 244.56 166.97C231.059 164.007 217.354 162.684 203.658 163.179C189.986 163.873 176.256 165.786 162.852 168.876C145.689 172.985 128.682 178.492 112.406 185.334C98.8877 190.862 91.0764 193.741 79.7867 198.418Z" fill="#A81C25" fill-opacity="0.3"/>
<path d="M79.7867 198.418C89.4463 191.293 99.8365 185.503 110.766 181.068C127.425 174.184 144.409 168.478 161.977 164.526C175.573 161.415 189.494 159.48 203.549 158.744C217.626 158.208 231.714 159.489 245.429 162.63C267.786 166.842 288.943 181.09 295.968 193.657C305.701 211.383 294.688 223.71 280.859 223.006C293.453 219.601 292.729 207.959 287.066 195.444C283.751 188.33 266.129 171.067 244.56 166.97C231.059 164.007 217.354 162.684 203.658 163.179C189.986 163.873 176.256 165.786 162.852 168.876C145.689 172.985 128.682 178.492 112.406 185.334C98.8877 190.862 91.0764 193.741 79.7867 198.418Z" fill="#FFD43E"/>
<path d="M-70.6488 70.2527C-70.6488 70.2527 -37.2022 70.9953 -21.7546 94.9855C-11.6913 110.607 5.39547 94.6216 14.5386 112.333C7.72032 86.2105 -16.3832 70.9215 -70.6488 70.2527Z" fill="#A81C25" fill-opacity="0.3"/>
<path d="M-70.6488 70.2527C-70.6488 70.2527 -37.2022 70.9953 -21.7546 94.9855C-11.6913 110.607 5.39547 94.6216 14.5386 112.333C7.72032 86.2105 -16.3832 70.9215 -70.6488 70.2527Z" fill="#FFD43E"/>
<path d="M9.12775 127.902C5.73383 135.18 -2.7411 138.27 -9.86274 134.699C-16.9844 131.127 -20.0891 122.381 -16.6952 115.103C-13.3012 107.825 -4.82632 104.734 2.29532 108.306C9.41696 111.878 12.5217 120.624 9.12775 127.902ZM-4.62216 133.538C-3.01716 134.154 -1.35562 133.579 -0.585282 131.916C-0.00448527 130.274 -0.583051 128.559 -2.21022 127.749C-3.62568 127.112 -5.47681 127.708 -6.07977 129.155C-6.82794 131.013 -6.22716 132.923 -4.62216 133.538C-4.8117 133.559 -4.62216 133.538 -4.62216 133.538ZM-5.74401 110.165C-13.8721 111.243 -15.7619 119.938 -15.6632 122.494C-15.6632 122.494 -12.7592 114.282 -4.82069 113.224C1.60149 112.33 7.30548 118.622 7.30548 118.622C6.73905 115.327 1.24679 109.21 -5.74401 110.165Z" fill="#A81C25" fill-opacity="0.3"/>
<path d="M9.12775 127.902C5.73383 135.18 -2.7411 138.27 -9.86274 134.699C-16.9844 131.127 -20.0891 122.381 -16.6952 115.103C-13.3012 107.825 -4.82632 104.734 2.29532 108.306C9.41696 111.878 12.5217 120.624 9.12775 127.902ZM-4.62216 133.538C-3.01716 134.154 -1.35562 133.579 -0.585282 131.916C-0.00448527 130.274 -0.583051 128.559 -2.21022 127.749C-3.62568 127.112 -5.47681 127.708 -6.07977 129.155C-6.82794 131.013 -6.22716 132.923 -4.62216 133.538C-4.8117 133.559 -4.62216 133.538 -4.62216 133.538ZM-5.74401 110.165C-13.8721 111.243 -15.7619 119.938 -15.6632 122.494C-15.6632 122.494 -12.7592 114.282 -4.82069 113.224C1.60149 112.33 7.30548 118.622 7.30548 118.622C6.73905 115.327 1.24679 109.21 -5.74401 110.165Z" fill="#FFD43E"/>
<path d="M165.615 145.257C151.618 156.618 112.348 190.807 79.3152 204.851C33.4792 227.117 -14.093 223.687 -13.5199 223.625C-13.2842 224 -60.0152 222.887 -106.16 201.243C-152.721 181.048 -195.823 145.227 -209.399 132.865C-234.801 109.957 -249.306 91.0756 -266.404 68.063C-247.193 89.2394 -231.675 106.806 -206.701 129.36C-193.337 141.544 -150.471 176.99 -104.505 197.049C-58.9562 218.557 -13.2027 219.577 -13.4384 219.201C-13.8205 219.243 23.8629 224.154 76.385 201.158C110.665 186.176 154.86 147.636 155.934 138.289C155.934 138.289 159.266 145.549 165.615 145.257Z" fill="#A81C25" fill-opacity="0.3"/>
<path d="M165.615 145.257C151.618 156.618 112.348 190.807 79.3152 204.851C33.4792 227.117 -14.093 223.687 -13.5199 223.625C-13.2842 224 -60.0152 222.887 -106.16 201.243C-152.721 181.048 -195.823 145.227 -209.399 132.865C-234.801 109.957 -249.306 91.0756 -266.404 68.063C-247.193 89.2394 -231.675 106.806 -206.701 129.36C-193.337 141.544 -150.471 176.99 -104.505 197.049C-58.9562 218.557 -13.2027 219.577 -13.4384 219.201C-13.8205 219.243 23.8629 224.154 76.385 201.158C110.665 186.176 154.86 147.636 155.934 138.289C155.934 138.289 159.266 145.549 165.615 145.257Z" fill="#FFD43E"/>
<path d="M199.171 -11.0342C225.967 -28.2958 254.454 -42.5531 284.06 -53.7439C303.73 -60.6657 365.982 -85.1713 426.194 -76.5765C488.862 -68.448 520.836 -12.7442 519.514 -14.1945C525.506 -3.8867 529.871 7.39508 532.184 19.2986C536.857 40.1116 533.719 73.7302 510.272 95.0112C486.826 116.292 446.76 110.089 429.07 88.5002C411.079 65.9476 414.515 40.068 417.403 29.7906C432.24 -11.2776 486.813 -3.06569 487.564 32.521C483.281 -1.88441 427.283 7.99241 421.416 31.1475C418.775 40.2023 418.718 60.1351 440.684 73.4877C456.206 82.7589 476.3 79.577 492.709 69.4231C507.873 60.2017 515.494 47.4169 518.139 31.5865C521.662 9.88203 517.232 -5.37801 513.459 -13.1374C509.685 -20.8968 486.023 -64.5525 425.519 -72.3185C367.066 -80.7062 304.96 -56.615 285.481 -49.7139C256.279 -38.3677 227.445 -25.4676 199.171 -11.0342Z" fill="#A81C25" fill-opacity="0.3"/>
<path d="M199.171 -11.0342C225.967 -28.2958 254.454 -42.5531 284.06 -53.7439C303.73 -60.6657 365.982 -85.1713 426.194 -76.5765C488.862 -68.448 520.836 -12.7442 519.514 -14.1945C525.506 -3.8867 529.871 7.39508 532.184 19.2986C536.857 40.1116 533.719 73.7302 510.272 95.0112C486.826 116.292 446.76 110.089 429.07 88.5002C411.079 65.9476 414.515 40.068 417.403 29.7906C432.24 -11.2776 486.813 -3.06569 487.564 32.521C483.281 -1.88441 427.283 7.99241 421.416 31.1475C418.775 40.2023 418.718 60.1351 440.684 73.4877C456.206 82.7589 476.3 79.577 492.709 69.4231C507.873 60.2017 515.494 47.4169 518.139 31.5865C521.662 9.88203 517.232 -5.37801 513.459 -13.1374C509.685 -20.8968 486.023 -64.5525 425.519 -72.3185C367.066 -80.7062 304.96 -56.615 285.481 -49.7139C256.279 -38.3677 227.445 -25.4676 199.171 -11.0342Z" fill="#FFD43E"/>
<path d="M-207.369 140.48C-207.369 140.48 -124.671 223.602 -49.0893 223.545C-52.9701 230.134 -58.6521 232.74 -68.4233 234.996C-57.4 236.981 9.48113 211.212 18.1258 253.442C4.06567 234.877 -45.5107 268.713 -98.6348 244.048C-143.795 223.293 -175.834 182.212 -207.369 140.48Z" fill="#A81C25" fill-opacity="0.3"/>
<path d="M-207.369 140.48C-207.369 140.48 -124.671 223.602 -49.0893 223.545C-52.9701 230.134 -58.6521 232.74 -68.4233 234.996C-57.4 236.981 9.48113 211.212 18.1258 253.442C4.06567 234.877 -45.5107 268.713 -98.6348 244.048C-143.795 223.293 -175.834 182.212 -207.369 140.48Z" fill="#FFD43E"/>
<path d="M85.0267 40.0167C93.1064 36.9729 101.597 35.8555 109.61 32.2277C166.438 6.55625 213.295 -34.3922 191.451 -81.6893C174.419 -118.668 134.576 -120.459 111.075 -99.7797C87.0727 -78.455 83.9174 -33.7692 120.525 -20.0001C157.133 -6.23095 182.009 -36.7162 162.946 -64.6064C172.738 -32.3608 139.288 -8.23815 121.53 -24.6419C103.349 -41.394 105.98 -67.1029 125.937 -78.5292C141.932 -87.7521 168.68 -88.2867 179.82 -74.5159C197.63 -52.5995 186.003 -18.4263 144.205 9.75462C118.937 26.6837 85.0267 40.0167 85.0267 40.0167Z" fill="#A81C25" fill-opacity="0.3"/>
<path d="M85.0267 40.0167C93.1064 36.9729 101.597 35.8555 109.61 32.2277C166.438 6.55625 213.295 -34.3922 191.451 -81.6893C174.419 -118.668 134.576 -120.459 111.075 -99.7797C87.0727 -78.455 83.9174 -33.7692 120.525 -20.0001C157.133 -6.23095 182.009 -36.7162 162.946 -64.6064C172.738 -32.3608 139.288 -8.23815 121.53 -24.6419C103.349 -41.394 105.98 -67.1029 125.937 -78.5292C141.932 -87.7521 168.68 -88.2867 179.82 -74.5159C197.63 -52.5995 186.003 -18.4263 144.205 9.75462C118.937 26.6837 85.0267 40.0167 85.0267 40.0167Z" fill="#FFD43E"/>
<path d="M-57.0775 66.8689C-35.0119 64.4741 8.66212 57.3533 51.4165 70.9671C91.9894 84.0239 112.373 139.748 70.9852 158.525C44.9974 170.472 17.3717 154.423 16.6382 129.304C15.8379 103.598 43.3173 86.1316 61.8347 103.368C44.4665 91.1656 20.4477 103.494 28.7254 123.826C35.5848 140.145 54.2811 140.298 65.5084 132.334C77.8103 123.658 78.5806 91.4315 50.7525 76.9915C21.1011 61.7573 -16.1944 67.3922 -57.0775 66.8689Z" fill="#A81C25" fill-opacity="0.3"/>
<path d="M-57.0775 66.8689C-35.0119 64.4741 8.66212 57.3533 51.4165 70.9671C91.9894 84.0239 112.373 139.748 70.9852 158.525C44.9974 170.472 17.3717 154.423 16.6382 129.304C15.8379 103.598 43.3173 86.1316 61.8347 103.368C44.4665 91.1656 20.4477 103.494 28.7254 123.826C35.5848 140.145 54.2811 140.298 65.5084 132.334C77.8103 123.658 78.5806 91.4315 50.7525 76.9915C21.1011 61.7573 -16.1944 67.3922 -57.0775 66.8689Z" fill="#FFD43E"/>
<path d="M201.323 70.6383C207.456 60.5042 217.545 64.9345 214.196 75.9505C210.847 86.9665 197.813 90.3521 197.813 90.3521C203.031 82.2899 196.963 77.8184 201.323 70.6383ZM184.227 66.9675C193.321 77.8186 198.417 104.096 170.189 123.924C170.189 123.924 123.388 83.2285 168.012 28.8749C170.465 42.0239 175.134 56.1164 184.227 66.9675ZM170.974 98.7849C177.271 110.334 175.867 111.472 172.512 114.006C160.435 100.519 156.538 81.4108 162.843 64.3534C163.892 60.0968 163.383 55.6146 161.235 51.9018C145.139 87.381 171.986 117.811 171.986 117.811C187.497 109.225 180.959 92.1789 175.997 82.2609C172.526 75.3378 170.806 65.2658 169.374 57.7271C162.121 78.2411 164.677 87.2362 170.974 98.7849ZM205.061 95.0902C218.277 86.5557 228.235 86.4628 237.112 88.6572C245.988 90.8515 254.441 92.6972 263.297 91.3427C255.526 102.246 250.304 117.016 224.42 130.475C197.254 144.467 178.006 128.601 174.943 126.96C175.88 125.083 191.845 103.625 205.061 95.0902ZM245.411 104.329C242.883 104.011 241.857 105.109 238.904 107.796C235.95 110.484 214.069 135.542 189.471 123.215C191.288 120.651 199.244 116.435 204.468 116.855C209.692 117.275 218.779 119.644 236.601 102.719C223.613 103.141 218.67 100.125 209.009 104.526C199.349 108.927 189.342 115.338 184.257 124.57C184.424 124.354 217.136 145.666 245.411 104.329ZM270.016 54.3153C271.095 73.9262 265.254 79.8858 257.967 83.2402C250.513 86.8101 242.438 84.9233 235.21 83.734C228.739 82.4626 218.747 83.9402 216.474 84.1865C217.901 83.2428 219.138 82.3196 220.375 81.3964L220.898 80.9451C222.47 79.5911 224.019 78.0422 225.379 76.5139C228.601 72.811 232.056 69.4773 235.7 66.1231C233.75 67.5182 231.544 68.3491 229.104 68.8108C229.284 67.0159 229.463 65.2209 229.264 63.467C229.197 62.8824 229.131 62.2978 229.042 61.5182C233.344 58.882 237.389 55.6816 240.989 51.9376C237.345 55.2919 232.999 57.5384 228.353 58.831C228.053 57.8772 227.564 56.9438 227.074 56.0105C231.476 52.5742 235.433 48.5943 239.156 44.2452C234.966 47.8558 230.352 51.1178 225.694 53.99C225.038 53.2721 224.381 52.5541 223.746 52.0311C226.835 47.1589 232.52 39.8352 236.635 33.8655C233.659 36.3581 226.235 45.2512 222.054 50.6363C221.442 50.3081 220.829 49.9799 220.217 49.6517C221.847 43.754 224.382 34.0099 225.22 29.5789C222.621 35.3844 219.184 45.6209 218.19 48.6877C217.578 48.3596 216.988 48.2262 216.397 48.093C215.406 47.8058 214.226 47.5392 213.067 47.4675C213.537 44.852 215.403 35.9695 214.736 33.4772C214.343 38.4517 212.791 43.3546 210.204 47.5805C209.636 47.6421 209.09 47.8986 208.544 48.155C207.956 44.6678 206.633 41.4575 204.931 38.2882C206.343 42.278 206.073 46.6474 204.388 50.381C203.151 51.3042 202.103 52.2069 201.078 53.3044C200.055 51.048 198.508 49.2429 196.437 47.8891C199.728 56.6072 194.79 62.0744 192.902 70.762C191.446 66.3824 184.979 58.4031 181.019 50.5466C177.058 42.6902 173.858 31.3977 180.637 20.2071C187.417 9.01654 198.494 1.89763 206.927 0.194461C215.36 -1.50871 219.065 5.7836 220.005 15.7429C221.111 10.2964 227.121 0.767517 239.347 7.13618C251.574 13.5048 255.318 27.8948 242.569 37.1678C253.511 32.2336 269.08 37.6481 270.016 54.3153ZM199.793 8.267C183.625 16.135 178.536 32.0744 182.361 42.1155C182.361 42.1155 179.465 25.0689 197.929 13.7955C213.351 4.43009 215.081 16.2765 215.081 16.2765C215.081 16.2765 216.15 0.378479 199.793 8.267ZM243.253 31.3727C243.253 31.3727 252.194 18.9614 237.016 11.9262C226.081 6.79857 222.597 19.9993 222.597 19.9993C222.597 19.9993 225.12 11.8347 235.376 16.0496C247.258 21.0746 243.253 31.3727 243.253 31.3727ZM244.828 41.855C250.742 41.6085 260.076 42.7668 262.185 54.5723C265.115 70.2342 256.009 79.5069 246.585 80.9229C249.703 81.374 269.184 82.4189 265.839 52.9925C264.057 35.6279 244.828 41.855 244.828 41.855ZM167.465 133.689C172.898 137.637 174.073 129.422 174.073 129.422L183.827 134.283C183.827 134.283 175.321 145.463 164.366 136.787C153.411 128.11 160.693 116.273 160.693 116.273L168.45 125.494C168.261 125.514 160.996 129.064 167.465 133.689Z" fill="#A81C25" fill-opacity="0.3"/>
<path d="M201.323 70.6383C207.456 60.5042 217.545 64.9345 214.196 75.9505C210.847 86.9665 197.813 90.3521 197.813 90.3521C203.031 82.2899 196.963 77.8184 201.323 70.6383ZM184.227 66.9675C193.321 77.8186 198.417 104.096 170.189 123.924C170.189 123.924 123.388 83.2285 168.012 28.8749C170.465 42.0239 175.134 56.1164 184.227 66.9675ZM170.974 98.7849C177.271 110.334 175.867 111.472 172.512 114.006C160.435 100.519 156.538 81.4108 162.843 64.3534C163.892 60.0968 163.383 55.6146 161.235 51.9018C145.139 87.381 171.986 117.811 171.986 117.811C187.497 109.225 180.959 92.1789 175.997 82.2609C172.526 75.3378 170.806 65.2658 169.374 57.7271C162.121 78.2411 164.677 87.2362 170.974 98.7849ZM205.061 95.0902C218.277 86.5557 228.235 86.4628 237.112 88.6572C245.988 90.8515 254.441 92.6972 263.297 91.3427C255.526 102.246 250.304 117.016 224.42 130.475C197.254 144.467 178.006 128.601 174.943 126.96C175.88 125.083 191.845 103.625 205.061 95.0902ZM245.411 104.329C242.883 104.011 241.857 105.109 238.904 107.796C235.95 110.484 214.069 135.542 189.471 123.215C191.288 120.651 199.244 116.435 204.468 116.855C209.692 117.275 218.779 119.644 236.601 102.719C223.613 103.141 218.67 100.125 209.009 104.526C199.349 108.927 189.342 115.338 184.257 124.57C184.424 124.354 217.136 145.666 245.411 104.329ZM270.016 54.3153C271.095 73.9262 265.254 79.8858 257.967 83.2402C250.513 86.8101 242.438 84.9233 235.21 83.734C228.739 82.4626 218.747 83.9402 216.474 84.1865C217.901 83.2428 219.138 82.3196 220.375 81.3964L220.898 80.9451C222.47 79.5911 224.019 78.0422 225.379 76.5139C228.601 72.811 232.056 69.4773 235.7 66.1231C233.75 67.5182 231.544 68.3491 229.104 68.8108C229.284 67.0159 229.463 65.2209 229.264 63.467C229.197 62.8824 229.131 62.2978 229.042 61.5182C233.344 58.882 237.389 55.6816 240.989 51.9376C237.345 55.2919 232.999 57.5384 228.353 58.831C228.053 57.8772 227.564 56.9438 227.074 56.0105C231.476 52.5742 235.433 48.5943 239.156 44.2452C234.966 47.8558 230.352 51.1178 225.694 53.99C225.038 53.2721 224.381 52.5541 223.746 52.0311C226.835 47.1589 232.52 39.8352 236.635 33.8655C233.659 36.3581 226.235 45.2512 222.054 50.6363C221.442 50.3081 220.829 49.9799 220.217 49.6517C221.847 43.754 224.382 34.0099 225.22 29.5789C222.621 35.3844 219.184 45.6209 218.19 48.6877C217.578 48.3596 216.988 48.2262 216.397 48.093C215.406 47.8058 214.226 47.5392 213.067 47.4675C213.537 44.852 215.403 35.9695 214.736 33.4772C214.343 38.4517 212.791 43.3546 210.204 47.5805C209.636 47.6421 209.09 47.8986 208.544 48.155C207.956 44.6678 206.633 41.4575 204.931 38.2882C206.343 42.278 206.073 46.6474 204.388 50.381C203.151 51.3042 202.103 52.2069 201.078 53.3044C200.055 51.048 198.508 49.2429 196.437 47.8891C199.728 56.6072 194.79 62.0744 192.902 70.762C191.446 66.3824 184.979 58.4031 181.019 50.5466C177.058 42.6902 173.858 31.3977 180.637 20.2071C187.417 9.01654 198.494 1.89763 206.927 0.194461C215.36 -1.50871 219.065 5.7836 220.005 15.7429C221.111 10.2964 227.121 0.767517 239.347 7.13618C251.574 13.5048 255.318 27.8948 242.569 37.1678C253.511 32.2336 269.08 37.6481 270.016 54.3153ZM199.793 8.267C183.625 16.135 178.536 32.0744 182.361 42.1155C182.361 42.1155 179.465 25.0689 197.929 13.7955C213.351 4.43009 215.081 16.2765 215.081 16.2765C215.081 16.2765 216.15 0.378479 199.793 8.267ZM243.253 31.3727C243.253 31.3727 252.194 18.9614 237.016 11.9262C226.081 6.79857 222.597 19.9993 222.597 19.9993C222.597 19.9993 225.12 11.8347 235.376 16.0496C247.258 21.0746 243.253 31.3727 243.253 31.3727ZM244.828 41.855C250.742 41.6085 260.076 42.7668 262.185 54.5723C265.115 70.2342 256.009 79.5069 246.585 80.9229C249.703 81.374 269.184 82.4189 265.839 52.9925C264.057 35.6279 244.828 41.855 244.828 41.855ZM167.465 133.689C172.898 137.637 174.073 129.422 174.073 129.422L183.827 134.283C183.827 134.283 175.321 145.463 164.366 136.787C153.411 128.11 160.693 116.273 160.693 116.273L168.45 125.494C168.261 125.514 160.996 129.064 167.465 133.689Z" fill="#FFD43E"/>
<path d="M11.9641 21.9802C6.0745 29.5909 -6.12611 37.6886 -18.7503 42.0485C-18.7503 42.0485 -7.08903 36.0009 1.01702 15.6029C9.70701 -6.45185 25.7405 3.95291 11.9641 21.9802ZM70.1734 -101.051C82.9471 -93.876 85.3992 -72.2362 63.8564 -56.3517C70.0682 -59.4169 77.0825 -55.4 77.4492 -50.4611C78.0611 -43.3583 73.765 -38.709 69.2338 -34.4325C80.6434 -32.4867 75.0781 -23.7164 69.3834 -22.8981C63.6887 -22.0797 55.4697 -17.9997 53.0894 -11.7664C61.0307 -19.9984 79.1347 -21.9669 80.0241 -10.7121C81.2703 3.69035 59.3069 -6.26878 52.2738 1.46618C82.6531 -2.83278 99.3301 35.3829 62.9842 44.9111C73.1721 29.2654 52.2464 26.7611 36.5286 31.0591C22.8624 34.7357 15.9652 40.2652 -5.4172 50.7553C-28.4478 62.0221 -54.219 64.426 -76.5032 65.2558C-130.263 67.5165 -159.468 58.3448 -159.468 58.3448C-138.52 61.0458 -104.527 66.5105 -56.2252 46.7206C-32.0634 36.9241 -26.9172 17.6445 -26.3289 9.21624C-25.8866 1.20217 -27.4859 -4.39927 -32.8096 -5.41361C-39.5118 -6.67636 -42.0159 0.167851 -39.4415 5.86241C-51.6054 9.17652 -59.4279 -10.4853 -54.0855 -21.2228C-48.7431 -31.9603 -37.2378 -39.385 -20.5535 -30.0467C-9.62863 -23.8661 -8.84491 -5.0321 -12.7095 8.53198C-1.21569 -16.0183 -9.75019 -26.641 -13.4536 -37.1915C-17.6719 -48.8809 -11.4903 -57.3199 -3.47643 -56.3989C13.5488 -54.2671 7.94242 -33.9418 3.81681 -32.8957C3.81681 -32.8957 9.5338 -33.5173 10.2558 -40.7652C11.9128 -55.085 18.82 -58.8233 28.3829 -61.2571C43.7642 -65.1202 59.0362 -73.3527 53.7313 -86.1189C51.09 -92.4036 47.0881 -91.9685 43.7024 -91.2021C49.1109 -82.6293 40.9043 -80.1438 38.1372 -82.4318C35.818 -84.1711 34.6668 -89.2239 37.114 -94.867C43.164 -107.872 62.7557 -105.223 70.1734 -101.051ZM25.2688 -12.1269C24.8431 -12.4789 24.2267 -12.8102 23.6105 -13.1415C26.7653 -21.0522 29.539 -28.9215 31.887 -37.1427C29.1356 -29.0768 25.7456 -21.5388 21.571 -14.1146C20.9548 -14.4459 20.1702 -14.5598 19.5762 -14.6943C21.318 -21.4556 22.4657 -28.3515 23.0418 -35.1852C21.7034 -28.2686 19.7711 -21.4866 17.032 -15.0151C15.8663 -15.0875 14.7229 -14.9632 13.77 -14.8596C13.9081 -20.4508 13.5537 -26.9842 13.3898 -33.5383C12.9719 -28.7133 12.3513 -22.273 11.1467 -14.1761C10.2385 -13.679 9.35252 -12.9852 8.46656 -12.2915C8.03295 -17.8205 6.66875 -23.0492 4.54233 -28.195C5.97335 -22.3761 6.64217 -16.4744 6.73922 -10.5104C6.40267 -10.0755 5.05644 -8.33597 4.71989 -7.90108C3.47944 -13.7407 1.11792 -19.2593 -2.12961 -24.084C-2.12961 -24.084 5.53893 -9.18504 -3.29704 13.2839C-16.2306 45.5583 -68.2252 56.5889 -68.2252 56.5889C-40.291 54.5472 -16.3442 47.9605 0.318598 38.3818C13.1801 31.0089 24.0591 21.4617 27.8604 19.2561C31.6617 17.0504 36.4057 12.9499 44.7439 15.0305C39.8136 12.3802 32.9978 13.5196 29.377 13.9133C29.6912 13.2817 30.488 11.801 30.9929 11.1486C36.4079 9.5641 41.308 6.84066 45.5026 2.99902C41.5776 5.81559 36.7567 7.53468 31.9702 7.85598C32.4081 6.61346 32.6332 5.19494 32.69 3.99386C37.063 1.72604 42.8491 -1.6912 45.3733 -4.95289C41.4483 -2.13633 37.0753 0.131507 32.6354 1.80916C32.5463 1.02226 32.4571 0.23535 32.3679 -0.55155L44.7714 -10.2645L31.9544 -2.49808C31.8652 -3.28498 31.6078 -3.85443 31.328 -4.62061C36.0052 -9.31132 42.4097 -15.783 45.9658 -20.1527C42.4666 -16.9841 35.6363 -10.8644 30.5557 -6.32899C30.2983 -6.89845 29.8503 -7.44717 29.4023 -7.99591C33.0597 -13.1732 37.8729 -20.0693 41.1493 -25.2051C35.7867 -18.0501 32.3989 -13.8979 28.5063 -9.09339C28.0806 -9.4454 27.6548 -9.7974 27.2068 -10.3461C31.5496 -17.9877 34.8728 -26.1159 37.1985 -34.5339C35.9616 -28.4249 31.0916 -20.3277 25.2688 -12.1269Z" fill="#A81C25" fill-opacity="0.3"/>
<path d="M11.9641 21.9802C6.0745 29.5909 -6.12611 37.6886 -18.7503 42.0485C-18.7503 42.0485 -7.08903 36.0009 1.01702 15.6029C9.70701 -6.45185 25.7405 3.95291 11.9641 21.9802ZM70.1734 -101.051C82.9471 -93.876 85.3992 -72.2362 63.8564 -56.3517C70.0682 -59.4169 77.0825 -55.4 77.4492 -50.4611C78.0611 -43.3583 73.765 -38.709 69.2338 -34.4325C80.6434 -32.4867 75.0781 -23.7164 69.3834 -22.8981C63.6887 -22.0797 55.4697 -17.9997 53.0894 -11.7664C61.0307 -19.9984 79.1347 -21.9669 80.0241 -10.7121C81.2703 3.69035 59.3069 -6.26878 52.2738 1.46618C82.6531 -2.83278 99.3301 35.3829 62.9842 44.9111C73.1721 29.2654 52.2464 26.7611 36.5286 31.0591C22.8624 34.7357 15.9652 40.2652 -5.4172 50.7553C-28.4478 62.0221 -54.219 64.426 -76.5032 65.2558C-130.263 67.5165 -159.468 58.3448 -159.468 58.3448C-138.52 61.0458 -104.527 66.5105 -56.2252 46.7206C-32.0634 36.9241 -26.9172 17.6445 -26.3289 9.21624C-25.8866 1.20217 -27.4859 -4.39927 -32.8096 -5.41361C-39.5118 -6.67636 -42.0159 0.167851 -39.4415 5.86241C-51.6054 9.17652 -59.4279 -10.4853 -54.0855 -21.2228C-48.7431 -31.9603 -37.2378 -39.385 -20.5535 -30.0467C-9.62863 -23.8661 -8.84491 -5.0321 -12.7095 8.53198C-1.21569 -16.0183 -9.75019 -26.641 -13.4536 -37.1915C-17.6719 -48.8809 -11.4903 -57.3199 -3.47643 -56.3989C13.5488 -54.2671 7.94242 -33.9418 3.81681 -32.8957C3.81681 -32.8957 9.5338 -33.5173 10.2558 -40.7652C11.9128 -55.085 18.82 -58.8233 28.3829 -61.2571C43.7642 -65.1202 59.0362 -73.3527 53.7313 -86.1189C51.09 -92.4036 47.0881 -91.9685 43.7024 -91.2021C49.1109 -82.6293 40.9043 -80.1438 38.1372 -82.4318C35.818 -84.1711 34.6668 -89.2239 37.114 -94.867C43.164 -107.872 62.7557 -105.223 70.1734 -101.051ZM25.2688 -12.1269C24.8431 -12.4789 24.2267 -12.8102 23.6105 -13.1415C26.7653 -21.0522 29.539 -28.9215 31.887 -37.1427C29.1356 -29.0768 25.7456 -21.5388 21.571 -14.1146C20.9548 -14.4459 20.1702 -14.5598 19.5762 -14.6943C21.318 -21.4556 22.4657 -28.3515 23.0418 -35.1852C21.7034 -28.2686 19.7711 -21.4866 17.032 -15.0151C15.8663 -15.0875 14.7229 -14.9632 13.77 -14.8596C13.9081 -20.4508 13.5537 -26.9842 13.3898 -33.5383C12.9719 -28.7133 12.3513 -22.273 11.1467 -14.1761C10.2385 -13.679 9.35252 -12.9852 8.46656 -12.2915C8.03295 -17.8205 6.66875 -23.0492 4.54233 -28.195C5.97335 -22.3761 6.64217 -16.4744 6.73922 -10.5104C6.40267 -10.0755 5.05644 -8.33597 4.71989 -7.90108C3.47944 -13.7407 1.11792 -19.2593 -2.12961 -24.084C-2.12961 -24.084 5.53893 -9.18504 -3.29704 13.2839C-16.2306 45.5583 -68.2252 56.5889 -68.2252 56.5889C-40.291 54.5472 -16.3442 47.9605 0.318598 38.3818C13.1801 31.0089 24.0591 21.4617 27.8604 19.2561C31.6617 17.0504 36.4057 12.9499 44.7439 15.0305C39.8136 12.3802 32.9978 13.5196 29.377 13.9133C29.6912 13.2817 30.488 11.801 30.9929 11.1486C36.4079 9.5641 41.308 6.84066 45.5026 2.99902C41.5776 5.81559 36.7567 7.53468 31.9702 7.85598C32.4081 6.61346 32.6332 5.19494 32.69 3.99386C37.063 1.72604 42.8491 -1.6912 45.3733 -4.95289C41.4483 -2.13633 37.0753 0.131507 32.6354 1.80916C32.5463 1.02226 32.4571 0.23535 32.3679 -0.55155L44.7714 -10.2645L31.9544 -2.49808C31.8652 -3.28498 31.6078 -3.85443 31.328 -4.62061C36.0052 -9.31132 42.4097 -15.783 45.9658 -20.1527C42.4666 -16.9841 35.6363 -10.8644 30.5557 -6.32899C30.2983 -6.89845 29.8503 -7.44717 29.4023 -7.99591C33.0597 -13.1732 37.8729 -20.0693 41.1493 -25.2051C35.7867 -18.0501 32.3989 -13.8979 28.5063 -9.09339C28.0806 -9.4454 27.6548 -9.7974 27.2068 -10.3461C31.5496 -17.9877 34.8728 -26.1159 37.1985 -34.5339C35.9616 -28.4249 31.0916 -20.3277 25.2688 -12.1269Z" fill="#FFD43E"/>
<path d="M150.225 110.635C149.342 111.325 148.671 112.19 147.999 113.055C147.999 113.055 137.651 110.018 130.639 114.344C136.173 113.942 141.795 114.322 147.316 115.506C147.316 115.506 127.955 117.805 120.747 132.254C127.906 124.149 137.701 118.926 148.343 117.772C142.785 121.346 138.333 126.187 134.943 131.903C142.605 123.149 145.826 121.017 153.047 120.233C149.355 124.992 145.898 130.121 142.843 135.404C135.961 147.64 115.611 158.167 105.194 139.29C97.7025 125.84 112.376 112.759 118 109.772C126.89 105.044 139.61 105.249 150.225 110.635Z" fill="#A81C25" fill-opacity="0.3"/>
<path d="M150.225 110.635C149.342 111.325 148.671 112.19 147.999 113.055C147.999 113.055 137.651 110.018 130.639 114.344C136.173 113.942 141.795 114.322 147.316 115.506C147.316 115.506 127.955 117.805 120.747 132.254C127.906 124.149 137.701 118.926 148.343 117.772C142.785 121.346 138.333 126.187 134.943 131.903C142.605 123.149 145.826 121.017 153.047 120.233C149.355 124.992 145.898 130.121 142.843 135.404C135.961 147.64 115.611 158.167 105.194 139.29C97.7025 125.84 112.376 112.759 118 109.772C126.89 105.044 139.61 105.249 150.225 110.635Z" fill="#FFD43E"/>
<path d="M197.042 138.112C211.354 146.76 216.935 146.551 221.966 146.603C216.633 145.583 214.331 144.033 208.943 140.817C215.893 142.461 223.26 142.658 230.234 141.097C224.271 141.347 220.217 141.389 214.728 138.985C235.065 120.552 254.137 130.282 255.682 137.119C256.813 142.001 256.12 154.687 235.502 156.937C214.883 159.186 197.042 138.112 197.042 138.112Z" fill="#A81C25" fill-opacity="0.3"/>
<path d="M197.042 138.112C211.354 146.76 216.935 146.551 221.966 146.603C216.633 145.583 214.331 144.033 208.943 140.817C215.893 142.461 223.26 142.658 230.234 141.097C224.271 141.347 220.217 141.389 214.728 138.985C235.065 120.552 254.137 130.282 255.682 137.119C256.813 142.001 256.12 154.687 235.502 156.937C214.883 159.186 197.042 138.112 197.042 138.112Z" fill="#FFD43E"/>
<path d="M143.932 86.4516C120.259 59.139 104.613 73.6974 104.613 73.6974C104.613 73.6974 111.038 52.4216 126.405 55.7024C141.771 58.9831 143.932 86.4516 143.932 86.4516Z" fill="#A81C25" fill-opacity="0.3"/>
<path d="M143.932 86.4516C120.259 59.139 104.613 73.6974 104.613 73.6974C104.613 73.6974 111.038 52.4216 126.405 55.7024C141.771 58.9831 143.932 86.4516 143.932 86.4516Z" fill="#FFD43E"/>
<path d="M151.277 106.231C140.96 100.202 135.51 98.0134 123.9 99.2739C113.432 100.41 104.864 108.093 102.002 118.532C94.4729 111.604 96.3935 84.3871 116.995 79.1715C137.596 73.9559 151.277 106.231 151.277 106.231Z" fill="#A81C25" fill-opacity="0.3"/>
<path d="M151.277 106.231C140.96 100.202 135.51 98.0134 123.9 99.2739C113.432 100.41 104.864 108.093 102.002 118.532C94.4729 111.604 96.3935 84.3871 116.995 79.1715C137.596 73.9559 151.277 106.231 151.277 106.231Z" fill="#FFD43E"/>
<path d="M257.928 150.498C260.559 148.228 266.92 139.799 260.693 130.751C254.466 121.703 236.067 125.883 236.067 125.883C249.68 116.865 274.925 115.316 278.756 127.005C282.587 138.694 267.664 148.052 257.928 150.498Z" fill="#A81C25" fill-opacity="0.3"/>
<path d="M257.928 150.498C260.559 148.228 266.92 139.799 260.693 130.751C254.466 121.703 236.067 125.883 236.067 125.883C249.68 116.865 274.925 115.316 278.756 127.005C282.587 138.694 267.664 148.052 257.928 150.498Z" fill="#FFD43E"/>
<path d="M269.626 114.636C259.878 111.922 247.024 117.488 247.024 117.488C254.383 109.341 266.302 95.5358 276.967 99.5411C286.636 103.257 283.704 119.86 281.529 124.465C279.999 119.468 276.173 116.309 269.626 114.636Z" fill="#A81C25" fill-opacity="0.3"/>
<path d="M269.626 114.636C259.878 111.922 247.024 117.488 247.024 117.488C254.383 109.341 266.302 95.5358 276.967 99.5411C286.636 103.257 283.704 119.86 281.529 124.465C279.999 119.468 276.173 116.309 269.626 114.636Z" fill="#FFD43E"/>
<path d="M281.803 214.251C281.348 211.932 279.041 210.207 276.789 210.649C274.537 211.09 272.886 213.441 273.341 215.761C273.797 218.081 275.892 219.631 278.166 219.384C280.44 219.138 282.092 216.787 281.803 214.251Z" fill="#A81C25" fill-opacity="0.3"/>
<path d="M281.803 214.251C281.348 211.932 279.041 210.207 276.789 210.649C274.537 211.09 272.886 213.441 273.341 215.761C273.797 218.081 275.892 219.631 278.166 219.384C280.44 219.138 282.092 216.787 281.803 214.251Z" fill="#FFD43E"/>
<path d="M17.6076 253.653C17.3416 251.313 15.4361 249.743 13.1616 249.989C10.8871 250.236 9.38081 252.176 9.64682 254.516C9.91284 256.856 11.8182 258.426 14.0927 258.18C16.3672 257.933 17.8736 255.993 17.6076 253.653Z" fill="#A81C25" fill-opacity="0.3"/>
<path d="M17.6076 253.653C17.3416 251.313 15.4361 249.743 13.1616 249.989C10.8871 250.236 9.38081 252.176 9.64682 254.516C9.91284 256.856 11.8182 258.426 14.0927 258.18C16.3672 257.933 17.8736 255.993 17.6076 253.653Z" fill="#FFD43E"/>
<path d="M5.36564 252.809C3.69095 252.991 2.17456 251.741 1.97863 250.017C1.7827 248.293 2.98143 246.749 4.65612 246.567C6.3308 246.386 7.84731 247.636 8.04324 249.36C8.23917 251.083 7.04033 252.628 5.36564 252.809Z" fill="#A81C25" fill-opacity="0.3"/>
<path d="M5.36564 252.809C3.69095 252.991 2.17456 251.741 1.97863 250.017C1.7827 248.293 2.98143 246.749 4.65612 246.567C6.3308 246.386 7.84731 247.636 8.04324 249.36C8.23917 251.083 7.04033 252.628 5.36564 252.809Z" fill="#FFD43E"/>
<path d="M364.944 174.157C364.7 172.011 362.794 170.441 360.71 170.667C358.625 170.893 357.118 172.833 357.362 174.978C357.606 177.124 359.511 178.694 361.596 178.468C363.681 178.242 365.188 176.302 364.944 174.157Z" fill="#A81C25" fill-opacity="0.3"/>
<path d="M364.944 174.157C364.7 172.011 362.794 170.441 360.71 170.667C358.625 170.893 357.118 172.833 357.362 174.978C357.606 177.124 359.511 178.694 361.596 178.468C363.681 178.242 365.188 176.302 364.944 174.157Z" fill="#FFD43E"/>
<path d="M40.3034 93.3219C40.0596 91.1768 38.1542 89.6065 36.0692 89.8325C33.9843 90.0585 32.4779 91.9985 32.7218 94.1437C32.9656 96.2888 34.871 97.859 36.9559 97.6331C39.0409 97.4071 40.5472 95.4671 40.3034 93.3219Z" fill="#A81C25" fill-opacity="0.3"/>
<path d="M40.3034 93.3219C40.0596 91.1768 38.1542 89.6065 36.0692 89.8325C33.9843 90.0585 32.4779 91.9985 32.7218 94.1437C32.9656 96.2888 34.871 97.859 36.9559 97.6331C39.0409 97.4071 40.5472 95.4671 40.3034 93.3219Z" fill="#FFD43E"/>
<path d="M48.6529 96.0019C46.9782 96.1834 45.4618 94.9333 45.2658 93.2096C45.0699 91.486 46.2686 89.9416 47.9433 89.7601C49.618 89.5785 51.1344 90.8287 51.3303 92.5523C51.5263 94.276 50.3275 95.8204 48.6529 96.0019Z" fill="#A81C25" fill-opacity="0.3"/>
<path d="M48.6529 96.0019C46.9782 96.1834 45.4618 94.9333 45.2658 93.2096C45.0699 91.486 46.2686 89.9416 47.9433 89.7601C49.618 89.5785 51.1344 90.8287 51.3303 92.5523C51.5263 94.276 50.3275 95.8204 48.6529 96.0019Z" fill="#FFD43E"/>
<path d="M372.817 184.678C372.574 182.533 370.646 180.768 368.372 181.014C366.287 181.24 364.591 183.201 364.857 185.541C365.101 187.686 367.028 189.451 369.303 189.205C371.577 188.958 373.061 186.823 372.817 184.678Z" fill="#A81C25" fill-opacity="0.3"/>
<path d="M372.817 184.678C372.574 182.533 370.646 180.768 368.372 181.014C366.287 181.24 364.591 183.201 364.857 185.541C365.101 187.686 367.028 189.451 369.303 189.205C371.577 188.958 373.061 186.823 372.817 184.678Z" fill="#FFD43E"/>
<path d="M370.306 198.417C369.996 195.686 367.667 193.767 365.014 194.054C362.361 194.342 360.52 196.713 360.83 199.444C361.14 202.174 363.469 204.093 366.122 203.806C368.776 203.518 370.616 201.147 370.306 198.417Z" fill="#A81C25" fill-opacity="0.3"/>
<path d="M370.306 198.417C369.996 195.686 367.667 193.767 365.014 194.054C362.361 194.342 360.52 196.713 360.83 199.444C361.14 202.174 363.469 204.093 366.122 203.806C368.776 203.518 370.616 201.147 370.306 198.417Z" fill="#FFD43E"/>
<path d="M28.413 99.065C28.1026 96.3346 25.7741 94.4152 23.1208 94.7028C20.4675 94.9903 18.6267 97.3616 18.9371 100.092C19.2474 102.823 21.576 104.742 24.2293 104.454C26.8604 103.972 28.7012 101.6 28.413 99.065Z" fill="#A81C25" fill-opacity="0.3"/>
<path d="M28.413 99.065C28.1026 96.3346 25.7741 94.4152 23.1208 94.7028C20.4675 94.9903 18.6267 97.3616 18.9371 100.092C19.2474 102.823 21.576 104.742 24.2293 104.454C26.8604 103.972 28.7012 101.6 28.413 99.065Z" fill="#FFD43E"/>
<path d="M357.656 208.137C357.323 205.211 354.761 202.922 351.729 203.251C348.886 203.559 346.688 206.167 347.043 209.287C347.376 212.213 349.938 214.503 352.97 214.174C356.003 213.845 357.988 211.063 357.656 208.137Z" fill="#A81C25" fill-opacity="0.3"/>
<path d="M357.656 208.137C357.323 205.211 354.761 202.922 351.729 203.251C348.886 203.559 346.688 206.167 347.043 209.287C347.376 212.213 349.938 214.503 352.97 214.174C356.003 213.845 357.988 211.063 357.656 208.137Z" fill="#FFD43E"/>
<path d="M63.3613 109.995C62.9623 106.484 59.7866 103.867 56.375 104.237C52.9633 104.607 50.4528 107.84 50.8519 111.351C51.2509 114.861 54.4265 117.479 57.8381 117.109C61.4171 116.523 63.7604 113.505 63.3613 109.995Z" fill="#A81C25" fill-opacity="0.3"/>
<path d="M63.3613 109.995C62.9623 106.484 59.7866 103.867 56.375 104.237C52.9633 104.607 50.4528 107.84 50.8519 111.351C51.2509 114.861 54.4265 117.479 57.8381 117.109C61.4171 116.523 63.7604 113.505 63.3613 109.995Z" fill="#FFD43E"/>
<path d="M339.578 206.453C339.223 203.332 336.471 201.063 333.439 201.392C330.407 201.72 328.231 204.523 328.586 207.644C328.941 210.765 331.693 213.034 334.725 212.705C337.757 212.377 339.933 209.574 339.578 206.453Z" fill="#A81C25" fill-opacity="0.3"/>
<path d="M339.578 206.453C339.223 203.332 336.471 201.063 333.439 201.392C330.407 201.72 328.231 204.523 328.586 207.644C328.941 210.765 331.693 213.034 334.725 212.705C337.757 212.377 339.933 209.574 339.578 206.453Z" fill="#FFD43E"/>
<path d="M260.628 173.33C260.628 173.33 276.564 182.797 279.249 191.345C280.52 194.154 279.367 197.422 276.654 198.699C275.214 199.445 273.476 199.24 272.07 198.607C267.975 196.105 266.64 189.375 273.482 189.221C271.615 184.513 268.307 180.551 260.628 173.33Z" fill="#A81C25" fill-opacity="0.3"/>
<path d="M260.628 173.33C260.628 173.33 276.564 182.797 279.249 191.345C280.52 194.154 279.367 197.422 276.654 198.699C275.214 199.445 273.476 199.24 272.07 198.607C267.975 196.105 266.64 189.375 273.482 189.221C271.615 184.513 268.307 180.551 260.628 173.33Z" fill="#FFD43E"/>
<path d="M243.011 168.429C243.011 168.429 258.845 173.397 263.895 184.253C268.945 195.109 259.694 197.686 255.193 195.028C250.692 192.371 250.741 186.073 250.765 182.925C250.789 179.776 249.907 172.007 243.011 168.429Z" fill="#A81C25" fill-opacity="0.3"/>
<path d="M243.011 168.429C243.011 168.429 258.845 173.397 263.895 184.253C268.945 195.109 259.694 197.686 255.193 195.028C250.692 192.371 250.741 186.073 250.765 182.925C250.789 179.776 249.907 172.007 243.011 168.429Z" fill="#FFD43E"/>
<path d="M208.302 165.625C208.302 165.625 231.881 165.634 240.573 176.33C251.724 190.113 244.367 199.59 236.926 201.58C241.406 197.149 239.581 194.585 232.277 191.037C222.523 186.177 224.804 172.516 208.302 165.625Z" fill="#A81C25" fill-opacity="0.3"/>
<path d="M208.302 165.625C208.302 165.625 231.881 165.634 240.573 176.33C251.724 190.113 244.367 199.59 236.926 201.58C241.406 197.149 239.581 194.585 232.277 191.037C222.523 186.177 224.804 172.516 208.302 165.625Z" fill="#FFD43E"/>
<path d="M382.968 78.3278C382.968 78.3278 369.031 100.815 373.709 115.395C379.805 134.132 392.716 132.725 398.861 126.765C392.234 128.466 390.905 125.084 391.978 116.148C393.659 104.207 379.73 98.2776 382.968 78.3278Z" fill="#A81C25" fill-opacity="0.3"/>
<path d="M382.968 78.3278C382.968 78.3278 369.031 100.815 373.709 115.395C379.805 134.132 392.716 132.725 398.861 126.765C392.234 128.466 390.905 125.084 391.978 116.148C393.659 104.207 379.73 98.2776 382.968 78.3278Z" fill="#FFD43E"/>
<path d="M371.278 97.5979C371.278 97.5979 355.771 114.172 355.806 127.874C356.09 145.465 367.117 147.786 373.671 143.938C369.865 142.004 372.753 139.143 373.317 132.424C374.017 120.208 364.254 114.029 371.278 97.5979Z" fill="#A81C25" fill-opacity="0.3"/>
<path d="M371.278 97.5979C371.278 97.5979 355.771 114.172 355.806 127.874C356.09 145.465 367.117 147.786 373.671 143.938C369.865 142.004 372.753 139.143 373.317 132.424C374.017 120.208 364.254 114.029 371.278 97.5979Z" fill="#FFD43E"/>
<path d="M352.167 119.198C352.167 119.198 338.8 131.629 338.505 145.77C338.209 159.911 348.685 158.77 351.924 153.91C355.162 149.05 352.295 142.112 350.757 138.556C349.219 135.001 346.903 126.239 352.167 119.198Z" fill="#A81C25" fill-opacity="0.3"/>
<path d="M352.167 119.198C352.167 119.198 338.8 131.629 338.505 145.77C338.209 159.911 348.685 158.77 351.924 153.91C355.162 149.05 352.295 142.112 350.757 138.556C349.219 135.001 346.903 126.239 352.167 119.198Z" fill="#FFD43E"/>
<path d="M139.402 11.009C139.402 11.009 155.164 1.62196 155.826 -7.70263C156.397 -14.4581 150.742 -15.4199 148.208 -14.1607C143.162 -11.448 144.902 -4.54936 150.046 -4.71348C148.921 0.527173 146.296 4.35543 139.402 11.009Z" fill="#A81C25" fill-opacity="0.3"/>
<path d="M139.402 11.009C139.402 11.009 155.164 1.62196 155.826 -7.70263C156.397 -14.4581 150.742 -15.4199 148.208 -14.1607C143.162 -11.448 144.902 -4.54936 150.046 -4.71348C148.921 0.527173 146.296 4.35543 139.402 11.009Z" fill="#FFD43E"/>
<path d="M84.4955 37.5687C84.4955 37.5687 105.96 32.2805 115.18 15.4854C124.4 -1.30965 113.411 -6.83174 106.898 -3.36154C100.384 0.108668 98.8615 10.3435 98.089 15.3634C97.3387 20.5784 94.1422 32.9691 84.4955 37.5687Z" fill="#A81C25" fill-opacity="0.3"/>
<path d="M84.4955 37.5687C84.4955 37.5687 105.96 32.2805 115.18 15.4854C124.4 -1.30965 113.411 -6.83174 106.898 -3.36154C100.384 0.108668 98.8615 10.3435 98.089 15.3634C97.3387 20.5784 94.1422 32.9691 84.4955 37.5687Z" fill="#FFD43E"/>
<path d="M116.875 23.8832C116.875 23.8832 132.212 17.4954 137.176 3.96412C142.14 -9.56715 133.198 -12.5348 128.996 -9.12619C124.794 -5.71759 124.522 1.98955 124.586 5.91987C124.628 9.65572 123.611 19.2155 116.875 23.8832Z" fill="#A81C25" fill-opacity="0.3"/>
<path d="M116.875 23.8832C116.875 23.8832 132.212 17.4954 137.176 3.96412C142.14 -9.56715 133.198 -12.5348 128.996 -9.12619C124.794 -5.71759 124.522 1.98955 124.586 5.91987C124.628 9.65572 123.611 19.2155 116.875 23.8832Z" fill="#FFD43E"/>
<path d="M337.571 127.221C337.571 127.221 324.591 145.906 308.113 150.719C291.635 155.532 288.552 143.622 292.432 138.581C296.965 132.464 305.134 134.582 309.809 134.874C314.483 135.166 329.791 133.693 337.571 127.221Z" fill="#A81C25" fill-opacity="0.3"/>
<path d="M337.571 127.221C337.571 127.221 324.591 145.906 308.113 150.719C291.635 155.532 288.552 143.622 292.432 138.581C296.965 132.464 305.134 134.582 309.809 134.874C314.483 135.166 329.791 133.693 337.571 127.221Z" fill="#FFD43E"/>
<path d="M359.564 102.564C359.564 102.564 341.119 126.122 314.569 129.231C291.078 132.006 286.389 114.405 290.264 104.117C292.295 110.135 297.635 111.16 306.757 107.947C320.545 103.216 338.079 114.579 359.564 102.564Z" fill="#A81C25" fill-opacity="0.3"/>
<path d="M359.564 102.564C359.564 102.564 341.119 126.122 314.569 129.231C291.078 132.006 286.389 114.405 290.264 104.117C292.295 110.135 297.635 111.16 306.757 107.947C320.545 103.216 338.079 114.579 359.564 102.564Z" fill="#FFD43E"/>
<path d="M168.779 170.979C168.779 170.979 204.354 164.352 217.878 181.879C230.978 199.056 222.472 210.464 213.726 212.996C217.94 207.79 217.572 206.247 206.463 201.516C191.524 195.222 191.135 174.886 168.779 170.979Z" fill="#A81C25" fill-opacity="0.3"/>
<path d="M168.779 170.979C168.779 170.979 204.354 164.352 217.878 181.879C230.978 199.056 222.472 210.464 213.726 212.996C217.94 207.79 217.572 206.247 206.463 201.516C191.524 195.222 191.135 174.886 168.779 170.979Z" fill="#FFD43E"/>
<path d="M318.446 166.744C318.446 166.744 313.776 184.109 320.279 193.005C325.229 199.914 331.751 197.244 332.47 191.873C333.19 186.503 327.047 182.468 323.201 187.003C319.976 183.63 317.591 177.617 318.446 166.744Z" fill="#A81C25" fill-opacity="0.3"/>
<path d="M318.446 166.744C318.446 166.744 313.776 184.109 320.279 193.005C325.229 199.914 331.751 197.244 332.47 191.873C333.19 186.503 327.047 182.468 323.201 187.003C319.976 183.63 317.591 177.617 318.446 166.744Z" fill="#FFD43E"/>
<path d="M128.676 182.062C128.676 182.062 167.365 170.949 190.005 194.391C207.023 212.314 201.476 231.102 191.795 238.872C194.544 232.644 188.566 227.362 174.732 220.559C152.329 209.347 156.396 185.976 128.676 182.062Z" fill="#A81C25" fill-opacity="0.3"/>
<path d="M128.676 182.062C128.676 182.062 167.365 170.949 190.005 194.391C207.023 212.314 201.476 231.102 191.795 238.872C194.544 232.644 188.566 227.362 174.732 220.559C152.329 209.347 156.396 185.976 128.676 182.062Z" fill="#FFD43E"/>
<path d="M143.54 231.821C143.54 231.821 158.015 216.742 146.269 201.532C134.524 186.321 109.992 189.183 87.0456 199.223C103.998 195.793 119.352 205.447 127.565 213.295C135.777 221.143 143.535 223.28 143.54 231.821Z" fill="#A81C25" fill-opacity="0.3"/>
<path d="M143.54 231.821C143.54 231.821 158.015 216.742 146.269 201.532C134.524 186.321 109.992 189.183 87.0456 199.223C103.998 195.793 119.352 205.447 127.565 213.295C135.777 221.143 143.535 223.28 143.54 231.821Z" fill="#FFD43E"/>
<path d="M-4.27271 221.53C-4.27271 221.53 24.325 222.243 43.1087 216.668C61.8924 211.094 77.0471 204.283 96.4111 207.458C115.775 210.634 120.288 221.611 120.826 226.47C118.202 222.048 106.621 212.062 91.7296 212.489C100.249 215.846 107.335 222.027 110.138 228.069C105.541 225.096 89.9923 214.322 76.2734 214.823C87.9715 218.851 95.1025 225.437 97.4323 230.713C91.4836 226.045 74.6483 217.669 63.5104 218.703C73.7549 221.868 80.8635 228.251 83.5766 233.484C74.1683 227.356 63.5181 224.032 52.6291 223.808C39.8012 223.596 18.3368 225.984 -4.27271 221.53Z" fill="#A81C25" fill-opacity="0.3"/>
<path d="M-4.27271 221.53C-4.27271 221.53 24.325 222.243 43.1087 216.668C61.8924 211.094 77.0471 204.283 96.4111 207.458C115.775 210.634 120.288 221.611 120.826 226.47C118.202 222.048 106.621 212.062 91.7296 212.489C100.249 215.846 107.335 222.027 110.138 228.069C105.541 225.096 89.9923 214.322 76.2734 214.823C87.9715 218.851 95.1025 225.437 97.4323 230.713C91.4836 226.045 74.6483 217.669 63.5104 218.703C73.7549 221.868 80.8635 228.251 83.5766 233.484C74.1683 227.356 63.5181 224.032 52.6291 223.808C39.8012 223.596 18.3368 225.984 -4.27271 221.53Z" fill="#FFD43E"/>
<path d="M-74.9059 205.574C-74.9059 205.574 -11.9604 224.278 13.8018 189.123C28.1766 169.387 12.3645 155.933 2.66028 153.795C7.73948 159.432 6.14206 165.796 -7.86697 175.109C-22.8075 184.724 -34.5038 209.361 -74.9059 205.574Z" fill="#A81C25" fill-opacity="0.3"/>
<path d="M-74.9059 205.574C-74.9059 205.574 -11.9604 224.278 13.8018 189.123C28.1766 169.387 12.3645 155.933 2.66028 153.795C7.73948 159.432 6.14206 165.796 -7.86697 175.109C-22.8075 184.724 -34.5038 209.361 -74.9059 205.574Z" fill="#FFD43E"/>
<path d="M-27.3402 214.144C-11.7768 215.242 32.6706 219.177 47.3819 185.483C54.8947 168.319 38.6945 163.304 34.0745 163.408C41.5051 169.377 30.1659 173.202 23.2193 181.732C14.78 192.418 -3.10872 215.096 -27.3402 214.144Z" fill="#A81C25" fill-opacity="0.3"/>
<path d="M-27.3402 214.144C-11.7768 215.242 32.6706 219.177 47.3819 185.483C54.8947 168.319 38.6945 163.304 34.0745 163.408C41.5051 169.377 30.1659 173.202 23.2193 181.732C14.78 192.418 -3.10872 215.096 -27.3402 214.144Z" fill="#FFD43E"/>
<path d="M25.4897 211.667C25.4897 211.667 66.4369 204.651 71.7284 180.109C74.5309 167.524 61.969 165.321 59.1852 166.218C65.7329 169.667 54.9414 177.968 52.2767 184.992C49.0296 193.664 43.4456 203.777 25.4897 211.667Z" fill="#A81C25" fill-opacity="0.3"/>
<path d="M25.4897 211.667C25.4897 211.667 66.4369 204.651 71.7284 180.109C74.5309 167.524 61.969 165.321 59.1852 166.218C65.7329 169.667 54.9414 177.968 52.2767 184.992C49.0296 193.664 43.4456 203.777 25.4897 211.667Z" fill="#FFD43E"/>
<path d="M372 -69.1183C372 -69.1183 419.64 -70.349 435.686 -35.0916C446.63 -11.0888 435.137 5.50765 422.631 9.81594C427.576 4.55656 421.531 -6.59559 413.412 -20.8683C399.613 -44.7584 398.366 -57.4149 372 -69.1183Z" fill="#A81C25" fill-opacity="0.3"/>
<path d="M372 -69.1183C372 -69.1183 419.64 -70.349 435.686 -35.0916C446.63 -11.0888 435.137 5.50765 422.631 9.81594C427.576 4.55656 421.531 -6.59559 413.412 -20.8683C399.613 -44.7584 398.366 -57.4149 372 -69.1183Z" fill="#FFD43E"/>
<path d="M410.181 62.8383C399.02 20.1472 424.688 -1.33844 398.969 -37.5292C380.298 -63.8534 345.667 -64.0355 305.652 -54.3811C336.24 -56.123 368.302 -34.7945 380.732 -12.912C394.604 11.5702 392.431 21.0585 410.181 62.8383Z" fill="#A81C25" fill-opacity="0.3"/>
<path d="M410.181 62.8383C399.02 20.1472 424.688 -1.33844 398.969 -37.5292C380.298 -63.8534 345.667 -64.0355 305.652 -54.3811C336.24 -56.123 368.302 -34.7945 380.732 -12.912C394.604 11.5702 392.431 21.0585 410.181 62.8383Z" fill="#FFD43E"/>
<path d="M-23.5331 131.763C-23.5331 131.763 0.534278 156.845 -22.781 182.697C-41.799 203.897 -74.1027 206.613 -117.885 188.06C-86.0928 196.16 -60.4198 182.606 -48.1 168.712C-30.6192 149.274 -21.8385 146.724 -23.5331 131.763Z" fill="#A81C25" fill-opacity="0.3"/>
<path d="M-23.5331 131.763C-23.5331 131.763 0.534278 156.845 -22.781 182.697C-41.799 203.897 -74.1027 206.613 -117.885 188.06C-86.0928 196.16 -60.4198 182.606 -48.1 168.712C-30.6192 149.274 -21.8385 146.724 -23.5331 131.763Z" fill="#FFD43E"/>
<path d="M184.887 138.455C184.887 138.455 204.448 142.625 199.294 154.393C195.485 162.868 179.608 154.169 189.817 146.572C189.408 144.65 188.788 142.555 184.887 138.455Z" fill="#A81C25" fill-opacity="0.3"/>
<path d="M184.887 138.455C184.887 138.455 204.448 142.625 199.294 154.393C195.485 162.868 179.608 154.169 189.817 146.572C189.408 144.65 188.788 142.555 184.887 138.455Z" fill="#FFD43E"/>
<path d="M339.263 132.628C339.263 132.628 323.317 153.958 324.89 167.892C325.896 176.795 335.396 177.131 337.862 172.16C341.21 164.938 335.276 159.315 329.765 162.463C329.109 156.657 332.845 144.495 339.263 132.628Z" fill="#A81C25" fill-opacity="0.3"/>
<path d="M339.263 132.628C339.263 132.628 323.317 153.958 324.89 167.892C325.896 176.795 335.396 177.131 337.862 172.16C341.21 164.938 335.276 159.315 329.765 162.463C329.109 156.657 332.845 144.495 339.263 132.628Z" fill="#FFD43E"/>
<path d="M62.8467 201.261C62.8467 201.261 81.8783 193.279 87.8887 183.75C95.1927 172.108 85.8285 165.626 79.7238 165.893C82.6854 168.334 80.0096 171.781 77.4447 176.202C72.8386 184.592 73.8797 193.752 62.8467 201.261Z" fill="#A81C25" fill-opacity="0.3"/>
<path d="M62.8467 201.261C62.8467 201.261 81.8783 193.279 87.8887 183.75C95.1927 172.108 85.8285 165.626 79.7238 165.893C82.6854 168.334 80.0096 171.781 77.4447 176.202C72.8386 184.592 73.8797 193.752 62.8467 201.261Z" fill="#FFD43E"/>
<path d="M89.3618 189.264C89.3618 189.264 101.7 182.029 104.09 171.157C106.479 160.284 98.1801 159.416 94.9091 162.523C91.638 165.629 93.9946 171.27 94.5135 174.161C95.3409 179.771 93.4867 185.278 89.3618 189.264Z" fill="#A81C25" fill-opacity="0.3"/>
<path d="M89.3618 189.264C89.3618 189.264 101.7 182.029 104.09 171.157C106.479 160.284 98.1801 159.416 94.9091 162.523C91.638 165.629 93.9946 171.27 94.5135 174.161C95.3409 179.771 93.4867 185.278 89.3618 189.264Z" fill="#FFD43E"/>
<path d="M101.593 181.545C101.593 181.545 116.517 171.459 118.524 162.183C119.773 156.337 113.749 153.839 110.991 156.501C107.209 160.259 109.885 165.286 114.209 164.62C113.328 168.654 108.366 175.493 101.593 181.545Z" fill="#A81C25" fill-opacity="0.3"/>
<path d="M101.593 181.545C101.593 181.545 116.517 171.459 118.524 162.183C119.773 156.337 113.749 153.839 110.991 156.501C107.209 160.259 109.885 165.286 114.209 164.62C113.328 168.654 108.366 175.493 101.593 181.545Z" fill="#FFD43E"/>
<path d="M328.023 139.847C317.272 151.91 316.659 166.836 304.348 171.936C300.892 173.698 296.466 171.998 294.903 168.403C293.921 166.529 293.866 164.355 294.784 162.274C298.422 155.341 306.168 157.473 306.477 163.582C312.023 161.593 317.196 149.541 328.023 139.847Z" fill="#A81C25" fill-opacity="0.3"/>
<path d="M328.023 139.847C317.272 151.91 316.659 166.836 304.348 171.936C300.892 173.698 296.466 171.998 294.903 168.403C293.921 166.529 293.866 164.355 294.784 162.274C298.422 155.341 306.168 157.473 306.477 163.582C312.023 161.593 317.196 149.541 328.023 139.847Z" fill="#FFD43E"/>
<path d="M211.228 -19.5547C251.257 -38.2469 291.212 -47.4971 324.95 -37.597C359.252 -27.7584 376.145 0.0866763 382.295 17.3049C396.059 51.1893 382.805 85.6475 363.31 105.453C345.731 127.015 325.828 144.899 318.653 169.066C310.527 191.569 326.407 225.616 353.208 216.418C365.134 213.944 375.082 202.448 373.728 188.837C373.837 174.673 357.552 165.631 344.34 170.21C357.508 165.242 374.524 174.009 374.67 188.734C376.467 202.887 366.318 215.978 353.96 219.678C341.601 223.378 325.543 224.727 316.156 209.236C307.72 195.411 310.256 180.788 314.941 168.29C324.311 143.295 342.929 124.174 360.153 102.847C379.249 82.8887 391.138 51.5268 378.282 18.9196C372.409 2.45762 356.424 -24.1101 323.717 -33.3358C291.553 -42.8169 245.634 -32.33 206.281 -12.7283L211.228 -19.5547Z" fill="#A81C25" fill-opacity="0.3"/>
<path d="M211.228 -19.5547C251.257 -38.2469 291.212 -47.4971 324.95 -37.597C359.252 -27.7584 376.145 0.0866763 382.295 17.3049C396.059 51.1893 382.805 85.6475 363.31 105.453C345.731 127.015 325.828 144.899 318.653 169.066C310.527 191.569 326.407 225.616 353.208 216.418C365.134 213.944 375.082 202.448 373.728 188.837C373.837 174.673 357.552 165.631 344.34 170.21C357.508 165.242 374.524 174.009 374.67 188.734C376.467 202.887 366.318 215.978 353.96 219.678C341.601 223.378 325.543 224.727 316.156 209.236C307.72 195.411 310.256 180.788 314.941 168.29C324.311 143.295 342.929 124.174 360.153 102.847C379.249 82.8887 391.138 51.5268 378.282 18.9196C372.409 2.45762 356.424 -24.1101 323.717 -33.3358C291.553 -42.8169 245.634 -32.33 206.281 -12.7283L211.228 -19.5547Z" fill="#FFD43E"/>
<path d="M353.595 75.5868C331.396 107.118 293 102.764 281.861 94.4624C297.295 99.9206 340.426 93.4592 322.939 46.2219C307.127 3.55797 254.709 -29.39 194.262 -5.99329C197.483 -8.12573 200.916 -10.0831 204.584 -11.6696C204.584 -11.6696 285.083 -49.9212 328.195 -26.068C367.809 -4.21281 377.091 41.9332 353.595 75.5868ZM232.748 -19.4794C246.7 -21.9834 315.147 -39.3136 341.46 14.4949C359.479 51.174 345.186 79.4707 324.452 93.4088C324.452 93.4088 371.474 68.6945 344.871 12.3418C319.251 -42.1363 241.268 -22.3847 232.748 -19.4794Z" fill="#A81C25" fill-opacity="0.3"/>
<path d="M353.595 75.5868C331.396 107.118 293 102.764 281.861 94.4624C297.295 99.9206 340.426 93.4592 322.939 46.2219C307.127 3.55797 254.709 -29.39 194.262 -5.99329C197.483 -8.12573 200.916 -10.0831 204.584 -11.6696C204.584 -11.6696 285.083 -49.9212 328.195 -26.068C367.809 -4.21281 377.091 41.9332 353.595 75.5868ZM232.748 -19.4794C246.7 -21.9834 315.147 -39.3136 341.46 14.4949C359.479 51.174 345.186 79.4707 324.452 93.4088C324.452 93.4088 371.474 68.6945 344.871 12.3418C319.251 -42.1363 241.268 -22.3847 232.748 -19.4794Z" fill="#FFD43E"/>
<path d="M231.727 -11.2608C252.607 -12.5411 296.382 -4.10188 315.023 40.5214C326.855 68.9572 319.625 86.0768 304.674 89.0758C289.723 92.0749 278.822 83.6132 275.209 71.9994C271.596 60.3856 285.018 50.6638 294.236 51.0418C285.394 53.9689 283.818 68.704 287.867 75.7437C292.937 85.0347 303.494 92.1559 310.897 83.2838C318.299 74.4117 315.191 55.461 303.465 34.6895C280.923 -5.57445 248.586 -10.9241 231.727 -11.2608Z" fill="#A81C25" fill-opacity="0.3"/>
<path d="M231.727 -11.2608C252.607 -12.5411 296.382 -4.10188 315.023 40.5214C326.855 68.9572 319.625 86.0768 304.674 89.0758C289.723 92.0749 278.822 83.6132 275.209 71.9994C271.596 60.3856 285.018 50.6638 294.236 51.0418C285.394 53.9689 283.818 68.704 287.867 75.7437C292.937 85.0347 303.494 92.1559 310.897 83.2838C318.299 74.4117 315.191 55.461 303.465 34.6895C280.923 -5.57445 248.586 -10.9241 231.727 -11.2608Z" fill="#FFD43E"/>
<path d="M326.157 98.6001C335.087 105.974 345.154 104.682 353.564 102.379C365.502 98.8968 379.589 78.6926 384.161 56.1443C376.712 78.8064 360.272 83.3729 350.092 87.061C335.286 92.4434 335.26 99.0023 326.157 98.6001Z" fill="#A81C25" fill-opacity="0.3"/>
<path d="M326.157 98.6001C335.087 105.974 345.154 104.682 353.564 102.379C365.502 98.8968 379.589 78.6926 384.161 56.1443C376.712 78.8064 360.272 83.3729 350.092 87.061C335.286 92.4434 335.26 99.0023 326.157 98.6001Z" fill="#FFD43E"/>
<path d="M17.2215 61.6104C17.2215 61.6104 71.9023 57.4586 93.6344 99.4639C92.8231 71.8973 93.578 47.9406 17.2215 61.6104Z" fill="#A81C25" fill-opacity="0.3"/>
<path d="M17.2215 61.6104C17.2215 61.6104 71.9023 57.4586 93.6344 99.4639C92.8231 71.8973 93.578 47.9406 17.2215 61.6104Z" fill="#FFD43E"/>
<path d="M75.2546 0.340037C86.8705 -1.31447 89.1943 -19.4356 77.3948 -24.4374C81.5124 -28.4191 81.761 -36.3005 74.7708 -37.5048C86.6793 -46.6528 93.1602 -28.1135 82.7045 -24.6214C103.824 -28.0937 108.333 11.6702 75.2546 0.340037Z" fill="#A81C25" fill-opacity="0.3"/>
<path d="M75.2546 0.340037C86.8705 -1.31447 89.1943 -19.4356 77.3948 -24.4374C81.5124 -28.4191 81.761 -36.3005 74.7708 -37.5048C86.6793 -46.6528 93.1602 -28.1135 82.7045 -24.6214C103.824 -28.0937 108.333 11.6702 75.2546 0.340037Z" fill="#FFD43E"/>
</g>
</g>
</svg>
