<svg width="152" height="96" viewBox="0 0 152 96" fill="none" xmlns="http://www.w3.org/2000/svg">
<path d="M83.6187 28.5949C75.4825 11.017 61.5892 8.62183 49.1333 8.62183C36.6775 8.62183 26.4067 13.7138 17.0881 21.1472C7.76962 28.5841 2.62701 39.849 2.62701 39.849L2.6306 39.8526C0.999054 43.0414 0 46.9627 0 51.7315C0 76.0461 21.167 89.1172 34.5105 89.1172C52.3928 89.1172 71.5582 75.4033 80.104 61.4667C84.3985 54.4607 91.0577 44.6681 83.6187 28.5949Z" fill="#DD0E1D"/>
<path fill-rule="evenodd" clip-rule="evenodd" d="M94.7556 40.7723L85.6527 50.5936C85.9506 45.8997 85.6179 41.3492 84.6952 37.0791C84.6487 37.3051 83.7301 37.3467 83.7301 37.3467C83.7948 36.1042 83.0833 31.8669 79.4248 32.7826C78.3144 33.0627 77.2578 33.6229 76.266 34.5673C76.9739 34.1328 77.7969 33.9425 78.6594 34.0286C80.122 34.1723 81.0528 36.1222 79.6189 37.3467C78.512 35.0664 75.8275 35.2316 74.4224 36.9086C74.2211 37.239 74.0235 37.5945 73.8294 37.9715C74.214 37.5155 74.6847 37.16 75.2813 36.9337C77.7178 36.0037 81.0708 38.0685 79.8166 41.9755C78.4114 37.9644 72.8304 40.3739 71.7091 44.1301C71.2455 46.1482 70.8862 48.389 70.6813 50.6621C71.1844 46.615 72.7226 43.2754 76.5606 42.4387C79.7734 41.7385 80.7294 45.5341 80.1148 47.5882C76.6146 44.5466 70.8394 50.2922 70.5052 56.1275C70.5052 56.1994 70.5052 56.2676 70.5088 56.3358C70.3759 56.0593 70.2645 55.7433 70.1746 55.395V55.4022C69.3516 53.1758 67.3428 49.6566 66.2539 50.4969C66.2539 48.3136 68.9527 46.8125 69.923 50.3066C70.2177 46.5827 71.2707 42.1371 72.6399 38.6933C73.4557 36.6465 74.5589 35.2173 75.6227 34.0538C77.5777 31.0876 76.6361 29.6476 75.7233 29.1521C76.3774 28.0281 77.38 28.2292 77.7681 28.7499C78.2892 29.4501 78.282 30.7896 77.4591 32.1362C78.2497 31.2815 78.8534 30.47 79.0295 29.4645C79.4212 27.2561 77.5525 26.229 77.0135 26.8215C76.1114 25.9023 76.9811 24.9291 78.1778 25.0081C79.3673 25.0871 80.5137 26.3224 80.6934 27.3817C81.0133 29.2706 80.3161 30.61 79.0619 32.0859C82.3169 31.2388 83.3853 33.958 84.1065 35.7933C84.3154 36.3251 84.4952 36.7827 84.6906 37.0578C81.5222 22.4302 71.4269 11.0969 56.0297 8.56836C67.8027 8.99569 84.0787 14.8885 94.7556 40.7723ZM5.96557 33.3606C15.3092 20.53 36.1492 20.9717 48.544 31.4286C71.5079 50.802 65.4309 78.7003 49.5933 86.4389C46.571 87.9148 45.8199 88.1374 42.3592 88.457C70.3579 80.0864 61.9342 46.3096 43.8649 33.2995C28.1712 22.0023 10.7668 25.4137 3.61887 37.5082C4.31246 35.9676 5.0348 34.639 5.96557 33.3606ZM59.4149 20.016C59.5084 19.5492 58.9406 19.1578 58.3799 18.9998C57.8229 18.8418 57.079 18.8884 56.9389 19.3624C56.7987 19.8365 57.2515 20.2925 57.9595 20.5008C58.671 20.7127 59.3215 20.4828 59.4149 20.016ZM71.7163 37.3821C72.2014 40.2585 70.2033 40.2477 69.3193 39.4613C69.7757 42.0073 69.366 43.4509 67.3966 45.3326C64.7373 43.81 64.0796 41.5908 64.0365 40.7577C62.7284 42.1797 60.6548 41.3789 60.2523 39.1166C61.334 39.5152 62.3259 38.1398 62.6673 36.3946L62.6894 36.281C63.0149 34.6094 64.0063 29.5166 67.7165 27.805C67.0444 27.9415 66.3041 28.0205 65.492 28.0276H65.4991C63.4579 28.4909 59.1347 32.6133 60.6728 36.1935C59.3575 36.4844 57.6289 35.7123 57.212 33.942C56.6981 31.7551 59.3826 28.1461 63.9071 27.9594C63.3968 27.9091 62.8613 27.8337 62.3007 27.7332C62.3046 27.7351 62.3075 27.736 62.3104 27.737L62.3131 27.7379C62.3148 27.7386 62.3166 27.7393 62.3187 27.7404C59.6845 27.1371 55.1888 31.1195 55.7314 32.344C54.1286 32.089 53.4781 30.3905 53.5931 29.4569C53.8231 27.6003 56.637 26.6918 59.4437 27.0186C59.2209 26.9503 58.9945 26.8785 58.7645 26.7995C58.3548 26.6595 57.9631 26.5194 57.5786 26.3758C53.9633 25.5894 51.631 28.455 51.7172 28.8787C50.5493 28.5088 49.0902 26.8247 50.4019 25.7043C51.1674 25.0507 53.3164 24.9466 54.8474 25.241C54.6353 25.1441 54.4305 25.0435 54.2256 24.943L54.2292 24.9466C52.5689 24.311 49.2124 23.8262 48.5691 24.9969C47.2143 24.7742 46.7974 23.2588 48.1199 23.0075C49.3094 22.7812 50.6715 23.126 51.5375 23.4204C47.6491 20.8816 46.4955 18.6624 47.3868 16.7376C48.6985 13.9007 54.7144 13.003 59.9325 16.2672C65.1506 19.5278 64.3456 22.5622 61.8767 23.6933C58.114 25.4206 53.8303 22.4078 55.7458 19.9192C56.1698 22.1169 61.4023 22.5298 60.5003 19.5601C59.1958 15.2617 51.5196 15.1863 50.826 18.2566C49.7838 22.8638 61.3448 28.9864 67.9968 26.936C69.6607 26.4225 70.9939 25.5391 71.8349 24.4007C70.5591 25.6791 68.3849 26.2178 66.9905 25.909C64.9781 25.4673 64.457 24.0919 64.9205 22.7633C65.9483 24.1817 72.55 24.7922 72.8303 21.4849C72.8411 20.8349 72.7261 20.149 72.4745 19.4416C72.8159 21.0396 71.8097 22.2067 69.7829 22.3288C66.5162 22.5298 65.0355 20.3824 65.1829 19.4057C65.8118 20.0269 68.083 20.7308 69.826 20.1706C70.9688 19.8043 71.763 18.0734 71.0299 16.9207C70.6094 16.3893 70.1818 15.9045 69.7505 15.4556C70.5483 16.5257 70.5339 17.4773 69.5061 18.1955C67.6122 19.517 63.0051 17.5276 62.2181 15.3048C66.3005 15.6711 68.3022 14.1808 66.1137 12.5685C65.3698 12.1268 64.6043 11.739 63.8137 11.3834C64.8559 12.0765 65.5279 12.7767 65.5279 13.1897C65.5279 14.1413 62.6529 14.0049 61.1184 13.0532C62.9045 12.4033 60.1661 10.0584 58.4806 9.37609L58.3839 9.34173C57.9296 9.18034 57.4659 9.01561 56.9928 8.84462C58.0961 9.10676 59.1203 9.39045 60.087 9.69209C60.4751 9.79982 60.856 9.92551 61.2262 10.0656C71.993 13.7894 73.8941 19.93 73.4305 22.8638C73.4341 22.8566 73.4377 22.8494 73.4413 22.8459C73.4067 23.3092 73.3364 23.8031 73.2635 24.3155C73.0177 26.0427 72.7419 27.981 73.7036 29.6759C71.5006 30.9651 70.8358 27.7368 71.6731 25.8874V25.8838C71.4935 26.049 71.2994 26.207 71.0946 26.3614H71.0982C69.8763 27.4351 71.2239 31.7048 73.5922 32.3081C73.4053 34.2113 71.4288 34.513 70.48 33.8414C68.9779 32.7785 68.6149 28.5735 70.2033 26.9288C69.9493 27.0646 69.6775 27.1933 69.3915 27.3079C68.1283 28.094 67.29 31.2295 68.7155 33.8666C70.1422 36.5059 70.8502 36.9476 71.7163 37.3821ZM66.9151 31.3206C66.2358 32.0388 64.6402 34.987 64.6834 37.9639C64.7013 39.3716 65.5315 40.6212 66.5952 40.2908C67.4865 40.0143 68.1836 39.1633 67.6626 37.5222C67.1415 35.8811 66.3077 32.2399 66.9151 31.3206ZM37.9557 15.8082C38.2169 15.7132 38.4681 15.6218 38.6936 15.4954C37.0009 15.8904 35.6605 15.7971 35.028 15.4488C34.3919 15.0932 33.8636 14.8922 31.7433 14.7377C35.9408 12.6478 40.2461 14.0555 40.7097 14.5977L40.8549 14.5745C41.6512 14.447 42.1379 14.369 42.7078 14.6911C43.0384 14.6659 46.3015 14.1488 48.8638 13.682C45.3995 13.9836 41.1481 13.5419 39.4303 12.7986C37.4825 11.9583 37.9856 10.8379 39.4303 10.5902C39.0817 11.7716 45.3779 12.3246 46.6716 10.7913C47.4659 9.85042 45.669 8.56126 42.9845 8.72285C44.8999 8.38889 52.6552 8.61871 53.8052 10.723L53.816 10.7338C54.6964 11.9332 52.9607 13.2762 51.074 13.7646C50.1539 14.004 47.9637 14.3809 46.101 14.7015L46.101 14.7015C44.6388 14.9531 43.3784 15.17 43.0923 15.2584C43.06 15.5673 42.5029 15.8761 41.6045 16.0161C41.3738 18.4871 38.0705 19.384 35.9771 19.9525C35.5272 20.0746 35.1332 20.1816 34.8375 20.2858C35.0785 20.1446 35.1706 19.768 35.2979 19.247C35.4232 18.7345 35.5827 18.0823 35.9516 17.3771C36.4925 16.3404 37.2596 16.0614 37.9557 15.8082ZM28.5629 17.6751C28.1712 17.8007 27.1541 18.3035 27.474 18.8457C27.7938 19.388 28.6707 19.2982 29.6338 18.975C28.8791 19.5891 29.0983 20.2031 30.2376 20.476C31.2294 20.713 33.0299 20.3719 33.7414 19.625C34.5717 18.7574 34.682 18.3684 34.9114 17.5594L34.9417 17.4524C34.0074 18.0916 32.6777 17.6392 32.5196 17.1651C32.3255 16.587 33.2132 16.0232 34.4638 15.8724C34.2266 15.7754 33.5653 15.5636 32.5016 15.4558C30.8018 15.2835 28.3868 15.7288 27.438 17.1256C27.2296 17.4416 27.9232 17.6894 28.5629 17.6751ZM42.3401 18.8195L42.3401 18.8195L42.3404 18.8193C42.5418 18.6821 42.7309 18.5533 42.8875 18.4327C43.7392 17.772 43.8075 17.2262 43.4517 16.5259C45.6367 17.6499 45.9206 19.9589 44.9287 20.9464C43.7787 22.0955 41.6836 22.3936 40.9828 21.5964C39.9642 20.4375 41.3121 19.5195 42.3401 18.8195ZM20.822 22.0345C22.9028 21.46 27.1685 18.264 25.307 16.6588C24.502 15.9658 22.0726 16.0986 18.0836 19.1223C19.8517 17.9731 22.7087 16.5475 22.8093 17.8439C22.874 18.6842 21.0412 21.4061 17.6775 21.6611C17.7638 22.153 18.5005 22.6773 20.822 22.0345ZM73.7939 55.6548C72.2257 55.5762 72.4717 53.5191 73.7939 52.434C75.2567 53.494 77.9428 52.7957 79 51.9999C78.9815 52.5143 78.9769 52.6257 78.9732 52.7371C78.9706 52.8177 78.9684 52.8984 78.9617 53.1323C78.9588 53.1775 78.9585 53.2284 78.9582 53.2842C78.9578 53.3526 78.9574 53.4283 78.9521 53.5097C77.5052 54.8654 75.0044 57.8503 73.3819 61.348C71.7562 64.8425 70.0507 69.2932 71.0695 70.1582C72.0884 71.0231 75.145 67.4028 76.052 65.3237C76.9591 63.2446 76.7132 62.6501 76.2437 62.5684C75.7742 62.4866 73.7939 63.8422 73.8482 66.3365C73.053 66.0409 72.9444 64.7701 73.8802 63.0182C75.0108 60.9045 76.892 59.272 77.8406 60.1307C78.9617 61.1498 77.0421 66.0283 74.289 69.1799C71.5391 72.3316 69.3576 73.6401 68.7763 72.7028C67.9811 71.4194 70.0219 66.7737 71.7722 63.0874C70.2615 65.3709 68.8115 67.0537 67.8916 67.3084C66.4735 67.7016 67.0133 65.9339 67.6872 64.9305C68.6454 64.9935 71.6157 61.911 73.2606 60.0741C73.433 59.7627 73.6087 59.4576 73.7939 59.1619C71.9287 60.917 69.8495 62.2067 68.6709 61.8481C67.9395 61.6279 67.1027 60.4421 67.9332 58.9072C68.9744 59.4544 73.9696 57.303 76.8122 55.2648C77.2721 54.771 77.7129 54.3275 78.1217 53.9312C76.7387 55.1453 75.4324 55.7366 73.7939 55.6548Z" fill="#EABD63"/>
<mask id="mask0" mask-type="alpha" maskUnits="userSpaceOnUse" x="41" y="30" width="31" height="26">
<path opacity="0.7" d="M54.488 55.7105C51.3435 46.1513 48.1882 40.693 41.6908 38.2547C53.604 29.7908 68.2556 27.0473 70.6562 34.8612C73.0604 42.6788 62.5344 47.1352 54.488 55.7105Z" fill="#EAEAEA"/>
</mask>
<g mask="url(#mask0)">
<path fill-rule="evenodd" clip-rule="evenodd" d="M94.7556 40.7723L85.6527 50.5936C85.9506 45.8997 85.6179 41.3492 84.6952 37.0791C84.6487 37.3051 83.7301 37.3467 83.7301 37.3467C83.7948 36.1042 83.0833 31.8669 79.4248 32.7826C78.3144 33.0627 77.2578 33.6229 76.266 34.5673C76.9739 34.1328 77.7969 33.9425 78.6594 34.0286C80.122 34.1723 81.0528 36.1222 79.6189 37.3467C78.512 35.0664 75.8275 35.2316 74.4224 36.9086C74.2211 37.239 74.0235 37.5945 73.8294 37.9715C74.214 37.5155 74.6847 37.16 75.2813 36.9337C77.7178 36.0037 81.0708 38.0685 79.8166 41.9755C78.4114 37.9644 72.8304 40.3739 71.7091 44.1301C71.2455 46.1482 70.8862 48.389 70.6813 50.6621C71.1844 46.615 72.7226 43.2754 76.5606 42.4387C79.7734 41.7385 80.7294 45.5341 80.1148 47.5882C76.6146 44.5466 70.8394 50.2922 70.5052 56.1275V56.128C70.5052 56.1997 70.5052 56.2677 70.5088 56.3358C70.3759 56.0593 70.2645 55.7433 70.1746 55.395V55.4022C69.3516 53.1758 67.3428 49.6566 66.2539 50.4969C66.2539 48.3136 68.9527 46.8125 69.923 50.3066C70.2177 46.5827 71.2707 42.1371 72.6399 38.6933C73.4557 36.6465 74.5589 35.2173 75.6227 34.0538C77.5777 31.0876 76.6361 29.6476 75.7233 29.1521C76.3774 28.0281 77.38 28.2292 77.7681 28.7499C78.2892 29.4501 78.282 30.7896 77.4591 32.1362C78.2497 31.2815 78.8534 30.47 79.0295 29.4645C79.4212 27.2561 77.5525 26.229 77.0135 26.8215C76.1114 25.9023 76.9811 24.9291 78.1778 25.0081C79.3673 25.0871 80.5137 26.3224 80.6934 27.3817C81.0133 29.2706 80.3161 30.61 79.0619 32.0859C82.3169 31.2388 83.3853 33.958 84.1065 35.7933C84.3154 36.3251 84.4952 36.7827 84.6906 37.0578C81.5222 22.4302 71.4269 11.0969 56.0297 8.56836C67.8027 8.99569 84.0787 14.8885 94.7556 40.7723ZM5.96557 33.3606C15.3092 20.53 36.1492 20.9717 48.544 31.4286C71.5079 50.802 65.4309 78.7003 49.5933 86.4389C46.571 87.9148 45.8199 88.1374 42.3592 88.457C70.3579 80.0864 61.9342 46.3096 43.8649 33.2995C28.1712 22.0023 10.7668 25.4137 3.61887 37.5082C4.31246 35.9676 5.0348 34.639 5.96557 33.3606ZM59.4149 20.016C59.5084 19.5492 58.9406 19.1578 58.3799 18.9998C57.8229 18.8418 57.079 18.8884 56.9389 19.3624C56.7987 19.8365 57.2515 20.2925 57.9595 20.5008C58.671 20.7127 59.3215 20.4828 59.4149 20.016ZM71.7163 37.3821C72.2014 40.2585 70.2033 40.2477 69.3193 39.4613C69.7757 42.0073 69.366 43.4509 67.3966 45.3326C64.7373 43.81 64.0796 41.5908 64.0365 40.7577C62.7284 42.1797 60.6548 41.3789 60.2523 39.1166C61.334 39.5152 62.3259 38.1398 62.6673 36.3946L62.6894 36.281C63.0149 34.6094 64.0063 29.5166 67.7165 27.805C67.0444 27.9415 66.3041 28.0205 65.492 28.0276H65.4991C63.4579 28.4909 59.1347 32.6133 60.6728 36.1935C59.3575 36.4844 57.6289 35.7123 57.212 33.942C56.6981 31.7551 59.3826 28.1461 63.9071 27.9594C63.3968 27.9091 62.8613 27.8337 62.3007 27.7332C62.3043 27.735 62.307 27.7359 62.3097 27.7368C62.3124 27.7377 62.3151 27.7386 62.3187 27.7404C59.6845 27.1371 55.1888 31.1195 55.7314 32.344C54.1286 32.089 53.4781 30.3905 53.5931 29.4569C53.8231 27.6003 56.637 26.6918 59.4437 27.0186C59.2209 26.9503 58.9945 26.8785 58.7645 26.7995C58.3548 26.6595 57.9631 26.5194 57.5786 26.3758C53.9633 25.5894 51.631 28.455 51.7172 28.8787C50.5493 28.5088 49.0902 26.8247 50.4019 25.7043C51.1674 25.0507 53.3164 24.9466 54.8474 25.241C54.6353 25.1441 54.4305 25.0435 54.2256 24.943L54.2292 24.9466C52.5689 24.311 49.2124 23.8262 48.5691 24.9969C47.2143 24.7742 46.7974 23.2588 48.1199 23.0074C49.3094 22.7812 50.6715 23.126 51.5375 23.4204C47.6491 20.8816 46.4955 18.6624 47.3868 16.7376C48.6985 13.9007 54.7144 13.003 59.9325 16.2672C65.1505 19.5278 64.3456 22.5622 61.8767 23.6933C58.114 25.4206 53.8303 22.4078 55.7458 19.9192C56.1698 22.1169 61.4023 22.5298 60.5003 19.5601C59.1958 15.2617 51.5196 15.1863 50.826 18.2566C49.7838 22.8638 61.3448 28.9864 67.9968 26.936C69.6607 26.4225 70.9939 25.5391 71.8349 24.4007C70.5591 25.6791 68.3849 26.2178 66.9905 25.909C64.9781 25.4673 64.457 24.0919 64.9205 22.7633C65.9483 24.1817 72.55 24.7922 72.8303 21.4849C72.8411 20.8349 72.7261 20.149 72.4745 19.4416C72.8159 21.0396 71.8097 22.2067 69.7829 22.3288C66.5162 22.5298 65.0355 20.3824 65.1829 19.4057C65.8118 20.0269 68.083 20.7308 69.826 20.1706C70.9688 19.8043 71.763 18.0734 71.0299 16.9207C70.6094 16.3893 70.1818 15.9045 69.7505 15.4556C70.5483 16.5257 70.5339 17.4773 69.5061 18.1955C67.6122 19.517 63.0051 17.5276 62.2181 15.3048C66.3005 15.6711 68.3022 14.1808 66.1137 12.5685C65.3698 12.1268 64.6043 11.739 63.8137 11.3834C64.8559 12.0765 65.5279 12.7767 65.5279 13.1897C65.5279 14.1413 62.6529 14.0049 61.1184 13.0532C62.9045 12.4033 60.1661 10.0584 58.4806 9.37609L58.3839 9.34173C57.9296 9.18034 57.4659 9.01561 56.9928 8.84462C58.0961 9.10676 59.1203 9.39045 60.087 9.69209C60.4751 9.79982 60.856 9.92551 61.2262 10.0656C71.993 13.7894 73.8941 19.93 73.4305 22.8638C73.4341 22.8566 73.4377 22.8494 73.4413 22.8459C73.4067 23.3092 73.3365 23.8031 73.2635 24.3155C73.0177 26.0427 72.7419 27.981 73.7036 29.6759C71.5006 30.9651 70.8358 27.7368 71.6731 25.8874V25.8838C71.4935 26.049 71.2994 26.207 71.0946 26.3614H71.0982C69.8763 27.4351 71.2239 31.7048 73.5922 32.3081C73.4053 34.2113 71.4288 34.513 70.48 33.8414C68.9779 32.7785 68.6149 28.5735 70.2033 26.9288C69.9493 27.0646 69.6775 27.1933 69.3915 27.3079C68.1283 28.094 67.29 31.2295 68.7155 33.8666C70.1422 36.5059 70.8502 36.9476 71.7163 37.3821ZM66.9151 31.3206C66.2359 32.0388 64.6402 34.987 64.6834 37.9639C64.7013 39.3715 65.5315 40.6212 66.5952 40.2908C67.4865 40.0143 68.1836 39.1633 67.6626 37.5222C67.1415 35.8811 66.3077 32.2399 66.9151 31.3206ZM37.9557 15.8082C38.2169 15.7132 38.4681 15.6218 38.6936 15.4954C37.0009 15.8904 35.6605 15.7971 35.028 15.4488C34.3919 15.0932 33.8636 14.8922 31.7433 14.7377C35.9408 12.6478 40.2461 14.0555 40.7097 14.5977L40.8549 14.5745C41.6512 14.447 42.1379 14.369 42.7078 14.6911C43.0384 14.6659 46.3015 14.1488 48.8638 13.682C45.3995 13.9836 41.1481 13.5419 39.4303 12.7986C37.4825 11.9583 37.9856 10.8379 39.4303 10.5902C39.0817 11.7716 45.3779 12.3246 46.6716 10.7913C47.4659 9.85042 45.669 8.56126 42.9845 8.72285C44.8999 8.38889 52.6552 8.61871 53.8052 10.723L53.816 10.7338C54.6964 11.9332 52.9607 13.2762 51.074 13.7646C50.1539 14.004 47.9637 14.3809 46.101 14.7015C44.6388 14.9531 43.3784 15.17 43.0923 15.2584C43.06 15.5673 42.5029 15.8761 41.6045 16.0161C41.3738 18.4871 38.0705 19.384 35.9771 19.9525C35.5272 20.0746 35.1332 20.1816 34.8375 20.2858C35.0785 20.1446 35.1706 19.768 35.2979 19.247C35.4232 18.7345 35.5827 18.0823 35.9516 17.3771C36.4925 16.3404 37.2596 16.0614 37.9557 15.8082ZM28.5629 17.6751C28.1712 17.8007 27.1541 18.3035 27.474 18.8457C27.7938 19.388 28.6707 19.2982 29.6338 18.975C28.8791 19.5891 29.0983 20.2031 30.2376 20.476C31.2294 20.713 33.0299 20.3719 33.7414 19.625C34.5717 18.7574 34.682 18.3684 34.9114 17.5594L34.9417 17.4524C34.0074 18.0916 32.6777 17.6392 32.5196 17.1651C32.3255 16.587 33.2132 16.0232 34.4638 15.8724C34.2266 15.7754 33.5653 15.5636 32.5016 15.4558C30.8018 15.2835 28.3868 15.7288 27.438 17.1256C27.2296 17.4416 27.9232 17.6894 28.5629 17.6751ZM42.3401 18.8195C42.5416 18.6823 42.7308 18.5534 42.8875 18.4327C43.7392 17.772 43.8075 17.2262 43.4517 16.5259C45.6367 17.6499 45.9206 19.9589 44.9287 20.9464C43.7787 22.0955 41.6836 22.3936 40.9828 21.5964C39.9642 20.4375 41.3121 19.5195 42.3401 18.8195ZM20.822 22.0345C22.9028 21.46 27.1685 18.264 25.307 16.6588C24.502 15.9658 22.0726 16.0986 18.0836 19.1223C19.8517 17.9731 22.7087 16.5475 22.8093 17.8439C22.874 18.6842 21.0412 21.4061 17.6775 21.6611C17.7638 22.153 18.5005 22.6773 20.822 22.0345ZM74.3936 55.8504C72.6291 55.7606 72.9058 53.4121 74.3936 52.1732C76.0395 53.3834 79.0619 52.5862 80.2514 51.6777C80.2305 52.265 80.2254 52.3921 80.2213 52.5192C80.2183 52.6113 80.2158 52.7034 80.2083 52.9704C80.205 53.022 80.2047 53.0802 80.2043 53.1439C80.2039 53.222 80.2034 53.3084 80.1975 53.4013C78.5695 54.949 75.7556 58.3569 73.93 62.3501C72.1008 66.3396 70.1818 71.4209 71.3282 72.4084C72.4746 73.3959 75.9137 69.2627 76.9344 66.8891C77.955 64.5154 77.6783 63.8367 77.15 63.7434C76.6217 63.65 74.3936 65.1977 74.4547 68.0454C73.5599 67.7078 73.4377 66.257 74.4906 64.2569C75.7628 61.8437 77.8795 59.98 78.9468 60.9603C80.2082 62.1238 78.0484 67.6934 74.9506 71.2916C71.8564 74.8898 69.4019 76.3836 68.7479 75.3135C67.853 73.8484 70.1494 68.5445 72.1188 64.3359C70.4189 66.9429 68.7874 68.8641 67.7524 69.155C66.1568 69.6038 66.7641 67.5857 67.5224 66.4402C68.6005 66.512 71.9427 62.9928 73.7935 60.8957C73.9875 60.5402 74.1852 60.1919 74.3936 59.8543C72.2949 61.8581 69.9554 63.3304 68.6293 62.921C67.8063 62.6697 66.8648 61.3159 67.7991 59.5635C68.9707 60.1883 74.5913 57.7321 77.7897 55.4051C78.3072 54.8413 78.8031 54.335 79.2631 53.8825C77.707 55.2686 76.2372 55.9437 74.3936 55.8504Z" fill="#EAEAEA"/>
</g>
<path opacity="0.21" d="M52.5 85C73.1998 71.7636 61.909 51.6851 82.5549 25.9988C95.5498 45.6343 78 73 52.5 85Z" fill="#7C3813"/>
<path d="M23.5281 32.8108C37.2741 32.8108 53.5895 46.7977 53.5895 65.2014C53.5895 77.4359 45.1515 84.8621 33.7702 84.8621C22.3889 84.8621 4.33761 73.7121 4.33761 52.9742C4.33761 38.0752 15.7225 32.8108 23.5281 32.8108Z" fill="#EAEAEA"/>
<path d="M38.5211 63.4997L28.951 61.9053V72.5202L23.4059 71.4322V60.9824L14.6013 59.5173V53.6963L23.4059 55.0142V44.5645L28.951 45.2288V55.8437L38.5211 57.2765V63.4997Z" fill="#DD0E1D"/>
<path d="M141.826 85.4869C143.893 83.2246 152 65.7078 152 45.6665C152 26.3506 146.369 12.5325 144.665 8.56808C142.063 2.5101 128.008 0 110.676 0C93.3433 0 79.2883 2.5101 76.6828 8.57167C74.9794 12.5361 69.348 26.3542 69.348 45.6701C69.348 65.7114 77.4555 83.2246 79.5218 85.4905C81.5882 87.7528 88.2869 95.8792 110.672 95.8792C133.057 95.8792 139.76 87.7528 141.826 85.4869Z" fill="#DD0E1D"/>
<path fill-rule="evenodd" clip-rule="evenodd" d="M110.53 24.1497C136.412 24.1497 147.526 18.8853 146.844 14.3607C146.252 12.5293 145.214 9.91504 145.214 9.91504C146.784 14.1883 136.342 19.3198 110.527 19.3198C84.7117 19.3198 74.2696 14.1883 75.8392 9.91504C75.8392 9.91504 74.801 12.5293 74.2097 14.3607C73.534 18.8889 84.6484 24.1497 110.53 24.1497ZM150.747 33.4682C150.236 31.7338 149.353 31.0946 148.867 32.2221C148.712 32.5776 148.61 33.2168 148.54 34.0428C148.464 32.9147 148.368 31.8068 148.28 30.7817C148.05 28.1094 147.869 25.9995 148.202 25.5609C147.505 24.1245 145.619 25.0725 145.52 28.6204C145.442 31.43 145.741 32.2944 146.239 33.7304C146.322 33.9683 146.41 34.2218 146.502 34.5024C144.971 31.0874 143.595 26.4227 144.581 25.3095C143.405 24.2394 141.346 26.8716 142.166 29.7156C142.585 31.1592 143.215 33.2456 144.405 34.7322C140.065 34.7502 136.31 37.4542 134.48 43.9108C132.65 50.3638 135.916 55.7502 138.89 55.8723C141.864 55.9944 145.253 52.741 146.073 45.5016C146.439 42.2625 145.51 40.5245 144.429 40.2085C143.338 39.8889 141.505 40.9985 141.772 43.918C142.448 42.7796 144.869 42.9161 144.595 46.7261C144.394 49.5019 142.867 51.6745 141.015 51.8289C139.699 51.9366 137.858 50.6403 137.464 46.9057C136.94 41.9357 139.175 37.4003 143.683 36.6893C147.474 36.0918 148.25 42.3259 148.571 44.9084L148.596 45.1138C148.621 45.832 148.642 46.4496 148.649 46.9093C148.696 49.4393 148.612 50.6008 148.545 51.5403L148.545 51.542C148.532 51.7233 148.519 51.8964 148.508 52.0695L148.507 52.0824C148.483 52.4733 148.319 55.1352 147.516 58.702C148.019 55.3876 147.565 53.136 146.801 52.4394C145.387 51.161 144.218 53.4197 144.405 54.4898C146.016 52.9852 146.917 60.8351 144.531 67.4353C144.461 67.5825 144.387 67.7298 144.313 67.8734C145.007 65.8053 145.139 64.0626 145.214 63.0759L145.225 62.9322C145.471 59.6465 145.063 57.7253 143.592 57.0645C142.462 56.5582 141.121 57.201 140.822 58.2819C143.261 59.0935 142.684 70.958 135.479 77.9569C135.43 77.9892 135.381 78.0179 135.328 78.0466C136.141 77.192 136.88 76.0788 137.478 74.6173C139.836 68.8394 136.19 68.8753 135.096 69.0261C135.096 73.3496 131.436 78.3196 128.004 80.2623C130.559 78.5566 132.347 73.2527 129.134 73.2347C129.429 77.271 124.548 79.5118 120.212 79.8637C123.464 79.4112 126.234 77.2171 124.58 75.0446C122.169 78.1185 113.233 77.0089 108.605 71.6619C106.486 68.254 105.29 64.7169 104.674 62.5264C104.755 62.6705 104.837 62.8177 104.921 62.9677C107.128 66.9076 110.397 72.7428 119.107 72.7428C125.843 72.7428 129.781 68.6608 132.527 65.8152C133.865 64.4281 134.92 63.3348 135.877 63.1513C136.866 62.9609 137.035 64.2321 136.577 64.7852C138.833 64.4296 139.988 62.6234 139.699 60.5658C139.52 59.2838 137.524 57.8833 135.166 59.6465C134.578 60.0882 133.406 61.4348 132.907 62.4474C134.575 57.4919 134.142 50.9742 128.898 44.532C129.31 43.6953 129.528 42.9771 128.546 41.214C129.257 39.7273 132.372 31.7445 125.544 27.834C125.217 29.9814 124.794 32.3406 124.467 33.9925C124.153 35.58 123.484 39.2004 125.469 41.3862C124.436 40.4539 122.27 39.677 119.758 41.0488C116.817 42.652 115.029 43.0496 114.038 43.27C113.888 43.3033 113.756 43.3326 113.641 43.3614C115.169 45.5626 120.078 49.7497 125.488 44.848C126.146 45.7278 126.913 46.3347 127.677 45.674C130.482 49.2218 131.787 52.504 132.178 55.5456C131.041 51.6565 127.761 49.0782 123.256 49.8467C119.286 50.5218 117.896 53.689 119.565 56.7737C121.708 54.005 126.681 54.0302 127.578 58.781C128.448 63.3703 126.456 68.5162 121.282 69.852C122.197 69.1877 123.812 67.4209 124.273 66.1569C126.463 60.1636 120.701 56.569 117.696 60.6053C119.878 60.3288 121.015 64.4871 118.748 67.3204C116.482 70.1537 113.993 69.773 111.875 68.8178C109.133 67.245 107.109 64.1136 105.131 60.3575C106.56 62.2068 108.355 63.7186 110.805 64.76C115.514 66.7602 118.727 61.6933 112.825 57.8043C109.777 61.2014 102.953 55.3301 100.993 52.1808C100.651 51.5344 100.296 50.8881 99.9332 50.2453C101.429 52.0013 103.646 53.2294 104.786 53.3551C107.342 53.6316 109.573 52.2814 108.478 49.0315C103.907 49.2488 101.947 47.6319 99.1881 45.3568C98.2084 44.5488 97.128 43.6578 95.7943 42.7365C102.435 45.9074 109.731 43.9144 110.087 36.3374C110.323 31.328 106.74 27.895 102.939 28.6096C99.2328 29.3063 97.5013 32.9762 98.5289 35.9783C101.14 32.136 105.856 34.2941 105.673 37.8995C105.413 43.0956 100.609 42.9664 97.5083 41.907C95.182 41.1134 91.5464 38.8655 87.5835 36.1184C89.9486 37.1023 92.1025 37.0233 93.6651 36.4882C98.5324 34.8256 97.8497 28.4839 93.3941 27.9525C93.2779 33.2635 86.3904 34.366 82.9766 32.8218C82.7725 32.6728 82.5692 32.5229 82.366 32.373C82.1627 32.223 81.9595 32.0731 81.7554 31.9241C85.3346 33.1199 90.114 32.2976 89.9978 28.6312C89.931 26.5592 87.668 26.8321 86.6861 27.3635C86.5136 31.0228 81.0902 30.5523 78.9152 29.8018L78.4447 29.4458L78.4443 29.4454L78.4407 29.4427L78.44 29.4422L78.4354 29.4387C78.1472 29.2207 77.8611 29.0042 77.5778 28.7892C79.2988 29.6259 81.8856 29.8988 82.8112 28.4839C83.9902 26.6777 83.1596 25.7117 80.7875 25.8302C81.2486 27.719 76.4058 27.421 74.7728 26.6525C74.3182 26.3049 73.876 25.9663 73.4482 25.6388L73.4457 25.6368L73.4453 25.6366L73.4451 25.6364L73.4439 25.6354L73.443 25.6348C72.6044 24.9927 71.8214 24.393 71.1091 23.8516C71.0458 24.1604 71 24.3974 71 24.3974C71 24.3974 71.0563 24.4405 71.1513 24.5159C71.2464 24.6488 71.4047 24.7493 71.6053 24.8642C71.8601 25.0599 72.1945 25.3182 72.5981 25.6301L72.6007 25.6321L72.6011 25.6324L72.6031 25.634L72.604 25.6346L73.1081 26.0241C73.907 26.9398 74.7587 28.5881 75.3113 31.8487C75.8251 34.8831 75.4943 37.386 74.7095 37.1597C74.449 38.0611 75.438 39.5118 76.1454 39.5406C78.3169 39.7632 78.4858 36.912 77.6412 33.0732C77.1308 30.7714 76.0891 28.7173 74.1992 26.8644C74.8121 27.3401 75.5035 27.8805 76.2595 28.4713L76.441 28.6132C77.9544 30.2184 79.1439 31.8379 79.8901 38.0216C80.3863 42.1332 78.4717 42.4277 78.0177 42.0363C77.7714 43.4835 78.7638 45.1102 80.0308 45.2574C81.2978 45.4046 83.9092 44.7618 83.2793 39.3179C82.8534 35.6336 81.8398 33.3748 80.1716 31.5506C80.6691 31.9464 81.1823 32.3536 81.7077 32.7705L82.1073 33.0876C88.1924 40.1726 85.5282 47.5197 83.4165 47.5341C83.7755 51.8289 90.2336 52.2957 89.8324 45.6345C89.5755 41.3971 88.4669 38.6679 85.9048 36.1255C86.7142 36.7791 87.5413 37.447 88.3789 38.1257C91.1874 40.3342 93.1161 53.9835 87.8545 53.1611C87.9812 54.7915 89.6072 56.9927 92.0215 56.7593C96.6566 56.314 96.8044 51.3298 95.7556 48.1517C95.0799 46.1085 94.2423 43.8461 92.4333 41.6556C93.8023 42.9951 95.0165 44.3704 96.09 45.7709C97.9341 48.6078 99.5953 52.8236 97.2971 58.4399C97.218 58.4399 97.1373 58.4319 97.0549 58.4238C96.4996 58.3689 95.8673 58.3065 95.1256 60.6268C94.9946 60.5707 94.809 60.47 94.5796 60.3455C92.6644 59.3062 87.6953 56.6096 85.9259 64.383C87.7173 63.3847 88.9913 63.2877 90.5961 64.383C92.201 65.4782 95.731 65.5141 96.6284 62.469C96.6119 62.8925 96.5799 63.2815 96.5495 63.6511C96.4119 65.3251 96.3068 66.6032 97.8145 68.9004C99.5842 71.5969 99.3271 73.2079 99.1795 74.1324L99.1624 74.2402C100.813 72.6243 102.541 69.6904 101.218 65.981C99.898 62.2715 99.1343 62.767 99.1343 62.767C99.4651 61.1008 99.3243 60.3898 98.6169 59.3412L98.6297 59.2869C99.0079 57.6859 99.9288 53.7874 98.6345 49.5414C101.76 54.8776 103.051 60.2892 103.157 64.8785C103.329 72.3549 100.581 77.0125 96.7411 79.1168C92.011 79.8026 87.2773 76.6928 87.0134 74.3336C85.6302 74.5957 85.7006 76.6605 86.5418 78.1472C86.7142 78.4524 86.9254 78.7469 87.1718 79.0306C84.2612 76.5779 82.2199 71.9599 82.2199 70.4805C81.1183 70.1609 80.3969 71.1843 80.2948 72.4519C80.2103 73.5112 80.6327 74.9153 81.3964 76.1758C81.3911 76.1704 81.3859 76.166 81.3807 76.1615L81.3805 76.1614C81.3772 76.1585 81.3738 76.1556 81.3704 76.1525L81.3647 76.147C78.6301 72.2759 78.1937 67.0618 78.799 66.6094C78.8272 66.0528 76.9619 65.2771 76.6628 67.0762C76.5572 67.7046 76.617 68.5952 76.9302 69.6509C76.926 69.6381 76.9206 69.6265 76.9154 69.6154L76.9099 69.6036L76.9056 69.5935C70.5706 54.4826 75.5823 49.7318 79.3692 54.7268C82.695 59.115 81.0691 64.6379 79.1932 62.8317C79.6719 67.8195 85.6795 66.2287 84.8278 59.3161C83.955 52.2059 79.4889 48.3026 76.6346 48.3026C73.7803 48.3026 71.2147 52.8918 73.5586 62.0704C75.9061 71.2489 81.6075 81.5371 90.1633 81.5371C95.4354 81.5371 104.589 80.0684 104.417 65.1119C106.384 72.0713 112.019 84.4063 128.673 81.2821C146.984 77.8456 149.036 54.1954 149.17 51.854C149.202 51.2988 149.244 50.3413 149.296 49.1946C149.461 45.5059 149.713 39.8598 149.965 39.3502C150.296 38.6823 150.989 39.2784 151 39.7524C150.947 37.6158 150.747 33.4682 150.747 33.4682ZM120.036 37.5511C119.579 37.1023 119.448 36.2404 119.73 35.7054C120.733 33.8057 124.266 35.7413 122.926 39.3287C122.811 39.0424 122.306 38.813 121.72 38.5468C121.138 38.2821 120.475 37.9809 120.036 37.5511ZM111.354 52.4287C112.065 54.4109 114.071 53.9513 115.764 52.1702C117.235 50.6224 118.593 49.9797 120.184 49.3907C114.806 46.2307 110.446 49.8935 111.354 52.4287ZM136.116 34.0647C133.663 34.9588 132.91 33.4865 132.477 32.2764C131.974 30.8651 132.305 28.9978 134.35 28.6279C137.925 27.9744 140.59 31.3211 142.349 33.7415C139.755 32.9407 138.369 33.2423 136.116 34.0647ZM123.404 27.3959C122.662 25.8949 118.329 26.096 117.974 30.4698C116.291 28.7066 112.36 30.398 113.747 34.0679C111.787 35.2494 110.53 37.3968 112.04 39.8315C113.407 42.03 115.333 41.2677 117.668 40.3435C118.503 40.0133 119.389 39.6624 120.321 39.4185C118.547 38.7111 117.316 36.5242 118.903 34.5384C120.487 32.5526 122.82 33.7376 123.524 34.9477C123.414 33.144 123.623 32.0006 123.793 31.0702C124.021 29.8222 124.178 28.9573 123.404 27.3959ZM95.3579 65.6365C95.8964 67.2129 95.5058 68.7211 95.0271 69.3531C94.3056 70.3083 93.2181 70.3047 92.567 69.504C91.8702 68.6493 92.018 67.73 92.7571 67.0118C93.0877 66.6883 93.6592 66.4482 94.2082 66.2175C94.6526 66.0307 95.0824 65.8501 95.3579 65.6365ZM85.8168 67.116C84.1626 70.452 87.2034 72.0716 88.4528 71.6227C87.7982 72.8867 89.3327 76.1294 92.1341 73.8742C92.7008 75.8134 93.8974 76.8476 95.8471 75.9462C97.7969 75.0449 98.7858 71.6083 96.3187 68.8145C96.0688 70.7716 94.2071 72.919 91.9476 70.8722C89.6881 68.8253 91.8068 66.6348 92.1377 66.3332C91.7939 66.3022 91.3464 66.1392 90.8418 65.9554L90.8418 65.9554C89.2438 65.3735 87.0739 64.5833 85.8168 67.116ZM104.998 81.1425C104.593 81.7997 104.051 82.3886 103.329 82.8913C101.879 83.8968 99.6727 84.3852 98.8562 82.2378C102.889 82.0008 105.191 78.4816 105.223 71.0447C108.225 81.7817 111.685 82.0331 115.542 82.2521C115.243 84.3888 112.895 84.4965 111.231 83.807C109.946 83.2756 108.946 82.4676 108.151 81.4262C108.148 82.4784 107.824 83.4982 106.986 84.6689C105.867 83.5377 105.279 82.367 104.998 81.1425ZM142.346 48.687C143.12 48.6475 143.363 47.6349 143.402 46.9633C143.44 46.2882 143.271 45.1212 142.585 45.1248C141.899 45.1284 141.508 46.2918 141.455 46.9741C141.406 47.6528 141.571 48.7265 142.346 48.687ZM103.28 38.1514C103.28 39.1727 102.555 40.0007 101.661 40.0007C100.767 40.0007 100.042 39.1727 100.042 38.1514C100.042 37.13 100.767 36.302 101.661 36.302C102.555 36.302 103.28 37.13 103.28 38.1514ZM78.0987 56.4147C77.3807 56.0413 76.6979 56.5476 76.5712 57.5387C76.4445 58.5334 76.9267 59.643 77.6447 60.0129C78.3626 60.3863 79.0454 59.88 79.1721 58.8889C79.2988 57.8978 78.8166 56.7882 78.0987 56.4147ZM74.5476 75.3215C79.517 81.9828 92.5002 89.057 110.755 89.057C129.011 89.057 141.994 81.9828 146.956 75.3215C146.579 76.1006 146.164 77.1518 145.763 78.1654C145.281 79.3851 144.821 80.5503 144.475 81.121C141.146 85.4517 127.332 93.0322 110.752 93.0322C94.1719 93.0322 80.3582 85.4517 77.0288 81.121C76.6877 80.5552 76.2331 79.4052 75.7556 78.197C75.3511 77.1737 74.9301 76.1087 74.5476 75.3215Z" fill="#EABD63"/>
<mask id="mask1" mask-type="alpha" maskUnits="userSpaceOnUse" x="88" y="17" width="45" height="41">
<path opacity="0.7" d="M88.5 17.5C86.8325 43.1611 95.2649 57.2228 108.335 57.2228C121.406 57.2228 132.46 53.2554 132 17.5C119.5 20.5 97.5 19 88.5 17.5Z" fill="#EAEAEA"/>
</mask>
<g mask="url(#mask1)">
<path fill-rule="evenodd" clip-rule="evenodd" d="M110.53 24.1497C136.412 24.1497 147.526 18.8853 146.844 14.3607C146.252 12.5293 145.214 9.91504 145.214 9.91504C146.784 14.1883 136.342 19.3198 110.527 19.3198C84.7117 19.3198 74.2696 14.1883 75.8392 9.91504C75.8392 9.91504 74.801 12.5293 74.2097 14.3607C73.534 18.8889 84.6484 24.1497 110.53 24.1497ZM150.747 33.4682C150.236 31.7338 149.353 31.0946 148.867 32.2221C148.712 32.5776 148.61 33.2168 148.54 34.0428C148.464 32.9147 148.368 31.8068 148.28 30.7817C148.05 28.1094 147.869 25.9995 148.202 25.5609C147.505 24.1245 145.619 25.0725 145.52 28.6204C145.442 31.43 145.741 32.2944 146.239 33.7304C146.322 33.9683 146.41 34.2218 146.502 34.5024C144.971 31.0874 143.595 26.4227 144.581 25.3095C143.405 24.2394 141.346 26.8716 142.166 29.7156C142.585 31.1592 143.215 33.2456 144.405 34.7322C140.065 34.7502 136.31 37.4542 134.48 43.9108C132.65 50.3638 135.916 55.7502 138.89 55.8723C141.864 55.9944 145.253 52.741 146.073 45.5016C146.439 42.2625 145.51 40.5245 144.429 40.2085C143.338 39.8889 141.505 40.9985 141.772 43.918C142.448 42.7796 144.869 42.9161 144.595 46.7261C144.394 49.5019 142.867 51.6745 141.015 51.8289C139.699 51.9366 137.858 50.6403 137.464 46.9057C136.94 41.9357 139.175 37.4003 143.683 36.6893C147.474 36.0918 148.25 42.3259 148.571 44.9084L148.596 45.1138C148.621 45.832 148.642 46.4496 148.649 46.9093C148.696 49.4393 148.612 50.6008 148.545 51.5403L148.545 51.542C148.532 51.7233 148.519 51.8964 148.508 52.0695L148.507 52.0824C148.483 52.4733 148.319 55.1352 147.516 58.702C148.019 55.3876 147.565 53.136 146.801 52.4394C145.387 51.161 144.218 53.4197 144.405 54.4898C146.016 52.9852 146.917 60.8351 144.531 67.4353C144.461 67.5825 144.387 67.7298 144.313 67.8734C145.007 65.8053 145.139 64.0626 145.214 63.0759L145.225 62.9322C145.471 59.6465 145.063 57.7253 143.592 57.0645C142.462 56.5582 141.121 57.201 140.822 58.2819C143.261 59.0935 142.684 70.958 135.479 77.9569C135.43 77.9892 135.381 78.0179 135.328 78.0466C136.141 77.192 136.88 76.0788 137.478 74.6173C139.836 68.8394 136.19 68.8753 135.096 69.0261C135.096 73.3496 131.436 78.3196 128.004 80.2623C130.559 78.5566 132.347 73.2527 129.134 73.2347C129.429 77.271 124.548 79.5118 120.212 79.8637C123.464 79.4112 126.234 77.2171 124.58 75.0446C122.169 78.1185 113.233 77.0089 108.605 71.6619C106.486 68.254 105.29 64.7169 104.674 62.5264C104.755 62.6705 104.837 62.8177 104.921 62.9677C107.128 66.9076 110.397 72.7428 119.107 72.7428C125.843 72.7428 129.781 68.6608 132.527 65.8152C133.865 64.4281 134.92 63.3348 135.877 63.1513C136.866 62.9609 137.035 64.2321 136.577 64.7852C138.833 64.4296 139.988 62.6234 139.699 60.5658C139.52 59.2838 137.524 57.8833 135.166 59.6465C134.578 60.0882 133.406 61.4348 132.907 62.4474C134.575 57.4919 134.142 50.9742 128.898 44.532C129.31 43.6953 129.528 42.9771 128.546 41.214C129.257 39.7273 132.372 31.7445 125.544 27.834C125.217 29.9814 124.794 32.3406 124.467 33.9925C124.153 35.58 123.484 39.2004 125.469 41.3862C124.436 40.4539 122.27 39.677 119.758 41.0488C116.817 42.652 115.029 43.0496 114.038 43.27C113.888 43.3033 113.756 43.3326 113.641 43.3614C115.169 45.5626 120.078 49.7497 125.488 44.848C126.146 45.7278 126.913 46.3347 127.677 45.674C130.482 49.2218 131.787 52.504 132.178 55.5456C131.041 51.6565 127.761 49.0782 123.256 49.8467C119.286 50.5218 117.896 53.689 119.565 56.7737C121.708 54.005 126.681 54.0302 127.578 58.781C128.448 63.3703 126.456 68.5162 121.282 69.852C122.197 69.1877 123.812 67.4209 124.273 66.1569C126.463 60.1636 120.701 56.569 117.696 60.6053C119.878 60.3288 121.015 64.4871 118.748 67.3204C116.482 70.1537 113.993 69.773 111.875 68.8178C109.133 67.245 107.109 64.1136 105.131 60.3575C106.56 62.2068 108.355 63.7186 110.805 64.76C115.514 66.7602 118.727 61.6933 112.825 57.8043C109.777 61.2014 102.953 55.3301 100.993 52.1808C100.651 51.5344 100.296 50.8881 99.9332 50.2453C101.429 52.0013 103.646 53.2294 104.786 53.3551C107.342 53.6316 109.573 52.2814 108.478 49.0315C103.907 49.2488 101.947 47.6319 99.1881 45.3568C98.2084 44.5488 97.128 43.6578 95.7943 42.7365C102.435 45.9074 109.731 43.9144 110.087 36.3374C110.323 31.328 106.74 27.895 102.939 28.6096C99.2328 29.3063 97.5013 32.9762 98.5289 35.9783C101.14 32.136 105.856 34.2941 105.673 37.8995C105.413 43.0956 100.609 42.9664 97.5083 41.907C95.182 41.1134 91.5464 38.8655 87.5835 36.1184C89.9486 37.1023 92.1025 37.0233 93.6651 36.4882C98.5324 34.8256 97.8497 28.4839 93.3941 27.9525C93.2779 33.2635 86.3904 34.366 82.9766 32.8218C82.7725 32.6728 82.5692 32.5229 82.366 32.373C82.1627 32.223 81.9595 32.0731 81.7554 31.9241C85.3346 33.1199 90.114 32.2976 89.9978 28.6312C89.931 26.5592 87.668 26.8321 86.6861 27.3635C86.5136 31.0228 81.0902 30.5523 78.9152 29.8018L78.4447 29.4458L78.4443 29.4454L78.4407 29.4427L78.44 29.4422L78.4354 29.4387C78.1472 29.2207 77.8611 29.0042 77.5778 28.7892C79.2988 29.6259 81.8856 29.8988 82.8112 28.4839C83.9902 26.6777 83.1596 25.7117 80.7875 25.8302C81.2486 27.719 76.4058 27.421 74.7728 26.6525C74.3182 26.3049 73.876 25.9663 73.4482 25.6388L73.4457 25.6368L73.4453 25.6366L73.4451 25.6364L73.4439 25.6354L73.443 25.6348C72.6044 24.9927 71.8214 24.393 71.1091 23.8516C71.0458 24.1604 71 24.3974 71 24.3974C71 24.3974 71.0563 24.4405 71.1513 24.5159C71.2464 24.6488 71.4047 24.7493 71.6053 24.8642C71.8601 25.0599 72.1945 25.3182 72.5981 25.6301L72.6007 25.6321L72.6011 25.6324L72.6031 25.634L72.604 25.6346L73.1081 26.0241C73.907 26.9398 74.7587 28.5881 75.3113 31.8487C75.8251 34.8831 75.4943 37.386 74.7095 37.1597C74.449 38.0611 75.438 39.5118 76.1454 39.5406C78.3169 39.7632 78.4858 36.912 77.6412 33.0732C77.1308 30.7714 76.0891 28.7173 74.1992 26.8644C74.8121 27.3401 75.5035 27.8805 76.2595 28.4713L76.441 28.6132C77.9544 30.2184 79.1439 31.8379 79.8901 38.0216C80.3863 42.1332 78.4717 42.4277 78.0177 42.0363C77.7714 43.4835 78.7638 45.1102 80.0308 45.2574C81.2978 45.4046 83.9092 44.7618 83.2793 39.3179C82.8534 35.6336 81.8398 33.3748 80.1716 31.5506C80.6691 31.9464 81.1823 32.3536 81.7077 32.7705L82.1073 33.0876C88.1924 40.1726 85.5282 47.5197 83.4165 47.5341C83.7755 51.8289 90.2336 52.2957 89.8324 45.6345C89.5755 41.3971 88.4669 38.6679 85.9048 36.1255C86.7142 36.7791 87.5413 37.447 88.3789 38.1257C91.1874 40.3342 93.1161 53.9835 87.8545 53.1611C87.9812 54.7915 89.6072 56.9927 92.0215 56.7593C96.6566 56.314 96.8044 51.3298 95.7556 48.1517C95.0799 46.1085 94.2423 43.8461 92.4333 41.6556C93.8023 42.9951 95.0165 44.3704 96.09 45.7709C97.9341 48.6078 99.5953 52.8236 97.2971 58.4399C97.218 58.4399 97.1373 58.4319 97.0549 58.4238C96.4996 58.3689 95.8673 58.3065 95.1256 60.6268C94.9946 60.5707 94.809 60.47 94.5796 60.3455C92.6644 59.3062 87.6953 56.6096 85.9259 64.383C87.7173 63.3847 88.9913 63.2877 90.5961 64.383C92.201 65.4782 95.731 65.5141 96.6284 62.469C96.6119 62.8925 96.5799 63.2815 96.5495 63.6511C96.4119 65.3251 96.3068 66.6032 97.8145 68.9004C99.5842 71.5969 99.3271 73.2079 99.1795 74.1324L99.1624 74.2402C100.813 72.6243 102.541 69.6904 101.218 65.981C99.898 62.2715 99.1343 62.767 99.1343 62.767C99.4651 61.1008 99.3243 60.3898 98.6169 59.3412L98.6297 59.2869C99.0079 57.6859 99.9288 53.7874 98.6345 49.5414C101.76 54.8776 103.051 60.2892 103.157 64.8785C103.329 72.3549 100.581 77.0125 96.7411 79.1168C92.011 79.8026 87.2773 76.6928 87.0134 74.3336C85.6302 74.5957 85.7006 76.6605 86.5418 78.1472C86.7142 78.4524 86.9254 78.7469 87.1718 79.0306C84.2612 76.5779 82.2199 71.9599 82.2199 70.4805C81.1183 70.1609 80.3969 71.1843 80.2948 72.4519C80.2103 73.5112 80.6327 74.9153 81.3964 76.1758C81.3911 76.1704 81.3859 76.166 81.3807 76.1615L81.3805 76.1614C81.3772 76.1585 81.3738 76.1556 81.3704 76.1525L81.3647 76.147C78.6301 72.2759 78.1937 67.0618 78.799 66.6094C78.8272 66.0528 76.9619 65.2771 76.6628 67.0762C76.5572 67.7046 76.617 68.5952 76.9302 69.6509C76.926 69.6381 76.9206 69.6265 76.9154 69.6154L76.9099 69.6036L76.9056 69.5935C70.5706 54.4826 75.5823 49.7318 79.3692 54.7268C82.695 59.115 81.0691 64.6379 79.1932 62.8317C79.6719 67.8195 85.6795 66.2287 84.8278 59.3161C83.955 52.2059 79.4889 48.3026 76.6346 48.3026C73.7803 48.3026 71.2147 52.8918 73.5586 62.0704C75.9061 71.2489 81.6075 81.5371 90.1633 81.5371C95.4354 81.5371 104.589 80.0684 104.417 65.1119C106.384 72.0713 112.019 84.4063 128.673 81.2821C146.984 77.8456 149.036 54.1954 149.17 51.854C149.202 51.2988 149.244 50.3413 149.296 49.1946C149.461 45.5059 149.713 39.8598 149.965 39.3502C150.296 38.6823 150.989 39.2784 151 39.7524C150.947 37.6158 150.747 33.4682 150.747 33.4682ZM120.036 37.5511C119.579 37.1023 119.448 36.2404 119.73 35.7054C120.733 33.8057 124.266 35.7413 122.926 39.3287C122.811 39.0424 122.306 38.813 121.72 38.5468C121.138 38.2821 120.475 37.9809 120.036 37.5511ZM111.354 52.4287C112.065 54.4109 114.071 53.9513 115.764 52.1702C117.235 50.6224 118.593 49.9797 120.184 49.3907C114.806 46.2307 110.446 49.8935 111.354 52.4287ZM136.116 34.0647C133.663 34.9588 132.91 33.4865 132.477 32.2764C131.974 30.8651 132.305 28.9978 134.35 28.6279C137.925 27.9744 140.59 31.3211 142.349 33.7415C139.755 32.9407 138.369 33.2423 136.116 34.0647ZM123.404 27.3959C122.662 25.8949 118.329 26.096 117.974 30.4698C116.291 28.7066 112.36 30.398 113.747 34.0679C111.787 35.2494 110.53 37.3968 112.04 39.8315C113.407 42.03 115.333 41.2677 117.668 40.3435C118.503 40.0133 119.389 39.6624 120.321 39.4185C118.547 38.7111 117.316 36.5242 118.903 34.5384C120.487 32.5526 122.82 33.7376 123.524 34.9477C123.414 33.144 123.623 32.0006 123.793 31.0702C124.021 29.8222 124.178 28.9573 123.404 27.3959ZM95.3579 65.6365C95.8964 67.2129 95.5058 68.7211 95.0271 69.3531C94.3056 70.3083 93.2181 70.3047 92.567 69.504C91.8702 68.6493 92.018 67.73 92.7571 67.0118C93.0877 66.6883 93.6592 66.4482 94.2082 66.2175C94.6526 66.0307 95.0824 65.8501 95.3579 65.6365ZM85.8168 67.116C84.1626 70.452 87.2034 72.0716 88.4528 71.6227C87.7982 72.8867 89.3327 76.1294 92.1341 73.8742C92.7008 75.8134 93.8974 76.8476 95.8471 75.9462C97.7969 75.0449 98.7858 71.6083 96.3187 68.8145C96.0688 70.7716 94.2071 72.919 91.9476 70.8722C89.6881 68.8253 91.8068 66.6348 92.1377 66.3332C91.7939 66.3022 91.3464 66.1392 90.8418 65.9554L90.8418 65.9554C89.2438 65.3735 87.0739 64.5833 85.8168 67.116ZM104.998 81.1425C104.593 81.7997 104.051 82.3886 103.329 82.8913C101.879 83.8968 99.6727 84.3852 98.8562 82.2378C102.889 82.0008 105.191 78.4816 105.223 71.0447C108.225 81.7817 111.685 82.0331 115.542 82.2521C115.243 84.3888 112.895 84.4965 111.231 83.807C109.946 83.2756 108.946 82.4676 108.151 81.4262C108.148 82.4784 107.824 83.4982 106.986 84.6689C105.867 83.5377 105.279 82.367 104.998 81.1425ZM142.346 48.687C143.12 48.6475 143.363 47.6349 143.402 46.9633C143.44 46.2882 143.271 45.1212 142.585 45.1248C141.899 45.1284 141.508 46.2918 141.455 46.9741C141.406 47.6528 141.571 48.7265 142.346 48.687ZM103.28 38.1514C103.28 39.1727 102.555 40.0007 101.661 40.0007C100.767 40.0007 100.042 39.1727 100.042 38.1514C100.042 37.13 100.767 36.302 101.661 36.302C102.555 36.302 103.28 37.13 103.28 38.1514ZM78.0987 56.4147C77.3807 56.0413 76.6979 56.5476 76.5712 57.5387C76.4445 58.5334 76.9267 59.643 77.6447 60.0129C78.3626 60.3863 79.0454 59.88 79.1721 58.8889C79.2988 57.8978 78.8166 56.7882 78.0987 56.4147ZM74.5476 75.3215C79.517 81.9828 92.5002 89.057 110.755 89.057C129.011 89.057 141.994 81.9828 146.956 75.3215C146.579 76.1006 146.164 77.1518 145.763 78.1654C145.281 79.3851 144.821 80.5503 144.475 81.121C141.146 85.4517 127.332 93.0322 110.752 93.0322C94.1719 93.0322 80.3582 85.4517 77.0288 81.121C76.6877 80.5552 76.2331 79.4052 75.7556 78.197C75.3511 77.1737 74.9301 76.1087 74.5476 75.3215Z" fill="#EAEAEA"/>
</g>
<path opacity="0.3" d="M74 16C68.9436 47.2846 78.8857 76.8072 95 94.5C90.7084 92.9601 84.5878 90.9602 78.5 84.5C70.1913 67.0658 65.6886 43.7373 74 16Z" fill="#7C3813"/>
<path d="M139.584 8.08717C139.584 11.434 126.344 13.3946 110.309 13.3946C94.2741 13.3946 81.7679 10.6799 81.7679 7.33306C81.7679 3.98627 94.2741 1.27148 110.309 1.27148C126.344 1.27148 139.584 4.74037 139.584 8.08717Z" fill="#EAEAEA"/>
<path d="M105.497 8.94918L104.099 9.73201L111.362 10.0983L109.299 11.2618L102.022 10.8919L99.7581 12.1595L94.2525 11.8794L96.5309 10.6118L93.2606 10.4466L95.3594 9.28314L98.6225 9.44832L100.028 8.66549L96.7717 8.5003L99.9557 6.73713L103.201 6.90232L111.693 2.18018L121.748 2.6901C124.911 2.85169 126.901 3.2467 127.721 3.88589C128.54 4.52509 128.019 5.37615 126.147 6.43908C124.282 7.49842 121.96 8.2633 119.182 8.73013C116.397 9.19695 113.403 9.34777 110.201 9.18618L105.497 8.94918ZM121.328 5.0386C120.954 4.75132 120.016 4.56818 118.507 4.49277L113.878 4.25935L108.653 7.18241L113.306 7.41942C114.823 7.49483 116.214 7.4266 117.479 7.21473C118.74 7.00286 119.797 6.65454 120.645 6.17694C121.471 5.70652 121.698 5.32947 121.328 5.0386Z" fill="#DD0E1D"/>
</svg>
