<svg width="25" height="22" viewBox="0 0 25 22" fill="none" xmlns="http://www.w3.org/2000/svg">
<path d="M24 11.6769C24.3187 11.6769 24.5771 11.4185 24.5771 11.0998C24.5771 10.781 24.3187 10.5227 24 10.5227V11.6769ZM0.914343 10.5227C0.595596 10.5227 0.337202 10.781 0.337202 11.0998C0.337202 11.4185 0.595596 11.6769 0.914343 11.6769V10.5227ZM24 10.5227H0.914343V11.6769H24V10.5227Z" fill="#5C5C5C"/>
<path d="M10.6063 21.608C10.8317 21.8334 11.1971 21.8334 11.4225 21.608C11.6479 21.3826 11.6479 21.0172 11.4225 20.7918L10.6063 21.608ZM0.914397 11.0999L0.506295 10.6918C0.280907 10.9172 0.280907 11.2827 0.506296 11.508L0.914397 11.0999ZM11.4225 1.4081C11.6479 1.18271 11.6479 0.817287 11.4225 0.591899C11.1971 0.366512 10.8317 0.366512 10.6063 0.591899L11.4225 1.4081ZM11.4225 20.7918L1.3225 10.6918L0.506296 11.508L10.6063 21.608L11.4225 20.7918ZM1.3225 11.508L11.4225 1.4081L10.6063 0.591899L0.506295 10.6918L1.3225 11.508Z" fill="#5C5C5C"/>
</svg>
