<svg width="31" height="41" viewBox="0 0 31 41" fill="none" xmlns="http://www.w3.org/2000/svg">
<path d="M31 15.8326C31 7.0946 24.0544 0 15.5 0C6.94557 0 0 7.0946 0 15.8326C0 18.4914 0.640928 20.9899 1.76582 23.181L1.7789 23.2078C2.15823 23.956 2.55063 24.7843 2.95612 25.4524L15.5 41L27.9131 25.4524C28.3186 24.6507 28.8418 23.9426 29.2211 23.2078L29.2342 23.181C30.3591 20.9899 31 18.4914 31 15.8326ZM13.2764 26.3208C12.3738 26.3208 11.6413 25.5726 11.6413 24.6507C11.6413 23.7288 12.3738 22.9806 13.2764 22.9806C14.1789 22.9806 14.9114 23.7288 14.9114 24.6507C14.9114 25.5726 14.1789 26.3208 13.2764 26.3208ZM19.0316 26.3208C18.1291 26.3208 17.3966 25.5726 17.3966 24.6507C17.3966 23.7288 18.1291 22.9806 19.0316 22.9806C19.9342 22.9806 20.6667 23.7288 20.6667 24.6507C20.6667 25.5726 19.9342 26.3208 19.0316 26.3208ZM24.3291 14.0957H10.935L11.2882 16.367H22.8903C23.2827 16.367 23.6097 16.701 23.6097 17.1019C23.6097 17.5027 23.2827 17.8367 22.8903 17.8367H11.5105L11.8637 20.108H21.5823C21.9747 20.108 22.3017 20.4421 22.3017 20.8429C22.3017 21.2437 21.9747 21.5777 21.5823 21.5777H10.6342L8.93375 10.6219H5.75527C5.36287 10.6219 5.03586 10.2878 5.03586 9.88701C5.03586 9.48619 5.36287 9.15216 5.75527 9.15216H10.1633L10.6996 12.626H24.3291C24.7215 12.626 25.0485 12.96 25.0485 13.3608C25.0485 13.7616 24.7215 14.0957 24.3291 14.0957Z" fill="#9B6310"/>
</svg>
