<svg width="37" height="37" viewBox="0 0 37 37" fill="none" xmlns="http://www.w3.org/2000/svg">
<g clip-path="url(#clip0)">
<path fill-rule="evenodd" clip-rule="evenodd" d="M18.5578 22.0928C18.8832 21.5962 19.3627 21.0653 19.945 21.0653H21.2294V15.9788H15.8518V21.0653H17.1877C17.7186 21.0653 18.2152 21.5962 18.5578 22.0928Z" fill="#9B6310"/>
<path fill-rule="evenodd" clip-rule="evenodd" d="M28.5592 27.0594C27.583 27.0594 26.7952 27.8644 26.7952 28.8406C26.7952 29.8168 27.583 30.6217 28.5592 30.6217C29.5354 30.6217 30.3232 29.8168 30.3232 28.8406C30.3232 27.8644 29.5354 27.0594 28.5592 27.0594Z" fill="#9B6310"/>
<path fill-rule="evenodd" clip-rule="evenodd" d="M17.4272 5.42899H19.5166C19.8762 5.42899 20.1674 5.13784 20.1674 4.76106C20.1674 4.40141 19.8762 4.09314 19.5166 4.09314C19.4652 4.09314 19.2939 4.14452 18.8658 4.55555C18.763 4.65831 18.6431 4.76106 18.4547 4.76106C18.352 4.76106 18.2492 4.72681 18.1636 4.65831C18.078 4.5898 17.9923 4.50417 17.9067 4.41854C17.7354 4.2644 17.5813 4.09314 17.4272 4.09314C17.0675 4.09314 16.7764 4.38429 16.7764 4.76106C16.7764 5.13784 17.0675 5.42899 17.4272 5.42899Z" fill="#9B6310"/>
<path fill-rule="evenodd" clip-rule="evenodd" d="M0.147217 0V36.8214H36.9686V0H0.147217ZM18.4723 1.38722C18.8319 1.38722 19.1231 1.67837 19.1231 2.03802C19.1231 2.39767 18.8319 2.68882 18.4723 2.68882C18.1126 2.68882 17.8215 2.39767 17.8215 2.03802C17.8215 1.67837 18.1298 1.38722 18.4723 1.38722ZM17.4276 3.1341C17.89 3.1341 18.2154 3.39099 18.4552 3.63076C18.7634 3.35674 19.1231 3.1341 19.517 3.1341C20.4075 3.1341 21.1269 3.87053 21.1269 4.76109C21.1269 5.66878 20.4075 6.38808 19.517 6.38808H17.4276C16.537 6.38808 15.8177 5.65166 15.8177 4.76109C15.8177 3.87053 16.537 3.1341 17.4276 3.1341ZM20.3219 7.39853C20.3219 7.67255 20.1164 7.87807 19.8424 7.87807H17.1022C16.8453 7.87807 16.6227 7.65543 16.6227 7.39853C16.6227 7.12451 16.8282 6.919 17.1022 6.919H19.8424C20.1164 6.919 20.3219 7.12451 20.3219 7.39853ZM4.41165 11.3376C4.56578 11.1149 4.85693 11.0635 5.07957 11.2177L10.3545 14.8313C10.5771 14.9855 10.6285 15.2766 10.4743 15.4992C10.3887 15.6363 10.2346 15.7048 10.0804 15.7048C9.9948 15.7048 9.89204 15.6705 9.80641 15.6191L9.15561 15.1738C9.12136 15.4136 9.10424 15.6362 9.10424 15.876C9.10424 18.4107 11.1423 20.4658 13.6427 20.4658C14.0708 20.4658 14.4819 20.3973 14.8929 20.2946V17.5544C14.5333 17.7942 14.1051 17.9483 13.6427 17.9483C12.4267 17.9483 11.4334 16.955 11.4334 15.7219C11.4334 15.2081 11.6047 14.7286 11.9129 14.3518L5.06245 9.29954C4.85693 9.14541 4.80555 8.83714 4.95969 8.63162C5.11382 8.40898 5.4221 8.37473 5.62761 8.52886L12.9576 13.9065L12.9748 13.9236C12.9919 13.9408 12.9919 13.9408 13.009 13.9579C13.0261 13.975 13.0261 13.975 13.0433 13.9921L13.0604 14.0093V14.0264C13.0775 14.0435 13.0775 14.0606 13.0775 14.0778C13.0775 14.0949 13.0946 14.112 13.0946 14.112C13.0946 14.1291 13.1118 14.1463 13.1118 14.1634C13.1118 14.1805 13.1289 14.1976 13.1289 14.2148C13.1289 14.2319 13.1289 14.249 13.1289 14.2662C13.1289 14.2833 13.1289 14.3004 13.1289 14.3175C13.1289 14.3347 13.1289 14.3518 13.1289 14.3689C13.1289 14.386 13.1289 14.4032 13.1289 14.4203C13.1289 14.4374 13.1289 14.4545 13.1118 14.4717C13.1118 14.4888 13.0946 14.5059 13.0946 14.523C13.0946 14.5402 13.0775 14.5573 13.0775 14.5573C13.0775 14.5744 13.0604 14.5916 13.0433 14.6087C13.0433 14.6087 13.0433 14.6087 13.0433 14.6258L13.0261 14.6429C13.009 14.6601 12.9919 14.6772 12.9748 14.6943C12.9576 14.7114 12.9576 14.7114 12.9405 14.7286L12.9234 14.7457C12.5809 14.9855 12.3925 15.3622 12.3925 15.7733C12.3925 16.4583 12.9576 17.0235 13.6427 17.0235C14.3277 17.0235 14.8929 16.4583 14.8929 15.7733V15.5335C14.8929 15.2595 15.1155 15.054 15.3724 15.054H16.4C16.3486 12.9646 15.8691 11.5945 14.9614 10.9608C14.91 11.2006 14.8073 11.4403 14.6531 11.6458C14.3791 11.9884 13.9852 12.211 13.5571 12.2624C13.5399 12.2624 13.5228 12.2624 13.5057 12.2624C13.2659 12.2624 13.0604 12.074 13.0261 11.8342C12.9919 11.5773 13.1803 11.3376 13.4543 11.3033C13.6427 11.2862 13.7968 11.1834 13.9167 11.0464C14.0195 10.9265 14.0708 10.7553 14.0537 10.6011C12.9063 10.4127 11.7588 10.9779 11.7417 10.995C11.7245 10.995 11.7074 11.0122 11.6903 11.0122C11.6732 11.0122 11.6732 11.0122 11.656 11.0293C11.6389 11.0293 11.6218 11.0464 11.5875 11.0464C11.5704 11.0464 11.5704 11.0464 11.5533 11.0464C11.5362 11.0464 11.519 11.0464 11.4848 11.0464C11.4677 11.0464 11.4677 11.0464 11.4505 11.0464C11.4334 11.0464 11.4163 11.0464 11.382 11.0293C11.3649 11.0293 11.3649 11.0293 11.3478 11.0293C11.3306 11.0293 11.3135 11.0122 11.2964 11.0122C11.2964 11.0122 11.2793 11.0122 11.2793 10.995C11.2621 10.9779 11.245 10.9779 11.2279 10.9608C11.2108 10.9608 11.2108 10.9437 11.1936 10.9437C11.1765 10.9265 11.1594 10.9265 11.1594 10.9094C11.1423 10.8923 11.1423 10.8923 11.1251 10.8752C11.108 10.858 11.108 10.8409 11.0909 10.8409C11.0738 10.8238 11.0738 10.8067 11.0566 10.8067C11.0566 10.8067 11.0566 10.8067 11.0566 10.7895C11.0566 10.7724 11.0566 10.7724 11.0395 10.7553C11.0395 10.7381 11.0224 10.721 11.0224 10.7039C11.0224 10.6868 11.0224 10.6696 11.0052 10.6525C11.0052 10.6354 11.0052 10.6183 11.0052 10.6011C11.0052 10.584 11.0052 10.5669 11.0052 10.5498C11.0052 10.5326 11.0052 10.5155 11.0052 10.4984C11.0052 10.4813 11.0052 10.4641 11.0052 10.447C11.0052 10.4299 11.0052 10.4127 11.0224 10.3956C11.0224 10.3785 11.0395 10.3614 11.0395 10.3442C11.0395 10.3271 11.0395 10.3271 11.0566 10.31C11.108 10.2244 12.2212 8.01508 14.0537 8.01508C17.4105 8.01508 19.106 10.31 19.243 15.0368H19.5855C19.6369 12.5193 20.3048 10.8409 21.5721 10.0531C22.4456 9.50506 23.4218 9.50506 24.1924 9.64207C23.8328 9.28242 23.3704 8.99127 22.8566 8.99127C21.4865 8.99127 20.4761 9.43655 19.8081 10.3614C19.654 10.584 19.3457 10.6183 19.1402 10.4641C18.9347 10.31 18.8833 10.0017 19.0375 9.79621C19.9109 8.59737 21.1611 8.0322 22.8566 8.0322C24.7062 8.0322 25.8194 10.2415 25.8537 10.3271C25.8537 10.3442 25.8537 10.3442 25.8708 10.3614C25.8708 10.3785 25.8879 10.3956 25.8879 10.4127C25.8879 10.4299 25.8879 10.447 25.9051 10.4641C25.9051 10.4813 25.9051 10.4984 25.9051 10.5155C25.9051 10.5326 25.9051 10.5498 25.9051 10.5669C25.9051 10.584 25.9051 10.6011 25.9051 10.6183C25.9051 10.6354 25.9051 10.6525 25.9051 10.6696C25.9051 10.6868 25.9051 10.7039 25.8879 10.721C25.8879 10.7381 25.8708 10.7553 25.8708 10.7724C25.8708 10.7895 25.8708 10.7895 25.8537 10.8067C25.8537 10.8067 25.8537 10.8067 25.8537 10.8238C25.8537 10.8409 25.8366 10.858 25.8194 10.8752C25.8194 10.8923 25.8023 10.8923 25.8023 10.9094C25.7852 10.9265 25.7852 10.9265 25.7681 10.9437C25.7509 10.9608 25.7509 10.9608 25.7338 10.9779C25.7167 10.995 25.7167 10.995 25.6996 10.995C25.6824 11.0122 25.6653 11.0122 25.6482 11.0293C25.6482 11.0293 25.6482 11.0293 25.6311 11.0293C25.6311 11.0293 25.6139 11.0293 25.6139 11.0464C25.5968 11.0635 25.5797 11.0635 25.5454 11.0635C25.5283 11.0635 25.5112 11.0635 25.5112 11.0807C25.494 11.0807 25.4769 11.0807 25.4598 11.0807C25.4427 11.0807 25.4427 11.0807 25.4255 11.0807C25.4255 11.0807 25.4255 11.0807 25.4084 11.0807C25.3742 11.0807 25.3399 11.0807 25.2885 11.0635C25.2885 11.0635 25.2885 11.0635 25.2714 11.0635C25.2371 11.0635 25.22 11.0464 25.2029 11.0293C25.1858 11.0293 24.0212 10.447 22.8909 10.6354C22.8909 10.7895 22.9422 10.9437 23.0279 11.0807C23.1477 11.2177 23.3019 11.3204 23.4903 11.3376C23.7472 11.3718 23.9356 11.6116 23.9184 11.8685C23.8842 12.1082 23.6787 12.2966 23.4389 12.2966C23.4218 12.2966 23.4046 12.2966 23.3875 12.2966C22.9594 12.2453 22.5655 12.0226 22.2914 11.6801C22.1373 11.4746 22.0345 11.2519 21.9832 10.995C21.0755 11.6287 20.5788 12.9988 20.5446 15.0882H21.7091C21.966 15.0882 22.1887 15.3109 22.1887 15.5677V15.6705C22.2058 15.7048 22.2058 15.7561 22.2058 15.8075C22.2058 16.4926 22.771 17.0577 23.456 17.0577C24.1411 17.0577 24.7062 16.4926 24.7062 15.8075C24.7062 15.3965 24.5007 15.0026 24.1753 14.7799L24.1582 14.7628C24.1411 14.7628 24.1411 14.7457 24.1239 14.7286C24.1068 14.7114 24.0897 14.6943 24.0726 14.6772L24.0554 14.6601C24.0554 14.6601 24.0554 14.6601 24.0554 14.6429C24.0383 14.6258 24.0383 14.6087 24.0212 14.5915C24.0212 14.5744 24.0041 14.5744 24.0041 14.5573C24.0041 14.5402 23.9869 14.523 23.9869 14.5059C23.9869 14.4888 23.9698 14.4717 23.9698 14.4545C23.9698 14.4374 23.9698 14.4203 23.9698 14.4032C23.9698 14.386 23.9698 14.3689 23.9698 14.3518C23.9698 14.3347 23.9698 14.3175 23.9698 14.3004C23.9698 14.2833 23.9698 14.2662 23.9698 14.249C23.9698 14.2319 23.9698 14.2148 23.9869 14.1976C23.9869 14.1805 23.9869 14.1634 24.0041 14.1463C24.0041 14.1291 24.0212 14.112 24.0212 14.112C24.0212 14.0949 24.0383 14.0778 24.0383 14.0606V14.0435L24.0554 14.0264C24.0726 14.0093 24.0726 13.9921 24.0897 13.9921C24.1068 13.975 24.1068 13.975 24.1239 13.9579L24.1411 13.9408L31.4882 8.52886C31.6937 8.37473 32.002 8.42611 32.1561 8.63162C32.3103 8.85426 32.2589 9.14541 32.0534 9.29954L25.1858 14.3518C25.494 14.7457 25.6653 15.2252 25.6653 15.7219C25.6653 16.955 24.672 17.9483 23.4731 17.9483C22.9936 17.9483 22.5655 17.7942 22.2058 17.5373V20.2775C22.6168 20.3973 23.045 20.4658 23.4731 20.4658C25.9736 20.4658 28.0116 18.4107 28.0116 15.876C28.0116 15.6362 27.9945 15.3965 27.9602 15.1738L27.3094 15.6191C27.2238 15.6705 27.1382 15.7048 27.0354 15.7048C26.8813 15.7048 26.7271 15.6363 26.6415 15.4992C26.4874 15.2766 26.5559 14.9855 26.7614 14.8313L32.0363 11.2177C32.2589 11.0635 32.55 11.1321 32.7042 11.3376C32.8583 11.5602 32.7898 11.8514 32.5843 12.0055L28.8165 14.5915C28.9193 15.0197 28.9707 15.4479 28.9707 15.8931C28.9707 18.8389 26.6929 21.2537 23.8157 21.4249C25.4598 22.0243 26.6244 23.4458 26.6244 25.0899C26.6244 25.364 26.4189 25.5695 26.1448 25.5695C25.8879 25.5695 25.6653 25.3468 25.6653 25.0899C25.6653 23.4287 24.0554 22.0928 22.0688 22.0928C21.9832 22.0928 21.9147 22.0757 21.8462 22.0415C21.8119 22.0586 21.7776 22.0586 21.7263 22.0586H19.9623C19.791 22.0586 19.3286 22.6238 19.0375 23.2917C18.9689 23.4629 18.7977 23.5657 18.6093 23.5828H18.5922C18.4209 23.5828 18.2496 23.4801 18.164 23.3259C17.8557 22.7265 17.3762 22.11 17.1878 22.0757H15.3896C15.3553 22.0757 15.3382 22.0757 15.3211 22.0757C15.2526 22.11 15.184 22.1271 15.1155 22.1271C13.1289 22.1271 11.519 23.4801 11.519 25.1242C11.519 25.3982 11.2964 25.6037 11.0395 25.6037C10.7826 25.6037 10.56 25.3811 10.56 25.1242C10.56 23.4801 11.7245 22.0586 13.3515 21.4592C10.4743 21.2879 8.16229 18.8731 8.16229 15.9274C8.16229 15.4821 8.21367 15.054 8.31643 14.6258L4.54866 12.0397C4.32602 11.8514 4.27464 11.5602 4.41165 11.3376ZM29.69 20.7912C29.6043 20.9625 29.4331 21.0481 29.2618 21.0481C29.1933 21.0481 29.1077 21.031 29.0392 20.9968L28.2514 20.6029C28.0116 20.483 27.926 20.1918 28.0458 19.9521C28.1315 19.7808 28.3027 19.6952 28.474 19.6952C28.5425 19.6952 28.6281 19.7123 28.6966 19.7465L29.4845 20.1404C29.7242 20.2603 29.8099 20.5515 29.69 20.7912ZM29.8441 24.7645C29.8441 25.1242 29.553 25.4153 29.1933 25.4153C28.8337 25.4153 28.5425 25.1242 28.5425 24.7645C28.5425 24.4049 28.8337 24.1137 29.1933 24.1137C29.553 24.0966 29.8441 24.4049 29.8441 24.7645ZM27.5663 22.2641C27.4807 22.3497 27.3608 22.4011 27.2409 22.4011C27.121 22.4011 26.984 22.3497 26.8984 22.247L26.4702 21.7846C26.2818 21.5962 26.299 21.2879 26.4874 21.0995C26.573 21.0139 26.6929 20.9625 26.8128 20.9625C26.9326 20.9625 27.0697 21.0139 27.1553 21.1166L27.5834 21.5791C27.7718 21.7846 27.7547 22.0928 27.5663 22.2641ZM10.2174 22.247C10.1318 22.3497 9.9948 22.4011 9.87492 22.4011C9.75503 22.4011 9.63515 22.3497 9.54952 22.2641C9.36113 22.0757 9.344 21.7674 9.53239 21.5791L9.96055 21.1166C10.0633 21.0139 10.1832 20.9625 10.3031 20.9625C10.423 20.9625 10.5428 21.0139 10.6285 21.0995C10.8169 21.2879 10.834 21.5962 10.6456 21.7846L10.2174 22.247ZM7.63138 20.1404L8.41919 19.7465C8.48769 19.7123 8.5562 19.6952 8.64183 19.6952C8.81309 19.6952 8.98435 19.7979 9.06998 19.9521C9.18987 20.1918 9.08711 20.483 8.86447 20.6029L8.07666 20.9968C8.00816 21.031 7.93965 21.0481 7.85402 21.0481C7.68276 21.0481 7.5115 20.9454 7.42587 20.7912C7.30598 20.5515 7.39161 20.2603 7.63138 20.1404ZM6.15852 19.4897C6.10715 19.5068 6.05577 19.5068 6.02151 19.5068C5.816 19.5068 5.62761 19.3698 5.55911 19.1643C5.47347 18.9074 5.62761 18.6333 5.86738 18.5648L7.44299 18.0682C7.49437 18.051 7.54575 18.051 7.58 18.051C7.78552 18.051 7.9739 18.1881 8.04241 18.3936C8.12804 18.6505 7.97391 18.9245 7.73414 18.993L6.15852 19.4897ZM4.3774 14.112C4.4459 13.9236 4.63429 13.8209 4.82268 13.8209C4.89118 13.8209 4.94256 13.838 5.01107 13.8551L7.20322 14.7799C7.44299 14.8827 7.56288 15.1738 7.46012 15.4136C7.39161 15.602 7.20322 15.7048 7.01484 15.7048C6.94633 15.7048 6.89495 15.6876 6.82645 15.6705L4.63429 14.7457C4.3774 14.6429 4.27464 14.3518 4.3774 14.112ZM4.54866 16.8693C4.54866 16.5953 4.75417 16.3898 5.02819 16.3898H6.99771C7.2546 16.3898 7.47724 16.6124 7.47724 16.8693C7.47724 17.1434 7.2546 17.3489 6.99771 17.3489H5.02819C4.7713 17.3489 4.54866 17.1262 4.54866 16.8693ZM11.2793 30.4333C11.1936 30.4847 11.108 30.5189 11.0224 30.5189C10.8682 30.5189 10.7141 30.4504 10.6285 30.2963L9.87492 29.166L9.54952 29.303C9.49814 29.3201 9.42964 29.3372 9.37826 29.3372C9.18987 29.3372 9.00148 29.2174 8.93297 29.029C8.83022 28.7892 8.9501 28.4981 9.20699 28.3953L9.344 28.3439L4.94256 21.7161C4.78843 21.4934 4.85693 21.2023 5.07957 21.0481C5.1652 20.9968 5.25083 20.9625 5.33646 20.9625C5.4906 20.9625 5.64474 21.031 5.73037 21.1851L10.2346 27.9843L14.4305 26.3059V25.1927C14.4305 24.9187 14.6531 24.7132 14.91 24.7132C15.1669 24.7132 15.3896 24.9358 15.3896 25.1927V26.6313C15.3896 26.8368 15.2697 27.0081 15.0813 27.0766L10.7655 28.7892L11.3992 29.7483C11.5533 29.988 11.5019 30.2963 11.2793 30.4333ZM21.0412 33.105L21.4865 34.5607L21.1782 34.7663C20.3733 35.28 19.4142 35.4513 18.5237 35.4513C17.2734 35.4513 16.1431 35.1088 15.7835 34.8861L15.4752 34.6806L15.989 33.105C14.4134 32.6426 12.0671 31.6322 12.0328 30.4333C12.0328 30.0737 12.2041 29.577 13.146 29.303C15.2012 28.6864 16.4856 27.3848 16.8453 26.9738V25.7579C16.8453 24.7817 16.0575 23.9767 15.0813 23.9767C14.1051 23.9767 13.3173 24.7645 13.3173 25.7579C13.3173 26.0319 13.0946 26.2374 12.8378 26.2374C12.5809 26.2374 12.3582 26.0147 12.3582 25.7579C12.3582 24.2507 13.5742 23.0177 15.0642 23.0177C16.5541 23.0177 17.7701 24.2507 17.7701 25.7579V27.3163L17.6674 27.4534C17.5988 27.539 16.126 29.4229 13.3858 30.2278C13.0946 30.3134 12.9919 30.3991 12.9748 30.4333C13.0604 30.7758 14.3106 31.6322 16.263 32.1973L16.8282 30.4162C16.9138 30.1593 17.1878 30.0223 17.4276 30.1079C17.6845 30.1935 17.8215 30.4676 17.7359 30.7245L16.6055 34.2182C17.342 34.4409 19.0203 34.7663 20.3219 34.1497L19.2772 30.7416C19.1916 30.4847 19.3457 30.2107 19.5855 30.1422C19.8424 30.0565 20.0993 30.2107 20.1849 30.4676L20.7158 32.2316C22.6853 31.6664 23.9527 30.8101 24.0383 30.4676C24.0041 30.4333 23.9013 30.3477 23.6273 30.2621C20.8871 29.44 19.4142 27.5732 19.3457 27.4876L19.243 27.3506V25.7921C19.243 24.285 20.4589 23.0519 21.9489 23.0519C23.4389 23.0519 24.6549 24.285 24.6549 25.7921C24.6549 26.0661 24.4493 26.2716 24.1753 26.2716C23.9184 26.2716 23.6958 26.049 23.6958 25.7921C23.6958 24.8159 22.908 24.011 21.9318 24.011C20.9556 24.011 20.1678 24.7988 20.1678 25.7921V27.0081C20.5274 27.402 21.8119 28.7207 23.8499 29.3372C24.7747 29.6113 24.9631 30.1079 24.9631 30.4676C25.0316 31.5636 22.8052 32.5912 21.0412 33.105ZM28.5596 31.5979C27.0525 31.5979 25.8366 30.3648 25.8366 28.8406C25.8366 28.7721 25.8366 28.7036 25.8537 28.6351L21.966 27.0766C21.7776 27.0081 21.6578 26.8197 21.6578 26.6313V25.1927C21.6578 24.9187 21.8804 24.7132 22.1373 24.7132C22.3942 24.7132 22.6168 24.9358 22.6168 25.1927V26.3059L26.0935 27.7102C26.5216 26.7683 27.4636 26.1004 28.5596 26.1004C30.0667 26.1004 31.2827 27.3335 31.2827 28.8577C31.2827 30.3648 30.0667 31.5979 28.5596 31.5979ZM31.5567 19.1643C31.4882 19.3698 31.2998 19.5068 31.0943 19.5068C31.0429 19.5068 31.0087 19.5068 30.9573 19.4897L29.3817 18.993C29.1248 18.9074 28.9878 18.6505 29.0734 18.3936C29.1419 18.1881 29.3303 18.051 29.5358 18.051C29.5872 18.051 29.6215 18.051 29.6728 18.0682L31.2485 18.5648C31.4882 18.6505 31.6424 18.9074 31.5567 19.1643ZM32.0876 17.3489H30.1181C29.8612 17.3489 29.6386 17.1262 29.6386 16.8693C29.6386 16.5953 29.8612 16.3898 30.1181 16.3898H32.0876C32.3445 16.3898 32.5672 16.6124 32.5672 16.8693C32.5672 17.1262 32.3445 17.3489 32.0876 17.3489ZM32.4815 14.7457L30.2894 15.6705C30.2209 15.6876 30.1695 15.7048 30.101 15.7048C29.9126 15.7048 29.7413 15.602 29.6557 15.4136C29.553 15.1738 29.6728 14.8827 29.9126 14.7799L32.1048 13.8551C32.1733 13.838 32.2247 13.8209 32.2932 13.8209C32.4815 13.8209 32.6528 13.9236 32.7384 14.112C32.8412 14.3518 32.7384 14.6429 32.4815 14.7457Z" fill="#9B6310"/>
<path fill-rule="evenodd" clip-rule="evenodd" d="M18.318 15.0026C18.1638 9.64206 15.9888 8.93988 14.0878 8.93988C13.574 8.93988 13.1116 9.24815 12.752 9.59068C13.5226 9.45367 14.4988 9.47079 15.3723 10.0017C16.6396 10.7895 17.3075 12.4679 17.3589 14.9854H18.318V15.0026Z" fill="#9B6310"/>
</g>
<defs>
<clipPath id="clip0">
<rect x="0.147217" width="36.8214" height="36.8214" fill="white"/>
</clipPath>
</defs>
</svg>
