<svg width="1192" height="665" viewBox="0 0 1192 665" fill="none" xmlns="http://www.w3.org/2000/svg">
<path d="M1018.04 460.063C993.652 348.914 953.394 277.591 850.426 183.458C798.555 138.202 738.168 102.721 672.748 78.1022C575.199 41.1734 469.908 25.6053 364.618 32.8462C257.779 39.3631 157.907 76.292 107.197 129.875C79.7135 158.477 58.4232 191.785 44.8747 228.352C45.2619 228.352 26.294 271.074 24.3585 342.035C19.7133 410.462 41.7779 515.456 131.198 575.556C217.52 636.018 341.779 642.173 428.489 608.14C519.844 575.556 555.07 500.612 557.393 466.217C567.844 400.325 543.844 345.655 502.812 315.243C461.005 284.469 407.973 274.332 347.973 277.591C407.586 271.798 462.167 279.763 506.683 310.537C551.199 341.311 577.135 399.239 565.909 467.666C563.586 503.87 526.038 582.797 431.586 616.105C342.166 651.224 210.94 647.965 121.907 585.331C29.3908 523.421 -3.89963 422.41 0.35843 341.673C-0.415732 259.126 28.2295 183.82 92.4878 122.634C157.907 60.3619 255.456 31.7601 363.457 25.2432C469.909 18.0023 576.748 33.5704 675.458 70.8613C742.039 95.8426 803.2 132.047 855.845 178.027C960.362 272.522 999.072 348.552 1018.04 460.063Z" fill="#FFE86F" fill-opacity="0.15"/>
<path d="M426.166 431.823C427.328 430.013 428.102 427.84 428.102 425.668C428.102 425.668 452.876 427.84 466.424 416.979C454.424 420.237 442.424 421.686 430.037 421.686C430.037 421.686 470.683 409.376 479.973 378.24C461.392 408.652 426.94 418.065 426.94 418.065C426.94 418.065 440.489 407.928 450.166 385.119C437.392 405.393 431.973 407.928 424.231 410.462C425.005 399.963 427.715 389.463 431.199 379.688C441.65 352.535 481.521 325.381 511.328 357.965C533.005 381.498 506.683 412.634 495.844 420.962C478.424 433.271 451.328 437.978 426.166 431.823Z" fill="#FFE86F" fill-opacity="0.15"/>
<path d="M368.488 417.34C336.746 391.635 317.391 390.911 305.778 390.549C317.778 392.359 322.424 395.618 334.811 402.134C319.327 398.514 303.069 398.514 287.585 401.41C300.746 400.686 309.649 400.686 321.649 405.755C276.359 442.684 234.165 423.495 231.068 409.375C228.746 399.6 235.714 369.912 281.004 364.119C348.746 355.43 368.488 417.34 368.488 417.34Z" fill="#FFE86F" fill-opacity="0.15"/>
<path d="M414.941 514.008C399.07 498.078 383.199 470.562 396.747 430.375C396.747 430.375 443.199 429.289 457.135 483.596C471.07 537.903 437.006 566.505 437.006 566.505C436.231 553.471 426.167 525.231 414.941 514.008ZM444.36 515.456C445.522 521.249 449.393 522.335 449.393 522.335C449.393 522.335 462.167 449.925 401.005 437.616C401.005 437.616 399.844 463.321 404.876 473.821C409.909 484.32 433.135 508.939 434.296 524.145C436.231 500.612 437.78 481.786 425.005 470.2C412.231 458.977 407.586 445.943 408.36 443.047C416.876 449.201 454.038 472.372 444.36 515.456Z" fill="#FFE86F" fill-opacity="0.15"/>
<path d="M316.23 422.048C362.295 414.445 389.392 430.013 389.392 430.013C389.392 430.013 378.166 488.303 332.875 483.959C287.585 479.614 270.94 483.234 257.004 502.423C260.101 485.045 270.165 429.651 316.23 422.048ZM341.779 441.599C317.004 440.875 305.391 454.995 289.52 473.097C301.52 461.874 302.295 464.046 337.52 461.15C372.746 458.253 382.424 433.634 382.424 433.634C312.746 407.566 279.456 457.167 273.262 469.477C275.972 465.856 279.456 462.598 283.714 460.425C323.198 419.152 355.327 433.272 373.908 435.444C370.037 442.685 366.553 442.685 341.779 441.599Z" fill="#FFE86F" fill-opacity="0.15"/>
<path d="M382.037 519.076C372.746 532.11 359.585 535.73 348.359 530.3C337.133 524.869 340.23 508.215 347.585 498.802C353.004 491.199 360.359 485.406 368.875 481.061C368.875 481.061 343.327 507.491 361.908 516.904C373.521 522.697 385.908 500.612 385.521 490.475C385.134 490.475 391.327 506.405 382.037 519.076Z" fill="#FFE86F" fill-opacity="0.15"/>
<path d="M457.908 468.027C503.973 511.111 535.328 489.026 535.328 489.026C535.328 489.026 529.908 527.403 500.102 522.697C468.747 517.628 457.908 468.027 457.908 468.027Z" fill="#FFE86F" fill-opacity="0.15"/>
<path d="M436.618 439.064C456.36 443.047 476.877 444.133 495.457 435.806C514.038 427.479 527.586 412.273 527.199 396.705C552.748 410.101 553.135 471.287 515.586 482.148C478.038 493.01 436.618 439.064 436.618 439.064Z" fill="#FFE86F" fill-opacity="0.15"/>
<path d="M229.133 391.636C222.165 398.153 216.746 414.445 227.972 424.582C245.778 440.15 280.617 429.289 280.617 429.289C258.553 460.063 206.681 483.958 189.262 465.131C171.843 446.305 185.391 398.515 229.133 391.636Z" fill="#FFE86F" fill-opacity="0.15"/>
<path d="M219.456 478.888C238.811 476.716 266.682 449.925 266.682 449.925C261.65 472.009 237.263 514.731 212.488 511.473C187.714 508.214 185.392 479.25 186.166 468.027C192.746 475.63 203.972 480.699 219.456 478.888Z" fill="#FFE86F" fill-opacity="0.15"/>
<path d="M347.973 490.475C347.973 490.475 347.973 490.839 347.197 490.839L347.973 490.475Z" fill="#FFE86F" fill-opacity="0.15"/>
<path d="M317.392 491.198C339.844 493.733 346.037 491.922 347.586 490.836C344.876 493.371 332.876 503.508 320.102 501.698C324.36 503.87 329.005 504.594 334.037 504.232C332.876 506.042 332.102 507.853 331.328 510.025C325.134 513.283 318.166 515.456 311.199 515.456C317.779 515.818 324.36 515.094 330.554 512.921C330.166 514.731 329.779 516.904 329.779 518.714C323.586 523.059 317.005 527.041 310.037 529.575C317.005 528.127 323.973 525.955 330.166 523.059C330.554 524.869 330.941 526.317 331.715 528.127C325.521 534.644 318.553 540.437 310.812 545.143C318.941 541.523 326.683 537.178 334.037 532.11C334.425 532.834 334.812 533.558 335.199 534.282C335.586 534.644 335.973 535.368 336.747 535.73C330.166 545.144 322.425 553.471 313.521 560.712C322.812 553.833 331.328 546.592 339.07 538.265C340.231 539.351 341.392 540.075 342.941 540.799C337.908 552.384 332.102 563.608 325.134 574.107C333.263 563.97 340.231 553.109 346.812 541.885C347.586 542.247 348.36 542.247 349.134 542.609C346.425 552.022 344.489 561.074 342.941 567.59C346.425 558.901 349.521 549.85 352.618 542.609C354.167 542.609 355.715 542.609 357.263 542.247C356.489 553.109 356.102 565.056 356.489 569.763C357.65 560.349 359.973 549.488 361.909 541.161C364.618 540.437 367.328 539.351 370.038 537.903C370.425 547.316 370.812 557.815 371.586 563.97C371.973 554.195 372.747 544.419 373.909 535.73C376.231 534.282 378.167 532.472 380.489 530.662C382.038 540.075 384.36 548.04 385.521 553.471C385.134 543.695 384.747 535.006 384.36 527.041C386.296 525.231 387.844 523.059 389.392 520.886C390.941 527.403 393.651 533.92 397.134 539.713C394.425 531.024 393.263 521.972 393.651 512.921C395.199 509.663 395.973 506.404 396.36 502.784L396.36 502.422C396.36 502.422 427.328 523.421 423.457 555.643C419.586 587.865 389.78 608.864 366.167 605.968C342.554 603.071 349.521 578.452 349.521 578.452C349.521 578.452 330.941 619.001 304.618 602.709C287.973 592.21 296.102 570.125 296.102 570.125C296.102 570.125 277.521 583.521 260.102 569.401C246.166 558.177 242.295 543.695 253.521 523.059C265.134 500.25 287.973 487.94 317.392 491.198ZM366.554 596.916C384.36 599.813 401.393 584.607 404.876 575.193C411.457 558.539 407.586 549.85 407.586 549.85C406.038 558.177 402.554 566.142 397.134 573.383C389.392 582.434 378.167 591.124 368.489 589.313C362.683 588.227 358.038 584.245 356.489 578.814C356.876 578.452 349.134 594.02 366.554 596.916ZM312.36 598.727C324.747 602.347 332.489 586.055 332.489 586.055C332.489 586.055 318.553 594.02 313.134 592.21C307.715 590.399 303.844 585.331 303.457 575.193C298.811 584.969 300.36 595.468 312.36 598.727ZM258.94 529.213C253.908 541.885 252.36 554.919 263.973 565.056C276.36 575.918 286.811 563.608 286.811 563.608C275.973 568.315 263.198 563.246 262.037 545.143C260.876 524.507 282.941 506.404 282.941 506.404C282.941 506.404 264.36 516.542 258.94 529.213Z" fill="#FFE86F" fill-opacity="0.15"/>
<path d="M397.908 427.479C397.908 427.479 405.65 411.549 396.36 410.1C387.069 408.652 389.779 426.031 389.779 426.031L372.36 419.514C372.36 419.514 375.457 390.912 400.231 396.705C420.36 401.411 416.489 429.651 416.489 429.651L397.908 427.479Z" fill="#FFE86F" fill-opacity="0.15"/>
<path d="M341.392 279.039C431.973 285.556 416.102 356.879 413.392 399.601C413.392 399.601 402.553 391.274 390.166 392.722C429.65 344.57 401.392 285.194 341.392 279.039Z" fill="#FFE86F" fill-opacity="0.15"/>
<path d="M790.426 120.824C818.684 128.789 939.071 147.253 982.814 73.0335C1004.88 34.6565 1038.17 21.2607 1018.04 6.77881C1063.72 6.77881 1097.01 87.8775 1011.46 134.944C1098.56 101.273 1077.27 -21.0989 1191.46 3.15834C1133.01 7.14087 1169.39 98.3769 1045.91 144.719C960.749 176.579 879.845 160.287 790.426 120.824Z" fill="#FFE86F" fill-opacity="0.15"/>
<path d="M535.715 334.794C565.521 367.741 575.586 373.171 607.715 407.566C610.812 402.497 615.457 398.515 620.876 395.98C591.844 379.688 570.554 365.206 535.715 334.794Z" fill="#FFE86F" fill-opacity="0.15"/>
<path d="M610.812 414.444C613.909 402.859 626.683 396.342 639.07 399.238C651.458 402.135 658.425 414.082 655.329 425.668C652.232 437.253 639.458 443.77 627.07 440.874C614.683 437.615 607.715 426.03 610.812 414.444ZM644.877 425.306C642.167 424.582 639.457 426.03 639.07 428.564C638.683 431.099 639.845 433.633 642.554 433.995C645.264 434.719 647.974 433.271 648.361 430.736C649.135 428.202 647.587 425.668 644.877 425.306ZM617.78 430.012C617.78 430.012 616.232 417.703 624.361 411.186C633.651 403.221 646.812 407.927 646.812 407.927C643.716 405.393 631.716 399.238 621.651 407.203C614.683 412.996 613.135 422.409 617.78 430.012Z" fill="#FFE86F" fill-opacity="0.15"/>
<path d="M330.166 275.418C330.166 275.418 440.876 295.331 541.908 224.732C606.167 179.476 610.038 82.4468 528.747 66.5167C472.231 55.2932 423.844 92.9461 431.973 138.202C440.489 184.906 501.65 206.267 531.844 168.976C503.199 200.836 449.779 182.734 456.747 142.547C462.94 106.704 507.457 102.721 527.199 109.6C563.199 121.91 569.005 160.649 530.296 208.801C488.489 261.298 376.23 280.849 330.166 275.418Z" fill="#FFE86F" fill-opacity="0.15"/>
<path d="M961.91 528.852C992.104 510.749 998.298 490.837 998.298 490.837C995.201 511.111 985.91 532.472 975.459 543.696C950.684 569.763 929.394 548.402 961.91 528.852ZM810.942 629.139C815.587 620.45 822.942 620.45 826.426 623.346C831.071 627.329 821.781 633.846 817.136 632.397C821.394 637.828 833.781 637.466 839.2 633.122C853.136 623.346 850.426 608.14 847.716 592.572C845.007 577.004 852.749 565.419 874.813 558.902C881.007 557.816 885.652 552.747 885.652 546.592C885.652 546.592 874.426 552.747 870.555 545.506C867.845 538.989 871.329 531.748 878.297 529.214C879.458 528.852 880.233 528.49 881.394 528.49C889.136 528.128 911.588 535.731 946.426 509.663C925.91 519.439 905.394 520.163 891.458 505.681C874.813 488.665 875.975 468.028 890.684 455.718C905.394 443.771 935.975 449.563 934.426 469.114C924.749 466.58 913.523 473.096 918.168 482.51C922.813 491.923 930.555 492.285 943.33 488.302C956.104 484.32 985.136 475.631 994.427 431.823C1000.23 402.859 994.814 382.585 988.62 357.965C988.62 357.965 1011.46 406.118 1018.43 443.047C1025.01 477.079 1022.3 487.94 1019.2 511.112C1015.33 542.248 992.491 562.522 989.007 582.435C985.136 601.261 992.491 620.812 1008.36 633.122C995.201 638.914 961.91 650.862 954.168 611.399C943.717 624.432 949.91 638.914 939.459 641.811C930.555 644.345 925.91 625.881 932.878 616.467C923.975 621.898 917.007 634.208 919.33 643.983C921.652 652.672 910.426 664.982 901.523 647.603C895.717 655.569 889.91 663.534 878.297 664.62C870.168 665.344 861.652 655.931 864.749 645.431C854.684 657.017 834.555 664.982 819.845 657.741C808.619 651.586 807.071 636.38 810.942 629.139ZM892.62 599.089C905.394 592.934 917.394 585.331 928.233 576.642C929.007 577.004 929.781 577.728 930.555 578.09C923.975 585.331 914.297 595.469 904.233 605.968C914.297 597.641 923.975 588.952 932.491 579.176C933.265 579.539 934.426 579.901 935.588 580.263C929.781 589.676 922.426 601.985 918.168 608.14C923.975 601.261 932.491 590.038 938.684 581.349C939.846 581.711 941.007 581.711 942.168 581.711L933.652 603.796L945.652 581.711C946.813 581.711 948.362 581.711 949.523 581.349C949.523 588.59 947.975 595.831 944.878 602.71C949.523 597.641 952.233 587.504 953.007 580.625C954.943 579.901 956.878 579.176 958.814 578.452C960.362 585.331 959.975 592.21 957.265 598.727C961.136 591.848 963.459 583.883 963.846 575.918C965.007 575.194 968.878 572.298 969.652 571.573C968.878 577.728 968.878 588.952 974.297 595.831C968.878 583.521 973.523 575.194 976.233 568.677C978.943 562.16 987.846 542.61 996.362 520.887C1004.88 499.164 1007.59 468.752 1002.56 447.753C1003.33 478.527 986.297 507.129 957.652 522.335C908.491 549.126 901.136 534.283 901.136 534.283C901.136 534.283 905.781 543.696 926.297 540.799C925.523 541.161 925.136 541.886 924.362 542.61C915.459 546.23 905.781 548.04 896.104 547.678C903.846 549.489 913.523 548.402 920.491 547.678C919.717 549.126 918.942 550.575 918.168 552.023C905.394 556.005 894.942 559.626 887.587 561.436C898.039 559.626 909.265 557.816 917.781 556.005C917.781 557.816 917.781 559.626 918.555 561.074C908.878 566.867 898.813 571.936 887.975 575.918C898.813 573.022 909.652 569.401 919.717 564.695C920.104 565.781 920.878 566.867 921.265 567.591C910.813 575.918 899.588 583.521 887.587 590.038C899.975 584.245 911.975 577.728 923.588 570.487C924.362 571.211 924.749 571.936 925.523 572.66C913.523 584.969 901.91 594.745 892.62 599.089Z" fill="#FFE86F" fill-opacity="0.15"/>
<path d="M708.361 551.661C708.361 548.403 705.652 545.868 702.168 545.868C698.684 545.868 695.974 548.403 695.974 551.661C695.974 554.919 698.684 557.454 702.168 557.454C705.652 557.454 708.361 554.919 708.361 551.661Z" fill="#FFE86F" fill-opacity="0.15"/>
<path d="M836.104 394.894C836.104 389.826 831.845 385.843 826.426 385.843C821.007 385.843 816.749 389.826 816.749 394.894C816.749 399.963 821.007 403.946 826.426 403.946C831.845 403.584 836.104 399.601 836.104 394.894Z" fill="#FFE86F" fill-opacity="0.15"/>
<path d="M552.748 153.047C552.748 146.168 546.942 140.737 539.587 140.737C532.232 140.737 526.426 146.168 526.426 153.047C526.426 159.925 532.232 165.356 539.587 165.356C546.942 165.356 552.748 159.563 552.748 153.047Z" fill="#FFE86F" fill-opacity="0.15"/>
<path d="M539.586 124.082C539.586 118.652 534.941 114.307 529.134 114.307C523.328 114.307 518.683 118.652 518.683 124.082C518.683 129.513 523.328 133.858 529.134 133.858C534.941 133.496 539.586 129.151 539.586 124.082Z" fill="#FFE86F" fill-opacity="0.15"/>
<path d="M513.651 115.394C513.651 111.049 509.78 107.428 505.135 107.791C500.49 107.791 496.618 111.411 496.618 115.756C496.618 120.1 500.49 123.359 505.135 123.721C510.167 123.359 513.651 119.738 513.651 115.394Z" fill="#FFE86F" fill-opacity="0.15"/>
<path d="M486.941 121.186C486.941 117.928 483.844 115.031 480.36 115.031C476.876 115.031 473.78 117.928 473.78 121.186C473.78 124.445 476.876 127.341 480.36 127.341C484.231 127.341 486.941 124.807 486.941 121.186Z" fill="#FFE86F" fill-opacity="0.15"/>
<path d="M470.682 137.479C470.682 134.582 468.36 132.41 465.263 132.41C462.166 132.41 459.843 134.582 459.843 137.479C459.843 140.375 462.166 142.547 465.263 142.547C468.36 142.547 470.682 140.375 470.682 137.479Z" fill="#FFE86F" fill-opacity="0.15"/>
<path d="M695.974 72.31C695.974 72.31 770.684 104.17 836.49 75.2064C893.394 50.5872 884.878 15.1065 851.974 9.6758C828.749 6.05532 797.781 39.3637 785.781 48.0529C767.974 61.8107 728.877 82.8094 695.974 72.31Z" fill="#FFE86F" fill-opacity="0.15"/>
<path d="M651.458 56.7422C651.458 56.7422 725.393 84.2578 762.555 55.6561C792.749 32.485 773.394 12.9344 761.006 12.2103C743.974 10.7621 727.716 21.6236 716.877 35.3814C707.587 46.9669 676.619 60.7247 651.458 56.7422Z" fill="#FFE86F" fill-opacity="0.15"/>
<path d="M611.973 44.7935C611.973 44.7935 662.296 59.6375 686.296 46.9658C710.296 34.2941 695.973 20.5363 687.07 20.1743C675.07 19.4502 668.489 25.2429 661.135 32.4839C651.457 41.173 629.78 46.9658 611.973 44.7935Z" fill="#FFE86F" fill-opacity="0.15"/>
<path d="M743.199 94.7564C783.458 112.859 876.748 141.099 941.781 95.4806C998.297 55.6553 966.168 8.22705 936.748 8.22705C953.007 26.3294 929.007 35.3806 898.039 47.3282C857.006 63.2583 831.458 112.497 743.199 94.7564Z" fill="#FFE86F" fill-opacity="0.15"/>
<path d="M367.715 20.1747C367.715 20.1747 457.134 14.3819 542.683 29.5879C568.619 34.2945 603.07 41.1734 620.103 39.0012C641.006 36.4668 653.393 24.8813 644.103 15.106C642.554 21.2608 627.845 32.1222 594.554 33.9325C612.361 31.0361 620.877 24.1572 614.296 13.6578C610.812 23.4331 581.393 29.5879 563.973 29.2259C581.78 27.4156 594.167 19.8126 586.425 10.7614C586.425 17.2783 546.167 25.9674 531.07 24.1572C549.264 23.7951 561.264 17.6403 557.006 9.67529C545.006 18.0024 524.489 17.6403 505.909 16.5542C489.263 15.8301 413.779 15.106 367.715 20.1747Z" fill="#FFE86F" fill-opacity="0.15"/>
<path d="M880.232 365.568C820.619 334.794 789.264 364.12 704.103 385.481C610.425 408.652 535.715 325.019 485.392 297.503C538.425 320.312 608.102 334.794 675.845 316.33C779.587 288.452 846.168 322.846 880.232 365.568Z" fill="#FFE86F" fill-opacity="0.15"/>
<path d="M329.779 624.433C290.682 626.605 221.005 621.536 169.521 585.694C139.714 564.695 126.166 536.455 127.327 509.302C128.488 481.062 152.101 459.339 176.101 464.408C157.521 468.752 136.23 491.561 142.811 519.077C143.585 495.906 160.617 478.528 174.166 478.89C159.456 487.579 148.23 512.56 151.714 532.111C155.585 514.37 159.843 498.802 176.875 494.458C163.714 504.957 156.746 533.559 163.714 550.937C163.327 530.663 169.134 516.543 179.198 513.284C174.553 521.611 165.263 537.903 185.779 565.419C210.166 598.003 260.876 619.726 329.779 624.433Z" fill="#FFE86F" fill-opacity="0.15"/>
<path d="M833.315 149.605C910.241 214.331 933.591 257.047 998.816 313.649C1033.86 343.824 1072.28 358.243 1113.72 350.759C1155.16 343.275 1179.28 303.654 1164.86 274.999C1164.32 299.679 1137.6 334.353 1095.34 334.263C1128.99 326.077 1149.18 299.338 1144.34 282.175C1136.25 303.603 1103.35 325.167 1073.59 326.636C1098.59 316.338 1119.73 306.231 1120.76 283.339C1109.49 303.473 1070.17 321.004 1042.42 316.935C1071.96 311.489 1090.65 299.327 1092.58 285.455C1081.82 293.962 1061.03 310.216 1014.72 293.286C965.213 274.702 904.987 196.825 833.315 149.605Z" fill="#FFE86F" fill-opacity="0.15"/>
<path d="M865.523 205.543C865.523 205.543 917.007 245.368 915.845 282.659C914.297 330.45 881.007 338.053 860.877 330.088C878.684 328.277 879.458 319.588 870.168 300.038C857.781 273.246 888.361 247.903 865.523 205.543Z" fill="#FFE86F" fill-opacity="0.15"/>
<path d="M792.361 147.978C792.361 147.978 872.49 194.32 866.297 248.989C860.103 302.572 823.329 309.813 801.651 299.676C819.071 297.141 821.393 293.521 808.619 266.729C791.587 230.162 827.587 191.785 792.361 147.978Z" fill="#FFE86F" fill-opacity="0.15"/>
<path d="M725.78 289.9C725.78 289.9 781.91 297.503 795.845 219.663C804.748 168.252 747.458 112.135 656.49 77.3782C718.038 113.583 729.264 163.183 725.78 196.492C720.361 248.989 755.974 272.884 725.78 289.9Z" fill="#FFE86F" fill-opacity="0.15"/>
<path d="M529.135 39.3627C529.135 39.3627 653.394 66.8784 694.813 132.409C726.168 182.01 726.555 250.075 653.394 279.762C605.006 299.675 557.78 288.452 534.554 279.038C554.683 276.142 619.716 256.591 634.813 192.509C647.974 134.581 606.942 58.5513 512.103 37.5525C517.522 37.5525 523.329 38.2766 529.135 39.3627Z" fill="#FFE86F" fill-opacity="0.15"/>
<path d="M341.392 279.039C376.231 283.384 408.747 296.417 402.553 346.742C399.457 372.447 376.618 378.964 361.134 373.896C347.198 369.189 331.714 350.362 341.779 333.346C348.747 321.761 364.618 323.209 375.457 329.364C366.166 330.088 353.005 340.225 365.779 347.828C378.553 355.431 392.102 333.346 385.134 314.52C377.392 296.779 361.134 283.384 341.392 279.039Z" fill="#FFE86F" fill-opacity="0.15"/>
<path d="M761.393 370.998C777.651 368.102 829.135 341.31 877.135 368.102C923.2 394.169 911.587 432.546 893.393 442.322C868.232 455.355 833.006 444.494 827.973 406.479C838.425 444.856 885.651 439.787 893.393 418.065C898.038 405.031 897.264 389.101 869.393 374.257C840.748 359.413 815.973 361.585 761.393 370.998Z" fill="#FFE86F" fill-opacity="0.15"/>
<path d="M467.199 507.853C467.199 507.853 462.167 539.351 481.135 550.575C500.103 561.798 512.877 544.058 517.522 536.817C500.103 538.627 483.07 533.196 467.199 507.853Z" fill="#FFE86F" fill-opacity="0.15"/>
<path d="M347.199 277.228C367.715 274.694 388.618 275.418 408.747 279.763C442.038 287.004 473.393 306.192 460.231 331.898C455.586 340.949 443.973 344.569 434.296 339.863C433.521 339.501 432.36 338.777 431.586 338.415C422.296 331.174 422.296 314.881 441.65 310.537C433.521 292.072 399.457 280.849 347.199 277.228Z" fill="#FFE86F" fill-opacity="0.15"/>
<path d="M441.263 274.333C441.263 274.333 625.909 234.146 595.716 121.911C620.103 169.701 625.909 210.612 589.909 238.128C553.909 265.644 480.747 273.609 441.263 274.333Z" fill="#FFE86F" fill-opacity="0.15"/>
<path d="M356.101 36.1056C356.101 36.1056 412.617 34.6574 433.521 51.3116C450.553 65.4315 434.295 79.5514 425.391 79.5514C410.682 79.9134 396.359 65.7935 414.553 54.5701C402.94 46.243 389.778 40.8123 356.101 36.1056Z" fill="#FFE86F" fill-opacity="0.15"/>
<path d="M293.004 46.9657C293.004 46.9657 347.585 32.8459 377.779 51.6723C407.972 70.4988 387.069 90.7735 371.198 91.1355C355.327 91.4976 347.585 79.55 342.553 71.947C334.037 60.7235 317.004 45.5175 293.004 46.9657Z" fill="#FFE86F" fill-opacity="0.15"/>
<path d="M195.843 76.292C195.843 76.292 280.23 45.88 314.682 63.2583C358.811 85.7053 349.134 116.479 330.94 129.151C339.069 117.928 330.94 109.238 307.714 107.79C276.359 106.342 247.327 76.292 195.843 76.292Z" fill="#FFE86F" fill-opacity="0.15"/>
<path d="M222.165 255.144C259.714 233.059 286.424 236.317 298.424 249.713C294.553 215.318 252.359 166.442 171.843 179.476C16.6163 204.095 31.326 342.759 29.7776 368.827C66.1648 293.883 162.939 290.262 222.165 255.144ZM35.197 336.242C35.197 336.242 49.9068 240.3 147.456 209.526C245.004 178.752 281.779 226.542 281.779 226.542C258.553 205.543 224.488 193.233 148.617 216.405C94.423 232.697 47.1971 281.935 35.197 336.242Z" fill="#FFE86F" fill-opacity="0.15"/>
<path d="M246.166 165.356C288.746 155.943 296.875 158.839 298.037 180.562C316.23 154.857 298.037 102.36 236.875 100.912C144.359 98.3772 89.0036 155.219 68.4874 188.527C133.133 157.029 193.52 176.942 246.166 165.356ZM97.1328 167.528C97.1328 167.528 203.198 94.3947 282.94 134.22C213.649 103.808 121.52 154.857 97.1328 167.528Z" fill="#FFE86F" fill-opacity="0.15"/>
<path d="M154.423 378.24C175.326 331.536 198.939 299.314 222.165 293.521C178.423 284.832 88.6162 302.572 65.0032 378.602C30.1643 490.837 135.842 573.384 135.842 573.384C92.1001 490.113 136.616 418.066 154.423 378.24ZM114.165 538.265C88.6162 489.027 44.0999 381.137 150.552 316.692C82.4226 361.586 68.4871 454.632 114.165 538.265Z" fill="#FFE86F" fill-opacity="0.15"/>
<path d="M359.586 276.142C359.586 266.729 351.457 259.126 341.392 259.126C331.328 259.126 323.199 266.729 323.199 276.142C323.199 285.555 331.328 293.158 341.392 293.158C351.457 293.158 359.586 285.555 359.586 276.142Z" fill="#FFE86F" fill-opacity="0.15"/>
<path d="M360.36 272.522C359.973 271.074 359.585 269.264 359.198 267.815C362.295 264.919 366.166 262.747 370.037 260.575C365.779 262.023 361.908 263.833 358.424 266.005C358.424 265.643 358.037 265.643 358.037 265.281C361.521 261.661 365.779 258.764 370.037 256.592C365.005 258.04 360.36 260.212 356.489 263.109C356.102 262.747 356.102 262.385 355.714 262.023C359.585 258.04 364.231 254.42 368.876 251.161C363.456 253.334 358.424 256.23 353.779 260.212C353.392 259.85 353.392 259.488 353.005 259.488C356.101 255.506 359.585 251.885 363.456 248.989C358.811 251.161 354.553 254.42 350.682 258.04L349.908 257.678C351.843 254.058 354.166 250.799 357.65 248.265C353.392 250.075 350.295 252.972 347.585 256.592C344.489 255.144 340.618 254.058 337.134 254.058L336.359 254.058C333.263 249.713 331.327 245.006 329.392 240.3C330.166 245.006 331.327 249.713 333.263 254.42L332.488 254.42C329.005 249.713 326.295 244.644 324.359 239.214C325.134 245.006 326.295 250.437 329.005 255.506L327.843 255.868C323.972 250.799 320.488 245.006 317.779 239.214C318.94 245.731 321.65 251.885 325.134 257.316L323.972 258.04C319.714 254.058 316.23 249.351 313.521 244.282C315.069 250.075 317.779 255.144 321.65 259.85L320.876 260.575C316.617 257.678 313.521 254.058 310.811 249.713C312.359 254.782 315.069 259.126 318.94 262.747C315.843 266.367 314.295 271.074 314.295 275.781C314.295 276.143 314.295 276.143 314.295 276.505C310.037 277.591 305.779 277.953 301.521 278.315C305.779 278.677 310.037 278.677 314.295 278.677C314.295 279.039 314.295 279.401 314.295 279.763C309.263 281.211 304.23 282.297 298.811 282.659C304.23 283.384 309.65 283.384 315.069 282.659C315.069 283.021 315.456 283.746 315.456 284.108C309.65 285.918 303.456 287.728 297.262 288.452C303.843 288.814 310.424 288.09 316.617 286.28C317.005 286.642 317.005 287.366 317.392 287.728C312.359 290.262 306.94 292.073 301.521 293.159C307.714 293.159 313.521 292.073 319.327 289.9C319.714 290.262 319.714 290.262 320.101 290.624C316.23 293.521 311.585 295.693 306.553 296.779C311.972 296.779 317.392 295.331 322.037 292.797C325.908 295.693 330.94 297.503 335.972 297.865C337.521 302.572 338.295 306.917 339.069 311.623C339.456 306.917 339.069 302.21 338.682 297.503L339.456 297.503C341.392 302.572 342.94 308.003 343.327 313.796C343.714 308.365 343.714 302.572 342.553 297.141L343.714 296.779C346.037 302.572 347.972 308.727 349.134 314.882C349.134 308.365 348.36 302.21 346.424 296.055L347.585 295.693C350.295 300.4 352.231 305.468 353.779 310.899C353.392 305.106 352.231 299.676 349.908 294.245L350.682 293.883C353.779 297.503 355.714 301.848 356.876 306.193C356.876 301.486 355.327 296.779 353.005 292.435C354.553 291.349 355.714 289.9 356.876 288.452C367.714 299.314 373.521 317.416 349.521 321.399C322.424 326.105 325.134 304.02 328.23 298.59C319.714 309.089 294.166 318.14 285.65 296.779C278.295 277.953 290.295 260.937 309.65 266.729C302.682 259.126 294.166 240.662 315.069 232.697C339.069 223.646 345.263 241.024 345.65 253.696C347.585 243.196 362.682 234.869 373.521 244.644C382.811 252.247 385.521 266.729 360.36 272.522Z" fill="#FFE86F" fill-opacity="0.15"/>
<path d="M385.908 269.263C431.586 258.04 462.941 218.576 430.425 172.958C407.199 140.374 407.199 119.375 416.102 94.756C366.941 105.979 328.618 164.631 369.65 209.887C394.425 237.765 394.037 256.953 385.908 269.263ZM406.812 185.268C392.876 159.2 375.457 129.875 404.102 105.979C379.715 135.667 400.231 162.459 411.07 183.096C432.36 224.369 423.844 239.937 403.328 257.677C423.457 239.575 425.005 218.938 406.812 185.268Z" fill="#FFE86F" fill-opacity="0.15"/>
</svg>
