<svg width="348" height="239" viewBox="0 0 348 239" fill="none" xmlns="http://www.w3.org/2000/svg">
<mask id="mask0" mask-type="alpha" maskUnits="userSpaceOnUse" x="0" y="0" width="348" height="239">
<rect width="348" height="239" fill="#FFD953"/>
</mask>
<g mask="url(#mask0)">
<path d="M20.2471 61.4906C29.2818 102.668 44.1963 129.091 82.343 163.964C101.56 180.73 123.931 193.875 148.168 202.996C184.306 216.677 223.314 222.444 262.321 219.762C301.902 217.347 338.901 203.666 357.687 183.815C367.869 173.219 375.757 160.879 380.776 147.333C380.633 147.333 387.66 131.505 388.377 105.216C390.098 79.8661 381.923 40.969 348.796 18.7037C316.816 -3.69569 270.782 -5.97588 238.658 6.63217C204.814 18.7037 191.764 46.4682 190.903 59.2104C187.031 83.6217 195.923 103.875 211.124 115.142C226.612 126.543 246.259 130.298 268.487 129.091C246.402 131.237 226.182 128.286 209.69 116.885C193.198 105.485 183.589 84.0241 187.748 58.6739C188.609 45.2611 202.519 16.0211 237.511 3.68135C270.638 -9.32907 319.254 -8.12192 352.238 15.0822C386.513 38.0182 398.846 75.4399 397.268 105.35C397.555 135.932 386.943 163.83 363.137 186.498C338.901 209.568 302.762 220.164 262.751 222.578C223.314 225.261 183.733 219.493 147.164 205.678C122.497 196.423 99.8388 183.011 80.3353 165.976C41.6149 130.969 27.2741 102.802 20.2471 61.4906Z" fill="#FFE86F"/>
<path d="M190.616 91.4014C184.88 75.5742 183.589 64.1734 178.57 44.993C176.849 40.0303 174.411 29.1659 166.094 18.9722C158.063 8.77846 144.152 2.34031 126.656 4.2181C99.4086 7.03479 91.2343 26.2151 95.1063 43.2494C101.703 72.0869 150.032 66.9901 148.167 40.4327C146.877 21.5206 126.369 19.5087 115.614 26.8857C124.362 16.8261 146.303 19.777 155.625 39.3597C159.927 49.151 158.206 60.1495 151.322 68.4655C142.144 79.464 122.928 84.695 107.296 79.3298C91.2343 73.5623 83.777 58.54 81.7693 48.3462C79.7616 37.616 81.9127 30.6413 81.9127 30.7755C83.2034 24.8738 85.7848 19.3746 89.6568 14.6801C95.9668 5.6935 110.738 -3.15895 127.373 -2.62244C144.009 -2.08593 160.07 6.23001 168.675 17.0944C177.566 27.9588 180.004 39.0914 181.725 44.1883C186.744 63.771 186.888 75.0377 190.616 91.4014Z" fill="#FFE86F"/>
<path d="M185.74 58.2715C178.857 16.5576 162.795 -4.09809 129.668 -10.268C148.598 -16.3038 163.082 -8.92671 170.252 -0.610767C178.283 8.77821 187.318 26.349 185.74 58.2715Z" fill="#FFE86F"/>
<path d="M192.767 37.4819C192.767 37.4819 217.577 -4.7684 259.452 -5.7073C256.871 -8.65812 252.999 -10.2677 248.983 -10.4018C253.859 -11.6089 265.189 -13.755 275.514 -9.19461C268.63 -15.3645 246.689 -22.3392 229.193 -10.8042C204.383 5.55946 196.639 27.2882 192.767 37.4819Z" fill="#FFE86F"/>
<path d="M185.741 58.2715C185.741 51.1627 183.589 18.9719 194.919 -3.02507C203.38 -19.2546 219.298 -14.8283 225.321 -12.9505C221.019 -10.6704 212.845 -5.17112 204.671 7.03454C194.489 22.7275 188.035 40.1642 185.741 58.2715Z" fill="#FFE86F"/>
<path d="M185.31 29.3003C185.31 29.3003 187.031 -5.70715 199.364 -14.1572C189.469 -16.1691 183.733 -12.6818 183.733 10.6565C180.148 -7.18256 176.849 -16.7056 156.772 -14.2913C168.675 -5.70714 179.431 1.6699 185.31 29.3003Z" fill="#FFE86F"/>
<path d="M239.519 71.9527C239.088 72.6234 238.802 73.4281 238.802 74.2329C238.802 74.2329 229.623 73.4281 224.604 77.452C229.05 76.2448 233.495 75.7083 238.085 75.7083C238.085 75.7083 223.027 80.2687 219.585 91.8037C226.468 80.5369 239.232 77.0496 239.232 77.0496C239.232 77.0496 234.213 80.8052 230.627 89.2552C235.36 81.7441 237.367 80.8052 240.236 79.8663C239.949 83.756 238.945 87.6457 237.654 91.2672C233.782 101.327 219.011 111.386 207.969 99.3149C199.938 90.5965 209.69 79.0615 213.705 75.9766C220.158 71.4162 230.197 69.6725 239.519 71.9527Z" fill="#FFE86F"/>
<path d="M260.886 77.3179C272.646 86.841 279.816 87.1093 284.119 87.2434C279.673 86.5728 277.952 85.3656 273.363 82.9513C279.099 84.2926 285.123 84.2926 290.859 83.2196C285.983 83.4878 282.685 83.4878 278.239 81.61C295.018 67.929 310.649 75.0378 311.797 80.2688C312.657 83.8902 310.076 94.8887 293.297 97.0348C268.2 100.254 260.886 77.3179 260.886 77.3179Z" fill="#FFE86F"/>
<path d="M243.678 41.5055C249.557 47.4072 255.437 57.6009 250.418 72.4892C250.418 72.4892 233.209 72.8915 228.046 52.7723C222.883 32.6531 235.503 22.057 235.503 22.057C235.79 26.8856 239.519 37.3476 243.678 41.5055ZM232.779 40.969C232.348 38.823 230.914 38.4206 230.914 38.4206C230.914 38.4206 226.182 65.2462 248.84 69.8066C248.84 69.8066 249.271 60.2835 247.406 56.3938C245.542 52.5041 236.937 43.3834 236.507 37.75C235.79 46.4683 235.216 53.443 239.949 57.7351C244.681 61.893 246.402 66.7216 246.116 67.7947C242.961 65.5145 229.193 56.9303 232.779 40.969Z" fill="#FFE86F"/>
<path d="M280.247 75.5742C263.181 78.3908 253.143 72.6233 253.143 72.6233C253.143 72.6233 257.301 51.0287 274.08 52.6382C290.859 54.2478 297.026 52.9065 302.188 45.7977C301.041 52.2359 297.312 72.7575 280.247 75.5742ZM270.782 68.3312C279.96 68.5995 284.262 63.3685 290.142 56.6621C285.696 60.8201 285.409 60.0153 272.359 61.0883C259.309 62.1613 255.724 71.2821 255.724 71.2821C281.537 80.9393 293.871 62.5637 296.165 58.0034C295.161 59.3447 293.871 60.5518 292.293 61.3566C277.665 76.6472 265.763 71.4162 258.879 70.6114C260.313 67.9289 261.604 67.9289 270.782 68.3312Z" fill="#FFE86F"/>
<path d="M255.867 39.628C259.309 34.7994 264.185 33.4581 268.344 35.47C272.503 37.4819 271.356 43.6518 268.631 47.1392C266.623 49.9558 263.898 52.1019 260.743 53.7114C260.743 53.7114 270.208 43.9201 263.325 40.4328C259.022 38.2867 254.433 46.4685 254.577 50.2241C254.72 50.2241 252.426 44.3225 255.867 39.628Z" fill="#FFE86F"/>
<path d="M227.759 58.54C210.694 42.5788 199.078 50.7606 199.078 50.7606C199.078 50.7606 201.085 36.543 212.128 38.2867C223.744 40.1645 227.759 58.54 227.759 58.54Z" fill="#FFE86F"/>
<path d="M235.646 69.2701C228.333 67.7947 220.732 67.3924 213.848 70.4773C206.965 73.5622 201.945 79.1956 202.089 84.9631C192.624 80.0004 192.48 57.3327 206.391 53.3089C220.302 49.2851 235.646 69.2701 235.646 69.2701Z" fill="#FFE86F"/>
<path d="M312.514 86.8408C315.095 84.4265 317.103 78.3908 312.944 74.6352C306.347 68.8677 293.44 72.8915 293.44 72.8915C301.615 61.4906 320.831 52.6382 327.285 59.6128C333.738 66.5875 328.719 84.2924 312.514 86.8408Z" fill="#FFE86F"/>
<path d="M316.099 54.5163C308.928 55.3211 298.603 65.2466 298.603 65.2466C300.467 57.0648 309.502 41.2377 318.68 42.4448C327.858 43.652 328.719 54.3822 328.432 58.5402C325.994 55.7235 321.835 53.8457 316.099 54.5163Z" fill="#FFE86F"/>
<path d="M268.487 50.2239C268.487 50.2239 268.487 50.0892 268.775 50.0892L268.487 50.2239Z" fill="#FFE86F"/>
<path d="M279.816 49.9558C271.499 49.0169 269.204 49.6875 268.631 50.0899C269.634 49.151 274.08 45.3954 278.813 46.066C277.235 45.2613 275.514 44.993 273.65 45.1272C274.08 44.4565 274.367 43.7859 274.654 42.9811C276.948 41.7739 279.53 40.9692 282.111 40.9692C279.673 40.835 277.235 41.1033 274.941 41.9081C275.084 41.2374 275.227 40.4327 275.227 39.762C277.522 38.1525 279.96 36.6771 282.541 35.7382C279.96 36.2747 277.379 37.0794 275.084 38.1525C274.941 37.4818 274.797 36.9453 274.51 36.2747C276.805 33.8604 279.386 31.7143 282.254 29.9707C279.243 31.312 276.375 32.9215 273.65 34.7993C273.506 34.531 273.363 34.2628 273.22 33.9945C273.076 33.8604 272.933 33.5921 272.646 33.458C275.084 29.9707 277.952 26.8857 281.251 24.2032C277.809 26.7516 274.654 29.4341 271.786 32.5191C271.355 32.1167 270.925 31.8485 270.351 31.5802C272.216 27.2881 274.367 23.1301 276.948 19.2404C273.937 22.996 271.355 27.0198 268.917 31.1778C268.631 31.0437 268.344 31.0437 268.057 30.9096C269.061 27.4222 269.778 24.069 270.351 21.6547C269.061 24.8738 267.914 28.227 266.766 30.9096C266.193 30.9096 265.619 30.9096 265.045 31.0437C265.332 27.0199 265.476 22.5936 265.332 20.85C264.902 24.3373 264.041 28.3611 263.324 31.4461C262.321 31.7143 261.317 32.1167 260.313 32.6532C260.169 29.1659 260.026 25.2762 259.739 22.996C259.596 26.6175 259.309 30.2389 258.879 33.458C258.018 33.9945 257.301 34.6652 256.441 35.3358C255.867 31.8485 255.007 28.8976 254.577 26.8857C254.72 30.5072 254.863 33.7263 255.007 36.6771C254.29 37.3477 253.716 38.1525 253.142 38.9573C252.569 36.5429 251.565 34.1286 250.274 31.9826C251.278 35.2017 251.708 38.5549 251.565 41.9081C250.991 43.1152 250.705 44.3224 250.561 45.6637V45.7978C250.561 45.7978 239.088 38.0183 240.522 26.0809C241.957 14.1435 252.999 6.36411 261.747 7.43714C270.495 8.51016 267.914 17.6309 267.914 17.6309C267.914 17.6309 274.797 2.60852 284.549 8.64428C290.716 12.534 287.704 20.7158 287.704 20.7158C287.704 20.7158 294.588 15.7531 301.041 20.9841C306.204 25.1421 307.638 30.5072 303.479 38.1525C299.177 46.6025 290.715 51.1629 279.816 49.9558ZM261.604 10.7903C255.007 9.71732 248.697 15.3507 247.406 18.838C244.968 25.0079 246.402 28.227 246.402 28.227C246.976 25.1421 248.267 22.1912 250.274 19.5087C253.142 16.1555 257.301 12.9364 260.887 13.607C263.038 14.0094 264.759 15.4848 265.332 17.4967C265.189 17.6309 268.057 11.8634 261.604 10.7903ZM281.681 10.1197C277.092 8.77842 274.224 14.8142 274.224 14.8142C274.224 14.8142 279.386 11.8634 281.394 12.534C283.402 13.2047 284.836 15.0824 284.979 18.838C286.7 15.2166 286.126 11.3269 281.681 10.1197ZM301.471 35.8723C303.335 31.1778 303.909 26.3492 299.607 22.5936C295.018 18.5698 291.146 23.1301 291.146 23.1301C295.161 21.3865 299.894 23.2643 300.324 29.9707C300.754 37.616 292.58 44.3224 292.58 44.3224C292.58 44.3224 299.463 40.5668 301.471 35.8723Z" fill="#FFE86F"/>
<path d="M249.988 73.5622C249.988 73.5622 247.119 79.4638 250.561 80.0003C254.003 80.5368 252.999 74.0987 252.999 74.0987L259.453 76.513C259.453 76.513 258.305 87.1091 249.127 84.9631C241.67 83.2194 243.104 72.7574 243.104 72.7574L249.988 73.5622Z" fill="#FFE86F"/>
<path d="M270.925 128.555C237.368 126.14 243.247 99.7171 244.251 83.89C244.251 83.89 248.267 86.975 252.856 86.4385C238.228 104.277 248.697 126.275 270.925 128.555Z" fill="#FFE86F"/>
<path d="M104.571 187.169C94.1025 184.218 49.5024 177.377 33.2973 204.874C25.123 219.091 12.7898 224.054 20.2471 229.419C3.32486 229.419 -9.00829 199.374 22.685 181.938C-9.58192 194.412 -1.69445 239.747 -44 230.76C-22.3453 229.285 -35.8257 195.485 9.92165 178.316C41.4715 166.513 71.444 172.549 104.571 187.169Z" fill="#FFE86F"/>
<path d="M198.934 107.899C187.892 95.6935 184.163 93.6816 172.26 80.9394C171.113 82.8172 169.392 84.2926 167.384 85.2315C178.14 91.2673 186.028 96.6324 198.934 107.899Z" fill="#FFE86F"/>
<path d="M171.113 78.3911C169.966 82.6832 165.233 85.0975 160.644 84.0245C156.055 82.9515 153.474 78.5253 154.621 74.2332C155.768 69.9411 160.501 67.5267 165.09 68.5998C169.679 69.8069 172.26 74.099 171.113 78.3911ZM158.493 74.3673C159.497 74.6355 160.501 74.099 160.644 73.1601C160.787 72.2212 160.357 71.2823 159.353 71.1482C158.349 70.8799 157.346 71.4165 157.202 72.3554C156.915 73.2943 157.489 74.2332 158.493 74.3673ZM168.531 72.6236C168.531 72.6236 169.105 77.184 166.094 79.5983C162.652 82.5491 157.776 80.8054 157.776 80.8054C158.923 81.7443 163.369 84.0245 167.097 81.0737C169.679 78.9276 170.252 75.4403 168.531 72.6236Z" fill="#FFE86F"/>
<path d="M275.084 129.896C275.084 129.896 234.069 122.519 196.64 148.674C172.834 165.44 171.4 201.386 201.515 207.288C222.453 211.446 240.379 197.497 237.368 180.731C234.213 163.428 211.554 155.515 200.368 169.33C210.98 157.526 230.771 164.233 228.189 179.121C225.895 192.4 209.403 193.875 202.089 191.327C188.752 186.766 186.601 172.415 200.942 154.576C216.43 135.127 258.018 127.884 275.084 129.896Z" fill="#FFE86F"/>
<path d="M41.0416 36.0062C29.8557 42.7126 27.5612 50.0897 27.5612 50.0897C28.7085 42.5785 32.1503 34.665 36.0223 30.507C45.2004 20.8498 53.0879 28.7633 41.0416 36.0062ZM96.9709 -1.14724C95.25 2.07184 92.5252 2.07182 91.2346 0.998802C89.5137 -0.476608 92.9555 -2.89091 94.6764 -2.3544C93.0989 -4.36633 88.5098 -4.23219 86.5021 -2.62265C81.3394 0.998802 82.3432 6.63218 83.3471 12.3997C84.351 18.1672 81.4828 22.4593 73.3085 24.8736C71.014 25.276 69.2931 27.1538 69.2931 29.434C69.2931 29.434 73.4519 27.1538 74.886 29.8363C75.8899 32.2506 74.5992 34.9332 72.0178 35.8721C71.5876 36.0062 71.3008 36.1404 70.8706 36.1404C68.0024 36.2745 59.6847 33.4578 46.7779 43.115C54.3786 39.4936 61.9792 39.2253 67.1419 44.5904C73.3085 50.8945 72.8783 58.5398 67.4288 63.1001C61.9792 67.5263 50.65 65.3803 51.2236 58.1374C54.8088 59.0763 58.9677 56.662 57.2467 53.1746C55.5258 49.6873 52.6577 49.5532 47.9252 51.0286C43.1927 52.504 32.4371 55.7231 28.9953 71.9526C26.8441 82.6828 28.8519 90.194 31.1464 99.3147C31.1464 99.3147 22.6853 81.4757 20.104 67.7946C17.666 55.1866 18.6699 51.1627 19.8171 42.5785C21.2512 31.0435 29.7123 23.5323 31.003 16.1553C32.4371 9.18062 29.7123 1.9377 23.8326 -2.62265C28.7085 -4.76871 41.0416 -9.19493 43.9098 5.42503C47.7818 0.59642 45.4872 -4.76869 49.3593 -5.84172C52.6577 -6.78062 54.3786 0.0599136 51.7972 3.54725C55.0956 1.53532 57.677 -3.02504 56.8165 -6.6465C55.9561 -9.86557 60.1149 -14.4259 63.4133 -7.98778C65.5644 -10.9386 67.7156 -13.8894 72.0178 -14.2918C75.0294 -14.5601 78.1844 -11.0727 77.0371 -7.183C80.7657 -11.4751 88.223 -14.4259 93.6725 -11.7434C97.8314 -9.46319 98.405 -3.8298 96.9709 -1.14724ZM66.7117 9.98538C61.9792 12.2656 57.5336 15.0823 53.5181 18.3013C53.2313 18.1672 52.9445 17.8989 52.6577 17.7648C55.0956 15.0823 58.6808 11.3267 62.4095 7.43695C58.6808 10.5219 55.0956 13.741 51.9406 17.3624C51.6538 17.2283 51.2236 17.0942 50.7934 16.9601C52.9445 13.4727 55.6693 8.91235 57.2467 6.63218C55.0956 9.18061 51.9406 13.3386 49.6461 16.5577C49.2159 16.4235 48.7857 16.4235 48.3554 16.4235L51.5104 8.24173L47.0647 16.4235C46.6345 16.4235 46.0609 16.4235 45.6307 16.5577C45.6307 13.8751 46.2043 11.1925 47.3516 8.6441C45.6307 10.5219 44.6268 14.2775 44.34 16.8259C43.6229 17.0942 42.9059 17.3624 42.1889 17.6307C41.6152 15.0823 41.7586 12.5338 42.7625 10.1195C41.3284 12.6679 40.468 15.6188 40.3246 18.5696C39.8943 18.8378 38.4602 19.9109 38.1734 20.1791C38.4602 17.8989 38.4602 13.741 36.4525 11.1925C38.4602 15.7529 36.7393 18.8378 35.7355 21.2522C34.7316 23.6665 31.4332 30.9094 28.2782 38.9571C25.1232 47.0047 24.1194 58.2715 25.9837 66.0509C25.6969 54.65 32.0069 44.0539 42.6191 38.4206C60.832 28.4951 63.5567 33.9943 63.5567 33.9943C63.5567 33.9943 61.8358 30.507 54.2352 31.58C54.522 31.4459 54.6654 31.1776 54.9522 30.9094C58.2506 29.5681 61.8358 28.8975 65.421 29.0316C62.5529 28.3609 58.9677 28.7633 56.3863 29.0316C56.6731 28.4951 56.9599 27.9585 57.2467 27.422C61.9792 25.9466 65.8513 24.6054 68.576 23.9347C64.704 24.6054 60.5452 25.276 57.3902 25.9466C57.3902 25.276 57.3902 24.6053 57.1033 24.0688C60.6886 21.9228 64.4172 20.045 68.4326 18.5696C64.4172 19.6426 60.4017 20.9839 56.6731 22.7275C56.5297 22.3252 56.2429 21.9228 56.0995 21.6545C59.9715 18.5696 64.1304 15.7529 68.576 13.3386C63.9869 15.4846 59.5413 17.8989 55.239 20.5815C54.9522 20.3133 54.8088 20.045 54.522 19.7767C58.9677 15.2164 63.2699 11.5949 66.7117 9.98538Z" fill="#FFE86F"/>
<path d="M139.85 34.2627C139.85 35.7382 141.141 36.9453 142.718 36.9453C144.296 36.9453 145.586 35.7382 145.586 34.2627C145.586 32.7873 144.296 31.5802 142.718 31.5802C141.141 31.5802 139.85 32.7873 139.85 34.2627Z" fill="#FFE86F"/>
<path d="M134.974 27.5563C134.974 28.7635 135.978 29.7024 137.268 29.7024C138.559 29.7024 139.563 28.7635 139.563 27.5563C139.563 26.3492 138.559 25.4103 137.268 25.4103C135.978 25.4103 134.974 26.3492 134.974 27.5563Z" fill="#FFE86F"/>
<path d="M139.42 44.3223C139.42 46.2001 140.997 47.6755 143.005 47.6755C145.013 47.6755 146.59 46.2001 146.59 44.3223C146.59 42.4445 145.013 40.9691 143.005 40.9691C140.997 40.9691 139.42 42.4445 139.42 44.3223Z" fill="#FFE86F"/>
<path d="M87.6489 85.6336C87.6489 87.5114 89.2264 88.9868 91.2341 88.9868C93.2419 88.9868 94.8193 87.5114 94.8193 85.6336C94.8193 83.7558 93.2419 82.2804 91.2341 82.2804C89.2264 82.4145 87.6489 83.8899 87.6489 85.6336Z" fill="#FFE86F"/>
<path d="M108.587 31.0435C108.587 33.4578 110.738 35.4697 113.319 35.4697C115.901 35.4697 118.052 33.4578 118.052 31.0435C118.052 28.6292 115.901 26.6173 113.319 26.6173C110.738 26.6173 108.587 28.6292 108.587 31.0435Z" fill="#FFE86F"/>
<path d="M192.624 175.231C192.624 177.78 194.775 179.792 197.5 179.792C200.225 179.792 202.376 177.78 202.376 175.231C202.376 172.683 200.225 170.671 197.5 170.671C194.775 170.671 192.624 172.817 192.624 175.231Z" fill="#FFE86F"/>
<path d="M197.5 185.962C197.5 187.973 199.221 189.583 201.372 189.583C203.523 189.583 205.244 187.973 205.244 185.962C205.244 183.95 203.523 182.34 201.372 182.34C199.221 182.474 197.5 184.084 197.5 185.962Z" fill="#FFE86F"/>
<path d="M207.108 189.181C207.108 190.79 208.542 192.132 210.263 191.998C211.984 191.998 213.418 190.656 213.418 189.047C213.418 187.437 211.984 186.23 210.263 186.096C208.399 186.23 207.108 187.571 207.108 189.181Z" fill="#FFE86F"/>
<path d="M217.004 187.035C217.004 188.242 218.151 189.315 219.442 189.315C220.732 189.315 221.88 188.242 221.88 187.035C221.88 185.827 220.732 184.754 219.442 184.754C218.008 184.754 217.004 185.693 217.004 187.035Z" fill="#FFE86F"/>
<path d="M223.027 180.999C223.027 182.072 223.887 182.876 225.034 182.876C226.182 182.876 227.042 182.072 227.042 180.999C227.042 179.926 226.182 179.121 225.034 179.121C223.887 179.121 223.027 179.926 223.027 180.999Z" fill="#FFE86F"/>
<path d="M139.563 205.142C139.563 205.142 111.885 193.338 87.5057 204.069C66.4246 213.189 69.5796 226.334 81.7693 228.346C90.3739 229.687 101.847 217.347 106.292 214.128C112.889 209.031 127.373 201.252 139.563 205.142Z" fill="#FFE86F"/>
<path d="M156.055 210.91C156.055 210.91 128.664 200.716 114.897 211.312C103.711 219.896 110.881 227.139 115.47 227.407C121.78 227.944 127.803 223.92 131.819 218.823C135.261 214.531 146.733 209.434 156.055 210.91Z" fill="#FFE86F"/>
<path d="M170.683 215.336C170.683 215.336 152.039 209.836 143.148 214.531C134.257 219.225 139.563 224.322 142.861 224.456C147.307 224.725 149.745 222.579 152.47 219.896C156.055 216.677 164.086 214.531 170.683 215.336Z" fill="#FFE86F"/>
<path d="M122.067 196.826C107.153 190.12 72.5912 179.658 48.4986 196.558C27.5609 211.312 39.4638 228.883 50.3629 228.883C44.3397 222.176 53.2311 218.823 64.7038 214.397C79.9051 208.495 89.37 190.254 122.067 196.826Z" fill="#FFE86F"/>
<path d="M261.173 224.456C261.173 224.456 228.046 226.602 196.353 220.969C186.744 219.225 173.981 216.677 167.671 217.482C159.927 218.42 155.338 222.713 158.78 226.334C159.353 224.054 164.803 220.03 177.136 219.359C170.539 220.432 167.384 222.981 169.822 226.871C171.113 223.249 182.012 220.969 188.465 221.103C181.868 221.774 177.279 224.59 180.147 227.944C180.147 225.529 195.062 222.31 200.655 222.981C193.915 223.115 189.469 225.395 191.046 228.346C195.492 225.261 203.093 225.395 209.976 225.798C216.143 226.066 244.108 226.334 261.173 224.456Z" fill="#FFE86F"/>
<path d="M71.3004 96.4983C93.3853 107.899 105.001 97.0348 136.551 89.1212C171.256 80.537 198.934 111.521 217.577 121.714C197.93 113.264 172.117 107.899 147.02 114.74C108.587 125.068 83.9204 112.325 71.3004 96.4983Z" fill="#FFE86F"/>
<path d="M275.227 0.596493C289.712 -0.208275 315.525 1.66954 334.598 14.9482C345.641 22.7276 350.66 33.1896 350.23 43.2492C349.8 53.7112 341.052 61.7589 332.16 59.8811C339.044 58.2716 346.932 49.8215 344.494 39.6278C344.207 48.212 337.897 54.6501 332.878 54.516C338.327 51.2969 342.486 42.0421 341.195 34.7992C339.761 41.3714 338.184 47.139 331.874 48.7485C336.75 44.8588 339.331 34.2626 336.75 27.8245C336.893 35.3357 334.742 40.5667 331.013 41.7738C332.734 38.6889 336.176 32.6531 328.575 22.4594C319.541 10.3878 300.754 2.34016 275.227 0.596493Z" fill="#FFE86F"/>
<path d="M88.6819 176.506C60.1831 152.527 51.5328 136.702 27.3689 115.733C14.386 104.554 0.153683 99.212 -15.1992 101.985C-30.552 104.757 -39.4869 119.436 -34.1471 130.051C-33.9464 120.908 -24.0462 108.062 -8.391 108.096C-20.8569 111.129 -28.3385 121.034 -26.5427 127.393C-23.5452 119.455 -11.3597 111.466 -0.332626 110.921C-9.59493 114.737 -17.4251 118.481 -17.8069 126.962C-13.6335 119.503 0.934308 113.008 11.2158 114.515C0.272106 116.533 -6.65339 121.038 -7.36785 126.178C-3.38153 123.026 4.31984 117.005 21.4769 123.277C39.8176 130.162 62.1297 159.013 88.6819 176.506Z" fill="#FFE86F"/>
<path d="M76.7501 155.783C76.7501 155.783 57.6768 141.029 58.107 127.213C58.6807 109.509 71.0138 106.692 78.471 109.643C71.8742 110.313 71.5874 113.532 75.0292 120.775C79.6183 130.701 68.289 140.09 76.7501 155.783Z" fill="#FFE86F"/>
<path d="M103.854 177.109C103.854 177.109 74.1685 159.941 76.463 139.687C78.7576 119.836 92.3814 117.154 100.412 120.909C93.9589 121.848 93.0984 123.19 97.8309 133.115C104.141 146.662 90.8039 160.88 103.854 177.109Z" fill="#FFE86F"/>
<path d="M128.52 124.531C128.52 124.531 107.726 121.714 102.564 150.552C99.2651 169.598 120.49 190.388 154.191 203.264C131.389 189.851 127.23 171.476 128.52 159.136C130.528 139.687 117.335 130.835 128.52 124.531Z" fill="#FFE86F"/>
<path d="M201.372 217.348C201.372 217.348 155.338 207.154 139.993 182.877C128.377 164.501 128.233 139.285 155.338 128.287C173.264 120.91 190.76 125.068 199.364 128.555C191.907 129.628 167.814 136.871 162.221 160.611C157.345 182.072 172.547 210.239 207.682 218.018C205.674 218.018 203.523 217.75 201.372 217.348Z" fill="#FFE86F"/>
<path d="M270.925 128.555C258.018 126.945 245.972 122.117 248.267 103.473C249.414 93.9496 257.875 91.5353 263.611 93.4131C268.774 95.1568 274.51 102.131 270.782 108.435C268.2 112.728 262.321 112.191 258.305 109.911C261.747 109.643 266.623 105.887 261.89 103.07C257.158 100.254 252.139 108.435 254.72 115.41C257.588 121.982 263.611 126.945 270.925 128.555Z" fill="#FFE86F"/>
<path d="M115.327 94.4865C109.304 95.5595 90.2305 105.485 72.4479 95.5595C55.3822 85.9023 59.6845 71.6847 66.4247 68.0632C75.7463 63.2346 88.7964 67.2585 90.6607 81.3419C86.7887 67.1243 69.2929 69.0021 66.4247 77.0498C64.7038 81.8784 64.9906 87.7801 75.316 93.2793C85.9283 98.7786 95.1064 97.9738 115.327 94.4865Z" fill="#FFE86F"/>
<path d="M198.504 107.63C177.566 85.9016 182.299 37.6155 162.795 18.5693C143.292 -0.476883 113.032 7.70492 108.443 13.3383C117.335 7.30254 142.144 9.58271 158.636 30.775C175.128 51.9672 172.834 84.158 198.504 107.63Z" fill="#FFE86F"/>
<path d="M224.317 43.7859C224.317 43.7859 226.182 32.1167 219.155 27.9587C212.128 23.8008 207.395 30.3731 205.674 33.0556C212.128 32.385 218.438 34.3969 224.317 43.7859Z" fill="#FFE86F"/>
<path d="M268.774 129.226C261.173 130.164 253.429 129.896 245.972 128.287C233.639 125.604 222.023 118.495 226.899 108.972C228.62 105.619 232.922 104.278 236.507 106.021C236.794 106.156 237.224 106.424 237.511 106.558C240.953 109.24 240.953 115.276 233.782 116.886C236.794 123.726 249.414 127.884 268.774 129.226Z" fill="#FFE86F"/>
<path d="M233.926 130.298C233.926 130.298 165.52 145.186 176.706 186.766C167.671 169.061 165.52 153.905 178.857 143.711C192.194 133.517 219.298 130.566 233.926 130.298Z" fill="#FFE86F"/>
<path d="M265.476 218.555C265.476 218.555 244.538 219.091 236.794 212.921C230.484 207.69 236.507 202.459 239.806 202.459C245.255 202.325 250.561 207.556 243.821 211.714C248.123 214.799 252.999 216.811 265.476 218.555Z" fill="#FFE86F"/>
<path d="M288.851 214.531C288.851 214.531 268.631 219.762 257.445 212.787C246.259 205.813 254.003 198.301 259.883 198.167C265.763 198.033 268.631 202.459 270.495 205.276C273.65 209.434 279.96 215.067 288.851 214.531Z" fill="#FFE86F"/>
<path d="M324.847 203.667C324.847 203.667 293.584 214.933 280.821 208.495C264.472 200.179 268.057 188.779 274.797 184.084C271.786 188.242 274.797 191.461 283.402 191.998C295.018 192.534 305.774 203.667 324.847 203.667Z" fill="#FFE86F"/>
<path d="M315.095 137.407C301.184 145.589 291.289 144.382 286.844 139.419C288.278 152.161 303.909 170.269 333.738 165.44C391.245 156.319 385.795 104.948 386.369 95.2911C372.889 123.056 337.037 124.397 315.095 137.407ZM384.361 107.363C384.361 107.363 378.912 142.907 342.773 154.307C306.634 165.708 293.01 148.003 293.01 148.003C301.615 155.783 314.235 160.343 342.343 151.759C362.42 145.723 379.916 127.482 384.361 107.363Z" fill="#FFE86F"/>
<path d="M306.204 170.671C290.429 174.158 287.417 173.085 286.987 165.038C280.247 174.561 286.987 194.009 309.646 194.546C343.92 195.485 364.428 174.427 372.028 162.087C348.079 173.756 325.707 166.379 306.204 170.671ZM361.416 169.866C361.416 169.866 322.122 196.96 292.58 182.206C318.25 193.473 352.381 174.561 361.416 169.866Z" fill="#FFE86F"/>
<path d="M340.192 91.8037C332.448 109.106 323.7 121.044 315.095 123.19C331.3 126.409 364.571 119.836 373.319 91.6695C386.226 50.0898 347.075 19.5086 347.075 19.5086C363.28 50.3581 346.789 77.0496 340.192 91.8037ZM355.106 32.519C364.571 50.7605 381.063 90.7306 341.626 114.605C366.866 97.9736 372.028 63.5026 355.106 32.519Z" fill="#FFE86F"/>
<path d="M264.185 129.628C264.185 133.115 267.197 135.932 270.925 135.932C274.654 135.932 277.665 133.115 277.665 129.628C277.665 126.141 274.654 123.324 270.925 123.324C267.197 123.324 264.185 126.141 264.185 129.628Z" fill="#FFE86F"/>
<path d="M263.898 130.969C264.042 131.505 264.185 132.176 264.328 132.713C263.181 133.786 261.747 134.59 260.313 135.395C261.89 134.859 263.324 134.188 264.615 133.383C264.615 133.517 264.759 133.517 264.759 133.652C263.468 134.993 261.89 136.066 260.313 136.871C262.177 136.334 263.898 135.529 265.332 134.456C265.476 134.59 265.476 134.725 265.619 134.859C264.185 136.334 262.464 137.675 260.743 138.883C262.751 138.078 264.615 137.005 266.336 135.529C266.479 135.663 266.479 135.798 266.623 135.798C265.476 137.273 264.185 138.614 262.751 139.687C264.472 138.883 266.049 137.675 267.483 136.334L267.77 136.468C267.053 137.809 266.193 139.017 264.902 139.956C266.479 139.285 267.627 138.212 268.631 136.871C269.778 137.407 271.212 137.809 272.503 137.809H272.789C273.937 139.419 274.654 141.163 275.371 142.906C275.084 141.163 274.654 139.419 273.937 137.675H274.224C275.514 139.419 276.518 141.297 277.235 143.309C276.948 141.163 276.518 139.151 275.514 137.273L275.944 137.139C277.379 139.017 278.669 141.163 279.673 143.309C279.243 140.894 278.239 138.614 276.948 136.602L277.379 136.334C278.956 137.809 280.247 139.553 281.251 141.431C280.677 139.285 279.673 137.407 278.239 135.663L278.526 135.395C280.103 136.468 281.251 137.809 282.254 139.419C281.681 137.541 280.677 135.932 279.243 134.59C280.39 133.249 280.964 131.505 280.964 129.762C280.964 129.628 280.964 129.628 280.964 129.494C282.541 129.091 284.119 128.957 285.696 128.823C284.119 128.689 282.541 128.689 280.964 128.689C280.964 128.555 280.964 128.421 280.964 128.286C282.828 127.75 284.692 127.347 286.7 127.213C284.692 126.945 282.685 126.945 280.677 127.213C280.677 127.079 280.534 126.811 280.534 126.677C282.685 126.006 284.979 125.336 287.274 125.067C284.836 124.933 282.398 125.201 280.103 125.872C279.96 125.738 279.96 125.47 279.816 125.336C281.681 124.397 283.689 123.726 285.696 123.324C283.402 123.324 281.251 123.726 279.099 124.531C278.956 124.397 278.956 124.397 278.813 124.263C280.247 123.19 281.968 122.385 283.832 121.982C281.824 121.982 279.817 122.519 278.096 123.458C276.662 122.385 274.797 121.714 272.933 121.58C272.359 119.836 272.072 118.227 271.786 116.483C271.642 118.227 271.786 119.97 271.929 121.714H271.642C270.925 119.836 270.352 117.824 270.208 115.678C270.065 117.69 270.065 119.836 270.495 121.848L270.065 121.982C269.204 119.836 268.487 117.556 268.057 115.276C268.057 117.69 268.344 119.97 269.061 122.251L268.631 122.385C267.627 120.641 266.91 118.763 266.336 116.751C266.479 118.897 266.91 120.909 267.77 122.921L267.483 123.055C266.336 121.714 265.619 120.105 265.189 118.495C265.189 120.239 265.762 121.982 266.623 123.592C266.049 123.994 265.619 124.531 265.189 125.067C261.173 121.043 259.022 114.337 267.914 112.862C277.952 111.118 276.948 119.3 275.801 121.312C278.956 117.422 288.421 114.069 291.576 121.982C294.301 128.957 289.855 135.261 282.685 133.115C285.266 135.932 288.421 142.772 280.677 145.723C271.786 149.076 269.491 142.638 269.348 137.944C268.631 141.833 263.038 144.918 259.022 141.297C255.58 138.48 254.577 133.115 263.898 130.969Z" fill="#FFE86F"/>
<path d="M254.433 132.176C237.511 136.334 225.895 150.954 237.941 167.854C246.546 179.926 246.546 187.705 243.247 196.826C261.46 192.668 275.658 170.939 260.456 154.173C251.278 143.846 251.422 136.737 254.433 132.176ZM246.689 163.294C251.852 172.951 258.305 183.816 247.693 192.668C256.728 181.67 249.127 171.744 245.112 164.099C237.224 148.808 240.379 143.041 247.98 136.469C240.522 143.175 239.949 150.82 246.689 163.294Z" fill="#FFE86F"/>
</g>
</svg>
