<svg width="65" height="65" viewBox="0 0 65 65" fill="none" xmlns="http://www.w3.org/2000/svg">
<path d="M21 33.8584C20.6813 33.8584 20.4229 33.6 20.4229 33.2812C20.4229 32.9625 20.6813 32.7041 21 32.7041V33.8584ZM44.0857 32.7041C44.4044 32.7041 44.6628 32.9625 44.6628 33.2812C44.6628 33.6 44.4044 33.8584 44.0857 33.8584V32.7041ZM21 32.7041H44.0857V33.8584H21V32.7041Z" fill="white"/>
<path d="M34.3706 44.9929C34.158 45.2303 33.8132 45.2303 33.6006 44.9929C33.388 44.7554 33.388 44.3704 33.6006 44.1329L34.3706 44.9929ZM44.0856 33.2814L44.4706 32.8514C44.6832 33.0889 44.6832 33.474 44.4706 33.7114L44.0856 33.2814ZM33.6006 22.43C33.388 22.1925 33.388 21.8075 33.6006 21.57C33.8132 21.3325 34.158 21.3325 34.3706 21.57L33.6006 22.43ZM33.6006 44.1329L43.7007 32.8514L44.4706 33.7114L34.3706 44.9929L33.6006 44.1329ZM43.7007 33.7114L33.6006 22.43L34.3706 21.57L44.4706 32.8514L43.7007 33.7114Z" fill="white"/>
</svg>
