<svg  viewBox="0 0 40 21" fill="none" xmlns="http://www.w3.org/2000/svg">
<path d="M0.646692 19.8964C0.45143 20.0917 0.45143 20.4083 0.646692 20.6036C0.841953 20.7988 1.15853 20.7988 1.3538 20.6036L0.646692 19.8964ZM20.2502 0.999946L20.6037 0.646391C20.4085 0.451129 20.0919 0.451129 19.8966 0.646391L20.2502 0.999946ZM39.1466 20.6036C39.3418 20.7988 39.6584 20.7988 39.8537 20.6036C40.0489 20.4083 40.0489 20.0917 39.8537 19.8964L39.1466 20.6036ZM1.3538 20.6036L20.6037 1.3535L19.8966 0.646391L0.646692 19.8964L1.3538 20.6036ZM19.8966 1.3535L39.1466 20.6036L39.8537 19.8964L20.6037 0.646391L19.8966 1.3535Z" fill="#000000"/>
</svg>
