<svg width="48" height="178" viewBox="0 0 48 178" fill="none" xmlns="http://www.w3.org/2000/svg">
<rect x="0.000488281" width="48" height="178" fill="url(#paint0_linear)"/>
<path d="M17.0005 151.64L31.0005 151.64L31.0005 154.2L19.2005 154.2L19.2005 161.46L31.0005 161.46L31.0005 164.02L17.0005 164.02L17.0005 151.64ZM31.2005 141.212C31.2005 142.639 30.8938 143.926 30.2805 145.072C29.6538 146.219 28.7938 147.119 27.7005 147.772C26.5938 148.426 25.3605 148.752 24.0005 148.752C22.6405 148.752 21.4138 148.426 20.3205 147.772C19.2138 147.119 18.3538 146.219 17.7405 145.072C17.1138 143.926 16.8005 142.639 16.8005 141.212C16.8005 139.786 17.1138 138.499 17.7405 137.352C18.3538 136.206 19.2072 135.306 20.3005 134.652C21.3938 133.999 22.6272 133.672 24.0005 133.672C25.3738 133.672 26.6072 133.999 27.7005 134.652C28.7938 135.306 29.6538 136.206 30.2805 137.352C30.8938 138.499 31.2005 139.786 31.2005 141.212ZM28.9205 141.212C28.9205 140.279 28.7138 139.439 28.3005 138.692C27.8738 137.946 27.2872 137.359 26.5405 136.932C25.7805 136.506 24.9338 136.292 24.0005 136.292C23.0672 136.292 22.2272 136.506 21.4805 136.932C20.7205 137.359 20.1338 137.946 19.7205 138.692C19.2938 139.439 19.0805 140.279 19.0805 141.212C19.0805 142.146 19.2938 142.986 19.7205 143.732C20.1338 144.479 20.7205 145.066 21.4805 145.492C22.2272 145.919 23.0672 146.132 24.0005 146.132C24.9338 146.132 25.7805 145.919 26.5405 145.492C27.2872 145.066 27.8738 144.479 28.3005 143.732C28.7138 142.986 28.9205 142.146 28.9205 141.212ZM17.0005 130.778L17.0005 119.878L19.1405 119.878L19.1405 128.218L22.5805 128.218L22.5805 124.078C22.5805 122.398 22.9338 121.124 23.6405 120.258C24.3338 119.378 25.3405 118.938 26.6605 118.938C28.0472 118.938 29.1205 119.418 29.8805 120.378C30.6272 121.338 31.0005 122.704 31.0005 124.478L31.0005 130.778L17.0005 130.778ZM29.0005 124.618C29.0005 123.618 28.8072 122.858 28.4205 122.338C28.0338 121.818 27.4738 121.558 26.7405 121.558C25.3005 121.558 24.5805 122.578 24.5805 124.618L24.5805 128.218L29.0005 128.218L29.0005 124.618ZM28.8205 105.591L31.0005 105.591L31.0005 116.091L17.0005 116.091L17.0005 105.871L19.1805 105.871L19.1805 113.491L22.8205 113.491L22.8205 106.731L24.9605 106.731L24.9605 113.491L28.8205 113.491L28.8205 105.591ZM28.8005 88.8123L33.9805 88.8123L33.9805 91.2123L31.0005 91.2123L31.0005 101.952L33.9805 101.952L33.9805 104.372L28.8005 104.352L28.8005 103.752C28.7605 102.872 28.1138 102.259 26.8605 101.912C25.5938 101.552 23.7872 101.332 21.4405 101.252L17.0005 101.092L17.0005 90.8323L28.8005 90.8323L28.8005 88.8123ZM21.6805 98.9723C23.4938 99.039 25.0072 99.1857 26.2205 99.4123C27.4205 99.639 28.2805 99.999 28.8005 100.492L28.8005 93.3923L19.2005 93.3923L19.2005 98.8723L21.6805 98.9723ZM17.0005 86.3442L17.0005 83.7842L26.9405 83.7842L17.0005 76.2642L17.0005 73.8442L31.0005 73.8442L31.0005 76.4042L21.0805 76.4042L31.0005 83.9242L31.0005 86.3442L17.0005 86.3442ZM19.2005 59.7589L19.2005 64.3989L31.0005 64.3989L31.0005 66.9789L19.2005 66.9789L19.2005 71.5989L17.0005 71.5989L17.0005 59.7589L19.2005 59.7589ZM28.8205 47.0166L31.0005 47.0166L31.0005 57.5166L17.0005 57.5166L17.0005 47.2966L19.1805 47.2966L19.1805 54.9166L22.8205 54.9166L22.8205 48.1566L24.9605 48.1566L24.9605 54.9166L28.8205 54.9166L28.8205 47.0166ZM17.0005 32.1581L31.0005 32.1581L31.0005 34.7181L19.2005 34.7181L19.2005 40.2381L22.7005 40.3581C24.6605 40.4248 26.2538 40.5848 27.4805 40.8381C28.6938 41.0915 29.6205 41.4981 30.2605 42.0581C30.8871 42.6181 31.2005 43.3915 31.2005 44.3781C31.2005 44.7248 31.1338 45.1981 31.0005 45.7981L28.7405 45.6181C28.7938 45.4448 28.8205 45.2448 28.8205 45.0181C28.8205 44.2048 28.3405 43.6315 27.3805 43.2981C26.4071 42.9515 24.8805 42.7381 22.8005 42.6581L17.0005 42.4581L17.0005 32.1581ZM17.0005 28.1997L17.0005 25.6397L26.9405 25.6397L17.0005 18.1197L17.0005 15.6997L31.0005 15.6997L31.0005 18.2597L21.0805 18.2597L31.0005 25.7797L31.0005 28.1997L17.0005 28.1997Z" fill="white"/>
<defs>
<linearGradient id="paint0_linear" x1="24.0005" y1="0" x2="24.0005" y2="178" gradientUnits="userSpaceOnUse">
<stop stop-color="#D91B1B"/>
<stop offset="1" stop-color="#950E0E"/>
</linearGradient>
</defs>
</svg>
