<svg width="59" height="19" viewBox="0 0 59 19" fill="none" xmlns="http://www.w3.org/2000/svg">
<g clip-path="url(#clip0)">
<path d="M25.5666 18.7258H20.7872L23.7766 0.333252H28.5558L25.5666 18.7258Z" fill="#00579F"/>
<path d="M42.8924 0.783042C41.9497 0.410896 40.4544 0 38.6056 0C33.8858 0 30.5621 2.50438 30.5417 6.08489C30.5025 8.72658 32.9214 10.1938 34.7305 11.0747C36.5796 11.9747 37.2081 12.5622 37.2081 13.3645C37.1893 14.5967 35.714 15.1646 34.3379 15.1646C32.4298 15.1646 31.4073 14.8718 29.8536 14.1863L29.2242 13.8924L28.5554 18.0211C29.6764 18.5293 31.7416 18.9802 33.8858 19C38.9007 19 42.1655 16.5344 42.2042 12.7188C42.2233 10.625 40.946 9.02071 38.1924 7.70975C36.5208 6.86819 35.497 6.30074 35.497 5.43968C35.5166 4.6569 36.3629 3.85513 38.2499 3.85513C39.8037 3.81586 40.9453 4.18749 41.8101 4.55938L42.2424 4.75468L42.8924 0.783042Z" fill="#00579F"/>
<path d="M49.2446 12.2099C49.6382 11.1533 51.1528 7.06387 51.1528 7.06387C51.1329 7.10314 51.5456 5.98774 51.7816 5.303L52.1156 6.88781C52.1156 6.88781 53.0207 11.2904 53.2172 12.2099C52.4703 12.2099 50.1887 12.2099 49.2446 12.2099ZM55.1442 0.333252H51.4473C50.3073 0.333252 49.4412 0.665609 48.9493 1.85929L41.8501 18.7255H46.865C46.865 18.7255 47.6906 16.4554 47.8681 15.9665C48.4182 15.9665 53.2967 15.9665 54.0044 15.9665C54.1417 16.6122 54.5747 18.7255 54.5747 18.7255H59L55.1442 0.333252Z" fill="#00579F"/>
<path d="M16.7952 0.333252L12.1146 12.8752L11.6031 10.3315C10.7377 7.39649 8.02383 4.20763 4.99524 2.62204L9.28252 18.7063H14.3366L21.849 0.333252H16.7952Z" fill="#00579F"/>
<path d="M7.76828 0.333252H0.0786678L0 0.704878C5.99838 2.23117 9.97098 5.91024 11.6032 10.3323L9.93152 1.87931C9.65631 0.704618 8.81056 0.372001 7.76828 0.333252Z" fill="#FAA61A"/>
</g>
<defs>
<clipPath id="clip0">
<rect width="59" height="19" fill="white"/>
</clipPath>
</defs>
</svg>
