<svg width="69" height="19" viewBox="0 0 69 19" fill="none" xmlns="http://www.w3.org/2000/svg">
<path fill-rule="evenodd" clip-rule="evenodd" d="M18.5933 3.61491e-07V0.00829731C18.5848 0.00829731 15.8981 3.16503e-07 15.1817 2.49738C14.525 4.78734 12.6742 11.1096 12.623 11.2838H12.1112C12.1112 11.2838 10.2178 4.82052 9.55253 2.48908C8.83609 -0.00829666 6.14091 3.61491e-07 6.14091 3.61491e-07H0V19H6.14091V7.71616H6.39679H6.65266L10.2349 19H14.4994L18.0816 7.72445H18.5933V19H24.7342V3.61491e-07H18.5933Z" fill="#4DB45E"/>
<path fill-rule="evenodd" clip-rule="evenodd" d="M41.0248 0C41.0248 0 39.2251 0.157642 38.3808 1.99127L34.031 11.2838H33.5192V0H27.3783V19H33.178C33.178 19 35.063 18.8341 35.9073 17.0087L40.1719 7.71616H40.6836V19H46.8245V0H41.0248Z" fill="#4DB45E"/>
<path fill-rule="evenodd" clip-rule="evenodd" d="M49.5537 8.62891V19.0001H55.6946V12.9433H62.3473C65.2472 12.9433 67.7035 11.1429 68.6161 8.62891H49.5537Z" fill="#4DB45E"/>
<path fill-rule="evenodd" clip-rule="evenodd" d="M62.3474 0H48.6924C49.3747 3.61747 52.1637 6.5214 55.7715 7.46725C56.5903 7.68297 57.4517 7.79913 58.3387 7.79913H68.8636C68.9574 7.36769 69 6.92795 69 6.47162C69 2.89563 66.0234 0 62.3474 0Z" fill="url(#paint0_linear)"/>
<defs>
<linearGradient id="paint0_linear" x1="48.694" y1="3.89956" x2="69" y2="3.89956" gradientUnits="userSpaceOnUse">
<stop offset="0.3" stop-color="#00B4E6"/>
<stop offset="1" stop-color="#088CCB"/>
</linearGradient>
</defs>
</svg>
