<svg  viewBox="0 0 22 23" fill="none" xmlns="http://www.w3.org/2000/svg">
  <path fill="#ffffff" fill-rule="evenodd" clip-rule="evenodd" d="M22 11.0918C22 13.3156 22 14.8154 21.9486 15.6429C21.8458 17.6598 21.2804 19.2113 20.1495 20.2974C19.0187 21.3834 17.528 22.004 15.5234 22.1075C14.7009 22.1592 13.1589 22.1592 11 22.1592C8.78972 22.1592 7.29907 22.1592 6.47664 22.1075C4.47196 22.004 2.92991 21.4351 1.85047 20.2974C0.771028 19.2113 0.154206 17.6598 0.0514019 15.6429C0 14.8154 0 13.2639 0 11.0918C0 8.91969 0 7.36819 0.0514019 6.54072C0.154206 4.52377 0.719626 2.97227 1.85047 1.88622C2.92991 0.800163 4.47196 0.179565 6.47664 0.0761299C7.29907 0.0244141 8.84112 0.0244141 11 0.0244141C13.2103 0.0244141 14.7009 0.0244141 15.5234 0.0761299C17.528 0.179565 19.0701 0.748447 20.1495 1.88622C21.229 3.02399 21.8458 4.52377 21.9486 6.54072C21.9486 6.85423 21.956 7.26426 21.9651 7.7736V7.7737V7.77382V7.77396C21.9802 8.60891 22 9.71073 22 11.0918ZM12.0794 1.98926H10.9999H9.9205H8.42986C8.07004 1.98926 7.60743 1.98926 7.04201 2.04097C6.47659 2.04097 5.96258 2.09269 5.55136 2.19613C5.14015 2.24784 4.78034 2.35128 4.52333 2.45472C4.06071 2.66159 3.6495 2.92017 3.23829 3.2822C2.87848 3.64422 2.62147 4.05796 2.41586 4.57514C2.31306 4.83372 2.21026 5.19575 2.15885 5.60949C2.10745 6.02323 2.05605 6.48869 2.00465 7.1093C2.00465 7.42575 1.98874 7.7102 1.97463 7.96264C1.96337 8.16402 1.95325 8.34503 1.95325 8.50567V10.0055V11.0916V12.1776V13.6774C1.95325 14.0395 1.95325 14.5049 2.00465 15.0738C2.00465 15.6427 2.05605 16.1599 2.15885 16.5736C2.19527 16.7202 2.22524 16.8603 2.25333 16.9915C2.30452 17.2309 2.34948 17.441 2.41586 17.608C2.62147 18.0734 2.87848 18.4872 3.23829 18.9009C3.5981 19.2629 4.00931 19.5215 4.52333 19.7284C4.78034 19.8318 5.14015 19.9353 5.55136 19.987C5.96258 20.0387 6.42519 20.0904 7.04201 20.1421C7.65883 20.1938 8.07004 20.1938 8.42986 20.1938H9.9205H10.9999H12.0794H13.57C13.9298 20.1938 14.3924 20.1938 14.9579 20.1421C15.5233 20.1421 16.0373 20.0904 16.4485 19.987C16.8597 19.9353 17.2195 19.8318 17.4765 19.7284C17.9392 19.5215 18.3504 19.2629 18.7616 18.9009C19.1214 18.5389 19.3784 18.1251 19.584 17.608C19.6868 17.3494 19.7896 16.9874 19.841 16.5736C19.8924 16.1599 19.9438 15.6944 19.9952 15.0738C19.9952 14.7574 20.0111 14.473 20.0252 14.2205L20.0252 14.2205C20.0365 14.0191 20.0466 13.8381 20.0466 13.6774V12.1776V11.0916V10.0055V8.50567C20.0466 8.14365 20.0466 7.67819 19.9952 7.1093C19.9952 6.54041 19.9438 6.02323 19.841 5.60949C19.7896 5.19575 19.6868 4.83372 19.584 4.57514C19.3784 4.10968 19.1214 3.69594 18.7616 3.2822C18.4018 2.92017 17.9906 2.66159 17.4765 2.45472C17.2195 2.35128 16.8597 2.24784 16.4485 2.19613C16.0373 2.14441 15.5747 2.09269 14.9579 2.04097C14.6435 2.04097 14.3609 2.02498 14.11 2.01078H14.11H14.1099L14.1097 2.01077H14.1096H14.1096H14.1095C13.9094 1.99944 13.7296 1.98926 13.57 1.98926H12.0794ZM16.6033 11.0923C16.6033 9.48903 16.0379 8.14437 14.9584 7.05829C13.879 5.9205 12.5425 5.40332 10.9491 5.40332C9.35565 5.40332 8.01921 5.97222 6.93977 7.05829C5.86034 8.19608 5.29492 9.48903 5.29492 11.0923C5.29492 12.6955 5.86034 14.0402 6.93977 15.1263C8.07061 16.2124 9.35565 16.7812 10.9491 16.7812C12.5425 16.7812 13.879 16.2124 14.9584 15.1263C16.0379 13.9885 16.6033 12.6955 16.6033 11.0923ZM13.57 13.6776C14.2896 12.9536 14.6494 12.0744 14.6494 11.0918C14.6494 10.1092 14.2896 9.17825 13.57 8.45422C12.8504 7.73018 11.9766 7.36816 10.9485 7.36816C9.92053 7.36816 9.04671 7.73018 8.3271 8.45422C7.60749 9.17825 7.24768 10.0574 7.24768 11.0918C7.24768 12.1261 7.60749 13.0053 8.3271 13.6776C9.04671 14.4017 9.92053 14.7637 10.9485 14.7637C11.9766 14.7637 12.8504 14.4017 13.57 13.6776ZM18.1963 5.14453C18.1963 4.78249 18.0421 4.47217 17.7851 4.21357C17.528 3.95496 17.2196 3.7998 16.8598 3.7998C16.5 3.7998 16.1916 3.95496 15.9345 4.21357C15.6775 4.47217 15.5233 4.78249 15.5233 5.14453C15.5233 5.50657 15.6775 5.81689 15.9345 6.0755C16.1916 6.3341 16.5 6.48926 16.8598 6.48926C17.2196 6.48926 17.528 6.3341 17.7851 6.0755C18.0421 5.81689 18.1963 5.50657 18.1963 5.14453Z"/>
</svg>
