<svg xmlns="http://www.w3.org/2000/svg" viewBox="0 0 60.7 100.8">
  <path fill="#ffffff" stroke="none" stroke-miterlimit="10" d="M58.8,60.9c2-2.1,2.1-4.7,0.4-7.3c-1.5-2.3-3.9-3.3-6.6-2.6
		c-1.4,0.3-2.5,1-3.7,1.9c-11.2,7.5-26.6,7.3-37.7-0.3c-0.5-0.4-1-0.7-1.7-1c-3.1-1.5-6.1-0.7-7.8,1.8c-2.1,2.9-1.8,5.9,0.8,8.4
		c0.7,0.6,1.5,1.2,2.2,1.8c6,4.7,13,6.6,20.7,7.4c-0.5,0.5-0.8,0.9-1.4,1.5c-5.7,5.7-11.4,11.4-17.1,17.1c-1.2,1.2-2,2.5-2.1,4.2
		c-0.2,2.5,1.4,5.1,3.9,6.3c2.3,1,4.7,0.7,6.7-1.3c4.5-4.4,8.9-8.8,13.3-13.3c1-1.2,1.7-1.4,2.9-0.1c4.2,4.4,8.7,8.7,13,13.1
		c1.2,1.2,2.4,2,4.1,2.1c2.6,0.2,5.2-1.5,6.4-4c1.2-2.3,0.7-4.7-1.3-6.7C48.2,83.8,42.5,78,36.7,72.3c-0.4-0.4-0.7-0.7-1.4-1.5
		c4.3-0.5,8.6-1.4,12.5-2.8C52,66.3,55.6,64,58.8,60.9z"/>
  <path fill="#ffffff" stroke="none" stroke-miterlimit="10" d="M30.3,50.9C44.2,51,55.6,39.8,55.6,26
		C55.7,11.9,44.5,0.4,30.5,0.4C16.6,0.4,5.3,11.6,5.2,25.6C5.2,39.4,16.5,50.9,30.3,50.9z M30.5,13.4c6.8,0,12.3,5.4,12.3,12.3
		c0,6.8-5.4,12.3-12.2,12.3c-6.9,0-12.5-5.4-12.5-12.2C18.1,18.9,23.6,13.4,30.5,13.4z"/>
</svg>
