<svg xmlns="http://www.w3.org/2000/svg" viewBox="0 0 101.4 82.5">
<path fill="#ffffff" stroke="none" stroke-miterlimit="10" d="M101,9.6c-3.5,1.7-7.8,2.6-11.7,3.5c4.3-2.6,7.4-6.5,9.1-11.7
	c-3.9,2.2-8.2,3.9-13,5.2c-3.9-3.9-9.5-6.5-15.2-6.5C59,0.1,49.9,9.2,49.9,20.9c0,1.7,0,3,0.4,4.8c-16.9-0.9-32-9.1-42-21.6
	c-2.2,3-3,6.5-3,10.4c0,7.4,3.5,13.4,9.1,17.3c-3.5,0-6.5-1.3-9.1-2.6c0,0,0,0,0,0.4c0,10,6.9,18.6,16.5,20.3
	c-1.7,0.4-3.5,0.9-5.2,0.9c-1.3,0-2.6,0-3.9-0.4c2.2,7.8,10,13.9,18.6,14.3c-6.9,5.6-16,9.1-25.5,9.1c-1.7,0-3.5,0-4.8-0.4
	c9.1,5.6,19.9,9.1,31.6,9.1c37.7,0,58-31.6,58-58.9c0-0.9,0-1.7,0-2.6C94.5,17.9,97.9,14,101,9.6z"/>
</svg>
