<svg xmlns="http://www.w3.org/2000/svg" viewBox="0 0 101 58.1">
<path fill="#ffffff" stroke="none" stroke-miterlimit="10" d="M100,52.1c-0.1-0.3-0.2-0.5-0.3-0.7c-1.7-3.1-5.1-7-9.9-11.5
	l-0.1-0.1l-0.1-0.1l-0.1-0.1h-0.1c-2.2-2.1-3.6-3.5-4.2-4.3c-1.1-1.4-1.3-2.8-0.7-4.2c0.4-1.1,2-3.4,4.7-6.8
	c1.4-1.8,2.6-3.3,3.4-4.4c6-8,8.6-13.1,7.8-15.3L100,4.1c-0.2-0.3-0.7-0.6-1.6-0.9c-0.9-0.3-2-0.3-3.3-0.1l-15,0.1
	c-0.2-0.1-0.6-0.1-1,0c-0.5,0.1-0.7,0.2-0.7,0.2l-0.3,0.1l-0.2,0.2c-0.2,0.1-0.4,0.3-0.6,0.5c-0.2,0.3-0.4,0.6-0.5,0.9
	c-1.6,4.2-3.5,8.1-5.6,11.7c-1.3,2.2-2.5,4-3.5,5.6c-1.1,1.6-2,2.7-2.7,3.5c-0.7,0.7-1.4,1.3-2,1.8c-0.6,0.5-1,0.6-1.3,0.6
	c-0.3-0.1-0.6-0.1-0.9-0.2c-0.5-0.3-0.9-0.7-1.2-1.3c-0.3-0.5-0.5-1.2-0.6-2c-0.1-0.8-0.2-1.5-0.2-2.1c0-0.6,0-1.4,0-2.5
	c0-1.1,0.1-1.8,0.1-2.2c0-1.3,0-2.8,0.1-4.3s0.1-2.8,0.1-3.7c0-0.9,0.1-1.9,0.1-2.9S59.1,5.4,59,4.8c-0.1-0.6-0.3-1.1-0.5-1.7
	s-0.6-0.9-1.1-1.3c-0.5-0.3-1.1-0.5-1.8-0.7c-1.8-0.4-4.2-0.6-7-0.7C42.1,0.4,38,0.9,36.2,1.8c-0.7,0.4-1.4,0.9-2,1.6
	c-0.6,0.8-0.7,1.2-0.3,1.3c2.1,0.3,3.6,1.1,4.4,2.2l0.3,0.6c0.2,0.5,0.5,1.3,0.7,2.4c0.2,1.1,0.4,2.4,0.5,3.8c0.2,2.5,0.2,4.7,0,6.5
	c-0.2,1.8-0.3,3.2-0.5,4.2c-0.2,1-0.4,1.8-0.7,2.4c-0.3,0.6-0.5,1-0.6,1.1c-0.1,0.1-0.2,0.2-0.3,0.3c-0.5,0.2-0.9,0.3-1.4,0.3
	s-1.1-0.2-1.8-0.7c-0.7-0.5-1.4-1.1-2.2-2c-0.7-0.9-1.6-2-2.5-3.6C29,20.6,28,18.8,27,16.7l-0.8-1.5c-0.5-1-1.2-2.4-2.1-4.3
	c-0.9-1.9-1.7-3.6-2.4-5.4c-0.3-0.7-0.7-1.3-1.3-1.7l-0.3-0.2c-0.2-0.1-0.5-0.3-0.8-0.4C18.9,3.2,18.5,3,18.1,3L3.8,3.1
	c-1.5,0-2.4,0.3-3,1L0.7,4.4C0.6,4.6,0.5,4.8,0.5,5.2s0.1,0.9,0.3,1.4c2,5,4.3,9.7,6.8,14.2c2.4,4.5,4.6,8.2,6.4,11s3.6,5.4,5.5,7.9
	c1.9,2.5,3.1,4,3.7,4.7c0.6,0.7,1.1,1.2,1.4,1.6l1.3,1.3c0.8,0.8,2.1,1.8,3.7,3c1.6,1.2,3.4,2.3,5.4,3.4c2,1.1,4.3,2,6.8,2.8
	c2.6,0.7,5.1,1,7.6,0.9h6c1.2-0.1,2.1-0.5,2.8-1.1l0.2-0.3c0.1-0.2,0.3-0.5,0.4-1c0.1-0.4,0.2-0.9,0.2-1.4c0-1.5,0.1-2.8,0.3-4
	c0.3-1.2,0.5-2.1,0.9-2.7c0.3-0.6,0.7-1.1,1.1-1.5c0.4-0.4,0.7-0.7,0.9-0.7c0.2-0.1,0.3-0.1,0.4-0.2c0.8-0.3,1.8,0,2.9,0.8
	c1.1,0.8,2.2,1.8,3.2,3c1,1.2,2.2,2.5,3.6,4c1.4,1.5,2.6,2.6,3.6,3.3l1,0.6c0.7,0.4,1.6,0.8,2.7,1.1c1.1,0.3,2.1,0.4,2.9,0.3
	l13.3-0.2c1.3,0,2.4-0.2,3.1-0.7c0.7-0.4,1.2-0.9,1.3-1.4c0.1-0.5,0.1-1.1,0-1.8C100.2,52.8,100.1,52.3,100,52.1z"/>
</svg>
