<svg xmlns="http://www.w3.org/2000/svg" viewBox="0 0 101 69.8">
<path fill="#ffffff" stroke="none" stroke-miterlimit="10" d="M96.2,7.1c-2.7-4.8-5.7-5.7-11.6-6.1c-6-0.4-21-0.6-34.1-0.6
	c-13.1,0-28.1,0.2-34.1,0.6c-6,0.4-8.9,1.2-11.7,6.1c-2.8,4.8-4.2,13.1-4.2,27.7c0,0,0,0,0,0c0,0,0,0,0,0v0
	c0,14.6,1.4,22.9,4.2,27.7c2.7,4.8,5.7,5.7,11.7,6.1c6,0.4,21.1,0.5,34.1,0.5c13,0,28.1-0.2,34.1-0.5c6-0.4,8.9-1.3,11.6-6.1
	c2.8-4.8,4.2-13.1,4.2-27.7c0,0,0,0,0,0v0C100.5,20.2,99.1,11.9,96.2,7.1z M38,53.6V16.1l31.3,18.8L38,53.6z"/>
</svg>
