<svg width="185" height="21" viewBox="0 0 185 21" fill="none" xmlns="http://www.w3.org/2000/svg">
<path fill-rule="evenodd" clip-rule="evenodd" d="M134.593 3.61491e-07V0.00829731C134.585 0.00829731 131.898 3.16503e-07 131.182 2.49738C130.525 4.78734 128.674 11.1096 128.623 11.2838H128.111C128.111 11.2838 126.218 4.82052 125.553 2.48908C124.836 -0.00829666 122.141 3.61491e-07 122.141 3.61491e-07H116V19H122.141V7.71616H122.397H122.653L126.235 19H130.499L134.082 7.72445H134.593V19H140.734V3.61491e-07H134.593Z" fill="#4DB45E"/>
<path fill-rule="evenodd" clip-rule="evenodd" d="M157.025 0C157.025 0 155.225 0.157642 154.381 1.99127L150.031 11.2838H149.519V0H143.378V19H149.178C149.178 19 151.063 18.8341 151.907 17.0087L156.172 7.71616H156.684V19H162.825V0H157.025Z" fill="#4DB45E"/>
<path fill-rule="evenodd" clip-rule="evenodd" d="M165.554 8.62891V19.0001H171.695V12.9433H178.347C181.247 12.9433 183.704 11.1429 184.616 8.62891H165.554Z" fill="#4DB45E"/>
<path fill-rule="evenodd" clip-rule="evenodd" d="M178.347 0H164.692C165.375 3.61747 168.164 6.5214 171.771 7.46725C172.59 7.68297 173.452 7.79913 174.339 7.79913H184.864C184.957 7.36769 185 6.92795 185 6.47162C185 2.89563 182.023 0 178.347 0Z" fill="url(#paint0_linear)"/>
<path d="M92.1044 2.2373H82.6945V18.6885H92.1044V2.2373Z" fill="#FF5F00"/>
<path d="M83.2919 10.4648C83.2901 8.88022 83.659 7.316 84.3707 5.89062C85.0823 4.46524 86.118 3.21607 87.3994 2.2377C85.8129 1.02477 83.9076 0.270513 81.9013 0.0611472C79.895 -0.148219 77.8686 0.19575 76.0537 1.05374C74.2388 1.91173 72.7087 3.24913 71.6382 4.91308C70.5677 6.57703 70 8.50041 70 10.4634C70 12.4264 70.5677 14.3497 71.6382 16.0137C72.7087 17.6776 74.2388 19.015 76.0537 19.873C77.8686 20.731 79.895 21.075 81.9013 20.8656C83.9076 20.6562 85.8129 19.902 87.3994 18.6891C86.1184 17.711 85.083 16.4623 84.3713 15.0374C83.6597 13.6126 83.2906 12.049 83.2919 10.4648Z" fill="#EB001B"/>
<path d="M104.8 10.4643C104.8 12.4274 104.232 14.3509 103.162 16.0148C102.091 17.6788 100.561 19.0162 98.7456 19.874C96.9306 20.7319 94.904 21.0756 92.8975 20.8659C90.8911 20.6563 88.9858 19.9017 87.3994 18.6884C88.6799 17.7095 89.715 16.4605 90.4268 15.0356C91.1387 13.6107 91.5085 12.0471 91.5085 10.4629C91.5085 8.87866 91.1387 7.31511 90.4268 5.89022C89.715 4.46533 88.6799 3.21631 87.3994 2.2374C88.9858 1.02411 90.8911 0.269506 92.8975 0.0598442C94.904 -0.149818 96.9306 0.193922 98.7456 1.05177C100.561 1.90962 102.091 3.24697 103.162 4.91094C104.232 6.57491 104.8 8.49836 104.8 10.4614V10.4643Z" fill="#F79E1B"/>
<path d="M103.773 16.9448V16.6074H103.913V16.5376H103.558V16.6074H103.71V16.9448H103.773ZM104.463 16.9448V16.5376H104.355L104.23 16.8285L104.104 16.5376H104.009V16.9448H104.086V16.6394L104.203 16.9041H104.284L104.4 16.6394V16.9478L104.463 16.9448Z" fill="#F79E1B"/>
<g clip-path="url(#clip0)">
<path d="M24.5666 18.7258H19.7872L22.7766 0.333252H27.5558L24.5666 18.7258Z" fill="#00579F"/>
<path d="M41.8924 0.78292C40.9497 0.410774 39.4544 -0.00012207 37.6056 -0.00012207C32.8858 -0.00012207 29.5621 2.50426 29.5417 6.08477C29.5025 8.72646 31.9214 10.1937 33.7305 11.0745C35.5796 11.9746 36.2081 12.5621 36.2081 13.3644C36.1893 14.5965 34.714 15.1645 33.3379 15.1645C31.4298 15.1645 30.4073 14.8717 28.8536 14.1862L28.2242 13.8923L27.5554 18.021C28.6764 18.5292 30.7416 18.9801 32.8858 18.9999C37.9007 18.9999 41.1655 16.5343 41.2042 12.7186C41.2233 10.6249 39.946 9.02059 37.1924 7.70963C35.5208 6.86807 34.497 6.30062 34.497 5.43956C34.5166 4.65678 35.3629 3.85501 37.2499 3.85501C38.8037 3.81574 39.9453 4.18737 40.8101 4.55926L41.2424 4.75456L41.8924 0.78292Z" fill="#00579F"/>
<path d="M48.2446 12.2099C48.6382 11.1533 50.1528 7.06387 50.1528 7.06387C50.1329 7.10314 50.5456 5.98774 50.7816 5.303L51.1156 6.88781C51.1156 6.88781 52.0207 11.2904 52.2172 12.2099C51.4703 12.2099 49.1887 12.2099 48.2446 12.2099ZM54.1442 0.333252H50.4473C49.3073 0.333252 48.4412 0.665609 47.9493 1.85929L40.8501 18.7255H45.865C45.865 18.7255 46.6906 16.4554 46.8681 15.9665C47.4182 15.9665 52.2967 15.9665 53.0044 15.9665C53.1417 16.6122 53.5747 18.7255 53.5747 18.7255H58L54.1442 0.333252Z" fill="#00579F"/>
<path d="M15.7952 0.333252L11.1146 12.8752L10.6031 10.3315C9.73775 7.39649 7.02383 4.20763 3.99524 2.62204L8.28252 18.7063H13.3366L20.849 0.333252H15.7952Z" fill="#00579F"/>
<path d="M6.76828 0.333252H-0.921332L-1 0.704878C4.99838 2.23117 8.97098 5.91024 10.6032 10.3323L8.93152 1.87931C8.65631 0.704618 7.81056 0.372001 6.76828 0.333252Z" fill="#FAA61A"/>
</g>
<defs>
<linearGradient id="paint0_linear" x1="164.694" y1="3.89956" x2="185" y2="3.89956" gradientUnits="userSpaceOnUse">
<stop offset="0.3" stop-color="#00B4E6"/>
<stop offset="1" stop-color="#088CCB"/>
</linearGradient>
<clipPath id="clip0">
<rect width="59" height="19" fill="white"/>
</clipPath>
</defs>
</svg>
