<svg width="39" height="36" viewBox="0 0 39 36" fill="none" xmlns="http://www.w3.org/2000/svg">
<path d="M39 0H0V36H39V0Z" fill="#00AA00"/>
<path d="M22.7519 21.3134C22.7519 22.7687 21.5508 23.9552 20.0778 23.9552C18.6049 23.9552 17.4038 22.7687 17.4038 21.3134C17.4038 19.8582 18.6049 18.6716 20.0778 18.6716C21.5508 18.6492 22.7519 19.8358 22.7519 21.3134Z" fill="#00AA00"/>
<path d="M18.6729 19.9925C18.6729 19.7239 18.8995 19.5 19.1715 19.5C19.4434 19.5 19.67 19.7239 19.67 19.9925C19.67 20.2612 19.4434 20.4851 19.1715 20.4851C18.8995 20.4851 18.6729 20.2612 18.6729 19.9925ZM27.1482 19.1866H25.8566V17.5746H27.1709C27.5788 17.5746 27.9414 17.9328 27.9414 18.3582C27.9414 18.8508 27.5561 19.1866 27.1482 19.1866ZM27.3749 22.3433H25.8566V20.6642H27.3749C27.8734 20.6642 28.2586 21.0224 28.2586 21.4925C28.2586 22.0075 27.8961 22.3433 27.3749 22.3433ZM27.6921 23.9328C29.3011 23.9328 30.2755 23.0149 30.2755 21.5821C30.2755 20.7314 29.8449 20.0373 29.0518 19.7015C29.6636 19.2985 29.7996 18.7164 29.7996 18.1119C29.7996 16.7239 28.7345 16.0299 27.2389 16.0299H22.684V17.5746H23.9983V22.3433H22.684V23.9328H27.6921ZM17.4719 16.0075H14.4126V19.1642H12.5771V16.0075H9.54046V17.5522H10.8548V22.3209H9.54046V23.9105H12.5771V20.6642H14.4126V23.9328H17.4492V22.3433H16.1802V17.5746H17.4492V16.0075H17.4719ZM31.0007 19.6567C31.5898 20.0821 32.0204 20.8209 32.0204 21.6717C32.0204 22.9702 31.6125 23.7537 30.8873 24.4702C30.1622 25.1866 28.9611 25.6343 27.5335 25.6343H21.007V23.7761C22.0268 23.3955 22.752 22.4328 22.752 21.2911C22.752 20.1493 22.0268 19.1866 21.007 18.806V12.9179H22.684V14.3955H24.3382V11.5746H15.795V14.3955H17.4492V12.9179H19.1262V18.806C18.1064 19.1866 17.3812 20.1493 17.3812 21.2911C17.3812 22.4328 18.1064 23.3955 19.1262 23.7761V25.6343H7.86353V20.6642H9.20054V19.1866H7.86353V14.306H14.0727V9.94031H26.1058V14.306H26.9443C28.1907 14.306 29.3917 14.597 30.1622 15.1567C31.0007 15.7612 31.5219 16.6567 31.5219 17.8881C31.5445 18.4254 31.4312 19.1866 31.0007 19.6567Z" fill="white"/>
</svg>
