<svg width="38" height="50" viewBox="0 0 38 50" fill="none" xmlns="http://www.w3.org/2000/svg">
<path d="M27.9518 8.53498L24.8309 10.1386C24.4917 10.2722 24.1524 10.2054 23.9489 9.87133L20.3531 2.98916C20.2174 2.65507 20.2853 2.32099 20.6245 2.12053L23.7454 0.516921C24.0846 0.383287 24.4238 0.450104 24.6274 0.78419L28.2231 7.66636C28.3588 8.00045 28.2231 8.40135 27.9518 8.53498Z" fill="black"/>
<path d="M37.6536 31.7875C37.2466 41.4093 29.2409 49.2271 19.4713 49.4944C18.725 49.4944 17.9787 49.4944 17.2324 49.4276C17.0967 49.4276 17.0288 49.2271 17.0967 49.1603L19.7426 44.5498C20.1497 43.8816 20.4211 43.2134 20.4889 42.4116L21.0317 38.4025C21.0995 37.6007 21.5066 36.7989 22.2529 36.5316L23.5419 36.1975C24.2882 35.9302 24.8988 36.1975 25.2381 36.8657C25.5094 37.3334 26.1879 38.6698 26.4593 39.2043C26.6628 39.5384 26.5949 39.9393 26.3914 40.1398C25.4416 41.2089 24.831 41.8771 24.0168 42.8125C23.4741 43.4139 22.9992 44.3494 23.949 45.1512C24.831 45.953 25.713 45.0844 26.2557 44.5498C26.9342 43.8816 28.0197 42.6121 28.6981 41.8102C29.3087 41.1421 29.648 40.6743 29.7158 39.8057C29.7158 39.4716 29.7158 39.1375 29.5801 38.7366C29.3087 37.9348 27.3412 33.2575 25.9165 29.5824C24.6953 26.3752 24.0847 23.101 24.4918 19.6933L25.1702 13.546C25.1702 13.4792 25.2381 13.4124 25.3737 13.4124C32.7688 16.2187 37.9929 23.4351 37.6536 31.7875Z" fill="black"/>
<path fill-rule="evenodd" clip-rule="evenodd" d="M17.3004 41.0755C17.2326 41.8105 16.9612 42.8128 16.622 43.481L14.0439 48.6928C14.0439 48.8264 13.9082 48.8264 13.7725 48.8264C5.83466 46.6882 0 39.4719 0 30.986C0 20.7629 8.4806 12.4106 18.9287 12.4774C20.0821 12.4774 21.1676 12.5443 22.2531 12.7447C22.3209 12.7447 22.3888 12.8115 22.3888 12.8784C22.2821 13.7539 22.0263 15.6756 21.7875 17.4699C21.5707 19.0991 21.3678 20.6232 21.3033 21.1638C21.0605 22.8971 20.1121 23.4007 19.1377 23.9181C19.0228 23.9791 18.9075 24.0403 18.793 24.1038C18.7611 24.1202 18.7293 24.1365 18.6978 24.1528C17.1876 24.9296 16.0998 25.4892 13.8403 24.6383C12.2005 24.0289 10.9135 23.5306 9.799 23.0992C8.46962 22.5845 7.38579 22.165 6.24172 21.7651C5.56328 21.4979 4.61345 21.7651 4.34207 22.5001C4.07069 23.2351 4.34207 23.9701 5.08836 24.2374C5.08836 24.2374 8.88767 25.6406 10.4481 26.3088C11.0288 26.5687 11.5684 26.7908 12.0685 26.9965C14.139 27.8484 15.5309 28.4211 16.3506 30.251C16.8255 31.3869 17.7753 33.7924 17.7753 34.8615C17.7075 36.3983 17.3004 41.0755 17.3004 41.0755ZM15.3332 15.4841C13.3657 15.6846 11.8731 17.4219 12.0766 19.3596C12.2802 21.2973 14.0441 22.7005 16.0116 22.5669C17.9791 22.3664 19.4717 20.6291 19.2682 18.6914C19.0646 16.7537 17.3007 15.2837 15.3332 15.4841Z" fill="black"/>
</svg>
