<svg width="158" height="132" viewBox="0 0 158 132" fill="none" xmlns="http://www.w3.org/2000/svg">
<path d="M13.4747 1H144.788C151.682 1 157.262 6.58081 157.262 13.4747V118.525C157.262 125.419 151.682 131 144.788 131H13.4747C6.5808 131 1 125.419 1 118.525V13.4747C1 6.58081 6.5808 1 13.4747 1Z" fill="white" stroke="#FFCD17" stroke-width="0.956197"/>
<path d="M15.7723 108.677H15.05V106.116H12.2268V108.677H11.5046V103.096H12.2268V105.525H15.05V103.096H15.7723V108.677ZM16.9541 106.575C16.9541 106.182 17.0197 105.788 17.2167 105.459C17.348 105.131 17.6106 104.868 17.8733 104.737C18.2015 104.54 18.5298 104.474 18.8581 104.474C19.449 104.474 19.9086 104.671 20.2369 105.065C20.5652 105.459 20.7621 105.985 20.7621 106.641V106.707C20.7621 107.101 20.6965 107.495 20.4995 107.823C20.3682 108.151 20.1056 108.414 19.843 108.545C19.5803 108.742 19.2521 108.808 18.8581 108.808C18.2672 108.808 17.8076 108.611 17.4793 108.217C17.151 107.757 16.9541 107.232 16.9541 106.575ZM17.6763 106.641C17.6763 107.101 17.8076 107.495 18.0046 107.757C18.2015 108.02 18.5298 108.151 18.8581 108.151C19.1864 108.151 19.5147 108.02 19.7116 107.757C19.9086 107.495 20.0399 107.101 20.0399 106.575C20.0399 106.116 19.9086 105.722 19.7116 105.459C19.5147 105.197 19.1864 105 18.8581 105.065C18.5298 105.065 18.2015 105.197 18.0046 105.459C17.8076 105.722 17.6763 106.116 17.6763 106.641ZM24.1763 107.757L25.6207 104.54H26.5399V108.677H25.8177V105.656L24.4389 108.677H23.9137L22.5349 105.591V108.677H21.8127V104.54H22.7318L24.1763 107.757ZM29.4945 108.742C28.9036 108.742 28.444 108.545 28.1157 108.217C27.7874 107.823 27.5904 107.363 27.5904 106.707V106.575C27.5904 106.182 27.6561 105.788 27.8531 105.459C27.9844 105.131 28.247 104.868 28.5096 104.671C28.7722 104.474 29.1005 104.409 29.4288 104.409C29.9541 104.409 30.4137 104.606 30.6763 104.934C30.9389 105.262 31.1359 105.788 31.1359 106.444V106.772H28.3126C28.3126 107.166 28.444 107.495 28.6409 107.757C28.9036 108.02 29.1662 108.151 29.4945 108.151C29.7571 108.151 29.9541 108.086 30.151 108.02C30.348 107.889 30.4793 107.757 30.6106 107.626L31.0702 107.954C30.6763 108.48 30.151 108.742 29.4945 108.742ZM29.3631 105C29.1005 105 28.8379 105.131 28.6409 105.328C28.444 105.525 28.3126 105.853 28.247 106.182H30.348V106.116C30.348 105.722 30.2167 105.459 30.0854 105.262C29.8884 105.131 29.6914 105 29.3631 105ZM35.5349 106.641C35.5349 107.298 35.4035 107.757 35.0753 108.151C34.8126 108.545 34.4187 108.742 33.8934 108.742C33.3682 108.742 32.9743 108.611 32.7116 108.283V110.318H31.9894V104.54H32.646L32.7116 105C32.9743 104.671 33.4338 104.474 33.8934 104.474C34.4187 104.474 34.8126 104.671 35.0753 105.065C35.4035 105.394 35.5349 105.919 35.5349 106.641ZM34.8783 106.575C34.8783 106.116 34.747 105.722 34.55 105.459C34.353 105.197 34.0904 105.065 33.6965 105.065C33.2369 105.065 32.9743 105.262 32.7116 105.656V107.626C32.9086 108.02 33.2369 108.217 33.6965 108.217C34.0248 108.217 34.2874 108.086 34.4844 107.823C34.747 107.495 34.8783 107.101 34.8783 106.575ZM40.5247 104.737C41.05 104.737 41.4439 104.934 41.7722 105.262C42.1005 105.591 42.2318 106.05 42.2318 106.641V106.707C42.2318 107.101 42.1662 107.429 42.0348 107.757C41.9035 108.086 41.6409 108.283 41.3783 108.48C41.1157 108.677 40.7874 108.742 40.3934 108.742C39.8025 108.742 39.4086 108.545 39.0147 108.217C38.6864 107.823 38.4894 107.363 38.4894 106.707V106.378C38.4894 105.525 38.6207 104.803 38.949 104.277C39.2773 103.752 39.7369 103.424 40.3934 103.358C40.7217 103.293 40.9843 103.227 41.1157 103.096C41.247 103.03 41.3126 102.833 41.3126 102.702H41.9035C41.9035 103.03 41.8379 103.293 41.7066 103.424C41.5753 103.621 41.3126 103.752 40.9843 103.818L40.4591 103.949C40.0652 104.08 39.7369 104.212 39.4742 104.474C39.2773 104.737 39.146 105 39.0803 105.394C39.5399 105 39.9995 104.737 40.5247 104.737ZM40.3934 105.328C40.0652 105.328 39.7369 105.459 39.5399 105.656C39.3429 105.919 39.2116 106.247 39.2116 106.641V106.707C39.2116 107.166 39.3429 107.495 39.5399 107.757C39.7369 108.02 39.9995 108.151 40.3934 108.151C40.7217 108.151 41.05 108.02 41.247 107.757C41.4439 107.495 41.5753 107.101 41.5753 106.641C41.5753 106.247 41.4439 105.919 41.247 105.722C40.9843 105.459 40.7217 105.328 40.3934 105.328ZM45.7773 104.54H46.4995V108.677H45.7773V105.656L43.8732 108.677H43.151V104.54H43.8732V107.56L45.7773 104.54ZM51.2268 104.54V108.677H50.5045V105.131H49.0601L48.9944 106.707C48.9288 107.429 48.7975 107.954 48.6005 108.217C48.4035 108.545 48.0752 108.677 47.6813 108.677H47.4187V108.02H47.6157C47.8783 108.02 48.0096 107.889 48.1409 107.626C48.2722 107.363 48.2722 106.969 48.3379 106.313L48.4035 104.54H51.2268ZM54.1813 108.742C53.5904 108.742 53.1308 108.545 52.8025 108.217C52.4742 107.823 52.2773 107.363 52.2773 106.707V106.575C52.2773 106.182 52.3429 105.788 52.5399 105.459C52.6712 105.131 52.9338 104.868 53.1964 104.671C53.4591 104.474 53.7874 104.409 54.1156 104.409C54.6409 104.409 55.1005 104.606 55.3631 104.934C55.6257 105.262 55.8227 105.788 55.8227 106.444V106.772H52.9995C52.9995 107.166 53.1308 107.495 53.3278 107.757C53.5904 108.02 53.853 108.151 54.1813 108.151C54.4439 108.151 54.6409 108.086 54.8379 108.02C55.0348 107.889 55.1661 107.757 55.2975 107.626L55.757 107.954C55.4288 108.48 54.9035 108.742 54.1813 108.742ZM54.1156 105C53.853 105 53.5904 105.131 53.3934 105.328C53.1965 105.525 53.0651 105.853 52.9995 106.182H55.1005V106.116C55.1005 105.722 54.9692 105.459 54.8379 105.262C54.6409 105.131 54.3783 105 54.1156 105ZM59.8278 105.065H58.449V108.677H57.7267V105.065H56.348V104.474H59.8278V105.065ZM63.1762 108.677C63.1106 108.611 63.1106 108.48 63.0449 108.217C62.7166 108.545 62.3227 108.742 61.8631 108.742C61.4692 108.742 61.1409 108.611 60.8783 108.414C60.6156 108.217 60.4843 107.889 60.4843 107.56C60.4843 107.101 60.6156 106.772 61.0096 106.575C61.3379 106.313 61.7975 106.182 62.3884 106.182H63.1106V105.853C63.1106 105.591 63.0449 105.394 62.9136 105.262C62.7823 105.131 62.5197 105.065 62.257 105.065C61.9944 105.065 61.7975 105.131 61.6005 105.262C61.4035 105.394 61.3379 105.525 61.3379 105.722H60.6156C60.6156 105.525 60.6813 105.328 60.8126 105.131C60.9439 104.934 61.2065 104.803 61.4035 104.671C61.6661 104.54 61.9288 104.474 62.257 104.474C62.7166 104.474 63.1106 104.606 63.3732 104.868C63.6358 105.131 63.7671 105.459 63.7671 105.853V107.757C63.7671 108.151 63.8328 108.414 63.8985 108.677V108.742H63.1762V108.677ZM61.9944 108.151C62.1914 108.151 62.454 108.086 62.651 107.954C62.8479 107.823 62.9793 107.692 63.1106 107.495V106.641H62.5853C61.7318 106.641 61.2722 106.904 61.2722 107.429C61.2722 107.626 61.3378 107.823 61.4692 107.954C61.5348 108.086 61.7318 108.151 61.9944 108.151ZM14.0652 116.687C13.9339 116.884 13.7369 117.015 13.5399 117.081C13.343 117.212 13.0803 117.212 12.8834 117.212C12.5551 117.212 12.2925 117.146 12.0298 116.949C11.7672 116.752 11.5702 116.555 11.5046 116.293C11.3733 115.965 11.3076 115.636 11.3076 115.308C11.3076 114.914 11.3733 114.586 11.5046 114.323C11.6359 113.995 11.8329 113.798 12.0955 113.666C12.3581 113.535 12.6864 113.404 13.0147 113.404C13.5399 113.404 13.9995 113.601 14.3278 113.995C14.6561 114.389 14.7874 114.98 14.7874 115.702V115.899C14.7874 117.015 14.5904 117.803 14.1308 118.263C13.6712 118.788 13.0803 119.05 12.1612 119.05H12.0298V118.459H12.1612C12.7521 118.459 13.2117 118.328 13.5399 118C13.8682 117.803 13.9995 117.343 14.0652 116.687ZM12.949 116.687C13.2117 116.687 13.4086 116.621 13.6056 116.49C13.8026 116.358 13.9339 116.161 14.0652 115.965V115.702C14.0652 115.242 13.9339 114.848 13.7369 114.586C13.5399 114.323 13.2773 114.126 12.949 114.126C12.6864 114.126 12.3581 114.257 12.2268 114.52C12.0298 114.783 11.9642 115.045 11.9642 115.439C11.9642 115.833 12.0298 116.161 12.2268 116.358C12.3581 116.621 12.6207 116.752 12.949 116.687ZM18.5955 116.687C18.4642 116.884 18.2672 117.015 18.0702 117.081C17.8733 117.212 17.6106 117.212 17.4137 117.212C17.0854 117.212 16.8228 117.146 16.5601 116.949C16.2975 116.752 16.1005 116.555 16.0349 116.293C15.9036 115.965 15.8379 115.636 15.8379 115.308C15.8379 114.914 15.9036 114.586 16.0349 114.323C16.1662 113.995 16.3632 113.798 16.6258 113.666C16.8884 113.535 17.2167 113.404 17.545 113.404C18.0702 113.404 18.5298 113.601 18.8581 113.995C19.1864 114.389 19.3177 114.98 19.3177 115.702V115.899C19.3177 117.015 19.1207 117.803 18.6611 118.263C18.2015 118.788 17.6106 119.05 16.6914 119.05H16.5601V118.459H16.7571C17.348 118.459 17.8076 118.328 18.1359 118C18.3985 117.803 18.5955 117.343 18.5955 116.687ZM17.4793 116.687C17.742 116.687 17.9389 116.621 18.1359 116.49C18.3329 116.358 18.4642 116.161 18.5955 115.965V115.702C18.5955 115.242 18.4642 114.848 18.2672 114.586C18.0702 114.323 17.8076 114.126 17.4793 114.126C17.151 114.126 16.8884 114.257 16.7571 114.52C16.5601 114.783 16.4945 115.045 16.4945 115.439C16.4945 115.833 16.5601 116.161 16.7571 116.358C16.9541 116.621 17.2167 116.687 17.4793 116.687ZM23.1258 116.687C22.9945 116.884 22.7975 117.015 22.6005 117.081C22.4036 117.212 22.1409 117.212 21.944 117.212C21.6157 117.212 21.3531 117.146 21.0904 116.949C20.8278 116.752 20.6308 116.555 20.5652 116.293C20.4339 115.965 20.3682 115.636 20.3682 115.308C20.3682 114.914 20.4339 114.586 20.5652 114.323C20.6965 113.995 20.8935 113.798 21.1561 113.666C21.4187 113.535 21.747 113.404 22.0753 113.404C22.6005 113.404 23.0601 113.601 23.3884 113.995C23.7167 114.389 23.848 114.98 23.848 115.702V115.899C23.848 117.015 23.651 117.803 23.1914 118.263C22.7318 118.788 22.1409 119.05 21.2217 119.05H21.0904V118.459H21.2217C21.8127 118.459 22.2722 118.328 22.6005 118C22.9288 117.803 23.1258 117.343 23.1258 116.687ZM22.0753 116.687C22.3379 116.687 22.5349 116.621 22.7318 116.49C22.9288 116.358 23.0601 116.161 23.1914 115.965V115.702C23.1914 115.242 23.0601 114.848 22.8632 114.586C22.6662 114.323 22.4036 114.126 22.0753 114.126C21.747 114.126 21.4844 114.257 21.3531 114.52C21.1561 114.783 21.0904 115.045 21.0904 115.439C21.0904 115.833 21.1561 116.161 21.3531 116.358C21.4844 116.621 21.747 116.687 22.0753 116.687ZM27.7217 116.687C27.5904 116.884 27.3935 117.015 27.1965 117.081C26.9995 117.212 26.7369 117.278 26.5399 117.212C26.2116 117.212 25.949 117.146 25.6864 116.949C25.4238 116.752 25.2268 116.555 25.1611 116.293C25.0298 115.965 24.9642 115.636 24.9642 115.308C24.9642 114.914 25.0298 114.586 25.1611 114.323C25.2924 113.995 25.4894 113.798 25.752 113.666C26.0147 113.535 26.3429 113.404 26.6712 113.404C27.1965 113.404 27.6561 113.601 27.9844 113.995C28.3126 114.389 28.444 114.98 28.444 115.702V115.899C28.444 117.015 28.247 117.803 27.7874 118.263C27.3278 118.788 26.7369 119.05 25.8177 119.05H25.6864V118.459H25.8177C26.4086 118.459 26.8682 118.328 27.1965 118C27.5248 117.803 27.6561 117.343 27.7217 116.687ZM26.6056 116.687C26.8682 116.687 27.0652 116.621 27.2621 116.49C27.4591 116.358 27.5904 116.161 27.7217 115.965V115.702C27.7217 115.242 27.5904 114.848 27.3935 114.586C27.1965 114.323 26.9339 114.126 26.6056 114.126C26.2773 114.126 26.0147 114.257 25.8834 114.52C25.6864 114.783 25.6207 115.045 25.6207 115.439C25.6207 115.833 25.6864 116.161 25.8834 116.358C26.0803 116.621 26.2773 116.687 26.6056 116.687ZM34.353 116.687C34.2217 116.884 34.0248 117.015 33.8278 117.081C33.6308 117.212 33.3682 117.212 33.1712 117.212C32.8429 117.212 32.5803 117.146 32.3177 116.949C32.0551 116.752 31.8581 116.555 31.7924 116.293C31.6611 115.965 31.5955 115.636 31.5955 115.308C31.5955 114.914 31.6611 114.586 31.7924 114.323C31.9238 113.995 32.1207 113.798 32.3833 113.666C32.646 113.535 32.9743 113.404 33.3025 113.404C33.8278 113.404 34.2874 113.601 34.6157 113.995C34.9439 114.389 35.0753 114.98 35.0753 115.702V115.899C35.0753 117.015 34.8783 117.803 34.4187 118.263C33.9591 118.788 33.3682 119.05 32.449 119.05H32.3177V118.459H32.449C33.0399 118.459 33.4995 118.328 33.8278 118C34.1561 117.803 34.2874 117.343 34.353 116.687ZM33.2369 116.687C33.4995 116.687 33.6965 116.621 33.8934 116.49C34.0904 116.358 34.2217 116.161 34.353 115.965V115.702C34.353 115.242 34.2217 114.848 34.0248 114.586C33.8278 114.323 33.5652 114.126 33.2369 114.126C32.9086 114.126 32.646 114.257 32.5147 114.52C32.3177 114.783 32.252 115.045 32.252 115.439C32.252 115.833 32.3177 116.161 32.5147 116.358C32.7116 116.621 32.9743 116.687 33.2369 116.687ZM38.8833 116.687C38.752 116.884 38.5551 117.015 38.3581 117.081C38.1611 117.212 37.8985 117.278 37.7015 117.212C37.3732 117.212 37.1106 117.146 36.848 116.949C36.5854 116.752 36.3884 116.555 36.3227 116.293C36.1914 115.965 36.1258 115.636 36.1258 115.308C36.1258 114.914 36.1914 114.586 36.3227 114.323C36.454 113.995 36.651 113.798 36.9136 113.666C37.1763 113.535 37.5046 113.404 37.8328 113.404C38.3581 113.404 38.8177 113.601 39.146 113.995C39.4742 114.389 39.6056 114.98 39.6056 115.702V115.899C39.6056 117.015 39.4086 117.803 38.949 118.263C38.4894 118.788 37.8985 119.05 36.9793 119.05H36.848V118.459H36.9793C37.5702 118.459 38.0298 118.328 38.3581 118C38.6864 117.803 38.8833 117.343 38.8833 116.687ZM37.8328 116.687C38.0955 116.687 38.2924 116.621 38.4894 116.49C38.6864 116.358 38.8177 116.161 38.949 115.965V115.702C38.949 115.242 38.8177 114.848 38.6207 114.586C38.4237 114.323 38.1611 114.126 37.8328 114.126C37.5702 114.126 37.2419 114.257 37.1106 114.52C36.9136 114.783 36.848 115.045 36.848 115.439C36.848 115.833 36.9136 116.161 37.1106 116.358C37.2419 116.621 37.5046 116.752 37.8328 116.687ZM43.4793 116.687C43.348 116.884 43.151 117.015 42.954 117.081C42.7571 117.212 42.4944 117.212 42.2975 117.212C41.9692 117.212 41.7066 117.146 41.4439 116.949C41.1813 116.752 40.9843 116.555 40.9187 116.293C40.7874 115.965 40.7217 115.636 40.7217 115.308C40.7217 114.914 40.7874 114.586 40.9187 114.323C41.05 113.995 41.247 113.798 41.5096 113.666C41.7722 113.535 42.1005 113.404 42.4288 113.404C42.954 113.404 43.4136 113.601 43.7419 113.995C44.0702 114.389 44.2015 114.98 44.2015 115.702V115.899C44.2015 117.015 44.0045 117.803 43.5449 118.263C43.0854 118.788 42.4944 119.05 41.5753 119.05H41.4439V118.459H41.5753C42.1662 118.459 42.6258 118.328 42.954 118C43.2823 117.803 43.4136 117.343 43.4793 116.687ZM42.3631 116.687C42.6258 116.687 42.8227 116.621 43.0197 116.49C43.2167 116.358 43.348 116.161 43.4793 115.965V115.702C43.4793 115.242 43.348 114.848 43.151 114.586C42.954 114.323 42.6914 114.126 42.3631 114.126C42.0348 114.126 41.7722 114.257 41.6409 114.52C41.4439 114.783 41.3783 115.045 41.3783 115.439C41.3783 115.833 41.4439 116.161 41.6409 116.358C41.8379 116.621 42.0348 116.687 42.3631 116.687ZM48.0096 116.687C47.8783 116.884 47.6813 117.015 47.4843 117.081C47.2874 117.212 47.0247 117.212 46.8278 117.212C46.4995 117.212 46.2369 117.146 45.9742 116.949C45.7116 116.752 45.5146 116.555 45.449 116.293C45.3177 115.965 45.252 115.636 45.252 115.308C45.252 114.914 45.3177 114.586 45.449 114.323C45.5803 113.995 45.7773 113.798 46.0399 113.666C46.3025 113.535 46.6308 113.404 46.9591 113.404C47.4843 113.404 47.9439 113.601 48.2722 113.995C48.6005 114.389 48.7318 114.98 48.7318 115.702V115.899C48.7318 117.015 48.5348 117.803 48.0752 118.263C47.6156 118.788 47.0247 119.05 46.1055 119.05H45.9742V118.459H46.1055C46.6965 118.459 47.1561 118.328 47.4843 118C47.8126 117.803 48.0096 117.343 48.0096 116.687ZM46.8934 116.687C47.1561 116.687 47.353 116.621 47.55 116.49C47.747 116.358 47.8783 116.161 48.0096 115.965V115.702C48.0096 115.242 47.8783 114.848 47.6813 114.586C47.4843 114.323 47.2217 114.126 46.8934 114.126C46.5651 114.126 46.3025 114.257 46.1712 114.52C45.9742 114.783 45.9086 115.045 45.9086 115.439C45.9086 115.833 45.9742 116.161 46.1712 116.358C46.3682 116.621 46.6308 116.687 46.8934 116.687ZM54.6409 116.687C54.5096 116.884 54.3126 117.015 54.1156 117.081C53.9187 117.212 53.656 117.212 53.4591 117.212C53.1308 117.212 52.8682 117.146 52.6055 116.949C52.3429 116.752 52.1459 116.555 52.0803 116.293C51.949 115.965 51.8833 115.636 51.8833 115.308C51.8833 114.914 51.949 114.586 52.0803 114.323C52.2116 113.995 52.4086 113.798 52.6712 113.666C52.9338 113.535 53.2621 113.404 53.5904 113.404C54.1156 113.404 54.5752 113.601 54.9035 113.995C55.2318 114.389 55.3631 114.98 55.3631 115.702V115.899C55.3631 117.015 55.1661 117.803 54.7066 118.263C54.247 118.788 53.656 119.05 52.7369 119.05H52.6055V118.459H52.7369C53.3278 118.459 53.7874 118.328 54.1156 118C54.4439 117.803 54.6409 117.343 54.6409 116.687ZM53.5904 116.687C53.853 116.687 54.05 116.621 54.2469 116.49C54.4439 116.358 54.5752 116.161 54.7066 115.965V115.702C54.7066 115.242 54.5752 114.848 54.3783 114.586C54.1813 114.323 53.9187 114.126 53.5904 114.126C53.2621 114.126 52.9995 114.257 52.8682 114.52C52.6712 114.783 52.6055 115.045 52.6055 115.439C52.6055 115.833 52.6712 116.161 52.8682 116.358C52.9995 116.621 53.2621 116.687 53.5904 116.687ZM59.2368 116.687C59.1055 116.884 58.9086 117.015 58.7116 117.081C58.5146 117.212 58.252 117.212 58.055 117.212C57.7267 117.212 57.4641 117.146 57.2015 116.949C56.9389 116.752 56.7419 116.555 56.6762 116.293C56.5449 115.965 56.4793 115.636 56.4793 115.308C56.4793 114.914 56.5449 114.586 56.6762 114.323C56.8076 113.995 57.0045 113.798 57.2672 113.666C57.5298 113.535 57.8581 113.404 58.1863 113.404C58.7116 113.404 59.1712 113.601 59.4995 113.995C59.8278 114.389 59.9591 114.98 59.9591 115.702V115.899C59.9591 117.015 59.7621 117.803 59.3025 118.263C58.8429 118.788 58.252 119.05 57.3328 119.05H57.2015V118.459H57.3328C57.9237 118.459 58.3833 118.328 58.7116 118C59.0399 117.803 59.1712 117.343 59.2368 116.687ZM58.1207 116.687C58.3833 116.687 58.5803 116.621 58.7773 116.49C58.9742 116.358 59.1055 116.161 59.2368 115.965V115.702C59.2368 115.242 59.1055 114.848 58.9086 114.586C58.7116 114.323 58.449 114.126 58.1207 114.126C57.7924 114.126 57.5298 114.257 57.3985 114.52C57.2015 114.783 57.1358 115.045 57.1358 115.439C57.1358 115.833 57.2015 116.161 57.3985 116.358C57.5298 116.621 57.7924 116.687 58.1207 116.687ZM63.7671 116.687C63.6358 116.884 63.4389 117.015 63.2419 117.081C63.0449 117.212 62.7823 117.212 62.5853 117.212C62.257 117.212 61.9944 117.146 61.7318 116.949C61.4692 116.752 61.2722 116.555 61.2065 116.293C61.0752 115.965 61.0096 115.636 61.0096 115.308C61.0096 114.914 61.0752 114.586 61.2065 114.323C61.3379 113.995 61.5348 113.798 61.7974 113.666C62.0601 113.535 62.3884 113.404 62.7166 113.404C63.2419 113.404 63.7015 113.601 64.0298 113.995C64.3581 114.389 64.4894 114.98 64.4894 115.702V115.899C64.4894 117.015 64.2924 117.803 63.8328 118.263C63.3732 118.788 62.7823 119.05 61.8631 119.05H61.7318V118.459H61.8631C62.454 118.459 62.9136 118.328 63.2419 118C63.5702 117.803 63.7671 117.343 63.7671 116.687ZM62.651 116.687C62.9136 116.687 63.1106 116.621 63.3075 116.49C63.5045 116.358 63.6358 116.161 63.7671 115.965V115.702C63.7671 115.242 63.6358 114.848 63.4389 114.586C63.2419 114.323 62.9793 114.126 62.651 114.126C62.3884 114.126 62.0601 114.257 61.9288 114.52C61.7318 114.783 61.6661 115.045 61.6661 115.439C61.6661 115.833 61.7318 116.161 61.9288 116.358C62.1257 116.621 62.3884 116.752 62.651 116.687ZM68.2974 116.687C68.1661 116.884 67.9692 117.015 67.7722 117.081C67.5752 117.212 67.3126 117.212 67.1156 117.212C66.7873 117.212 66.5247 117.146 66.2621 116.949C65.9995 116.752 65.8025 116.555 65.7368 116.293C65.6055 115.965 65.5399 115.636 65.5399 115.308C65.5399 114.914 65.6055 114.586 65.7368 114.323C65.8681 113.995 66.0651 113.798 66.3277 113.666C66.5904 113.535 66.9187 113.404 67.2469 113.404C67.7722 113.404 68.2318 113.601 68.5601 113.995C68.8883 114.389 69.0197 114.98 69.0197 115.702V115.899C69.0197 117.015 68.8227 117.803 68.3631 118.263C67.9035 118.788 67.3126 119.05 66.3934 119.05H66.2621V118.459H66.3934C66.9843 118.459 67.4439 118.328 67.7722 118C68.1005 117.803 68.2974 117.343 68.2974 116.687ZM67.2469 116.687C67.5096 116.687 67.7065 116.621 67.9035 116.49C68.1005 116.358 68.2318 116.161 68.3631 115.965V115.702C68.3631 115.242 68.2318 114.848 68.0348 114.586C67.8378 114.323 67.5752 114.126 67.2469 114.126C66.9187 114.126 66.656 114.257 66.5247 114.52C66.3277 114.783 66.2621 115.045 66.2621 115.439C66.2621 115.833 66.3277 116.161 66.5247 116.358C66.656 116.621 66.9187 116.687 67.2469 116.687ZM74.9944 116.687C74.8631 116.884 74.6661 117.015 74.4691 117.081C74.2722 117.212 74.0096 117.212 73.8126 117.212C73.4843 117.212 73.2217 117.146 72.959 116.949C72.6964 116.752 72.4995 116.555 72.4338 116.293C72.3025 115.965 72.2368 115.636 72.2368 115.308C72.2368 114.914 72.3025 114.586 72.4338 114.323C72.5651 113.995 72.7621 113.798 73.0247 113.666C73.2873 113.535 73.6156 113.404 73.9439 113.404C74.4691 113.404 74.9287 113.601 75.257 113.995C75.5853 114.389 75.7166 114.98 75.7166 115.702V115.899C75.7166 117.015 75.5197 117.803 75.0601 118.263C74.6005 118.788 74.0096 119.05 73.0904 119.05H72.959V118.459H73.0904C73.6813 118.459 74.1409 118.328 74.4691 118C74.7318 117.803 74.9287 117.343 74.9944 116.687ZM73.8782 116.687C74.1409 116.687 74.3378 116.621 74.5348 116.49C74.7318 116.358 74.8631 116.161 74.9944 115.965V115.702C74.9944 115.242 74.8631 114.848 74.6661 114.586C74.4691 114.323 74.2065 114.126 73.8782 114.126C73.6156 114.126 73.2873 114.257 73.156 114.52C72.959 114.783 72.8934 115.045 72.8934 115.439C72.8934 115.833 72.959 116.161 73.156 116.358C73.2873 116.621 73.55 116.752 73.8782 116.687ZM79.5247 116.687C79.3934 116.884 79.1964 117.015 78.9995 117.081C78.8025 117.212 78.5399 117.212 78.3429 117.212C78.0146 117.212 77.752 117.146 77.4893 116.949C77.2267 116.752 77.0298 116.555 76.9641 116.293C76.8328 115.965 76.7671 115.636 76.7671 115.308C76.7671 114.914 76.8328 114.586 76.9641 114.323C77.0954 113.995 77.2924 113.798 77.555 113.666C77.8176 113.535 78.1459 113.404 78.4742 113.404C78.9995 113.404 79.459 113.601 79.7873 113.995C80.1156 114.389 80.2469 114.98 80.2469 115.702V115.899C80.2469 117.015 80.0499 117.803 79.5904 118.263C79.1308 118.788 78.5398 119.05 77.6207 119.05H77.4893V118.459H77.6207C78.2116 118.459 78.6712 118.328 78.9995 118C79.3277 117.803 79.459 117.343 79.5247 116.687ZM78.4085 116.687C78.6712 116.687 78.8681 116.621 79.0651 116.49C79.2621 116.358 79.3934 116.161 79.5247 115.965V115.702C79.5247 115.242 79.3934 114.848 79.1964 114.586C78.9994 114.323 78.7368 114.126 78.4085 114.126C78.0803 114.126 77.8176 114.257 77.6863 114.52C77.4893 114.783 77.4237 115.045 77.4237 115.439C77.4237 115.833 77.4893 116.161 77.6863 116.358C77.8833 116.621 78.1459 116.687 78.4085 116.687ZM84.055 116.687C83.9237 116.884 83.7267 117.015 83.5297 117.081C83.3328 117.212 83.0701 117.212 82.8732 117.212C82.5449 117.212 82.2823 117.146 82.0196 116.949C81.757 116.752 81.56 116.555 81.4944 116.293C81.3631 115.965 81.2974 115.636 81.2974 115.308C81.2974 114.914 81.3631 114.586 81.4944 114.323C81.6257 113.995 81.8227 113.798 82.0853 113.666C82.3479 113.535 82.6762 113.404 83.0045 113.404C83.5297 113.404 83.9893 113.601 84.3176 113.995C84.6459 114.389 84.7772 114.98 84.7772 115.702V115.899C84.7772 117.015 84.5802 117.803 84.1206 118.263C83.661 118.788 83.0701 119.05 82.151 119.05H82.0196V118.459H82.151C82.7419 118.459 83.2015 118.328 83.5297 118C83.858 117.803 84.055 117.343 84.055 116.687ZM83.0045 116.687C83.2671 116.687 83.4641 116.621 83.6611 116.49C83.858 116.358 83.9893 116.161 84.1206 115.965V115.702C84.1206 115.242 83.9893 114.848 83.7924 114.586C83.5954 114.323 83.3328 114.126 83.0045 114.126C82.6762 114.126 82.4136 114.257 82.2823 114.52C82.0853 114.783 82.0196 115.045 82.0196 115.439C82.0196 115.833 82.0853 116.161 82.2823 116.358C82.4136 116.621 82.6762 116.687 83.0045 116.687ZM88.6509 116.687C88.5196 116.884 88.3227 117.015 88.1257 117.081C87.9287 117.212 87.6661 117.212 87.4691 117.212C87.1408 117.212 86.8782 117.146 86.6156 116.949C86.353 116.752 86.156 116.555 86.0903 116.293C85.959 115.965 85.8934 115.636 85.8934 115.308C85.8934 114.914 85.959 114.586 86.0903 114.323C86.2217 113.995 86.4186 113.798 86.6813 113.666C86.9439 113.535 87.2722 113.404 87.6004 113.404C88.1257 113.404 88.5853 113.601 88.9136 113.995C89.2419 114.389 89.3732 114.98 89.3732 115.702V115.899C89.3732 117.015 89.1762 117.803 88.7166 118.263C88.257 118.788 87.6661 119.05 86.7469 119.05H86.6156V118.459H86.7469C87.3378 118.459 87.7974 118.328 88.1257 118C88.454 117.803 88.5853 117.343 88.6509 116.687ZM87.5348 116.687C87.7974 116.687 87.9944 116.621 88.1914 116.49C88.3883 116.358 88.5196 116.161 88.6509 115.965V115.702C88.6509 115.242 88.5196 114.848 88.3227 114.586C88.1257 114.323 87.8631 114.126 87.5348 114.126C87.2722 114.126 86.9439 114.257 86.8126 114.52C86.6156 114.783 86.5499 115.045 86.5499 115.439C86.5499 115.833 86.6156 116.161 86.8126 116.358C86.9439 116.621 87.2722 116.752 87.5348 116.687Z" fill="#C8C8C8"/>
<path d="M11.1792 19.2529C11.1792 17.8085 11.1792 16.6924 11.2449 15.8388C11.3105 14.9853 11.4418 14.3944 11.7045 13.8691C12.164 12.95 12.9519 12.1621 13.8711 11.7025C14.3964 11.4399 14.9873 11.3086 15.8408 11.2429C16.6943 11.1772 17.8105 11.1772 19.2549 11.1772H24.6388V23.7832H11.1792V19.2529ZM79.1993 11.1772H92.6589V23.7832H79.1993V11.1772ZM24.7701 11.1772H38.2297V23.7832H24.7701V11.1772ZM92.7902 11.1772H106.25V23.7832H92.7902V11.1772ZM38.361 11.1772H51.8205V23.7832H38.361V11.1772ZM106.381 11.1772H119.841V23.7832H106.381V11.1772ZM52.0175 11.1772H65.4771V23.7832H52.0175V11.1772ZM119.972 11.1772H133.432V23.7832H119.972V11.1772ZM65.6084 11.1772H79.068V23.7832H65.6084V11.1772ZM133.628 11.1772H139.012C140.457 11.1772 141.573 11.1772 142.426 11.2429C143.28 11.3086 143.871 11.4399 144.396 11.7025C145.315 12.1621 146.103 12.95 146.563 13.8691C146.825 14.3944 146.957 14.9853 147.022 15.8388C147.088 16.6924 147.088 17.8085 147.088 19.2529V23.7832H133.628V11.1772ZM11.1792 23.9145H24.6388V36.5205H11.1792V23.9145ZM79.1993 23.9145H92.6589V36.5205H79.1993V23.9145ZM24.7701 23.9145H38.2297V36.5205H24.7701V23.9145ZM92.7902 23.9145H106.25V36.5205H92.7902V23.9145ZM38.361 23.9145H51.8205V36.5205H38.361V23.9145ZM106.381 23.9145H119.841V36.5205H106.381V23.9145ZM52.0175 23.9145H65.4771V36.5205H52.0175V23.9145ZM119.972 23.9145H133.432V36.5205H119.972V23.9145ZM65.6084 23.9145H79.068V36.5205H65.6084V23.9145ZM133.628 23.9145H147.088V36.5205H133.628V23.9145ZM11.1792 36.6518H24.6388V49.2577H11.1792V36.6518ZM79.1993 36.6518H92.6589V49.2577H79.1993V36.6518ZM24.7701 36.6518H38.2297V49.2577H24.7701V36.6518ZM92.7902 36.6518H106.25V49.2577H92.7902V36.6518ZM38.361 36.6518H51.8205V49.2577H38.361V36.6518ZM106.381 36.6518H119.841V49.2577H106.381V36.6518ZM52.0175 36.6518H65.4771V49.2577H52.0175V36.6518ZM119.972 36.6518H133.432V49.2577H119.972V36.6518ZM65.6084 36.6518H79.068V49.2577H65.6084V36.6518ZM133.628 36.6518H147.088V49.2577H133.628V36.6518Z" stroke="#F1F1F1" stroke-width="0.478099"/>
<path d="M18.5941 20.0396H17.6749V15.5749L16.2961 16.0345V15.2466L18.4628 14.4587H18.5941V20.0396ZM29.887 45.5147H28.9678V41.05L27.5891 41.5096V40.7217L29.7557 39.9338H29.887V45.5147ZM35.5991 43.151C35.5991 43.9389 35.4678 44.5955 35.1395 44.9894C34.8113 45.3833 34.3517 45.5803 33.7608 45.5803C33.1699 45.5803 32.7103 45.3833 32.382 44.9894C32.0537 44.5955 31.9224 44.0045 31.9224 43.2167V42.2318C31.9224 41.4439 32.0537 40.853 32.382 40.3934C32.7103 39.9994 33.1699 39.8025 33.7608 39.8025C34.3517 39.8025 34.8113 39.9994 35.1395 40.3934C35.4678 40.7873 35.5991 41.3782 35.5991 42.1661V43.151ZM34.68 42.1005C34.68 41.5752 34.6143 41.1813 34.483 40.9186C34.3517 40.656 34.089 40.5247 33.8264 40.5247C33.4981 40.5247 33.3012 40.656 33.1699 40.853C33.0385 41.1156 32.9729 41.4439 32.9729 41.9692V43.2167C32.9729 43.7419 33.0385 44.1359 33.1699 44.3985C33.3012 44.6611 33.5638 44.7924 33.8264 44.7924C34.1547 44.7924 34.3517 44.6611 34.483 44.4641C34.6143 44.2015 34.68 43.8732 34.68 43.348V42.1005ZM47.0234 20.0396H43.2809V19.383L45.1193 17.3476C45.382 17.0194 45.5789 16.8224 45.7102 16.6254C45.8415 16.4284 45.9072 16.2315 45.9072 16.0345C45.9072 15.7719 45.8415 15.5749 45.7102 15.3779C45.5789 15.2466 45.382 15.1153 45.1193 15.1153C44.791 15.1153 44.5941 15.181 44.3971 15.3779C44.2001 15.5749 44.1345 15.8375 44.1345 16.1658H43.2153C43.2153 15.8375 43.2809 15.5092 43.4779 15.2466C43.6092 14.984 43.8719 14.7214 44.1345 14.59C44.3971 14.4587 44.7254 14.3931 45.1193 14.3931C45.6446 14.3931 46.1042 14.5244 46.4325 14.787C46.7607 15.0496 46.8921 15.4436 46.8921 15.9032C46.8921 16.1658 46.8264 16.4941 46.6294 16.7567C46.4981 17.085 46.2355 17.4133 45.8416 17.8073L44.4628 19.2517H47.089C47.0234 19.3174 47.0234 20.0396 47.0234 20.0396ZM46.1698 27.1306V27.9185H46.0385C45.5133 27.9185 45.1193 28.0498 44.791 28.3781C44.4628 28.6407 44.2658 29.0347 44.2658 29.5599C44.5941 29.2316 44.9224 29.1003 45.4476 29.1003C45.9729 29.1003 46.3011 29.2973 46.6294 29.6256C46.8921 29.9539 47.089 30.4135 47.089 31.0044C47.089 31.5953 46.8921 32.0549 46.5638 32.3832C46.2355 32.7115 45.7759 32.9084 45.2506 32.9084C44.6597 32.9084 44.2658 32.7115 43.8719 32.3175C43.5436 31.9236 43.3466 31.3327 43.3466 30.6761V30.3478C43.3466 29.3629 43.6092 28.5751 44.0688 28.0498C44.5284 27.5245 45.2506 27.1963 46.1042 27.1963C46.0385 27.1306 46.1698 27.1306 46.1698 27.1306ZM45.1193 29.8225C44.7254 29.8225 44.3315 30.0852 44.2001 30.4791V30.7418C44.2001 31.1357 44.2658 31.464 44.4628 31.7266C44.6597 31.9892 44.8567 32.1206 45.1193 32.1206C45.382 32.1206 45.6446 31.9892 45.7759 31.7923C45.9072 31.5953 46.0385 31.3327 46.0385 31.0044C46.0385 30.6761 45.9729 30.4135 45.7759 30.1508C45.6446 29.9539 45.382 29.8225 45.1193 29.8225ZM71.5132 16.8224H72.1041C72.3668 16.8224 72.6294 16.7567 72.7607 16.6254C72.9577 16.4941 73.0233 16.2971 73.0233 15.9688C73.0233 15.7062 72.9577 15.5092 72.8264 15.3779C72.695 15.2466 72.4981 15.181 72.1698 15.181C71.9072 15.181 71.7102 15.2466 71.5789 15.3779C71.4476 15.5092 71.3163 15.7062 71.3163 15.9688H70.3971C70.3971 15.7062 70.4627 15.4436 70.594 15.181C70.7253 14.9183 70.988 14.787 71.2506 14.6557C71.5132 14.5244 71.8415 14.4587 72.1698 14.4587C72.7607 14.4587 73.1546 14.59 73.4829 14.8527C73.8112 15.1153 73.9425 15.5092 73.9425 16.0345C73.9425 16.2971 73.8769 16.4941 73.6799 16.7567C73.5486 16.9537 73.2859 17.1507 73.089 17.282C73.4173 17.4133 73.6142 17.5446 73.8112 17.8073C73.9425 18.0042 74.0738 18.3325 74.0738 18.5951C74.0738 19.1204 73.8769 19.5143 73.5486 19.777C73.2203 20.1053 72.7607 20.2366 72.1698 20.2366C71.6445 20.2366 71.1849 20.1053 70.8567 19.777C70.5284 19.5143 70.3314 19.1204 70.3314 18.6608H71.2506C71.2506 18.9234 71.3163 19.1204 71.5132 19.2517C71.7102 19.383 71.9072 19.5143 72.1698 19.5143C72.4324 19.5143 72.695 19.4487 72.8264 19.2517C72.9577 19.0547 73.089 18.8578 73.089 18.5951C73.089 18.3325 73.0233 18.0699 72.8264 17.9386C72.6294 17.8072 72.3668 17.6759 72.0385 17.6759H71.5132C71.5132 17.5446 71.5132 16.8224 71.5132 16.8224ZM70.6597 45.5147H69.7405V41.05L68.3617 41.5096V40.7217L70.5284 39.9338H70.6597V45.5147ZM75.2556 45.5147H74.3364V41.05L72.9577 41.5096V40.7217L75.1243 39.9338H75.2556V45.5147ZM84.2506 45.5147H83.3314V41.05L81.9526 41.5096V40.7217L84.1193 39.9338H84.2506V45.5147ZM90.094 45.5147H86.3516V44.8581L88.19 42.8227C88.4526 42.4944 88.6496 42.2974 88.7809 42.1005C88.9122 41.9035 88.9778 41.7065 88.9778 41.5096C88.9778 41.2469 88.9122 41.05 88.7809 40.853C88.6496 40.7217 88.4526 40.5904 88.19 40.5904C87.8617 40.5904 87.6647 40.656 87.4677 40.853C87.2708 41.05 87.2051 41.3126 87.2051 41.6409H86.2859C86.2859 41.3126 86.3516 40.9843 86.5486 40.7217C86.6799 40.459 86.9425 40.1964 87.2051 40.0651C87.4677 39.9338 87.796 39.8681 88.19 39.8681C88.7152 39.8681 89.1748 39.9994 89.5031 40.2621C89.8314 40.5247 89.9627 40.9186 89.9627 41.3782C89.9627 41.6409 89.897 41.9692 89.7001 42.2318C89.5688 42.5601 89.3061 42.8884 88.9122 43.2823L87.5334 44.7268H90.1597L90.094 45.5147ZM125.089 45.5147H124.17V41.05L122.791 41.5096V40.7217L124.958 39.9338H125.089V45.5147ZM128.24 42.2974H128.831C129.094 42.2974 129.357 42.2318 129.488 42.1005C129.685 41.9692 129.751 41.7722 129.751 41.4439C129.751 41.1813 129.685 40.9843 129.554 40.853C129.422 40.7217 129.225 40.656 128.897 40.656C128.634 40.656 128.437 40.7217 128.306 40.853C128.175 40.9843 128.043 41.1813 128.043 41.4439H127.124C127.124 41.1813 127.19 40.9186 127.321 40.656C127.453 40.3934 127.715 40.2621 127.978 40.1308C128.24 39.9994 128.569 39.9338 128.897 39.9338C129.488 39.9338 129.882 40.0651 130.21 40.3277C130.538 40.5904 130.67 40.9843 130.67 41.5096C130.67 41.7722 130.604 41.9692 130.407 42.2318C130.276 42.4288 130.013 42.6257 129.816 42.757C130.144 42.8884 130.341 43.0197 130.538 43.2823C130.67 43.4793 130.801 43.8076 130.801 44.0702C130.801 44.5955 130.604 44.9894 130.276 45.252C129.947 45.5803 129.488 45.7116 128.897 45.7116C128.372 45.7116 127.912 45.5803 127.584 45.252C127.256 44.9894 127.059 44.5955 127.059 44.1359H127.978C127.978 44.3985 128.043 44.5955 128.24 44.7268C128.437 44.8581 128.634 44.9894 128.897 44.9894C129.16 44.9894 129.422 44.9237 129.554 44.7268C129.751 44.5955 129.816 44.3328 129.816 44.0702C129.816 43.8076 129.751 43.5449 129.554 43.4136C129.357 43.2823 129.094 43.151 128.766 43.151H128.24V42.2974ZM138.68 45.5147H137.761V41.05L136.382 41.5096V40.7217L138.548 39.9338H138.68V45.5147ZM143.932 43.5449H144.655V44.2672H143.932V45.5147H143.013V44.2672H140.584V43.6763L143.013 39.8681H143.998V43.5449H143.932ZM141.503 43.5449H142.947V41.1813L142.882 41.3126L141.503 43.5449ZM87.2051 18.0699H87.9273V18.7921H87.2051V20.0396H86.2859V18.7921H83.8566V18.2012L86.2859 14.3931H87.2708C87.2051 14.4587 87.2051 18.0699 87.2051 18.0699ZM84.7758 18.0699H86.2203V15.7062L86.1546 15.8375L84.7758 18.0699ZM87.796 27.7215L85.5637 32.7771H84.5789L86.8112 27.9185H83.9223V27.1963H87.796V27.7215ZM101.19 28.6407C101.19 28.9033 101.124 29.166 100.993 29.3629C100.862 29.5599 100.665 29.7569 100.402 29.8882C100.665 30.0195 100.927 30.2165 101.059 30.4135C101.19 30.6761 101.321 30.9387 101.321 31.2014C101.321 31.7266 101.124 32.0549 100.796 32.3832C100.468 32.6458 100.008 32.8428 99.4829 32.8428C98.9576 32.8428 98.498 32.7115 98.1697 32.3832C97.8415 32.1206 97.6445 31.7266 97.6445 31.2014C97.6445 30.8731 97.7102 30.6104 97.9071 30.4135C98.1041 30.1508 98.3011 29.9539 98.5637 29.8882C98.3011 29.7569 98.1041 29.6256 97.9728 29.3629C97.8415 29.166 97.7758 28.9033 97.7758 28.6407C97.7758 28.1811 97.9071 27.7872 98.2354 27.5245C98.5637 27.2619 98.9576 27.1306 99.4829 27.1306C100.008 27.1306 100.402 27.2619 100.73 27.5245C100.993 27.7872 101.19 28.1811 101.19 28.6407ZM100.336 31.2014C100.336 30.9387 100.271 30.6761 100.074 30.5448C99.9425 30.3478 99.6798 30.2821 99.4172 30.2821C99.1546 30.2821 98.9576 30.3478 98.7607 30.5448C98.6293 30.7418 98.498 30.9387 98.498 31.2014C98.498 31.464 98.5637 31.7266 98.7607 31.8579C98.892 31.9892 99.1546 32.1206 99.4172 32.1206C99.6798 32.1206 99.9425 32.0549 100.074 31.8579C100.271 31.7266 100.336 31.464 100.336 31.2014ZM100.271 28.7064C100.271 28.4437 100.205 28.2468 100.074 28.1155C99.9425 27.9841 99.7455 27.8528 99.4829 27.8528C99.2202 27.8528 99.0233 27.9185 98.892 28.0498C98.7607 28.1811 98.695 28.3781 98.695 28.6407C98.695 28.9033 98.7607 29.1003 98.892 29.2316C99.0233 29.3629 99.2202 29.4286 99.4829 29.4286C99.7455 29.4286 99.8768 29.3629 100.074 29.2316C100.205 29.166 100.271 28.969 100.271 28.7064ZM141.109 30.4135C140.781 30.7418 140.452 30.9387 139.993 30.9387C139.468 30.9387 139.139 30.7418 138.811 30.4135C138.548 30.0852 138.351 29.6256 138.351 29.0347C138.351 28.6407 138.417 28.3124 138.548 28.0498C138.68 27.7215 138.877 27.5245 139.205 27.3276C139.468 27.1306 139.796 27.0649 140.19 27.0649C140.781 27.0649 141.175 27.2619 141.503 27.7215C141.831 28.1155 142.028 28.7064 142.028 29.4286V29.6912C142.028 30.6761 141.831 31.464 141.372 31.9892C140.912 32.5145 140.256 32.7771 139.336 32.7771H139.205V31.9892H139.336C139.862 31.9892 140.321 31.8579 140.584 31.5953C140.912 31.3983 141.043 31.0044 141.109 30.4135ZM140.19 30.2165C140.387 30.2165 140.584 30.1508 140.715 30.0852C140.846 29.9539 140.978 29.8225 141.109 29.6256V29.2316C141.109 28.8377 141.043 28.5094 140.846 28.2468C140.649 27.9841 140.453 27.8528 140.19 27.8528C139.927 27.8528 139.73 27.9841 139.533 28.1811C139.402 28.3781 139.271 28.7064 139.271 29.0347C139.271 29.3629 139.336 29.6912 139.533 29.8882C139.73 30.0852 139.927 30.2165 140.19 30.2165ZM138.68 17.282L139.008 14.4587H142.028V15.2466H139.796L139.665 16.5598C139.927 16.4284 140.19 16.3628 140.518 16.3628C141.043 16.3628 141.437 16.5598 141.766 16.888C142.094 17.2163 142.225 17.6759 142.225 18.2669C142.225 18.8578 142.094 19.3174 141.7 19.6457C141.372 19.9739 140.912 20.1709 140.321 20.1709C139.796 20.1709 139.402 20.0396 139.074 19.7113C138.745 19.4487 138.548 19.0547 138.548 18.5295H139.468C139.533 18.7921 139.599 18.9891 139.73 19.1861C139.862 19.3174 140.124 19.383 140.321 19.383C140.584 19.383 140.846 19.2517 140.978 19.0547C141.109 18.8578 141.24 18.5951 141.24 18.2012C141.24 17.8729 141.175 17.6103 140.978 17.4133C140.781 17.2163 140.584 17.085 140.256 17.085C140.059 17.085 139.927 17.085 139.796 17.1507C139.665 17.2163 139.533 17.282 139.402 17.4133L138.68 17.282Z" fill="#595959"/>
<path d="M11.1792 19.2529C11.1792 17.8085 11.1792 16.6924 11.2449 15.8388C11.3105 14.9853 11.4418 14.3944 11.7045 13.8691C12.164 12.95 12.9519 12.1621 13.8711 11.7025C14.3964 11.4399 14.9873 11.3086 15.8408 11.2429C16.6943 11.1772 17.8105 11.1772 19.2549 11.1772H139.012C140.457 11.1772 141.573 11.1772 142.426 11.2429C143.28 11.3086 143.871 11.4399 144.396 11.7025C145.315 12.1621 146.103 12.95 146.563 13.8691L146.825 13.7378L146.563 13.8691C146.825 14.3944 146.957 14.9853 147.022 15.8388C147.088 16.6924 147.088 17.8085 147.088 19.2529V49.2577H11.1792V19.2529Z" stroke="#C8C8C8" stroke-width="0.478099"/>
<path d="M11.1763 55.168H24.6358V67.7739H11.1763V55.168ZM79.1964 55.168H92.6559V67.7739H79.1964V55.168ZM24.7672 55.168H38.2267V67.7739H24.7672V55.168ZM92.7873 55.168H106.247V67.7739H92.7873V55.168ZM38.358 55.168H51.8176V67.7739H38.358V55.168ZM106.378 55.168H119.838V67.7739H106.378V55.168ZM52.0146 55.168H65.4742V67.7739H52.0146V55.168ZM119.969 55.168H133.429V67.7739H119.969V55.168ZM65.6055 55.168H79.065V67.7739H65.6055V55.168ZM133.626 55.168H147.085V67.7739H133.626V55.168ZM11.1763 67.9052H24.6358V80.5112H11.1763V67.9052ZM79.1964 67.9052H92.6559V80.5112H79.1964V67.9052ZM24.7672 67.9052H38.2267V80.5112H24.7672V67.9052ZM92.7873 67.9052H106.247V80.5112H92.7873V67.9052ZM38.358 67.9052H51.8176V80.5112H38.358V67.9052ZM106.378 67.9052H119.838V80.5112H106.378V67.9052ZM52.0146 67.9052H65.4742V80.5112H52.0146V67.9052ZM119.969 67.9052H133.429V80.5112H119.969V67.9052ZM65.6055 67.9052H79.065V80.5112H65.6055V67.9052ZM133.626 67.9052H147.085V80.5112H133.626V67.9052ZM11.1763 80.6425H24.6358V93.2485H19.252C17.8076 93.2485 16.6914 93.2485 15.8379 93.1828C14.9843 93.1171 14.3934 92.9858 13.8682 92.7232C12.949 92.2636 12.1611 91.4757 11.7015 90.5566C11.4389 90.0313 11.3076 89.4404 11.2419 88.5869C11.1763 87.7333 11.1763 86.6172 11.1763 85.1728C11.1763 85.1728 11.1763 80.6425 11.1763 80.6425ZM79.1964 80.6425H92.6559V93.2485H79.1964V80.6425ZM24.7672 80.6425H38.2267V93.2485H24.7672V80.6425ZM92.7873 80.6425H106.247V93.2485H92.7873V80.6425ZM38.358 80.6425H51.8176V93.2485H38.358V80.6425ZM106.378 80.6425H119.838V93.2485H106.378V80.6425ZM52.0146 80.6425H65.4742V93.2485H52.0146V80.6425ZM119.969 80.6425H133.429V93.2485H119.969V80.6425ZM65.6055 80.6425H79.065V93.2485H65.6055V80.6425ZM133.626 80.6425H147.085V85.1728C147.085 86.6172 147.085 87.7333 147.019 88.5869C146.954 89.4404 146.823 90.0313 146.56 90.5566C146.1 91.4757 145.312 92.2636 144.393 92.7232C143.868 92.9858 143.277 93.1171 142.424 93.1828C141.57 93.2485 140.454 93.2485 139.009 93.2485H133.626V80.6425Z" stroke="#F1F1F1" stroke-width="0.478099"/>
<path d="M16.231 64.0311H15.3118V59.5664L13.933 60.026V59.2381L16.0997 58.4502H16.231V64.0311ZM18.5946 61.2734L18.9229 58.4502H21.9431V59.2381H19.7108L19.5795 60.5512C19.8421 60.4199 20.1704 60.3542 20.433 60.3542C20.9583 60.3542 21.3522 60.5512 21.6805 60.8795C22.0088 61.2078 22.1401 61.6674 22.1401 62.2583C22.1401 62.8492 22.0088 63.3088 21.6148 63.6371C21.2866 63.9654 20.827 64.1624 20.2361 64.1624C19.7108 64.1624 19.3169 64.0311 18.9886 63.7028C18.6603 63.4401 18.4633 63.0462 18.4633 62.5209H19.3825C19.4482 62.7836 19.5138 62.9805 19.6451 63.1775C19.7765 63.3088 20.0391 63.3745 20.3017 63.3745C20.5643 63.3745 20.827 63.2432 20.9583 63.0462C21.0896 62.8492 21.2209 62.5866 21.2209 62.1926C21.2209 61.8644 21.1552 61.6017 20.9583 61.4048C20.7613 61.2078 20.5643 61.0765 20.2361 61.0765C20.0391 61.0765 19.9078 61.0765 19.7765 61.1421C19.6451 61.2078 19.5138 61.2734 19.3825 61.4048L18.5946 61.2734ZM16.231 76.7686H15.3118V72.3039L13.933 72.7635V71.9756L16.0997 71.1877H16.231V76.7686ZM20.9583 74.4706C20.63 74.7989 20.3017 74.9958 19.8421 74.9958C19.3169 74.9958 18.9886 74.7989 18.6603 74.4706C18.3977 74.1423 18.2007 73.6827 18.2007 73.0918C18.2007 72.6978 18.2664 72.3695 18.3977 72.1069C18.529 71.7786 18.726 71.5816 19.0542 71.3847C19.3169 71.1877 19.6451 71.1221 20.0391 71.1221C20.63 71.1221 21.0239 71.319 21.3522 71.7786C21.6805 72.1726 21.8775 72.7635 21.8775 73.4857V73.7483C21.8775 74.7332 21.6805 75.5211 21.2209 76.0464C20.7613 76.5716 20.1047 76.8342 19.1856 76.8342H19.0542V76.0464H19.1856C19.7108 76.0464 20.1704 75.915 20.433 75.6524C20.7613 75.3898 20.9583 74.9958 20.9583 74.4706ZM20.1047 74.2079C20.3017 74.2079 20.4987 74.1423 20.63 74.0766C20.7613 74.011 20.8926 73.814 21.0239 73.617V73.2231C21.0239 72.8291 20.9583 72.5009 20.7613 72.2382C20.5643 71.9756 20.3674 71.8443 20.1047 71.8443C19.8421 71.8443 19.6451 71.9756 19.4482 72.1726C19.3169 72.3695 19.1856 72.6978 19.1856 73.0261C19.1856 73.3544 19.2512 73.6827 19.4482 73.8797C19.5795 74.1423 19.8421 74.2079 20.1047 74.2079ZM31.0694 89.5061H27.327V88.8495L29.1653 86.8142C29.428 86.4859 29.6249 86.2889 29.7562 86.0919C29.8876 85.895 29.9532 85.698 29.9532 85.501C29.9532 85.2384 29.8876 85.0414 29.7562 84.8444C29.6249 84.7131 29.428 84.5818 29.1653 84.5818C28.8371 84.5818 28.6401 84.6475 28.4431 84.8444C28.2461 85.0414 28.1805 85.304 28.1805 85.6323H27.2613C27.2613 85.304 27.327 84.9758 27.5239 84.7131C27.6552 84.4505 27.9179 84.1879 28.1805 84.0566C28.4431 83.9252 28.7714 83.8596 29.1653 83.8596C29.6906 83.8596 30.1502 83.9909 30.4785 84.2535C30.8067 84.5162 30.9381 84.9101 30.9381 85.3697C30.9381 85.6323 30.8724 85.9606 30.6754 86.2232C30.5441 86.5515 30.2815 86.8798 29.8876 87.2738L28.5088 88.7182H31.135L31.0694 89.5061ZM32.1855 86.7485L32.5138 83.9252H35.534V84.7131H33.3017L33.1704 86.0263C33.433 85.895 33.7613 85.8293 34.0239 85.8293C34.5492 85.8293 34.9431 86.0263 35.2714 86.3546C35.5997 86.6828 35.731 87.1425 35.731 87.7334C35.731 88.3243 35.5997 88.7839 35.2057 89.1122C34.8774 89.4405 34.4179 89.6374 33.8269 89.6374C33.3017 89.6374 32.9078 89.5061 32.5795 89.1778C32.2512 88.9152 32.0542 88.5213 32.0542 87.996H32.9734C33.0391 88.2586 33.1047 88.4556 33.236 88.6526C33.3673 88.7839 33.63 88.8495 33.8269 88.8495C34.0896 88.8495 34.3522 88.7182 34.4835 88.5213C34.6148 88.3243 34.7461 88.0616 34.7461 87.6677C34.7461 87.3394 34.6805 87.0768 34.4835 86.8798C34.2865 86.6828 34.0896 86.5515 33.7613 86.5515C33.63 86.5515 33.4987 86.5515 33.3017 86.6172C33.1704 86.6828 33.0391 86.7485 32.9078 86.8798L32.1855 86.7485ZM17.4785 89.5061H13.7361V88.8495L15.5744 86.8142C15.8371 86.4859 16.034 86.2889 16.1654 86.0919C16.2967 85.895 16.3623 85.698 16.3623 85.501C16.3623 85.2384 16.2967 85.0414 16.1654 84.8444C16.034 84.7131 15.8371 84.5818 15.5744 84.5818C15.2462 84.5818 15.0492 84.6475 14.8522 84.8444C14.6553 85.0414 14.5896 85.304 14.5896 85.6323H13.6704C13.6704 85.304 13.7361 84.9758 13.933 84.7131C14.0643 84.4505 14.327 84.1879 14.5896 84.0566C14.8522 83.9252 15.2462 83.8596 15.5744 83.8596C16.0997 83.8596 16.5593 83.9909 16.8876 84.2535C17.2159 84.5162 17.3472 84.9101 17.3472 85.3697C17.3472 85.6323 17.2815 85.9606 17.0845 86.2232C16.9532 86.5515 16.6906 86.8798 16.2967 87.2738L14.9179 88.7182H17.5441L17.4785 89.5061ZM21.4835 87.5364H22.2057V88.2586H21.4835V89.5061H20.5643V88.2586H18.1351V87.6677L20.5643 83.8596H21.5492L21.4835 87.5364ZM19.1199 87.5364H20.5643V85.1727L20.4987 85.304L19.1199 87.5364ZM43.4784 64.0311H42.5593V59.5664L41.1805 60.026V59.2381L43.3471 58.4502H43.4784V64.0311ZM48.4683 58.3845V59.1724H48.337C47.8118 59.1724 47.4178 59.3037 47.0895 59.632C46.7613 59.8946 46.5643 60.2886 46.5643 60.8138C46.8926 60.4856 47.2209 60.3542 47.7461 60.3542C48.2714 60.3542 48.5996 60.5512 48.9279 60.8795C49.1906 61.2078 49.3875 61.6674 49.3875 62.2583C49.3875 62.8492 49.1906 63.3088 48.8623 63.6371C48.534 63.9654 48.0744 64.1624 47.5491 64.1624C46.9582 64.1624 46.5643 63.9654 46.1704 63.5715C45.8421 63.1775 45.6451 62.5866 45.6451 61.93V61.6017C45.6451 60.6169 45.9077 59.829 46.3673 59.3037C46.8269 58.7785 47.5491 58.4502 48.4027 58.4502C48.337 58.3845 48.4683 58.3845 48.4683 58.3845ZM47.4178 61.0765C47.0239 61.0765 46.63 61.3391 46.4986 61.733V61.9957C46.4986 62.3896 46.5643 62.7179 46.7613 62.9805C46.9582 63.2432 47.1552 63.3745 47.4178 63.3745C47.6805 63.3745 47.9431 63.2432 48.0744 63.0462C48.2057 62.8492 48.337 62.5866 48.337 62.2583C48.337 61.93 48.2714 61.6017 48.0744 61.4048C47.9431 61.2078 47.6805 61.0765 47.4178 61.0765ZM58.3168 76.7686H54.5744V76.112L56.4128 74.0766C56.6754 73.7483 56.8724 73.5514 57.0037 73.3544C57.135 73.1574 57.2006 72.9605 57.2006 72.7635C57.2006 72.5009 57.135 72.3039 57.0037 72.1069C56.8724 71.9756 56.6754 71.8443 56.4128 71.8443C56.0845 71.8443 55.8875 71.9099 55.6905 72.1069C55.4936 72.3039 55.4279 72.5665 55.4279 72.8948H54.5087C54.5087 72.5665 54.5744 72.2382 54.7714 71.9756C54.9027 71.713 55.1653 71.4503 55.4279 71.319C55.6905 71.1877 56.0188 71.1221 56.4128 71.1221C56.938 71.1221 57.3976 71.2534 57.7259 71.516C58.0542 71.7786 58.1855 72.1726 58.1855 72.6322C58.1855 72.8948 58.1198 73.2231 57.9229 73.4857C57.7915 73.814 57.5289 74.1423 57.135 74.5362L55.7562 75.9807H58.3825L58.3168 76.7686ZM62.7814 74.4049C62.7814 75.1928 62.6501 75.8494 62.3218 76.2433C61.9936 76.6373 61.534 76.8342 60.9431 76.8342C60.3522 76.8342 59.8926 76.6373 59.5643 76.2433C59.236 75.8494 59.1047 75.2585 59.1047 74.4706V73.4857C59.1047 72.6978 59.236 72.1069 59.5643 71.6473C59.8926 71.2534 60.3522 71.0564 60.9431 71.0564C61.534 71.0564 61.9936 71.2534 62.3218 71.6473C62.6501 72.0413 62.7814 72.6322 62.7814 73.4201V74.4049ZM61.8622 73.3544C61.8622 72.8291 61.7966 72.4352 61.6653 72.1726C61.534 71.9099 61.2713 71.7786 61.0087 71.7786C60.6804 71.7786 60.4835 71.9099 60.3522 72.1069C60.2208 72.3695 60.1552 72.6978 60.1552 73.2231V74.4706C60.1552 74.9958 60.2208 75.3898 60.3522 75.6524C60.4835 75.915 60.7461 76.0464 61.0087 76.0464C61.337 76.0464 61.534 75.915 61.6653 75.7181C61.7966 75.4554 61.8622 75.1271 61.8622 74.6019V73.3544ZM70.6602 64.0311H69.741V59.5664L68.3622 60.026V59.2381L70.5289 58.4502H70.6602V64.0311ZM76.5036 58.9754L74.2713 64.0311H73.2865L75.5188 59.1724H72.5643V58.4502H76.438V58.9754H76.5036ZM71.9077 89.5061H68.1653V88.8495L70.0037 86.8142C70.2663 86.4859 70.4632 86.2889 70.5946 86.0919C70.7259 85.895 70.7915 85.698 70.7915 85.501C70.7915 85.2384 70.7259 85.0414 70.5946 84.8444C70.4632 84.7131 70.2663 84.5818 70.0037 84.5818C69.6754 84.5818 69.4784 84.6475 69.2814 84.8444C69.0845 85.0414 69.0188 85.304 69.0188 85.6323H68.0996C68.0996 85.304 68.1653 84.9758 68.3622 84.7131C68.4936 84.4505 68.7562 84.1879 69.0188 84.0566C69.2814 83.9252 69.6097 83.8596 70.0037 83.8596C70.5289 83.8596 70.9885 83.9909 71.3168 84.2535C71.6451 84.5162 71.7764 84.9101 71.7764 85.3697C71.7764 85.6323 71.7107 85.9606 71.5138 86.2232C71.3824 86.5515 71.1198 86.8798 70.7259 87.2738L69.3471 88.7182H71.9733L71.9077 89.5061ZM75.6501 83.8596V84.6475H75.5188C74.9935 84.6475 74.5996 84.7788 74.2713 85.1071C73.943 85.3697 73.7461 85.7636 73.7461 86.2889C74.0744 85.9606 74.4026 85.8293 74.9279 85.8293C75.4531 85.8293 75.7814 86.0263 76.1097 86.3546C76.3723 86.6828 76.5693 87.1425 76.5693 87.7334C76.5693 88.3243 76.3723 88.7839 76.044 89.1122C75.7158 89.4405 75.2562 89.6374 74.7309 89.6374C74.14 89.6374 73.7461 89.4405 73.3521 89.0465C73.0238 88.6526 72.8269 88.0617 72.8269 87.4051V87.0111C72.8269 86.0263 73.0895 85.2384 73.5491 84.7131C74.0087 84.1879 74.7309 83.8596 75.5845 83.8596H75.6501ZM74.6653 86.5515C74.2713 86.5515 73.8774 86.8142 73.7461 87.2081V87.4707C73.7461 87.8647 73.8117 88.193 74.0087 88.4556C74.2057 88.7182 74.4026 88.8495 74.6653 88.8495C74.9279 88.8495 75.1905 88.7182 75.3218 88.5213C75.4531 88.3243 75.5845 88.0617 75.5845 87.7334C75.5845 87.4051 75.5188 87.1424 75.3218 86.8798C75.1249 86.6828 74.9279 86.5515 74.6653 86.5515ZM85.4986 89.5061H81.7562V88.8495L83.5945 86.8142C83.8572 86.4859 84.0541 86.2889 84.1854 86.0919C84.3168 85.895 84.3824 85.698 84.3824 85.501C84.3824 85.2384 84.3168 85.0414 84.1854 84.8444C84.0541 84.7131 83.8572 84.5818 83.5945 84.5818C83.2663 84.5818 83.0693 84.6475 82.8723 84.8444C82.6753 85.0414 82.6097 85.304 82.6097 85.6323H81.6905C81.6905 85.304 81.7562 84.9758 81.9531 84.7131C82.0844 84.4505 82.3471 84.1879 82.6097 84.0566C82.8723 83.9252 83.2006 83.8596 83.5945 83.8596C84.1198 83.8596 84.5794 83.9909 84.9077 84.2535C85.236 84.5162 85.3673 84.9101 85.3673 85.3697C85.3673 85.6323 85.3016 85.9606 85.1046 86.2232C84.9733 86.5515 84.7107 86.8798 84.3168 87.2738L82.938 88.7182H85.5642V89.5061H85.4986ZM90.0945 84.4505L87.8622 89.5061H86.8774L89.1097 84.6475H86.2208V83.9252H90.0945V84.4505ZM123.645 86.2889H124.236C124.499 86.2889 124.761 86.2232 124.892 86.0919C125.089 85.9606 125.155 85.7636 125.155 85.4354C125.155 85.1727 125.089 84.9758 124.958 84.8444C124.827 84.7131 124.63 84.6475 124.302 84.6475C124.039 84.6475 123.842 84.7131 123.711 84.8444C123.579 84.9758 123.448 85.1727 123.448 85.4354H122.463C122.463 85.1727 122.529 84.9101 122.66 84.6475C122.791 84.3848 123.054 84.2535 123.317 84.1222C123.579 83.9909 123.908 83.9252 124.236 83.9252C124.827 83.9252 125.221 84.0566 125.549 84.3192C125.877 84.5818 126.009 84.9758 126.009 85.501C126.009 85.7636 125.943 85.9606 125.746 86.2232C125.615 86.4202 125.352 86.6172 125.155 86.7485C125.483 86.8798 125.68 87.0111 125.877 87.2738C126.009 87.4707 126.14 87.799 126.14 88.0617C126.14 88.5869 125.943 88.9808 125.615 89.2435C125.286 89.5718 124.827 89.7031 124.236 89.7031C123.711 89.7031 123.251 89.5718 122.923 89.2435C122.594 88.9808 122.397 88.5869 122.397 88.1273H123.317C123.317 88.3899 123.382 88.5869 123.579 88.7182C123.776 88.8495 123.973 88.9809 124.236 88.9809C124.499 88.9809 124.761 88.9152 124.892 88.7182C125.089 88.5869 125.155 88.3243 125.155 88.0617C125.155 87.799 125.089 87.5364 124.892 87.4051C124.695 87.2738 124.433 87.1424 124.105 87.1424H123.579V86.2889H123.645ZM130.802 87.1424C130.802 87.9303 130.67 88.5869 130.342 88.9809C130.014 89.3748 129.554 89.5718 128.963 89.5718C128.372 89.5718 127.913 89.3748 127.584 88.9809C127.256 88.5869 127.125 87.996 127.125 87.2081V86.2232C127.125 85.4354 127.256 84.8444 127.584 84.3848C127.913 83.9909 128.372 83.7939 128.963 83.7939C129.554 83.7939 130.014 83.9909 130.342 84.3848C130.67 84.7788 130.802 85.3697 130.802 86.1576V87.1424ZM129.882 86.0919C129.882 85.5667 129.817 85.1727 129.685 84.9101C129.554 84.6475 129.291 84.5161 129.029 84.5161C128.701 84.5161 128.504 84.6475 128.372 84.8444C128.241 85.1071 128.175 85.4354 128.175 85.9606V87.2081C128.175 87.7334 128.241 88.1273 128.372 88.3899C128.504 88.6526 128.766 88.7839 129.029 88.7839C129.357 88.7839 129.554 88.6526 129.685 88.4556C129.817 88.193 129.882 87.8647 129.882 87.3394V86.0919ZM112.68 89.5061H108.938V88.8495L110.776 86.8142C111.039 86.4859 111.236 86.2889 111.367 86.0919C111.499 85.895 111.564 85.698 111.564 85.501C111.564 85.2384 111.499 85.0414 111.367 84.8444C111.236 84.7131 111.039 84.5818 110.776 84.5818C110.448 84.5818 110.251 84.6475 110.054 84.8444C109.857 85.0414 109.791 85.304 109.791 85.6323H108.872C108.872 85.304 108.938 84.9758 109.135 84.7131C109.266 84.4505 109.529 84.1879 109.791 84.0566C110.054 83.9252 110.382 83.8596 110.776 83.8596C111.302 83.8596 111.761 83.9909 112.089 84.2535C112.418 84.5162 112.549 84.9101 112.549 85.3697C112.549 85.6323 112.483 85.9606 112.286 86.2232C112.155 86.5515 111.892 86.8798 111.499 87.2738L110.12 88.7182H112.746L112.68 89.5061ZM116.226 87.1424C115.898 87.4707 115.569 87.6677 115.11 87.6677C114.584 87.6677 114.256 87.4707 113.928 87.1424C113.665 86.8142 113.468 86.3546 113.468 85.7636C113.468 85.3697 113.534 85.0414 113.665 84.7788C113.797 84.4505 113.993 84.2535 114.322 84.0566C114.65 83.8596 114.913 83.7939 115.307 83.7939C115.898 83.7939 116.291 83.9909 116.62 84.4505C116.948 84.9101 117.145 85.4354 117.145 86.1576V86.4202C117.145 87.4051 116.948 88.193 116.488 88.7182C116.029 89.2435 115.372 89.5061 114.453 89.5061H114.322V88.7182H114.453C114.978 88.7182 115.438 88.5869 115.701 88.3243C116.029 88.1273 116.16 87.7334 116.226 87.1424ZM115.307 86.9455C115.504 86.9455 115.701 86.8798 115.832 86.8142C116.029 86.6828 116.16 86.5515 116.226 86.3546V85.9606C116.226 85.5667 116.16 85.2384 115.963 84.9757C115.766 84.7131 115.569 84.5818 115.307 84.5818C115.044 84.5818 114.847 84.7131 114.65 84.9101C114.519 85.1071 114.387 85.4354 114.387 85.7636C114.387 86.0919 114.453 86.4202 114.65 86.6172C114.847 86.8142 115.044 86.9455 115.307 86.9455ZM99.0895 89.5061H95.347V88.8495L97.1854 86.8142C97.4481 86.4859 97.645 86.2889 97.7763 86.0919C97.9076 85.895 97.9733 85.698 97.9733 85.501C97.9733 85.2384 97.9076 85.0414 97.7763 84.8444C97.645 84.7131 97.4481 84.5818 97.1854 84.5818C96.8571 84.5818 96.6602 84.6475 96.4632 84.8444C96.2662 85.0414 96.2006 85.304 96.2006 85.6323H95.2814C95.2814 85.304 95.347 84.9758 95.544 84.7131C95.6753 84.4505 95.938 84.1879 96.2006 84.0566C96.4632 83.9252 96.7915 83.8596 97.1854 83.8596C97.7107 83.8596 98.1703 83.9909 98.4986 84.2535C98.8268 84.5162 98.9581 84.9101 98.9581 85.3697C98.9581 85.6323 98.8925 85.9606 98.6955 86.2232C98.5642 86.5515 98.3016 86.8798 97.9076 87.2738L96.5289 88.7182H99.1551L99.0895 89.5061ZM103.488 85.3697C103.488 85.6323 103.423 85.895 103.291 86.0919C103.16 86.2889 102.963 86.4859 102.701 86.6172C102.963 86.7485 103.226 86.9455 103.357 87.2081C103.488 87.4707 103.62 87.7334 103.62 87.996C103.62 88.5213 103.423 88.8495 103.095 89.1778C102.766 89.4405 102.307 89.6374 101.781 89.6374C101.256 89.6374 100.797 89.5061 100.468 89.1778C100.14 88.9152 99.943 88.5213 99.943 87.996C99.943 87.6677 100.009 87.4051 100.206 87.2081C100.403 86.9455 100.6 86.7485 100.862 86.6828C100.6 86.5515 100.403 86.4202 100.271 86.1576C100.14 85.9606 100.074 85.698 100.074 85.4354C100.074 84.9758 100.206 84.5818 100.534 84.3192C100.862 84.0566 101.256 83.9252 101.781 83.9252C102.307 83.9252 102.701 84.0566 103.029 84.3192C103.357 84.5162 103.488 84.9101 103.488 85.3697ZM102.701 87.9303C102.701 87.6677 102.635 87.4051 102.438 87.2738C102.307 87.0768 102.044 87.0111 101.781 87.0111C101.519 87.0111 101.322 87.0768 101.125 87.2738C100.993 87.4707 100.862 87.6677 100.862 87.9303C100.862 88.193 100.928 88.4556 101.125 88.5869C101.256 88.7182 101.519 88.8495 101.781 88.8495C102.044 88.8495 102.307 88.7839 102.438 88.5869C102.569 88.4556 102.701 88.2586 102.701 87.9303ZM102.569 85.4354C102.569 85.1727 102.504 84.9758 102.372 84.8444C102.241 84.7131 102.044 84.5818 101.781 84.5818C101.519 84.5818 101.387 84.6475 101.19 84.7788C101.059 84.9101 100.993 85.1071 100.993 85.3697C100.993 85.6323 101.059 85.8293 101.19 85.9606C101.322 86.0919 101.519 86.1576 101.781 86.1576C102.044 86.1576 102.175 86.0919 102.372 85.9606C102.504 85.895 102.569 85.698 102.569 85.4354ZM85.4986 76.7686H81.7562V76.112L83.5945 74.0766C83.8572 73.7483 84.0541 73.5514 84.1854 73.3544C84.3168 73.1574 84.3824 72.9605 84.3824 72.7635C84.3824 72.5009 84.3168 72.3039 84.1854 72.1069C84.0541 71.9756 83.8572 71.8443 83.5945 71.8443C83.2663 71.8443 83.0693 71.9099 82.8723 72.1069C82.6753 72.3039 82.6097 72.5665 82.6097 72.8948H81.6905C81.6905 72.5665 81.7562 72.2382 81.9531 71.9756C82.0844 71.713 82.3471 71.4503 82.6097 71.319C82.8723 71.1877 83.2006 71.1221 83.5945 71.1221C84.1198 71.1221 84.5794 71.2534 84.9077 71.516C85.236 71.7786 85.3673 72.1726 85.3673 72.6322C85.3673 72.8948 85.3016 73.2231 85.1046 73.4857C84.9733 73.814 84.7107 74.1423 84.3168 74.5362L82.938 75.9807H85.5642V76.7686H85.4986ZM88.9127 76.7686H87.9935V72.3039L86.6147 72.7635V71.9756L88.7814 71.1877H88.9127V76.7686ZM112.68 76.7686H108.938V76.112L110.776 74.0766C111.039 73.7483 111.236 73.5514 111.367 73.3544C111.499 73.1574 111.564 72.9605 111.564 72.7635C111.564 72.5009 111.499 72.3039 111.367 72.1069C111.236 71.9756 111.039 71.8443 110.776 71.8443C110.448 71.8443 110.251 71.9099 110.054 72.1069C109.857 72.3039 109.791 72.5665 109.791 72.8948H108.872C108.872 72.5665 108.938 72.2382 109.135 71.9756C109.266 71.713 109.529 71.4503 109.791 71.319C110.054 71.1877 110.382 71.1221 110.776 71.1221C111.302 71.1221 111.761 71.2534 112.089 71.516C112.418 71.7786 112.549 72.1726 112.549 72.6322C112.549 72.8948 112.483 73.2231 112.286 73.4857C112.155 73.814 111.892 74.1423 111.499 74.5362L110.12 75.9807H112.746L112.68 76.7686ZM117.342 76.7686H113.6V76.112L115.438 74.0766C115.701 73.7483 115.898 73.5514 116.029 73.3544C116.16 73.1574 116.226 72.9605 116.226 72.7635C116.226 72.5009 116.16 72.3039 116.029 72.1069C115.898 71.9756 115.701 71.8443 115.438 71.8443C115.11 71.8443 114.913 71.9099 114.716 72.1069C114.519 72.3039 114.453 72.5665 114.453 72.8948H113.534C113.534 72.5665 113.6 72.2382 113.797 71.9756C113.928 71.713 114.19 71.4503 114.453 71.319C114.716 71.1877 115.044 71.1221 115.438 71.1221C115.963 71.1221 116.423 71.2534 116.751 71.516C117.079 71.7786 117.211 72.1726 117.211 72.6322C117.211 72.8948 117.145 73.2231 116.948 73.4857C116.817 73.814 116.554 74.1423 116.16 74.5362L114.781 75.9807H117.408L117.342 76.7686ZM139.928 76.7686H136.185V76.112L138.024 74.0766C138.286 73.7483 138.483 73.5514 138.615 73.3544C138.746 73.1574 138.812 72.9605 138.812 72.7635C138.812 72.5009 138.746 72.3039 138.615 72.1069C138.483 71.9756 138.286 71.8443 138.024 71.8443C137.695 71.8443 137.498 71.9099 137.302 72.1069C137.105 72.3039 137.039 72.5665 137.039 72.8948H136.12C136.12 72.5665 136.185 72.2382 136.382 71.9756C136.514 71.713 136.776 71.4503 137.039 71.319C137.302 71.1877 137.63 71.1221 138.024 71.1221C138.549 71.1221 139.009 71.2534 139.337 71.516C139.665 71.7786 139.796 72.1726 139.796 72.6322C139.796 72.8948 139.731 73.2231 139.534 73.4857C139.403 73.814 139.14 74.1423 138.746 74.5362L137.367 75.9807H139.993L139.928 76.7686ZM141.832 73.5514H142.423C142.685 73.5514 142.948 73.4857 143.079 73.3544C143.276 73.2231 143.342 73.0261 143.342 72.6978C143.342 72.4352 143.276 72.2382 143.145 72.1069C143.014 71.9756 142.817 71.9099 142.488 71.9099C142.226 71.9099 142.029 71.9756 141.897 72.1069C141.766 72.2382 141.635 72.4352 141.635 72.6978H140.716C140.716 72.4352 140.781 72.1726 140.913 71.9099C141.044 71.6473 141.307 71.516 141.569 71.3847C141.832 71.2534 142.16 71.1877 142.488 71.1877C143.079 71.1877 143.473 71.319 143.802 71.5817C144.13 71.8443 144.261 72.2382 144.261 72.7635C144.261 73.0261 144.195 73.2231 143.998 73.4857C143.867 73.6827 143.605 73.8797 143.408 74.011C143.736 74.1423 143.933 74.2736 144.13 74.5362C144.261 74.7332 144.392 75.0615 144.392 75.3241C144.392 75.8494 144.195 76.2433 143.867 76.506C143.539 76.8342 143.079 76.9656 142.488 76.9656C141.963 76.9656 141.504 76.8342 141.175 76.506C140.847 76.2433 140.65 75.8494 140.65 75.3898H141.569C141.569 75.6524 141.635 75.8494 141.832 75.9807C142.029 76.112 142.226 76.2433 142.488 76.2433C142.751 76.2433 143.014 76.1777 143.145 75.9807C143.342 75.8494 143.408 75.5867 143.408 75.3241C143.408 75.0615 143.342 74.7989 143.145 74.6675C142.948 74.5362 142.685 74.4049 142.357 74.4049H141.832V73.5514ZM138.68 64.0311H137.761V59.5664L136.382 60.026V59.2381L138.549 58.4502H138.68V64.0311ZM144.261 59.8946C144.261 60.1573 144.195 60.4199 144.064 60.6169C143.933 60.8138 143.736 61.0108 143.473 61.1421C143.736 61.2734 143.998 61.4704 144.13 61.6674C144.261 61.93 144.392 62.1926 144.392 62.4553C144.392 62.9805 144.195 63.3088 143.867 63.6371C143.539 63.8997 143.079 64.0967 142.554 64.0967C142.029 64.0967 141.569 63.9654 141.241 63.6371C140.913 63.3745 140.716 62.9805 140.716 62.4553C140.716 62.127 140.781 61.8644 140.978 61.6674C141.175 61.4048 141.372 61.2078 141.635 61.1421C141.372 61.0108 141.175 60.8795 141.044 60.6169C140.913 60.4199 140.847 60.1573 140.847 59.8946C140.847 59.435 140.978 59.0411 141.307 58.7785C141.635 58.5158 142.029 58.3845 142.554 58.3845C143.079 58.3845 143.473 58.5158 143.802 58.7785C144.13 59.0411 144.261 59.435 144.261 59.8946ZM143.473 62.4553C143.473 62.1926 143.408 61.93 143.211 61.7987C143.079 61.6017 142.817 61.5361 142.554 61.5361C142.291 61.5361 142.094 61.6017 141.897 61.7987C141.766 61.9957 141.635 62.1926 141.635 62.4553C141.635 62.7179 141.701 62.9805 141.897 63.1118C142.029 63.2432 142.291 63.3745 142.554 63.3745C142.817 63.3745 143.079 63.3088 143.211 63.1118C143.408 62.9805 143.473 62.7179 143.473 62.4553ZM143.342 59.9603C143.342 59.6977 143.276 59.5007 143.145 59.3694C143.014 59.2381 142.817 59.1068 142.554 59.1068C142.291 59.1068 142.16 59.1724 141.963 59.3037C141.832 59.435 141.766 59.632 141.766 59.8946C141.766 60.1573 141.832 60.3542 141.963 60.4856C142.094 60.6169 142.291 60.6825 142.554 60.6825C142.817 60.6825 143.014 60.6169 143.145 60.4856C143.276 60.4199 143.342 60.2229 143.342 59.9603Z" fill="#595959"/>
<path d="M11.1758 55.166H147.085V85.1707C147.085 86.6151 147.085 87.7313 147.019 88.5848C146.953 89.4383 146.822 90.0292 146.559 90.5545C146.1 91.4737 145.312 92.2615 144.393 92.7211C143.868 92.9837 143.277 93.1151 142.423 93.1807C141.57 93.2464 140.453 93.2464 139.009 93.2464H19.2515C17.8071 93.2464 16.6909 93.2464 15.8374 93.1807C14.9839 93.1151 14.3929 92.9837 13.8677 92.7211C12.9485 92.2615 12.1606 91.4737 11.701 90.5545C11.4384 90.0292 11.3071 89.4383 11.2414 88.5848C11.1758 87.7313 11.1758 86.6151 11.1758 85.1707V55.166Z" stroke="#C8C8C8" stroke-width="0.478099"/>
<path d="M140.192 110.319L135.924 114.587L133.626 112.289L134.611 111.304L135.924 112.617L139.207 109.334L140.192 110.319Z" fill="#212121"/>
<path d="M134.282 102.11H139.535C143.54 102.11 146.757 105.327 146.757 109.333V114.585C146.757 118.59 143.54 121.807 139.535 121.807H134.282C130.277 121.807 127.06 118.59 127.06 114.585V109.333C127.06 105.327 130.277 102.11 134.282 102.11Z" stroke="#FFCD17" stroke-width="0.956197"/>
<path d="M22.9564 13.9398L22.8665 14.0363L22.9564 13.9398C22.7134 13.7134 22.3367 13.7134 22.0937 13.9398L18.7603 17.0455C18.6075 17.1878 18.3706 17.1878 18.2177 17.0455L14.8843 13.9398C14.6413 13.7134 14.2646 13.7134 14.0216 13.9398C13.753 14.1901 13.753 14.6156 14.0216 14.8658L17.2482 17.8719C17.4171 18.0293 17.4171 18.2969 17.2482 18.4542L14.0216 21.4603C13.753 21.7106 13.753 22.1361 14.0216 22.3863C14.2646 22.6127 14.6413 22.6127 14.8843 22.3863L18.2177 19.2807C18.3706 19.1383 18.6075 19.1383 18.7603 19.2807L22.0937 22.3863C22.3367 22.6127 22.7134 22.6127 22.9564 22.3863C23.225 22.1361 23.225 21.7106 22.9564 21.4603L19.7298 18.4542C19.5609 18.2969 19.5609 18.0293 19.7298 17.8719L22.9564 14.8658C23.225 14.6156 23.225 14.1901 22.9564 13.9398Z" fill="#F40000" stroke="#F40000" stroke-width="0.265294"/>
<path d="M49.9852 13.9398L49.8953 14.0363L49.9852 13.9398C49.7422 13.7134 49.3655 13.7134 49.1225 13.9398L45.7891 17.0455C45.6363 17.1878 45.3994 17.1878 45.2466 17.0455L41.9131 13.9398C41.6701 13.7134 41.2934 13.7134 41.0504 13.9398C40.7818 14.1901 40.7818 14.6156 41.0504 14.8658L44.277 17.8719C44.4459 18.0293 44.4459 18.2969 44.277 18.4542L41.0504 21.4603C40.7818 21.7106 40.7818 22.1361 41.0504 22.3863C41.2934 22.6127 41.6701 22.6127 41.9131 22.3863L45.2466 19.2807C45.3994 19.1383 45.6363 19.1383 45.7891 19.2807L49.1225 22.3863C49.3655 22.6127 49.7422 22.6127 49.9852 22.3863C50.2538 22.1361 50.2538 21.7106 49.9852 21.4603L46.7587 18.4542C46.5897 18.2969 46.5897 18.0293 46.7587 17.8719L49.9852 14.8658C50.2538 14.6156 50.2538 14.1901 49.9852 13.9398Z" fill="#F40000" stroke="#F40000" stroke-width="0.265294"/>
<path d="M87.0875 18.4284C86.9523 18.2773 86.9523 18.0488 87.0875 17.8978L89.8627 14.7951C90.0624 14.5717 90.0624 14.2339 89.8627 14.0106C89.6288 13.7491 89.2195 13.7491 88.9856 14.0106L86.3573 16.9489C86.1992 17.1258 85.9223 17.1258 85.7641 16.9489L83.1359 14.0106C82.902 13.7491 82.4927 13.7491 82.2588 14.0106C82.0591 14.2339 82.0591 14.5717 82.2588 14.7951L85.034 17.8978C85.1692 18.0488 85.1692 18.2773 85.034 18.4284L82.2588 21.5311C82.0591 21.7544 82.0591 22.0922 82.2588 22.3156C82.4927 22.5771 82.902 22.5771 83.1359 22.3156L85.7641 19.3772C85.9223 19.2004 86.1992 19.2004 86.3573 19.3772L88.9856 22.3156C89.2195 22.5771 89.6288 22.5771 89.8627 22.3156C90.0624 22.0922 90.0624 21.7544 89.8627 21.5311L87.0875 18.4284Z" fill="#F40000" stroke="#F40000" stroke-width="0.265294"/>
<path d="M145.381 13.9398L145.291 14.0363L145.381 13.9398C145.138 13.7134 144.761 13.7134 144.518 13.9398L141.185 17.0455C141.032 17.1878 140.795 17.1878 140.642 17.0455L137.309 13.9398C137.066 13.7134 136.689 13.7134 136.446 13.9398C136.177 14.1901 136.177 14.6156 136.446 14.8658L139.672 17.8719C139.841 18.0293 139.841 18.2969 139.672 18.4542L136.446 21.4603C136.177 21.7106 136.177 22.1361 136.446 22.3863C136.689 22.6127 137.066 22.6127 137.309 22.3863L140.642 19.2807C140.795 19.1383 141.032 19.1383 141.185 19.2807L144.518 22.3863C144.761 22.6127 145.138 22.6127 145.381 22.3863C145.649 22.1361 145.649 21.7106 145.381 21.4603L142.154 18.4542C141.985 18.2969 141.985 18.0293 142.154 17.8719L145.381 14.8658C145.649 14.6156 145.649 14.1901 145.381 13.9398Z" fill="#F40000" stroke="#F40000" stroke-width="0.265294"/>
<path d="M72.7784 18.4284C72.6433 18.2773 72.6433 18.0488 72.7784 17.8978L75.5536 14.7951C75.7534 14.5717 75.7534 14.2339 75.5536 14.0106C75.3197 13.7491 74.9104 13.7491 74.6765 14.0106L72.0483 16.9489C71.8901 17.1258 71.6132 17.1258 71.4551 16.9489L68.8268 14.0106C68.593 13.7491 68.1836 13.7491 67.9497 14.0106C67.75 14.2339 67.75 14.5717 67.9497 14.7951L70.725 17.8978C70.8601 18.0488 70.8601 18.2773 70.725 18.4284L67.9497 21.5311C67.75 21.7544 67.75 22.0922 67.9497 22.3156C68.1836 22.5771 68.593 22.5771 68.8268 22.3156L71.4551 19.3772C71.6132 19.2004 71.8901 19.2004 72.0483 19.3772L74.6765 22.3156C74.9104 22.5771 75.3197 22.5771 75.5536 22.3156C75.7534 22.0922 75.7534 21.7544 75.5536 21.5311L72.7784 18.4284Z" fill="#F40000" stroke="#F40000" stroke-width="0.265294"/>
</svg>
