<svg width="89" height="74" viewBox="0 0 89 74" fill="none" xmlns="http://www.w3.org/2000/svg">
<path d="M7.92272 0.611328H80.7935C84.6192 0.611328 87.7162 3.70834 87.7162 7.53406V65.8308C87.7162 69.6565 84.6192 72.7535 80.7935 72.7535H7.92272C4.09701 72.7535 1 69.6565 1 65.8308V7.53406C1 3.70834 4.09701 0.611328 7.92272 0.611328Z" fill="white" stroke="#FFCD17" stroke-width="0.829317"/>
<path d="M9.19758 60.3652H8.79679V58.9442H7.23007V60.3652H6.82928V57.2682H7.23007V58.6163H8.79679V57.2682H9.19758V60.3652ZM9.85341 59.1993C9.85341 58.9807 9.88985 58.7621 9.99916 58.5799C10.072 58.3977 10.2178 58.252 10.3635 58.1791C10.5457 58.0698 10.7279 58.0333 10.91 58.0333C11.238 58.0333 11.493 58.1426 11.6752 58.3613C11.8574 58.5799 11.9667 58.8714 11.9667 59.2357V59.2722C11.9667 59.4908 11.9302 59.7094 11.8209 59.8916C11.7481 60.0738 11.6023 60.2195 11.4566 60.2924C11.3108 60.4017 11.1287 60.4381 10.91 60.4381C10.5821 60.4381 10.3271 60.3288 10.1449 60.1102C9.96272 59.8551 9.85341 59.5637 9.85341 59.1993ZM10.2542 59.2357C10.2542 59.4908 10.3271 59.7094 10.4364 59.8551C10.5457 60.0009 10.7279 60.0738 10.91 60.0738C11.0922 60.0738 11.2744 60.0009 11.3837 59.8551C11.493 59.7094 11.5659 59.4908 11.5659 59.1993C11.5659 58.9442 11.493 58.7256 11.3837 58.5799C11.2744 58.4341 11.0922 58.3248 10.91 58.3613C10.7279 58.3613 10.5457 58.4341 10.4364 58.5799C10.3271 58.7256 10.2542 58.9442 10.2542 59.2357ZM13.8613 59.8551L14.6629 58.0698H15.173V60.3652H14.7722V58.6892L14.007 60.3652H13.7156L12.9504 58.6527V60.3652H12.5496V58.0698H13.0597L13.8613 59.8551ZM16.8126 60.4017C16.4847 60.4017 16.2296 60.2924 16.0474 60.1102C15.8653 59.8916 15.7559 59.6365 15.7559 59.2722V59.1993C15.7559 58.9807 15.7924 58.7621 15.9017 58.5799C15.9746 58.3977 16.1203 58.2519 16.266 58.1426C16.4118 58.0333 16.594 57.9969 16.7761 57.9969C17.0676 57.9969 17.3227 58.1062 17.4684 58.2884C17.6142 58.4706 17.7235 58.7621 17.7235 59.1264V59.3086H16.1567C16.1567 59.5272 16.2296 59.7094 16.3389 59.8551C16.4847 60.0009 16.6304 60.0738 16.8126 60.0738C16.9583 60.0738 17.0676 60.0373 17.1769 60.0009C17.2862 59.928 17.3591 59.8551 17.432 59.7823L17.687 59.9644C17.4684 60.2559 17.1769 60.4017 16.8126 60.4017ZM16.7397 58.3248C16.594 58.3248 16.4482 58.3977 16.3389 58.507C16.2296 58.6163 16.1567 58.7985 16.1203 58.9807H17.2862V58.9442C17.2862 58.7256 17.2134 58.5799 17.1405 58.4706C17.0312 58.3977 16.9219 58.3248 16.7397 58.3248ZM20.1646 59.2357C20.1646 59.6001 20.0918 59.8551 19.9096 60.0738C19.7638 60.2924 19.5452 60.4017 19.2537 60.4017C18.9623 60.4017 18.7437 60.3288 18.5979 60.1466V61.2761H18.1971V58.0698H18.5615L18.5979 58.3248C18.7437 58.1426 18.9987 58.0333 19.2537 58.0333C19.5452 58.0333 19.7638 58.1426 19.9096 58.3613C20.0918 58.5434 20.1646 58.8349 20.1646 59.2357ZM19.8003 59.1993C19.8003 58.9442 19.7274 58.7256 19.6181 58.5799C19.5088 58.4341 19.3631 58.3613 19.1444 58.3613C18.8894 58.3613 18.7437 58.4706 18.5979 58.6892V59.7823C18.7072 60.0009 18.8894 60.1102 19.1444 60.1102C19.3266 60.1102 19.4724 60.0373 19.5817 59.8916C19.7274 59.7094 19.8003 59.4908 19.8003 59.1993ZM22.9337 58.1791C23.2252 58.1791 23.4438 58.2884 23.626 58.4706C23.8082 58.6527 23.881 58.9078 23.881 59.2357V59.2722C23.881 59.4908 23.8446 59.673 23.7717 59.8551C23.6989 60.0373 23.5531 60.1466 23.4074 60.2559C23.2616 60.3652 23.0795 60.4017 22.8609 60.4017C22.5329 60.4017 22.3143 60.2924 22.0957 60.1102C21.9135 59.8916 21.8042 59.6365 21.8042 59.2722V59.09C21.8042 58.6163 21.8771 58.2155 22.0593 57.924C22.2414 57.6325 22.4965 57.4504 22.8609 57.4139C23.043 57.3775 23.1888 57.3411 23.2616 57.2682C23.3345 57.2317 23.3709 57.1224 23.3709 57.0496H23.6989C23.6989 57.2317 23.6624 57.3775 23.5896 57.4504C23.5167 57.5597 23.3709 57.6325 23.1888 57.669L22.8973 57.7418C22.6787 57.8147 22.4965 57.8876 22.3508 58.0333C22.2414 58.1791 22.1686 58.3248 22.1321 58.5434C22.3872 58.3248 22.6422 58.1791 22.9337 58.1791ZM22.8609 58.507C22.6787 58.507 22.4965 58.5799 22.3872 58.6892C22.2779 58.8349 22.205 59.0171 22.205 59.2357V59.2722C22.205 59.5272 22.2779 59.7094 22.3872 59.8551C22.4965 60.0009 22.6422 60.0738 22.8609 60.0738C23.043 60.0738 23.2252 60.0009 23.3345 59.8551C23.4438 59.7094 23.5167 59.4908 23.5167 59.2357C23.5167 59.0171 23.4438 58.8349 23.3345 58.7256C23.1888 58.5799 23.043 58.507 22.8609 58.507ZM25.8486 58.0698H26.2493V60.3652H25.8486V58.6892L24.7919 60.3652H24.3911V58.0698H24.7919V59.7458L25.8486 58.0698ZM28.8727 58.0698V60.3652H28.4719V58.3977H27.6703L27.6339 59.2722C27.5975 59.673 27.5246 59.9644 27.4153 60.1102C27.306 60.2924 27.1238 60.3652 26.9052 60.3652H26.7594V60.0009H26.8687C27.0145 60.0009 27.0874 59.928 27.1602 59.7823C27.2331 59.6365 27.2331 59.4179 27.2695 59.0535L27.306 58.0698H28.8727ZM30.5123 60.4017C30.1844 60.4017 29.9293 60.2924 29.7471 60.1102C29.565 59.8916 29.4557 59.6365 29.4557 59.2722V59.1993C29.4557 58.9807 29.4921 58.7621 29.6014 58.5799C29.6743 58.3977 29.82 58.2519 29.9658 58.1426C30.1115 58.0333 30.2937 57.9969 30.4758 57.9969C30.7673 57.9969 31.0224 58.1062 31.1681 58.2884C31.3139 58.4706 31.4232 58.7621 31.4232 59.1264V59.3086H29.8564C29.8564 59.5272 29.9293 59.7094 30.0386 59.8551C30.1844 60.0009 30.3301 60.0738 30.5123 60.0738C30.658 60.0738 30.7673 60.0373 30.8766 60.0009C30.9859 59.928 31.0588 59.8551 31.1317 59.7823L31.3867 59.9644C31.2046 60.2559 30.9131 60.4017 30.5123 60.4017ZM30.4758 58.3248C30.3301 58.3248 30.1844 58.3977 30.0751 58.507C29.9658 58.6163 29.8929 58.7985 29.8564 58.9807H31.0224V58.9442C31.0224 58.7256 30.9495 58.5799 30.8766 58.4706C30.7673 58.3977 30.6216 58.3248 30.4758 58.3248ZM33.6457 58.3613H32.8806V60.3652H32.4798V58.3613H31.7147V58.0333H33.6457V58.3613ZM35.5039 60.3652C35.4675 60.3288 35.4675 60.2559 35.4311 60.1102C35.2489 60.2924 35.0303 60.4017 34.7752 60.4017C34.5566 60.4017 34.3744 60.3288 34.2287 60.2195C34.083 60.1102 34.0101 59.928 34.0101 59.7458C34.0101 59.4908 34.083 59.3086 34.3016 59.1993C34.4837 59.0535 34.7388 58.9807 35.0667 58.9807H35.4675V58.7985C35.4675 58.6527 35.4311 58.5434 35.3582 58.4706C35.2853 58.3977 35.1396 58.3613 34.9938 58.3613C34.8481 58.3613 34.7388 58.3977 34.6295 58.4706C34.5202 58.5434 34.4837 58.6163 34.4837 58.7256H34.083C34.083 58.6163 34.1194 58.507 34.1923 58.3977C34.2651 58.2884 34.4109 58.2155 34.5202 58.1426C34.6659 58.0698 34.8117 58.0333 34.9938 58.0333C35.2489 58.0333 35.4675 58.1062 35.6132 58.252C35.759 58.3977 35.8319 58.5799 35.8319 58.7985V59.8551C35.8319 60.0738 35.8683 60.2195 35.9047 60.3652V60.4017H35.5039V60.3652ZM34.8481 60.0738C34.9574 60.0738 35.1031 60.0373 35.2124 59.9644C35.3218 59.8916 35.3946 59.8187 35.4675 59.7094V59.2357H35.176C34.7024 59.2357 34.4473 59.3815 34.4473 59.673C34.4473 59.7823 34.4837 59.8916 34.5566 59.9644C34.593 60.0373 34.7024 60.0738 34.8481 60.0738ZM8.25026 64.8104C8.17739 64.9197 8.06808 64.9926 7.95877 65.0291C7.84947 65.1019 7.70373 65.1019 7.59442 65.1019C7.41224 65.1019 7.2665 65.0655 7.12076 64.9562C6.97502 64.8469 6.86571 64.7376 6.82928 64.5918C6.75641 64.4096 6.71997 64.2275 6.71997 64.0453C6.71997 63.8267 6.75641 63.6445 6.82928 63.4987C6.90215 63.3166 7.01145 63.2073 7.1572 63.1344C7.30294 63.0615 7.48511 62.9886 7.66729 62.9886C7.95877 62.9886 8.21382 63.0979 8.396 63.3166C8.57818 63.5352 8.65105 63.8631 8.65105 64.2639V64.3732C8.65105 64.9926 8.54174 65.4299 8.28669 65.6849C8.03164 65.9764 7.70373 66.1221 7.19363 66.1221H7.12076V65.7942H7.19363C7.52155 65.7942 7.7766 65.7213 7.95877 65.5392C8.14095 65.4299 8.21382 65.1748 8.25026 64.8104ZM7.63086 64.8104C7.7766 64.8104 7.8859 64.774 7.99521 64.7011C8.10452 64.6283 8.17739 64.519 8.25026 64.4096V64.2639C8.25026 64.0088 8.17739 63.7902 8.06808 63.6445C7.95877 63.4987 7.81303 63.3894 7.63086 63.3894C7.48511 63.3894 7.30294 63.4623 7.23007 63.608C7.12076 63.7538 7.08432 63.8995 7.08432 64.1182C7.08432 64.3368 7.12076 64.519 7.23007 64.6283C7.30294 64.774 7.44868 64.8469 7.63086 64.8104ZM10.7643 64.8104C10.6914 64.9197 10.5821 64.9926 10.4728 65.0291C10.3635 65.1019 10.2178 65.1019 10.1085 65.1019C9.92629 65.1019 9.78054 65.0655 9.6348 64.9562C9.48906 64.8469 9.37975 64.7376 9.34332 64.5918C9.27045 64.4096 9.23401 64.2275 9.23401 64.0453C9.23401 63.8267 9.27045 63.6445 9.34332 63.4987C9.41619 63.3166 9.5255 63.2073 9.67124 63.1344C9.81698 63.0615 9.99916 62.9886 10.1813 62.9886C10.4728 62.9886 10.7279 63.0979 10.91 63.3166C11.0922 63.5352 11.1651 63.8631 11.1651 64.2639V64.3732C11.1651 64.9926 11.0558 65.4299 10.8007 65.6849C10.5457 65.9764 10.2178 66.1221 9.70767 66.1221H9.6348V65.7942H9.74411C10.072 65.7942 10.3271 65.7213 10.5093 65.5392C10.655 65.4299 10.7643 65.1748 10.7643 64.8104ZM10.1449 64.8104C10.2906 64.8104 10.3999 64.774 10.5093 64.7011C10.6186 64.6283 10.6914 64.519 10.7643 64.4096V64.2639C10.7643 64.0088 10.6914 63.7902 10.5821 63.6445C10.4728 63.4987 10.3271 63.3894 10.1449 63.3894C9.96272 63.3894 9.81698 63.4623 9.74411 63.608C9.6348 63.7538 9.59837 63.8995 9.59837 64.1182C9.59837 64.3368 9.6348 64.519 9.74411 64.6283C9.85341 64.774 9.99916 64.8104 10.1449 64.8104ZM13.2783 64.8104C13.2055 64.9197 13.0962 64.9926 12.9869 65.0291C12.8776 65.1019 12.7318 65.1019 12.6225 65.1019C12.4403 65.1019 12.2946 65.0655 12.1488 64.9562C12.0031 64.8469 11.8938 64.7376 11.8574 64.5918C11.7845 64.4096 11.7481 64.2275 11.7481 64.0453C11.7481 63.8267 11.7845 63.6445 11.8574 63.4987C11.9302 63.3166 12.0395 63.2073 12.1853 63.1344C12.331 63.0615 12.5132 62.9886 12.6954 62.9886C12.9869 62.9886 13.2419 63.0979 13.4241 63.3166C13.6063 63.5352 13.6791 63.8631 13.6791 64.2639V64.3732C13.6791 64.9926 13.5698 65.4299 13.3148 65.6849C13.0597 65.9764 12.7318 66.1221 12.2217 66.1221H12.1488V65.7942H12.2217C12.5496 65.7942 12.8047 65.7213 12.9869 65.5392C13.169 65.4299 13.2783 65.1748 13.2783 64.8104ZM12.6954 64.8104C12.8411 64.8104 12.9504 64.774 13.0597 64.7011C13.169 64.6283 13.2419 64.519 13.3148 64.4096V64.2639C13.3148 64.0088 13.2419 63.7902 13.1326 63.6445C13.0233 63.4987 12.8776 63.3894 12.6954 63.3894C12.5132 63.3894 12.3675 63.4623 12.2946 63.608C12.1853 63.7538 12.1488 63.8995 12.1488 64.1182C12.1488 64.3368 12.1853 64.519 12.2946 64.6283C12.3675 64.774 12.5132 64.8104 12.6954 64.8104ZM15.8288 64.8104C15.7559 64.9197 15.6466 64.9926 15.5373 65.0291C15.428 65.1019 15.2823 65.1384 15.173 65.1019C14.9908 65.1019 14.8451 65.0655 14.6993 64.9562C14.5536 64.8469 14.4443 64.7376 14.4078 64.5918C14.335 64.4096 14.2985 64.2275 14.2985 64.0453C14.2985 63.8267 14.335 63.6445 14.4078 63.4987C14.4807 63.3166 14.59 63.2073 14.7358 63.1344C14.8815 63.0615 15.0637 62.9886 15.2459 62.9886C15.5373 62.9886 15.7924 63.0979 15.9746 63.3166C16.1567 63.5352 16.2296 63.8631 16.2296 64.2639V64.3732C16.2296 64.9926 16.1203 65.4299 15.8653 65.6849C15.6102 65.9764 15.2823 66.1221 14.7722 66.1221H14.6993V65.7942H14.7722C15.1001 65.7942 15.3552 65.7213 15.5373 65.5392C15.7195 65.4299 15.7924 65.1748 15.8288 64.8104ZM15.2094 64.8104C15.3552 64.8104 15.4645 64.774 15.5738 64.7011C15.6831 64.6283 15.7559 64.519 15.8288 64.4096V64.2639C15.8288 64.0088 15.7559 63.7902 15.6466 63.6445C15.5373 63.4987 15.3916 63.3894 15.2094 63.3894C15.0272 63.3894 14.8815 63.4623 14.8086 63.608C14.6993 63.7538 14.6629 63.8995 14.6629 64.1182C14.6629 64.3368 14.6993 64.519 14.8086 64.6283C14.9179 64.774 15.0272 64.8104 15.2094 64.8104ZM19.5088 64.8104C19.4359 64.9197 19.3266 64.9926 19.2173 65.0291C19.108 65.1019 18.9623 65.1019 18.853 65.1019C18.6708 65.1019 18.525 65.0655 18.3793 64.9562C18.2336 64.8469 18.1242 64.7376 18.0878 64.5918C18.0149 64.4096 17.9785 64.2275 17.9785 64.0453C17.9785 63.8267 18.0149 63.6445 18.0878 63.4987C18.1607 63.3166 18.27 63.2073 18.4157 63.1344C18.5615 63.0615 18.7437 62.9886 18.9258 62.9886C19.2173 62.9886 19.4724 63.0979 19.6545 63.3166C19.8367 63.5352 19.9096 63.8631 19.9096 64.2639V64.3732C19.9096 64.9926 19.8003 65.4299 19.5452 65.6849C19.2902 65.9764 18.9623 66.1221 18.4522 66.1221H18.3793V65.7942H18.4522C18.7801 65.7942 19.0351 65.7213 19.2173 65.5392C19.3995 65.4299 19.4724 65.1748 19.5088 64.8104ZM18.8894 64.8104C19.0351 64.8104 19.1444 64.774 19.2537 64.7011C19.3631 64.6283 19.4359 64.519 19.5088 64.4096V64.2639C19.5088 64.0088 19.4359 63.7902 19.3266 63.6445C19.2173 63.4987 19.0716 63.3894 18.8894 63.3894C18.7072 63.3894 18.5615 63.4623 18.4886 63.608C18.3793 63.7538 18.3429 63.8995 18.3429 64.1182C18.3429 64.3368 18.3793 64.519 18.4886 64.6283C18.5979 64.774 18.7437 64.8104 18.8894 64.8104ZM22.0228 64.8104C21.95 64.9197 21.8407 64.9926 21.7314 65.0291C21.622 65.1019 21.4763 65.1384 21.367 65.1019C21.1848 65.1019 21.0391 65.0655 20.8933 64.9562C20.7476 64.8469 20.6383 64.7376 20.6019 64.5918C20.529 64.4096 20.4925 64.2275 20.4925 64.0453C20.4925 63.8267 20.529 63.6445 20.6019 63.4987C20.6747 63.3166 20.784 63.2073 20.9298 63.1344C21.0755 63.0615 21.2577 62.9886 21.4399 62.9886C21.7314 62.9886 21.9864 63.0979 22.1686 63.3166C22.3508 63.5352 22.4236 63.8631 22.4236 64.2639V64.3732C22.4236 64.9926 22.3143 65.4299 22.0593 65.6849C21.8042 65.9764 21.4763 66.1221 20.9662 66.1221H20.8933V65.7942H20.9662C21.2941 65.7942 21.5492 65.7213 21.7314 65.5392C21.9135 65.4299 22.0228 65.1748 22.0228 64.8104ZM21.4399 64.8104C21.5856 64.8104 21.6949 64.774 21.8042 64.7011C21.9135 64.6283 21.9864 64.519 22.0593 64.4096V64.2639C22.0593 64.0088 21.9864 63.7902 21.8771 63.6445C21.7678 63.4987 21.622 63.3894 21.4399 63.3894C21.2941 63.3894 21.112 63.4623 21.0391 63.608C20.9298 63.7538 20.8933 63.8995 20.8933 64.1182C20.8933 64.3368 20.9298 64.519 21.0391 64.6283C21.112 64.774 21.2577 64.8469 21.4399 64.8104ZM24.5733 64.8104C24.5004 64.9197 24.3911 64.9926 24.2818 65.0291C24.1725 65.1019 24.0268 65.1019 23.9175 65.1019C23.7353 65.1019 23.5896 65.0655 23.4438 64.9562C23.2981 64.8469 23.1888 64.7376 23.1523 64.5918C23.0795 64.4096 23.043 64.2275 23.043 64.0453C23.043 63.8267 23.0795 63.6445 23.1523 63.4987C23.2252 63.3166 23.3345 63.2073 23.4803 63.1344C23.626 63.0615 23.8082 62.9886 23.9903 62.9886C24.2818 62.9886 24.5369 63.0979 24.7191 63.3166C24.9012 63.5352 24.9741 63.8631 24.9741 64.2639V64.3732C24.9741 64.9926 24.8648 65.4299 24.6098 65.6849C24.3547 65.9764 24.0268 66.1221 23.5167 66.1221H23.4438V65.7942H23.5167C23.8446 65.7942 24.0997 65.7213 24.2818 65.5392C24.464 65.4299 24.5369 65.1748 24.5733 64.8104ZM23.9539 64.8104C24.0997 64.8104 24.209 64.774 24.3183 64.7011C24.4276 64.6283 24.5004 64.519 24.5733 64.4096V64.2639C24.5733 64.0088 24.5004 63.7902 24.3911 63.6445C24.2818 63.4987 24.1361 63.3894 23.9539 63.3894C23.7717 63.3894 23.626 63.4623 23.5531 63.608C23.4438 63.7538 23.4074 63.8995 23.4074 64.1182C23.4074 64.3368 23.4438 64.519 23.5531 64.6283C23.6624 64.774 23.7717 64.8104 23.9539 64.8104ZM27.0874 64.8104C27.0145 64.9197 26.9052 64.9926 26.7959 65.0291C26.6866 65.1019 26.5408 65.1019 26.4315 65.1019C26.2493 65.1019 26.1036 65.0655 25.9579 64.9562C25.8121 64.8469 25.7028 64.7376 25.6664 64.5918C25.5935 64.4096 25.5571 64.2275 25.5571 64.0453C25.5571 63.8267 25.5935 63.6445 25.6664 63.4987C25.7392 63.3166 25.8486 63.2073 25.9943 63.1344C26.14 63.0615 26.3222 62.9886 26.5044 62.9886C26.7959 62.9886 27.0509 63.0979 27.2331 63.3166C27.4153 63.5352 27.4881 63.8631 27.4881 64.2639V64.3732C27.4881 64.9926 27.3788 65.4299 27.1238 65.6849C26.8687 65.9764 26.5408 66.1221 26.0307 66.1221H25.9579V65.7942H26.0307C26.3586 65.7942 26.6137 65.7213 26.7959 65.5392C26.9781 65.4299 27.0874 65.1748 27.0874 64.8104ZM26.468 64.8104C26.6137 64.8104 26.723 64.774 26.8323 64.7011C26.9416 64.6283 27.0145 64.519 27.0874 64.4096V64.2639C27.0874 64.0088 27.0145 63.7902 26.9052 63.6445C26.7959 63.4987 26.6501 63.3894 26.468 63.3894C26.2858 63.3894 26.14 63.4623 26.0672 63.608C25.9579 63.7538 25.9214 63.8995 25.9214 64.1182C25.9214 64.3368 25.9579 64.519 26.0672 64.6283C26.1765 64.774 26.3222 64.8104 26.468 64.8104ZM30.7673 64.8104C30.6945 64.9197 30.5852 64.9926 30.4758 65.0291C30.3665 65.1019 30.2208 65.1019 30.1115 65.1019C29.9293 65.1019 29.7836 65.0655 29.6378 64.9562C29.4921 64.8469 29.3828 64.7376 29.3464 64.5918C29.2735 64.4096 29.237 64.2275 29.237 64.0453C29.237 63.8267 29.2735 63.6445 29.3464 63.4987C29.4192 63.3166 29.5285 63.2073 29.6743 63.1344C29.82 63.0615 30.0022 62.9886 30.1844 62.9886C30.4758 62.9886 30.7309 63.0979 30.9131 63.3166C31.0952 63.5352 31.1681 63.8631 31.1681 64.2639V64.3732C31.1681 64.9926 31.0588 65.4299 30.8038 65.6849C30.5487 65.9764 30.2208 66.1221 29.7107 66.1221H29.6378V65.7942H29.7107C30.0386 65.7942 30.2937 65.7213 30.4758 65.5392C30.658 65.4299 30.7673 65.1748 30.7673 64.8104ZM30.1844 64.8104C30.3301 64.8104 30.4394 64.774 30.5487 64.7011C30.658 64.6283 30.7309 64.519 30.8038 64.4096V64.2639C30.8038 64.0088 30.7309 63.7902 30.6216 63.6445C30.5123 63.4987 30.3665 63.3894 30.1844 63.3894C30.0022 63.3894 29.8564 63.4623 29.7836 63.608C29.6743 63.7538 29.6378 63.8995 29.6378 64.1182C29.6378 64.3368 29.6743 64.519 29.7836 64.6283C29.8564 64.774 30.0022 64.8104 30.1844 64.8104ZM33.3178 64.8104C33.2449 64.9197 33.1356 64.9926 33.0263 65.0291C32.917 65.1019 32.7713 65.1019 32.662 65.1019C32.4798 65.1019 32.3341 65.0655 32.1883 64.9562C32.0426 64.8469 31.9333 64.7376 31.8968 64.5918C31.824 64.4096 31.7875 64.2275 31.7875 64.0453C31.7875 63.8267 31.824 63.6445 31.8968 63.4987C31.9697 63.3166 32.079 63.2073 32.2247 63.1344C32.3705 63.0615 32.5527 62.9886 32.7348 62.9886C33.0263 62.9886 33.2814 63.0979 33.4635 63.3166C33.6457 63.5352 33.7186 63.8631 33.7186 64.2639V64.3732C33.7186 64.9926 33.6093 65.4299 33.3542 65.6849C33.0992 65.9764 32.7713 66.1221 32.2612 66.1221H32.1883V65.7942H32.2612C32.5891 65.7942 32.8441 65.7213 33.0263 65.5392C33.2085 65.4299 33.2814 65.1748 33.3178 64.8104ZM32.6984 64.8104C32.8442 64.8104 32.9535 64.774 33.0628 64.7011C33.1721 64.6283 33.2449 64.519 33.3178 64.4096V64.2639C33.3178 64.0088 33.2449 63.7902 33.1356 63.6445C33.0263 63.4987 32.8806 63.3894 32.6984 63.3894C32.5162 63.3894 32.3705 63.4623 32.2976 63.608C32.1883 63.7538 32.1519 63.8995 32.1519 64.1182C32.1519 64.3368 32.1883 64.519 32.2976 64.6283C32.3705 64.774 32.5162 64.8104 32.6984 64.8104ZM35.8319 64.8104C35.759 64.9197 35.6497 64.9926 35.5404 65.0291C35.4311 65.1019 35.2853 65.1019 35.176 65.1019C34.9938 65.1019 34.8481 65.0655 34.7024 64.9562C34.5566 64.8469 34.4473 64.7376 34.4109 64.5918C34.338 64.4096 34.3016 64.2275 34.3016 64.0453C34.3016 63.8267 34.338 63.6445 34.4109 63.4987C34.4837 63.3166 34.593 63.2073 34.7388 63.1344C34.8845 63.0615 35.0667 62.9886 35.2489 62.9886C35.5404 62.9886 35.7954 63.0979 35.9776 63.3166C36.1598 63.5352 36.2326 63.8631 36.2326 64.2639V64.3732C36.2326 64.9926 36.1233 65.4299 35.8683 65.6849C35.6132 65.9764 35.2853 66.1221 34.7752 66.1221H34.7024V65.7942H34.7752C35.1031 65.7942 35.3582 65.7213 35.5404 65.5392C35.7225 65.4299 35.8319 65.1748 35.8319 64.8104ZM35.2124 64.8104C35.3582 64.8104 35.4675 64.774 35.5768 64.7011C35.6861 64.6283 35.759 64.519 35.8319 64.4096V64.2639C35.8319 64.0088 35.759 63.7902 35.6497 63.6445C35.5404 63.4987 35.3946 63.3894 35.2124 63.3894C35.0667 63.3894 34.8845 63.4623 34.8117 63.608C34.7024 63.7538 34.6659 63.8995 34.6659 64.1182C34.6659 64.3368 34.7024 64.519 34.8117 64.6283C34.921 64.774 35.0667 64.8469 35.2124 64.8104ZM38.3459 64.8104C38.273 64.9197 38.1637 64.9926 38.0544 65.0291C37.9451 65.1019 37.7994 65.1019 37.6901 65.1019C37.5079 65.1019 37.3621 65.0655 37.2164 64.9562C37.0707 64.8469 36.9613 64.7376 36.9249 64.5918C36.852 64.4096 36.8156 64.2275 36.8156 64.0453C36.8156 63.8267 36.852 63.6445 36.9249 63.4987C36.9978 63.3166 37.1071 63.2073 37.2528 63.1344C37.3986 63.0615 37.5807 62.9886 37.7629 62.9886C38.0544 62.9886 38.3095 63.0979 38.4916 63.3166C38.6738 63.5352 38.7467 63.8631 38.7467 64.2639V64.3732C38.7467 64.9926 38.6374 65.4299 38.3823 65.6849C38.1273 65.9764 37.7994 66.1221 37.2893 66.1221H37.2164V65.7942H37.2893C37.6172 65.7942 37.8722 65.7213 38.0544 65.5392C38.2366 65.4299 38.3459 65.1748 38.3459 64.8104ZM37.7629 64.8104C37.9087 64.8104 38.018 64.774 38.1273 64.7011C38.2366 64.6283 38.3095 64.519 38.3823 64.4096V64.2639C38.3823 64.0088 38.3095 63.7902 38.2001 63.6445C38.0908 63.4987 37.9451 63.3894 37.7629 63.3894C37.5807 63.3894 37.435 63.4623 37.3621 63.608C37.2528 63.7538 37.2164 63.8995 37.2164 64.1182C37.2164 64.3368 37.2528 64.519 37.3621 64.6283C37.435 64.774 37.5807 64.8104 37.7629 64.8104ZM42.0623 64.8104C41.9894 64.9197 41.8801 64.9926 41.7708 65.0291C41.6615 65.1019 41.5158 65.1019 41.4065 65.1019C41.2243 65.1019 41.0785 65.0655 40.9328 64.9562C40.7871 64.8469 40.6778 64.7376 40.6413 64.5918C40.5685 64.4096 40.532 64.2275 40.532 64.0453C40.532 63.8267 40.5685 63.6445 40.6413 63.4987C40.7142 63.3166 40.8235 63.2073 40.9692 63.1344C41.115 63.0615 41.2972 62.9886 41.4793 62.9886C41.7708 62.9886 42.0259 63.0979 42.208 63.3166C42.3902 63.5352 42.4631 63.8631 42.4631 64.2639V64.3732C42.4631 64.9926 42.3538 65.4299 42.0987 65.6849C41.8437 65.9764 41.5158 66.1221 41.0057 66.1221H40.9328V65.7942H41.0057C41.3336 65.7942 41.5886 65.7213 41.7708 65.5392C41.9166 65.4299 42.0259 65.1748 42.0623 64.8104ZM41.4429 64.8104C41.5886 64.8104 41.698 64.774 41.8073 64.7011C41.9166 64.6283 41.9894 64.519 42.0623 64.4096V64.2639C42.0623 64.0088 41.9894 63.7902 41.8801 63.6445C41.7708 63.4987 41.6251 63.3894 41.4429 63.3894C41.2972 63.3894 41.115 63.4623 41.0421 63.608C40.9328 63.7538 40.8964 63.8995 40.8964 64.1182C40.8964 64.3368 40.9328 64.519 41.0421 64.6283C41.115 64.774 41.2607 64.8469 41.4429 64.8104ZM44.5763 64.8104C44.5035 64.9197 44.3942 64.9926 44.2849 65.0291C44.1756 65.1019 44.0298 65.1019 43.9205 65.1019C43.7383 65.1019 43.5926 65.0655 43.4468 64.9562C43.3011 64.8469 43.1918 64.7376 43.1554 64.5918C43.0825 64.4096 43.0461 64.2275 43.0461 64.0453C43.0461 63.8267 43.0825 63.6445 43.1554 63.4987C43.2282 63.3166 43.3375 63.2073 43.4833 63.1344C43.629 63.0615 43.8112 62.9886 43.9934 62.9886C44.2849 62.9886 44.5399 63.0979 44.7221 63.3166C44.9043 63.5352 44.9771 63.8631 44.9771 64.2639V64.3732C44.9771 64.9926 44.8678 65.4299 44.6128 65.6849C44.3577 65.9764 44.0298 66.1221 43.5197 66.1221H43.4468V65.7942H43.5197C43.8476 65.7942 44.1027 65.7213 44.2849 65.5392C44.467 65.4299 44.5399 65.1748 44.5763 64.8104ZM43.9569 64.8104C44.1027 64.8104 44.212 64.774 44.3213 64.7011C44.4306 64.6283 44.5035 64.519 44.5763 64.4096V64.2639C44.5763 64.0088 44.5035 63.7902 44.3942 63.6445C44.2849 63.4987 44.1391 63.3894 43.9569 63.3894C43.7748 63.3894 43.629 63.4623 43.5562 63.608C43.4468 63.7538 43.4104 63.8995 43.4104 64.1182C43.4104 64.3368 43.4468 64.519 43.5562 64.6283C43.6655 64.774 43.8112 64.8104 43.9569 64.8104ZM47.0904 64.8104C47.0175 64.9197 46.9082 64.9926 46.7989 65.0291C46.6896 65.1019 46.5439 65.1019 46.4346 65.1019C46.2524 65.1019 46.1066 65.0655 45.9609 64.9562C45.8151 64.8469 45.7058 64.7376 45.6694 64.5918C45.5965 64.4096 45.5601 64.2275 45.5601 64.0453C45.5601 63.8267 45.5965 63.6445 45.6694 63.4987C45.7423 63.3166 45.8516 63.2073 45.9973 63.1344C46.1431 63.0615 46.3252 62.9886 46.5074 62.9886C46.7989 62.9886 47.054 63.0979 47.2361 63.3166C47.4183 63.5352 47.4912 63.8631 47.4912 64.2639V64.3732C47.4912 64.9926 47.3819 65.4299 47.1268 65.6849C46.8718 65.9764 46.5439 66.1221 46.0338 66.1221H45.9609V65.7942H46.0338C46.3617 65.7942 46.6167 65.7213 46.7989 65.5392C46.9811 65.4299 47.0904 65.1748 47.0904 64.8104ZM46.5074 64.8104C46.6532 64.8104 46.7625 64.774 46.8718 64.7011C46.9811 64.6283 47.054 64.519 47.1268 64.4096V64.2639C47.1268 64.0088 47.054 63.7902 46.9446 63.6445C46.8353 63.4987 46.6896 63.3894 46.5074 63.3894C46.3252 63.3894 46.1795 63.4623 46.1066 63.608C45.9973 63.7538 45.9609 63.8995 45.9609 64.1182C45.9609 64.3368 45.9973 64.519 46.1066 64.6283C46.1795 64.774 46.3252 64.8104 46.5074 64.8104ZM49.6409 64.8104C49.568 64.9197 49.4587 64.9926 49.3494 65.0291C49.2401 65.1019 49.0943 65.1019 48.985 65.1019C48.8029 65.1019 48.6571 65.0655 48.5114 64.9562C48.3656 64.8469 48.2563 64.7376 48.2199 64.5918C48.147 64.4096 48.1106 64.2275 48.1106 64.0453C48.1106 63.8267 48.147 63.6445 48.2199 63.4987C48.2928 63.3166 48.4021 63.2073 48.5478 63.1344C48.6935 63.0615 48.8757 62.9886 49.0579 62.9886C49.3494 62.9886 49.6044 63.0979 49.7866 63.3166C49.9688 63.5352 50.0417 63.8631 50.0417 64.2639V64.3732C50.0417 64.9926 49.9324 65.4299 49.6773 65.6849C49.4223 65.9764 49.0943 66.1221 48.5842 66.1221H48.5114V65.7942H48.5842C48.9122 65.7942 49.1672 65.7213 49.3494 65.5392C49.5316 65.4299 49.6044 65.1748 49.6409 64.8104ZM49.0215 64.8104C49.1672 64.8104 49.2765 64.774 49.3858 64.7011C49.4951 64.6283 49.568 64.519 49.6409 64.4096V64.2639C49.6409 64.0088 49.568 63.7902 49.4587 63.6445C49.3494 63.4987 49.2036 63.3894 49.0215 63.3894C48.8757 63.3894 48.6935 63.4623 48.6207 63.608C48.5114 63.7538 48.4749 63.8995 48.4749 64.1182C48.4749 64.3368 48.5114 64.519 48.6207 64.6283C48.6935 64.774 48.8757 64.8469 49.0215 64.8104Z" fill="#C8C8C8"/>
<path d="M6.65015 10.7408C6.65015 9.93923 6.65015 9.31983 6.68658 8.84617C6.72302 8.37252 6.79589 8.0446 6.94163 7.75312C7.19668 7.24303 7.6339 6.8058 8.144 6.55076C8.43548 6.40502 8.7634 6.33215 9.23706 6.29571C9.71072 6.25928 10.3301 6.25928 11.1317 6.25928H14.1194V13.2548H6.65015V10.7408ZM44.3972 6.25928H51.8665V13.2548H44.3972V6.25928ZM14.1923 6.25928H21.6615V13.2548H14.1923V6.25928ZM51.9393 6.25928H59.4086V13.2548H51.9393V6.25928ZM21.7344 6.25928H29.2036V13.2548H21.7344V6.25928ZM59.4815 6.25928H66.9507V13.2548H59.4815V6.25928ZM29.313 6.25928H36.7822V13.2548H29.313V6.25928ZM67.0236 6.25928H74.4928V13.2548H67.0236V6.25928ZM36.8551 6.25928H44.3243V13.2548H36.8551V6.25928ZM74.6021 6.25928H77.5898C78.3914 6.25928 79.0108 6.25928 79.4845 6.29571C79.9581 6.33215 80.2861 6.40502 80.5775 6.55076C81.0876 6.8058 81.5249 7.24303 81.7799 7.75312C81.9256 8.0446 81.9985 8.37252 82.035 8.84617C82.0714 9.31983 82.0714 9.93923 82.0714 10.7408V13.2548H74.6021V6.25928ZM6.65015 13.3277H14.1194V20.3232H6.65015V13.3277ZM44.3972 13.3277H51.8665V20.3232H44.3972V13.3277ZM14.1923 13.3277H21.6615V20.3232H14.1923V13.3277ZM51.9393 13.3277H59.4086V20.3232H51.9393V13.3277ZM21.7344 13.3277H29.2036V20.3232H21.7344V13.3277ZM59.4815 13.3277H66.9507V20.3232H59.4815V13.3277ZM29.313 13.3277H36.7822V20.3232H29.313V13.3277ZM67.0236 13.3277H74.4928V20.3232H67.0236V13.3277ZM36.8551 13.3277H44.3243V20.3232H36.8551V13.3277ZM74.6021 13.3277H82.0714V20.3232H74.6021V13.3277ZM6.65015 20.3961H14.1194V27.3917H6.65015V20.3961ZM44.3972 20.3961H51.8665V27.3917H44.3972V20.3961ZM14.1923 20.3961H21.6615V27.3917H14.1923V20.3961ZM51.9393 20.3961H59.4086V27.3917H51.9393V20.3961ZM21.7344 20.3961H29.2036V27.3917H21.7344V20.3961ZM59.4815 20.3961H66.9507V27.3917H59.4815V20.3961ZM29.313 20.3961H36.7822V27.3917H29.313V20.3961ZM67.0236 20.3961H74.4928V27.3917H67.0236V20.3961ZM36.8551 20.3961H44.3243V27.3917H36.8551V20.3961ZM74.6021 20.3961H82.0714V27.3917H74.6021V20.3961Z" stroke="#F1F1F1" stroke-width="0.414659"/>
<path d="M10.7638 11.1769H10.2537V8.6993L9.48853 8.95435V8.51712L10.6909 8.07989H10.7638V11.1769ZM17.0307 25.3141H16.5206V22.8364L15.7554 23.0915V22.6542L16.9578 22.217H17.0307V25.3141ZM20.2005 24.0024C20.2005 24.4396 20.1277 24.804 19.9455 25.0226C19.7633 25.2412 19.5083 25.3505 19.1803 25.3505C18.8524 25.3505 18.5974 25.2412 18.4152 25.0226C18.233 24.804 18.1601 24.476 18.1601 24.0388V23.4923C18.1601 23.055 18.233 22.7271 18.4152 22.4721C18.5974 22.2535 18.8524 22.1441 19.1803 22.1441C19.5083 22.1441 19.7633 22.2535 19.9455 22.4721C20.1277 22.6907 20.2005 23.0186 20.2005 23.4558V24.0024ZM19.6904 23.4194C19.6904 23.1279 19.654 22.9093 19.5811 22.7636C19.5083 22.6178 19.3625 22.5449 19.2168 22.5449C19.0346 22.5449 18.9253 22.6178 18.8524 22.7271C18.7795 22.8729 18.7431 23.055 18.7431 23.3465V24.0388C18.7431 24.3303 18.7795 24.5489 18.8524 24.6947C18.9253 24.8404 19.071 24.9133 19.2168 24.9133C19.399 24.9133 19.5083 24.8404 19.5811 24.7311C19.654 24.5854 19.6904 24.4032 19.6904 24.1117V23.4194ZM26.5403 11.1769H24.4635V10.8126L25.4837 9.68307C25.6294 9.50089 25.7387 9.39158 25.8116 9.28228C25.8844 9.17297 25.9209 9.06366 25.9209 8.95435C25.9209 8.80861 25.8844 8.6993 25.8116 8.59C25.7387 8.51712 25.6294 8.44425 25.4837 8.44425C25.3015 8.44425 25.1922 8.48069 25.0829 8.59C24.9736 8.6993 24.9371 8.84505 24.9371 9.02723H24.427C24.427 8.84505 24.4635 8.66287 24.5728 8.51712C24.6456 8.37138 24.7914 8.22564 24.9371 8.15277C25.0829 8.07989 25.265 8.04346 25.4837 8.04346C25.7751 8.04346 26.0302 8.11633 26.2124 8.26207C26.3945 8.40782 26.4674 8.62643 26.4674 8.88148C26.4674 9.02723 26.431 9.20941 26.3217 9.35515C26.2488 9.53733 26.1031 9.71951 25.8845 9.93812L25.1193 10.7397H26.5767C26.5403 10.7761 26.5403 11.1769 26.5403 11.1769ZM26.0666 15.112V15.5493H25.9938C25.7023 15.5493 25.4837 15.6221 25.3015 15.8043C25.1193 15.95 25.01 16.1687 25.01 16.4601C25.1922 16.278 25.3744 16.2051 25.6658 16.2051C25.9573 16.2051 26.1395 16.3144 26.3217 16.4966C26.4674 16.6788 26.5767 16.9338 26.5767 17.2617C26.5767 17.5897 26.4674 17.8447 26.2852 18.0269C26.1031 18.2091 25.848 18.3184 25.5565 18.3184C25.2286 18.3184 25.01 18.2091 24.7914 17.9905C24.6092 17.7718 24.4999 17.4439 24.4999 17.0796V16.8974C24.4999 16.3508 24.6456 15.9136 24.9007 15.6221C25.1557 15.3306 25.5565 15.1485 26.0302 15.1485C25.9938 15.112 26.0666 15.112 26.0666 15.112ZM25.4837 16.6059C25.265 16.6059 25.0464 16.7516 24.9736 16.9703V17.116C24.9736 17.3346 25.01 17.5168 25.1193 17.6625C25.2286 17.8083 25.3379 17.8811 25.4837 17.8811C25.6294 17.8811 25.7751 17.8083 25.848 17.699C25.9209 17.5897 25.9938 17.4439 25.9938 17.2617C25.9938 17.0796 25.9573 16.9338 25.848 16.7881C25.7751 16.6788 25.6294 16.6059 25.4837 16.6059ZM40.1307 9.39159H40.4586C40.6043 9.39159 40.7501 9.35515 40.823 9.28228C40.9323 9.20941 40.9687 9.1001 40.9687 8.91792C40.9687 8.77217 40.9323 8.66287 40.8594 8.59C40.7865 8.51712 40.6772 8.48069 40.495 8.48069C40.3493 8.48069 40.24 8.51712 40.1671 8.59C40.0942 8.66287 40.0214 8.77217 40.0214 8.91792H39.5113C39.5113 8.77217 39.5477 8.62643 39.6206 8.48069C39.6935 8.33494 39.8392 8.26207 39.9849 8.1892C40.1307 8.11633 40.3129 8.07989 40.495 8.07989C40.823 8.07989 41.0416 8.15276 41.2237 8.29851C41.4059 8.44425 41.4788 8.66287 41.4788 8.95435C41.4788 9.1001 41.4424 9.20941 41.3331 9.35515C41.2602 9.46446 41.1144 9.57376 41.0051 9.64664C41.1873 9.71951 41.2966 9.79238 41.4059 9.93812C41.4788 10.0474 41.5517 10.2296 41.5517 10.3754C41.5517 10.6668 41.4424 10.8855 41.2602 11.0312C41.078 11.2134 40.823 11.2863 40.495 11.2863C40.2036 11.2863 39.9485 11.2134 39.7663 11.0312C39.5842 10.8855 39.4748 10.6668 39.4748 10.4118H39.9849C39.9849 10.5575 40.0214 10.6668 40.1307 10.7397C40.24 10.8126 40.3493 10.8855 40.495 10.8855C40.6408 10.8855 40.7865 10.849 40.8594 10.7397C40.9323 10.6304 41.0051 10.5211 41.0051 10.3754C41.0051 10.2296 40.9687 10.0839 40.8594 10.011C40.7501 9.93812 40.6043 9.86525 40.4222 9.86525H40.1307C40.1307 9.79238 40.1307 9.39159 40.1307 9.39159ZM39.657 25.3141H39.1469V22.8364L38.3818 23.0915V22.6542L39.5842 22.217H39.657V25.3141ZM42.2075 25.3141H41.6974V22.8364L40.9323 23.0915V22.6542L42.1346 22.217H42.2075V25.3141ZM47.1992 25.3141H46.6891V22.8364L45.9239 23.0915V22.6542L47.1263 22.217H47.1992V25.3141ZM50.4419 25.3141H48.3651V24.9497L49.3853 23.8202C49.531 23.638 49.6403 23.5287 49.7132 23.4194C49.7861 23.3101 49.8225 23.2008 49.8225 23.0915C49.8225 22.9457 49.7861 22.8364 49.7132 22.7271C49.6403 22.6543 49.531 22.5814 49.3853 22.5814C49.2031 22.5814 49.0938 22.6178 48.9845 22.7271C48.8752 22.8364 48.8387 22.9822 48.8387 23.1644H48.3286C48.3286 22.9822 48.3651 22.8 48.4744 22.6542C48.5473 22.5085 48.693 22.3628 48.8387 22.2899C48.9845 22.217 49.1667 22.1806 49.3853 22.1806C49.6768 22.1806 49.9318 22.2535 50.114 22.3992C50.2962 22.5449 50.369 22.7636 50.369 23.0186C50.369 23.1644 50.3326 23.3465 50.2233 23.4923C50.1504 23.6745 50.0047 23.8566 49.7861 24.0752L49.0209 24.8768H50.4783L50.4419 25.3141ZM69.862 25.3141H69.3519V22.8364L68.5867 23.0915V22.6542L69.7891 22.217H69.862V25.3141ZM71.6109 23.5287H71.9388C72.0845 23.5287 72.2303 23.4923 72.3031 23.4194C72.4124 23.3465 72.4489 23.2372 72.4489 23.055C72.4489 22.9093 72.4124 22.8 72.3396 22.7271C72.2667 22.6543 72.1574 22.6178 71.9752 22.6178C71.8295 22.6178 71.7202 22.6543 71.6473 22.7271C71.5744 22.8 71.5016 22.9093 71.5016 23.055H70.9915C70.9915 22.9093 71.0279 22.7636 71.1008 22.6178C71.1736 22.4721 71.3194 22.3992 71.4651 22.3263C71.6109 22.2535 71.793 22.217 71.9752 22.217C72.3031 22.217 72.5217 22.2899 72.7039 22.4356C72.8861 22.5814 72.959 22.8 72.959 23.0915C72.959 23.2372 72.9225 23.3465 72.8132 23.4923C72.7404 23.6016 72.5946 23.7109 72.4853 23.7838C72.6675 23.8566 72.7768 23.9295 72.8861 24.0752C72.959 24.1846 73.0318 24.3667 73.0318 24.5125C73.0318 24.804 72.9225 25.0226 72.7404 25.1683C72.5582 25.3505 72.3031 25.4234 71.9752 25.4234C71.6837 25.4234 71.4287 25.3505 71.2465 25.1683C71.0643 25.0226 70.955 24.804 70.955 24.5489H71.4651C71.4651 24.6947 71.5016 24.804 71.6109 24.8768C71.7202 24.9497 71.8295 25.0226 71.9752 25.0226C72.121 25.0226 72.2667 24.9861 72.3396 24.8768C72.4489 24.804 72.4853 24.6582 72.4853 24.5125C72.4853 24.3667 72.4489 24.221 72.3396 24.1481C72.2303 24.0752 72.0845 24.0024 71.9023 24.0024H71.6109V23.5287ZM77.4041 25.3141H76.894V22.8364L76.1288 23.0915V22.6542L77.3312 22.217H77.4041V25.3141ZM80.3189 24.221H80.7197V24.6218H80.3189V25.3141H79.8088V24.6218H78.4607V24.2939L79.8088 22.1806H80.3554V24.221H80.3189ZM78.9708 24.221H79.7724V22.9093L79.736 22.9822L78.9708 24.221ZM48.8387 10.0839H49.2395V10.4847H48.8387V11.1769H48.3286V10.4847H46.9805V10.1567L48.3286 8.04346H48.8752C48.8387 8.07989 48.8387 10.0839 48.8387 10.0839ZM47.4906 10.0839H48.2922V8.77217L48.2558 8.84505L47.4906 10.0839ZM49.1667 15.4399L47.9279 18.2455H47.3813L48.6201 15.5493H47.017V15.1485H49.1667V15.4399ZM56.5995 15.95C56.5995 16.0958 56.563 16.2415 56.4902 16.3508C56.4173 16.4601 56.308 16.5695 56.1623 16.6423C56.308 16.7152 56.4537 16.8245 56.5266 16.9338C56.5995 17.0796 56.6724 17.2253 56.6724 17.371C56.6724 17.6625 56.563 17.8447 56.3809 18.0269C56.1987 18.1726 55.9436 18.2819 55.6522 18.2819C55.3607 18.2819 55.1056 18.2091 54.9235 18.0269C54.7413 17.8811 54.632 17.6625 54.632 17.371C54.632 17.1889 54.6684 17.0431 54.7777 16.9338C54.887 16.7881 54.9963 16.6788 55.1421 16.6423C54.9963 16.5695 54.887 16.4966 54.8141 16.3508C54.7413 16.2415 54.7048 16.0958 54.7048 15.95C54.7048 15.695 54.7777 15.4764 54.9599 15.3306C55.1421 15.1849 55.3607 15.112 55.6522 15.112C55.9436 15.112 56.1623 15.1849 56.3444 15.3306C56.4902 15.4764 56.5995 15.695 56.5995 15.95ZM56.1258 17.371C56.1258 17.2253 56.0894 17.0796 55.9801 17.0067C55.9072 16.8974 55.7615 16.8609 55.6157 16.8609C55.47 16.8609 55.3607 16.8974 55.2514 17.0067C55.1785 17.116 55.1056 17.2253 55.1056 17.371C55.1056 17.5168 55.1421 17.6625 55.2514 17.7354C55.3242 17.8083 55.47 17.8811 55.6157 17.8811C55.7615 17.8811 55.9072 17.8447 55.9801 17.7354C56.0894 17.6625 56.1258 17.5168 56.1258 17.371ZM56.0894 15.9865C56.0894 15.8407 56.0529 15.7314 55.9801 15.6586C55.9072 15.5857 55.7979 15.5128 55.6522 15.5128C55.5064 15.5128 55.3971 15.5493 55.3242 15.6221C55.2514 15.695 55.2149 15.8043 55.2149 15.95C55.2149 16.0958 55.2514 16.2051 55.3242 16.278C55.3971 16.3508 55.5064 16.3873 55.6522 16.3873C55.7979 16.3873 55.8708 16.3508 55.9801 16.278C56.0529 16.2415 56.0894 16.1322 56.0894 15.9865ZM78.7522 16.9338C78.57 17.116 78.3878 17.2253 78.1328 17.2253C77.8413 17.2253 77.6591 17.116 77.477 16.9338C77.3312 16.7516 77.2219 16.4966 77.2219 16.1687C77.2219 15.95 77.2583 15.7679 77.3312 15.6221C77.4041 15.4399 77.5134 15.3306 77.6956 15.2213C77.8413 15.112 78.0235 15.0756 78.2421 15.0756C78.57 15.0756 78.7886 15.1849 78.9708 15.4399C79.153 15.6586 79.2623 15.9865 79.2623 16.3873V16.533C79.2623 17.0796 79.153 17.5168 78.8979 17.8083C78.6429 18.0998 78.2785 18.2455 77.7684 18.2455H77.6956V17.8083H77.7684C78.0599 17.8083 78.315 17.7354 78.4607 17.5897C78.6429 17.4804 78.7158 17.2617 78.7522 16.9338ZM78.2421 16.8245C78.3514 16.8245 78.4607 16.7881 78.5336 16.7516C78.6065 16.6788 78.6793 16.6059 78.7522 16.4966V16.278C78.7522 16.0594 78.7158 15.8772 78.6065 15.7314C78.4971 15.5857 78.3878 15.5128 78.2421 15.5128C78.0964 15.5128 77.9871 15.5857 77.8777 15.695C77.8049 15.8043 77.732 15.9865 77.732 16.1687C77.732 16.3508 77.7684 16.533 77.8777 16.6423C77.9871 16.7516 78.0964 16.8245 78.2421 16.8245ZM77.4041 9.64664L77.5863 8.07989H79.2623V8.51712H78.0235L77.9506 9.24584C78.0964 9.17297 78.2421 9.13653 78.4243 9.13653C78.7158 9.13653 78.9344 9.24584 79.1165 9.42802C79.2987 9.6102 79.3716 9.86525 79.3716 10.1932C79.3716 10.5211 79.2987 10.7761 79.0801 10.9583C78.8979 11.1405 78.6429 11.2498 78.315 11.2498C78.0235 11.2498 77.8049 11.1769 77.6227 10.9948C77.4405 10.849 77.3312 10.6304 77.3312 10.3389H77.8413C77.8777 10.4847 77.9142 10.594 77.9871 10.7033C78.0599 10.7761 78.2057 10.8126 78.315 10.8126C78.4607 10.8126 78.6065 10.7397 78.6793 10.6304C78.7522 10.5211 78.8251 10.3754 78.8251 10.1567C78.8251 9.97456 78.7886 9.82882 78.6793 9.71951C78.57 9.6102 78.4607 9.53733 78.2785 9.53733C78.1692 9.53733 78.0964 9.53733 78.0235 9.57376C77.9506 9.6102 77.8777 9.64664 77.8049 9.71951L77.4041 9.64664Z" fill="#595959"/>
<path d="M6.65015 10.7408C6.65015 9.93923 6.65015 9.31983 6.68658 8.84617C6.72302 8.37252 6.79589 8.0446 6.94163 7.75312C7.19668 7.24303 7.6339 6.8058 8.144 6.55076C8.43548 6.40502 8.7634 6.33215 9.23706 6.29571C9.71072 6.25928 10.3301 6.25928 11.1317 6.25928H77.5898C78.3914 6.25928 79.0108 6.25928 79.4845 6.29571C79.9581 6.33215 80.2861 6.40502 80.5775 6.55076C81.0876 6.8058 81.5249 7.24303 81.7799 7.75312L81.9257 7.68025L81.7799 7.75312C81.9256 8.0446 81.9985 8.37252 82.035 8.84617C82.0714 9.31983 82.0714 9.93923 82.0714 10.7408V27.3917H6.65015V10.7408Z" stroke="#C8C8C8" stroke-width="0.414659"/>
<path d="M6.64722 30.6714H14.1165V37.6669H6.64722V30.6714ZM44.3943 30.6714H51.8635V37.6669H44.3943V30.6714ZM14.1893 30.6714H21.6586V37.6669H14.1893V30.6714ZM51.9364 30.6714H59.4057V37.6669H51.9364V30.6714ZM21.7315 30.6714H29.2007V37.6669H21.7315V30.6714ZM59.4785 30.6714H66.9478V37.6669H59.4785V30.6714ZM29.31 30.6714H36.7793V37.6669H29.31V30.6714ZM67.0206 30.6714H74.4899V37.6669H67.0206V30.6714ZM36.8522 30.6714H44.3214V37.6669H36.8522V30.6714ZM74.5992 30.6714H82.0685V37.6669H74.5992V30.6714ZM6.64722 37.7398H14.1165V44.7353H6.64722V37.7398ZM44.3943 37.7398H51.8635V44.7353H44.3943V37.7398ZM14.1893 37.7398H21.6586V44.7353H14.1893V37.7398ZM51.9364 37.7398H59.4057V44.7353H51.9364V37.7398ZM21.7315 37.7398H29.2007V44.7353H21.7315V37.7398ZM59.4785 37.7398H66.9478V44.7353H59.4785V37.7398ZM29.31 37.7398H36.7793V44.7353H29.31V37.7398ZM67.0206 37.7398H74.4899V44.7353H67.0206V37.7398ZM36.8522 37.7398H44.3214V44.7353H36.8522V37.7398ZM74.5992 37.7398H82.0685V44.7353H74.5992V37.7398ZM6.64722 44.8082H14.1165V51.8038H11.1288C10.3272 51.8038 9.70779 51.8038 9.23413 51.7673C8.76047 51.7309 8.43255 51.658 8.14107 51.5123C7.63097 51.2572 7.19375 50.82 6.9387 50.3099C6.79296 50.0184 6.72009 49.6905 6.68365 49.2169C6.64722 48.7432 6.64722 48.1238 6.64722 47.3222C6.64722 47.3222 6.64722 44.8082 6.64722 44.8082ZM44.3943 44.8082H51.8635V51.8038H44.3943V44.8082ZM14.1893 44.8082H21.6586V51.8038H14.1893V44.8082ZM51.9364 44.8082H59.4057V51.8038H51.9364V44.8082ZM21.7315 44.8082H29.2007V51.8038H21.7315V44.8082ZM59.4785 44.8082H66.9478V51.8038H59.4785V44.8082ZM29.31 44.8082H36.7793V51.8038H29.31V44.8082ZM67.0206 44.8082H74.4899V51.8038H67.0206V44.8082ZM36.8522 44.8082H44.3214V51.8038H36.8522V44.8082ZM74.5992 44.8082H82.0685V47.3222C82.0685 48.1238 82.0685 48.7432 82.032 49.2169C81.9956 49.6905 81.9227 50.0184 81.777 50.3099C81.5219 50.82 81.0847 51.2572 80.5746 51.5123C80.2831 51.658 79.9552 51.7309 79.4815 51.7673C79.0079 51.8038 78.3885 51.8038 77.5869 51.8038H74.5992V44.8082Z" stroke="#F1F1F1" stroke-width="0.414659"/>
<path d="M9.45223 35.5898H8.94213V33.1121L8.17699 33.3672V32.93L9.37936 32.4927H9.45223V35.5898ZM10.7639 34.0595L10.9461 32.4927H12.6221V32.93H11.3833L11.3104 33.6587C11.4562 33.5858 11.6384 33.5494 11.7841 33.5494C12.0756 33.5494 12.2942 33.6587 12.4764 33.8409C12.6585 34.023 12.7314 34.2781 12.7314 34.606C12.7314 34.9339 12.6585 35.189 12.4399 35.3712C12.2578 35.5533 12.0027 35.6627 11.6748 35.6627C11.3833 35.6627 11.1647 35.5898 10.9825 35.4076C10.8003 35.2619 10.691 35.0432 10.691 34.7518H11.2011C11.2376 34.8975 11.274 35.0068 11.3469 35.1161C11.4197 35.189 11.5655 35.2254 11.7112 35.2254C11.857 35.2254 12.0027 35.1526 12.0756 35.0432C12.1484 34.9339 12.2213 34.7882 12.2213 34.5696C12.2213 34.3874 12.1849 34.2417 12.0756 34.1323C11.9663 34.023 11.857 33.9502 11.6748 33.9502C11.5655 33.9502 11.4926 33.9502 11.4197 33.9866C11.3469 34.023 11.274 34.0595 11.2011 34.1323L10.7639 34.0595ZM9.45223 42.6583H8.94213V40.1807L8.17699 40.4358V39.9985L9.37936 39.5613H9.45223V42.6583ZM12.0756 41.3831C11.8934 41.5653 11.7112 41.6746 11.4562 41.6746C11.1647 41.6746 10.9825 41.5653 10.8003 41.3831C10.6546 41.2009 10.5453 40.9459 10.5453 40.6179C10.5453 40.3993 10.5817 40.2171 10.6546 40.0714C10.7275 39.8892 10.8368 39.7799 11.019 39.6706C11.1647 39.5613 11.3469 39.5249 11.5655 39.5249C11.8934 39.5249 12.112 39.6342 12.2942 39.8892C12.4764 40.1078 12.5857 40.4358 12.5857 40.8366V40.9823C12.5857 41.5288 12.4764 41.9661 12.2213 42.2576C11.9663 42.549 11.6019 42.6948 11.0918 42.6948H11.019V42.2576H11.0918C11.3833 42.2576 11.6384 42.1847 11.7841 42.0389C11.9663 41.8932 12.0756 41.6746 12.0756 41.3831ZM11.6019 41.2373C11.7112 41.2373 11.8205 41.2009 11.8934 41.1645C11.9663 41.128 12.0391 41.0187 12.112 40.9094V40.6908C12.112 40.4722 12.0756 40.29 11.9663 40.1443C11.857 39.9985 11.7477 39.9257 11.6019 39.9257C11.4562 39.9257 11.3469 39.9985 11.2376 40.1078C11.1647 40.2171 11.0918 40.3993 11.0918 40.5815C11.0918 40.7637 11.1283 40.9459 11.2376 41.0552C11.3104 41.2009 11.4562 41.2373 11.6019 41.2373ZM17.6866 49.7269H15.6098V49.3625L16.63 48.233C16.7757 48.0509 16.885 47.9416 16.9579 47.8322C17.0308 47.7229 17.0672 47.6136 17.0672 47.5043C17.0672 47.3586 17.0308 47.2493 16.9579 47.14C16.885 47.0671 16.7757 46.9942 16.63 46.9942C16.4478 46.9942 16.3385 47.0307 16.2292 47.14C16.1199 47.2493 16.0835 47.395 16.0835 47.5772H15.5734C15.5734 47.395 15.6098 47.2128 15.7191 47.0671C15.792 46.9213 15.9377 46.7756 16.0835 46.7027C16.2292 46.6299 16.4114 46.5934 16.63 46.5934C16.9215 46.5934 17.1765 46.6663 17.3587 46.812C17.5409 46.9578 17.6138 47.1764 17.6138 47.4314C17.6138 47.5772 17.5773 47.7594 17.468 47.9051C17.3951 48.0873 17.2494 48.2695 17.0308 48.4881L16.2656 49.2897H17.7231L17.6866 49.7269ZM18.306 48.1966L18.4882 46.6299H20.1642V47.0671H18.9254L18.8526 47.7958C18.9983 47.7229 19.1805 47.6865 19.3262 47.6865C19.6177 47.6865 19.8363 47.7958 20.0185 47.978C20.2007 48.1602 20.2735 48.4152 20.2735 48.7431C20.2735 49.0711 20.2007 49.3261 19.9821 49.5083C19.7999 49.6905 19.5448 49.7998 19.2169 49.7998C18.9254 49.7998 18.7068 49.7269 18.5246 49.5447C18.3425 49.399 18.2332 49.1804 18.2332 48.8889H18.7433C18.7797 49.0346 18.8161 49.1439 18.889 49.2532C18.9619 49.3261 19.1076 49.3625 19.2169 49.3625C19.3627 49.3625 19.5084 49.2897 19.5813 49.1804C19.6541 49.0711 19.727 48.9253 19.727 48.7067C19.727 48.5245 19.6906 48.3788 19.5813 48.2695C19.472 48.1602 19.3627 48.0873 19.1805 48.0873C19.1076 48.0873 19.0347 48.0873 18.9254 48.1237C18.8526 48.1602 18.7797 48.1966 18.7068 48.2695L18.306 48.1966ZM10.1445 49.7269H8.06769V49.3625L9.08788 48.233C9.23362 48.0509 9.34292 47.9416 9.41579 47.8322C9.48867 47.7229 9.5251 47.6136 9.5251 47.5043C9.5251 47.3586 9.48867 47.2493 9.41579 47.14C9.34292 47.0671 9.23362 46.9942 9.08788 46.9942C8.9057 46.9942 8.79639 47.0307 8.68709 47.14C8.57778 47.2493 8.54135 47.395 8.54135 47.5772H8.03125C8.03125 47.395 8.06769 47.2128 8.17699 47.0671C8.24986 46.9213 8.3956 46.7756 8.54135 46.7027C8.68709 46.6299 8.9057 46.5934 9.08788 46.5934C9.37936 46.5934 9.63441 46.6663 9.81658 46.812C9.99876 46.9578 10.0716 47.1764 10.0716 47.4314C10.0716 47.5772 10.0352 47.7594 9.92589 47.9051C9.85302 48.0873 9.70728 48.2695 9.48867 48.4881L8.72352 49.2897H10.1809L10.1445 49.7269ZM12.3671 48.6338H12.7678V49.0346H12.3671V49.7269H11.857V49.0346H10.5089V48.7067L11.857 46.5934H12.4035L12.3671 48.6338ZM11.0554 48.6338H11.857V47.3221L11.8205 47.395L11.0554 48.6338ZM24.5729 35.5898H24.0628V33.1121L23.2977 33.3672V32.93L24.5 32.4927H24.5729V35.5898ZM27.342 32.4563V32.8935H27.2691C26.9776 32.8935 26.759 32.9664 26.5769 33.1486C26.3947 33.2943 26.2854 33.5129 26.2854 33.8044C26.4676 33.6222 26.6497 33.5494 26.9412 33.5494C27.2327 33.5494 27.4149 33.6587 27.597 33.8409C27.7428 34.023 27.8521 34.2781 27.8521 34.606C27.8521 34.9339 27.7428 35.189 27.5606 35.3712C27.3784 35.5533 27.1234 35.6627 26.8319 35.6627C26.504 35.6627 26.2854 35.5533 26.0668 35.3347C25.8846 35.1161 25.7753 34.7882 25.7753 34.4238V34.2417C25.7753 33.6951 25.921 33.2579 26.1761 32.9664C26.4311 32.6749 26.8319 32.4927 27.3056 32.4927C27.2691 32.4563 27.342 32.4563 27.342 32.4563ZM26.759 33.9502C26.5404 33.9502 26.3218 34.0959 26.2489 34.3145V34.4603C26.2489 34.6789 26.2854 34.8611 26.3947 35.0068C26.504 35.1526 26.6133 35.2254 26.759 35.2254C26.9048 35.2254 27.0505 35.1526 27.1234 35.0432C27.1963 34.9339 27.2691 34.7882 27.2691 34.606C27.2691 34.4238 27.2327 34.2417 27.1234 34.1323C27.0505 34.023 26.9048 33.9502 26.759 33.9502ZM32.8073 42.6583H30.7305V42.294L31.7507 41.1645C31.8964 40.9823 32.0057 40.873 32.0786 40.7637C32.1515 40.6544 32.1879 40.5451 32.1879 40.4358C32.1879 40.29 32.1515 40.1807 32.0786 40.0714C32.0057 39.9985 31.8964 39.9257 31.7507 39.9257C31.5685 39.9257 31.4592 39.9621 31.3499 40.0714C31.2406 40.1807 31.2042 40.3264 31.2042 40.5086H30.6941C30.6941 40.3264 30.7305 40.1443 30.8398 39.9985C30.9127 39.8528 31.0584 39.707 31.2042 39.6342C31.3499 39.5613 31.5321 39.5249 31.7507 39.5249C32.0422 39.5249 32.2972 39.5977 32.4794 39.7435C32.6616 39.8892 32.7344 40.1078 32.7344 40.3629C32.7344 40.5086 32.698 40.6908 32.5887 40.8366C32.5158 41.0187 32.3701 41.2009 32.1515 41.4195L31.3863 42.2211H32.8437L32.8073 42.6583ZM35.2849 41.3467C35.2849 41.7839 35.212 42.1482 35.0299 42.3669C34.8477 42.5855 34.5926 42.6948 34.2647 42.6948C33.9368 42.6948 33.6818 42.5855 33.4996 42.3669C33.3174 42.1482 33.2445 41.8203 33.2445 41.3831V40.8366C33.2445 40.3993 33.3174 40.0714 33.4996 39.8163C33.6818 39.5977 33.9368 39.4884 34.2647 39.4884C34.5926 39.4884 34.8477 39.5977 35.0299 39.8163C35.212 40.035 35.2849 40.3629 35.2849 40.8001V41.3467ZM34.7748 40.7637C34.7748 40.4722 34.7384 40.2536 34.6655 40.1078C34.5926 39.9621 34.4469 39.8892 34.3012 39.8892C34.119 39.8892 34.0097 39.9621 33.9368 40.0714C33.8639 40.2171 33.8275 40.3993 33.8275 40.6908V41.3831C33.8275 41.6746 33.8639 41.8932 33.9368 42.0389C34.0097 42.1847 34.1554 42.2576 34.3012 42.2576C34.4833 42.2576 34.5926 42.1847 34.6655 42.0754C34.7384 41.9296 34.7748 41.7474 34.7748 41.456V40.7637ZM39.6572 35.5898H39.1471V33.1121L38.3819 33.3672V32.93L39.5843 32.4927H39.6572V35.5898ZM42.8999 32.7842L41.6611 35.5898H41.1146L42.3534 32.8935H40.7138V32.4927H42.8635V32.7842H42.8999ZM40.3494 49.7269H38.2726V49.3625L39.2928 48.233C39.4385 48.0509 39.5479 47.9416 39.6207 47.8322C39.6936 47.7229 39.73 47.6136 39.73 47.5043C39.73 47.3586 39.6936 47.2493 39.6207 47.14C39.5479 47.0671 39.4385 46.9942 39.2928 46.9942C39.1106 46.9942 39.0013 47.0307 38.892 47.14C38.7827 47.2493 38.7463 47.395 38.7463 47.5772H38.2362C38.2362 47.395 38.2726 47.2128 38.3819 47.0671C38.4548 46.9213 38.6005 46.7756 38.7463 46.7027C38.892 46.6299 39.0742 46.5934 39.2928 46.5934C39.5843 46.5934 39.8393 46.6663 40.0215 46.812C40.2037 46.9578 40.2766 47.1764 40.2766 47.4314C40.2766 47.5772 40.2401 47.7594 40.1308 47.9051C40.058 48.0873 39.9122 48.2695 39.6936 48.4881L38.9285 49.2897H40.3859L40.3494 49.7269ZM42.4262 46.5934V47.0307H42.3534C42.0619 47.0307 41.8433 47.1035 41.6611 47.2857C41.4789 47.4314 41.3696 47.6501 41.3696 47.9415C41.5518 47.7594 41.734 47.6865 42.0255 47.6865C42.3169 47.6865 42.4991 47.7958 42.6813 47.978C42.827 48.1602 42.9363 48.4152 42.9363 48.7431C42.9363 49.0711 42.827 49.3261 42.6449 49.5083C42.4627 49.6905 42.2076 49.7998 41.9162 49.7998C41.5882 49.7998 41.3696 49.6905 41.151 49.4719C40.9688 49.2532 40.8595 48.9253 40.8595 48.561V48.3423C40.8595 47.7958 41.0053 47.3586 41.2603 47.0671C41.5154 46.7756 41.9162 46.5934 42.3898 46.5934H42.4262ZM41.8797 48.0873C41.6611 48.0873 41.4425 48.233 41.3696 48.4517V48.5974C41.3696 48.816 41.4061 48.9982 41.5154 49.1439C41.6247 49.2897 41.734 49.3625 41.8797 49.3625C42.0255 49.3625 42.1712 49.2897 42.2441 49.1804C42.3169 49.0711 42.3898 48.9253 42.3898 48.7431C42.3898 48.561 42.3534 48.4152 42.2441 48.2695C42.1348 48.1602 42.0255 48.0873 41.8797 48.0873ZM47.8916 49.7269H45.8147V49.3625L46.8349 48.233C46.9807 48.0509 47.09 47.9416 47.1628 47.8322C47.2357 47.7229 47.2722 47.6136 47.2722 47.5043C47.2722 47.3586 47.2357 47.2493 47.1628 47.14C47.09 47.0671 46.9807 46.9942 46.8349 46.9942C46.6528 46.9942 46.5434 47.0307 46.4341 47.14C46.3248 47.2493 46.2884 47.395 46.2884 47.5772H45.7783C45.7783 47.395 45.8147 47.2128 45.924 47.0671C45.9969 46.9213 46.1427 46.7756 46.2884 46.7027C46.4341 46.6299 46.6163 46.5934 46.8349 46.5934C47.1264 46.5934 47.3815 46.6663 47.5636 46.812C47.7458 46.9578 47.8187 47.1764 47.8187 47.4314C47.8187 47.5772 47.7822 47.7594 47.6729 47.9051C47.6001 48.0873 47.4543 48.2695 47.2357 48.4881L46.4706 49.2897H47.928V49.7269H47.8916ZM50.442 46.9213L49.2032 49.7269H48.6567L49.8955 47.0307H48.2923V46.6299H50.442V46.9213ZM69.0605 47.9415H69.3884C69.5342 47.9415 69.6799 47.9051 69.7528 47.8322C69.8621 47.7594 69.8985 47.6501 69.8985 47.4679C69.8985 47.3221 69.8621 47.2128 69.7892 47.14C69.7164 47.0671 69.607 47.0307 69.4249 47.0307C69.2791 47.0307 69.1698 47.0671 69.0969 47.14C69.0241 47.2128 68.9512 47.3221 68.9512 47.4679H68.4047C68.4047 47.3221 68.4411 47.1764 68.514 47.0307C68.5869 46.8849 68.7326 46.812 68.8783 46.7392C69.0241 46.6663 69.2063 46.6299 69.3884 46.6299C69.7163 46.6299 69.935 46.7027 70.1171 46.8485C70.2993 46.9942 70.3722 47.2128 70.3722 47.5043C70.3722 47.6501 70.3358 47.7594 70.2264 47.9051C70.1536 48.0144 70.0078 48.1237 69.8985 48.1966C70.0807 48.2695 70.19 48.3423 70.2993 48.4881C70.3722 48.5974 70.4451 48.7796 70.4451 48.9253C70.4451 49.2168 70.3358 49.4354 70.1536 49.5812C69.9714 49.7633 69.7163 49.8362 69.3884 49.8362C69.0969 49.8362 68.8419 49.7633 68.6597 49.5812C68.4775 49.4354 68.3682 49.2168 68.3682 48.9618H68.8783C68.8783 49.1075 68.9148 49.2168 69.0241 49.2897C69.1334 49.3626 69.2427 49.4354 69.3884 49.4354C69.5342 49.4354 69.6799 49.399 69.7528 49.2897C69.8621 49.2168 69.8985 49.0711 69.8985 48.9253C69.8985 48.7796 69.8621 48.6338 69.7528 48.561C69.6435 48.4881 69.4977 48.4152 69.3156 48.4152H69.0241V47.9415H69.0605ZM73.032 48.4152C73.032 48.8524 72.9591 49.2168 72.7769 49.4354C72.5947 49.654 72.3397 49.7633 72.0118 49.7633C71.6839 49.7633 71.4288 49.654 71.2466 49.4354C71.0645 49.2168 70.9916 48.8889 70.9916 48.4517V47.9051C70.9916 47.4679 71.0645 47.14 71.2466 46.8849C71.4288 46.6663 71.6839 46.557 72.0118 46.557C72.3397 46.557 72.5947 46.6663 72.7769 46.8849C72.9591 47.1035 73.032 47.4314 73.032 47.8687V48.4152ZM72.5219 47.8322C72.5219 47.5408 72.4854 47.3221 72.4126 47.1764C72.3397 47.0307 72.194 46.9578 72.0482 46.9578C71.866 46.9578 71.7567 47.0307 71.6839 47.14C71.611 47.2857 71.5746 47.4679 71.5746 47.7594V48.4517C71.5746 48.7431 71.611 48.9618 71.6839 49.1075C71.7567 49.2532 71.9025 49.3261 72.0482 49.3261C72.2304 49.3261 72.3397 49.2532 72.4126 49.1439C72.4854 48.9982 72.5219 48.816 72.5219 48.5245V47.8322ZM62.9758 49.7269H60.899V49.3625L61.9192 48.233C62.0649 48.0509 62.1742 47.9416 62.2471 47.8322C62.32 47.7229 62.3564 47.6136 62.3564 47.5043C62.3564 47.3586 62.32 47.2493 62.2471 47.14C62.1742 47.0671 62.0649 46.9942 61.9192 46.9942C61.737 46.9942 61.6277 47.0307 61.5184 47.14C61.4091 47.2493 61.3726 47.395 61.3726 47.5772H60.8626C60.8626 47.395 60.899 47.2128 61.0083 47.0671C61.0812 46.9213 61.2269 46.7756 61.3726 46.7027C61.5184 46.6299 61.7006 46.5934 61.9192 46.5934C62.2107 46.5934 62.4657 46.6663 62.6479 46.812C62.8301 46.9578 62.9029 47.1764 62.9029 47.4314C62.9029 47.5772 62.8665 47.7594 62.7572 47.9051C62.6843 48.0873 62.5386 48.2695 62.32 48.4881L61.5548 49.2897H63.0122L62.9758 49.7269ZM64.9433 48.4152C64.7611 48.5974 64.579 48.7067 64.3239 48.7067C64.0324 48.7067 63.8503 48.5974 63.6681 48.4152C63.5223 48.233 63.413 47.978 63.413 47.6501C63.413 47.4314 63.4495 47.2493 63.5223 47.1035C63.5952 46.9213 63.7045 46.812 63.8867 46.7027C64.0689 46.5934 64.2146 46.557 64.4332 46.557C64.7611 46.557 64.9798 46.6663 65.1619 46.9213C65.3441 47.1764 65.4534 47.4679 65.4534 47.8687V48.0144C65.4534 48.561 65.3441 48.9982 65.0891 49.2897C64.834 49.5812 64.4697 49.7269 63.9596 49.7269H63.8867V49.2897H63.9596C64.251 49.2897 64.5061 49.2168 64.6518 49.0711C64.834 48.9618 64.9069 48.7431 64.9433 48.4152ZM64.4332 48.3059C64.5425 48.3059 64.6518 48.2695 64.7247 48.233C64.834 48.1602 64.9069 48.0873 64.9433 47.978V47.7594C64.9433 47.5408 64.9069 47.3586 64.7976 47.2128C64.6883 47.0671 64.579 46.9942 64.4332 46.9942C64.2875 46.9942 64.1782 47.0671 64.0689 47.1764C63.996 47.2857 63.9231 47.4679 63.9231 47.6501C63.9231 47.8322 63.9596 48.0144 64.0689 48.1237C64.1782 48.233 64.2875 48.3059 64.4332 48.3059ZM55.4337 49.7269H53.3569V49.3625L54.3771 48.233C54.5228 48.0509 54.6321 47.9416 54.705 47.8322C54.7778 47.7229 54.8143 47.6136 54.8143 47.5043C54.8143 47.3586 54.7778 47.2493 54.705 47.14C54.6321 47.0671 54.5228 46.9942 54.3771 46.9942C54.1949 46.9942 54.0856 47.0307 53.9763 47.14C53.867 47.2493 53.8305 47.395 53.8305 47.5772H53.3204C53.3204 47.395 53.3569 47.2128 53.4662 47.0671C53.539 46.9213 53.6848 46.7756 53.8305 46.7027C53.9763 46.6299 54.1584 46.5934 54.3771 46.5934C54.6685 46.5934 54.9236 46.6663 55.1058 46.812C55.2879 46.9578 55.3608 47.1764 55.3608 47.4314C55.3608 47.5772 55.3244 47.7594 55.2151 47.9051C55.1422 48.0873 54.9965 48.2695 54.7778 48.4881L54.0127 49.2897H55.4701L55.4337 49.7269ZM57.8749 47.4314C57.8749 47.5772 57.8384 47.7229 57.7655 47.8322C57.6927 47.9416 57.5834 48.0509 57.4376 48.1237C57.5834 48.1966 57.7291 48.3059 57.802 48.4517C57.8748 48.5974 57.9477 48.7431 57.9477 48.8889C57.9477 49.1804 57.8384 49.3625 57.6562 49.5447C57.4741 49.6905 57.219 49.7998 56.9275 49.7998C56.636 49.7998 56.381 49.7269 56.1988 49.5447C56.0166 49.399 55.9073 49.1804 55.9073 48.8889C55.9073 48.7067 55.9438 48.561 56.0531 48.4517C56.1624 48.3059 56.2717 48.1966 56.4174 48.1602C56.2717 48.0873 56.1624 48.0144 56.0895 47.8687C56.0166 47.7594 55.9802 47.6136 55.9802 47.4679C55.9802 47.2128 56.0531 46.9942 56.2353 46.8485C56.4174 46.7027 56.636 46.6299 56.9275 46.6299C57.219 46.6299 57.4376 46.7027 57.6198 46.8485C57.802 46.9578 57.8749 47.1764 57.8749 47.4314ZM57.4376 48.8524C57.4376 48.7067 57.4012 48.561 57.2919 48.4881C57.219 48.3788 57.0733 48.3423 56.9275 48.3423C56.7818 48.3423 56.6725 48.3788 56.5632 48.4881C56.4903 48.5974 56.4174 48.7067 56.4174 48.8524C56.4174 48.9982 56.4539 49.1439 56.5632 49.2168C56.636 49.2897 56.7818 49.3625 56.9275 49.3625C57.0733 49.3625 57.219 49.3261 57.2919 49.2168C57.3648 49.1439 57.4376 49.0346 57.4376 48.8524ZM57.3648 47.4679C57.3648 47.3221 57.3283 47.2128 57.2554 47.14C57.1826 47.0671 57.0733 46.9942 56.9275 46.9942C56.7818 46.9942 56.7089 47.0307 56.5996 47.1035C56.5267 47.1764 56.4903 47.2857 56.4903 47.4314C56.4903 47.5772 56.5267 47.6865 56.5996 47.7594C56.6725 47.8322 56.7818 47.8687 56.9275 47.8687C57.0733 47.8687 57.1461 47.8322 57.2554 47.7594C57.3283 47.7229 57.3648 47.6136 57.3648 47.4679ZM47.8916 42.6583H45.8147V42.294L46.8349 41.1645C46.9807 40.9823 47.09 40.873 47.1628 40.7637C47.2357 40.6544 47.2722 40.5451 47.2722 40.4358C47.2722 40.29 47.2357 40.1807 47.1628 40.0714C47.09 39.9985 46.9807 39.9257 46.8349 39.9257C46.6528 39.9257 46.5434 39.9621 46.4341 40.0714C46.3248 40.1807 46.2884 40.3264 46.2884 40.5086H45.7783C45.7783 40.3264 45.8147 40.1443 45.924 39.9985C45.9969 39.8528 46.1427 39.707 46.2884 39.6342C46.4341 39.5613 46.6163 39.5249 46.8349 39.5249C47.1264 39.5249 47.3815 39.5977 47.5636 39.7435C47.7458 39.8892 47.8187 40.1078 47.8187 40.3629C47.8187 40.5086 47.7822 40.6908 47.6729 40.8366C47.6001 41.0187 47.4543 41.2009 47.2357 41.4195L46.4706 42.2211H47.928V42.6583H47.8916ZM49.7862 42.6583H49.2761V40.1807L48.511 40.4358V39.9985L49.7133 39.5613H49.7862V42.6583ZM62.9758 42.6583H60.899V42.294L61.9192 41.1645C62.0649 40.9823 62.1742 40.873 62.2471 40.7637C62.32 40.6544 62.3564 40.5451 62.3564 40.4358C62.3564 40.29 62.32 40.1807 62.2471 40.0714C62.1742 39.9985 62.0649 39.9257 61.9192 39.9257C61.737 39.9257 61.6277 39.9621 61.5184 40.0714C61.4091 40.1807 61.3726 40.3264 61.3726 40.5086H60.8626C60.8626 40.3264 60.899 40.1443 61.0083 39.9985C61.0812 39.8528 61.2269 39.707 61.3726 39.6342C61.5184 39.5613 61.7006 39.5249 61.9192 39.5249C62.2107 39.5249 62.4657 39.5977 62.6479 39.7435C62.8301 39.8892 62.9029 40.1078 62.9029 40.3629C62.9029 40.5086 62.8665 40.6908 62.7572 40.8366C62.6843 41.0187 62.5386 41.2009 62.32 41.4195L61.5548 42.2211H63.0122L62.9758 42.6583ZM65.5627 42.6583H63.4859V42.294L64.5061 41.1645C64.6518 40.9823 64.7611 40.873 64.834 40.7637C64.9069 40.6544 64.9433 40.5451 64.9433 40.4358C64.9433 40.29 64.9069 40.1807 64.834 40.0714C64.7611 39.9985 64.6518 39.9257 64.5061 39.9257C64.3239 39.9257 64.2146 39.9621 64.1053 40.0714C63.996 40.1807 63.9596 40.3264 63.9596 40.5086H63.4495C63.4495 40.3264 63.4859 40.1443 63.5952 39.9985C63.6681 39.8528 63.8138 39.707 63.9596 39.6342C64.1053 39.5613 64.2875 39.5249 64.5061 39.5249C64.7976 39.5249 65.0526 39.5977 65.2348 39.7435C65.417 39.8892 65.4898 40.1078 65.4898 40.3629C65.4898 40.5086 65.4534 40.6908 65.3441 40.8366C65.2712 41.0187 65.1255 41.2009 64.9069 41.4195L64.1417 42.2211H65.5992L65.5627 42.6583ZM78.0965 42.6583H76.0197V42.294L77.0399 41.1645C77.1856 40.9823 77.2949 40.873 77.3678 40.7637C77.4407 40.6544 77.4771 40.5451 77.4771 40.4358C77.4771 40.29 77.4407 40.1807 77.3678 40.0714C77.2949 39.9985 77.1856 39.9257 77.0399 39.9257C76.8577 39.9257 76.7484 39.9621 76.6391 40.0714C76.5298 40.1807 76.4933 40.3264 76.4933 40.5086H75.9832C75.9832 40.3264 76.0197 40.1443 76.129 39.9985C76.2018 39.8528 76.3476 39.707 76.4933 39.6342C76.6391 39.5613 76.8212 39.5249 77.0399 39.5249C77.3313 39.5249 77.5864 39.5977 77.7686 39.7435C77.9507 39.8892 78.0236 40.1078 78.0236 40.3629C78.0236 40.5086 77.9872 40.6908 77.8779 40.8366C77.805 41.0187 77.6593 41.2009 77.4407 41.4195L76.6755 42.2211H78.1329L78.0965 42.6583ZM79.1531 40.873H79.481C79.6268 40.873 79.7725 40.8366 79.8454 40.7637C79.9547 40.6908 79.9911 40.5815 79.9911 40.3993C79.9911 40.2536 79.9547 40.1443 79.8818 40.0714C79.809 39.9985 79.6996 39.9621 79.5175 39.9621C79.3717 39.9621 79.2624 39.9985 79.1896 40.0714C79.1167 40.1443 79.0438 40.2536 79.0438 40.3993H78.5337C78.5337 40.2536 78.5701 40.1078 78.643 39.9621C78.7159 39.8163 78.8616 39.7435 79.0074 39.6706C79.1531 39.5977 79.3353 39.5613 79.5175 39.5613C79.8454 39.5613 80.064 39.6342 80.2462 39.7799C80.4284 39.9257 80.5012 40.1443 80.5012 40.4358C80.5012 40.5815 80.4648 40.6908 80.3555 40.8366C80.2826 40.9459 80.1369 41.0552 80.0276 41.128C80.2097 41.2009 80.319 41.2738 80.4284 41.4195C80.5012 41.5288 80.5741 41.711 80.5741 41.8568C80.5741 42.1482 80.4648 42.3669 80.2826 42.5126C80.1004 42.6948 79.8454 42.7677 79.5175 42.7677C79.226 42.7677 78.9709 42.6948 78.7888 42.5126C78.6066 42.3669 78.4973 42.1482 78.4973 41.8932H79.0074C79.0074 42.0389 79.0438 42.1482 79.1531 42.2211C79.2624 42.294 79.3717 42.3669 79.5175 42.3669C79.6632 42.3669 79.809 42.3304 79.8818 42.2211C79.9911 42.1482 80.0276 42.0025 80.0276 41.8568C80.0276 41.711 79.9911 41.5653 79.8818 41.4924C79.7725 41.4195 79.6268 41.3467 79.4446 41.3467H79.1531V40.873ZM77.4042 35.5898H76.8941V33.1121L76.129 33.3672V32.93L77.3313 32.4927H77.4042V35.5898ZM80.5012 33.2943C80.5012 33.4401 80.4648 33.5858 80.3919 33.6951C80.319 33.8044 80.2097 33.9137 80.064 33.9866C80.2097 34.0595 80.3555 34.1688 80.4284 34.2781C80.5012 34.4238 80.5741 34.5696 80.5741 34.7153C80.5741 35.0068 80.4648 35.189 80.2826 35.3712C80.1004 35.5169 79.8454 35.6262 79.5539 35.6262C79.2624 35.6262 79.0074 35.5533 78.8252 35.3712C78.643 35.2254 78.5337 35.0068 78.5337 34.7153C78.5337 34.5331 78.5701 34.3874 78.6795 34.2781C78.7888 34.1323 78.8981 34.023 79.0438 33.9866C78.8981 33.9137 78.7888 33.8409 78.7159 33.6951C78.643 33.5858 78.6066 33.4401 78.6066 33.2943C78.6066 33.0393 78.6795 32.8207 78.8616 32.6749C79.0438 32.5292 79.2624 32.4563 79.5539 32.4563C79.8454 32.4563 80.064 32.5292 80.2462 32.6749C80.4284 32.8207 80.5012 33.0393 80.5012 33.2943ZM80.064 34.7153C80.064 34.5696 80.0276 34.4238 79.9183 34.351C79.8454 34.2417 79.6996 34.2052 79.5539 34.2052C79.4082 34.2052 79.2989 34.2417 79.1896 34.351C79.1167 34.4603 79.0438 34.5696 79.0438 34.7153C79.0438 34.8611 79.0802 35.0068 79.1896 35.0797C79.2624 35.1526 79.4082 35.2254 79.5539 35.2254C79.6996 35.2254 79.8454 35.189 79.9183 35.0797C80.0276 35.0068 80.064 34.8611 80.064 34.7153ZM79.9911 33.3308C79.9911 33.185 79.9547 33.0757 79.8818 33.0028C79.809 32.93 79.6996 32.8571 79.5539 32.8571C79.4082 32.8571 79.3353 32.8935 79.226 32.9664C79.1531 33.0393 79.1167 33.1486 79.1167 33.2943C79.1167 33.4401 79.1531 33.5494 79.226 33.6222C79.2989 33.6951 79.4082 33.7316 79.5539 33.7316C79.6996 33.7316 79.809 33.6951 79.8818 33.6222C79.9547 33.5858 79.9911 33.4765 79.9911 33.3308Z" fill="#595959"/>
<path d="M6.64673 30.6702H82.068V47.321C82.068 48.1225 82.068 48.7419 82.0316 49.2156C81.9951 49.6892 81.9222 50.0172 81.7765 50.3086C81.5215 50.8187 81.0842 51.2559 80.5741 51.511C80.2827 51.6567 79.9547 51.7296 79.4811 51.766C79.0074 51.8025 78.388 51.8025 77.5864 51.8025H11.1283C10.3267 51.8025 9.7073 51.8025 9.23364 51.766C8.75998 51.7296 8.43206 51.6567 8.14058 51.511C7.63048 51.2559 7.19326 50.8187 6.93821 50.3086C6.79247 50.0172 6.7196 49.6892 6.68316 49.2156C6.64673 48.7419 6.64673 48.1225 6.64673 47.321V30.6702Z" stroke="#C8C8C8" stroke-width="0.414659"/>
<path d="M78.2431 61.277L75.8748 63.6453L74.5996 62.3701L75.1461 61.8235L75.8748 62.5522L77.6966 60.7305L78.2431 61.277Z" fill="#212121"/>
<path d="M74.9636 56.7214H77.8784C80.101 56.7214 81.8863 58.5068 81.8863 60.7293V63.6441C81.8863 65.8667 80.101 67.652 77.8784 67.652H74.9636C72.741 67.652 70.9557 65.8667 70.9557 63.6441V60.7293C70.9557 58.5068 72.741 56.7214 74.9636 56.7214Z" stroke="#FFCD17" stroke-width="0.829317"/>
<path d="M11.5525 10.3884C11.406 10.2519 11.406 10.0198 11.5525 9.88332L13.2129 8.33639C13.3796 8.18114 13.3796 7.91713 13.2129 7.76188C13.0621 7.62142 12.8284 7.62142 12.6777 7.76188L10.9408 9.38006C10.8083 9.50355 10.6028 9.50355 10.4703 9.38006L8.7334 7.76188C8.58263 7.62142 8.34891 7.62142 8.19815 7.76188C8.03151 7.91714 8.03151 8.18114 8.19815 8.33639L9.85853 9.88332C10.005 10.0198 10.005 10.2519 9.85853 10.3884L8.19815 11.9353C8.03151 12.0906 8.03151 12.3546 8.19815 12.5098C8.34891 12.6503 8.58263 12.6503 8.7334 12.5098L10.4703 10.8916C10.6028 10.7681 10.8083 10.7681 10.9408 10.8916L12.6777 12.5098C12.8284 12.6503 13.0621 12.6503 13.2129 12.5098C13.3796 12.3546 13.3796 12.0906 13.2129 11.9353L11.5525 10.3884Z" fill="#F40000" stroke="#F40000" stroke-width="0.230092"/>
<path d="M26.5518 10.3884C26.4053 10.2519 26.4053 10.0198 26.5518 9.88332L28.2122 8.33639C28.3788 8.18114 28.3788 7.91713 28.2122 7.76188C28.0614 7.62142 27.8277 7.62142 27.6769 7.76188L25.9401 9.38006C25.8075 9.50355 25.6021 9.50355 25.4695 9.38006L23.7327 7.76188C23.5819 7.62142 23.3482 7.62142 23.1974 7.76188C23.0308 7.91714 23.0308 8.18114 23.1974 8.33639L24.8578 9.88332C25.0043 10.0198 25.0043 10.2519 24.8578 10.3884L23.1974 11.9353C23.0308 12.0906 23.0308 12.3546 23.1974 12.5098C23.3482 12.6503 23.5819 12.6503 23.7327 12.5098L25.4695 10.8916C25.6021 10.7681 25.8075 10.7681 25.9401 10.8916L27.6769 12.5098C27.8277 12.6503 28.0614 12.6503 28.2122 12.5098C28.3788 12.3546 28.3788 12.0906 28.2122 11.9353L26.5518 10.3884Z" fill="#F40000" stroke="#F40000" stroke-width="0.230092"/>
<path d="M46.0629 11.9772L46.1486 12.0539L46.0629 11.9772C45.9379 12.1169 45.9379 12.3282 46.0629 12.4679C46.2091 12.6314 46.4651 12.6314 46.6114 12.4679L47.9463 10.9754C48.0835 10.822 48.3236 10.822 48.4608 10.9754L49.7958 12.4679C49.9421 12.6314 50.198 12.6314 50.3443 12.4679C50.4692 12.3282 50.4692 12.1169 50.3443 11.9772L48.9031 10.3659C48.7859 10.2349 48.7859 10.0368 48.9031 9.90575L50.3443 8.29444C50.4692 8.15477 50.4692 7.94351 50.3443 7.80383C50.198 7.6403 49.9421 7.6403 49.7958 7.80383L48.4608 9.29632C48.3236 9.44971 48.0835 9.44971 47.9463 9.29633L46.6114 7.80383C46.4651 7.6403 46.2091 7.6403 46.0629 7.80383C45.9379 7.94351 45.9379 8.15477 46.0629 8.29444L47.5041 9.90575C47.6213 10.0368 47.6213 10.2349 47.5041 10.3659L46.0629 11.9772Z" fill="#F40000" stroke="#F40000" stroke-width="0.230092"/>
<path d="M79.4904 10.3884C79.3439 10.2519 79.3439 10.0198 79.4904 9.88332L81.1508 8.33639C81.3174 8.18114 81.3174 7.91713 81.1508 7.76188C81 7.62142 80.7663 7.62142 80.6155 7.76188L78.8787 9.38006C78.7461 9.50355 78.5407 9.50355 78.4081 9.38006L76.6713 7.76188C76.5205 7.62142 76.2868 7.62142 76.136 7.76188C75.9694 7.91714 75.9694 8.18114 76.136 8.33639L77.7964 9.88332C77.9429 10.0198 77.9429 10.2519 77.7964 10.3884L76.136 11.9353C75.9694 12.0906 75.9694 12.3546 76.136 12.5098C76.2868 12.6503 76.5205 12.6503 76.6713 12.5098L78.4081 10.8916C78.5407 10.7681 78.7461 10.7681 78.8787 10.8916L80.6155 12.5098C80.7663 12.6503 81 12.6503 81.1508 12.5098C81.3174 12.3546 81.3174 12.0906 81.1508 11.9353L79.4904 10.3884Z" fill="#F40000" stroke="#F40000" stroke-width="0.230092"/>
<path d="M38.1222 11.9772L38.2079 12.0539L38.1222 11.9772C37.9973 12.1169 37.9973 12.3282 38.1222 12.4679C38.2685 12.6314 38.5244 12.6314 38.6707 12.4679L40.0057 10.9754C40.1429 10.822 40.383 10.822 40.5202 10.9754L41.8551 12.4679C42.0014 12.6314 42.2574 12.6314 42.4036 12.4679C42.5286 12.3282 42.5286 12.1169 42.4036 11.9772L40.9624 10.3659C40.8452 10.2349 40.8452 10.0368 40.9624 9.90575L42.4036 8.29444C42.5286 8.15477 42.5286 7.94351 42.4036 7.80383C42.2574 7.6403 42.0014 7.6403 41.8551 7.80383L40.5202 9.29632C40.383 9.44971 40.1429 9.44971 40.0057 9.29633L38.6707 7.80383C38.5244 7.6403 38.2685 7.6403 38.1222 7.80383C37.9973 7.94351 37.9973 8.15477 38.1222 8.29444L39.5634 9.90575C39.6806 10.0368 39.6806 10.2349 39.5634 10.3659L38.1222 11.9772Z" fill="#F40000" stroke="#F40000" stroke-width="0.230092"/>
</svg>
