<svg width="157" height="131" viewBox="0 0 157 131" fill="none" xmlns="http://www.w3.org/2000/svg">
<path d="M13.3788 1H143.682C150.522 1 156.06 6.53788 156.06 13.3788V117.621C156.06 124.462 150.522 130 143.682 130H13.3788C6.53787 130 1 124.462 1 117.621V13.3788C1 6.53788 6.53787 1 13.3788 1Z" fill="white" stroke="#FFCD17" stroke-width="0.958946"/>
<path d="M15.6586 107.848H14.9419V105.307H12.1404V107.848H11.4237V102.31H12.1404V104.721H14.9419V102.31H15.6586V107.848ZM16.8313 105.763C16.8313 105.373 16.8964 104.982 17.0919 104.656C17.2222 104.33 17.4828 104.069 17.7434 103.939C18.0692 103.744 18.3949 103.679 18.7207 103.679C19.307 103.679 19.7631 103.874 20.0889 104.265C20.4146 104.656 20.6101 105.177 20.6101 105.829V105.894C20.6101 106.285 20.5449 106.676 20.3495 107.001C20.2192 107.327 19.9586 107.588 19.698 107.718C19.4374 107.913 19.1116 107.979 18.7207 107.979C18.1343 107.979 17.6783 107.783 17.3525 107.392C17.0267 106.936 16.8313 106.415 16.8313 105.763ZM17.548 105.829C17.548 106.285 17.6783 106.676 17.8737 106.936C18.0692 107.197 18.3949 107.327 18.7207 107.327C19.0464 107.327 19.3722 107.197 19.5677 106.936C19.7631 106.676 19.8934 106.285 19.8934 105.763C19.8934 105.307 19.7631 104.916 19.5677 104.656C19.3722 104.395 19.0464 104.2 18.7207 104.265C18.3949 104.265 18.0692 104.395 17.8737 104.656C17.6783 104.916 17.548 105.307 17.548 105.829ZM23.998 106.936L25.4313 103.744H26.3434V107.848H25.6267V104.851L24.2586 107.848H23.7373L22.3692 104.786V107.848H21.6525V103.744H22.5646L23.998 106.936ZM29.2752 107.913C28.6889 107.913 28.2328 107.718 27.907 107.392C27.5813 107.001 27.3858 106.545 27.3858 105.894V105.763C27.3858 105.373 27.451 104.982 27.6464 104.656C27.7767 104.33 28.0373 104.069 28.2979 103.874C28.5586 103.679 28.8843 103.613 29.2101 103.613C29.7313 103.613 30.1873 103.809 30.4479 104.135C30.7086 104.46 30.904 104.982 30.904 105.633V105.959H28.1025C28.1025 106.35 28.2328 106.676 28.4282 106.936C28.6889 107.197 28.9495 107.327 29.2752 107.327C29.5358 107.327 29.7313 107.262 29.9267 107.197C30.1222 107.066 30.2525 106.936 30.3828 106.806L30.8389 107.132C30.4479 107.653 29.9267 107.913 29.2752 107.913ZM29.1449 104.2C28.8843 104.2 28.6237 104.33 28.4282 104.526C28.2328 104.721 28.1025 105.047 28.0373 105.373H30.1222V105.307C30.1222 104.916 29.9919 104.656 29.8616 104.46C29.6661 104.33 29.4707 104.2 29.1449 104.2ZM35.2691 105.829C35.2691 106.48 35.1388 106.936 34.8131 107.327C34.5525 107.718 34.1616 107.913 33.6404 107.913C33.1192 107.913 32.7282 107.783 32.4676 107.457V109.477H31.751V103.744H32.4025L32.4676 104.2C32.7282 103.874 33.1843 103.679 33.6404 103.679C34.1616 103.679 34.5525 103.874 34.8131 104.265C35.1388 104.591 35.2691 105.112 35.2691 105.829ZM34.6176 105.763C34.6176 105.307 34.4873 104.916 34.2919 104.656C34.0964 104.395 33.8358 104.265 33.4449 104.265C32.9888 104.265 32.7282 104.46 32.4676 104.851V106.806C32.6631 107.197 32.9888 107.392 33.4449 107.392C33.7707 107.392 34.0313 107.262 34.2267 107.001C34.4873 106.676 34.6176 106.285 34.6176 105.763ZM40.2207 103.939C40.7419 103.939 41.1328 104.135 41.4585 104.46C41.7843 104.786 41.9146 105.242 41.9146 105.829V105.894C41.9146 106.285 41.8494 106.61 41.7191 106.936C41.5888 107.262 41.3282 107.457 41.0676 107.653C40.807 107.848 40.4813 107.913 40.0904 107.913C39.504 107.913 39.1131 107.718 38.7222 107.392C38.3964 107.001 38.201 106.545 38.201 105.894V105.568C38.201 104.721 38.3313 104.004 38.657 103.483C38.9828 102.962 39.4388 102.636 40.0904 102.571C40.4161 102.506 40.6767 102.441 40.807 102.31C40.9373 102.245 41.0025 102.05 41.0025 101.919H41.5888C41.5888 102.245 41.5237 102.506 41.3934 102.636C41.2631 102.832 41.0025 102.962 40.6767 103.027L40.1555 103.157C39.7646 103.288 39.4388 103.418 39.1782 103.679C38.9828 103.939 38.8525 104.2 38.7873 104.591C39.2434 104.2 39.6994 103.939 40.2207 103.939ZM40.0904 104.526C39.7646 104.526 39.4388 104.656 39.2434 104.851C39.0479 105.112 38.9176 105.438 38.9176 105.829V105.894C38.9176 106.35 39.0479 106.676 39.2434 106.936C39.4388 107.197 39.6994 107.327 40.0904 107.327C40.4161 107.327 40.7419 107.197 40.9373 106.936C41.1328 106.676 41.2631 106.285 41.2631 105.829C41.2631 105.438 41.1328 105.112 40.9373 104.916C40.6767 104.656 40.4161 104.526 40.0904 104.526ZM45.4328 103.744H46.1494V107.848H45.4328V104.851L43.5434 107.848H42.8267V103.744H43.5434V106.741L45.4328 103.744ZM50.8403 103.744V107.848H50.1237V104.33H48.6903L48.6252 105.894C48.56 106.61 48.4297 107.132 48.2343 107.392C48.0388 107.718 47.7131 107.848 47.3222 107.848H47.0616V107.197H47.257C47.5176 107.197 47.6479 107.066 47.7782 106.806C47.9085 106.545 47.9085 106.154 47.9737 105.503L48.0388 103.744H50.8403ZM53.7722 107.913C53.1858 107.913 52.7297 107.718 52.404 107.392C52.0782 107.001 51.8828 106.545 51.8828 105.894V105.763C51.8828 105.373 51.9479 104.982 52.1434 104.656C52.2737 104.33 52.5343 104.069 52.7949 103.874C53.0555 103.679 53.3812 103.613 53.707 103.613C54.2282 103.613 54.6843 103.809 54.9449 104.135C55.2055 104.46 55.4009 104.982 55.4009 105.633V105.959H52.5994C52.5994 106.35 52.7297 106.676 52.9252 106.936C53.1858 107.197 53.4464 107.327 53.7722 107.327C54.0328 107.327 54.2282 107.262 54.4237 107.197C54.6191 107.066 54.7494 106.936 54.8797 106.806L55.3358 107.132C55.01 107.653 54.4888 107.913 53.7722 107.913ZM53.707 104.2C53.4464 104.2 53.1858 104.33 52.9903 104.526C52.7949 104.721 52.6646 105.047 52.5994 105.373H54.6843V105.307C54.6843 104.916 54.554 104.656 54.4237 104.46C54.2282 104.33 53.9676 104.2 53.707 104.2ZM59.3752 104.265H58.007V107.848H57.2903V104.265H55.9222V103.679H59.3752V104.265ZM62.6979 107.848C62.6328 107.783 62.6328 107.653 62.5676 107.392C62.2418 107.718 61.8509 107.913 61.3949 107.913C61.004 107.913 60.6782 107.783 60.4176 107.588C60.157 107.392 60.0267 107.066 60.0267 106.741C60.0267 106.285 60.157 105.959 60.5479 105.763C60.8737 105.503 61.3297 105.373 61.9161 105.373H62.6328V105.047C62.6328 104.786 62.5676 104.591 62.4373 104.46C62.307 104.33 62.0464 104.265 61.7858 104.265C61.5252 104.265 61.3297 104.33 61.1343 104.46C60.9388 104.591 60.8737 104.721 60.8737 104.916H60.157C60.157 104.721 60.2221 104.526 60.3525 104.33C60.4828 104.135 60.7434 104.004 60.9388 103.874C61.1994 103.744 61.46 103.679 61.7858 103.679C62.2418 103.679 62.6328 103.809 62.8934 104.069C63.154 104.33 63.2843 104.656 63.2843 105.047V106.936C63.2843 107.327 63.3494 107.588 63.4146 107.848V107.913H62.6979V107.848ZM61.5252 107.327C61.7206 107.327 61.9812 107.262 62.1767 107.132C62.3721 107.001 62.5024 106.871 62.6328 106.676V105.829H62.1115C61.2646 105.829 60.8085 106.089 60.8085 106.61C60.8085 106.806 60.8737 107.001 61.004 107.132C61.0691 107.262 61.2646 107.327 61.5252 107.327ZM13.9646 115.797C13.8343 115.992 13.6389 116.123 13.4434 116.188C13.248 116.318 12.9874 116.318 12.7919 116.318C12.4661 116.318 12.2055 116.253 11.9449 116.058C11.6843 115.862 11.4889 115.667 11.4237 115.406C11.2934 115.08 11.2283 114.754 11.2283 114.429C11.2283 114.038 11.2934 113.712 11.4237 113.451C11.554 113.126 11.7495 112.93 12.0101 112.8C12.2707 112.67 12.5965 112.539 12.9222 112.539C13.4434 112.539 13.8995 112.735 14.2252 113.126C14.551 113.517 14.6813 114.103 14.6813 114.82V115.015C14.6813 116.123 14.4858 116.905 14.0298 117.361C13.5737 117.882 12.9874 118.142 12.0752 118.142H11.9449V117.556H12.0752C12.6616 117.556 13.1177 117.426 13.4434 117.1C13.7692 116.905 13.8995 116.448 13.9646 115.797ZM12.8571 115.797C13.1177 115.797 13.3131 115.732 13.5086 115.601C13.704 115.471 13.8343 115.276 13.9646 115.08V114.82C13.9646 114.364 13.8343 113.973 13.6389 113.712C13.4434 113.451 13.1828 113.256 12.8571 113.256C12.5965 113.256 12.2707 113.386 12.1404 113.647C11.9449 113.908 11.8798 114.168 11.8798 114.559C11.8798 114.95 11.9449 115.276 12.1404 115.471C12.2707 115.732 12.5313 115.862 12.8571 115.797ZM18.4601 115.797C18.3298 115.992 18.1343 116.123 17.9389 116.188C17.7434 116.318 17.4828 116.318 17.2874 116.318C16.9616 116.318 16.701 116.253 16.4404 116.058C16.1798 115.862 15.9843 115.667 15.9192 115.406C15.7889 115.08 15.7237 114.754 15.7237 114.429C15.7237 114.038 15.7889 113.712 15.9192 113.451C16.0495 113.126 16.2449 112.93 16.5055 112.8C16.7661 112.67 17.0919 112.539 17.4177 112.539C17.9389 112.539 18.3949 112.735 18.7207 113.126C19.0464 113.517 19.1767 114.103 19.1767 114.82V115.015C19.1767 116.123 18.9813 116.905 18.5252 117.361C18.0692 117.882 17.4828 118.142 16.5707 118.142H16.4404V117.556H16.6358C17.2222 117.556 17.6783 117.426 18.004 117.1C18.2646 116.905 18.4601 116.448 18.4601 115.797ZM17.3525 115.797C17.6131 115.797 17.8086 115.732 18.004 115.601C18.1995 115.471 18.3298 115.276 18.4601 115.08V114.82C18.4601 114.364 18.3298 113.973 18.1343 113.712C17.9389 113.451 17.6783 113.256 17.3525 113.256C17.0267 113.256 16.7661 113.386 16.6358 113.647C16.4404 113.908 16.3752 114.168 16.3752 114.559C16.3752 114.95 16.4404 115.276 16.6358 115.471C16.8313 115.732 17.0919 115.797 17.3525 115.797ZM22.9555 115.797C22.8252 115.992 22.6298 116.123 22.4343 116.188C22.2389 116.318 21.9783 116.318 21.7828 116.318C21.457 116.318 21.1964 116.253 20.9358 116.058C20.6752 115.862 20.4798 115.667 20.4146 115.406C20.2843 115.08 20.2192 114.754 20.2192 114.429C20.2192 114.038 20.2843 113.712 20.4146 113.451C20.5449 113.126 20.7404 112.93 21.001 112.8C21.2616 112.67 21.5873 112.539 21.9131 112.539C22.4343 112.539 22.8904 112.735 23.2161 113.126C23.5419 113.517 23.6722 114.103 23.6722 114.82V115.015C23.6722 116.123 23.4767 116.905 23.0207 117.361C22.5646 117.882 21.9783 118.142 21.0661 118.142H20.9358V117.556H21.0661C21.6525 117.556 22.1086 117.426 22.4343 117.1C22.7601 116.905 22.9555 116.448 22.9555 115.797ZM21.9131 115.797C22.1737 115.797 22.3692 115.732 22.5646 115.601C22.7601 115.471 22.8904 115.276 23.0207 115.08V114.82C23.0207 114.364 22.8904 113.973 22.6949 113.712C22.4995 113.451 22.2389 113.256 21.9131 113.256C21.5873 113.256 21.3267 113.386 21.1964 113.647C21.001 113.908 20.9358 114.168 20.9358 114.559C20.9358 114.95 21.001 115.276 21.1964 115.471C21.3267 115.732 21.5873 115.797 21.9131 115.797ZM27.5161 115.797C27.3858 115.992 27.1904 116.123 26.9949 116.188C26.7995 116.318 26.5389 116.383 26.3434 116.318C26.0176 116.318 25.757 116.253 25.4964 116.058C25.2358 115.862 25.0404 115.667 24.9752 115.406C24.8449 115.08 24.7798 114.754 24.7798 114.429C24.7798 114.038 24.8449 113.712 24.9752 113.451C25.1055 113.126 25.301 112.93 25.5616 112.8C25.8222 112.67 26.1479 112.539 26.4737 112.539C26.9949 112.539 27.451 112.735 27.7767 113.126C28.1025 113.517 28.2328 114.103 28.2328 114.82V115.015C28.2328 116.123 28.0373 116.905 27.5813 117.361C27.1252 117.882 26.5389 118.142 25.6267 118.142H25.4964V117.556H25.6267C26.2131 117.556 26.6692 117.426 26.9949 117.1C27.3207 116.905 27.451 116.448 27.5161 115.797ZM26.4086 115.797C26.6692 115.797 26.8646 115.732 27.0601 115.601C27.2555 115.471 27.3858 115.276 27.5161 115.08V114.82C27.5161 114.364 27.3858 113.973 27.1904 113.712C26.9949 113.451 26.7343 113.256 26.4086 113.256C26.0828 113.256 25.8222 113.386 25.6919 113.647C25.4964 113.908 25.4313 114.168 25.4313 114.559C25.4313 114.95 25.4964 115.276 25.6919 115.471C25.8873 115.732 26.0828 115.797 26.4086 115.797ZM34.0964 115.797C33.9661 115.992 33.7707 116.123 33.5752 116.188C33.3798 116.318 33.1192 116.318 32.9237 116.318C32.5979 116.318 32.3373 116.253 32.0767 116.058C31.8161 115.862 31.6207 115.667 31.5555 115.406C31.4252 115.08 31.3601 114.754 31.3601 114.429C31.3601 114.038 31.4252 113.712 31.5555 113.451C31.6858 113.126 31.8813 112.93 32.1419 112.8C32.4025 112.67 32.7282 112.539 33.054 112.539C33.5752 112.539 34.0313 112.735 34.357 113.126C34.6828 113.517 34.8131 114.103 34.8131 114.82V115.015C34.8131 116.123 34.6176 116.905 34.1616 117.361C33.7055 117.882 33.1192 118.142 32.207 118.142H32.0767V117.556H32.207C32.7934 117.556 33.2495 117.426 33.5752 117.1C33.901 116.905 34.0313 116.448 34.0964 115.797ZM32.9888 115.797C33.2495 115.797 33.4449 115.732 33.6404 115.601C33.8358 115.471 33.9661 115.276 34.0964 115.08V114.82C34.0964 114.364 33.9661 113.973 33.7707 113.712C33.5752 113.451 33.3146 113.256 32.9888 113.256C32.6631 113.256 32.4025 113.386 32.2722 113.647C32.0767 113.908 32.0116 114.168 32.0116 114.559C32.0116 114.95 32.0767 115.276 32.2722 115.471C32.4676 115.732 32.7282 115.797 32.9888 115.797ZM38.5919 115.797C38.4616 115.992 38.2661 116.123 38.0707 116.188C37.8752 116.318 37.6146 116.383 37.4191 116.318C37.0934 116.318 36.8328 116.253 36.5722 116.058C36.3116 115.862 36.1161 115.667 36.051 115.406C35.9207 115.08 35.8555 114.754 35.8555 114.429C35.8555 114.038 35.9207 113.712 36.051 113.451C36.1813 113.126 36.3767 112.93 36.6373 112.8C36.8979 112.67 37.2237 112.539 37.5494 112.539C38.0707 112.539 38.5267 112.735 38.8525 113.126C39.1782 113.517 39.3085 114.103 39.3085 114.82V115.015C39.3085 116.123 39.1131 116.905 38.657 117.361C38.201 117.882 37.6146 118.142 36.7025 118.142H36.5722V117.556H36.7025C37.2888 117.556 37.7449 117.426 38.0707 117.1C38.3964 116.905 38.5919 116.448 38.5919 115.797ZM37.5494 115.797C37.8101 115.797 38.0055 115.732 38.201 115.601C38.3964 115.471 38.5267 115.276 38.657 115.08V114.82C38.657 114.364 38.5267 113.973 38.3313 113.712C38.1358 113.451 37.8752 113.256 37.5494 113.256C37.2888 113.256 36.9631 113.386 36.8328 113.647C36.6373 113.908 36.5722 114.168 36.5722 114.559C36.5722 114.95 36.6373 115.276 36.8328 115.471C36.9631 115.732 37.2237 115.862 37.5494 115.797ZM43.1525 115.797C43.0222 115.992 42.8267 116.123 42.6313 116.188C42.4358 116.318 42.1752 116.318 41.9797 116.318C41.654 116.318 41.3934 116.253 41.1328 116.058C40.8722 115.862 40.6767 115.667 40.6116 115.406C40.4813 115.08 40.4161 114.754 40.4161 114.429C40.4161 114.038 40.4813 113.712 40.6116 113.451C40.7419 113.126 40.9373 112.93 41.1979 112.8C41.4585 112.67 41.7843 112.539 42.1101 112.539C42.6313 112.539 43.0873 112.735 43.4131 113.126C43.7388 113.517 43.8691 114.103 43.8691 114.82V115.015C43.8691 116.123 43.6737 116.905 43.2176 117.361C42.7616 117.882 42.1752 118.142 41.2631 118.142H41.1328V117.556H41.2631C41.8494 117.556 42.3055 117.426 42.6313 117.1C42.957 116.905 43.0873 116.448 43.1525 115.797ZM42.0449 115.797C42.3055 115.797 42.501 115.732 42.6964 115.601C42.8919 115.471 43.0222 115.276 43.1525 115.08V114.82C43.1525 114.364 43.0222 113.973 42.8267 113.712C42.6313 113.451 42.3707 113.256 42.0449 113.256C41.7191 113.256 41.4585 113.386 41.3282 113.647C41.1328 113.908 41.0676 114.168 41.0676 114.559C41.0676 114.95 41.1328 115.276 41.3282 115.471C41.5237 115.732 41.7191 115.797 42.0449 115.797ZM47.6479 115.797C47.5176 115.992 47.3222 116.123 47.1267 116.188C46.9313 116.318 46.6707 116.318 46.4752 116.318C46.1494 116.318 45.8888 116.253 45.6282 116.058C45.3676 115.862 45.1722 115.667 45.107 115.406C44.9767 115.08 44.9116 114.754 44.9116 114.429C44.9116 114.038 44.9767 113.712 45.107 113.451C45.2373 113.126 45.4328 112.93 45.6934 112.8C45.954 112.67 46.2797 112.539 46.6055 112.539C47.1267 112.539 47.5828 112.735 47.9085 113.126C48.2343 113.517 48.3646 114.103 48.3646 114.82V115.015C48.3646 116.123 48.1691 116.905 47.7131 117.361C47.257 117.882 46.6707 118.142 45.7585 118.142H45.6282V117.556H45.7585C46.3449 117.556 46.801 117.426 47.1267 117.1C47.4525 116.905 47.6479 116.448 47.6479 115.797ZM46.5403 115.797C46.801 115.797 46.9964 115.732 47.1919 115.601C47.3873 115.471 47.5176 115.276 47.6479 115.08V114.82C47.6479 114.364 47.5176 113.973 47.3222 113.712C47.1267 113.451 46.8661 113.256 46.5403 113.256C46.2146 113.256 45.954 113.386 45.8237 113.647C45.6282 113.908 45.5631 114.168 45.5631 114.559C45.5631 114.95 45.6282 115.276 45.8237 115.471C46.0191 115.732 46.2797 115.797 46.5403 115.797ZM54.2282 115.797C54.0979 115.992 53.9025 116.123 53.707 116.188C53.5116 116.318 53.2509 116.318 53.0555 116.318C52.7297 116.318 52.4691 116.253 52.2085 116.058C51.9479 115.862 51.7525 115.667 51.6873 115.406C51.557 115.08 51.4919 114.754 51.4919 114.429C51.4919 114.038 51.557 113.712 51.6873 113.451C51.8176 113.126 52.0131 112.93 52.2737 112.8C52.5343 112.67 52.86 112.539 53.1858 112.539C53.707 112.539 54.1631 112.735 54.4888 113.126C54.8146 113.517 54.9449 114.103 54.9449 114.82V115.015C54.9449 116.123 54.7494 116.905 54.2934 117.361C53.8373 117.882 53.2509 118.142 52.3388 118.142H52.2085V117.556H52.3388C52.9252 117.556 53.3812 117.426 53.707 117.1C54.0328 116.905 54.2282 116.448 54.2282 115.797ZM53.1858 115.797C53.4464 115.797 53.6419 115.732 53.8373 115.601C54.0328 115.471 54.1631 115.276 54.2934 115.08V114.82C54.2934 114.364 54.1631 113.973 53.9676 113.712C53.7722 113.451 53.5115 113.256 53.1858 113.256C52.86 113.256 52.5994 113.386 52.4691 113.647C52.2737 113.908 52.2085 114.168 52.2085 114.559C52.2085 114.95 52.2737 115.276 52.4691 115.471C52.5994 115.732 52.86 115.797 53.1858 115.797ZM58.7888 115.797C58.6585 115.992 58.4631 116.123 58.2676 116.188C58.0722 116.318 57.8115 116.318 57.6161 116.318C57.2903 116.318 57.0297 116.253 56.7691 116.058C56.5085 115.862 56.3131 115.667 56.2479 115.406C56.1176 115.08 56.0525 114.754 56.0525 114.429C56.0525 114.038 56.1176 113.712 56.2479 113.451C56.3782 113.126 56.5737 112.93 56.8343 112.8C57.0949 112.67 57.4206 112.539 57.7464 112.539C58.2676 112.539 58.7237 112.735 59.0494 113.126C59.3752 113.517 59.5055 114.103 59.5055 114.82V115.015C59.5055 116.123 59.31 116.905 58.854 117.361C58.3979 117.882 57.8116 118.142 56.8994 118.142H56.7691V117.556H56.8994C57.4858 117.556 57.9418 117.426 58.2676 117.1C58.5934 116.905 58.7237 116.448 58.7888 115.797ZM57.6812 115.797C57.9419 115.797 58.1373 115.732 58.3328 115.601C58.5282 115.471 58.6585 115.276 58.7888 115.08V114.82C58.7888 114.364 58.6585 113.973 58.4631 113.712C58.2676 113.451 58.007 113.256 57.6812 113.256C57.3555 113.256 57.0949 113.386 56.9646 113.647C56.7691 113.908 56.704 114.168 56.704 114.559C56.704 114.95 56.7691 115.276 56.9646 115.471C57.0949 115.732 57.3555 115.797 57.6812 115.797ZM63.2843 115.797C63.154 115.992 62.9585 116.123 62.7631 116.188C62.5676 116.318 62.307 116.318 62.1115 116.318C61.7858 116.318 61.5252 116.253 61.2646 116.058C61.004 115.862 60.8085 115.667 60.7434 115.406C60.6131 115.08 60.5479 114.754 60.5479 114.429C60.5479 114.038 60.6131 113.712 60.7434 113.451C60.8737 113.126 61.0691 112.93 61.3297 112.8C61.5903 112.67 61.9161 112.539 62.2418 112.539C62.7631 112.539 63.2191 112.735 63.5449 113.126C63.8706 113.517 64.0009 114.103 64.0009 114.82V115.015C64.0009 116.123 63.8055 116.905 63.3494 117.361C62.8934 117.882 62.307 118.142 61.3949 118.142H61.2646V117.556H61.3949C61.9812 117.556 62.4373 117.426 62.7631 117.1C63.0888 116.905 63.2843 116.448 63.2843 115.797ZM62.1767 115.797C62.4373 115.797 62.6328 115.732 62.8282 115.601C63.0237 115.471 63.154 115.276 63.2843 115.08V114.82C63.2843 114.364 63.154 113.973 62.9585 113.712C62.7631 113.451 62.5024 113.256 62.1767 113.256C61.9161 113.256 61.5903 113.386 61.46 113.647C61.2646 113.908 61.1994 114.168 61.1994 114.559C61.1994 114.95 61.2646 115.276 61.46 115.471C61.6555 115.732 61.9161 115.862 62.1767 115.797ZM67.7797 115.797C67.6494 115.992 67.454 116.123 67.2585 116.188C67.0631 116.318 66.8024 116.318 66.607 116.318C66.2812 116.318 66.0206 116.253 65.76 116.058C65.4994 115.862 65.304 115.667 65.2388 115.406C65.1085 115.08 65.0434 114.754 65.0434 114.429C65.0434 114.038 65.1085 113.712 65.2388 113.451C65.3691 113.126 65.5646 112.93 65.8252 112.8C66.0858 112.67 66.4115 112.539 66.7373 112.539C67.2585 112.539 67.7146 112.735 68.0403 113.126C68.3661 113.517 68.4964 114.103 68.4964 114.82V115.015C68.4964 116.123 68.3009 116.905 67.8449 117.361C67.3888 117.882 66.8024 118.142 65.8903 118.142H65.76V117.556H65.8903C66.4767 117.556 66.9327 117.426 67.2585 117.1C67.5843 116.905 67.7797 116.448 67.7797 115.797ZM66.7373 115.797C66.9979 115.797 67.1934 115.732 67.3888 115.601C67.5843 115.471 67.7146 115.276 67.8449 115.08V114.82C67.8449 114.364 67.7146 113.973 67.5191 113.712C67.3237 113.451 67.063 113.256 66.7373 113.256C66.4115 113.256 66.1509 113.386 66.0206 113.647C65.8252 113.908 65.76 114.168 65.76 114.559C65.76 114.95 65.8252 115.276 66.0206 115.471C66.1509 115.732 66.4115 115.797 66.7373 115.797ZM74.4252 115.797C74.2949 115.992 74.0994 116.123 73.9039 116.188C73.7085 116.318 73.4479 116.318 73.2524 116.318C72.9267 116.318 72.6661 116.253 72.4055 116.058C72.1449 115.862 71.9494 115.667 71.8843 115.406C71.754 115.08 71.6888 114.754 71.6888 114.429C71.6888 114.038 71.754 113.712 71.8843 113.451C72.0146 113.126 72.21 112.93 72.4706 112.8C72.7312 112.67 73.057 112.539 73.3827 112.539C73.9039 112.539 74.36 112.735 74.6858 113.126C75.0115 113.517 75.1418 114.103 75.1418 114.82V115.015C75.1418 116.123 74.9464 116.905 74.4903 117.361C74.0343 117.882 73.4479 118.142 72.5358 118.142H72.4055V117.556H72.5358C73.1221 117.556 73.5782 117.426 73.9039 117.1C74.1646 116.905 74.36 116.448 74.4252 115.797ZM73.3176 115.797C73.5782 115.797 73.7737 115.732 73.9691 115.601C74.1646 115.471 74.2949 115.276 74.4252 115.08V114.82C74.4252 114.364 74.2949 113.973 74.0994 113.712C73.904 113.451 73.6433 113.256 73.3176 113.256C73.057 113.256 72.7312 113.386 72.6009 113.647C72.4055 113.908 72.3403 114.168 72.3403 114.559C72.3403 114.95 72.4055 115.276 72.6009 115.471C72.7312 115.732 72.9918 115.862 73.3176 115.797ZM78.9206 115.797C78.7903 115.992 78.5949 116.123 78.3994 116.188C78.2039 116.318 77.9433 116.318 77.7479 116.318C77.4221 116.318 77.1615 116.253 76.9009 116.058C76.6403 115.862 76.4449 115.667 76.3797 115.406C76.2494 115.08 76.1842 114.754 76.1842 114.429C76.1842 114.038 76.2494 113.712 76.3797 113.451C76.51 113.126 76.7055 112.93 76.9661 112.8C77.2267 112.67 77.5524 112.539 77.8782 112.539C78.3994 112.539 78.8555 112.735 79.1812 113.126C79.507 113.517 79.6373 114.103 79.6373 114.82V115.015C79.6373 116.123 79.4418 116.905 78.9858 117.361C78.5297 117.882 77.9433 118.142 77.0312 118.142H76.9009V117.556H77.0312C77.6176 117.556 78.0736 117.426 78.3994 117.1C78.7252 116.905 78.8555 116.448 78.9206 115.797ZM77.813 115.797C78.0736 115.797 78.2691 115.732 78.4646 115.601C78.66 115.471 78.7903 115.276 78.9206 115.08V114.82C78.9206 114.364 78.7903 113.973 78.5948 113.712C78.3994 113.451 78.1388 113.256 77.813 113.256C77.4873 113.256 77.2267 113.386 77.0964 113.647C76.9009 113.908 76.8358 114.168 76.8358 114.559C76.8358 114.95 76.9009 115.276 77.0964 115.471C77.2918 115.732 77.5524 115.797 77.813 115.797ZM83.4161 115.797C83.2858 115.992 83.0903 116.123 82.8949 116.188C82.6994 116.318 82.4388 116.318 82.2433 116.318C81.9176 116.318 81.657 116.253 81.3964 116.058C81.1358 115.862 80.9403 115.667 80.8752 115.406C80.7449 115.08 80.6797 114.754 80.6797 114.429C80.6797 114.038 80.7449 113.712 80.8752 113.451C81.0055 113.126 81.2009 112.93 81.4615 112.8C81.7221 112.67 82.0479 112.539 82.3736 112.539C82.8949 112.539 83.3509 112.735 83.6767 113.126C84.0024 113.517 84.1327 114.103 84.1327 114.82V115.015C84.1327 116.123 83.9373 116.905 83.4812 117.361C83.0251 117.882 82.4388 118.142 81.5267 118.142H81.3964V117.556H81.5267C82.113 117.556 82.5691 117.426 82.8949 117.1C83.2206 116.905 83.4161 116.448 83.4161 115.797ZM82.3736 115.797C82.6342 115.797 82.8297 115.732 83.0252 115.601C83.2206 115.471 83.3509 115.276 83.4812 115.08V114.82C83.4812 114.364 83.3509 113.973 83.1554 113.712C82.96 113.451 82.6994 113.256 82.3736 113.256C82.0479 113.256 81.7873 113.386 81.657 113.647C81.4615 113.908 81.3964 114.168 81.3964 114.559C81.3964 114.95 81.4615 115.276 81.657 115.471C81.7873 115.732 82.0479 115.797 82.3736 115.797ZM87.9767 115.797C87.8464 115.992 87.6509 116.123 87.4555 116.188C87.26 116.318 86.9994 116.318 86.8039 116.318C86.4782 116.318 86.2176 116.253 85.957 116.058C85.6964 115.862 85.5009 115.667 85.4358 115.406C85.3055 115.08 85.2403 114.754 85.2403 114.429C85.2403 114.038 85.3055 113.712 85.4358 113.451C85.5661 113.126 85.7615 112.93 86.0221 112.8C86.2827 112.67 86.6085 112.539 86.9342 112.539C87.4555 112.539 87.9115 112.735 88.2373 113.126C88.563 113.517 88.6933 114.103 88.6933 114.82V115.015C88.6933 116.123 88.4979 116.905 88.0418 117.361C87.5858 117.882 86.9994 118.142 86.0873 118.142H85.957V117.556H86.0873C86.6736 117.556 87.1297 117.426 87.4555 117.1C87.7812 116.905 87.9115 116.448 87.9767 115.797ZM86.8691 115.797C87.1297 115.797 87.3251 115.732 87.5206 115.601C87.7161 115.471 87.8464 115.276 87.9767 115.08V114.82C87.9767 114.364 87.8464 113.973 87.6509 113.712C87.4555 113.451 87.1948 113.256 86.8691 113.256C86.6085 113.256 86.2827 113.386 86.1524 113.647C85.957 113.908 85.8918 114.168 85.8918 114.559C85.8918 114.95 85.957 115.276 86.1524 115.471C86.2827 115.732 86.6085 115.862 86.8691 115.797Z" fill="#C8C8C8"/>
<path d="M11.1006 19.1124C11.1006 17.6791 11.1006 16.5716 11.1657 15.7246C11.2309 14.8776 11.3612 14.2913 11.6218 13.7701C12.0779 12.858 12.8597 12.0761 13.7718 11.6201C14.293 11.3595 14.8794 11.2292 15.7263 11.164C16.5733 11.0989 17.6809 11.0989 19.1142 11.0989H24.4566V23.6079H11.1006V19.1124ZM78.5974 11.0989H91.9535V23.6079H78.5974V11.0989ZM24.5869 11.0989H37.943V23.6079H24.5869V11.0989ZM92.0838 11.0989H105.44V23.6079H92.0838V11.0989ZM38.0733 11.0989H51.4293V23.6079H38.0733V11.0989ZM105.57 11.0989H118.926V23.6079H105.57V11.0989ZM51.6248 11.0989H64.9808V23.6079H51.6248V11.0989ZM119.056 11.0989H132.413V23.6079H119.056V11.0989ZM65.1111 11.0989H78.4671V23.6079H65.1111V11.0989ZM132.608 11.0989H137.95C139.384 11.0989 140.491 11.0989 141.338 11.164C142.185 11.2292 142.772 11.3595 143.293 11.6201C144.205 12.0761 144.987 12.858 145.443 13.7701C145.703 14.2913 145.834 14.8776 145.899 15.7246C145.964 16.5716 145.964 17.6791 145.964 19.1124V23.6079H132.608V11.0989ZM11.1006 23.7382H24.4566V36.2471H11.1006V23.7382ZM78.5974 23.7382H91.9535V36.2471H78.5974V23.7382ZM24.5869 23.7382H37.943V36.2471H24.5869V23.7382ZM92.0838 23.7382H105.44V36.2471H92.0838V23.7382ZM38.0733 23.7382H51.4293V36.2471H38.0733V23.7382ZM105.57 23.7382H118.926V36.2471H105.57V23.7382ZM51.6248 23.7382H64.9808V36.2471H51.6248V23.7382ZM119.056 23.7382H132.413V36.2471H119.056V23.7382ZM65.1111 23.7382H78.4671V36.2471H65.1111V23.7382ZM132.608 23.7382H145.964V36.2471H132.608V23.7382ZM11.1006 36.3775H24.4566V48.8864H11.1006V36.3775ZM78.5974 36.3775H91.9535V48.8864H78.5974V36.3775ZM24.5869 36.3775H37.943V48.8864H24.5869V36.3775ZM92.0838 36.3775H105.44V48.8864H92.0838V36.3775ZM38.0733 36.3775H51.4293V48.8864H38.0733V36.3775ZM105.57 36.3775H118.926V48.8864H105.57V36.3775ZM51.6248 36.3775H64.9808V48.8864H51.6248V36.3775ZM119.056 36.3775H132.413V48.8864H119.056V36.3775ZM65.1111 36.3775H78.4671V48.8864H65.1111V36.3775ZM132.608 36.3775H145.964V48.8864H132.608V36.3775Z" stroke="#F1F1F1" stroke-width="0.479473"/>
<path d="M18.4583 19.8934H17.5462V15.463L16.178 15.9191V15.1373L18.328 14.3554H18.4583V19.8934ZM29.6643 45.1725H28.7522V40.7421L27.384 41.1982V40.4164L29.534 39.6345H29.6643V45.1725ZM35.3325 42.827C35.3325 43.6088 35.2022 44.2603 34.8764 44.6513C34.5507 45.0422 34.0946 45.2376 33.5083 45.2376C32.9219 45.2376 32.4658 45.0422 32.1401 44.6513C31.8143 44.2603 31.684 43.674 31.684 42.8922V41.9149C31.684 41.133 31.8143 40.5467 32.1401 40.0906C32.4658 39.6997 32.9219 39.5042 33.5083 39.5042C34.0946 39.5042 34.5507 39.6997 34.8764 40.0906C35.2022 40.4815 35.3325 41.0679 35.3325 41.8497V42.827ZM34.4204 41.7846C34.4204 41.2633 34.3552 40.8724 34.2249 40.6118C34.0946 40.3512 33.834 40.2209 33.5734 40.2209C33.2477 40.2209 33.0522 40.3512 32.9219 40.5467C32.7916 40.8073 32.7264 41.133 32.7264 41.6543V42.8922C32.7264 43.4134 32.7916 43.8043 32.9219 44.0649C33.0522 44.3255 33.3128 44.4558 33.5734 44.4558C33.8992 44.4558 34.0946 44.3255 34.2249 44.13C34.3552 43.8694 34.4204 43.5437 34.4204 43.0225V41.7846ZM46.6688 19.8934H42.9552V19.2419L44.7794 17.2221C45.0401 16.8964 45.2355 16.7009 45.3658 16.5055C45.4961 16.31 45.5613 16.1145 45.5613 15.9191C45.5613 15.6585 45.4961 15.463 45.3658 15.2676C45.2355 15.1373 45.0401 15.007 44.7794 15.007C44.4537 15.007 44.2582 15.0721 44.0628 15.2676C43.8673 15.463 43.8022 15.7236 43.8022 16.0494H42.8901C42.8901 15.7236 42.9552 15.3979 43.1507 15.1373C43.281 14.8767 43.5416 14.616 43.8022 14.4857C44.0628 14.3554 44.3885 14.2903 44.7794 14.2903C45.3007 14.2903 45.7567 14.4206 46.0825 14.6812C46.4082 14.9418 46.5385 15.3327 46.5385 15.7888C46.5385 16.0494 46.4734 16.3752 46.2779 16.6358C46.1476 16.9615 45.887 17.2873 45.4961 17.6782L44.1279 19.1116H46.734C46.6688 19.1767 46.6688 19.8934 46.6688 19.8934ZM45.8219 26.9298V27.7117H45.6916C45.1704 27.7117 44.7794 27.842 44.4537 28.1677C44.1279 28.4283 43.9325 28.8193 43.9325 29.3405C44.2582 29.0147 44.584 28.8844 45.1052 28.8844C45.6264 28.8844 45.9522 29.0799 46.2779 29.4056C46.5385 29.7314 46.734 30.1874 46.734 30.7738C46.734 31.3602 46.5385 31.8163 46.2128 32.142C45.887 32.4678 45.431 32.6632 44.9098 32.6632C44.3234 32.6632 43.9325 32.4678 43.5416 32.0769C43.2158 31.686 43.0204 31.0996 43.0204 30.4481V30.1223C43.0204 29.145 43.281 28.3632 43.737 27.842C44.1931 27.3207 44.9098 26.995 45.7567 26.995C45.6916 26.9298 45.8219 26.9298 45.8219 26.9298ZM44.7794 29.6011C44.3885 29.6011 43.9976 29.8617 43.8673 30.2526V30.5132C43.8673 30.9041 43.9325 31.2299 44.1279 31.4905C44.3234 31.7511 44.5188 31.8814 44.7794 31.8814C45.0401 31.8814 45.3007 31.7511 45.431 31.5556C45.5613 31.3602 45.6916 31.0996 45.6916 30.7738C45.6916 30.4481 45.6264 30.1874 45.431 29.9268C45.3007 29.7314 45.0401 29.6011 44.7794 29.6011ZM70.9703 16.7009H71.5567C71.8173 16.7009 72.0779 16.6358 72.2082 16.5055C72.4037 16.3752 72.4688 16.1797 72.4688 15.8539C72.4688 15.5933 72.4037 15.3979 72.2734 15.2676C72.1431 15.1373 71.9476 15.0721 71.6218 15.0721C71.3612 15.0721 71.1658 15.1373 71.0355 15.2676C70.9052 15.3979 70.7749 15.5933 70.7749 15.8539H69.8627C69.8627 15.5933 69.9279 15.3327 70.0582 15.0721C70.1885 14.8115 70.4491 14.6812 70.7097 14.5509C70.9703 14.4206 71.2961 14.3554 71.6218 14.3554C72.2082 14.3554 72.5991 14.4857 72.9249 14.7463C73.2506 15.007 73.3809 15.3979 73.3809 15.9191C73.3809 16.1797 73.3158 16.3752 73.1203 16.6358C72.99 16.8312 72.7294 17.0267 72.534 17.157C72.8597 17.2873 73.0552 17.4176 73.2506 17.6782C73.3809 17.8737 73.5112 18.1994 73.5112 18.46C73.5112 18.9812 73.3158 19.3722 72.99 19.6328C72.6643 19.9585 72.2082 20.0888 71.6218 20.0888C71.1006 20.0888 70.6446 19.9585 70.3188 19.6328C69.9931 19.3722 69.7976 18.9812 69.7976 18.5252H70.7097C70.7097 18.7858 70.7749 18.9812 70.9703 19.1116C71.1658 19.2419 71.3612 19.3722 71.6218 19.3722C71.8824 19.3722 72.1431 19.307 72.2734 19.1116C72.4037 18.9161 72.534 18.7206 72.534 18.46C72.534 18.1994 72.4688 17.9388 72.2734 17.8085C72.0779 17.6782 71.8173 17.5479 71.4915 17.5479H70.9703C70.9703 17.4176 70.9703 16.7009 70.9703 16.7009ZM70.1234 45.1725H69.2112V40.7421L67.8431 41.1982V40.4164L69.9931 39.6345H70.1234V45.1725ZM74.684 45.1725H73.7718V40.7421L72.4037 41.1982V40.4164L74.5537 39.6345H74.684V45.1725ZM83.6097 45.1725H82.6976V40.7421L81.3294 41.1982V40.4164L83.4794 39.6345H83.6097V45.1725ZM89.4082 45.1725H85.6945V44.521L87.5188 42.5012C87.7794 42.1755 87.9748 41.98 88.1051 41.7846C88.2354 41.5891 88.3006 41.3937 88.3006 41.1982C88.3006 40.9376 88.2354 40.7421 88.1051 40.5467C87.9748 40.4164 87.7794 40.2861 87.5188 40.2861C87.193 40.2861 86.9976 40.3512 86.8021 40.5467C86.6067 40.7421 86.5415 41.0027 86.5415 41.3285H85.6294C85.6294 41.0027 85.6945 40.677 85.89 40.4164C86.0203 40.1558 86.2809 39.8951 86.5415 39.7648C86.8021 39.6345 87.1279 39.5694 87.5188 39.5694C88.04 39.5694 88.496 39.6997 88.8218 39.9603C89.1476 40.2209 89.2779 40.6118 89.2779 41.0679C89.2779 41.3285 89.2127 41.6543 89.0173 41.9149C88.887 42.2406 88.6264 42.5664 88.2354 42.9573L86.8673 44.3907H89.4733L89.4082 45.1725ZM124.134 45.1725H123.222V40.7421L121.854 41.1982V40.4164L124.004 39.6345H124.134V45.1725ZM127.261 41.98H127.848C128.108 41.98 128.369 41.9149 128.499 41.7846C128.694 41.6543 128.76 41.4588 128.76 41.133C128.76 40.8724 128.694 40.677 128.564 40.5467C128.434 40.4164 128.238 40.3512 127.913 40.3512C127.652 40.3512 127.457 40.4164 127.326 40.5467C127.196 40.677 127.066 40.8724 127.066 41.133H126.154C126.154 40.8724 126.219 40.6118 126.349 40.3512C126.479 40.0906 126.74 39.9603 127.001 39.83C127.261 39.6997 127.587 39.6345 127.913 39.6345C128.499 39.6345 128.89 39.7648 129.216 40.0254C129.541 40.2861 129.672 40.677 129.672 41.1982C129.672 41.4588 129.607 41.6543 129.411 41.9149C129.281 42.1103 129.02 42.3058 128.825 42.4361C129.151 42.5664 129.346 42.6967 129.541 42.9573C129.672 43.1528 129.802 43.4785 129.802 43.7391C129.802 44.2603 129.607 44.6513 129.281 44.9119C128.955 45.2376 128.499 45.3679 127.913 45.3679C127.391 45.3679 126.935 45.2376 126.61 44.9119C126.284 44.6513 126.088 44.2603 126.088 43.8043H127.001C127.001 44.0649 127.066 44.2603 127.261 44.3907C127.457 44.521 127.652 44.6513 127.913 44.6513C128.173 44.6513 128.434 44.5861 128.564 44.3907C128.76 44.2603 128.825 43.9997 128.825 43.7391C128.825 43.4785 128.76 43.2179 128.564 43.0876C128.369 42.9573 128.108 42.827 127.782 42.827H127.261V41.98ZM137.62 45.1725H136.708V40.7421L135.34 41.1982V40.4164L137.49 39.6345H137.62V45.1725ZM142.832 43.2179H143.549V43.9346H142.832V45.1725H141.92V43.9346H139.51V43.3482L141.92 39.5694H142.897V43.2179H142.832ZM140.422 43.2179H141.855V40.8724L141.79 41.0027L140.422 43.2179ZM86.5415 17.9388H87.2582V18.6555H86.5415V19.8934H85.6294V18.6555H83.2188V18.0691L85.6294 14.2903H86.6067C86.5415 14.3554 86.5415 17.9388 86.5415 17.9388ZM84.1309 17.9388H85.5642V15.5933L85.4991 15.7236L84.1309 17.9388ZM87.1279 27.5162L84.9127 32.5329H83.9355L86.1506 27.7117H83.2839V26.995H87.1279V27.5162ZM100.419 28.4283C100.419 28.6889 100.354 28.9496 100.223 29.145C100.093 29.3405 99.8975 29.5359 99.6369 29.6662C99.8975 29.7965 100.158 29.992 100.288 30.1874C100.419 30.4481 100.549 30.7087 100.549 30.9693C100.549 31.4905 100.354 31.8163 100.028 32.142C99.7021 32.4026 99.246 32.5981 98.7248 32.5981C98.2036 32.5981 97.7476 32.4678 97.4218 32.142C97.096 31.8814 96.9006 31.4905 96.9006 30.9693C96.9006 30.6435 96.9657 30.3829 97.1612 30.1874C97.3566 29.9268 97.5521 29.7314 97.8127 29.6662C97.5521 29.5359 97.3566 29.4056 97.2263 29.145C97.096 28.9496 97.0309 28.6889 97.0309 28.4283C97.0309 27.9723 97.1612 27.5814 97.4869 27.3207C97.8127 27.0601 98.2036 26.9298 98.7248 26.9298C99.246 26.9298 99.6369 27.0601 99.9627 27.3207C100.223 27.5814 100.419 27.9723 100.419 28.4283ZM99.5718 30.9693C99.5718 30.7087 99.5066 30.4481 99.3112 30.3178C99.1809 30.1223 98.9203 30.0571 98.6597 30.0571C98.3991 30.0571 98.2036 30.1223 98.0082 30.3178C97.8779 30.5132 97.7476 30.7087 97.7476 30.9693C97.7476 31.2299 97.8127 31.4905 98.0082 31.6208C98.1385 31.7511 98.3991 31.8814 98.6597 31.8814C98.9203 31.8814 99.1809 31.8163 99.3112 31.6208C99.5066 31.4905 99.5718 31.2299 99.5718 30.9693ZM99.5066 28.4935C99.5066 28.2329 99.4415 28.0374 99.3112 27.9071C99.1809 27.7768 98.9854 27.6465 98.7248 27.6465C98.4642 27.6465 98.2688 27.7117 98.1385 27.842C98.0082 27.9723 97.943 28.1677 97.943 28.4283C97.943 28.6889 98.0082 28.8844 98.1385 29.0147C98.2688 29.145 98.4642 29.2102 98.7248 29.2102C98.9854 29.2102 99.1157 29.145 99.3112 29.0147C99.4415 28.9496 99.5066 28.7541 99.5066 28.4935ZM140.031 30.1874C139.705 30.5132 139.379 30.7087 138.923 30.7087C138.402 30.7087 138.076 30.5132 137.751 30.1874C137.49 29.8617 137.294 29.4056 137.294 28.8193C137.294 28.4283 137.36 28.1026 137.49 27.842C137.62 27.5162 137.816 27.3207 138.141 27.1253C138.402 26.9298 138.728 26.8647 139.119 26.8647C139.705 26.8647 140.096 27.0601 140.422 27.5162C140.747 27.9071 140.943 28.4935 140.943 29.2102V29.4708C140.943 30.4481 140.747 31.2299 140.291 31.7511C139.835 32.2723 139.184 32.5329 138.272 32.5329H138.141V31.7511H138.272C138.793 31.7511 139.249 31.6208 139.51 31.3602C139.835 31.1647 139.966 30.7738 140.031 30.1874ZM139.119 29.992C139.314 29.992 139.51 29.9268 139.64 29.8617C139.77 29.7314 139.901 29.6011 140.031 29.4056V29.0147C140.031 28.6238 139.966 28.298 139.77 28.0374C139.575 27.7768 139.379 27.6465 139.119 27.6465C138.858 27.6465 138.663 27.7768 138.467 27.9723C138.337 28.1677 138.207 28.4935 138.207 28.8193C138.207 29.145 138.272 29.4708 138.467 29.6662C138.663 29.8617 138.858 29.992 139.119 29.992ZM137.62 17.157L137.946 14.3554H140.943V15.1373H138.728L138.597 16.4403C138.858 16.31 139.119 16.2449 139.444 16.2449C139.966 16.2449 140.357 16.4403 140.682 16.7661C141.008 17.0918 141.138 17.5479 141.138 18.1343C141.138 18.7206 141.008 19.1767 140.617 19.5025C140.291 19.8282 139.835 20.0237 139.249 20.0237C138.728 20.0237 138.337 19.8934 138.011 19.5676C137.685 19.307 137.49 18.9161 137.49 18.3949H138.402C138.467 18.6555 138.532 18.8509 138.663 19.0464C138.793 19.1767 139.054 19.2419 139.249 19.2419C139.51 19.2419 139.77 19.1116 139.901 18.9161C140.031 18.7206 140.161 18.46 140.161 18.0691C140.161 17.7434 140.096 17.4827 139.901 17.2873C139.705 17.0918 139.51 16.9615 139.184 16.9615C138.988 16.9615 138.858 16.9615 138.728 17.0267C138.597 17.0918 138.467 17.157 138.337 17.2873L137.62 17.157Z" fill="#595959"/>
<path d="M11.1006 19.1124C11.1006 17.6791 11.1006 16.5716 11.1657 15.7246C11.2309 14.8776 11.3612 14.2913 11.6218 13.7701C12.0779 12.858 12.8597 12.0761 13.7718 11.6201C14.293 11.3595 14.8794 11.2292 15.7263 11.164C16.5733 11.0989 17.6809 11.0989 19.1142 11.0989H137.95C139.384 11.0989 140.491 11.0989 141.338 11.164C142.185 11.2292 142.772 11.3595 143.293 11.6201C144.205 12.0761 144.987 12.858 145.443 13.7701L145.703 13.6398L145.443 13.7701C145.703 14.2913 145.834 14.8776 145.899 15.7246C145.964 16.5716 145.964 17.6791 145.964 19.1124V48.8864H11.1006V19.1124Z" stroke="#C8C8C8" stroke-width="0.479473"/>
<path d="M11.0977 54.7517H24.4537V67.2607H11.0977V54.7517ZM78.5945 54.7517H91.9506V67.2607H78.5945V54.7517ZM24.584 54.7517H37.94V67.2607H24.584V54.7517ZM92.0809 54.7517H105.437V67.2607H92.0809V54.7517ZM38.0703 54.7517H51.4264V67.2607H38.0703V54.7517ZM105.567 54.7517H118.923V67.2607H105.567V54.7517ZM51.6218 54.7517H64.9779V67.2607H51.6218V54.7517ZM119.054 54.7517H132.41V67.2607H119.054V54.7517ZM65.1082 54.7517H78.4642V67.2607H65.1082V54.7517ZM132.605 54.7517H145.961V67.2607H132.605V54.7517ZM11.0977 67.391H24.4537V79.9H11.0977V67.391ZM78.5945 67.391H91.9506V79.9H78.5945V67.391ZM24.584 67.391H37.94V79.9H24.584V67.391ZM92.0809 67.391H105.437V79.9H92.0809V67.391ZM38.0703 67.391H51.4264V79.9H38.0703V67.391ZM105.567 67.391H118.923V79.9H105.567V67.391ZM51.6218 67.391H64.9779V79.9H51.6218V67.391ZM119.054 67.391H132.41V79.9H119.054V67.391ZM65.1082 67.391H78.4642V79.9H65.1082V67.391ZM132.605 67.391H145.961V79.9H132.605V67.391ZM11.0977 80.0303H24.4537V92.5393H19.1113C17.6779 92.5393 16.5704 92.5393 15.7234 92.4741C14.8764 92.409 14.2901 92.2787 13.7689 92.0181C12.8567 91.562 12.0749 90.7802 11.6189 89.8681C11.3583 89.3469 11.228 88.7605 11.1628 87.9135C11.0977 87.0666 11.0977 85.959 11.0977 84.5257C11.0977 84.5257 11.0977 80.0303 11.0977 80.0303ZM78.5945 80.0303H91.9506V92.5393H78.5945V80.0303ZM24.584 80.0303H37.94V92.5393H24.584V80.0303ZM92.0809 80.0303H105.437V92.5393H92.0809V80.0303ZM38.0703 80.0303H51.4264V92.5393H38.0703V80.0303ZM105.567 80.0303H118.923V92.5393H105.567V80.0303ZM51.6218 80.0303H64.9779V92.5393H51.6218V80.0303ZM119.054 80.0303H132.41V92.5393H119.054V80.0303ZM65.1082 80.0303H78.4642V92.5393H65.1082V80.0303ZM132.605 80.0303H145.961V84.5257C145.961 85.959 145.961 87.0666 145.896 87.9135C145.831 88.7605 145.7 89.3469 145.44 89.8681C144.984 90.7802 144.202 91.562 143.29 92.0181C142.769 92.2787 142.182 92.409 141.335 92.4741C140.488 92.5393 139.381 92.5393 137.947 92.5393H132.605V80.0303Z" stroke="#F1F1F1" stroke-width="0.479473"/>
<path d="M16.1137 63.5465H15.2015V59.1161L13.8334 59.5722V58.7903L15.9834 58.0085H16.1137V63.5465ZM18.4591 60.8101L18.7849 58.0085H21.7818V58.7903H19.5667L19.4364 60.0934C19.697 59.9631 20.0227 59.8979 20.2833 59.8979C20.8046 59.8979 21.1955 60.0934 21.5212 60.4191C21.847 60.7449 21.9773 61.201 21.9773 61.7873C21.9773 62.3737 21.847 62.8298 21.4561 63.1555C21.1303 63.4813 20.6743 63.6768 20.0879 63.6768C19.5667 63.6768 19.1758 63.5465 18.85 63.2207C18.5243 62.9601 18.3288 62.5692 18.3288 62.048H19.2409C19.3061 62.3086 19.3712 62.504 19.5015 62.6995C19.6318 62.8298 19.8924 62.8949 20.153 62.8949C20.4137 62.8949 20.6743 62.7646 20.8046 62.5692C20.9349 62.3737 21.0652 62.1131 21.0652 61.7222C21.0652 61.3964 21 61.1358 20.8046 60.9404C20.6091 60.7449 20.4137 60.6146 20.0879 60.6146C19.8924 60.6146 19.7621 60.6146 19.6318 60.6798C19.5015 60.7449 19.3712 60.8101 19.2409 60.9404L18.4591 60.8101ZM16.1137 76.186H15.2015V71.7556L13.8334 72.2117V71.4299L15.9834 70.6481H16.1137V76.186ZM20.8046 73.9057C20.4788 74.2314 20.153 74.4269 19.697 74.4269C19.1758 74.4269 18.85 74.2314 18.5243 73.9057C18.2637 73.5799 18.0682 73.1238 18.0682 72.5375C18.0682 72.1466 18.1334 71.8208 18.2637 71.5602C18.394 71.2344 18.5894 71.039 18.9152 70.8435C19.1758 70.6481 19.5015 70.5829 19.8924 70.5829C20.4788 70.5829 20.8697 70.7784 21.1955 71.2344C21.5212 71.6253 21.7167 72.2117 21.7167 72.9284V73.189C21.7167 74.1663 21.5212 74.9481 21.0652 75.4693C20.6091 75.9905 19.9576 76.2512 19.0455 76.2512H18.9152V75.4693H19.0455C19.5667 75.4693 20.0227 75.339 20.2833 75.0784C20.6091 74.8178 20.8046 74.4269 20.8046 73.9057ZM19.9576 73.6451C20.153 73.6451 20.3485 73.5799 20.4788 73.5148C20.6091 73.4496 20.7394 73.2541 20.8697 73.0587V72.6678C20.8697 72.2769 20.8046 71.9511 20.6091 71.6905C20.4137 71.4299 20.2182 71.2996 19.9576 71.2996C19.697 71.2996 19.5015 71.4299 19.3061 71.6253C19.1758 71.8208 19.0455 72.1466 19.0455 72.4723C19.0455 72.7981 19.1106 73.1238 19.3061 73.3193C19.4364 73.5799 19.697 73.6451 19.9576 73.6451ZM30.8379 88.8256H27.1242V88.174L28.9485 86.1543C29.2091 85.8285 29.4045 85.6331 29.5348 85.4376C29.6651 85.2422 29.7303 85.0467 29.7303 84.8513C29.7303 84.5906 29.6651 84.3952 29.5348 84.1997C29.4045 84.0694 29.2091 83.9391 28.9485 83.9391C28.6227 83.9391 28.4273 84.0043 28.2318 84.1997C28.0364 84.3952 27.9712 84.6558 27.9712 84.9816H27.0591C27.0591 84.6558 27.1242 84.33 27.3197 84.0694C27.45 83.8088 27.7106 83.5482 27.9712 83.4179C28.2318 83.2876 28.5576 83.2225 28.9485 83.2225C29.4697 83.2225 29.9258 83.3528 30.2515 83.6134C30.5773 83.874 30.7076 84.2649 30.7076 84.721C30.7076 84.9816 30.6424 85.3073 30.447 85.5679C30.3167 85.8937 30.0561 86.2195 29.6651 86.6104L28.297 88.0437H30.903L30.8379 88.8256ZM31.9454 86.0892L32.2712 83.2876H35.2682V84.0694H33.053L32.9227 85.3725C33.1833 85.2422 33.5091 85.177 33.7697 85.177C34.2909 85.177 34.6818 85.3725 35.0076 85.6982C35.3333 86.024 35.4636 86.4801 35.4636 87.0664C35.4636 87.6528 35.3333 88.1089 34.9424 88.4346C34.6167 88.7604 34.1606 88.9559 33.5742 88.9559C33.053 88.9559 32.6621 88.8256 32.3364 88.4998C32.0106 88.2392 31.8151 87.8483 31.8151 87.327H32.7273C32.7924 87.5877 32.8576 87.7831 32.9879 87.9786C33.1182 88.1089 33.3788 88.174 33.5742 88.174C33.8348 88.174 34.0954 88.0437 34.2257 87.8483C34.3561 87.6528 34.4864 87.3922 34.4864 87.0013C34.4864 86.6755 34.4212 86.4149 34.2257 86.2195C34.0303 86.024 33.8348 85.8937 33.5091 85.8937C33.3788 85.8937 33.2485 85.8937 33.053 85.9588C32.9227 86.024 32.7924 86.0892 32.6621 86.2195L31.9454 86.0892ZM17.3515 88.8256H13.6379V88.174L15.4621 86.1543C15.7228 85.8285 15.9182 85.6331 16.0485 85.4376C16.1788 85.2422 16.244 85.0467 16.244 84.8513C16.244 84.5906 16.1788 84.3952 16.0485 84.1997C15.9182 84.0694 15.7228 83.9391 15.4621 83.9391C15.1364 83.9391 14.9409 84.0043 14.7455 84.1997C14.55 84.3952 14.4849 84.6558 14.4849 84.9816H13.5728C13.5728 84.6558 13.6379 84.33 13.8334 84.0694C13.9637 83.8088 14.2243 83.5482 14.4849 83.4179C14.7455 83.2876 15.1364 83.2225 15.4621 83.2225C15.9834 83.2225 16.4394 83.3528 16.7652 83.6134C17.0909 83.874 17.2212 84.2649 17.2212 84.721C17.2212 84.9816 17.1561 85.3073 16.9606 85.5679C16.8303 85.8937 16.5697 86.2195 16.1788 86.6104L14.8106 88.0437H17.4167L17.3515 88.8256ZM21.3258 86.871H22.0424V87.5877H21.3258V88.8256H20.4137V87.5877H18.003V87.0013L20.4137 83.2225H21.3909L21.3258 86.871ZM18.9803 86.871H20.4137V84.5255L20.3485 84.6558L18.9803 86.871ZM43.1515 63.5465H42.2394V59.1161L40.8712 59.5722V58.7903L43.0212 58.0085H43.1515V63.5465ZM48.103 57.9434V58.7252H47.9727C47.4515 58.7252 47.0606 58.8555 46.7348 59.1813C46.4091 59.4419 46.2136 59.8328 46.2136 60.354C46.5394 60.0282 46.8651 59.8979 47.3863 59.8979C47.9075 59.8979 48.2333 60.0934 48.5591 60.4191C48.8197 60.7449 49.0151 61.201 49.0151 61.7873C49.0151 62.3737 48.8197 62.8298 48.4939 63.1555C48.1681 63.4813 47.7121 63.6768 47.1909 63.6768C46.6045 63.6768 46.2136 63.4813 45.8227 63.0904C45.4969 62.6995 45.3015 62.1131 45.3015 61.4616V61.1358C45.3015 60.1585 45.5621 59.3767 46.0182 58.8555C46.4742 58.3343 47.1909 58.0085 48.0378 58.0085C47.9727 57.9434 48.103 57.9434 48.103 57.9434ZM47.0606 60.6146C46.6697 60.6146 46.2788 60.8752 46.1485 61.2661V61.5267C46.1485 61.9176 46.2136 62.2434 46.4091 62.504C46.6045 62.7646 46.8 62.8949 47.0606 62.8949C47.3212 62.8949 47.5818 62.7646 47.7121 62.5692C47.8424 62.3737 47.9727 62.1131 47.9727 61.7873C47.9727 61.4616 47.9075 61.1358 47.7121 60.9404C47.5818 60.7449 47.3212 60.6146 47.0606 60.6146ZM57.8757 76.186H54.1621V75.5345L55.9863 73.5148C56.2469 73.189 56.4424 72.9935 56.5727 72.7981C56.703 72.6026 56.7681 72.4072 56.7681 72.2117C56.7681 71.9511 56.703 71.7556 56.5727 71.5602C56.4424 71.4299 56.2469 71.2996 55.9863 71.2996C55.6606 71.2996 55.4651 71.3647 55.2696 71.5602C55.0742 71.7556 55.009 72.0163 55.009 72.342H54.0969C54.0969 72.0163 54.1621 71.6905 54.3575 71.4299C54.4878 71.1693 54.7484 70.9087 55.009 70.7784C55.2696 70.6481 55.5954 70.5829 55.9863 70.5829C56.5075 70.5829 56.9636 70.7132 57.2893 70.9738C57.6151 71.2344 57.7454 71.6253 57.7454 72.0814C57.7454 72.342 57.6802 72.6678 57.4848 72.9284C57.3545 73.2542 57.0939 73.5799 56.703 73.9708L55.3348 75.4042H57.9409L57.8757 76.186ZM62.306 73.8405C62.306 74.6224 62.1757 75.2739 61.8499 75.6648C61.5242 76.0557 61.0681 76.2512 60.4818 76.2512C59.8954 76.2512 59.4393 76.0557 59.1136 75.6648C58.7878 75.2739 58.6575 74.6875 58.6575 73.9057V72.9284C58.6575 72.1466 58.7878 71.5602 59.1136 71.1041C59.4393 70.7132 59.8954 70.5178 60.4818 70.5178C61.0681 70.5178 61.5242 70.7132 61.8499 71.1041C62.1757 71.495 62.306 72.0814 62.306 72.8632V73.8405ZM61.3939 72.7981C61.3939 72.2769 61.3287 71.886 61.1984 71.6253C61.0681 71.3647 60.8075 71.2344 60.5469 71.2344C60.2212 71.2344 60.0257 71.3647 59.8954 71.5602C59.7651 71.8208 59.6999 72.1466 59.6999 72.6678V73.9057C59.6999 74.4269 59.7651 74.8178 59.8954 75.0784C60.0257 75.339 60.2863 75.4693 60.5469 75.4693C60.8727 75.4693 61.0681 75.339 61.1984 75.1436C61.3287 74.883 61.3939 74.5572 61.3939 74.036V72.7981ZM70.1242 63.5465H69.212V59.1161L67.8439 59.5722V58.7903L69.9939 58.0085H70.1242V63.5465ZM75.9226 58.5297L73.7075 63.5465H72.7302L74.9454 58.7252H72.0136V58.0085H75.8575V58.5297H75.9226ZM71.362 88.8256H67.6484V88.174L69.4727 86.1543C69.7333 85.8285 69.9287 85.6331 70.059 85.4376C70.1893 85.2422 70.2545 85.0467 70.2545 84.8513C70.2545 84.5906 70.1893 84.3952 70.059 84.1997C69.9287 84.0694 69.7333 83.9391 69.4727 83.9391C69.1469 83.9391 68.9514 84.0043 68.756 84.1997C68.5605 84.3952 68.4954 84.6558 68.4954 84.9816H67.5833C67.5833 84.6558 67.6484 84.33 67.8439 84.0694C67.9742 83.8088 68.2348 83.5482 68.4954 83.4179C68.756 83.2876 69.0817 83.2225 69.4727 83.2225C69.9939 83.2225 70.4499 83.3528 70.7757 83.6134C71.1014 83.874 71.2317 84.2649 71.2317 84.721C71.2317 84.9816 71.1666 85.3073 70.9711 85.5679C70.8408 85.8937 70.5802 86.2195 70.1893 86.6104L68.8211 88.0437H71.4272L71.362 88.8256ZM75.0757 83.2225V84.0043H74.9454C74.4242 84.0043 74.0333 84.1346 73.7075 84.4604C73.3817 84.721 73.1863 85.1119 73.1863 85.6331C73.512 85.3073 73.8378 85.177 74.359 85.177C74.8802 85.177 75.206 85.3725 75.5317 85.6982C75.7923 86.024 75.9878 86.4801 75.9878 87.0664C75.9878 87.6528 75.7923 88.1089 75.4666 88.4346C75.1408 88.7604 74.6848 88.9559 74.1636 88.9559C73.5772 88.9559 73.1863 88.7604 72.7954 88.3695C72.4696 87.9786 72.2742 87.3922 72.2742 86.7407V86.3498C72.2742 85.3725 72.5348 84.5907 72.9908 84.0694C73.4469 83.5482 74.1636 83.2225 75.0105 83.2225H75.0757ZM74.0984 85.8937C73.7075 85.8937 73.3166 86.1543 73.1863 86.5452V86.8058C73.1863 87.1967 73.2514 87.5225 73.4469 87.7831C73.6423 88.0437 73.8378 88.174 74.0984 88.174C74.359 88.174 74.6196 88.0437 74.7499 87.8483C74.8802 87.6528 75.0105 87.3922 75.0105 87.0664C75.0105 86.7407 74.9454 86.4801 74.7499 86.2195C74.5545 86.024 74.359 85.8937 74.0984 85.8937ZM84.8484 88.8256H81.1348V88.174L82.959 86.1543C83.2196 85.8285 83.415 85.6331 83.5453 85.4376C83.6757 85.2422 83.7408 85.0467 83.7408 84.8513C83.7408 84.5906 83.6757 84.3952 83.5453 84.1997C83.415 84.0694 83.2196 83.9391 82.959 83.9391C82.6332 83.9391 82.4378 84.0043 82.2423 84.1997C82.0469 84.3952 81.9817 84.6558 81.9817 84.9816H81.0696C81.0696 84.6558 81.1348 84.33 81.3302 84.0694C81.4605 83.8088 81.7211 83.5482 81.9817 83.4179C82.2423 83.2876 82.5681 83.2225 82.959 83.2225C83.4802 83.2225 83.9363 83.3528 84.262 83.6134C84.5878 83.874 84.7181 84.2649 84.7181 84.721C84.7181 84.9816 84.6529 85.3073 84.4575 85.5679C84.3272 85.8937 84.0666 86.2195 83.6757 86.6104L82.3075 88.0437H84.9135V88.8256H84.8484ZM89.409 83.8088L87.1938 88.8256H86.2166L88.4317 84.0043H85.565V83.2876H89.409V83.8088ZM122.701 85.6331H123.288C123.548 85.6331 123.809 85.5679 123.939 85.4376C124.135 85.3073 124.2 85.1119 124.2 84.7861C124.2 84.5255 124.135 84.33 124.004 84.1997C123.874 84.0694 123.679 84.0043 123.353 84.0043C123.092 84.0043 122.897 84.0694 122.766 84.1997C122.636 84.33 122.506 84.5255 122.506 84.7861H121.529C121.529 84.5255 121.594 84.2649 121.724 84.0043C121.854 83.7437 122.115 83.6134 122.376 83.4831C122.636 83.3528 122.962 83.2876 123.288 83.2876C123.874 83.2876 124.265 83.4179 124.591 83.6785C124.916 83.9391 125.047 84.33 125.047 84.8513C125.047 85.1119 124.982 85.3073 124.786 85.5679C124.656 85.7634 124.395 85.9589 124.2 86.0892C124.526 86.2195 124.721 86.3498 124.916 86.6104C125.047 86.8058 125.177 87.1316 125.177 87.3922C125.177 87.9134 124.982 88.3043 124.656 88.5649C124.33 88.8907 123.874 89.021 123.288 89.021C122.766 89.021 122.31 88.8907 121.985 88.5649C121.659 88.3043 121.463 87.9134 121.463 87.4573H122.376C122.376 87.718 122.441 87.9134 122.636 88.0437C122.832 88.174 123.027 88.3043 123.288 88.3043C123.548 88.3043 123.809 88.2392 123.939 88.0437C124.135 87.9134 124.2 87.6528 124.2 87.3922C124.2 87.1316 124.135 86.871 123.939 86.7407C123.744 86.6104 123.483 86.4801 123.157 86.4801H122.636V85.6331H122.701ZM129.803 86.4801C129.803 87.2619 129.673 87.9134 129.347 88.3043C129.021 88.6952 128.565 88.8907 127.979 88.8907C127.392 88.8907 126.936 88.6952 126.61 88.3043C126.285 87.9134 126.154 87.327 126.154 86.5452V85.5679C126.154 84.7861 126.285 84.1997 126.61 83.7437C126.936 83.3528 127.392 83.1573 127.979 83.1573C128.565 83.1573 129.021 83.3528 129.347 83.7437C129.673 84.1346 129.803 84.721 129.803 85.5028V86.4801ZM128.891 85.4376C128.891 84.9164 128.826 84.5255 128.695 84.2649C128.565 84.0043 128.304 83.874 128.044 83.874C127.718 83.874 127.523 84.0043 127.392 84.1997C127.262 84.4603 127.197 84.7861 127.197 85.3073V86.5452C127.197 87.0664 127.262 87.4574 127.392 87.718C127.523 87.9786 127.783 88.1089 128.044 88.1089C128.37 88.1089 128.565 87.9786 128.695 87.7831C128.826 87.5225 128.891 87.1967 128.891 86.6755V85.4376ZM111.821 88.8256H108.107V88.174L109.932 86.1543C110.192 85.8285 110.388 85.6331 110.518 85.4376C110.648 85.2422 110.713 85.0467 110.713 84.8513C110.713 84.5906 110.648 84.3952 110.518 84.1997C110.388 84.0694 110.192 83.9391 109.932 83.9391C109.606 83.9391 109.41 84.0043 109.215 84.1997C109.02 84.3952 108.954 84.6558 108.954 84.9816H108.042C108.042 84.6558 108.107 84.33 108.303 84.0694C108.433 83.8088 108.694 83.5482 108.954 83.4179C109.215 83.2876 109.541 83.2225 109.932 83.2225C110.453 83.2225 110.909 83.3528 111.235 83.6134C111.56 83.874 111.691 84.2649 111.691 84.721C111.691 84.9816 111.626 85.3073 111.43 85.5679C111.3 85.8937 111.039 86.2195 110.648 86.6104L109.28 88.0437H111.886L111.821 88.8256ZM115.339 86.4801C115.013 86.8058 114.688 87.0013 114.232 87.0013C113.71 87.0013 113.385 86.8058 113.059 86.4801C112.798 86.1543 112.603 85.6982 112.603 85.1119C112.603 84.721 112.668 84.3952 112.798 84.1346C112.929 83.8088 113.124 83.6134 113.45 83.4179C113.776 83.2225 114.036 83.1573 114.427 83.1573C115.013 83.1573 115.404 83.3528 115.73 83.8088C116.056 84.2649 116.251 84.7861 116.251 85.5028V85.7634C116.251 86.7407 116.056 87.5225 115.6 88.0437C115.144 88.5649 114.492 88.8256 113.58 88.8256H113.45V88.0437H113.58C114.101 88.0437 114.557 87.9134 114.818 87.6528C115.144 87.4574 115.274 87.0664 115.339 86.4801ZM114.427 86.2846C114.623 86.2846 114.818 86.2195 114.948 86.1543C115.144 86.024 115.274 85.8937 115.339 85.6982V85.3073C115.339 84.9164 115.274 84.5906 115.079 84.33C114.883 84.0694 114.688 83.9391 114.427 83.9391C114.167 83.9391 113.971 84.0694 113.776 84.2649C113.645 84.4603 113.515 84.7861 113.515 85.1119C113.515 85.4376 113.58 85.7634 113.776 85.9588C113.971 86.1543 114.167 86.2846 114.427 86.2846ZM98.3347 88.8256H94.6211V88.174L96.4453 86.1543C96.7059 85.8285 96.9014 85.6331 97.0317 85.4376C97.162 85.2422 97.2271 85.0467 97.2271 84.8513C97.2271 84.5906 97.162 84.3952 97.0317 84.1997C96.9014 84.0694 96.7059 83.9391 96.4453 83.9391C96.1196 83.9391 95.9241 84.0043 95.7287 84.1997C95.5332 84.3952 95.4681 84.6558 95.4681 84.9816H94.5559C94.5559 84.6558 94.6211 84.33 94.8165 84.0694C94.9468 83.8088 95.2075 83.5482 95.4681 83.4179C95.7287 83.2876 96.0544 83.2225 96.4453 83.2225C96.9665 83.2225 97.4226 83.3528 97.7484 83.6134C98.0741 83.874 98.2044 84.2649 98.2044 84.721C98.2044 84.9816 98.1393 85.3073 97.9438 85.5679C97.8135 85.8937 97.5529 86.2195 97.162 86.6104L95.7938 88.0437H98.3999L98.3347 88.8256ZM102.7 84.721C102.7 84.9816 102.635 85.2422 102.504 85.4376C102.374 85.6331 102.179 85.8285 101.918 85.9588C102.179 86.0891 102.439 86.2846 102.57 86.5452C102.7 86.8058 102.83 87.0664 102.83 87.327C102.83 87.8483 102.635 88.174 102.309 88.4998C101.983 88.7604 101.527 88.9559 101.006 88.9559C100.485 88.9559 100.029 88.8256 99.7029 88.4998C99.3771 88.2392 99.1817 87.8483 99.1817 87.327C99.1817 87.0013 99.2468 86.7407 99.4423 86.5452C99.6378 86.2846 99.8332 86.0892 100.094 86.024C99.8332 85.8937 99.6377 85.7634 99.5074 85.5028C99.3771 85.3073 99.312 85.0467 99.312 84.7861C99.312 84.33 99.4423 83.9391 99.7681 83.6785C100.094 83.4179 100.485 83.2876 101.006 83.2876C101.527 83.2876 101.918 83.4179 102.244 83.6785C102.57 83.874 102.7 84.2649 102.7 84.721ZM101.918 87.2619C101.918 87.0013 101.853 86.7407 101.657 86.6104C101.527 86.4149 101.267 86.3498 101.006 86.3498C100.745 86.3498 100.55 86.4149 100.354 86.6104C100.224 86.8058 100.094 87.0013 100.094 87.2619C100.094 87.5225 100.159 87.7831 100.354 87.9134C100.485 88.0437 100.745 88.174 101.006 88.174C101.267 88.174 101.527 88.1089 101.657 87.9134C101.788 87.7831 101.918 87.5877 101.918 87.2619ZM101.788 84.7861C101.788 84.5255 101.723 84.33 101.592 84.1997C101.462 84.0694 101.267 83.9391 101.006 83.9391C100.745 83.9391 100.615 84.0043 100.42 84.1346C100.289 84.2649 100.224 84.4603 100.224 84.721C100.224 84.9816 100.289 85.177 100.42 85.3073C100.55 85.4376 100.745 85.5028 101.006 85.5028C101.267 85.5028 101.397 85.4376 101.592 85.3073C101.723 85.2422 101.788 85.0467 101.788 84.7861ZM84.8484 76.186H81.1348V75.5345L82.959 73.5148C83.2196 73.189 83.415 72.9935 83.5453 72.7981C83.6757 72.6026 83.7408 72.4072 83.7408 72.2117C83.7408 71.9511 83.6757 71.7556 83.5453 71.5602C83.415 71.4299 83.2196 71.2996 82.959 71.2996C82.6332 71.2996 82.4378 71.3647 82.2423 71.5602C82.0469 71.7556 81.9817 72.0163 81.9817 72.342H81.0696C81.0696 72.0163 81.1348 71.6905 81.3302 71.4299C81.4605 71.1693 81.7211 70.9087 81.9817 70.7784C82.2423 70.6481 82.5681 70.5829 82.959 70.5829C83.4802 70.5829 83.9363 70.7132 84.262 70.9738C84.5878 71.2344 84.7181 71.6253 84.7181 72.0814C84.7181 72.342 84.6529 72.6678 84.4575 72.9284C84.3272 73.2542 84.0666 73.5799 83.6757 73.9708L82.3075 75.4042H84.9135V76.186H84.8484ZM88.2363 76.186H87.3241V71.7556L85.956 72.2117V71.4299L88.1059 70.6481H88.2363V76.186ZM111.821 76.186H108.107V75.5345L109.932 73.5148C110.192 73.189 110.388 72.9935 110.518 72.7981C110.648 72.6026 110.713 72.4072 110.713 72.2117C110.713 71.9511 110.648 71.7556 110.518 71.5602C110.388 71.4299 110.192 71.2996 109.932 71.2996C109.606 71.2996 109.41 71.3647 109.215 71.5602C109.02 71.7556 108.954 72.0163 108.954 72.342H108.042C108.042 72.0163 108.107 71.6905 108.303 71.4299C108.433 71.1693 108.694 70.9087 108.954 70.7784C109.215 70.6481 109.541 70.5829 109.932 70.5829C110.453 70.5829 110.909 70.7132 111.235 70.9738C111.56 71.2344 111.691 71.6253 111.691 72.0814C111.691 72.342 111.626 72.6678 111.43 72.9284C111.3 73.2542 111.039 73.5799 110.648 73.9708L109.28 75.4042H111.886L111.821 76.186ZM116.447 76.186H112.733V75.5345L114.557 73.5148C114.818 73.189 115.013 72.9935 115.144 72.7981C115.274 72.6026 115.339 72.4072 115.339 72.2117C115.339 71.9511 115.274 71.7556 115.144 71.5602C115.013 71.4299 114.818 71.2996 114.557 71.2996C114.232 71.2996 114.036 71.3647 113.841 71.5602C113.645 71.7556 113.58 72.0163 113.58 72.342H112.668C112.668 72.0163 112.733 71.6905 112.929 71.4299C113.059 71.1693 113.32 70.9087 113.58 70.7784C113.841 70.6481 114.167 70.5829 114.557 70.5829C115.079 70.5829 115.535 70.7132 115.86 70.9738C116.186 71.2344 116.317 71.6253 116.317 72.0814C116.317 72.342 116.251 72.6678 116.056 72.9284C115.926 73.2542 115.665 73.5799 115.274 73.9708L113.906 75.4042H116.512L116.447 76.186ZM138.859 76.186H135.145V75.5345L136.969 73.5148C137.23 73.189 137.426 72.9935 137.556 72.7981C137.686 72.6026 137.751 72.4072 137.751 72.2117C137.751 71.9511 137.686 71.7556 137.556 71.5602C137.426 71.4299 137.23 71.2996 136.969 71.2996C136.644 71.2996 136.448 71.3647 136.253 71.5602C136.057 71.7556 135.992 72.0163 135.992 72.342H135.08C135.08 72.0163 135.145 71.6905 135.341 71.4299C135.471 71.1693 135.732 70.9087 135.992 70.7784C136.253 70.6481 136.579 70.5829 136.969 70.5829C137.491 70.5829 137.947 70.7132 138.273 70.9738C138.598 71.2344 138.729 71.6253 138.729 72.0814C138.729 72.342 138.663 72.6678 138.468 72.9284C138.338 73.2542 138.077 73.5799 137.686 73.9708L136.318 75.4042H138.924L138.859 76.186ZM140.748 72.9935H141.335C141.595 72.9935 141.856 72.9284 141.986 72.7981C142.182 72.6678 142.247 72.4723 142.247 72.1466C142.247 71.886 142.182 71.6905 142.051 71.5602C141.921 71.4299 141.726 71.3647 141.4 71.3647C141.139 71.3647 140.944 71.4299 140.813 71.5602C140.683 71.6905 140.553 71.886 140.553 72.1466H139.641C139.641 71.886 139.706 71.6253 139.836 71.3647C139.966 71.1041 140.227 70.9738 140.488 70.8435C140.748 70.7132 141.074 70.6481 141.4 70.6481C141.986 70.6481 142.377 70.7784 142.703 71.039C143.029 71.2996 143.159 71.6905 143.159 72.2117C143.159 72.4723 143.094 72.6678 142.898 72.9284C142.768 73.1238 142.507 73.3193 142.312 73.4496C142.638 73.5799 142.833 73.7102 143.029 73.9708C143.159 74.1663 143.289 74.492 143.289 74.7527C143.289 75.2739 143.094 75.6648 142.768 75.9254C142.442 76.2512 141.986 76.3815 141.4 76.3815C140.879 76.3815 140.423 76.2512 140.097 75.9254C139.771 75.6648 139.576 75.2739 139.576 74.8178H140.488C140.488 75.0784 140.553 75.2739 140.748 75.4042C140.944 75.5345 141.139 75.6648 141.4 75.6648C141.66 75.6648 141.921 75.5996 142.051 75.4042C142.247 75.2739 142.312 75.0133 142.312 74.7527C142.312 74.492 142.247 74.2314 142.051 74.1011C141.856 73.9708 141.595 73.8405 141.269 73.8405H140.748V72.9935ZM137.621 63.5465H136.709V59.1161L135.341 59.5722V58.7903L137.491 58.0085H137.621V63.5465ZM143.159 59.4419C143.159 59.7025 143.094 59.9631 142.963 60.1585C142.833 60.354 142.638 60.5494 142.377 60.6798C142.638 60.8101 142.898 61.0055 143.029 61.201C143.159 61.4616 143.289 61.7222 143.289 61.9828C143.289 62.504 143.094 62.8298 142.768 63.1555C142.442 63.4162 141.986 63.6116 141.465 63.6116C140.944 63.6116 140.488 63.4813 140.162 63.1555C139.836 62.8949 139.641 62.504 139.641 61.9828C139.641 61.657 139.706 61.3964 139.901 61.201C140.097 60.9404 140.292 60.7449 140.553 60.6798C140.292 60.5494 140.097 60.4191 139.966 60.1585C139.836 59.9631 139.771 59.7025 139.771 59.4419C139.771 58.9858 139.901 58.5949 140.227 58.3343C140.553 58.0737 140.944 57.9434 141.465 57.9434C141.986 57.9434 142.377 58.0737 142.703 58.3343C143.029 58.5949 143.159 58.9858 143.159 59.4419ZM142.377 61.9828C142.377 61.7222 142.312 61.4616 142.116 61.3313C141.986 61.1358 141.726 61.0707 141.465 61.0707C141.204 61.0707 141.009 61.1358 140.813 61.3313C140.683 61.5267 140.553 61.7222 140.553 61.9828C140.553 62.2434 140.618 62.504 140.813 62.6343C140.944 62.7646 141.204 62.8949 141.465 62.8949C141.726 62.8949 141.986 62.8298 142.116 62.6343C142.312 62.504 142.377 62.2434 142.377 61.9828ZM142.247 59.507C142.247 59.2464 142.182 59.0509 142.051 58.9206C141.921 58.7903 141.726 58.66 141.465 58.66C141.204 58.66 141.074 58.7252 140.879 58.8555C140.748 58.9858 140.683 59.1813 140.683 59.4419C140.683 59.7025 140.748 59.8979 140.879 60.0282C141.009 60.1585 141.204 60.2237 141.465 60.2237C141.726 60.2237 141.921 60.1585 142.051 60.0282C142.182 59.9631 142.247 59.7676 142.247 59.507Z" fill="#595959"/>
<path d="M11.0974 54.7495H145.961V84.5234C145.961 85.9567 145.961 87.0643 145.896 87.9112C145.831 88.7582 145.7 89.3445 145.44 89.8657C144.984 90.7779 144.202 91.5597 143.29 92.0157C142.768 92.2763 142.182 92.4066 141.335 92.4718C140.488 92.5369 139.381 92.5369 137.947 92.5369H19.111C17.6777 92.5369 16.5701 92.5369 15.7232 92.4718C14.8762 92.4066 14.2898 92.2763 13.7686 92.0157C12.8565 91.5597 12.0747 90.7779 11.6186 89.8657C11.358 89.3445 11.2277 88.7582 11.1626 87.9112C11.0974 87.0643 11.0974 85.9567 11.0974 84.5234V54.7495Z" stroke="#C8C8C8" stroke-width="0.479473"/>
<path d="M139.121 109.478L134.886 113.713L132.606 111.433L133.583 110.456L134.886 111.759L138.144 108.501L139.121 109.478Z" fill="#212121"/>
<path d="M133.257 101.333H138.469C142.443 101.333 145.636 104.525 145.636 108.499V113.711C145.636 117.685 142.443 120.878 138.469 120.878H133.257C129.283 120.878 126.09 117.685 126.09 113.711V108.499C126.09 104.525 129.283 101.333 133.257 101.333Z" stroke="#FFCD17" stroke-width="0.958946"/>
<path d="M18.8635 17.997C18.7077 17.8412 18.7077 17.5885 18.8635 17.4326L21.8785 14.4177C22.1177 14.1785 22.1177 13.7906 21.8785 13.5514C21.6392 13.3122 21.2514 13.3122 21.0122 13.5514L17.9972 16.5663C17.8414 16.7222 17.5887 16.7222 17.4329 16.5663L14.4179 13.5514C14.1787 13.3122 13.7909 13.3122 13.5516 13.5514C13.3124 13.7906 13.3124 14.1785 13.5516 14.4177L16.5666 17.4326C16.7224 17.5885 16.7224 17.8412 16.5666 17.997L13.5516 21.0119C13.3124 21.2512 13.3124 21.639 13.5516 21.8782C13.7909 22.1174 14.1787 22.1174 14.4179 21.8782L17.4329 18.8633C17.5887 18.7074 17.8414 18.7074 17.9973 18.8633L21.0122 21.8782C21.2514 22.1174 21.6392 22.1174 21.8785 21.8782C22.1177 21.639 22.1177 21.2512 21.8785 21.0119L18.8635 17.997Z" fill="#F40000" stroke="#F40000" stroke-width="0.266057"/>
<path d="M100.085 30.5844C99.9294 30.4286 99.9294 30.1759 100.085 30.02L103.1 27.0051C103.339 26.7659 103.339 26.378 103.1 26.1388C102.861 25.8996 102.473 25.8996 102.234 26.1388L99.2189 29.1537C99.0631 29.3096 98.8104 29.3096 98.6545 29.1537L95.6396 26.1388C95.4004 25.8996 95.0125 25.8996 94.7733 26.1388C94.5341 26.378 94.5341 26.7659 94.7733 27.0051L97.7883 30.02C97.9441 30.1759 97.9441 30.4286 97.7883 30.5844L94.7733 33.5993C94.5341 33.8386 94.5341 34.2264 94.7733 34.4656C95.0125 34.7048 95.4004 34.7048 95.6396 34.4656L98.6545 31.4507C98.8104 31.2948 99.0631 31.2948 99.2189 31.4507L102.234 34.4656C102.473 34.7048 102.861 34.7048 103.1 34.4656C103.339 34.2264 103.339 33.8386 103.1 33.5993L100.085 30.5844Z" fill="#F40000" stroke="#F40000" stroke-width="0.266057"/>
<path d="M86.5481 42.8908C86.3922 42.735 86.3922 42.4823 86.5481 42.3264L89.563 39.3115C89.8022 39.0723 89.8022 38.6844 89.563 38.4452C89.3238 38.206 88.936 38.206 88.6968 38.4452L85.6818 41.4601C85.526 41.616 85.2733 41.616 85.1174 41.4601L82.1025 38.4452C81.8633 38.206 81.4754 38.206 81.2362 38.4452C80.997 38.6844 80.997 39.0723 81.2362 39.3115L84.2512 42.3264C84.407 42.4823 84.407 42.735 84.2512 42.8908L81.2362 45.9057C80.997 46.145 80.997 46.5328 81.2362 46.772C81.4754 47.0112 81.8633 47.0112 82.1025 46.772L85.1174 43.7571C85.2733 43.6012 85.526 43.6012 85.6818 43.7571L88.6968 46.772C88.936 47.0112 89.3238 47.0112 89.563 46.772C89.8022 46.5328 89.8022 46.145 89.563 45.9057L86.5481 42.8908Z" fill="#F40000" stroke="#F40000" stroke-width="0.266057"/>
<path d="M45.9373 17.997C45.7814 17.8412 45.7814 17.5885 45.9373 17.4326L48.9522 14.4177C49.1914 14.1785 49.1914 13.7906 48.9522 13.5514C48.713 13.3122 48.3251 13.3122 48.0859 13.5514L45.071 16.5663C44.9151 16.7222 44.6624 16.7222 44.5066 16.5663L41.4917 13.5514C41.2524 13.3122 40.8646 13.3122 40.6254 13.5514C40.3862 13.7906 40.3862 14.1785 40.6254 14.4177L43.6403 17.4326C43.7962 17.5885 43.7962 17.8412 43.6403 17.997L40.6254 21.0119C40.3862 21.2512 40.3862 21.639 40.6254 21.8782C40.8646 22.1174 41.2524 22.1174 41.4917 21.8782L44.5066 18.8633C44.6624 18.7074 44.9151 18.7074 45.071 18.8633L48.0859 21.8782C48.3251 22.1174 48.713 22.1174 48.9522 21.8782C49.1914 21.639 49.1914 21.2512 48.9522 21.0119L45.9373 17.997Z" fill="#F40000" stroke="#F40000" stroke-width="0.266057"/>
<path d="M45.9373 30.5844C45.7814 30.4286 45.7814 30.1759 45.9373 30.02L48.9522 27.0051C49.1914 26.7659 49.1914 26.378 48.9522 26.1388C48.713 25.8996 48.3251 25.8996 48.0859 26.1388L45.071 29.1537C44.9151 29.3096 44.6624 29.3096 44.5066 29.1537L41.4917 26.1388C41.2524 25.8996 40.8646 25.8996 40.6254 26.1388C40.3862 26.378 40.3862 26.7659 40.6254 27.0051L43.6403 30.02C43.7962 30.1759 43.7962 30.4286 43.6403 30.5844L40.6254 33.5993C40.3862 33.8386 40.3862 34.2264 40.6254 34.4656C40.8646 34.7048 41.2524 34.7048 41.4917 34.4656L44.5066 31.4507C44.6624 31.2948 44.9151 31.2948 45.071 31.4507L48.0859 34.4656C48.3251 34.7048 48.713 34.7048 48.9522 34.4656C49.1914 34.2264 49.1914 33.8386 48.9522 33.5993L45.9373 30.5844Z" fill="#F40000" stroke="#F40000" stroke-width="0.266057"/>
<path d="M32.4006 42.8908C32.2448 42.735 32.2448 42.4823 32.4006 42.3264L35.4156 39.3115C35.6548 39.0723 35.6548 38.6844 35.4156 38.4452C35.1764 38.206 34.7885 38.206 34.5493 38.4452L31.5344 41.4601C31.3785 41.616 31.1258 41.616 30.97 41.4601L27.955 38.4452C27.7158 38.206 27.328 38.206 27.0888 38.4452C26.8495 38.6844 26.8495 39.0723 27.0888 39.3115L30.1037 42.3264C30.2595 42.4823 30.2595 42.735 30.1037 42.8908L27.0888 45.9057C26.8495 46.145 26.8495 46.5328 27.0888 46.772C27.328 47.0112 27.7158 47.0112 27.955 46.772L30.97 43.7571C31.1258 43.6012 31.3785 43.6012 31.5344 43.7571L34.5493 46.772C34.7885 47.0112 35.1764 47.0112 35.4156 46.772C35.6548 46.5328 35.6548 46.145 35.4156 45.9057L32.4006 42.8908Z" fill="#F40000" stroke="#F40000" stroke-width="0.266057"/>
<path d="M86.5481 17.997C86.3922 17.8412 86.3922 17.5885 86.5481 17.4326L89.563 14.4177C89.8022 14.1785 89.8022 13.7906 89.563 13.5514C89.3238 13.3122 88.936 13.3122 88.6968 13.5514L85.6818 16.5663C85.526 16.7222 85.2733 16.7222 85.1174 16.5663L82.1025 13.5514C81.8633 13.3122 81.4754 13.3122 81.2362 13.5514C80.997 13.7906 80.997 14.1785 81.2362 14.4177L84.2512 17.4326C84.407 17.5885 84.407 17.8412 84.2512 17.997L81.2362 21.0119C80.997 21.2512 80.997 21.639 81.2362 21.8782C81.4754 22.1174 81.8633 22.1174 82.1025 21.8782L85.1174 18.8633C85.2733 18.7074 85.526 18.7074 85.6818 18.8633L88.6968 21.8782C88.936 22.1174 89.3238 22.1174 89.563 21.8782C89.8022 21.639 89.8022 21.2512 89.563 21.0119L86.5481 17.997Z" fill="#F40000" stroke="#F40000" stroke-width="0.266057"/>
<path d="M86.5481 30.5844C86.3922 30.4286 86.3922 30.1759 86.5481 30.02L89.563 27.0051C89.8022 26.7659 89.8022 26.378 89.563 26.1388C89.3238 25.8996 88.936 25.8996 88.6968 26.1388L85.6818 29.1537C85.526 29.3096 85.2733 29.3096 85.1174 29.1537L82.1025 26.1388C81.8633 25.8996 81.4754 25.8996 81.2362 26.1388C80.997 26.378 80.997 26.7659 81.2362 27.0051L84.2512 30.02C84.407 30.1759 84.407 30.4286 84.2512 30.5844L81.2362 33.5993C80.997 33.8386 80.997 34.2264 81.2362 34.4656C81.4754 34.7048 81.8633 34.7048 82.1025 34.4656L85.1174 31.4507C85.2733 31.2948 85.526 31.2948 85.6818 31.4507L88.6968 34.4656C88.936 34.7048 89.3238 34.7048 89.563 34.4656C89.8022 34.2264 89.8022 33.8386 89.563 33.5993L86.5481 30.5844Z" fill="#F40000" stroke="#F40000" stroke-width="0.266057"/>
<path d="M73.0115 42.8908C72.8556 42.735 72.8556 42.4823 73.0115 42.3264L76.0264 39.3115C76.2656 39.0723 76.2656 38.6844 76.0264 38.4452C75.7872 38.206 75.3993 38.206 75.1601 38.4452L72.1452 41.4601C71.9893 41.616 71.7367 41.616 71.5808 41.4601L68.5659 38.4452C68.3267 38.206 67.9388 38.206 67.6996 38.4452C67.4604 38.6844 67.4604 39.0723 67.6996 39.3115L70.7145 42.3264C70.8704 42.4823 70.8704 42.735 70.7145 42.8908L67.6996 45.9057C67.4604 46.145 67.4604 46.5328 67.6996 46.772C67.9388 47.0112 68.3267 47.0112 68.5659 46.772L71.5808 43.7571C71.7367 43.6012 71.9893 43.6012 72.1452 43.7571L75.1601 46.772C75.3993 47.0112 75.7872 47.0112 76.0264 46.772C76.2656 46.5328 76.2656 46.145 76.0264 45.9057L73.0115 42.8908Z" fill="#F40000" stroke="#F40000" stroke-width="0.266057"/>
<path d="M140.697 17.997C140.541 17.8412 140.541 17.5885 140.697 17.4326L143.711 14.4177C143.951 14.1785 143.951 13.7906 143.711 13.5514C143.472 13.3122 143.084 13.3122 142.845 13.5514L139.83 16.5663C139.674 16.7222 139.422 16.7222 139.266 16.5663L136.251 13.5514C136.012 13.3122 135.624 13.3122 135.385 13.5514C135.145 13.7906 135.145 14.1785 135.385 14.4177L138.4 17.4326C138.555 17.5885 138.555 17.8412 138.4 17.997L135.385 21.0119C135.145 21.2512 135.145 21.639 135.385 21.8782C135.624 22.1174 136.012 22.1174 136.251 21.8782L139.266 18.8633C139.422 18.7074 139.674 18.7074 139.83 18.8633L142.845 21.8782C143.084 22.1174 143.472 22.1174 143.711 21.8782C143.951 21.639 143.951 21.2512 143.711 21.0119L140.697 17.997Z" fill="#F40000" stroke="#F40000" stroke-width="0.266057"/>
<path d="M140.697 30.5844C140.541 30.4286 140.541 30.1759 140.697 30.02L143.711 27.0051C143.951 26.7659 143.951 26.378 143.711 26.1388C143.472 25.8996 143.084 25.8996 142.845 26.1388L139.83 29.1537C139.674 29.3096 139.422 29.3096 139.266 29.1537L136.251 26.1388C136.012 25.8996 135.624 25.8996 135.385 26.1388C135.145 26.378 135.145 26.7659 135.385 27.0051L138.4 30.02C138.555 30.1759 138.555 30.4286 138.4 30.5844L135.385 33.5993C135.145 33.8386 135.145 34.2264 135.385 34.4656C135.624 34.7048 136.012 34.7048 136.251 34.4656L139.266 31.4507C139.422 31.2948 139.674 31.2948 139.83 31.4507L142.845 34.4656C143.084 34.7048 143.472 34.7048 143.711 34.4656C143.951 34.2264 143.951 33.8386 143.711 33.5993L140.697 30.5844Z" fill="#F40000" stroke="#F40000" stroke-width="0.266057"/>
<path d="M127.16 42.8908C127.004 42.735 127.004 42.4823 127.16 42.3264L130.175 39.3115C130.414 39.0723 130.414 38.6844 130.175 38.4452C129.935 38.206 129.548 38.206 129.308 38.4452L126.293 41.4601C126.138 41.616 125.885 41.616 125.729 41.4601L122.714 38.4452C122.475 38.206 122.087 38.206 121.848 38.4452C121.609 38.6844 121.609 39.0723 121.848 39.3115L124.863 42.3264C125.019 42.4823 125.019 42.735 124.863 42.8908L121.848 45.9057C121.609 46.145 121.609 46.5328 121.848 46.772C122.087 47.0112 122.475 47.0112 122.714 46.772L125.729 43.7571C125.885 43.6012 126.138 43.6012 126.293 43.7571L129.308 46.772C129.548 47.0112 129.935 47.0112 130.175 46.772C130.414 46.5328 130.414 46.145 130.175 45.9057L127.16 42.8908Z" fill="#F40000" stroke="#F40000" stroke-width="0.266057"/>
<path d="M73.0115 17.997C72.8556 17.8412 72.8556 17.5885 73.0115 17.4326L76.0264 14.4177C76.2656 14.1785 76.2656 13.7906 76.0264 13.5514C75.7872 13.3122 75.3993 13.3122 75.1601 13.5514L72.1452 16.5663C71.9893 16.7222 71.7367 16.7222 71.5808 16.5663L68.5659 13.5514C68.3267 13.3122 67.9388 13.3122 67.6996 13.5514C67.4604 13.7906 67.4604 14.1785 67.6996 14.4177L70.7145 17.4326C70.8704 17.5885 70.8704 17.8412 70.7145 17.997L67.6996 21.0119C67.4604 21.2512 67.4604 21.639 67.6996 21.8782C67.9388 22.1174 68.3267 22.1174 68.5659 21.8782L71.5808 18.8633C71.7367 18.7074 71.9893 18.7074 72.1452 18.8633L75.1601 21.8782C75.3993 22.1174 75.7872 22.1174 76.0264 21.8782C76.2656 21.639 76.2656 21.2512 76.0264 21.0119L73.0115 17.997Z" fill="#F40000" stroke="#F40000" stroke-width="0.266057"/>
<path d="M73.0115 30.5844C72.8556 30.4286 72.8556 30.1759 73.0115 30.02L76.0264 27.0051C76.2656 26.7659 76.2656 26.378 76.0264 26.1388C75.7872 25.8996 75.3993 25.8996 75.1601 26.1388L72.1452 29.1537C71.9893 29.3096 71.7367 29.3096 71.5808 29.1537L68.5659 26.1388C68.3267 25.8996 67.9388 25.8996 67.6996 26.1388C67.4604 26.378 67.4604 26.7659 67.6996 27.0051L70.7145 30.02C70.8704 30.1759 70.8704 30.4286 70.7145 30.5844L67.6996 33.5993C67.4604 33.8386 67.4604 34.2264 67.6996 34.4656C67.9388 34.7048 68.3267 34.7048 68.5659 34.4656L71.5808 31.4507C71.7367 31.2948 71.9893 31.2948 72.1452 31.4507L75.1601 34.4656C75.3993 34.7048 75.7872 34.7048 76.0264 34.4656C76.2656 34.2264 76.2656 33.8386 76.0264 33.5993L73.0115 30.5844Z" fill="#F40000" stroke="#F40000" stroke-width="0.266057"/>
<path d="M140.697 42.8908C140.541 42.735 140.541 42.4823 140.697 42.3264L143.711 39.3115C143.951 39.0723 143.951 38.6844 143.711 38.4452C143.472 38.206 143.084 38.206 142.845 38.4452L139.83 41.4601C139.674 41.616 139.422 41.616 139.266 41.4601L136.251 38.4452C136.012 38.206 135.624 38.206 135.385 38.4452C135.145 38.6844 135.145 39.0723 135.385 39.3115L138.4 42.3264C138.555 42.4823 138.555 42.735 138.4 42.8908L135.385 45.9057C135.145 46.145 135.145 46.5328 135.385 46.772C135.624 47.0112 136.012 47.0112 136.251 46.772L139.266 43.7571C139.422 43.6012 139.674 43.6012 139.83 43.7571L142.845 46.772C143.084 47.0112 143.472 47.0112 143.711 46.772C143.951 46.5328 143.951 46.145 143.711 45.9057L140.697 42.8908Z" fill="#F40000" stroke="#F40000" stroke-width="0.266057"/>
<path d="M18.8635 61.0695C18.7077 60.9137 18.7077 60.661 18.8635 60.5051L21.8785 57.4902C22.1177 57.251 22.1177 56.8631 21.8785 56.6239C21.6392 56.3847 21.2514 56.3847 21.0122 56.6239L17.9972 59.6388C17.8414 59.7947 17.5887 59.7947 17.4329 59.6388L14.4179 56.6239C14.1787 56.3847 13.7909 56.3847 13.5516 56.6239C13.3124 56.8631 13.3124 57.251 13.5516 57.4902L16.5666 60.5051C16.7224 60.661 16.7224 60.9137 16.5666 61.0695L13.5516 64.0845C13.3124 64.3237 13.3124 64.7115 13.5516 64.9507C13.7909 65.1899 14.1787 65.1899 14.4179 64.9507L17.4329 61.9358C17.5887 61.7799 17.8414 61.7799 17.9973 61.9358L21.0122 64.9507C21.2514 65.1899 21.6392 65.1899 21.8785 64.9507C22.1177 64.7115 22.1177 64.3237 21.8785 64.0845L18.8635 61.0695Z" fill="#F40000" stroke="#F40000" stroke-width="0.266057"/>
<path d="M113.623 73.6567C113.467 73.5008 113.467 73.2481 113.623 73.0923L116.637 70.0773C116.877 69.8381 116.877 69.4503 116.637 69.2111C116.398 68.9719 116.01 68.9719 115.771 69.2111L112.756 72.226C112.6 72.3819 112.348 72.3819 112.192 72.226L109.177 69.2111C108.938 68.9719 108.55 68.9719 108.311 69.2111C108.071 69.4503 108.071 69.8381 108.311 70.0773L111.326 73.0923C111.481 73.2481 111.481 73.5008 111.326 73.6567L108.311 76.6716C108.071 76.9108 108.071 77.2987 108.311 77.5379C108.55 77.7771 108.938 77.7771 109.177 77.5379L112.192 74.5229C112.348 74.3671 112.6 74.3671 112.756 74.5229L115.771 77.5379C116.01 77.7771 116.398 77.7771 116.637 77.5379C116.877 77.2987 116.877 76.9108 116.637 76.6716L113.623 73.6567Z" fill="#F40000" stroke="#F40000" stroke-width="0.266057"/>
<path d="M86.5481 85.9628C86.3922 85.807 86.3922 85.5543 86.5481 85.3984L89.563 82.3835C89.8022 82.1443 89.8022 81.7564 89.563 81.5172C89.3238 81.278 88.936 81.278 88.6968 81.5172L85.6818 84.5322C85.526 84.688 85.2733 84.688 85.1174 84.5322L82.1025 81.5172C81.8633 81.278 81.4754 81.278 81.2362 81.5172C80.997 81.7564 80.997 82.1443 81.2362 82.3835L84.2512 85.3984C84.407 85.5543 84.407 85.807 84.2512 85.9628L81.2362 88.9778C80.997 89.217 80.997 89.6048 81.2362 89.844C81.4754 90.0833 81.8633 90.0833 82.1025 89.844L85.1174 86.8291C85.2733 86.6732 85.526 86.6732 85.6818 86.8291L88.6968 89.844C88.936 90.0833 89.3238 90.0833 89.563 89.844C89.8022 89.6048 89.8022 89.217 89.563 88.9778L86.5481 85.9628Z" fill="#F40000" stroke="#F40000" stroke-width="0.266057"/>
<path d="M45.9373 61.0695C45.7814 60.9137 45.7814 60.661 45.9373 60.5051L48.9522 57.4902C49.1914 57.251 49.1914 56.8631 48.9522 56.6239C48.713 56.3847 48.3251 56.3847 48.0859 56.6239L45.071 59.6388C44.9151 59.7947 44.6624 59.7947 44.5066 59.6388L41.4917 56.6239C41.2524 56.3847 40.8646 56.3847 40.6254 56.6239C40.3862 56.8631 40.3862 57.251 40.6254 57.4902L43.6403 60.5051C43.7962 60.661 43.7962 60.9137 43.6403 61.0695L40.6254 64.0845C40.3862 64.3237 40.3862 64.7115 40.6254 64.9507C40.8646 65.1899 41.2524 65.1899 41.4917 64.9507L44.5066 61.9358C44.6624 61.7799 44.9151 61.7799 45.071 61.9358L48.0859 64.9507C48.3251 65.1899 48.713 65.1899 48.9522 64.9507C49.1914 64.7115 49.1914 64.3237 48.9522 64.0845L45.9373 61.0695Z" fill="#F40000" stroke="#F40000" stroke-width="0.266057"/>
<path d="M59.4744 73.6567C59.3185 73.5008 59.3185 73.2481 59.4744 73.0923L62.4893 70.0773C62.7285 69.8381 62.7285 69.4503 62.4893 69.2111C62.2501 68.9719 61.8622 68.9719 61.623 69.2111L58.6081 72.226C58.4522 72.3819 58.1995 72.3819 58.0437 72.226L55.0288 69.2111C54.7895 68.9719 54.4017 68.9719 54.1625 69.2111C53.9233 69.4503 53.9233 69.8381 54.1625 70.0773L57.1774 73.0923C57.3333 73.2481 57.3333 73.5008 57.1774 73.6567L54.1625 76.6716C53.9233 76.9108 53.9233 77.2987 54.1625 77.5379C54.4017 77.7771 54.7895 77.7771 55.0288 77.5379L58.0437 74.5229C58.1995 74.3671 58.4522 74.3671 58.6081 74.5229L61.623 77.5379C61.8622 77.7771 62.2501 77.7771 62.4893 77.5379C62.7285 77.2987 62.7285 76.9108 62.4893 76.6716L59.4744 73.6567Z" fill="#F40000" stroke="#F40000" stroke-width="0.266057"/>
<path d="M18.8635 73.6567C18.7077 73.5008 18.7077 73.2481 18.8635 73.0923L21.8785 70.0773C22.1177 69.8381 22.1177 69.4503 21.8785 69.2111C21.6392 68.9719 21.2514 68.9719 21.0122 69.2111L17.9972 72.226C17.8414 72.3819 17.5887 72.3819 17.4329 72.226L14.4179 69.2111C14.1787 68.9719 13.7909 68.9719 13.5516 69.2111C13.3124 69.4503 13.3124 69.8381 13.5516 70.0773L16.5666 73.0923C16.7224 73.2481 16.7224 73.5008 16.5666 73.6567L13.5516 76.6716C13.3124 76.9108 13.3124 77.2987 13.5516 77.5379C13.7909 77.7771 14.1787 77.7771 14.4179 77.5379L17.4329 74.5229C17.5887 74.3671 17.8414 74.3671 17.9973 74.5229L21.0122 77.5379C21.2514 77.7771 21.6392 77.7771 21.8785 77.5379C22.1177 77.2987 22.1177 76.9108 21.8785 76.6716L18.8635 73.6567Z" fill="#F40000" stroke="#F40000" stroke-width="0.266057"/>
<path d="M18.8635 85.6821C18.7077 85.5262 18.7077 85.2735 18.8635 85.1177L21.8785 82.1027C22.1177 81.8635 22.1177 81.4757 21.8785 81.2365C21.6392 80.9972 21.2514 80.9972 21.0122 81.2365L17.9972 84.2514C17.8414 84.4072 17.5887 84.4072 17.4329 84.2514L14.4179 81.2365C14.1787 80.9972 13.7909 80.9972 13.5516 81.2365C13.3124 81.4757 13.3124 81.8635 13.5516 82.1027L16.5666 85.1177C16.7224 85.2735 16.7224 85.5262 16.5666 85.6821L13.5516 88.697C13.3124 88.9362 13.3124 89.3241 13.5516 89.5633C13.7909 89.8025 14.1787 89.8025 14.4179 89.5633L17.4329 86.5483C17.5887 86.3925 17.8414 86.3925 17.9973 86.5483L21.0122 89.5633C21.2514 89.8025 21.6392 89.8025 21.8785 89.5633C22.1177 89.3241 22.1177 88.9362 21.8785 88.697L18.8635 85.6821Z" fill="#F40000" stroke="#F40000" stroke-width="0.266057"/>
<path d="M32.4006 85.9628C32.2448 85.807 32.2448 85.5543 32.4006 85.3984L35.4156 82.3835C35.6548 82.1443 35.6548 81.7564 35.4156 81.5172C35.1764 81.278 34.7885 81.278 34.5493 81.5172L31.5344 84.5322C31.3785 84.688 31.1258 84.688 30.97 84.5322L27.955 81.5172C27.7158 81.278 27.328 81.278 27.0888 81.5172C26.8495 81.7564 26.8495 82.1443 27.0888 82.3835L30.1037 85.3984C30.2595 85.5543 30.2595 85.807 30.1037 85.9628L27.0888 88.9778C26.8495 89.217 26.8495 89.6048 27.0888 89.844C27.328 90.0833 27.7158 90.0833 27.955 89.844L30.97 86.8291C31.1258 86.6732 31.3785 86.6732 31.5344 86.8291L34.5493 89.844C34.7885 90.0833 35.1764 90.0833 35.4156 89.844C35.6548 89.6048 35.6548 89.217 35.4156 88.9778L32.4006 85.9628Z" fill="#F40000" stroke="#F40000" stroke-width="0.266057"/>
<path d="M86.5481 73.6567C86.3922 73.5008 86.3922 73.2481 86.5481 73.0923L89.563 70.0773C89.8022 69.8381 89.8022 69.4503 89.563 69.2111C89.3238 68.9719 88.936 68.9719 88.6968 69.2111L85.6818 72.226C85.526 72.3819 85.2733 72.3819 85.1174 72.226L82.1025 69.2111C81.8633 68.9719 81.4754 68.9719 81.2362 69.2111C80.997 69.4503 80.997 69.8381 81.2362 70.0773L84.2512 73.0923C84.407 73.2481 84.407 73.5008 84.2512 73.6567L81.2362 76.6716C80.997 76.9108 80.997 77.2987 81.2362 77.5379C81.4754 77.7771 81.8633 77.7771 82.1025 77.5379L85.1174 74.5229C85.2733 74.3671 85.526 74.3671 85.6818 74.5229L88.6968 77.5379C88.936 77.7771 89.3238 77.7771 89.563 77.5379C89.8022 77.2987 89.8022 76.9108 89.563 76.6716L86.5481 73.6567Z" fill="#F40000" stroke="#F40000" stroke-width="0.266057"/>
<path d="M73.0115 85.9628C72.8556 85.807 72.8556 85.5543 73.0115 85.3984L76.0264 82.3835C76.2656 82.1443 76.2656 81.7564 76.0264 81.5172C75.7872 81.278 75.3993 81.278 75.1601 81.5172L72.1452 84.5322C71.9893 84.688 71.7367 84.688 71.5808 84.5322L68.5659 81.5172C68.3267 81.278 67.9388 81.278 67.6996 81.5172C67.4604 81.7564 67.4604 82.1443 67.6996 82.3835L70.7145 85.3984C70.8704 85.5543 70.8704 85.807 70.7145 85.9628L67.6996 88.9778C67.4604 89.217 67.4604 89.6048 67.6996 89.844C67.9388 90.0833 68.3267 90.0833 68.5659 89.844L71.5808 86.8291C71.7367 86.6732 71.9893 86.6732 72.1452 86.8291L75.1601 89.844C75.3993 90.0833 75.7872 90.0833 76.0264 89.844C76.2656 89.6048 76.2656 89.217 76.0264 88.9778L73.0115 85.9628Z" fill="#F40000" stroke="#F40000" stroke-width="0.266057"/>
<path d="M140.697 61.0695C140.541 60.9137 140.541 60.661 140.697 60.5051L143.711 57.4902C143.951 57.251 143.951 56.8631 143.711 56.6239C143.472 56.3847 143.084 56.3847 142.845 56.6239L139.83 59.6388C139.674 59.7947 139.422 59.7947 139.266 59.6388L136.251 56.6239C136.012 56.3847 135.624 56.3847 135.385 56.6239C135.145 56.8631 135.145 57.251 135.385 57.4902L138.4 60.5051C138.555 60.661 138.555 60.9137 138.4 61.0695L135.385 64.0845C135.145 64.3237 135.145 64.7115 135.385 64.9507C135.624 65.1899 136.012 65.1899 136.251 64.9507L139.266 61.9358C139.422 61.7799 139.674 61.7799 139.83 61.9358L142.845 64.9507C143.084 65.1899 143.472 65.1899 143.711 64.9507C143.951 64.7115 143.951 64.3237 143.711 64.0845L140.697 61.0695Z" fill="#F40000" stroke="#F40000" stroke-width="0.266057"/>
<path d="M140.697 73.6567C140.541 73.5008 140.541 73.2481 140.697 73.0923L143.711 70.0773C143.951 69.8381 143.951 69.4503 143.711 69.2111C143.472 68.9719 143.084 68.9719 142.845 69.2111L139.83 72.226C139.674 72.3819 139.422 72.3819 139.266 72.226L136.251 69.2111C136.012 68.9719 135.624 68.9719 135.385 69.2111C135.145 69.4503 135.145 69.8381 135.385 70.0773L138.4 73.0923C138.555 73.2481 138.555 73.5008 138.4 73.6567L135.385 76.6716C135.145 76.9108 135.145 77.2987 135.385 77.5379C135.624 77.7771 136.012 77.7771 136.251 77.5379L139.266 74.5229C139.422 74.3671 139.674 74.3671 139.83 74.5229L142.845 77.5379C143.084 77.7771 143.472 77.7771 143.711 77.5379C143.951 77.2987 143.951 76.9108 143.711 76.6716L140.697 73.6567Z" fill="#F40000" stroke="#F40000" stroke-width="0.266057"/>
<path d="M127.16 85.9628C127.004 85.807 127.004 85.5543 127.16 85.3984L130.175 82.3835C130.414 82.1443 130.414 81.7564 130.175 81.5172C129.935 81.278 129.548 81.278 129.308 81.5172L126.293 84.5322C126.138 84.688 125.885 84.688 125.729 84.5322L122.714 81.5172C122.475 81.278 122.087 81.278 121.848 81.5172C121.609 81.7564 121.609 82.1443 121.848 82.3835L124.863 85.3984C125.019 85.5543 125.019 85.807 124.863 85.9628L121.848 88.9778C121.609 89.217 121.609 89.6048 121.848 89.844C122.087 90.0833 122.475 90.0833 122.714 89.844L125.729 86.8291C125.885 86.6732 126.138 86.6732 126.293 86.8291L129.308 89.844C129.548 90.0833 129.935 90.0833 130.175 89.844C130.414 89.6048 130.414 89.217 130.175 88.9778L127.16 85.9628Z" fill="#F40000" stroke="#F40000" stroke-width="0.266057"/>
<path d="M73.0115 61.0695C72.8556 60.9137 72.8556 60.661 73.0115 60.5051L76.0264 57.4902C76.2656 57.251 76.2656 56.8631 76.0264 56.6239C75.7872 56.3847 75.3993 56.3847 75.1601 56.6239L72.1452 59.6388C71.9893 59.7947 71.7367 59.7947 71.5808 59.6388L68.5659 56.6239C68.3267 56.3847 67.9388 56.3847 67.6996 56.6239C67.4604 56.8631 67.4604 57.251 67.6996 57.4902L70.7145 60.5051C70.8704 60.661 70.8704 60.9137 70.7145 61.0695L67.6996 64.0845C67.4604 64.3237 67.4604 64.7115 67.6996 64.9507C67.9388 65.1899 68.3267 65.1899 68.5659 64.9507L71.5808 61.9358C71.7367 61.7799 71.9893 61.7799 72.1452 61.9358L75.1601 64.9507C75.3993 65.1899 75.7872 65.1899 76.0264 64.9507C76.2656 64.7115 76.2656 64.3237 76.0264 64.0845L73.0115 61.0695Z" fill="#F40000" stroke="#F40000" stroke-width="0.266057"/>
<path d="M100.085 85.6821C99.9294 85.5262 99.9294 85.2735 100.085 85.1177L103.1 82.1027C103.339 81.8635 103.339 81.4757 103.1 81.2365C102.861 80.9972 102.473 80.9972 102.234 81.2365L99.2189 84.2514C99.0631 84.4072 98.8104 84.4072 98.6545 84.2514L95.6396 81.2365C95.4004 80.9972 95.0125 80.9972 94.7733 81.2365C94.5341 81.4757 94.5341 81.8635 94.7733 82.1027L97.7883 85.1177C97.9441 85.2735 97.9441 85.5262 97.7883 85.6821L94.7733 88.697C94.5341 88.9362 94.5341 89.3241 94.7733 89.5633C95.0125 89.8025 95.4004 89.8025 95.6396 89.5633L98.6545 86.5483C98.8104 86.3925 99.0631 86.3925 99.2189 86.5483L102.234 89.5633C102.473 89.8025 102.861 89.8025 103.1 89.5633C103.339 89.3241 103.339 88.9362 103.1 88.697L100.085 85.6821Z" fill="#F40000" stroke="#F40000" stroke-width="0.266057"/>
<path d="M113.623 85.9628C113.467 85.807 113.467 85.5543 113.623 85.3984L116.637 82.3835C116.877 82.1443 116.877 81.7564 116.637 81.5172C116.398 81.278 116.01 81.278 115.771 81.5172L112.756 84.5322C112.6 84.688 112.348 84.688 112.192 84.5322L109.177 81.5172C108.938 81.278 108.55 81.278 108.311 81.5172C108.071 81.7564 108.071 82.1443 108.311 82.3835L111.326 85.3984C111.481 85.5543 111.481 85.807 111.326 85.9628L108.311 88.9778C108.071 89.217 108.071 89.6048 108.311 89.844C108.55 90.0833 108.938 90.0833 109.177 89.844L112.192 86.8291C112.348 86.6732 112.6 86.6732 112.756 86.8291L115.771 89.844C116.01 90.0833 116.398 90.0833 116.637 89.844C116.877 89.6048 116.877 89.217 116.637 88.9778L113.623 85.9628Z" fill="#F40000" stroke="#F40000" stroke-width="0.266057"/>
</svg>
