<svg width="87" height="73" viewBox="0 0 87 73" fill="none" xmlns="http://www.w3.org/2000/svg">
<path d="M7.80519 1H79.4387C83.1995 1 86.2439 4.04443 86.2439 7.8052V65.1121C86.2439 68.8729 83.1995 71.9173 79.4387 71.9173H7.80519C4.04443 71.9173 1 68.8729 1 65.1121V7.8052C1 4.04443 4.04443 1 7.80519 1Z" fill="white" stroke="#3891EE" stroke-width="0.693284"/>
<path d="M9.05853 59.7395H8.66454V58.3426H7.12442V59.7395H6.73044V56.695H7.12442V58.0203H8.66454V56.695H9.05853V59.7395ZM9.70323 58.5933C9.70323 58.3784 9.73905 58.1635 9.8465 57.9844C9.91813 57.8054 10.0614 57.6621 10.2047 57.5904C10.3837 57.483 10.5628 57.4472 10.7419 57.4472C11.0643 57.4472 11.315 57.5546 11.4941 57.7695C11.6732 57.9844 11.7806 58.271 11.7806 58.6291V58.665C11.7806 58.8799 11.7448 59.0948 11.6373 59.2739C11.5657 59.4529 11.4224 59.5962 11.2792 59.6679C11.1359 59.7753 10.9568 59.8111 10.7419 59.8111C10.4196 59.8111 10.1688 59.7037 9.98976 59.4888C9.81068 59.238 9.70323 58.9515 9.70323 58.5933ZM10.0972 58.6291C10.0972 58.8799 10.1688 59.0948 10.2763 59.238C10.3837 59.3813 10.5628 59.4529 10.7419 59.4529C10.921 59.4529 11.1001 59.3813 11.2075 59.238C11.315 59.0948 11.3866 58.8799 11.3866 58.5933C11.3866 58.3426 11.315 58.1277 11.2075 57.9844C11.1001 57.8412 10.921 57.7337 10.7419 57.7695C10.5628 57.7695 10.3837 57.8412 10.2763 57.9844C10.1688 58.1277 10.0972 58.3426 10.0972 58.6291ZM13.6431 59.238L14.431 57.483H14.9325V59.7395H14.5385V58.0919L13.7863 59.7395H13.4998L12.7477 58.0561V59.7395H12.3537V57.483H12.8551L13.6431 59.238ZM16.5442 59.7753C16.2219 59.7753 15.9712 59.6679 15.7921 59.4888C15.613 59.2739 15.5055 59.0231 15.5055 58.665V58.5933C15.5055 58.3784 15.5414 58.1635 15.6488 57.9844C15.7204 57.8054 15.8637 57.6621 16.007 57.5546C16.1502 57.4472 16.3293 57.4114 16.5084 57.4114C16.795 57.4114 17.0457 57.5188 17.1889 57.6979C17.3322 57.877 17.4397 58.1635 17.4397 58.5217V58.7008H15.8995C15.8995 58.9157 15.9712 59.0948 16.0786 59.238C16.2219 59.3813 16.3652 59.4529 16.5442 59.4529C16.6875 59.4529 16.795 59.4171 16.9024 59.3813C17.0099 59.3097 17.0815 59.238 17.1531 59.1664L17.4038 59.3455C17.1889 59.632 16.9024 59.7753 16.5442 59.7753ZM16.4726 57.7337C16.3293 57.7337 16.1861 57.8053 16.0786 57.9128C15.9712 58.0203 15.8995 58.1993 15.8637 58.3784H17.0099V58.3426C17.0099 58.1277 16.9382 57.9844 16.8666 57.877C16.7591 57.8053 16.6517 57.7337 16.4726 57.7337ZM19.8394 58.6291C19.8394 58.9873 19.7677 59.238 19.5887 59.4529C19.4454 59.6679 19.2305 59.7753 18.944 59.7753C18.6574 59.7753 18.4425 59.7037 18.2993 59.5246V60.6349H17.9053V57.483H18.2634L18.2993 57.7337C18.4425 57.5546 18.6932 57.4472 18.944 57.4472C19.2305 57.4472 19.4454 57.5546 19.5887 57.7695C19.7677 57.9486 19.8394 58.2352 19.8394 58.6291ZM19.4812 58.5933C19.4812 58.3426 19.4096 58.1277 19.3021 57.9844C19.1947 57.8412 19.0514 57.7695 18.8365 57.7695C18.5858 57.7695 18.4425 57.877 18.2993 58.0919V59.1664C18.4067 59.3813 18.5858 59.4888 18.8365 59.4888C19.0156 59.4888 19.1589 59.4171 19.2663 59.2739C19.4096 59.0948 19.4812 58.8799 19.4812 58.5933ZM22.5615 57.5904C22.848 57.5904 23.0629 57.6979 23.242 57.877C23.4211 58.0561 23.4927 58.3068 23.4927 58.6291V58.665C23.4927 58.8799 23.4569 59.059 23.3852 59.238C23.3136 59.4171 23.1703 59.5246 23.0271 59.632C22.8838 59.7395 22.7047 59.7753 22.4898 59.7753C22.1675 59.7753 21.9526 59.6679 21.7377 59.4888C21.5586 59.2739 21.4511 59.0231 21.4511 58.665V58.4859C21.4511 58.0203 21.5228 57.6263 21.7018 57.3397C21.8809 57.0532 22.1317 56.8741 22.4898 56.8383C22.6689 56.8025 22.8122 56.7666 22.8838 56.695C22.9554 56.6592 22.9913 56.5517 22.9913 56.4801H23.3136C23.3136 56.6592 23.2778 56.8025 23.2062 56.8741C23.1345 56.9815 22.9913 57.0532 22.8122 57.089L22.5256 57.1606C22.3107 57.2323 22.1317 57.3039 21.9884 57.4472C21.8809 57.5904 21.8093 57.7337 21.7735 57.9486C22.0242 57.7337 22.2749 57.5904 22.5615 57.5904ZM22.4898 57.9128C22.3107 57.9128 22.1317 57.9844 22.0242 58.0919C21.9168 58.2352 21.8451 58.4142 21.8451 58.6291V58.665C21.8451 58.9157 21.9168 59.0948 22.0242 59.238C22.1317 59.3813 22.2749 59.4529 22.4898 59.4529C22.6689 59.4529 22.848 59.3813 22.9554 59.238C23.0629 59.0948 23.1345 58.8799 23.1345 58.6291C23.1345 58.4142 23.0629 58.2352 22.9554 58.1277C22.8122 57.9844 22.6689 57.9128 22.4898 57.9128ZM25.4268 57.483H25.8208V59.7395H25.4268V58.0919L24.3881 59.7395H23.9941V57.483H24.3881V59.1306L25.4268 57.483ZM28.3996 57.483V59.7395H28.0056V57.8054H27.2176L27.1818 58.665C27.146 59.059 27.0744 59.3455 26.9669 59.4888C26.8595 59.6679 26.6804 59.7395 26.4655 59.7395H26.3222V59.3813H26.4297C26.5729 59.3813 26.6446 59.3097 26.7162 59.1664C26.7878 59.0231 26.7878 58.8082 26.8236 58.4501L26.8595 57.483H28.3996ZM30.0113 59.7753C29.689 59.7753 29.4383 59.6679 29.2592 59.4888C29.0801 59.2739 28.9727 59.0231 28.9727 58.665V58.5933C28.9727 58.3784 29.0085 58.1635 29.1159 57.9844C29.1876 57.8054 29.3308 57.6621 29.4741 57.5546C29.6174 57.4472 29.7964 57.4114 29.9755 57.4114C30.2621 57.4114 30.5128 57.5188 30.656 57.6979C30.7993 57.877 30.9068 58.1635 30.9068 58.5217V58.7008H29.3666C29.3666 58.9157 29.4383 59.0948 29.5457 59.238C29.689 59.3813 29.8323 59.4529 30.0113 59.4529C30.1546 59.4529 30.2621 59.4171 30.3695 59.3813C30.477 59.3097 30.5486 59.238 30.6202 59.1664L30.8709 59.3455C30.6919 59.632 30.4053 59.7753 30.0113 59.7753ZM29.9755 57.7337C29.8323 57.7337 29.689 57.8053 29.5815 57.9128C29.4741 58.0203 29.4025 58.1993 29.3666 58.3784H30.5128V58.3426C30.5128 58.1277 30.4411 57.9844 30.3695 57.877C30.2621 57.8053 30.1188 57.7337 29.9755 57.7337ZM33.0916 57.7695H32.3394V59.7395H31.9454V57.7695H31.1933V57.4472H33.0916V57.7695ZM34.9182 59.7395C34.8824 59.7037 34.8824 59.632 34.8466 59.4888C34.6675 59.6679 34.4526 59.7753 34.2019 59.7753C33.987 59.7753 33.8079 59.7037 33.6647 59.5962C33.5214 59.4888 33.4498 59.3097 33.4498 59.1306C33.4498 58.8799 33.5214 58.7008 33.7363 58.5933C33.9154 58.4501 34.1661 58.3784 34.4884 58.3784H34.8824V58.1993C34.8824 58.0561 34.8466 57.9486 34.775 57.877C34.7033 57.8053 34.5601 57.7695 34.4168 57.7695C34.2735 57.7695 34.1661 57.8053 34.0586 57.877C33.9512 57.9486 33.9154 58.0203 33.9154 58.1277H33.5214C33.5214 58.0203 33.5572 57.9128 33.6288 57.8054C33.7005 57.6979 33.8437 57.6263 33.9512 57.5546C34.0945 57.483 34.2377 57.4472 34.4168 57.4472C34.6675 57.4472 34.8824 57.5188 35.0257 57.6621C35.169 57.8053 35.2406 57.9844 35.2406 58.1993V59.238C35.2406 59.453 35.2764 59.5962 35.3122 59.7395V59.7753H34.9182V59.7395ZM34.2735 59.4529C34.381 59.4529 34.5243 59.4171 34.6317 59.3455C34.7392 59.2739 34.8108 59.2022 34.8824 59.0948V58.6291H34.5959C34.1303 58.6291 33.8796 58.7724 33.8796 59.059C33.8796 59.1664 33.9154 59.2739 33.987 59.3455C34.0228 59.4171 34.1303 59.4529 34.2735 59.4529ZM8.12729 64.1092C8.05566 64.2167 7.94821 64.2883 7.84076 64.3241C7.73331 64.3958 7.59004 64.3958 7.48259 64.3958C7.3035 64.3958 7.16024 64.3599 7.01697 64.2525C6.8737 64.145 6.76625 64.0376 6.73044 63.8943C6.6588 63.7152 6.62299 63.5361 6.62299 63.357C6.62299 63.1421 6.6588 62.9631 6.73044 62.8198C6.80207 62.6407 6.90952 62.5332 7.05279 62.4616C7.19605 62.39 7.37514 62.3183 7.55422 62.3183C7.84076 62.3183 8.09147 62.4258 8.27056 62.6407C8.44964 62.8556 8.52127 63.178 8.52127 63.572V63.6794C8.52127 64.2883 8.41382 64.7181 8.16311 64.9688C7.91239 65.2554 7.59004 65.3986 7.0886 65.3986H7.01697V65.0763H7.0886C7.41095 65.0763 7.66167 65.0046 7.84076 64.8256C8.01984 64.7181 8.09147 64.4674 8.12729 64.1092ZM7.51841 64.1092C7.66167 64.1092 7.76912 64.0734 7.87657 64.0018C7.98402 63.9301 8.05566 63.8227 8.12729 63.7152V63.572C8.12729 63.3212 8.05566 63.1063 7.94821 62.9631C7.84076 62.8198 7.69749 62.7123 7.51841 62.7123C7.37514 62.7123 7.19605 62.784 7.12442 62.9272C7.01697 63.0705 6.98115 63.2138 6.98115 63.4287C6.98115 63.6436 7.01697 63.8227 7.12442 63.9301C7.19605 64.0734 7.33932 64.145 7.51841 64.1092ZM10.5986 64.1092C10.527 64.2167 10.4196 64.2883 10.3121 64.3241C10.2047 64.3958 10.0614 64.3958 9.95395 64.3958C9.77486 64.3958 9.6316 64.3599 9.48833 64.2525C9.34506 64.145 9.23761 64.0376 9.20179 63.8943C9.13016 63.7152 9.09434 63.5361 9.09434 63.357C9.09434 63.1421 9.13016 62.9631 9.20179 62.8198C9.27343 62.6407 9.38088 62.5332 9.52414 62.4616C9.66741 62.39 9.8465 62.3183 10.0256 62.3183C10.3121 62.3183 10.5628 62.4258 10.7419 62.6407C10.921 62.8556 10.9926 63.178 10.9926 63.572V63.6794C10.9926 64.2883 10.8852 64.7181 10.6345 64.9688C10.3837 65.2554 10.0614 65.3986 9.55996 65.3986H9.48833V65.0763H9.59578C9.91813 65.0763 10.1688 65.0046 10.3479 64.8256C10.4912 64.7181 10.5986 64.4674 10.5986 64.1092ZM9.98976 64.1092C10.133 64.1092 10.2405 64.0734 10.3479 64.0018C10.4554 63.9301 10.527 63.8227 10.5986 63.7152V63.572C10.5986 63.3212 10.527 63.1063 10.4196 62.9631C10.3121 62.8198 10.1688 62.7123 9.98976 62.7123C9.81068 62.7123 9.66741 62.784 9.59578 62.9272C9.48833 63.0705 9.45251 63.2138 9.45251 63.4287C9.45251 63.6436 9.48833 63.8227 9.59578 63.9301C9.70323 64.0734 9.8465 64.1092 9.98976 64.1092ZM13.07 64.1092C12.9984 64.2167 12.8909 64.2883 12.7835 64.3241C12.676 64.3958 12.5328 64.3958 12.4253 64.3958C12.2462 64.3958 12.103 64.3599 11.9597 64.2525C11.8164 64.145 11.709 64.0376 11.6732 63.8943C11.6015 63.7152 11.5657 63.5361 11.5657 63.357C11.5657 63.1421 11.6015 62.9631 11.6732 62.8198C11.7448 62.6407 11.8522 62.5332 11.9955 62.4616C12.1388 62.39 12.3179 62.3183 12.4969 62.3183C12.7835 62.3183 13.0342 62.4258 13.2133 62.6407C13.3924 62.8556 13.464 63.178 13.464 63.572V63.6794C13.464 64.2883 13.3565 64.7181 13.1058 64.9688C12.8551 65.2554 12.5328 65.3986 12.0313 65.3986H11.9597V65.0763H12.0313C12.3537 65.0763 12.6044 65.0046 12.7835 64.8256C12.9626 64.7181 13.07 64.4674 13.07 64.1092ZM12.4969 64.1092C12.6402 64.1092 12.7477 64.0734 12.8551 64.0018C12.9626 63.9301 13.0342 63.8227 13.1058 63.7152V63.572C13.1058 63.3212 13.0342 63.1063 12.9267 62.9631C12.8193 62.8198 12.676 62.7123 12.4969 62.7123C12.3179 62.7123 12.1746 62.784 12.103 62.9272C11.9955 63.0705 11.9597 63.2138 11.9597 63.4287C11.9597 63.6436 11.9955 63.8227 12.103 63.9301C12.1746 64.0734 12.3179 64.1092 12.4969 64.1092ZM15.5772 64.1092C15.5055 64.2167 15.3981 64.2883 15.2906 64.3241C15.1832 64.3958 15.0399 64.4316 14.9325 64.3958C14.7534 64.3958 14.6101 64.3599 14.4669 64.2525C14.3236 64.145 14.2161 64.0376 14.1803 63.8943C14.1087 63.7152 14.0729 63.5361 14.0729 63.357C14.0729 63.1421 14.1087 62.9631 14.1803 62.8198C14.252 62.6407 14.3594 62.5332 14.5027 62.4616C14.6459 62.39 14.825 62.3183 15.0041 62.3183C15.2906 62.3183 15.5414 62.4258 15.7204 62.6407C15.8995 62.8556 15.9712 63.178 15.9712 63.572V63.6794C15.9712 64.2883 15.8637 64.7181 15.613 64.9688C15.3623 65.2554 15.0399 65.3986 14.5385 65.3986H14.4669V65.0763H14.5385C14.8608 65.0763 15.1116 65.0046 15.2906 64.8256C15.4697 64.7181 15.5414 64.4674 15.5772 64.1092ZM14.9683 64.1092C15.1116 64.1092 15.219 64.0734 15.3265 64.0018C15.4339 63.9301 15.5055 63.8227 15.5772 63.7152V63.572C15.5772 63.3212 15.5055 63.1063 15.3981 62.9631C15.2906 62.8198 15.1474 62.7123 14.9683 62.7123C14.7892 62.7123 14.6459 62.784 14.5743 62.9272C14.4669 63.0705 14.431 63.2138 14.431 63.4287C14.431 63.6436 14.4669 63.8227 14.5743 63.9301C14.6818 64.0734 14.7892 64.1092 14.9683 64.1092ZM19.1947 64.1092C19.123 64.2167 19.0156 64.2883 18.9081 64.3241C18.8007 64.3958 18.6574 64.3958 18.55 64.3958C18.3709 64.3958 18.2276 64.3599 18.0844 64.2525C17.9411 64.145 17.8336 64.0376 17.7978 63.8943C17.7262 63.7152 17.6904 63.5361 17.6904 63.357C17.6904 63.1421 17.7262 62.9631 17.7978 62.8198C17.8695 62.6407 17.9769 62.5332 18.1202 62.4616C18.2634 62.39 18.4425 62.3183 18.6216 62.3183C18.9081 62.3183 19.1589 62.4258 19.3379 62.6407C19.517 62.8556 19.5887 63.178 19.5887 63.572V63.6794C19.5887 64.2883 19.4812 64.7181 19.2305 64.9688C18.9798 65.2554 18.6574 65.3986 18.156 65.3986H18.0844V65.0763H18.156C18.4783 65.0763 18.7291 65.0046 18.9081 64.8256C19.0872 64.7181 19.1589 64.4674 19.1947 64.1092ZM18.5858 64.1092C18.7291 64.1092 18.8365 64.0734 18.944 64.0018C19.0514 63.9301 19.123 63.8227 19.1947 63.7152V63.572C19.1947 63.3212 19.123 63.1063 19.0156 62.9631C18.9081 62.8198 18.7649 62.7123 18.5858 62.7123C18.4067 62.7123 18.2634 62.784 18.1918 62.9272C18.0844 63.0705 18.0485 63.2138 18.0485 63.4287C18.0485 63.6436 18.0844 63.8227 18.1918 63.9301C18.2993 64.0734 18.4425 64.1092 18.5858 64.1092ZM21.666 64.1092C21.5944 64.2167 21.4869 64.2883 21.3795 64.3241C21.272 64.3958 21.1288 64.4316 21.0213 64.3958C20.8422 64.3958 20.699 64.3599 20.5557 64.2525C20.4124 64.145 20.305 64.0376 20.2692 63.8943C20.1975 63.7152 20.1617 63.5361 20.1617 63.357C20.1617 63.1421 20.1975 62.9631 20.2692 62.8198C20.3408 62.6407 20.4483 62.5332 20.5915 62.4616C20.7348 62.39 20.9139 62.3183 21.093 62.3183C21.3795 62.3183 21.6302 62.4258 21.8093 62.6407C21.9884 62.8556 22.06 63.178 22.06 63.572V63.6794C22.06 64.2883 21.9526 64.7181 21.7018 64.9688C21.4511 65.2554 21.1288 65.3986 20.6273 65.3986H20.5557V65.0763H20.6273C20.9497 65.0763 21.2004 65.0046 21.3795 64.8256C21.5586 64.7181 21.666 64.4674 21.666 64.1092ZM21.093 64.1092C21.2362 64.1092 21.3437 64.0734 21.4511 64.0018C21.5586 63.9301 21.6302 63.8227 21.7018 63.7152V63.572C21.7018 63.3212 21.6302 63.1063 21.5228 62.9631C21.4153 62.8198 21.272 62.7123 21.093 62.7123C20.9497 62.7123 20.7706 62.784 20.699 62.9272C20.5915 63.0705 20.5557 63.2138 20.5557 63.4287C20.5557 63.6436 20.5915 63.8227 20.699 63.9301C20.7706 64.0734 20.9139 64.145 21.093 64.1092ZM24.1732 64.1092C24.1016 64.2167 23.9941 64.2883 23.8867 64.3241C23.7792 64.3958 23.636 64.3958 23.5285 64.3958C23.3494 64.3958 23.2062 64.3599 23.0629 64.2525C22.9196 64.145 22.8122 64.0376 22.7764 63.8943C22.7047 63.7152 22.6689 63.5361 22.6689 63.357C22.6689 63.1421 22.7047 62.9631 22.7764 62.8198C22.848 62.6407 22.9554 62.5332 23.0987 62.4616C23.242 62.39 23.4211 62.3183 23.6001 62.3183C23.8867 62.3183 24.1374 62.4258 24.3165 62.6407C24.4956 62.8556 24.5672 63.178 24.5672 63.572V63.6794C24.5672 64.2883 24.4597 64.7181 24.209 64.9688C23.9583 65.2554 23.636 65.3986 23.1345 65.3986H23.0629V65.0763H23.1345C23.4569 65.0763 23.7076 65.0046 23.8867 64.8256C24.0658 64.7181 24.1374 64.4674 24.1732 64.1092ZM23.5643 64.1092C23.7076 64.1092 23.815 64.0734 23.9225 64.0018C24.0299 63.9301 24.1016 63.8227 24.1732 63.7152V63.572C24.1732 63.3212 24.1016 63.1063 23.9941 62.9631C23.8867 62.8198 23.7434 62.7123 23.5643 62.7123C23.3852 62.7123 23.242 62.784 23.1703 62.9272C23.0629 63.0705 23.0271 63.2138 23.0271 63.4287C23.0271 63.6436 23.0629 63.8227 23.1703 63.9301C23.2778 64.0734 23.3852 64.1092 23.5643 64.1092ZM26.6446 64.1092C26.5729 64.2167 26.4655 64.2883 26.358 64.3241C26.2506 64.3958 26.1073 64.3958 25.9999 64.3958C25.8208 64.3958 25.6775 64.3599 25.5342 64.2525C25.391 64.145 25.2835 64.0376 25.2477 63.8943C25.1761 63.7152 25.1403 63.5361 25.1403 63.357C25.1403 63.1421 25.1761 62.9631 25.2477 62.8198C25.3193 62.6407 25.4268 62.5332 25.5701 62.4616C25.7133 62.39 25.8924 62.3183 26.0715 62.3183C26.358 62.3183 26.6087 62.4258 26.7878 62.6407C26.9669 62.8556 27.0385 63.178 27.0385 63.572V63.6794C27.0385 64.2883 26.9311 64.7181 26.6804 64.9688C26.4297 65.2554 26.1073 65.3986 25.6059 65.3986H25.5342V65.0763H25.6059C25.9282 65.0763 26.1789 65.0046 26.358 64.8256C26.5371 64.7181 26.6446 64.4674 26.6446 64.1092ZM26.0357 64.1092C26.1789 64.1092 26.2864 64.0734 26.3938 64.0018C26.5013 63.9301 26.5729 63.8227 26.6446 63.7152V63.572C26.6446 63.3212 26.5729 63.1063 26.4655 62.9631C26.358 62.8198 26.2148 62.7123 26.0357 62.7123C25.8566 62.7123 25.7133 62.784 25.6417 62.9272C25.5342 63.0705 25.4984 63.2138 25.4984 63.4287C25.4984 63.6436 25.5342 63.8227 25.6417 63.9301C25.7491 64.0734 25.8924 64.1092 26.0357 64.1092ZM30.2621 64.1092C30.1904 64.2167 30.083 64.2883 29.9755 64.3241C29.8681 64.3958 29.7248 64.3958 29.6174 64.3958C29.4383 64.3958 29.295 64.3599 29.1517 64.2525C29.0085 64.145 28.901 64.0376 28.8652 63.8943C28.7936 63.7152 28.7578 63.5361 28.7578 63.357C28.7578 63.1421 28.7936 62.9631 28.8652 62.8198C28.9368 62.6407 29.0443 62.5332 29.1876 62.4616C29.3308 62.39 29.5099 62.3183 29.689 62.3183C29.9755 62.3183 30.2262 62.4258 30.4053 62.6407C30.5844 62.8556 30.656 63.178 30.656 63.572V63.6794C30.656 64.2883 30.5486 64.7181 30.2979 64.9688C30.0472 65.2554 29.7248 65.3986 29.2234 65.3986H29.1517V65.0763H29.2234C29.5457 65.0763 29.7964 65.0046 29.9755 64.8256C30.1546 64.7181 30.2621 64.4674 30.2621 64.1092ZM29.689 64.1092C29.8323 64.1092 29.9397 64.0734 30.0472 64.0018C30.1546 63.9301 30.2262 63.8227 30.2979 63.7152V63.572C30.2979 63.3212 30.2262 63.1063 30.1188 62.9631C30.0113 62.8198 29.8681 62.7123 29.689 62.7123C29.5099 62.7123 29.3666 62.784 29.295 62.9272C29.1876 63.0705 29.1517 63.2138 29.1517 63.4287C29.1517 63.6436 29.1876 63.8227 29.295 63.9301C29.3666 64.0734 29.5099 64.1092 29.689 64.1092ZM32.7692 64.1092C32.6976 64.2167 32.5902 64.2883 32.4827 64.3241C32.3752 64.3958 32.232 64.3958 32.1245 64.3958C31.9454 64.3958 31.8022 64.3599 31.6589 64.2525C31.5156 64.145 31.4082 64.0376 31.3724 63.8943C31.3007 63.7152 31.2649 63.5361 31.2649 63.357C31.2649 63.1421 31.3007 62.9631 31.3724 62.8198C31.444 62.6407 31.5515 62.5332 31.6947 62.4616C31.838 62.39 32.0171 62.3183 32.1962 62.3183C32.4827 62.3183 32.7334 62.4258 32.9125 62.6407C33.0916 62.8556 33.1632 63.178 33.1632 63.572V63.6794C33.1632 64.2883 33.0558 64.7181 32.8051 64.9688C32.5543 65.2554 32.232 65.3986 31.7306 65.3986H31.6589V65.0763H31.7306C32.0529 65.0763 32.3036 65.0046 32.4827 64.8256C32.6618 64.7181 32.7334 64.4674 32.7692 64.1092ZM32.1604 64.1092C32.3036 64.1092 32.4111 64.0734 32.5185 64.0018C32.626 63.9301 32.6976 63.8227 32.7692 63.7152V63.572C32.7692 63.3212 32.6976 63.1063 32.5902 62.9631C32.4827 62.8198 32.3394 62.7123 32.1604 62.7123C31.9813 62.7123 31.838 62.784 31.7664 62.9272C31.6589 63.0705 31.6231 63.2138 31.6231 63.4287C31.6231 63.6436 31.6589 63.8227 31.7664 63.9301C31.838 64.0734 31.9813 64.1092 32.1604 64.1092ZM35.2406 64.1092C35.169 64.2167 35.0615 64.2883 34.9541 64.3241C34.8466 64.3958 34.7033 64.3958 34.5959 64.3958C34.4168 64.3958 34.2735 64.3599 34.1303 64.2525C33.987 64.145 33.8796 64.0376 33.8437 63.8943C33.7721 63.7152 33.7363 63.5361 33.7363 63.357C33.7363 63.1421 33.7721 62.9631 33.8437 62.8198C33.9154 62.6407 34.0228 62.5332 34.1661 62.4616C34.3094 62.39 34.4884 62.3183 34.6675 62.3183C34.9541 62.3183 35.2048 62.4258 35.3839 62.6407C35.5629 62.8556 35.6346 63.178 35.6346 63.572V63.6794C35.6346 64.2883 35.5271 64.7181 35.2764 64.9688C35.0257 65.2554 34.7033 65.3986 34.2019 65.3986H34.1303V65.0763H34.2019C34.5243 65.0763 34.775 65.0046 34.9541 64.8256C35.1331 64.7181 35.2406 64.4674 35.2406 64.1092ZM34.6317 64.1092C34.775 64.1092 34.8824 64.0734 34.9899 64.0018C35.0973 63.9301 35.169 63.8227 35.2406 63.7152V63.572C35.2406 63.3212 35.169 63.1063 35.0615 62.9631C34.9541 62.8198 34.8108 62.7123 34.6317 62.7123C34.4884 62.7123 34.3094 62.784 34.2377 62.9272C34.1303 63.0705 34.0945 63.2138 34.0945 63.4287C34.0945 63.6436 34.1303 63.8227 34.2377 63.9301C34.3452 64.0734 34.4884 64.145 34.6317 64.1092ZM37.712 64.1092C37.6403 64.2167 37.5329 64.2883 37.4254 64.3241C37.318 64.3958 37.1747 64.3958 37.0672 64.3958C36.8882 64.3958 36.7449 64.3599 36.6016 64.2525C36.4584 64.145 36.3509 64.0376 36.3151 63.8943C36.2435 63.7152 36.2076 63.5361 36.2076 63.357C36.2076 63.1421 36.2435 62.9631 36.3151 62.8198C36.3867 62.6407 36.4942 62.5332 36.6374 62.4616C36.7807 62.39 36.9598 62.3183 37.1389 62.3183C37.4254 62.3183 37.6761 62.4258 37.8552 62.6407C38.0343 62.8556 38.1059 63.178 38.1059 63.572V63.6794C38.1059 64.2883 37.9985 64.7181 37.7478 64.9688C37.497 65.2554 37.1747 65.3986 36.6733 65.3986H36.6016V65.0763H36.6733C36.9956 65.0763 37.2463 65.0046 37.4254 64.8256C37.6045 64.7181 37.712 64.4674 37.712 64.1092ZM37.1389 64.1092C37.2821 64.1092 37.3896 64.0734 37.497 64.0018C37.6045 63.9301 37.6761 63.8227 37.7478 63.7152V63.572C37.7478 63.3212 37.6761 63.1063 37.5687 62.9631C37.4612 62.8198 37.318 62.7123 37.1389 62.7123C36.9598 62.7123 36.8165 62.784 36.7449 62.9272C36.6374 63.0705 36.6016 63.2138 36.6016 63.4287C36.6016 63.6436 36.6374 63.8227 36.7449 63.9301C36.8165 64.0734 36.9598 64.1092 37.1389 64.1092ZM41.3653 64.1092C41.2936 64.2167 41.1862 64.2883 41.0787 64.3241C40.9713 64.3958 40.828 64.3958 40.7206 64.3958C40.5415 64.3958 40.3982 64.3599 40.2549 64.2525C40.1117 64.145 40.0042 64.0376 39.9684 63.8943C39.8968 63.7152 39.861 63.5361 39.861 63.357C39.861 63.1421 39.8968 62.9631 39.9684 62.8198C40.04 62.6407 40.1475 62.5332 40.2908 62.4616C40.434 62.39 40.6131 62.3183 40.7922 62.3183C41.0787 62.3183 41.3294 62.4258 41.5085 62.6407C41.6876 62.8556 41.7593 63.178 41.7593 63.572V63.6794C41.7593 64.2883 41.6518 64.7181 41.4011 64.9688C41.1504 65.2554 40.828 65.3986 40.3266 65.3986H40.2549V65.0763H40.3266C40.6489 65.0763 40.8996 65.0046 41.0787 64.8256C41.222 64.7181 41.3294 64.4674 41.3653 64.1092ZM40.7564 64.1092C40.8996 64.1092 41.0071 64.0734 41.1145 64.0018C41.222 63.9301 41.2936 63.8227 41.3653 63.7152V63.572C41.3653 63.3212 41.2936 63.1063 41.1862 62.9631C41.0787 62.8198 40.9355 62.7123 40.7564 62.7123C40.6131 62.7123 40.434 62.784 40.3624 62.9272C40.2549 63.0705 40.2191 63.2138 40.2191 63.4287C40.2191 63.6436 40.2549 63.8227 40.3624 63.9301C40.434 64.0734 40.5773 64.145 40.7564 64.1092ZM43.8366 64.1092C43.765 64.2167 43.6575 64.2883 43.5501 64.3241C43.4426 64.3958 43.2994 64.3958 43.1919 64.3958C43.0128 64.3958 42.8696 64.3599 42.7263 64.2525C42.583 64.145 42.4756 64.0376 42.4398 63.8943C42.3681 63.7152 42.3323 63.5361 42.3323 63.357C42.3323 63.1421 42.3681 62.9631 42.4398 62.8198C42.5114 62.6407 42.6188 62.5332 42.7621 62.4616C42.9054 62.39 43.0845 62.3183 43.2636 62.3183C43.5501 62.3183 43.8008 62.4258 43.9799 62.6407C44.159 62.8556 44.2306 63.178 44.2306 63.572V63.6794C44.2306 64.2883 44.1232 64.7181 43.8724 64.9688C43.6217 65.2554 43.2994 65.3986 42.7979 65.3986H42.7263V65.0763H42.7979C43.1203 65.0763 43.371 65.0046 43.5501 64.8256C43.7292 64.7181 43.8008 64.4674 43.8366 64.1092ZM43.2277 64.1092C43.371 64.1092 43.4785 64.0734 43.5859 64.0018C43.6934 63.9301 43.765 63.8227 43.8366 63.7152V63.572C43.8366 63.3212 43.765 63.1063 43.6575 62.9631C43.5501 62.8198 43.4068 62.7123 43.2277 62.7123C43.0486 62.7123 42.9054 62.784 42.8338 62.9272C42.7263 63.0705 42.6905 63.2138 42.6905 63.4287C42.6905 63.6436 42.7263 63.8227 42.8338 63.9301C42.9412 64.0734 43.0845 64.1092 43.2277 64.1092ZM46.308 64.1092C46.2363 64.2167 46.1289 64.2883 46.0214 64.3241C45.914 64.3958 45.7707 64.3958 45.6633 64.3958C45.4842 64.3958 45.3409 64.3599 45.1977 64.2525C45.0544 64.145 44.9469 64.0376 44.9111 63.8943C44.8395 63.7152 44.8037 63.5361 44.8037 63.357C44.8037 63.1421 44.8395 62.9631 44.9111 62.8198C44.9828 62.6407 45.0902 62.5332 45.2335 62.4616C45.3767 62.39 45.5558 62.3183 45.7349 62.3183C46.0214 62.3183 46.2722 62.4258 46.4512 62.6407C46.6303 62.8556 46.702 63.178 46.702 63.572V63.6794C46.702 64.2883 46.5945 64.7181 46.3438 64.9688C46.0931 65.2554 45.7707 65.3986 45.2693 65.3986H45.1977V65.0763H45.2693C45.5916 65.0763 45.8424 65.0046 46.0214 64.8256C46.2005 64.7181 46.308 64.4674 46.308 64.1092ZM45.7349 64.1092C45.8782 64.1092 45.9856 64.0734 46.0931 64.0018C46.2005 63.9301 46.2722 63.8227 46.3438 63.7152V63.572C46.3438 63.3212 46.2722 63.1063 46.1647 62.9631C46.0573 62.8198 45.914 62.7123 45.7349 62.7123C45.5558 62.7123 45.4126 62.784 45.3409 62.9272C45.2335 63.0705 45.1977 63.2138 45.1977 63.4287C45.1977 63.6436 45.2335 63.8227 45.3409 63.9301C45.4126 64.0734 45.5558 64.1092 45.7349 64.1092ZM48.8152 64.1092C48.7435 64.2167 48.6361 64.2883 48.5286 64.3241C48.4212 64.3958 48.2779 64.3958 48.1705 64.3958C47.9914 64.3958 47.8481 64.3599 47.7048 64.2525C47.5616 64.145 47.4541 64.0376 47.4183 63.8943C47.3467 63.7152 47.3108 63.5361 47.3108 63.357C47.3108 63.1421 47.3467 62.9631 47.4183 62.8198C47.4899 62.6407 47.5974 62.5332 47.7407 62.4616C47.8839 62.39 48.063 62.3183 48.2421 62.3183C48.5286 62.3183 48.7793 62.4258 48.9584 62.6407C49.1375 62.8556 49.2091 63.178 49.2091 63.572V63.6794C49.2091 64.2883 49.1017 64.7181 48.851 64.9688C48.6003 65.2554 48.2779 65.3986 47.7765 65.3986H47.7048V65.0763H47.7765C48.0988 65.0763 48.3495 65.0046 48.5286 64.8256C48.7077 64.7181 48.7793 64.4674 48.8152 64.1092ZM48.2063 64.1092C48.3495 64.1092 48.457 64.0734 48.5644 64.0018C48.6719 63.9301 48.7435 63.8227 48.8152 63.7152V63.572C48.8152 63.3212 48.7435 63.1063 48.6361 62.9631C48.5286 62.8198 48.3854 62.7123 48.2063 62.7123C48.063 62.7123 47.8839 62.784 47.8123 62.9272C47.7048 63.0705 47.669 63.2138 47.669 63.4287C47.669 63.6436 47.7048 63.8227 47.8123 63.9301C47.8839 64.0734 48.063 64.145 48.2063 64.1092Z" fill="#C8C8C8"/>
<path d="M6.55402 10.9573C6.55402 10.1693 6.55402 9.56041 6.58983 9.09479C6.62565 8.62918 6.69728 8.30683 6.84055 8.0203C7.09127 7.51887 7.52107 7.08907 8.0225 6.83835C8.30904 6.69508 8.63139 6.62345 9.09701 6.58764C9.56262 6.55182 10.1715 6.55182 10.9595 6.55182H13.8965V13.4286H6.55402V10.9573ZM43.6602 6.55182H51.0026V13.4286H43.6602V6.55182ZM13.9681 6.55182H21.3105V13.4286H13.9681V6.55182ZM51.0743 6.55182H58.4167V13.4286H51.0743V6.55182ZM21.3822 6.55182H28.7246V13.4286H21.3822V6.55182ZM58.4883 6.55182H65.8308V13.4286H58.4883V6.55182ZM28.832 6.55182H36.1745V13.4286H28.832V6.55182ZM65.9024 6.55182H73.2448V13.4286H65.9024V6.55182ZM36.2461 6.55182H43.5886V13.4286H36.2461V6.55182ZM73.3523 6.55182H76.2893C77.0772 6.55182 77.6861 6.55182 78.1517 6.58764C78.6174 6.62345 78.9397 6.69508 79.2262 6.83835C79.7277 7.08907 80.1575 7.51887 80.4082 8.0203C80.5515 8.30683 80.6231 8.62918 80.6589 9.09479C80.6947 9.56041 80.6947 10.1693 80.6947 10.9573V13.4286H73.3523V6.55182ZM6.55402 13.5002H13.8965V20.377H6.55402V13.5002ZM43.6602 13.5002H51.0026V20.377H43.6602V13.5002ZM13.9681 13.5002H21.3105V20.377H13.9681V13.5002ZM51.0743 13.5002H58.4167V20.377H51.0743V13.5002ZM21.3822 13.5002H28.7246V20.377H21.3822V13.5002ZM58.4883 13.5002H65.8308V20.377H58.4883V13.5002ZM28.832 13.5002H36.1745V20.377H28.832V13.5002ZM65.9024 13.5002H73.2448V20.377H65.9024V13.5002ZM36.2461 13.5002H43.5886V20.377H36.2461V13.5002ZM73.3523 13.5002H80.6947V20.377H73.3523V13.5002ZM6.55402 20.4486H13.8965V27.3254H6.55402V20.4486ZM43.6602 20.4486H51.0026V27.3254H43.6602V20.4486ZM13.9681 20.4486H21.3105V27.3254H13.9681V20.4486ZM51.0743 20.4486H58.4167V27.3254H51.0743V20.4486ZM21.3822 20.4486H28.7246V27.3254H21.3822V20.4486ZM58.4883 20.4486H65.8308V27.3254H58.4883V20.4486ZM28.832 20.4486H36.1745V27.3254H28.832V20.4486ZM65.9024 20.4486H73.2448V27.3254H65.9024V20.4486ZM36.2461 20.4486H43.5886V27.3254H36.2461V20.4486ZM73.3523 20.4486H80.6947V27.3254H73.3523V20.4486Z" stroke="#F1F1F1" stroke-width="0.346642"/>
<path d="M10.5975 11.3866H10.0961V8.95105L9.34393 9.20177V8.77196L10.5259 8.34215H10.5975V11.3866ZM16.758 25.2837H16.2566V22.8481L15.5044 23.0989V22.6691L16.6864 22.2393H16.758V25.2837ZM19.8741 23.9943C19.8741 24.4241 19.8024 24.7823 19.6233 24.9972C19.4443 25.2121 19.1935 25.3195 18.8712 25.3195C18.5488 25.3195 18.2981 25.2121 18.119 24.9972C17.94 24.7823 17.8683 24.4599 17.8683 24.0301V23.4929C17.8683 23.063 17.94 22.7407 18.119 22.49C18.2981 22.2751 18.5488 22.1676 18.8712 22.1676C19.1935 22.1676 19.4443 22.2751 19.6233 22.49C19.8024 22.7049 19.8741 23.0272 19.8741 23.457V23.9943ZM19.3726 23.4212C19.3726 23.1347 19.3368 22.9198 19.2652 22.7765C19.1935 22.6332 19.0503 22.5616 18.907 22.5616C18.7279 22.5616 18.6205 22.6332 18.5488 22.7407C18.4772 22.884 18.4414 23.063 18.4414 23.3496V24.0301C18.4414 24.3167 18.4772 24.5316 18.5488 24.6748C18.6205 24.8181 18.7637 24.8897 18.907 24.8897C19.0861 24.8897 19.1935 24.8181 19.2652 24.7106C19.3368 24.5674 19.3726 24.3883 19.3726 24.1017V23.4212ZM26.1062 11.3866H24.0646V11.0284L25.0675 9.91811C25.2108 9.73903 25.3182 9.63157 25.3898 9.52412C25.4615 9.41667 25.4973 9.30922 25.4973 9.20177C25.4973 9.0585 25.4615 8.95105 25.3898 8.84359C25.3182 8.77196 25.2108 8.70033 25.0675 8.70033C24.8884 8.70033 24.781 8.73614 24.6735 8.84359C24.5661 8.95105 24.5302 9.09432 24.5302 9.2734H24.0288C24.0288 9.09432 24.0646 8.91523 24.1721 8.77196C24.2437 8.62869 24.387 8.48542 24.5302 8.41379C24.6735 8.34215 24.8526 8.30634 25.0675 8.30634C25.354 8.30634 25.6047 8.37797 25.7838 8.52124C25.9629 8.66451 26.0345 8.87941 26.0345 9.13013C26.0345 9.2734 25.9987 9.45249 25.8913 9.59576C25.8196 9.77484 25.6764 9.95393 25.4615 10.1688L24.7093 10.9568H26.142C26.1062 10.9926 26.1062 11.3866 26.1062 11.3866ZM25.6406 15.2549V15.6847H25.5689C25.2824 15.6847 25.0675 15.7563 24.8884 15.9354C24.7093 16.0787 24.6019 16.2936 24.6019 16.5801C24.781 16.401 24.96 16.3294 25.2466 16.3294C25.5331 16.3294 25.7122 16.4369 25.8913 16.6159C26.0345 16.795 26.142 17.0457 26.142 17.3681C26.142 17.6905 26.0345 17.9412 25.8555 18.1203C25.6764 18.2994 25.4257 18.4068 25.1391 18.4068C24.8168 18.4068 24.6019 18.2994 24.387 18.0844C24.2079 17.8695 24.1004 17.5472 24.1004 17.189V17.0099C24.1004 16.4727 24.2437 16.0429 24.4944 15.7563C24.7451 15.4698 25.1391 15.2907 25.6047 15.2907C25.5689 15.2549 25.6406 15.2549 25.6406 15.2549ZM25.0675 16.7234C24.8526 16.7234 24.6377 16.8667 24.5661 17.0816V17.2248C24.5661 17.4397 24.6019 17.6188 24.7093 17.7621C24.8168 17.9054 24.9242 17.977 25.0675 17.977C25.2108 17.977 25.354 17.9054 25.4257 17.7979C25.4973 17.6905 25.5689 17.5472 25.5689 17.3681C25.5689 17.189 25.5331 17.0457 25.4257 16.9025C25.354 16.795 25.2108 16.7234 25.0675 16.7234ZM39.4658 9.63157H39.7882C39.9315 9.63157 40.0747 9.59576 40.1464 9.52412C40.2538 9.45249 40.2896 9.34504 40.2896 9.16595C40.2896 9.02268 40.2538 8.91523 40.1822 8.84359C40.1105 8.77196 40.0031 8.73614 39.824 8.73614C39.6807 8.73614 39.5733 8.77196 39.5016 8.84359C39.43 8.91523 39.3584 9.02268 39.3584 9.16595H38.8569C38.8569 9.02268 38.8928 8.87941 38.9644 8.73614C39.036 8.59287 39.1793 8.52124 39.3226 8.4496C39.4658 8.37797 39.6449 8.34215 39.824 8.34215C40.1464 8.34215 40.3613 8.41379 40.5403 8.55706C40.7194 8.70033 40.7911 8.91523 40.7911 9.20177C40.7911 9.34504 40.7552 9.45249 40.6478 9.59576C40.5762 9.70321 40.4329 9.81066 40.3254 9.88229C40.5045 9.95393 40.612 10.0256 40.7194 10.1688C40.7911 10.2763 40.8627 10.4554 40.8627 10.5986C40.8627 10.8852 40.7552 11.1001 40.5762 11.2434C40.3971 11.4224 40.1464 11.4941 39.824 11.4941C39.5375 11.4941 39.2868 11.4224 39.1077 11.2434C38.9286 11.1001 38.8211 10.8852 38.8211 10.6345H39.3226C39.3226 10.7777 39.3584 10.8852 39.4658 10.9568C39.5733 11.0284 39.6807 11.1001 39.824 11.1001C39.9673 11.1001 40.1105 11.0643 40.1822 10.9568C40.2538 10.8494 40.3254 10.7419 40.3254 10.5986C40.3254 10.4554 40.2896 10.3121 40.1822 10.2405C40.0747 10.1688 39.9314 10.0972 39.7524 10.0972H39.4658C39.4658 10.0256 39.4658 9.63157 39.4658 9.63157ZM39.0002 25.2837H38.4988V22.8481L37.7466 23.0989V22.6691L38.9286 22.2393H39.0002V25.2837ZM41.5074 25.2837H41.006V22.8481L40.2538 23.0989V22.6691L41.4358 22.2393H41.5074V25.2837ZM46.4143 25.2837H45.9129V22.8481L45.1607 23.0989V22.6691L46.3427 22.2393H46.4143V25.2837ZM49.602 25.2837H47.5604V24.9255L48.5633 23.8152C48.7066 23.6361 48.814 23.5287 48.8856 23.4212C48.9573 23.3138 48.9931 23.2063 48.9931 23.0989C48.9931 22.9556 48.9573 22.8481 48.8856 22.7407C48.814 22.6691 48.7066 22.5974 48.5633 22.5974C48.3842 22.5974 48.2768 22.6332 48.1693 22.7407C48.0619 22.8481 48.026 22.9914 48.026 23.1705H47.5246C47.5246 22.9914 47.5604 22.8123 47.6679 22.6691C47.7395 22.5258 47.8828 22.3825 48.026 22.3109C48.1693 22.2393 48.3484 22.2034 48.5633 22.2034C48.8498 22.2034 49.1005 22.2751 49.2796 22.4183C49.4587 22.5616 49.5303 22.7765 49.5303 23.0272C49.5303 23.1705 49.4945 23.3496 49.3871 23.4929C49.3154 23.6719 49.1722 23.851 48.9573 24.0659L48.2051 24.8539H49.6378L49.602 25.2837ZM68.6923 25.2837H68.1909V22.8481L67.4387 23.0989V22.6691L68.6207 22.2393H68.6923V25.2837ZM70.4115 23.5287H70.7339C70.8771 23.5287 71.0204 23.4929 71.092 23.4212C71.1995 23.3496 71.2353 23.2421 71.2353 23.063C71.2353 22.9198 71.1995 22.8123 71.1279 22.7407C71.0562 22.6691 70.9488 22.6332 70.7697 22.6332C70.6264 22.6332 70.519 22.6691 70.4473 22.7407C70.3757 22.8123 70.3041 22.9198 70.3041 23.063H69.8026C69.8026 22.9198 69.8385 22.7765 69.9101 22.6332C69.9817 22.49 70.125 22.4183 70.2683 22.3467C70.4115 22.2751 70.5906 22.2393 70.7697 22.2393C71.092 22.2393 71.3069 22.3109 71.486 22.4542C71.6651 22.5974 71.7367 22.8123 71.7367 23.0989C71.7367 23.2421 71.7009 23.3496 71.5935 23.4929C71.5218 23.6003 71.3786 23.7078 71.2711 23.7794C71.4502 23.851 71.5577 23.9227 71.6651 24.0659C71.7367 24.1734 71.8084 24.3525 71.8084 24.4957C71.8084 24.7823 71.7009 24.9972 71.5218 25.1404C71.3428 25.3195 71.092 25.3912 70.7697 25.3912C70.4832 25.3912 70.2324 25.3195 70.0534 25.1404C69.8743 24.9972 69.7668 24.7823 69.7668 24.5316H70.2683C70.2683 24.6748 70.3041 24.7823 70.4115 24.8539C70.519 24.9255 70.6264 24.9972 70.7697 24.9972C70.913 24.9972 71.0562 24.9614 71.1279 24.8539C71.2353 24.7823 71.2711 24.639 71.2711 24.4957C71.2711 24.3525 71.2353 24.2092 71.1279 24.1376C71.0204 24.0659 70.8771 23.9943 70.6981 23.9943H70.4115V23.5287ZM76.1064 25.2837H75.6049V22.8481L74.8528 23.0989V22.6691L76.0348 22.2393H76.1064V25.2837ZM78.9717 24.2092H79.3657V24.6032H78.9717V25.2837H78.4703V24.6032H77.1451V24.2808L78.4703 22.2034H79.0075V24.2092H78.9717ZM77.6465 24.2092H78.4345V22.9198L78.3987 22.9914L77.6465 24.2092ZM48.026 10.3121H48.42V10.7061H48.026V11.3866H47.5246V10.7061H46.1994V10.3837L47.5246 8.30634H48.0619C48.026 8.34215 48.026 10.3121 48.026 10.3121ZM46.7008 10.3121H47.4888V9.02268L47.453 9.09432L46.7008 10.3121ZM48.3484 15.5772L47.1306 18.3352H46.5934L47.8111 15.6847H46.2352V15.2907H48.3484V15.5772ZM55.655 16.0787C55.655 16.222 55.6192 16.3652 55.5476 16.4727C55.4759 16.5801 55.3685 16.6876 55.2252 16.7592C55.3685 16.8308 55.5117 16.9383 55.5834 17.0457C55.655 17.189 55.7266 17.3323 55.7266 17.4756C55.7266 17.7621 55.6192 17.9412 55.4401 18.1203C55.261 18.2635 55.0103 18.371 54.7238 18.371C54.4372 18.371 54.1865 18.2994 54.0074 18.1203C53.8284 17.977 53.7209 17.7621 53.7209 17.4756C53.7209 17.2965 53.7567 17.1532 53.8642 17.0457C53.9716 16.9025 54.0791 16.795 54.2223 16.7592C54.0791 16.6876 53.9716 16.6159 53.9 16.4727C53.8284 16.3652 53.7925 16.222 53.7925 16.0787C53.7925 15.828 53.8642 15.6131 54.0433 15.4698C54.2223 15.3265 54.4372 15.2549 54.7238 15.2549C55.0103 15.2549 55.2252 15.3265 55.4043 15.4698C55.5476 15.6131 55.655 15.828 55.655 16.0787ZM55.1894 17.4756C55.1894 17.3323 55.1536 17.189 55.0461 17.1174C54.9745 17.0099 54.8312 16.9741 54.688 16.9741C54.5447 16.9741 54.4372 17.0099 54.3298 17.1174C54.2582 17.2248 54.1865 17.3323 54.1865 17.4756C54.1865 17.6188 54.2223 17.7621 54.3298 17.8337C54.4014 17.9054 54.5447 17.977 54.688 17.977C54.8312 17.977 54.9745 17.9412 55.0461 17.8337C55.1536 17.7621 55.1894 17.6188 55.1894 17.4756ZM55.1536 16.1145C55.1536 15.9712 55.1178 15.8638 55.0461 15.7921C54.9745 15.7205 54.867 15.6489 54.7238 15.6489C54.5805 15.6489 54.4731 15.6847 54.4014 15.7563C54.3298 15.828 54.294 15.9354 54.294 16.0787C54.294 16.222 54.3298 16.3294 54.4014 16.401C54.4731 16.4727 54.5805 16.5085 54.7238 16.5085C54.867 16.5085 54.9387 16.4727 55.0461 16.401C55.1178 16.3652 55.1536 16.2578 55.1536 16.1145ZM77.4316 17.0457C77.2525 17.2248 77.0734 17.3323 76.8227 17.3323C76.5362 17.3323 76.3571 17.2248 76.178 17.0457C76.0348 16.8667 75.9273 16.6159 75.9273 16.2936C75.9273 16.0787 75.9631 15.8996 76.0348 15.7563C76.1064 15.5772 76.2138 15.4698 76.3929 15.3623C76.5362 15.2549 76.7153 15.2191 76.9302 15.2191C77.2525 15.2191 77.4674 15.3265 77.6465 15.5772C77.8256 15.7921 77.933 16.1145 77.933 16.5085V16.6518C77.933 17.189 77.8256 17.6188 77.5749 17.9054C77.3242 18.1919 76.966 18.3352 76.4646 18.3352H76.3929V17.9054H76.4646C76.7511 17.9054 77.0018 17.8337 77.1451 17.6905C77.3242 17.583 77.3958 17.3681 77.4316 17.0457ZM76.9302 16.9383C77.0376 16.9383 77.1451 16.9025 77.2167 16.8667C77.2883 16.795 77.36 16.7234 77.4316 16.6159V16.401C77.4316 16.1861 77.3958 16.007 77.2883 15.8638C77.1809 15.7205 77.0734 15.6489 76.9302 15.6489C76.7869 15.6489 76.6795 15.7205 76.572 15.828C76.5004 15.9354 76.4287 16.1145 76.4287 16.2936C76.4287 16.4727 76.4646 16.6518 76.572 16.7592C76.6795 16.8667 76.7869 16.9383 76.9302 16.9383ZM76.1064 9.88229L76.2855 8.34215H77.933V8.77196H76.7153L76.6436 9.48831C76.7869 9.41667 76.9302 9.38085 77.1093 9.38085C77.3958 9.38085 77.6107 9.48831 77.7898 9.66739C77.9689 9.84648 78.0405 10.0972 78.0405 10.4196C78.0405 10.7419 77.9689 10.9926 77.754 11.1717C77.5749 11.3508 77.3242 11.4583 77.0018 11.4583C76.7153 11.4583 76.5004 11.3866 76.3213 11.2075C76.1422 11.0643 76.0348 10.8494 76.0348 10.5628H76.5362C76.572 10.7061 76.6078 10.8135 76.6795 10.921C76.7511 10.9926 76.8944 11.0284 77.0018 11.0284C77.1451 11.0284 77.2883 10.9568 77.36 10.8494C77.4316 10.7419 77.5032 10.5986 77.5032 10.3837C77.5032 10.2047 77.4674 10.0614 77.36 9.95393C77.2525 9.84648 77.1451 9.77484 76.966 9.77484C76.8585 9.77484 76.7869 9.77484 76.7153 9.81066C76.6436 9.84648 76.572 9.8823 76.5004 9.95393L76.1064 9.88229Z" fill="#595959"/>
<path d="M6.55402 10.9573C6.55402 10.1693 6.55402 9.56041 6.58983 9.09479C6.62565 8.62918 6.69728 8.30683 6.84055 8.0203C7.09127 7.51887 7.52107 7.08907 8.0225 6.83835C8.30904 6.69508 8.63139 6.62345 9.09701 6.58764C9.56262 6.55182 10.1715 6.55182 10.9595 6.55182H76.2893C77.0772 6.55182 77.6861 6.55182 78.1517 6.58764C78.6174 6.62345 78.9397 6.69508 79.2262 6.83835C79.7277 7.08907 80.1575 7.51887 80.4082 8.0203L80.5515 7.94866L80.4082 8.0203C80.5515 8.30683 80.6231 8.62918 80.6589 9.09479C80.6947 9.56041 80.6947 10.1693 80.6947 10.9573V27.3254H6.55402V10.9573Z" stroke="#C8C8C8" stroke-width="0.346642"/>
<path d="M6.55109 30.5499H13.8935V37.4266H6.55109V30.5499ZM43.6573 30.5499H50.9997V37.4266H43.6573V30.5499ZM13.9652 30.5499H21.3076V37.4266H13.9652V30.5499ZM51.0713 30.5499H58.4138V37.4266H51.0713V30.5499ZM21.3792 30.5499H28.7217V37.4266H21.3792V30.5499ZM58.4854 30.5499H65.8278V37.4266H58.4854V30.5499ZM28.8291 30.5499H36.1716V37.4266H28.8291V30.5499ZM65.8995 30.5499H73.2419V37.4266H65.8995V30.5499ZM36.2432 30.5499H43.5856V37.4266H36.2432V30.5499ZM73.3494 30.5499H80.6918V37.4266H73.3494V30.5499ZM6.55109 37.4983H13.8935V44.375H6.55109V37.4983ZM43.6573 37.4983H50.9997V44.375H43.6573V37.4983ZM13.9652 37.4983H21.3076V44.375H13.9652V37.4983ZM51.0713 37.4983H58.4138V44.375H51.0713V37.4983ZM21.3792 37.4983H28.7217V44.375H21.3792V37.4983ZM58.4854 37.4983H65.8278V44.375H58.4854V37.4983ZM28.8291 37.4983H36.1716V44.375H28.8291V37.4983ZM65.8995 37.4983H73.2419V44.375H65.8995V37.4983ZM36.2432 37.4983H43.5856V44.375H36.2432V37.4983ZM73.3494 37.4983H80.6918V44.375H73.3494V37.4983ZM6.55109 44.4467H13.8935V51.3234H10.9565C10.1686 51.3234 9.5597 51.3234 9.09408 51.2876C8.62846 51.2518 8.30611 51.1802 8.01957 51.0369C7.51814 50.7862 7.08834 50.3564 6.83762 49.855C6.69435 49.5684 6.62272 49.2461 6.5869 48.7805C6.55109 48.3149 6.55109 47.706 6.55109 46.918C6.55109 46.918 6.55109 44.4467 6.55109 44.4467ZM43.6573 44.4467H50.9997V51.3234H43.6573V44.4467ZM13.9652 44.4467H21.3076V51.3234H13.9652V44.4467ZM51.0713 44.4467H58.4138V51.3234H51.0713V44.4467ZM21.3792 44.4467H28.7217V51.3234H21.3792V44.4467ZM58.4854 44.4467H65.8278V51.3234H58.4854V44.4467ZM28.8291 44.4467H36.1716V51.3234H28.8291V44.4467ZM65.8995 44.4467H73.2419V51.3234H65.8995V44.4467ZM36.2432 44.4467H43.5856V51.3234H36.2432V44.4467ZM73.3494 44.4467H80.6918V46.918C80.6918 47.706 80.6918 48.3149 80.656 48.7805C80.6202 49.2461 80.5485 49.5684 80.4053 49.855C80.1545 50.3564 79.7247 50.7862 79.2233 51.0369C78.9368 51.1802 78.6144 51.2518 78.1488 51.2876C77.6832 51.3234 77.0743 51.3234 76.2863 51.3234H73.3494V44.4467Z" stroke="#F1F1F1" stroke-width="0.346642"/>
<path d="M9.3086 35.3847H8.80716V32.9492L8.05501 33.1999V32.7701L9.23696 32.3403H9.3086V35.3847ZM10.598 33.8804L10.7771 32.3403H12.4247V32.7701H11.2069L11.1353 33.4864C11.2785 33.4148 11.4576 33.379 11.6009 33.379C11.8874 33.379 12.1023 33.4864 12.2814 33.6655C12.4605 33.8446 12.5321 34.0953 12.5321 34.4177C12.5321 34.74 12.4605 34.9907 12.2456 35.1698C12.0665 35.3489 11.8158 35.4564 11.4934 35.4564C11.2069 35.4564 10.992 35.3847 10.8129 35.2056C10.6338 35.0624 10.5264 34.8475 10.5264 34.5609H11.0278C11.0636 34.7042 11.0994 34.8116 11.1711 34.9191C11.2427 34.9907 11.386 35.0266 11.5292 35.0266C11.6725 35.0266 11.8158 34.9549 11.8874 34.8475C11.959 34.74 12.0307 34.5967 12.0307 34.3818C12.0307 34.2028 11.9949 34.0595 11.8874 33.952C11.78 33.8446 11.6725 33.773 11.4934 33.773C11.386 33.773 11.3143 33.7729 11.2427 33.8088C11.1711 33.8446 11.0994 33.8804 11.0278 33.952L10.598 33.8804ZM9.3086 42.3333H8.80716V39.8977L8.05501 40.1484V39.7186L9.23696 39.2888H9.3086V42.3333ZM11.8874 41.0797C11.7083 41.2588 11.5292 41.3662 11.2785 41.3662C10.992 41.3662 10.8129 41.2588 10.6338 41.0797C10.4906 40.9006 10.3831 40.6499 10.3831 40.3275C10.3831 40.1126 10.4189 39.9335 10.4906 39.7903C10.5622 39.6112 10.6696 39.5037 10.8487 39.3963C10.992 39.2888 11.1711 39.253 11.386 39.253C11.7083 39.253 11.9232 39.3604 12.1023 39.6112C12.2814 39.8261 12.3888 40.1484 12.3888 40.5424V40.6857C12.3888 41.2229 12.2814 41.6527 12.0307 41.9393C11.78 42.2258 11.4218 42.3691 10.9204 42.3691H10.8487V41.9393H10.9204C11.2069 41.9393 11.4576 41.8676 11.6009 41.7244C11.78 41.5811 11.8874 41.3662 11.8874 41.0797ZM11.4218 40.9364C11.5292 40.9364 11.6367 40.9006 11.7083 40.8648C11.78 40.829 11.8516 40.7215 11.9232 40.614V40.3991C11.9232 40.1842 11.8874 40.0052 11.78 39.8619C11.6725 39.7186 11.5651 39.647 11.4218 39.647C11.2785 39.647 11.1711 39.7186 11.0636 39.8261C10.992 39.9335 10.9204 40.1126 10.9204 40.2917C10.9204 40.4708 10.9562 40.6499 11.0636 40.7573C11.1353 40.9006 11.2785 40.9364 11.4218 40.9364ZM17.4032 49.2818H15.3616V48.9237L16.3645 47.8133C16.5078 47.6342 16.6152 47.5268 16.6868 47.4193C16.7585 47.3119 16.7943 47.2044 16.7943 47.097C16.7943 46.9537 16.7585 46.8462 16.6868 46.7388C16.6152 46.6672 16.5078 46.5955 16.3645 46.5955C16.1854 46.5955 16.078 46.6313 15.9705 46.7388C15.8631 46.8462 15.8272 46.9895 15.8272 47.1686H15.3258C15.3258 46.9895 15.3616 46.8104 15.4691 46.6672C15.5407 46.5239 15.684 46.3806 15.8272 46.309C15.9705 46.2374 16.1496 46.2015 16.3645 46.2015C16.651 46.2015 16.9018 46.2732 17.0808 46.4164C17.2599 46.5597 17.3316 46.7746 17.3316 47.0253C17.3316 47.1686 17.2957 47.3477 17.1883 47.491C17.1167 47.67 16.9734 47.8491 16.7585 48.064L16.0063 48.852H17.439L17.4032 49.2818ZM18.0121 47.7775L18.1912 46.2374H19.8387V46.6672H18.621L18.5493 47.3835C18.6926 47.3119 18.8717 47.2761 19.0149 47.2761C19.3015 47.2761 19.5164 47.3835 19.6955 47.5626C19.8745 47.7417 19.9462 47.9924 19.9462 48.3148C19.9462 48.6371 19.8745 48.8878 19.6596 49.0669C19.4806 49.246 19.2298 49.3535 18.9075 49.3535C18.621 49.3535 18.4061 49.2818 18.227 49.1027C18.0479 48.9595 17.9404 48.7446 17.9404 48.458H18.4419C18.4777 48.6013 18.5135 48.7087 18.5851 48.8162C18.6568 48.8878 18.8 48.9237 18.9075 48.9237C19.0508 48.9237 19.194 48.852 19.2657 48.7446C19.3373 48.6371 19.4089 48.4938 19.4089 48.2789C19.4089 48.0999 19.3731 47.9566 19.2657 47.8491C19.1582 47.7417 19.0508 47.67 18.8717 47.67C18.8 47.67 18.7284 47.67 18.621 47.7059C18.5493 47.7417 18.4777 47.7775 18.4061 47.8491L18.0121 47.7775ZM9.98912 49.2818H7.94756V48.9237L8.95043 47.8133C9.0937 47.6342 9.20115 47.5268 9.27278 47.4193C9.34441 47.3119 9.38023 47.2044 9.38023 47.097C9.38023 46.9537 9.34441 46.8462 9.27278 46.7388C9.20115 46.6672 9.0937 46.5955 8.95043 46.5955C8.77135 46.5955 8.6639 46.6313 8.55645 46.7388C8.44899 46.8462 8.41318 46.9895 8.41318 47.1686H7.91174C7.91174 46.9895 7.94756 46.8104 8.05501 46.6672C8.12664 46.5239 8.26991 46.3806 8.41318 46.309C8.55645 46.2374 8.77135 46.2015 8.95043 46.2015C9.23696 46.2015 9.48768 46.2732 9.66676 46.4164C9.84585 46.5597 9.91748 46.7746 9.91748 47.0253C9.91748 47.1686 9.88167 47.3477 9.77421 47.491C9.70258 47.67 9.55931 47.8491 9.34441 48.064L8.59226 48.852H10.0249L9.98912 49.2818ZM12.1739 48.2073H12.5679V48.6013H12.1739V49.2818H11.6725V48.6013H10.3473V48.2789L11.6725 46.2015H12.2098L12.1739 48.2073ZM10.8845 48.2073H11.6725V46.9179L11.6367 46.9895L10.8845 48.2073ZM24.1726 35.3847H23.6711V32.9492L22.919 33.1999V32.7701L24.1009 32.3403H24.1726V35.3847ZM26.8946 32.3044V32.7342H26.823C26.5365 32.7342 26.3216 32.8059 26.1425 32.985C25.9634 33.1282 25.8559 33.3431 25.8559 33.6297C26.035 33.4506 26.2141 33.379 26.5006 33.379C26.7872 33.379 26.9663 33.4864 27.1453 33.6655C27.2886 33.8446 27.3961 34.0953 27.3961 34.4177C27.3961 34.74 27.2886 34.9907 27.1095 35.1698C26.9304 35.3489 26.6797 35.4564 26.3932 35.4564C26.0708 35.4564 25.8559 35.3489 25.641 35.134C25.462 34.9191 25.3545 34.5967 25.3545 34.2386V34.0595C25.3545 33.5222 25.4978 33.0924 25.7485 32.8059C25.9992 32.5193 26.3932 32.3403 26.8588 32.3403C26.823 32.3044 26.8946 32.3044 26.8946 32.3044ZM26.3216 33.773C26.1067 33.773 25.8918 33.9162 25.8201 34.1311V34.2744C25.8201 34.4893 25.8559 34.6684 25.9634 34.8117C26.0708 34.9549 26.1783 35.0266 26.3216 35.0266C26.4648 35.0266 26.6081 34.9549 26.6797 34.8475C26.7514 34.74 26.823 34.5967 26.823 34.4177C26.823 34.2386 26.7872 34.0595 26.6797 33.952C26.6081 33.8446 26.4648 33.773 26.3216 33.773ZM32.2671 42.3333H30.2256V41.9751L31.2285 40.8648C31.3717 40.6857 31.4792 40.5782 31.5508 40.4708C31.6224 40.3633 31.6583 40.2559 31.6583 40.1484C31.6583 40.0052 31.6224 39.8977 31.5508 39.7903C31.4792 39.7186 31.3717 39.647 31.2285 39.647C31.0494 39.647 30.9419 39.6828 30.8345 39.7903C30.727 39.8977 30.6912 40.041 30.6912 40.2201H30.1898C30.1898 40.041 30.2256 39.8619 30.333 39.7186C30.4047 39.5753 30.5479 39.4321 30.6912 39.3604C30.8345 39.2888 31.0136 39.253 31.2285 39.253C31.515 39.253 31.7657 39.3246 31.9448 39.4679C32.1239 39.6112 32.1955 39.8261 32.1955 40.0768C32.1955 40.2201 32.1597 40.3991 32.0522 40.5424C31.9806 40.7215 31.8373 40.9006 31.6224 41.1155L30.8703 41.9035H32.303L32.2671 42.3333ZM34.7027 41.0439C34.7027 41.4737 34.631 41.8318 34.452 42.0467C34.2729 42.2616 34.0222 42.3691 33.6998 42.3691C33.3775 42.3691 33.1267 42.2616 32.9477 42.0467C32.7686 41.8318 32.6969 41.5095 32.6969 41.0797V40.5424C32.6969 40.1126 32.7686 39.7902 32.9477 39.5395C33.1267 39.3246 33.3775 39.2172 33.6998 39.2172C34.0222 39.2172 34.2729 39.3246 34.452 39.5395C34.631 39.7544 34.7027 40.0768 34.7027 40.5066V41.0439ZM34.2012 40.4708C34.2012 40.1842 34.1654 39.9693 34.0938 39.8261C34.0222 39.6828 33.8789 39.6112 33.7356 39.6112C33.5565 39.6112 33.4491 39.6828 33.3775 39.7903C33.3058 39.9335 33.27 40.1126 33.27 40.3991V41.0797C33.27 41.3662 33.3058 41.5811 33.3775 41.7244C33.4491 41.8676 33.5924 41.9393 33.7356 41.9393C33.9147 41.9393 34.0222 41.8677 34.0938 41.7602C34.1654 41.6169 34.2012 41.4378 34.2012 41.1513V40.4708ZM39.0007 35.3847H38.4993V32.9492L37.7471 33.1999V32.7701L38.9291 32.3403H39.0007V35.3847ZM42.1884 32.6268L40.9706 35.3847H40.4334L41.6511 32.7342H40.0394V32.3403H42.1526V32.6268H42.1884ZM39.6812 49.2818H37.6397V48.9237L38.6425 47.8133C38.7858 47.6342 38.8932 47.5268 38.9649 47.4193C39.0365 47.3119 39.0723 47.2044 39.0723 47.097C39.0723 46.9537 39.0365 46.8462 38.9649 46.7388C38.8932 46.6672 38.7858 46.5955 38.6425 46.5955C38.4634 46.5955 38.356 46.6313 38.2485 46.7388C38.1411 46.8462 38.1053 46.9895 38.1053 47.1686H37.6038C37.6038 46.9895 37.6397 46.8104 37.7471 46.6672C37.8187 46.5239 37.962 46.3806 38.1053 46.309C38.2485 46.2374 38.4276 46.2015 38.6425 46.2015C38.9291 46.2015 39.1798 46.2732 39.3589 46.4164C39.5379 46.5597 39.6096 46.7746 39.6096 47.0253C39.6096 47.1686 39.5738 47.3477 39.4663 47.491C39.3947 47.67 39.2514 47.8491 39.0365 48.064L38.2844 48.852H39.717L39.6812 49.2818ZM41.7228 46.2015V46.6313H41.6511C41.3646 46.6313 41.1497 46.703 40.9706 46.8821C40.7915 47.0253 40.6841 47.2402 40.6841 47.5268C40.8632 47.3477 41.0422 47.2761 41.3288 47.2761C41.6153 47.2761 41.7944 47.3835 41.9735 47.5626C42.1167 47.7417 42.2242 47.9924 42.2242 48.3148C42.2242 48.6371 42.1167 48.8878 41.9377 49.0669C41.7586 49.246 41.5079 49.3535 41.2213 49.3535C40.899 49.3535 40.6841 49.246 40.4692 49.0311C40.2901 48.8162 40.1826 48.4938 40.1826 48.1357V47.9208C40.1826 47.3835 40.3259 46.9537 40.5766 46.6672C40.8273 46.3806 41.2213 46.2015 41.6869 46.2015H41.7228ZM41.1855 47.67C40.9706 47.67 40.7557 47.8133 40.6841 48.0282V48.1715C40.6841 48.3864 40.7199 48.5655 40.8273 48.7087C40.9348 48.852 41.0422 48.9237 41.1855 48.9237C41.3288 48.9237 41.472 48.852 41.5437 48.7446C41.6153 48.6371 41.6869 48.4938 41.6869 48.3148C41.6869 48.1357 41.6511 47.9924 41.5437 47.8491C41.4362 47.7417 41.3288 47.67 41.1855 47.67ZM47.0953 49.2818H45.0537V48.9237L46.0566 47.8133C46.1999 47.6342 46.3073 47.5268 46.3789 47.4193C46.4506 47.3119 46.4864 47.2044 46.4864 47.097C46.4864 46.9537 46.4506 46.8462 46.3789 46.7388C46.3073 46.6672 46.1999 46.5955 46.0566 46.5955C45.8775 46.5955 45.7701 46.6313 45.6626 46.7388C45.5552 46.8462 45.5193 46.9895 45.5193 47.1686H45.0179C45.0179 46.9895 45.0537 46.8104 45.1612 46.6672C45.2328 46.5239 45.3761 46.3806 45.5193 46.309C45.6626 46.2374 45.8417 46.2015 46.0566 46.2015C46.3431 46.2015 46.5938 46.2732 46.7729 46.4164C46.952 46.5597 47.0236 46.7746 47.0236 47.0253C47.0236 47.1686 46.9878 47.3477 46.8804 47.491C46.8087 47.67 46.6655 47.8491 46.4506 48.064L45.6984 48.852H47.1311V49.2818H47.0953ZM49.6024 46.5239L48.3847 49.2818H47.8474L49.0652 46.6313H47.4893V46.2374H49.6024V46.5239ZM67.9048 47.5268H68.2272C68.3704 47.5268 68.5137 47.491 68.5853 47.4193C68.6928 47.3477 68.7286 47.2402 68.7286 47.0612C68.7286 46.9179 68.6928 46.8104 68.6212 46.7388C68.5495 46.6672 68.4421 46.6313 68.263 46.6313C68.1197 46.6313 68.0123 46.6672 67.9406 46.7388C67.869 46.8104 67.7974 46.9179 67.7974 47.0612H67.2601C67.2601 46.9179 67.2959 46.7746 67.3676 46.6313C67.4392 46.4881 67.5825 46.4164 67.7257 46.3448C67.869 46.2732 68.0481 46.2374 68.2272 46.2374C68.5495 46.2374 68.7644 46.309 68.9435 46.4523C69.1226 46.5955 69.1942 46.8104 69.1942 47.097C69.1942 47.2402 69.1584 47.3477 69.0509 47.491C68.9793 47.5984 68.8361 47.7059 68.7286 47.7775C68.9077 47.8491 69.0151 47.9208 69.1226 48.064C69.1942 48.1715 69.2659 48.3506 69.2659 48.4938C69.2659 48.7804 69.1584 48.9953 68.9793 49.1386C68.8002 49.3176 68.5495 49.3893 68.2272 49.3893C67.9406 49.3893 67.6899 49.3176 67.5108 49.1386C67.3317 48.9953 67.2243 48.7804 67.2243 48.5297H67.7257C67.7257 48.6729 67.7615 48.7804 67.869 48.852C67.9764 48.9237 68.0839 48.9953 68.2272 48.9953C68.3704 48.9953 68.5137 48.9595 68.5853 48.852C68.6928 48.7804 68.7286 48.6371 68.7286 48.4938C68.7286 48.3506 68.6928 48.2073 68.5853 48.1357C68.4779 48.064 68.3346 47.9924 68.1555 47.9924H67.869V47.5268H67.9048ZM71.8088 47.9924C71.8088 48.4222 71.7372 48.7804 71.5581 48.9953C71.379 49.2102 71.1283 49.3176 70.806 49.3176C70.4836 49.3176 70.2329 49.2102 70.0538 48.9953C69.8747 48.7804 69.8031 48.458 69.8031 48.0282V47.491C69.8031 47.0612 69.8747 46.7388 70.0538 46.4881C70.2329 46.2732 70.4836 46.1657 70.806 46.1657C71.1283 46.1657 71.379 46.2732 71.5581 46.4881C71.7372 46.703 71.8088 47.0253 71.8088 47.4551V47.9924ZM71.3074 47.4193C71.3074 47.1328 71.2716 46.9179 71.2 46.7746C71.1283 46.6313 70.9851 46.5597 70.8418 46.5597C70.6627 46.5597 70.5553 46.6313 70.4836 46.7388C70.412 46.8821 70.3762 47.0612 70.3762 47.3477V48.0282C70.3762 48.3148 70.412 48.5297 70.4836 48.6729C70.5553 48.8162 70.6985 48.8878 70.8418 48.8878C71.0209 48.8878 71.1283 48.8162 71.2 48.7087C71.2716 48.5655 71.3074 48.3864 71.3074 48.0999V47.4193ZM61.9234 49.2818H59.8819V48.9237L60.8847 47.8133C61.028 47.6342 61.1354 47.5268 61.2071 47.4193C61.2787 47.3119 61.3145 47.2044 61.3145 47.097C61.3145 46.9537 61.2787 46.8462 61.2071 46.7388C61.1354 46.6672 61.028 46.5955 60.8847 46.5955C60.7056 46.5955 60.5982 46.6313 60.4907 46.7388C60.3833 46.8462 60.3475 46.9895 60.3475 47.1686H59.846C59.846 46.9895 59.8819 46.8104 59.9893 46.6672C60.0609 46.5239 60.2042 46.3806 60.3475 46.309C60.4907 46.2374 60.6698 46.2015 60.8847 46.2015C61.1713 46.2015 61.422 46.2732 61.6011 46.4164C61.7801 46.5597 61.8518 46.7746 61.8518 47.0253C61.8518 47.1686 61.816 47.3477 61.7085 47.491C61.6369 47.67 61.4936 47.8491 61.2787 48.064L60.5266 48.852H61.9592L61.9234 49.2818ZM63.8575 47.9924C63.6784 48.1715 63.4994 48.2789 63.2486 48.2789C62.9621 48.2789 62.783 48.1715 62.6039 47.9924C62.4607 47.8133 62.3532 47.5626 62.3532 47.2402C62.3532 47.0253 62.389 46.8463 62.4607 46.703C62.5323 46.5239 62.6398 46.4164 62.8188 46.309C62.9979 46.2015 63.1412 46.1657 63.3561 46.1657C63.6784 46.1657 63.8933 46.2732 64.0724 46.5239C64.2515 46.7746 64.359 47.0612 64.359 47.4551V47.5984C64.359 48.1357 64.2515 48.5655 64.0008 48.852C63.7501 49.1386 63.3919 49.2818 62.8905 49.2818H62.8188V48.852H62.8905C63.177 48.852 63.4277 48.7804 63.571 48.6371C63.7501 48.5297 63.8217 48.3148 63.8575 47.9924ZM63.3561 47.8849C63.4635 47.8849 63.571 47.8491 63.6426 47.8133C63.7501 47.7417 63.8217 47.67 63.8575 47.5626V47.3477C63.8575 47.1328 63.8217 46.9537 63.7143 46.8104C63.6068 46.6672 63.4994 46.5955 63.3561 46.5955C63.2128 46.5955 63.1054 46.6672 62.9979 46.7746C62.9263 46.8821 62.8546 47.0612 62.8546 47.2402C62.8546 47.4193 62.8905 47.5984 62.9979 47.7059C63.1054 47.8133 63.2128 47.8849 63.3561 47.8849ZM54.5093 49.2818H52.4678V48.9237L53.4707 47.8133C53.6139 47.6342 53.7214 47.5268 53.793 47.4193C53.8646 47.3119 53.9005 47.2044 53.9005 47.097C53.9005 46.9537 53.8646 46.8462 53.793 46.7388C53.7214 46.6672 53.6139 46.5955 53.4707 46.5955C53.2916 46.5955 53.1841 46.6313 53.0767 46.7388C52.9692 46.8462 52.9334 46.9895 52.9334 47.1686H52.432C52.432 46.9895 52.4678 46.8104 52.5752 46.6672C52.6469 46.5239 52.7901 46.3806 52.9334 46.309C53.0767 46.2374 53.2558 46.2015 53.4707 46.2015C53.7572 46.2015 54.0079 46.2732 54.187 46.4164C54.3661 46.5597 54.4377 46.7746 54.4377 47.0253C54.4377 47.1686 54.4019 47.3477 54.2944 47.491C54.2228 47.67 54.0795 47.8491 53.8646 48.064L53.1125 48.852H54.5452L54.5093 49.2818ZM56.9091 47.0253C56.9091 47.1686 56.8733 47.3119 56.8016 47.4193C56.73 47.5268 56.6225 47.6342 56.4793 47.7059C56.6225 47.7775 56.7658 47.885 56.8374 48.0282C56.9091 48.1715 56.9807 48.3148 56.9807 48.458C56.9807 48.7446 56.8733 48.9237 56.6942 49.1027C56.5151 49.246 56.2644 49.3535 55.9778 49.3535C55.6913 49.3535 55.4406 49.2818 55.2615 49.1027C55.0824 48.9595 54.975 48.7446 54.975 48.458C54.975 48.2789 55.0108 48.1357 55.1182 48.0282C55.2257 47.885 55.3331 47.7775 55.4764 47.7417C55.3331 47.67 55.2257 47.5984 55.154 47.4551C55.0824 47.3477 55.0466 47.2044 55.0466 47.0612C55.0466 46.8104 55.1182 46.5955 55.2973 46.4523C55.4764 46.309 55.6913 46.2374 55.9778 46.2374C56.2644 46.2374 56.4793 46.309 56.6583 46.4523C56.8374 46.5597 56.9091 46.7746 56.9091 47.0253ZM56.4793 48.4222C56.4793 48.2789 56.4435 48.1357 56.336 48.064C56.2644 47.9566 56.1211 47.9208 55.9778 47.9208C55.8346 47.9208 55.7271 47.9566 55.6197 48.064C55.548 48.1715 55.4764 48.2789 55.4764 48.4222C55.4764 48.5655 55.5122 48.7087 55.6197 48.7804C55.6913 48.852 55.8346 48.9237 55.9778 48.9237C56.1211 48.9237 56.2644 48.8878 56.336 48.7804C56.4076 48.7087 56.4793 48.6013 56.4793 48.4222ZM56.4076 47.0612C56.4076 46.9179 56.3718 46.8104 56.3002 46.7388C56.2285 46.6672 56.1211 46.5955 55.9778 46.5955C55.8346 46.5955 55.7629 46.6313 55.6555 46.703C55.5839 46.7746 55.548 46.8821 55.548 47.0253C55.548 47.1686 55.5839 47.2761 55.6555 47.3477C55.7271 47.4193 55.8346 47.4551 55.9778 47.4551C56.1211 47.4551 56.1927 47.4193 56.3002 47.3477C56.3718 47.3119 56.4076 47.2044 56.4076 47.0612ZM47.0953 42.3333H45.0537V41.9751L46.0566 40.8648C46.1999 40.6857 46.3073 40.5782 46.3789 40.4708C46.4506 40.3633 46.4864 40.2559 46.4864 40.1484C46.4864 40.0052 46.4506 39.8977 46.3789 39.7903C46.3073 39.7186 46.1999 39.647 46.0566 39.647C45.8775 39.647 45.7701 39.6828 45.6626 39.7903C45.5552 39.8977 45.5193 40.041 45.5193 40.2201H45.0179C45.0179 40.041 45.0537 39.8619 45.1612 39.7186C45.2328 39.5753 45.3761 39.4321 45.5193 39.3604C45.6626 39.2888 45.8417 39.253 46.0566 39.253C46.3431 39.253 46.5938 39.3246 46.7729 39.4679C46.952 39.6112 47.0236 39.8261 47.0236 40.0768C47.0236 40.2201 46.9878 40.3991 46.8804 40.5424C46.8087 40.7215 46.6655 40.9006 46.4506 41.1155L45.6984 41.9035H47.1311V42.3333H47.0953ZM48.9577 42.3333H48.4563V39.8977L47.7042 40.1484V39.7186L48.8861 39.2888H48.9577V42.3333ZM61.9234 42.3333H59.8819V41.9751L60.8847 40.8648C61.028 40.6857 61.1354 40.5782 61.2071 40.4708C61.2787 40.3633 61.3145 40.2559 61.3145 40.1484C61.3145 40.0052 61.2787 39.8977 61.2071 39.7903C61.1354 39.7186 61.028 39.647 60.8847 39.647C60.7056 39.647 60.5982 39.6828 60.4907 39.7903C60.3833 39.8977 60.3475 40.041 60.3475 40.2201H59.846C59.846 40.041 59.8819 39.8619 59.9893 39.7186C60.0609 39.5753 60.2042 39.4321 60.3475 39.3604C60.4907 39.2888 60.6698 39.253 60.8847 39.253C61.1713 39.253 61.422 39.3246 61.6011 39.4679C61.7801 39.6112 61.8518 39.8261 61.8518 40.0768C61.8518 40.2201 61.816 40.3991 61.7085 40.5424C61.6369 40.7215 61.4936 40.9006 61.2787 41.1155L60.5266 41.9035H61.9592L61.9234 42.3333ZM64.4664 42.3333H62.4249V41.9751L63.4277 40.8648C63.571 40.6857 63.6784 40.5782 63.7501 40.4708C63.8217 40.3633 63.8575 40.2559 63.8575 40.1484C63.8575 40.0052 63.8217 39.8977 63.7501 39.7903C63.6784 39.7186 63.571 39.647 63.4277 39.647C63.2486 39.647 63.1412 39.6828 63.0337 39.7903C62.9263 39.8977 62.8905 40.041 62.8905 40.2201H62.389C62.389 40.041 62.4249 39.8619 62.5323 39.7186C62.6039 39.5753 62.7472 39.4321 62.8905 39.3604C63.0337 39.2888 63.2128 39.253 63.4277 39.253C63.7143 39.253 63.965 39.3246 64.1441 39.4679C64.3231 39.6112 64.3948 39.8261 64.3948 40.0768C64.3948 40.2201 64.359 40.3991 64.2515 40.5424C64.1799 40.7215 64.0366 40.9006 63.8217 41.1155L63.0696 41.9035H64.5022L64.4664 42.3333ZM76.7874 42.3333H74.7458V41.9751L75.7487 40.8648C75.892 40.6857 75.9994 40.5782 76.071 40.4708C76.1427 40.3633 76.1785 40.2559 76.1785 40.1484C76.1785 40.0052 76.1427 39.8977 76.071 39.7903C75.9994 39.7186 75.892 39.647 75.7487 39.647C75.5696 39.647 75.4622 39.6828 75.3547 39.7903C75.2473 39.8977 75.2114 40.041 75.2114 40.2201H74.71C74.71 40.041 74.7458 39.8619 74.8533 39.7186C74.9249 39.5753 75.0682 39.4321 75.2114 39.3604C75.3547 39.2888 75.5338 39.253 75.7487 39.253C76.0352 39.253 76.2859 39.3246 76.465 39.4679C76.6441 39.6112 76.7157 39.8261 76.7157 40.0768C76.7157 40.2201 76.6799 40.3991 76.5725 40.5424C76.5008 40.7215 76.3576 40.9006 76.1427 41.1155L75.3905 41.9035H76.8232L76.7874 42.3333ZM77.8261 40.5782H78.1484C78.2917 40.5782 78.4349 40.5424 78.5066 40.4708C78.614 40.3991 78.6498 40.2917 78.6498 40.1126C78.6498 39.9693 78.614 39.8619 78.5424 39.7903C78.4708 39.7186 78.3633 39.6828 78.1842 39.6828C78.041 39.6828 77.9335 39.7186 77.8619 39.7903C77.7902 39.8619 77.7186 39.9693 77.7186 40.1126H77.2172C77.2172 39.9693 77.253 39.8261 77.3246 39.6828C77.3963 39.5395 77.5395 39.4679 77.6828 39.3963C77.8261 39.3246 78.0051 39.2888 78.1842 39.2888C78.5066 39.2888 78.7215 39.3604 78.9006 39.5037C79.0796 39.647 79.1513 39.8619 79.1513 40.1484C79.1513 40.2917 79.1155 40.3991 79.008 40.5424C78.9364 40.6499 78.7931 40.7573 78.6857 40.8289C78.8647 40.9006 78.9722 40.9722 79.0796 41.1155C79.1513 41.2229 79.2229 41.402 79.2229 41.5453C79.2229 41.8318 79.1155 42.0467 78.9364 42.19C78.7573 42.3691 78.5066 42.4407 78.1842 42.4407C77.8977 42.4407 77.647 42.3691 77.4679 42.19C77.2888 42.0467 77.1814 41.8318 77.1814 41.5811H77.6828C77.6828 41.7244 77.7186 41.8318 77.8261 41.9035C77.9335 41.9751 78.041 42.0467 78.1842 42.0467C78.3275 42.0467 78.4708 42.0109 78.5424 41.9035C78.6498 41.8318 78.6857 41.6886 78.6857 41.5453C78.6857 41.402 78.6498 41.2588 78.5424 41.1871C78.4349 41.1155 78.2917 41.0439 78.1126 41.0439H77.8261V40.5782ZM76.1068 35.3847H75.6054V32.9492L74.8533 33.1999V32.7701L76.0352 32.3403H76.1068V35.3847ZM79.1513 33.1282C79.1513 33.2715 79.1155 33.4148 79.0438 33.5222C78.9722 33.6297 78.8647 33.7371 78.7215 33.8088C78.8647 33.8804 79.008 33.9879 79.0796 34.0953C79.1513 34.2386 79.2229 34.3818 79.2229 34.5251C79.2229 34.8117 79.1155 34.9907 78.9364 35.1698C78.7573 35.3131 78.5066 35.4205 78.22 35.4205C77.9335 35.4205 77.6828 35.3489 77.5037 35.1698C77.3246 35.0266 77.2172 34.8117 77.2172 34.5251C77.2172 34.346 77.253 34.2028 77.3604 34.0953C77.4679 33.952 77.5753 33.8446 77.7186 33.8088C77.5753 33.7371 77.4679 33.6655 77.3963 33.5222C77.3246 33.4148 77.2888 33.2715 77.2888 33.1282C77.2888 32.8775 77.3604 32.6626 77.5395 32.5193C77.7186 32.3761 77.9335 32.3044 78.22 32.3044C78.5066 32.3044 78.7215 32.3761 78.9006 32.5193C79.0796 32.6626 79.1513 32.8775 79.1513 33.1282ZM78.7215 34.5251C78.7215 34.3818 78.6857 34.2386 78.5782 34.1669C78.5066 34.0595 78.3633 34.0237 78.22 34.0237C78.0768 34.0237 77.9693 34.0595 77.8619 34.1669C77.7902 34.2744 77.7186 34.3818 77.7186 34.5251C77.7186 34.6684 77.7544 34.8117 77.8619 34.8833C77.9335 34.9549 78.0768 35.0266 78.22 35.0266C78.3633 35.0266 78.5066 34.9907 78.5782 34.8833C78.6857 34.8117 78.7215 34.6684 78.7215 34.5251ZM78.6498 33.1641C78.6498 33.0208 78.614 32.9133 78.5424 32.8417C78.4708 32.7701 78.3633 32.6984 78.22 32.6984C78.0768 32.6984 78.0051 32.7343 77.8977 32.8059C77.8261 32.8775 77.7902 32.985 77.7902 33.1282C77.7902 33.2715 77.8261 33.379 77.8977 33.4506C77.9693 33.5222 78.0768 33.558 78.22 33.558C78.3633 33.558 78.4708 33.5222 78.5424 33.4506C78.614 33.4148 78.6498 33.3073 78.6498 33.1641Z" fill="#595959"/>
<path d="M6.55096 30.5486H80.6917V46.9167C80.6917 47.7047 80.6917 48.3136 80.6559 48.7792C80.6201 49.2448 80.5484 49.5671 80.4052 49.8537C80.1544 50.3551 79.7246 50.7849 79.2232 51.0356C78.9367 51.1789 78.6143 51.2505 78.1487 51.2863C77.6831 51.3221 77.0742 51.3222 76.2862 51.3222H10.9564C10.1685 51.3222 9.55957 51.3221 9.09396 51.2863C8.62834 51.2505 8.30599 51.1789 8.01945 51.0356C7.51802 50.7849 7.08822 50.3551 6.8375 49.8537C6.69423 49.5671 6.6226 49.2448 6.58678 48.7792C6.55096 48.3136 6.55096 47.7047 6.55096 46.9167V30.5486Z" stroke="#C8C8C8" stroke-width="0.346642"/>
<path d="M76.9316 60.6355L74.6035 62.9636L73.3499 61.71L73.8872 61.1728L74.6035 61.8891L76.3943 60.0983L76.9316 60.6355Z" fill="#212121"/>
<path d="M73.7077 56.1575H76.573C78.7578 56.1575 80.5128 57.9125 80.5128 60.0973V62.9626C80.5128 65.1474 78.7578 66.9024 76.573 66.9024H73.7077C71.5228 66.9024 69.7678 65.1474 69.7678 62.9626V60.0973C69.7678 57.9125 71.5228 56.1575 73.7077 56.1575Z" stroke="#3891EE" stroke-width="0.693284"/>
<path d="M10.9018 10.393C10.7891 10.2803 10.7891 10.0976 10.9018 9.98493L12.4941 8.39266C12.6346 8.25215 12.6346 8.02435 12.4941 7.88384C12.3536 7.74333 12.1258 7.74333 11.9852 7.88384L10.393 9.47612C10.2803 9.58879 10.0976 9.58879 9.98493 9.47612L8.39266 7.88384C8.25215 7.74333 8.02435 7.74333 7.88384 7.88384C7.74333 8.02435 7.74333 8.25215 7.88384 8.39266L9.47611 9.98493C9.58879 10.0976 9.58879 10.2803 9.47612 10.393L7.88384 11.9852C7.74333 12.1258 7.74333 12.3536 7.88384 12.4941C8.02435 12.6346 8.25215 12.6346 8.39266 12.4941L9.98493 10.9018C10.0976 10.7891 10.2803 10.7891 10.393 10.9018L11.9852 12.4941C12.1258 12.6346 12.3536 12.6346 12.4941 12.4941C12.6346 12.3536 12.6346 12.1258 12.4941 11.9852L10.9018 10.393Z" fill="#F40000" stroke="#F40000" stroke-width="0.19235"/>
<path d="M55.5533 17.3128C55.4406 17.2001 55.4406 17.0174 55.5533 16.9047L57.1456 15.3125C57.2861 15.172 57.2861 14.9441 57.1456 14.8036C57.005 14.6631 56.7772 14.6631 56.6367 14.8036L55.0445 16.3959C54.9318 16.5086 54.7491 16.5086 54.6364 16.3959L53.0441 14.8036C52.9036 14.6631 52.6758 14.6631 52.5353 14.8036C52.3948 14.9441 52.3948 15.172 52.5353 15.3125L54.1276 16.9047C54.2403 17.0174 54.2403 17.2001 54.1276 17.3128L52.5353 18.905C52.3948 19.0456 52.3948 19.2734 52.5353 19.4139C52.6758 19.5544 52.9036 19.5544 53.0441 19.4139L54.6364 17.8216C54.7491 17.7089 54.9318 17.7089 55.0445 17.8216L56.6367 19.4139C56.7772 19.5544 57.005 19.5544 57.1456 19.4139C57.2861 19.2734 57.2861 19.0456 57.1456 18.905L55.5533 17.3128Z" fill="#F40000" stroke="#F40000" stroke-width="0.19235"/>
<path d="M48.1113 24.0782C47.9986 23.9655 47.9986 23.7829 48.1113 23.6702L49.7035 22.0779C49.844 21.9374 49.844 21.7096 49.7035 21.5691C49.563 21.4286 49.3352 21.4286 49.1947 21.5691L47.6024 23.1614C47.4898 23.274 47.3071 23.274 47.1944 23.1614L45.6021 21.5691C45.4616 21.4286 45.2338 21.4286 45.0933 21.5691C44.9528 21.7096 44.9528 21.9374 45.0933 22.0779L46.6856 23.6702C46.7983 23.7829 46.7983 23.9655 46.6856 24.0782L45.0933 25.6705C44.9528 25.811 44.9528 26.0388 45.0933 26.1793C45.2338 26.3198 45.4616 26.3198 45.6021 26.1793L47.1944 24.587C47.3071 24.4744 47.4898 24.4744 47.6024 24.587L49.1947 26.1793C49.3352 26.3198 49.563 26.3198 49.7035 26.1793C49.844 26.0388 49.844 25.811 49.7035 25.6705L48.1113 24.0782Z" fill="#F40000" stroke="#F40000" stroke-width="0.19235"/>
<path d="M25.7856 10.393C25.6729 10.2803 25.6729 10.0976 25.7856 9.98493L27.3779 8.39266C27.5184 8.25215 27.5184 8.02435 27.3779 7.88384C27.2373 7.74333 27.0095 7.74333 26.869 7.88384L25.2768 9.47612C25.1641 9.58879 24.9814 9.58879 24.8687 9.47612L23.2764 7.88384C23.1359 7.74333 22.9081 7.74333 22.7676 7.88384C22.6271 8.02435 22.6271 8.25215 22.7676 8.39266L24.3599 9.98493C24.4726 10.0976 24.4726 10.2803 24.3599 10.393L22.7676 11.9852C22.6271 12.1258 22.6271 12.3536 22.7676 12.4941C22.9081 12.6346 23.1359 12.6346 23.2764 12.4941L24.8687 10.9018C24.9814 10.7891 25.1641 10.7891 25.2768 10.9018L26.869 12.4941C27.0095 12.6346 27.2373 12.6346 27.3779 12.4941C27.5184 12.3536 27.5184 12.1258 27.3779 11.9852L25.7856 10.393Z" fill="#F40000" stroke="#F40000" stroke-width="0.19235"/>
<path d="M25.7856 17.3128C25.6729 17.2001 25.6729 17.0174 25.7856 16.9047L27.3779 15.3125C27.5184 15.172 27.5184 14.9441 27.3779 14.8036C27.2373 14.6631 27.0095 14.6631 26.869 14.8036L25.2768 16.3959C25.1641 16.5086 24.9814 16.5086 24.8687 16.3959L23.2764 14.8036C23.1359 14.6631 22.9081 14.6631 22.7676 14.8036C22.6271 14.9441 22.6271 15.172 22.7676 15.3125L24.3599 16.9047C24.4726 17.0174 24.4726 17.2001 24.3599 17.3128L22.7676 18.905C22.6271 19.0456 22.6271 19.2734 22.7676 19.4139C22.9081 19.5544 23.1359 19.5544 23.2764 19.4139L24.8687 17.8216C24.9814 17.7089 25.1641 17.7089 25.2768 17.8216L26.869 19.4139C27.0095 19.5544 27.2373 19.5544 27.3779 19.4139C27.5184 19.2734 27.5184 19.0456 27.3779 18.905L25.7856 17.3128Z" fill="#F40000" stroke="#F40000" stroke-width="0.19235"/>
<path d="M18.3437 24.0782C18.2311 23.9655 18.2311 23.7829 18.3437 23.6702L19.936 22.0779C20.0765 21.9374 20.0765 21.7096 19.936 21.5691C19.7955 21.4286 19.5677 21.4286 19.4272 21.5691L17.8349 23.1614C17.7222 23.274 17.5396 23.274 17.4269 23.1614L15.8346 21.5691C15.6941 21.4286 15.4663 21.4286 15.3258 21.5691C15.1853 21.7096 15.1853 21.9374 15.3258 22.0779L16.9181 23.6702C17.0307 23.7829 17.0307 23.9655 16.9181 24.0782L15.3258 25.6705C15.1853 25.811 15.1853 26.0388 15.3258 26.1793C15.4663 26.3198 15.6941 26.3198 15.8346 26.1793L17.4269 24.587C17.5396 24.4744 17.7222 24.4744 17.8349 24.587L19.4272 26.1793C19.5677 26.3198 19.7955 26.3198 19.936 26.1793C20.0765 26.0388 20.0765 25.811 19.936 25.6705L18.3437 24.0782Z" fill="#F40000" stroke="#F40000" stroke-width="0.19235"/>
<path d="M48.1113 10.393C47.9986 10.2803 47.9986 10.0976 48.1113 9.98493L49.7035 8.39266C49.844 8.25215 49.844 8.02435 49.7035 7.88384C49.563 7.74333 49.3352 7.74333 49.1947 7.88384L47.6024 9.47612C47.4898 9.58879 47.3071 9.58879 47.1944 9.47612L45.6021 7.88384C45.4616 7.74333 45.2338 7.74333 45.0933 7.88384C44.9528 8.02435 44.9528 8.25215 45.0933 8.39266L46.6856 9.98493C46.7983 10.0976 46.7983 10.2803 46.6856 10.393L45.0933 11.9852C44.9528 12.1258 44.9528 12.3536 45.0933 12.4941C45.2338 12.6346 45.4616 12.6346 45.6021 12.4941L47.1944 10.9018C47.3071 10.7891 47.4898 10.7891 47.6024 10.9018L49.1947 12.4941C49.3352 12.6346 49.563 12.6346 49.7035 12.4941C49.844 12.3536 49.844 12.1258 49.7035 11.9852L48.1113 10.393Z" fill="#F40000" stroke="#F40000" stroke-width="0.19235"/>
<path d="M48.1113 17.3128C47.9986 17.2001 47.9986 17.0174 48.1113 16.9047L49.7035 15.3125C49.844 15.172 49.844 14.9441 49.7035 14.8036C49.563 14.6631 49.3352 14.6631 49.1947 14.8036L47.6024 16.3959C47.4898 16.5086 47.3071 16.5086 47.1944 16.3959L45.6021 14.8036C45.4616 14.6631 45.2338 14.6631 45.0933 14.8036C44.9528 14.9441 44.9528 15.172 45.0933 15.3125L46.6856 16.9047C46.7983 17.0174 46.7983 17.2001 46.6856 17.3128L45.0933 18.905C44.9528 19.0456 44.9528 19.2734 45.0933 19.4139C45.2338 19.5544 45.4616 19.5544 45.6021 19.4139L47.1944 17.8216C47.3071 17.7089 47.4898 17.7089 47.6024 17.8216L49.1947 19.4139C49.3352 19.5544 49.563 19.5544 49.7035 19.4139C49.844 19.2734 49.844 19.0456 49.7035 18.905L48.1113 17.3128Z" fill="#F40000" stroke="#F40000" stroke-width="0.19235"/>
<path d="M40.6695 24.0782C40.5569 23.9655 40.5569 23.7829 40.6695 23.6702L42.2618 22.0779C42.4023 21.9374 42.4023 21.7096 42.2618 21.5691C42.1213 21.4286 41.8935 21.4286 41.753 21.5691L40.1607 23.1614C40.0481 23.274 39.8654 23.274 39.7527 23.1614L38.1604 21.5691C38.0199 21.4286 37.7921 21.4286 37.6516 21.5691C37.5111 21.7096 37.5111 21.9374 37.6516 22.0779L39.2439 23.6702C39.3566 23.7829 39.3566 23.9655 39.2439 24.0782L37.6516 25.6705C37.5111 25.811 37.5111 26.0388 37.6516 26.1793C37.7921 26.3198 38.0199 26.3198 38.1604 26.1793L39.7527 24.587C39.8654 24.4744 40.0481 24.4744 40.1607 24.587L41.753 26.1793C41.8935 26.3198 42.1213 26.3198 42.2618 26.1793C42.4023 26.0388 42.4023 25.811 42.2618 25.6705L40.6695 24.0782Z" fill="#F40000" stroke="#F40000" stroke-width="0.19235"/>
<path d="M77.8791 10.393C77.7664 10.2803 77.7664 10.0976 77.8791 9.98493L79.4714 8.39266C79.6119 8.25215 79.6119 8.02435 79.4714 7.88384C79.3309 7.74333 79.103 7.74333 78.9625 7.88384L77.3703 9.47612C77.2576 9.58879 77.0749 9.58879 76.9622 9.47612L75.37 7.88384C75.2294 7.74333 75.0016 7.74333 74.8611 7.88384C74.7206 8.02435 74.7206 8.25215 74.8611 8.39266L76.4534 9.98493C76.5661 10.0976 76.5661 10.2803 76.4534 10.393L74.8611 11.9852C74.7206 12.1258 74.7206 12.3536 74.8611 12.4941C75.0016 12.6346 75.2294 12.6346 75.37 12.4941L76.9622 10.9018C77.0749 10.7891 77.2576 10.7891 77.3703 10.9018L78.9625 12.4941C79.103 12.6346 79.3309 12.6346 79.4714 12.4941C79.6119 12.3536 79.6119 12.1258 79.4714 11.9852L77.8791 10.393Z" fill="#F40000" stroke="#F40000" stroke-width="0.19235"/>
<path d="M77.8791 17.3128C77.7664 17.2001 77.7664 17.0174 77.8791 16.9047L79.4714 15.3125C79.6119 15.172 79.6119 14.9441 79.4714 14.8036C79.3309 14.6631 79.103 14.6631 78.9625 14.8036L77.3703 16.3959C77.2576 16.5086 77.0749 16.5086 76.9622 16.3959L75.37 14.8036C75.2294 14.6631 75.0016 14.6631 74.8611 14.8036C74.7206 14.9441 74.7206 15.172 74.8611 15.3125L76.4534 16.9047C76.5661 17.0174 76.5661 17.2001 76.4534 17.3128L74.8611 18.905C74.7206 19.0456 74.7206 19.2734 74.8611 19.4139C75.0016 19.5544 75.2294 19.5544 75.37 19.4139L76.9622 17.8216C77.0749 17.7089 77.2576 17.7089 77.3703 17.8216L78.9625 19.4139C79.103 19.5544 79.3309 19.5544 79.4714 19.4139C79.6119 19.2734 79.6119 19.0456 79.4714 18.905L77.8791 17.3128Z" fill="#F40000" stroke="#F40000" stroke-width="0.19235"/>
<path d="M70.4372 24.0782C70.3246 23.9655 70.3246 23.7829 70.4372 23.6702L72.0295 22.0779C72.17 21.9374 72.17 21.7096 72.0295 21.5691C71.889 21.4286 71.6612 21.4286 71.5207 21.5691L69.9284 23.1614C69.8158 23.274 69.6331 23.274 69.5204 23.1614L67.9281 21.5691C67.7876 21.4286 67.5598 21.4286 67.4193 21.5691C67.2788 21.7096 67.2788 21.9374 67.4193 22.0779L69.0116 23.6702C69.1243 23.7829 69.1243 23.9655 69.0116 24.0782L67.4193 25.6705C67.2788 25.811 67.2788 26.0388 67.4193 26.1793C67.5598 26.3198 67.7876 26.3198 67.9281 26.1793L69.5204 24.587C69.6331 24.4744 69.8158 24.4744 69.9284 24.587L71.5207 26.1793C71.6612 26.3198 71.889 26.3198 72.0295 26.1793C72.17 26.0388 72.17 25.811 72.0295 25.6705L70.4372 24.0782Z" fill="#F40000" stroke="#F40000" stroke-width="0.19235"/>
<path d="M40.6695 10.393C40.5569 10.2803 40.5569 10.0976 40.6695 9.98493L42.2618 8.39266C42.4023 8.25215 42.4023 8.02435 42.2618 7.88384C42.1213 7.74333 41.8935 7.74333 41.753 7.88384L40.1607 9.47612C40.0481 9.58879 39.8654 9.58879 39.7527 9.47612L38.1604 7.88384C38.0199 7.74333 37.7921 7.74333 37.6516 7.88384C37.5111 8.02435 37.5111 8.25215 37.6516 8.39266L39.2439 9.98493C39.3566 10.0976 39.3566 10.2803 39.2439 10.393L37.6516 11.9852C37.5111 12.1258 37.5111 12.3536 37.6516 12.4941C37.7921 12.6346 38.0199 12.6346 38.1604 12.4941L39.7527 10.9018C39.8654 10.7891 40.0481 10.7891 40.1607 10.9018L41.753 12.4941C41.8935 12.6346 42.1213 12.6346 42.2618 12.4941C42.4023 12.3536 42.4023 12.1258 42.2618 11.9852L40.6695 10.393Z" fill="#F40000" stroke="#F40000" stroke-width="0.19235"/>
<path d="M40.6695 17.3128C40.5569 17.2001 40.5569 17.0174 40.6695 16.9047L42.2618 15.3125C42.4023 15.172 42.4023 14.9441 42.2618 14.8036C42.1213 14.6631 41.8935 14.6631 41.753 14.8036L40.1607 16.3959C40.0481 16.5086 39.8654 16.5086 39.7527 16.3959L38.1604 14.8036C38.0199 14.6631 37.7921 14.6631 37.6516 14.8036C37.5111 14.9441 37.5111 15.172 37.6516 15.3125L39.2439 16.9047C39.3566 17.0174 39.3566 17.2001 39.2439 17.3128L37.6516 18.905C37.5111 19.0456 37.5111 19.2734 37.6516 19.4139C37.7921 19.5544 38.0199 19.5544 38.1604 19.4139L39.7527 17.8216C39.8654 17.7089 40.0481 17.7089 40.1607 17.8216L41.753 19.4139C41.8935 19.5544 42.1213 19.5544 42.2618 19.4139C42.4023 19.2734 42.4023 19.0456 42.2618 18.905L40.6695 17.3128Z" fill="#F40000" stroke="#F40000" stroke-width="0.19235"/>
<path d="M77.8791 24.0782C77.7664 23.9655 77.7664 23.7829 77.8791 23.6702L79.4714 22.0779C79.6119 21.9374 79.6119 21.7096 79.4714 21.5691C79.3309 21.4286 79.103 21.4286 78.9625 21.5691L77.3703 23.1614C77.2576 23.274 77.0749 23.274 76.9622 23.1614L75.37 21.5691C75.2294 21.4286 75.0016 21.4286 74.8611 21.5691C74.7206 21.7096 74.7206 21.9374 74.8611 22.0779L76.4534 23.6702C76.5661 23.7829 76.5661 23.9655 76.4534 24.0782L74.8611 25.6705C74.7206 25.811 74.7206 26.0388 74.8611 26.1793C75.0016 26.3198 75.2294 26.3198 75.37 26.1793L76.9622 24.587C77.0749 24.4744 77.2576 24.4744 77.3703 24.587L78.9625 26.1793C79.103 26.3198 79.3309 26.3198 79.4714 26.1793C79.6119 26.0388 79.6119 25.811 79.4714 25.6705L77.8791 24.0782Z" fill="#F40000" stroke="#F40000" stroke-width="0.19235"/>
<path d="M10.9018 34.0719C10.7891 33.9592 10.7891 33.7765 10.9018 33.6638L12.4941 32.0716C12.6346 31.931 12.6346 31.7032 12.4941 31.5627C12.3536 31.4222 12.1258 31.4222 11.9852 31.5627L10.393 33.155C10.2803 33.2677 10.0976 33.2677 9.98493 33.155L8.39266 31.5627C8.25215 31.4222 8.02435 31.4222 7.88384 31.5627C7.74333 31.7032 7.74333 31.931 7.88384 32.0716L9.47611 33.6638C9.58879 33.7765 9.58879 33.9592 9.47612 34.0719L7.88384 35.6641C7.74333 35.8046 7.74333 36.0325 7.88384 36.173C8.02435 36.3135 8.25215 36.3135 8.39266 36.173L9.98493 34.5807C10.0976 34.468 10.2803 34.468 10.393 34.5807L11.9852 36.173C12.1258 36.3135 12.3536 36.3135 12.4941 36.173C12.6346 36.0325 12.6346 35.8046 12.4941 35.6641L10.9018 34.0719Z" fill="#F40000" stroke="#F40000" stroke-width="0.19235"/>
<path d="M62.9952 40.9917C62.8826 40.879 62.8826 40.6963 62.9952 40.5836L64.5875 38.9914C64.728 38.8508 64.728 38.623 64.5875 38.4825C64.447 38.342 64.2192 38.342 64.0787 38.4825L62.4864 40.0748C62.3737 40.1875 62.1911 40.1875 62.0784 40.0748L60.4861 38.4825C60.3456 38.342 60.1178 38.342 59.9773 38.4825C59.8368 38.623 59.8368 38.8508 59.9773 38.9914L61.5696 40.5836C61.6822 40.6963 61.6822 40.879 61.5696 40.9917L59.9773 42.5839C59.8368 42.7244 59.8368 42.9523 59.9773 43.0928C60.1178 43.2333 60.3456 43.2333 60.4861 43.0928L62.0784 41.5005C62.1911 41.3878 62.3737 41.3878 62.4864 41.5005L64.0787 43.0928C64.2192 43.2333 64.447 43.2333 64.5875 43.0928C64.728 42.9523 64.728 42.7244 64.5875 42.5839L62.9952 40.9917Z" fill="#F40000" stroke="#F40000" stroke-width="0.19235"/>
<path d="M48.1113 47.757C47.9986 47.6443 47.9986 47.4616 48.1113 47.3489L49.7035 45.7567C49.844 45.6162 49.844 45.3884 49.7035 45.2479C49.563 45.1073 49.3352 45.1073 49.1947 45.2479L47.6024 46.8401C47.4898 46.9528 47.3071 46.9528 47.1944 46.8401L45.6021 45.2479C45.4616 45.1073 45.2338 45.1073 45.0933 45.2479C44.9528 45.3884 44.9528 45.6162 45.0933 45.7567L46.6856 47.3489C46.7983 47.4616 46.7983 47.6443 46.6856 47.757L45.0933 49.3493C44.9528 49.4898 44.9528 49.7176 45.0933 49.8581C45.2338 49.9986 45.4616 49.9986 45.6021 49.8581L47.1944 48.2658C47.3071 48.1531 47.4898 48.1531 47.6024 48.2658L49.1947 49.8581C49.3352 49.9986 49.563 49.9986 49.7035 49.8581C49.844 49.7176 49.844 49.4898 49.7035 49.3493L48.1113 47.757Z" fill="#F40000" stroke="#F40000" stroke-width="0.19235"/>
<path d="M25.7856 34.0719C25.6729 33.9592 25.6729 33.7765 25.7856 33.6638L27.3779 32.0716C27.5184 31.931 27.5184 31.7032 27.3779 31.5627C27.2373 31.4222 27.0095 31.4222 26.869 31.5627L25.2768 33.155C25.1641 33.2677 24.9814 33.2677 24.8687 33.155L23.2764 31.5627C23.1359 31.4222 22.9081 31.4222 22.7676 31.5627C22.6271 31.7032 22.6271 31.931 22.7676 32.0716L24.3599 33.6638C24.4726 33.7765 24.4726 33.9592 24.3599 34.0719L22.7676 35.6641C22.6271 35.8046 22.6271 36.0325 22.7676 36.173C22.9081 36.3135 23.1359 36.3135 23.2764 36.173L24.8687 34.5807C24.9814 34.468 25.1641 34.468 25.2768 34.5807L26.869 36.173C27.0095 36.3135 27.2373 36.3135 27.3779 36.173C27.5184 36.0325 27.5184 35.8046 27.3779 35.6641L25.7856 34.0719Z" fill="#F40000" stroke="#F40000" stroke-width="0.19235"/>
<path d="M33.2275 40.9917C33.1149 40.879 33.1149 40.6963 33.2275 40.5836L34.8198 38.9914C34.9603 38.8508 34.9603 38.623 34.8198 38.4825C34.6793 38.342 34.4515 38.342 34.311 38.4825L32.7187 40.0748C32.606 40.1875 32.4234 40.1875 32.3107 40.0748L30.7184 38.4825C30.5779 38.342 30.3501 38.342 30.2096 38.4825C30.0691 38.623 30.0691 38.8508 30.2096 38.9914L31.8019 40.5836C31.9145 40.6963 31.9145 40.879 31.8019 40.9917L30.2096 42.5839C30.0691 42.7244 30.0691 42.9523 30.2096 43.0928C30.3501 43.2333 30.5779 43.2333 30.7184 43.0928L32.3107 41.5005C32.4234 41.3878 32.606 41.3878 32.7187 41.5005L34.311 43.0928C34.4515 43.2333 34.6793 43.2333 34.8198 43.0928C34.9603 42.9523 34.9603 42.7244 34.8198 42.5839L33.2275 40.9917Z" fill="#F40000" stroke="#F40000" stroke-width="0.19235"/>
<path d="M10.9018 40.9917C10.7891 40.879 10.7891 40.6963 10.9018 40.5836L12.4941 38.9914C12.6346 38.8508 12.6346 38.623 12.4941 38.4825C12.3536 38.342 12.1258 38.342 11.9852 38.4825L10.393 40.0748C10.2803 40.1875 10.0976 40.1875 9.98493 40.0748L8.39266 38.4825C8.25215 38.342 8.02435 38.342 7.88384 38.4825C7.74333 38.623 7.74333 38.8508 7.88384 38.9914L9.47611 40.5836C9.58879 40.6963 9.58879 40.879 9.47612 40.9917L7.88384 42.5839C7.74333 42.7244 7.74333 42.9523 7.88384 43.0928C8.02435 43.2333 8.25215 43.2333 8.39266 43.0928L9.98493 41.5005C10.0976 41.3878 10.2803 41.3878 10.393 41.5005L11.9852 43.0928C12.1258 43.2333 12.3536 43.2333 12.4941 43.0928C12.6346 42.9523 12.6346 42.7244 12.4941 42.5839L10.9018 40.9917Z" fill="#F40000" stroke="#F40000" stroke-width="0.19235"/>
<path d="M10.9018 47.6026C10.7891 47.4899 10.7891 47.3072 10.9018 47.1945L12.4941 45.6023C12.6346 45.4617 12.6346 45.2339 12.4941 45.0934C12.3536 44.9529 12.1258 44.9529 11.9852 45.0934L10.393 46.6857C10.2803 46.7984 10.0976 46.7984 9.98493 46.6857L8.39266 45.0934C8.25215 44.9529 8.02435 44.9529 7.88384 45.0934C7.74333 45.2339 7.74333 45.4617 7.88384 45.6023L9.47611 47.1945C9.58879 47.3072 9.58879 47.4899 9.47612 47.6026L7.88384 49.1948C7.74333 49.3353 7.74333 49.5632 7.88384 49.7037C8.02435 49.8442 8.25215 49.8442 8.39266 49.7037L9.98493 48.1114C10.0976 47.9987 10.2803 47.9987 10.393 48.1114L11.9852 49.7037C12.1258 49.8442 12.3536 49.8442 12.4941 49.7037C12.6346 49.5632 12.6346 49.3353 12.4941 49.1948L10.9018 47.6026Z" fill="#F40000" stroke="#F40000" stroke-width="0.19235"/>
<path d="M18.3437 47.757C18.2311 47.6443 18.2311 47.4616 18.3437 47.3489L19.936 45.7567C20.0765 45.6162 20.0765 45.3884 19.936 45.2479C19.7955 45.1073 19.5677 45.1073 19.4272 45.2479L17.8349 46.8401C17.7222 46.9528 17.5396 46.9528 17.4269 46.8401L15.8346 45.2479C15.6941 45.1073 15.4663 45.1073 15.3258 45.2479C15.1853 45.3884 15.1853 45.6162 15.3258 45.7567L16.9181 47.3489C17.0307 47.4616 17.0307 47.6443 16.9181 47.757L15.3258 49.3493C15.1853 49.4898 15.1853 49.7176 15.3258 49.8581C15.4663 49.9986 15.6941 49.9986 15.8346 49.8581L17.4269 48.2658C17.5396 48.1531 17.7222 48.1531 17.8349 48.2658L19.4272 49.8581C19.5677 49.9986 19.7955 49.9986 19.936 49.8581C20.0765 49.7176 20.0765 49.4898 19.936 49.3493L18.3437 47.757Z" fill="#F40000" stroke="#F40000" stroke-width="0.19235"/>
<path d="M48.1113 40.9917C47.9986 40.879 47.9986 40.6963 48.1113 40.5836L49.7035 38.9914C49.844 38.8508 49.844 38.623 49.7035 38.4825C49.563 38.342 49.3352 38.342 49.1947 38.4825L47.6024 40.0748C47.4898 40.1875 47.3071 40.1875 47.1944 40.0748L45.6021 38.4825C45.4616 38.342 45.2338 38.342 45.0933 38.4825C44.9528 38.623 44.9528 38.8508 45.0933 38.9914L46.6856 40.5836C46.7983 40.6963 46.7983 40.879 46.6856 40.9917L45.0933 42.5839C44.9528 42.7244 44.9528 42.9523 45.0933 43.0928C45.2338 43.2333 45.4616 43.2333 45.6021 43.0928L47.1944 41.5005C47.3071 41.3878 47.4898 41.3878 47.6024 41.5005L49.1947 43.0928C49.3352 43.2333 49.563 43.2333 49.7035 43.0928C49.844 42.9523 49.844 42.7244 49.7035 42.5839L48.1113 40.9917Z" fill="#F40000" stroke="#F40000" stroke-width="0.19235"/>
<path d="M40.6695 47.757C40.5569 47.6443 40.5569 47.4616 40.6695 47.3489L42.2618 45.7567C42.4023 45.6162 42.4023 45.3884 42.2618 45.2479C42.1213 45.1073 41.8935 45.1073 41.753 45.2479L40.1607 46.8401C40.0481 46.9528 39.8654 46.9528 39.7527 46.8401L38.1604 45.2479C38.0199 45.1073 37.7921 45.1073 37.6516 45.2479C37.5111 45.3884 37.5111 45.6162 37.6516 45.7567L39.2439 47.3489C39.3566 47.4616 39.3566 47.6443 39.2439 47.757L37.6516 49.3493C37.5111 49.4898 37.5111 49.7176 37.6516 49.8581C37.7921 49.9986 38.0199 49.9986 38.1604 49.8581L39.7527 48.2658C39.8654 48.1531 40.0481 48.1531 40.1607 48.2658L41.753 49.8581C41.8935 49.9986 42.1213 49.9986 42.2618 49.8581C42.4023 49.7176 42.4023 49.4898 42.2618 49.3493L40.6695 47.757Z" fill="#F40000" stroke="#F40000" stroke-width="0.19235"/>
<path d="M77.8791 34.0719C77.7664 33.9592 77.7664 33.7765 77.8791 33.6638L79.4714 32.0716C79.6119 31.931 79.6119 31.7032 79.4714 31.5627C79.3309 31.4222 79.103 31.4222 78.9625 31.5627L77.3703 33.155C77.2576 33.2677 77.0749 33.2677 76.9622 33.155L75.37 31.5627C75.2294 31.4222 75.0016 31.4222 74.8611 31.5627C74.7206 31.7032 74.7206 31.931 74.8611 32.0716L76.4534 33.6638C76.5661 33.7765 76.5661 33.9592 76.4534 34.0719L74.8611 35.6641C74.7206 35.8046 74.7206 36.0325 74.8611 36.173C75.0016 36.3135 75.2294 36.3135 75.37 36.173L76.9622 34.5807C77.0749 34.468 77.2576 34.468 77.3703 34.5807L78.9625 36.173C79.103 36.3135 79.3309 36.3135 79.4714 36.173C79.6119 36.0325 79.6119 35.8046 79.4714 35.6641L77.8791 34.0719Z" fill="#F40000" stroke="#F40000" stroke-width="0.19235"/>
<path d="M77.8791 40.9917C77.7664 40.879 77.7664 40.6963 77.8791 40.5836L79.4714 38.9914C79.6119 38.8508 79.6119 38.623 79.4714 38.4825C79.3309 38.342 79.103 38.342 78.9625 38.4825L77.3703 40.0748C77.2576 40.1875 77.0749 40.1875 76.9622 40.0748L75.37 38.4825C75.2294 38.342 75.0016 38.342 74.8611 38.4825C74.7206 38.623 74.7206 38.8508 74.8611 38.9914L76.4534 40.5836C76.5661 40.6963 76.5661 40.879 76.4534 40.9917L74.8611 42.5839C74.7206 42.7244 74.7206 42.9523 74.8611 43.0928C75.0016 43.2333 75.2294 43.2333 75.37 43.0928L76.9622 41.5005C77.0749 41.3878 77.2576 41.3878 77.3703 41.5005L78.9625 43.0928C79.103 43.2333 79.3309 43.2333 79.4714 43.0928C79.6119 42.9523 79.6119 42.7244 79.4714 42.5839L77.8791 40.9917Z" fill="#F40000" stroke="#F40000" stroke-width="0.19235"/>
<path d="M70.4372 47.757C70.3246 47.6443 70.3246 47.4616 70.4372 47.3489L72.0295 45.7567C72.17 45.6162 72.17 45.3884 72.0295 45.2479C71.889 45.1073 71.6612 45.1073 71.5207 45.2479L69.9284 46.8401C69.8158 46.9528 69.6331 46.9528 69.5204 46.8401L67.9281 45.2479C67.7876 45.1073 67.5598 45.1073 67.4193 45.2479C67.2788 45.3884 67.2788 45.6162 67.4193 45.7567L69.0116 47.3489C69.1243 47.4616 69.1243 47.6443 69.0116 47.757L67.4193 49.3493C67.2788 49.4898 67.2788 49.7176 67.4193 49.8581C67.5598 49.9986 67.7876 49.9986 67.9281 49.8581L69.5204 48.2658C69.6331 48.1531 69.8158 48.1531 69.9284 48.2658L71.5207 49.8581C71.6612 49.9986 71.889 49.9986 72.0295 49.8581C72.17 49.7176 72.17 49.4898 72.0295 49.3493L70.4372 47.757Z" fill="#F40000" stroke="#F40000" stroke-width="0.19235"/>
<path d="M40.6695 34.0719C40.5569 33.9592 40.5569 33.7765 40.6695 33.6638L42.2618 32.0716C42.4023 31.931 42.4023 31.7032 42.2618 31.5627C42.1213 31.4222 41.8935 31.4222 41.753 31.5627L40.1607 33.155C40.0481 33.2677 39.8654 33.2677 39.7527 33.155L38.1604 31.5627C38.0199 31.4222 37.7921 31.4222 37.6516 31.5627C37.5111 31.7032 37.5111 31.931 37.6516 32.0716L39.2439 33.6638C39.3566 33.7765 39.3566 33.9592 39.2439 34.0719L37.6516 35.6641C37.5111 35.8046 37.5111 36.0325 37.6516 36.173C37.7921 36.3135 38.0199 36.3135 38.1604 36.173L39.7527 34.5807C39.8654 34.468 40.0481 34.468 40.1607 34.5807L41.753 36.173C41.8935 36.3135 42.1213 36.3135 42.2618 36.173C42.4023 36.0325 42.4023 35.8046 42.2618 35.6641L40.6695 34.0719Z" fill="#F40000" stroke="#F40000" stroke-width="0.19235"/>
<path d="M55.5533 47.6026C55.4406 47.4899 55.4406 47.3072 55.5533 47.1945L57.1456 45.6023C57.2861 45.4617 57.2861 45.2339 57.1456 45.0934C57.005 44.9529 56.7772 44.9529 56.6367 45.0934L55.0445 46.6857C54.9318 46.7984 54.7491 46.7984 54.6364 46.6857L53.0441 45.0934C52.9036 44.9529 52.6758 44.9529 52.5353 45.0934C52.3948 45.2339 52.3948 45.4617 52.5353 45.6023L54.1276 47.1945C54.2403 47.3072 54.2403 47.4899 54.1276 47.6026L52.5353 49.1948C52.3948 49.3353 52.3948 49.5632 52.5353 49.7037C52.6758 49.8442 52.9036 49.8442 53.0441 49.7037L54.6364 48.1114C54.7491 47.9987 54.9318 47.9987 55.0445 48.1114L56.6367 49.7037C56.7772 49.8442 57.005 49.8442 57.1456 49.7037C57.2861 49.5632 57.2861 49.3353 57.1456 49.1948L55.5533 47.6026Z" fill="#F40000" stroke="#F40000" stroke-width="0.19235"/>
<path d="M62.9952 47.757C62.8826 47.6443 62.8826 47.4616 62.9952 47.3489L64.5875 45.7567C64.728 45.6162 64.728 45.3884 64.5875 45.2479C64.447 45.1073 64.2192 45.1073 64.0787 45.2479L62.4864 46.8401C62.3737 46.9528 62.1911 46.9528 62.0784 46.8401L60.4861 45.2479C60.3456 45.1073 60.1178 45.1073 59.9773 45.2479C59.8368 45.3884 59.8368 45.6162 59.9773 45.7567L61.5696 47.3489C61.6822 47.4616 61.6822 47.6443 61.5696 47.757L59.9773 49.3493C59.8368 49.4898 59.8368 49.7176 59.9773 49.8581C60.1178 49.9986 60.3456 49.9986 60.4861 49.8581L62.0784 48.2658C62.1911 48.1531 62.3737 48.1531 62.4864 48.2658L64.0787 49.8581C64.2192 49.9986 64.447 49.9986 64.5875 49.8581C64.728 49.7176 64.728 49.4898 64.5875 49.3493L62.9952 47.757Z" fill="#F40000" stroke="#F40000" stroke-width="0.19235"/>
</svg>
