<svg width="35" height="21" viewBox="0 0 35 21" fill="none" xmlns="http://www.w3.org/2000/svg">
<path d="M22.1044 2.2373H12.6945V18.6885H22.1044V2.2373Z" fill="#FF5F00"/>
<path d="M13.2919 10.4648C13.2901 8.88022 13.659 7.316 14.3707 5.89062C15.0823 4.46524 16.118 3.21607 17.3994 2.2377C15.8129 1.02477 13.9076 0.270513 11.9013 0.0611472C9.89495 -0.148219 7.86856 0.19575 6.0537 1.05374C4.23883 1.91173 2.7087 3.24913 1.6382 4.91308C0.567693 6.57703 0 8.50041 0 10.4634C0 12.4264 0.567693 14.3497 1.6382 16.0137C2.7087 17.6776 4.23883 19.015 6.0537 19.873C7.86856 20.731 9.89495 21.075 11.9013 20.8656C13.9076 20.6562 15.8129 19.902 17.3994 18.6891C16.1184 17.711 15.083 16.4623 14.3713 15.0374C13.6597 13.6126 13.2906 12.049 13.2919 10.4648Z" fill="#EB001B"/>
<path d="M34.8004 10.4643C34.8003 12.4274 34.2325 14.3509 33.1618 16.0148C32.0911 17.6788 30.5607 19.0162 28.7456 19.874C26.9306 20.7319 24.904 21.0756 22.8975 20.8659C20.8911 20.6563 18.9858 19.9017 17.3994 18.6884C18.6799 17.7095 19.715 16.4605 20.4268 15.0356C21.1387 13.6107 21.5085 12.0471 21.5085 10.4629C21.5085 8.87866 21.1387 7.31511 20.4268 5.89022C19.715 4.46533 18.6799 3.21631 17.3994 2.2374C18.9858 1.02411 20.8911 0.269506 22.8975 0.0598442C24.904 -0.149818 26.9306 0.193922 28.7456 1.05177C30.5607 1.90962 32.0911 3.24697 33.1618 4.91094C34.2325 6.57491 34.8003 8.49836 34.8004 10.4614V10.4643Z" fill="#F79E1B"/>
<path d="M33.7727 16.9448V16.6074H33.9131V16.5376H33.5576V16.6074H33.71V16.9448H33.7727ZM34.4628 16.9448V16.5376H34.3552L34.2298 16.8285L34.1043 16.5376H34.0087V16.9448H34.0864V16.6394L34.2029 16.9041H34.2835L34.4 16.6394V16.9478L34.4628 16.9448Z" fill="#F79E1B"/>
</svg>
