<svg  viewBox="0 0 83 56" fill="none" xmlns="http://www.w3.org/2000/svg">
<path d="M27.1346 37.5218H32.2318M63.6323 27.0508V11.5912C63.6323 10.1303 62.1902 8.85205 60.542 8.85205H25.5184C23.8702 8.85205 22.4281 10.1303 22.4281 11.5912V28.3485M55.5336 37.5218H50.4363" stroke="#FFCA42" stroke-width="2" stroke-miterlimit="10" stroke-linecap="round" stroke-linejoin="round"/>
<path d="M35.1446 32.7739H29.8451C28.609 32.7739 27.7849 32.0435 27.7849 30.9478V15.6088C27.7849 14.5131 28.609 13.7827 29.8451 13.7827H49.0051C50.2412 13.7827 51.0653 14.5131 51.0653 15.6088V30.9478C51.0653 31.8609 50.2412 32.7739 49.0051 32.7739H47.5236" stroke="#FFCA42" stroke-width="2" stroke-miterlimit="10" stroke-linecap="round" stroke-linejoin="round"/>
<path d="M49.2105 8.85229H34.789C34.789 7.02627 38.0853 5.74805 41.9998 5.74805C45.9142 5.74805 49.2105 7.20887 49.2105 8.85229Z" stroke="#FFCA42" stroke-width="2" stroke-miterlimit="10" stroke-linecap="round" stroke-linejoin="round"/>
<path d="M56.4213 1L45.7081 5.74783" stroke="#FFCA42" stroke-width="2" stroke-miterlimit="10" stroke-linecap="round" stroke-linejoin="round"/>
<path d="M27.7849 1L38.498 5.74783" stroke="#FFCA42" stroke-width="2" stroke-miterlimit="10" stroke-linecap="round" stroke-linejoin="round"/>
<path d="M57.4514 18.1653C58.9306 18.1653 60.1297 17.1025 60.1297 15.7914C60.1297 14.4803 58.9306 13.4175 57.4514 13.4175C55.9723 13.4175 54.7732 14.4803 54.7732 15.7914C54.7732 17.1025 55.9723 18.1653 57.4514 18.1653Z" stroke="#FFCA42" stroke-width="2" stroke-miterlimit="10" stroke-linecap="round" stroke-linejoin="round"/>
<path d="M57.4514 25.47C58.9306 25.47 60.1297 24.4071 60.1297 23.0961C60.1297 21.785 58.9306 20.7222 57.4514 20.7222C55.9723 20.7222 54.7732 21.785 54.7732 23.0961C54.7732 24.4071 55.9723 25.47 57.4514 25.47Z" stroke="#FFCA42" stroke-width="2" stroke-miterlimit="10" stroke-linecap="round" stroke-linejoin="round"/>
<path d="M41.3819 46.47C46.2746 46.47 50.2408 42.9544 50.2408 38.6177C50.2408 34.281 46.2746 30.7654 41.3819 30.7654C36.4893 30.7654 32.523 34.281 32.523 38.6177C32.523 42.9544 36.4893 46.47 41.3819 46.47Z" stroke="#FFCA42" stroke-width="2" stroke-miterlimit="10"/>
<path d="M16.6598 45.1912C22.2351 45.1912 26.7548 41.1851 26.7548 36.2433C26.7548 31.3015 22.2351 27.2954 16.6598 27.2954C11.0844 27.2954 6.5647 31.3015 6.5647 36.2433C6.5647 41.1851 11.0844 45.1912 16.6598 45.1912Z" stroke="#FFCA42" stroke-width="2" stroke-miterlimit="10"/>
<path d="M66.1048 45.1912C71.6801 45.1912 76.1998 41.1851 76.1998 36.2433C76.1998 31.3015 71.6801 27.2954 66.1048 27.2954C60.5294 27.2954 56.0097 31.3015 56.0097 36.2433C56.0097 41.1851 60.5294 45.1912 66.1048 45.1912Z" stroke="#FFCA42" stroke-width="2" stroke-miterlimit="10"/>
<path d="M31.0811 48.6616C32.3172 47.0182 33.7594 45.7399 35.6136 44.8269" stroke="#FFCA42" stroke-width="2" stroke-miterlimit="10"/>
<path d="M53.949 54.5049C48.5925 54.5049 37.6733 54.5049 32.3168 54.5049C31.6987 54.5049 31.0806 54.5049 30.4626 54.5049" stroke="#FFCA42" stroke-width="2" stroke-miterlimit="10"/>
<path d="M47.9747 44.2781C50.447 45.1911 52.3012 46.8346 53.5373 48.6607" stroke="#FFCA42" stroke-width="2" stroke-miterlimit="10"/>
<path d="M24.0761 42.8176C28.6085 44.6437 31.6989 48.4785 32.5229 52.8612C32.729 53.7742 31.9049 54.5047 30.8748 54.5047C25.3122 54.5047 9.44855 54.5047 3.67995 54.5047C2.64985 54.5047 1.82576 53.5916 2.03178 52.8612C3.06189 48.4785 6.88414 44.6437 10.3865 42.8176" stroke="#FFCA42" stroke-width="2" stroke-miterlimit="10"/>
<path d="M73.5213 42.8176C78.0538 44.6437 81.1441 48.4785 81.9682 52.8612C82.1742 53.7742 81.3502 54.5047 80.32 54.5047C74.7575 54.5047 58.8938 54.5047 53.1252 54.5047C52.0951 54.5047 51.271 53.5916 51.4771 52.8612C52.5072 48.4785 54.8056 45.2188 59.1747 42.8176" stroke="#FFCA42" stroke-width="2" stroke-miterlimit="10"/>
</svg>
