<svg viewBox="0 0 61 55" fill="none" xmlns="http://www.w3.org/2000/svg">
<path d="M51.896 53.1535H8.63463C7.10776 53.1535 6.08984 52.2464 6.08984 50.8859V25.9429H54.4407V50.8859C54.4407 52.2464 53.4228 53.1535 51.896 53.1535Z" stroke="#FFCA42" stroke-width="1.5" stroke-miterlimit="10"/>
<path d="M51.896 53.1535H8.63463C7.10776 53.1535 6.08984 52.2464 6.08984 50.8859V25.9429H54.4407V50.8859C54.4407 52.2464 53.4228 53.1535 51.896 53.1535Z" stroke="#FFCA42" stroke-width="1.5" stroke-miterlimit="10"/>
<path d="M56.9852 25.9431H3.54478C2.01791 25.9431 1 25.0361 1 23.6755V19.1404C1 17.7798 2.01791 16.8728 3.54478 16.8728H56.9852C58.5121 16.8728 59.53 17.7798 59.53 19.1404V23.6755C59.53 25.0361 58.5121 25.9431 56.9852 25.9431Z" stroke="#FFCA42" stroke-width="1.5" stroke-miterlimit="10"/>
<path d="M56.9852 25.9431H3.54478C2.01791 25.9431 1 25.0361 1 23.6755V19.1404C1 17.7798 2.01791 16.8728 3.54478 16.8728H56.9852C58.5121 16.8728 59.53 17.7798 59.53 19.1404V23.6755C59.53 25.0361 58.5121 25.9431 56.9852 25.9431Z" stroke="#FFCA42" stroke-width="1.5" stroke-miterlimit="10"/>
<path d="M34.0819 16.8728H26.4476V53.1536H34.0819V16.8728Z" stroke="#FFCA42" stroke-width="1.5" stroke-miterlimit="10" stroke-linecap="round" stroke-linejoin="round"/>
<path d="M34.0819 16.8728H26.4476V53.1536H34.0819V16.8728Z" stroke="#FFCA42" stroke-width="1.5" stroke-miterlimit="10" stroke-linecap="round" stroke-linejoin="round"/>
<path d="M39.1716 16.8728C44.0067 16.8728 48.0783 13.2448 48.0783 8.93642C48.0783 4.62808 44.0067 1 39.1716 1C34.3365 1 30.2649 4.62808 30.2649 8.93642V16.8728H39.1716Z" stroke="#FFCA42" stroke-width="1.5" stroke-miterlimit="10" stroke-linecap="round" stroke-linejoin="round"/>
<path d="M39.1716 16.8728C44.0067 16.8728 48.0783 13.2448 48.0783 8.93642C48.0783 4.62808 44.0067 1 39.1716 1C34.3365 1 30.2649 4.62808 30.2649 8.93642V16.8728H39.1716Z" stroke="#FFCA42" stroke-width="1.5" stroke-miterlimit="10" stroke-linecap="round" stroke-linejoin="round"/>
<path d="M21.3585 16.8728H30.2653V8.9364C30.2653 4.62807 26.1936 1 21.3585 1C16.5234 1 12.4517 4.62807 12.4517 8.9364C12.4517 13.2447 16.5234 16.8728 21.3585 16.8728Z" stroke="#FFCA42" stroke-width="1.5" stroke-miterlimit="10" stroke-linecap="round" stroke-linejoin="round"/>
<path d="M21.3585 16.8728H30.2653V8.9364C30.2653 4.62807 26.1936 1 21.3585 1C16.5234 1 12.4517 4.62807 12.4517 8.9364C12.4517 13.2447 16.5234 16.8728 21.3585 16.8728Z" stroke="#FFCA42" stroke-width="1.5" stroke-miterlimit="10" stroke-linecap="round" stroke-linejoin="round"/>
</svg>
