<svg viewBox="0 0 88 56" fill="none" xmlns="http://www.w3.org/2000/svg">
<path d="M52.2862 14.0438L36.6091 13.8273L32.5778 3.43309C32.5778 3.21655 32.5778 3 33.0257 3C35.0414 3 37.057 3.21655 39.0726 5.16545C40.1924 3.86618 41.3122 3 44.6716 3C48.031 3 49.1508 3.86618 50.2706 5.382C52.2862 3.43309 54.3019 3.21655 56.5415 3.21655C56.7654 3.21655 56.9894 3.43309 56.9894 3.64964L52.2862 14.0438Z" stroke="#FFCA42" stroke-width="2" stroke-miterlimit="10"/>
<path d="M52.2862 14.0438L36.6091 13.8273L32.5778 3.43309C32.5778 3.21655 32.5778 3 33.0257 3C35.0414 3 37.057 3.21655 39.0726 5.16545C40.1924 3.86618 41.3122 3 44.6716 3C48.031 3 49.1508 3.86618 50.2706 5.382C52.2862 3.43309 54.3019 3.21655 56.5415 3.21655C56.7654 3.21655 56.9894 3.43309 56.9894 3.64964L52.2862 14.0438Z" stroke="#FFCA42" stroke-width="2" stroke-miterlimit="10"/>
<path d="M52.2868 14.0437H44.4482H36.6097C32.1305 18.3746 25.1878 25.9536 25.1878 33.316C24.9638 43.7101 33.4743 52.3719 44.0003 53.0215C54.5264 52.5884 63.2608 44.1432 63.2608 33.7491C63.2608 26.1701 56.542 18.3746 52.2868 14.0437Z" stroke="#FFCA42" stroke-width="2" stroke-miterlimit="10"/>
<path d="M52.2868 14.0437H44.4482H36.6097C32.1305 18.3746 25.1878 25.9536 25.1878 33.316C24.9638 43.7101 33.4743 52.3719 44.0003 53.0215C54.5264 52.5884 63.2608 44.1432 63.2608 33.7491C63.2608 26.1701 56.542 18.3746 52.2868 14.0437Z" stroke="#FFCA42" stroke-width="2" stroke-miterlimit="10"/>
<path d="M63.9317 20.7566L77.5932 20.9731L81.4005 12.0947C81.4005 11.8782 81.4005 11.6616 81.1765 11.6616C79.3848 11.6616 77.5932 11.8782 75.8015 13.394C74.9056 12.3113 73.7858 11.4451 70.8744 11.4451C67.9629 11.4451 66.8431 12.0947 65.9473 13.394C64.1556 11.6616 62.364 11.4451 60.5723 11.4451C60.3483 11.4451 60.1244 11.6616 60.3483 11.8782L63.9317 20.7566Z" stroke="#FFCA42" stroke-width="2" stroke-miterlimit="10"/>
<path d="M63.9317 20.7566L77.5932 20.9731L81.4005 12.0947C81.4005 11.8782 81.4005 11.6616 81.1765 11.6616C79.3848 11.6616 77.5932 11.8782 75.8015 13.394C74.9056 12.3113 73.7858 11.4451 70.8744 11.4451C67.9629 11.4451 66.8431 12.0947 65.9473 13.394C64.1556 11.6616 62.364 11.4451 60.5723 11.4451C60.3483 11.4451 60.1244 11.6616 60.3483 11.8782L63.9317 20.7566Z" stroke="#FFCA42" stroke-width="2" stroke-miterlimit="10"/>
<path d="M60.3488 24.4378C61.6925 22.922 62.8123 21.8393 63.9321 20.7566H70.6509H77.3697C81.177 24.6544 86.9999 31.1507 86.9999 37.8636C86.776 46.9584 79.3853 54.1043 70.203 54.5374C64.7402 54.1311 60.0658 51.4378 57.1046 47.5302" stroke="#FFCA42" stroke-width="2" stroke-miterlimit="10"/>
<path d="M60.3488 24.4378C61.6925 22.922 62.8123 21.8393 63.9321 20.7566H70.6509H77.3697C81.177 24.6544 86.9999 31.1507 86.9999 37.8636C86.776 46.9584 79.3853 54.1043 70.203 54.5374C64.7402 54.1311 60.0658 51.4378 57.1046 47.5302" stroke="#FFCA42" stroke-width="2" stroke-miterlimit="10"/>
<path d="M23.8436 20.7568H10.4062L6.37494 11.8784C6.37494 11.6619 6.37494 11.4453 6.5989 11.4453C8.39056 11.4453 10.1822 11.6619 11.9739 13.1777C13.0937 12.3115 13.9895 11.4453 16.9009 11.2288C19.8124 11.2288 20.9322 11.8784 21.828 13.1777C23.6197 11.4453 25.4113 11.2288 27.203 11.2288C27.4269 11.2288 27.6509 11.4453 27.4269 11.6619L23.8436 20.7568Z" stroke="#FFCA42" stroke-width="2" stroke-miterlimit="10"/>
<path d="M23.8436 20.7568H10.4062L6.37494 11.8784C6.37494 11.6619 6.37494 11.4453 6.5989 11.4453C8.39056 11.4453 10.1822 11.6619 11.9739 13.1777C13.0937 12.3115 13.9895 11.4453 16.9009 11.2288C19.8124 11.2288 20.9322 11.8784 21.828 13.1777C23.6197 11.4453 25.4113 11.2288 27.203 11.2288C27.4269 11.2288 27.6509 11.4453 27.4269 11.6619L23.8436 20.7568Z" stroke="#FFCA42" stroke-width="2" stroke-miterlimit="10"/>
<path d="M27.6511 24.4378C26.3074 22.922 25.1876 21.8393 24.0678 20.7566H17.349H10.6302C6.82294 24.6544 1 31.1507 1 37.8636C1.22396 46.9584 8.61461 54.1043 17.7969 54.5374C23.6199 54.1043 28.547 51.0727 31.4584 46.7418" stroke="#FFCA42" stroke-width="2" stroke-miterlimit="10"/>
<path d="M27.6511 24.4378C26.3074 22.922 25.1876 21.8393 24.0678 20.7566H17.349H10.6302C6.82294 24.6544 1 31.1507 1 37.8636C1.22396 46.9584 8.61461 54.1043 17.7969 54.5374C23.6199 54.1043 28.547 51.0727 31.4584 46.7418" stroke="#FFCA42" stroke-width="2" stroke-miterlimit="10"/>
<path d="M66.1719 36.9975H68.8594H72.4428C75.1303 36.9975 76.9219 35.4817 76.9219 33.0997C76.9219 30.7177 75.3542 29.2019 72.6667 29.2019H68.4115L68.1876 29.4184V43.2773M66.1719 40.0291H68.1876H68.6355H73.3386H66.1719Z" stroke="#FFCA42" stroke-width="2" stroke-miterlimit="10" stroke-linecap="round" stroke-linejoin="round"/>
<path d="M66.1719 36.9975H68.8594H72.4428C75.1303 36.9975 76.9219 35.4817 76.9219 33.0997C76.9219 30.7177 75.3542 29.2019 72.6667 29.2019H68.4115L68.1876 29.4184V43.2773M66.1719 40.0291H68.1876H68.6355H73.3386H66.1719Z" stroke="#FFCA42" stroke-width="2" stroke-miterlimit="10" stroke-linecap="round" stroke-linejoin="round"/>
<path d="M39.8765 32.9774H42.564H46.1474C48.8349 32.9774 50.6265 31.4616 50.6265 29.0797C50.6265 26.6977 49.0588 25.1819 46.3713 25.1819H42.1161L41.8922 25.3984V39.2572M39.8765 36.009H41.8922H42.3401H47.0432H39.8765Z" stroke="#FFCA42" stroke-width="2" stroke-miterlimit="10" stroke-linecap="round" stroke-linejoin="round"/>
<path d="M39.8765 32.9774H42.564H46.1474C48.8349 32.9774 50.6265 31.4616 50.6265 29.0797C50.6265 26.6977 49.0588 25.1819 46.3713 25.1819H42.1161L41.8922 25.3984V39.2572M39.8765 36.009H41.8922H42.3401H47.0432H39.8765Z" stroke="#FFCA42" stroke-width="2" stroke-miterlimit="10" stroke-linecap="round" stroke-linejoin="round"/>
<path d="M11.7496 36.9975H14.4371H18.0205C20.708 36.9975 22.4996 35.4817 22.4996 33.0997C22.4996 30.7177 20.9319 29.2019 18.2444 29.2019H13.9892L13.7653 29.4184V43.2773M11.7496 40.0291H13.7653H14.2132H18.9163H11.7496Z" stroke="#FFCA42" stroke-width="2" stroke-miterlimit="10" stroke-linecap="round" stroke-linejoin="round"/>
<path d="M11.7496 36.9975H14.4371H18.0205C20.708 36.9975 22.4996 35.4817 22.4996 33.0997C22.4996 30.7177 20.9319 29.2019 18.2444 29.2019H13.9892L13.7653 29.4184V43.2773M11.7496 40.0291H13.7653H14.2132H18.9163H11.7496Z" stroke="#FFCA42" stroke-width="2" stroke-miterlimit="10" stroke-linecap="round" stroke-linejoin="round"/>
</svg>
