<?xml version="1.0" encoding="utf-8"?>
<!-- Generator: Adobe Illustrator 24.0.2, SVG Export Plug-In . SVG Version: 6.00 Build 0)  -->
<svg version="1.1" id="Layer_1" xmlns="http://www.w3.org/2000/svg" xmlns:xlink="http://www.w3.org/1999/xlink" x="0px" y="0px"
	 viewBox="0 0 172.1 160.8" enable-background="new 0 0 172.1 160.8" xml:space="preserve">
<g>
	<rect fill="#00AA00" width="172.1" height="160.8"/>
	<g>
		<path fill="#00AA00" d="M100.4,95.2c0,6.5-5.3,11.8-11.8,11.8c-6.5,0-11.8-5.3-11.8-11.8c0-6.5,5.3-11.8,11.8-11.8
			C95.1,83.3,100.4,88.6,100.4,95.2z"/>
		<g>
			<g>
				<path fill="#57AC47" d="M87.1,82"/>
			</g>
			<path fill="#FFFFFF" d="M82.4,89.3c0-1.2,1-2.2,2.2-2.2c1.2,0,2.2,1,2.2,2.2c0,1.2-1,2.2-2.2,2.2C83.4,91.5,82.4,90.5,82.4,89.3z
				 M119.8,85.7h-5.7v-7.2h5.8c1.8,0,3.4,1.6,3.4,3.5C123.3,84.2,121.6,85.7,119.8,85.7z M120.8,99.8h-6.7v-7.5h6.7
				c2.2,0,3.9,1.6,3.9,3.7C124.7,98.3,123.1,99.8,120.8,99.8z M122.2,106.9c7.1,0,11.4-4.1,11.4-10.5c0-3.8-1.9-6.9-5.4-8.4
				c2.7-1.8,3.3-4.4,3.3-7.1c0-6.2-4.7-9.3-11.3-9.3h-20.1v6.9h5.8v21.3h-5.8v7.1H122.2z M77.1,71.5H63.6v14.1h-8.1V71.5H42.1v6.9
				h5.8v21.3h-5.8v7.1h13.4V92.3h8.1v14.6h13.4v-7.1h-5.6V78.5h5.6V71.5z M136.8,87.8c2.6,1.9,4.5,5.2,4.5,9c0,5.8-1.8,9.3-5,12.5
				c-3.2,3.2-8.5,5.2-14.8,5.2H92.7v-8.3c4.5-1.7,7.7-6,7.7-11.1c0-5.1-3.2-9.4-7.7-11.1V57.7h7.4v6.6h7.3V51.7H69.7v12.6h7.3v-6.6
				h7.4v26.3c-4.5,1.7-7.7,6-7.7,11.1c0,5.1,3.2,9.4,7.7,11.1v8.3H34.7V92.3h5.9v-6.6h-5.9V63.9h27.4V44.4h53.1v19.5h3.7
				c5.5,0,10.8,1.3,14.2,3.8c3.7,2.7,6,6.7,6,12.2C139.2,82.3,138.7,85.7,136.8,87.8z"/>
		</g>
	</g>
</g>
</svg>
