<svg width="204" height="60" viewBox="0 0 204 60" fill="none" xmlns="http://www.w3.org/2000/svg">
<path d="M196.444 60H7.55556C3.32444 60 0 56.7 0 52.5V7.5C0 3.3 3.32444 0 7.55556 0H196.444C200.676 0 204 3.3 204 7.5V52.5C204 56.7 200.676 60 196.444 60Z" fill="black"/>
<path d="M196.444 1.2C199.92 1.2 202.791 4.05 202.791 7.5V52.5C202.791 55.95 199.92 58.8 196.444 58.8H7.55556C4.08 58.8 1.20889 55.95 1.20889 52.5V7.5C1.20889 4.05 4.08 1.2 7.55556 1.2H196.444ZM196.444 0H7.55556C3.32444 0 0 3.45 0 7.5V52.5C0 56.7 3.32444 60 7.55556 60H196.444C200.676 60 204 56.7 204 52.5V7.5C204 3.45 200.676 0 196.444 0Z" fill="#A6A6A6"/>
<path d="M74.1929 18.4009L74.4722 14.1353H77.7539V20.7051H73.5771V20.6162C74.0024 20.1084 74.1294 19.4229 74.1929 18.4009ZM72.5552 22H79.0171V23.8091H80.3184V20.7051H79.1758V12.8403H73.209L72.8726 18.3247C72.8027 19.5435 72.5742 20.3115 71.9204 20.7051H71.2539V23.8091H72.5552V22ZM84.2504 18.8389L84.4408 16.2363H86.6307V22H87.9955V15.0874H83.2347L82.9935 18.769C82.911 19.9624 82.6698 20.7686 81.9969 20.7686C81.8255 20.7686 81.6922 20.7368 81.6288 20.7178V21.9937C81.7113 22.0254 81.87 22.0698 82.0985 22.0698C83.6283 22.0698 84.1171 20.8066 84.2504 18.8389ZM92.9748 18.5342C92.156 18.5342 91.6228 18.0708 91.6228 17.417C91.6228 16.687 92.1496 16.2363 92.9748 16.2363H94.2126V18.5342H92.9748ZM94.2126 22H95.5583V15.0874H92.905C91.3117 15.0874 90.2707 15.9824 90.2707 17.4233C90.2707 18.3755 90.8547 19.1118 91.8069 19.3848L89.9216 22H91.5085L93.1843 19.6323H94.2126V22Z" fill="white"/>
<path d="M72.8921 47H75.9072V33.6455H72.8921V47ZM74.3936 31.4727C75.5044 31.4727 76.2612 30.7646 76.2612 29.8003C76.2612 28.8359 75.5044 28.1279 74.3936 28.1279C73.2949 28.1279 72.5259 28.8359 72.5259 29.8003C72.5259 30.7646 73.2949 31.4727 74.3936 31.4727ZM80.2344 29.3853V47H83.3838V41.2261H87.2046C90.769 41.2261 93.2593 38.8335 93.2593 35.3423C93.2593 31.79 90.8545 29.3853 87.3389 29.3853H80.2344ZM83.3838 32.022H86.5088C88.7793 32.022 90.061 33.1816 90.061 35.3423C90.061 37.4419 88.7427 38.6138 86.4966 38.6138H83.3838V32.022ZM96.793 47H99.8203V39.2485C99.8203 37.332 101.078 36.0381 103.067 36.0381C104.923 36.0381 105.899 37.0757 105.899 39.1021V47H108.915V38.3818C108.915 35.208 107.181 33.4014 104.19 33.4014C102.201 33.4014 100.626 34.3047 99.9912 35.8062H99.7715V28.4819H96.793V47ZM118.527 44.7295C116.416 44.7295 115.207 43.1182 115.207 40.3228C115.207 37.5396 116.416 35.916 118.527 35.916C120.627 35.916 121.835 37.5396 121.835 40.3228C121.835 43.1182 120.639 44.7295 118.527 44.7295ZM118.527 47.2686C122.519 47.2686 124.948 44.6562 124.948 40.3228C124.948 36.0015 122.507 33.377 118.527 33.377C114.56 33.377 112.106 36.0137 112.106 40.3228C112.106 44.6562 114.523 47.2686 118.527 47.2686ZM128.25 47H131.277V39.2241C131.277 37.2588 132.498 36.0137 134.451 36.0137C136.282 36.0137 137.21 37.0391 137.21 39.0776V47H140.225V38.3574C140.225 35.1714 138.553 33.377 135.574 33.377C133.572 33.377 132.01 34.2925 131.375 35.7817H131.167V33.6455H128.25V47ZM149.679 35.7817C151.498 35.7817 152.694 37.0513 152.755 39.0288H146.469C146.603 37.0757 147.873 35.7817 149.679 35.7817ZM152.78 43.3257C152.34 44.3145 151.303 44.8638 149.801 44.8638C147.812 44.8638 146.53 43.4722 146.457 41.2505V41.0918H155.783V40.1152C155.783 35.9038 153.5 33.377 149.691 33.377C145.822 33.377 143.417 36.0747 143.417 40.3716C143.417 44.6685 145.785 47.2686 149.716 47.2686C152.865 47.2686 155.075 45.7549 155.648 43.3257H152.78Z" fill="white"/>
<path d="M45.9625 30.1665C45.9625 27.6508 47.2977 25.283 49.523 23.9511C48.1878 22.0273 45.9625 20.8434 43.5887 20.6954C41.0667 20.3994 38.6929 22.1753 37.3577 22.1753C36.0225 22.1753 34.0939 20.6954 32.0169 20.6954C29.1981 20.8434 26.676 22.3232 25.3408 24.691C22.522 29.5746 24.599 36.9739 27.4178 40.9695C28.753 42.8934 30.3849 45.1132 32.4619 45.1132C34.5389 44.9652 35.2807 43.7813 37.8028 43.7813C40.3249 43.7813 40.9183 45.1132 43.1437 45.1132C45.369 45.1132 46.7042 43.1893 48.0395 41.1175C49.078 39.7857 49.8198 38.1578 50.2648 36.5299C47.5944 35.642 45.9625 32.9783 45.9625 30.1665Z" fill="white"/>
<path d="M41.8084 18.1795C42.9953 16.6997 43.5887 14.9238 43.4404 13C41.6601 13.148 39.8798 14.0359 38.6929 15.5158C37.5061 16.8477 36.9126 18.6235 37.061 20.5473C38.9896 20.5473 40.6216 19.6594 41.8084 18.1795Z" fill="white"/>
</svg>
