<svg width="204" height="60" viewBox="0 0 204 60" fill="none" xmlns="http://www.w3.org/2000/svg">
<path d="M196.444 60H7.55556C3.32444 60 0 56.7 0 52.5V7.5C0 3.3 3.32444 0 7.55556 0H196.444C200.676 0 204 3.3 204 7.5V52.5C204 56.7 200.676 60 196.444 60Z" fill="black"/>
<path d="M196.444 1.2C199.92 1.2 202.791 4.05 202.791 7.5V52.5C202.791 55.95 199.92 58.8 196.444 58.8H7.55556C4.08 58.8 1.20889 55.95 1.20889 52.5V7.5C1.20889 4.05 4.08 1.2 7.55556 1.2H196.444ZM196.444 0H7.55556C3.32444 0 0 3.45 0 7.5V52.5C0 56.7 3.32444 60 7.55556 60H196.444C200.676 60 204 56.7 204 52.5V7.5C204 3.45 200.676 0 196.444 0Z" fill="#A6A6A6"/>
<path d="M74.1929 18.4009L74.4722 14.1353H77.7539V20.7051H73.5771V20.6162C74.0024 20.1084 74.1294 19.4229 74.1929 18.4009ZM72.5552 22H79.0171V23.8091H80.3184V20.7051H79.1758V12.8403H73.209L72.8726 18.3247C72.8027 19.5435 72.5742 20.3115 71.9204 20.7051H71.2539V23.8091H72.5552V22ZM84.2504 18.8389L84.4408 16.2363H86.6307V22H87.9955V15.0874H83.2347L82.9935 18.769C82.911 19.9624 82.6698 20.7686 81.9969 20.7686C81.8255 20.7686 81.6922 20.7368 81.6288 20.7178V21.9937C81.7113 22.0254 81.87 22.0698 82.0985 22.0698C83.6283 22.0698 84.1171 20.8066 84.2504 18.8389ZM92.9748 18.5342C92.156 18.5342 91.6228 18.0708 91.6228 17.417C91.6228 16.687 92.1496 16.2363 92.9748 16.2363H94.2126V18.5342H92.9748ZM94.2126 22H95.5583V15.0874H92.905C91.3117 15.0874 90.2707 15.9824 90.2707 17.4233C90.2707 18.3755 90.8547 19.1118 91.8069 19.3848L89.9216 22H91.5085L93.1843 19.6323H94.2126V22ZM106.399 20.8511H103.238V20.7432C103.549 20.3115 103.714 19.6196 103.778 18.8389L103.968 16.2363H106.399V20.8511ZM102.438 23.8091V22H107.567V23.8091H108.837V20.8511H107.758V15.0874H102.781L102.527 18.769C102.464 19.7021 102.235 20.54 101.727 20.8511H101.169V23.8091H102.438ZM114.197 14.9731C113.258 14.9731 112.445 15.4429 112.026 16.23H111.925V15.0874H110.611V24.2407H111.975V20.9526H112.083C112.445 21.6826 113.226 22.1143 114.21 22.1143C115.955 22.1143 117.066 20.7368 117.066 18.5405C117.066 16.3442 115.955 14.9731 114.197 14.9731ZM113.81 20.8892C112.667 20.8892 111.95 19.9878 111.95 18.5469C111.95 17.0996 112.667 16.1982 113.816 16.1982C114.971 16.1982 115.663 17.0806 115.663 18.5405C115.663 20.0068 114.971 20.8892 113.81 20.8892ZM119.653 24.5137C121.062 24.5137 121.715 23.9678 122.306 22.2856L124.883 15.0874H123.436L121.709 20.5781H121.601L119.868 15.0874H118.383L120.884 22.0254L120.782 22.3618C120.548 23.0601 120.179 23.333 119.532 23.333C119.405 23.333 119.195 23.3267 119.088 23.3076V24.4819C119.215 24.5073 119.538 24.5137 119.653 24.5137ZM131.335 16.2363V15.0874H126.784V22H128.148V16.2363H131.335ZM134.696 22L137.939 17.2202H138.047V22H139.399V15.0874H138.047L134.804 19.8418H134.696V15.0874H133.344V22H134.696ZM144.468 19.5498L145.972 22H147.54L145.236 18.5024L147.514 15.0874H145.997L144.525 17.5249H144.417L142.931 15.0874H141.338L143.649 18.5596L141.357 22H142.855L144.366 19.5498H144.468Z" fill="white"/>
<path d="M77.0676 32.7187C74.0761 32.7187 71 35.1159 71 39.3118C71 43.1477 73.7046 45.8571 77.0676 45.8571C79.8435 45.8571 81.0807 43.9938 81.0807 43.9938V44.8061C81.0807 45.1899 81.4437 45.6182 81.8929 45.6182H83.8995V33.0054H81.0807V34.606C81.0807 34.606 79.8332 32.7188 77.0676 32.7188V32.7187ZM77.5697 35.2978C80.0323 35.2978 81.3241 37.4636 81.3241 39.3109C81.3241 41.3684 79.7903 43.3226 77.5749 43.3226C75.7229 43.3226 73.8678 41.8227 73.8678 39.2837C73.8678 36.9918 75.4643 35.2978 77.5697 35.2978ZM87.8171 45.6182C87.3841 45.6182 87.0049 45.3076 87.0049 44.8061V33.0054H89.8237V34.5663C90.4625 33.6062 91.7104 32.7149 93.6258 32.7149C96.7564 32.7149 98.4234 35.2105 98.4234 37.5442V45.6183H96.4646C95.951 45.6183 95.6046 45.1883 95.6046 44.7583V38.1653C95.6046 36.8717 94.8121 35.3007 92.9792 35.3007C91.0014 35.3007 89.8237 37.1699 89.8237 38.9296V45.6183L87.8171 45.6182ZM106.641 32.7187C103.649 32.7187 100.573 35.1159 100.573 39.3118C100.573 43.1477 103.278 45.8571 106.641 45.8571C109.417 45.8571 110.654 43.9938 110.654 43.9938V44.8061C110.654 45.1899 111.017 45.6182 111.466 45.6182H113.473V26.699H110.654V34.6059C110.654 34.6059 109.406 32.7187 106.641 32.7187V32.7187ZM107.143 35.2978C109.606 35.2978 110.897 37.4636 110.897 39.3109C110.897 41.3684 109.364 43.3226 107.148 43.3226C105.296 43.3226 103.441 41.8227 103.441 39.2837C103.441 36.9918 105.038 35.2978 107.143 35.2978ZM117.39 45.6182C116.957 45.6182 116.578 45.3076 116.578 44.8061V33.0054H119.397V35.1076C119.882 33.93 120.929 32.8621 122.789 32.8621C123.308 32.8621 123.792 32.9577 123.792 32.9577V35.872C123.792 35.872 123.187 35.6331 122.455 35.6331C120.477 35.6331 119.397 37.5022 119.397 39.262V45.6183L117.39 45.6182ZM140.896 45.6182C140.463 45.6182 140.084 45.3076 140.084 44.8061V33.0054H142.903V45.6183L140.896 45.6182ZM151.168 32.7187C148.177 32.7187 145.1 35.1159 145.1 39.3118C145.1 43.1477 147.805 45.8571 151.168 45.8571C153.944 45.8571 155.181 43.9938 155.181 43.9938V44.8061C155.181 45.1899 155.544 45.6182 155.993 45.6182H158V26.699H155.181V34.6059C155.181 34.6059 153.934 32.7187 151.168 32.7187V32.7187ZM151.67 35.2978C154.133 35.2978 155.425 37.4636 155.425 39.3109C155.425 41.3684 153.891 43.3226 151.675 43.3226C149.823 43.3226 147.968 41.8227 147.968 39.2837C147.968 36.9918 149.565 35.2978 151.67 35.2978Z" fill="white"/>
<path d="M141.471 30.2849C142.501 30.2849 143.336 29.4502 143.336 28.4205C143.336 27.3909 142.501 26.5562 141.471 26.5562C140.442 26.5562 139.607 27.3909 139.607 28.4205C139.607 29.4502 140.442 30.2849 141.471 30.2849Z" fill="white"/>
<path d="M131.226 32.7144C128.093 32.7144 124.651 35.0529 124.651 39.2892C124.651 43.1496 127.583 45.8574 131.219 45.8574C135.701 45.8574 137.889 42.2548 137.889 39.3137C137.889 35.7046 135.071 32.7144 131.226 32.7144ZM131.236 35.3467C133.403 35.3467 135.019 37.0928 135.019 39.2972C135.019 41.5397 133.304 43.2702 131.243 43.2702C129.33 43.2702 127.471 41.7136 127.471 39.3349C127.471 36.9165 129.239 35.3467 131.236 35.3467Z" fill="white"/>
<path d="M47.8557 36.6776C46.8225 36.6776 45.982 35.8482 45.982 34.8294C45.982 33.8106 46.8225 32.9818 47.8557 32.9818C48.8891 32.9818 49.7295 33.8104 49.7295 34.8294C49.7295 35.8484 48.8891 36.6776 47.8557 36.6776ZM27.1443 36.6776C26.1111 36.6776 25.2706 35.8482 25.2706 34.8294C25.2706 33.8106 26.1109 32.9818 27.1443 32.9818C28.1775 32.9818 29.018 33.8104 29.018 34.8294C29.018 35.8484 28.1777 36.6776 27.1443 36.6776ZM48.5278 25.5476L52.2727 19.152C52.3758 18.9755 52.4037 18.7659 52.3502 18.5691C52.2967 18.3724 52.1663 18.2046 51.9875 18.1026C51.8085 18.001 51.596 17.9735 51.3965 18.0262C51.1969 18.0789 51.0268 18.2075 50.9233 18.3838L47.1315 24.8602C44.2316 23.5555 40.975 22.8285 37.5 22.8285C34.025 22.8285 30.7684 23.5555 27.8687 24.8602L24.0767 18.3838C23.9732 18.2075 23.8031 18.0789 23.6036 18.0262C23.404 17.9735 23.1915 18.001 23.0125 18.1026C22.8336 18.2045 22.7031 18.3723 22.6496 18.5691C22.5961 18.7658 22.6241 18.9755 22.7273 19.152L26.4722 25.5476C20.0416 28.9963 15.6434 35.4158 15 43H60C59.3561 35.416 54.9579 28.9963 48.5278 25.5474" fill="#3DDB85"/>
</svg>
