<svg width="46" height="45" viewBox="0 0 46 45" fill="none" xmlns="http://www.w3.org/2000/svg">
<path d="M44.4842 22.4822C44.4842 34.1857 34.8092 43.6689 22.8737 43.6689C10.9382 43.6689 1.26318 34.1857 1.26318 22.4822C1.26318 10.7828 10.9382 1.29541 22.8737 1.29541C34.8092 1.29541 44.4842 10.7828 44.4842 22.4822Z" fill=""/>
<path d="M44.4842 22.4822C44.4842 34.1858 34.8092 43.6689 22.8737 43.6689C10.9382 43.6689 1.26318 34.1858 1.26318 22.4822C1.26318 10.7828 10.9382 1.29541 22.8737 1.29541C34.8092 1.29541 44.4842 10.7828 44.4842 22.4822" stroke="#FFCD17" stroke-width="2.03393"/>
<path d="M30.5966 30.5639C30.3135 30.5639 30.0282 30.4918 29.7667 30.3414L21.2824 25.3795C20.794 25.0913 20.4937 24.5723 20.4937 24.0129V13.32C20.4937 12.4428 21.2198 11.731 22.1144 11.731C23.0091 11.731 23.7352 12.4428 23.7352 13.32V23.1104L31.4286 27.6083C32.1957 28.0596 32.4486 29.0342 31.9904 29.7884C31.6857 30.2863 31.1476 30.5639 30.5966 30.5639Z" fill="#FFCD17"/>
</svg>
