<svg width="48" height="42" viewBox="0 0 48 42" fill="none" xmlns="http://www.w3.org/2000/svg">
<path fill-rule="evenodd" clip-rule="evenodd" d="M40.034 15.0109H34.9997C31.2082 15.0175 28.1368 18.0122 28.13 21.7089C28.1248 25.4139 31.1997 28.4219 34.9997 28.4269H40.0265C41.7512 28.4269 43.1477 29.8289 43.1469 31.5536C43.1463 32.7764 43.1473 34.0608 43.1483 35.3316C43.1489 36.1511 43.1496 36.9649 43.1498 37.7529C43.1502 39.4687 41.7584 40.8566 40.0426 40.8566H4.67514C2.95595 40.8566 1.56227 39.463 1.56227 37.7438L1.56226 32.6854L1.56228 4.66958C1.56228 2.9504 2.95595 1.55672 4.67513 1.55671L15.2251 1.55664L40.034 1.55668C41.7532 1.55668 43.1468 2.9485 43.1468 4.66768V11.8996C43.1468 13.6188 41.7532 15.0109 40.034 15.0109ZM21.6593 11.8831C22.4522 11.8831 23.095 11.2404 23.095 10.4475C23.095 9.65459 22.4522 9.01182 21.6593 9.01182H10.56C9.76708 9.01182 9.12432 9.65459 9.12432 10.4475C9.12432 11.2404 9.76708 11.8831 10.56 11.8831H21.6593Z" fill=""/>
<path d="M34.9997 15.0109V14.0378L34.9979 14.0378L34.9997 15.0109ZM28.13 21.7089L27.1569 21.7071V21.7076L28.13 21.7089ZM34.9997 28.4269L34.9984 29.4H34.9997V28.4269ZM43.1469 31.5536L44.12 31.5541L43.1469 31.5536ZM43.1483 35.3316L44.1214 35.3309V35.3309L43.1483 35.3316ZM43.1498 37.7529L44.1229 37.7526L43.1498 37.7529ZM1.56227 37.7438L2.53536 37.7438L1.56227 37.7438ZM1.56226 32.6854H0.589162V32.6854L1.56226 32.6854ZM1.56228 4.66958L2.53537 4.66958L1.56228 4.66958ZM4.67513 1.55671L4.67514 2.52981L4.67513 1.55671ZM15.2251 1.55664L15.2251 0.583547H15.2251L15.2251 1.55664ZM40.034 1.55668V0.583584V1.55668ZM34.9997 15.984H40.034V14.0378H34.9997V15.984ZM29.103 21.7107C29.1089 18.573 31.7228 15.9897 35.0014 15.984L34.9979 14.0378C30.6937 14.0453 27.1647 17.4514 27.1569 21.7071L29.103 21.7107ZM35.0009 27.4539C31.7154 27.4495 29.0987 24.8551 29.103 21.7103L27.1569 21.7076C27.151 25.9727 30.684 29.3944 34.9984 29.4L35.0009 27.4539ZM40.0265 27.4539H34.9997V29.4H40.0265V27.4539ZM44.12 31.5541C44.1211 29.2936 42.2908 27.4539 40.0265 27.4539V29.4C41.2117 29.4 42.1744 30.3641 42.1738 31.5532L44.12 31.5541ZM44.1214 35.3309C44.1204 34.0599 44.1194 32.7761 44.12 31.5541L42.1738 31.5532C42.1732 32.7766 42.1742 34.0617 42.1752 35.3324L44.1214 35.3309ZM44.1229 37.7526C44.1227 36.9644 44.122 36.1503 44.1214 35.3309L42.1752 35.3324C42.1758 36.1519 42.1765 36.9655 42.1767 37.7531L44.1229 37.7526ZM40.0426 41.8297C42.2942 41.8297 44.1234 40.0077 44.1229 37.7526L42.1767 37.7531C42.177 38.9297 41.2226 39.8836 40.0426 39.8836V41.8297ZM4.67514 41.8297H40.0426V39.8836H4.67514V41.8297ZM0.589176 37.7438C0.589182 40.0004 2.41853 41.8297 4.67514 41.8297V39.8836C3.49338 39.8836 2.53537 38.9255 2.53536 37.7438L0.589176 37.7438ZM0.589162 32.6854L0.589176 37.7438L2.53536 37.7438L2.53535 32.6854L0.589162 32.6854ZM0.589185 4.66958L0.589162 32.6854H2.53535L2.53537 4.66958L0.589185 4.66958ZM4.67512 0.583618C2.41852 0.583634 0.589187 2.41298 0.589185 4.66958L2.53537 4.66958C2.53537 3.48782 3.49338 2.52981 4.67514 2.52981L4.67512 0.583618ZM15.2251 0.583547L4.67512 0.583618L4.67514 2.52981L15.2251 2.52973L15.2251 0.583547ZM40.034 0.583584L15.2251 0.583547L15.2251 2.52973L40.034 2.52977V0.583584ZM44.1199 4.66768C44.1199 2.41031 42.2898 0.583587 40.034 0.583584V2.52977C41.2165 2.52977 42.1738 3.48668 42.1738 4.66768H44.1199ZM44.1199 11.8996V4.66768H42.1738V11.8996H44.1199ZM40.034 15.984C42.29 15.984 44.1199 14.1568 44.1199 11.8996H42.1738C42.1738 13.0807 41.2164 14.0378 40.034 14.0378V15.984ZM22.1219 10.4475C22.1219 10.7029 21.9148 10.91 21.6593 10.91V12.8562C22.9896 12.8562 24.0681 11.7778 24.0681 10.4475H22.1219ZM21.6593 9.98492C21.9148 9.98492 22.1219 10.192 22.1219 10.4475H24.0681C24.0681 9.11716 22.9896 8.03873 21.6593 8.03873V9.98492ZM10.56 9.98492H21.6593V8.03873H10.56V9.98492ZM10.0974 10.4475C10.0974 10.192 10.3045 9.98492 10.56 9.98492V8.03873C9.22966 8.03873 8.15123 9.11716 8.15123 10.4475H10.0974ZM10.56 10.91C10.3045 10.91 10.0974 10.7029 10.0974 10.4475H8.15123C8.15123 11.7778 9.22966 12.8562 10.56 12.8562V10.91ZM21.6593 10.91H10.56V12.8562H21.6593V10.91Z" fill="#FFCD17"/>
<path d="M31.6821 22.5558C32.0844 24.3858 33.6889 25.6734 35.5207 25.6399H46.0686C46.8307 25.6399 47.449 25.0087 47.449 24.2285V19.3579C47.4473 18.5794 46.8307 17.9465 46.0686 17.9448H35.3735C33.2898 17.9515 31.6068 19.6811 31.6101 21.8125C31.6101 22.0619 31.6346 22.3114 31.6821 22.5558Z" fill="#FFCD17"/>
<circle cx="35.4581" cy="21.7921" r="2.89702" fill="#2D3136" stroke="" stroke-width="1.94619"/>
</svg>
