<svg width="42" height="49" viewBox="0 0 42 49" fill="none" xmlns="http://www.w3.org/2000/svg">
<path d="M37.2384 24.5386C36.9444 24.166 36.7386 23.7312 36.6427 23.2664C35.919 19.7598 35.433 16.2494 35.0025 12.7274C34.2502 6.57242 29.0698 2 22.869 2C22.3448 2 21.8371 2 21.3562 2H21.1513C20.6687 2 20.1559 2 19.6242 2C13.4298 2 8.25229 6.56339 7.50299 12.7123C7.06891 16.2745 6.57958 19.8248 5.84316 23.3712C5.7607 23.7684 5.59775 24.1442 5.36801 24.4785L2.10975 29.2193C1.75317 29.7381 1.56229 30.35 1.56228 30.9796C1.56227 32.0365 1.56226 33.7923 1.56226 35.367C1.56225 37.0862 2.95617 38.479 4.6753 38.479C7.58688 38.479 10.2816 38.479 10.2816 38.479H21.1514H37.9295C39.595 38.479 40.9452 37.1289 40.9452 35.4634C40.9452 34.3808 40.9452 31.7921 40.9452 30.3163C40.9452 29.6168 40.7095 28.9389 40.2763 28.3897L37.2384 24.5386Z" fill="" stroke="#FFCD17" stroke-width="2.05923"/>
<path d="M28.4383 44.3002C29.2126 43.3123 28.487 41.9116 27.2319 41.9116H14.9044C13.5493 41.9116 12.8533 43.5126 13.8081 44.4743C14.6796 45.3519 15.5715 46.2023 16.0852 46.5569L16.0829 46.5592C17.2502 47.4691 18.6201 48.0478 20.0545 48.2554C20.8189 48.3604 21.5971 48.3557 22.3892 48.2554C23.8213 48.0478 25.1912 47.4691 26.3585 46.5592L26.3562 46.5569C26.889 46.1891 27.699 45.2432 28.4383 44.3002Z" fill="#FFCD17"/>
</svg>
