<svg width="41" height="44" viewBox="0 0 41 44" fill="none" xmlns="http://www.w3.org/2000/svg">
<path d="M32.3976 11.5487V18.1044C31.3791 17.7579 30.2499 17.5596 29.0985 17.5596H29.0763V11.5487C29.0763 6.99459 25.3122 3.2685 20.6625 3.2685H20.6403C15.9906 3.2685 12.2265 6.95319 12.2043 11.5051V17.5596V17.6452C11.0529 17.6452 9.92372 17.7579 8.88306 18.1044V11.5487C8.9052 5.14462 14.1749 0 20.6182 0H20.6846C27.1279 0 32.3976 5.18602 32.3976 11.5487Z" fill="#FFCD17"/>
<path fill-rule="evenodd" clip-rule="evenodd" d="M36.2416 18.0508C37.9608 18.0508 39.3545 19.4445 39.3545 21.1637V26.507V39.8409C39.3545 41.5601 37.9608 42.9538 36.2416 42.9538H29.1953H5.11287C3.39368 42.9538 2 41.5601 2 39.8409V34.4975V26.507L2.00009 21.1636C2.00012 19.4444 3.39379 18.0508 5.11296 18.0508H12.1368H29.1953H36.2416ZM20.6409 34.895C21.7259 34.895 22.5894 34.0452 22.5894 32.9774V28.1401C22.5894 27.0963 21.7259 26.2443 20.6409 26.2443C19.5781 26.2443 18.7146 27.0963 18.7146 28.1401V32.9774C18.7146 34.0452 19.5781 34.895 20.6409 34.895Z" fill=""/>
<path d="M2 26.507L0.970386 26.507V26.507H2ZM2.00009 21.1636L3.0297 21.1636L2.00009 21.1636ZM40.3841 21.1637C40.3841 18.8758 38.5294 17.0212 36.2416 17.0212V19.0804C37.3921 19.0804 38.3248 20.0131 38.3248 21.1637H40.3841ZM40.3841 26.507V21.1637H38.3248V26.507H40.3841ZM40.3841 39.8409V26.507H38.3248V39.8409H40.3841ZM36.2416 43.9834C38.5294 43.9834 40.3841 42.1287 40.3841 39.8409H38.3248C38.3248 40.9914 37.3921 41.9241 36.2416 41.9241V43.9834ZM29.1953 43.9834H36.2416V41.9241H29.1953V43.9834ZM5.11287 43.9834H29.1953V41.9241H5.11287V43.9834ZM0.970386 39.8409C0.970386 42.1287 2.82504 43.9834 5.11287 43.9834V41.9241C3.96232 41.9241 3.02961 40.9914 3.02961 39.8409H0.970386ZM0.970386 34.4975V39.8409H3.02961V34.4975H0.970386ZM0.970386 26.507V34.4975H3.02961V26.507H0.970386ZM0.970474 21.1636L0.970386 26.507L3.02961 26.507L3.0297 21.1636L0.970474 21.1636ZM5.11296 17.0212C2.82516 17.0212 0.970513 18.8758 0.970474 21.1636L3.0297 21.1636C3.02972 20.0131 3.96242 19.0804 5.11296 19.0804V17.0212ZM12.1368 17.0212H5.11296V19.0804H12.1368V17.0212ZM29.1953 17.0212H12.1368V19.0804H29.1953V17.0212ZM36.2416 17.0212H29.1953V19.0804H36.2416V17.0212ZM21.5598 32.9774C21.5598 33.461 21.1728 33.8654 20.6409 33.8654V35.9246C22.2789 35.9246 23.619 34.6293 23.619 32.9774H21.5598ZM21.5598 28.1401V32.9774H23.619V28.1401H21.5598ZM20.6409 27.274C21.1798 27.274 21.5598 27.6873 21.5598 28.1401H23.619C23.619 26.5054 22.2719 25.2147 20.6409 25.2147V27.274ZM19.7442 28.1401C19.7442 27.6797 20.1319 27.274 20.6409 27.274V25.2147C19.0243 25.2147 17.685 26.513 17.685 28.1401H19.7442ZM19.7442 32.9774V28.1401H17.685V32.9774H19.7442ZM20.6409 33.8654C20.1389 33.8654 19.7442 33.4687 19.7442 32.9774H17.685C17.685 34.6217 19.0174 35.9246 20.6409 35.9246V33.8654Z" fill="#FFCD17"/>
</svg>
