<svg width="22" height="25" viewBox="0 0 22 25" fill="none" xmlns="http://www.w3.org/2000/svg">
<path d="M10.7665 23.9353C10.9507 24.141 11.2494 24.141 11.4335 23.9353C11.6177 23.7295 11.6177 23.396 11.4335 23.1902L10.7665 23.9353ZM0.999991 12.2813L0.666481 11.9088C0.482289 12.1145 0.482289 12.4481 0.666481 12.6539L0.999991 12.2813ZM11.4335 1.37244C11.6177 1.1667 11.6177 0.833137 11.4335 0.627401C11.2494 0.421664 10.9507 0.421664 10.7665 0.627401L11.4335 1.37244ZM11.4335 23.1902L1.3335 11.9088L0.666481 12.6539L10.7665 23.9353L11.4335 23.1902ZM1.3335 12.6539L11.4335 1.37244L10.7665 0.627401L0.666481 11.9088L1.3335 12.6539Z" fill="black" fill-opacity="0.5"/>
</svg>
