<svg width="232" height="37" viewBox="0 0 232 37" fill="none" xmlns="http://www.w3.org/2000/svg">
<rect width="232" height="37" rx="15" fill="white"/>
<g clip-path="url(#clip0)">
<rect width="69" height="19" transform="translate(150 10)" fill="white"/>
<path fill-rule="evenodd" clip-rule="evenodd" d="M168.593 10V10.0083C168.585 10.0083 165.898 10 165.182 12.4974C164.525 14.7873 162.674 21.1096 162.623 21.2838H162.111C162.111 21.2838 160.218 14.8205 159.553 12.4891C158.836 9.9917 156.141 10 156.141 10H150V29H156.141V17.7162H156.397H156.653L160.235 29H164.499L168.082 17.7245H168.593V29H174.734V10H168.593Z" fill="#4DB45E"/>
<path fill-rule="evenodd" clip-rule="evenodd" d="M191.025 10C191.025 10 189.225 10.1576 188.381 11.9913L184.031 21.2838H183.519V10H177.378V29H183.178C183.178 29 185.063 28.8341 185.907 27.0087L190.172 17.7162H190.684V29H196.824V10H191.025Z" fill="#4DB45E"/>
<path fill-rule="evenodd" clip-rule="evenodd" d="M199.554 18.6287V28.9998H205.695V22.9431H212.347C215.247 22.9431 217.704 21.1426 218.616 18.6287H199.554Z" fill="#4DB45E"/>
<path fill-rule="evenodd" clip-rule="evenodd" d="M212.347 10H198.692C199.375 13.6175 202.164 16.5214 205.771 17.4672C206.59 17.683 207.452 17.7991 208.339 17.7991H218.864C218.957 17.3677 219 16.9279 219 16.4716C219 12.8956 216.023 10 212.347 10Z" fill="url(#paint0_linear)"/>
</g>
<g clip-path="url(#clip1)">
<path d="M38.5666 28.7258H33.7872L36.7766 10.3333H41.5558L38.5666 28.7258Z" fill="#00579F"/>
<path d="M55.8924 10.783C54.9497 10.4109 53.4544 10 51.6056 10C46.8858 10 43.5621 12.5044 43.5417 16.0849C43.5025 18.7266 45.9214 20.1938 47.7305 21.0747C49.5796 21.9747 50.2081 22.5622 50.2081 23.3645C50.1893 24.5967 48.714 25.1646 47.3379 25.1646C45.4298 25.1646 44.4073 24.8718 42.8536 24.1863L42.2242 23.8924L41.5554 28.0211C42.6764 28.5293 44.7416 28.9802 46.8858 29C51.9007 29 55.1655 26.5344 55.2042 22.7188C55.2233 20.625 53.946 19.0207 51.1924 17.7097C49.5208 16.8682 48.497 16.3007 48.497 15.4397C48.5166 14.6569 49.3629 13.8551 51.2499 13.8551C52.8037 13.8159 53.9453 14.1875 54.8101 14.5594L55.2424 14.7547L55.8924 10.783Z" fill="#00579F"/>
<path d="M62.2447 22.2099C62.6383 21.1533 64.1529 17.0639 64.1529 17.0639C64.133 17.1031 64.5457 15.9877 64.7817 15.303L65.1157 16.8878C65.1157 16.8878 66.0208 21.2904 66.2173 22.2099C65.4703 22.2099 63.1887 22.2099 62.2447 22.2099ZM68.1443 10.3333H64.4474C63.3074 10.3333 62.4412 10.6656 61.9494 11.8593L54.8502 28.7255H59.865C59.865 28.7255 60.6907 26.4554 60.8681 25.9665C61.4183 25.9665 66.2968 25.9665 67.0045 25.9665C67.1417 26.6122 67.5748 28.7255 67.5748 28.7255H72.0001L68.1443 10.3333Z" fill="#00579F"/>
<path d="M29.7953 10.3333L25.1146 22.8752L24.6032 20.3315C23.7378 17.3965 21.0239 14.2076 17.9953 12.622L22.2826 28.7063H27.3367L34.8491 10.3333H29.7953Z" fill="#00579F"/>
<path d="M20.7683 10.3333H13.0787L13 10.7049C18.9984 12.2312 22.971 15.9102 24.6032 20.3323L22.9315 11.8793C22.6563 10.7046 21.8106 10.372 20.7683 10.3333Z" fill="#FAA61A"/>
</g>
<path d="M114.104 10.2944H104.694V27.1632H114.104V10.2944Z" fill="#FF5F00"/>
<path d="M105.292 18.7303C105.29 17.1055 105.659 15.5016 106.371 14.0401C107.082 12.5785 108.118 11.2976 109.399 10.2944C107.813 9.05073 105.908 8.27734 103.901 8.06266C101.895 7.84798 99.8686 8.20068 98.0537 9.08044C96.2388 9.9602 94.7087 11.3315 93.6382 13.0377C92.5677 14.7439 92 16.7161 92 18.7288C92 20.7416 92.5677 22.7138 93.6382 24.42C94.7087 26.1261 96.2388 27.4975 98.0537 28.3772C99.8686 29.257 101.895 29.6097 103.901 29.395C105.908 29.1803 107.813 28.4069 109.399 27.1632C108.118 26.1604 107.083 24.88 106.371 23.419C105.66 21.958 105.291 20.3546 105.292 18.7303Z" fill="#EB001B"/>
<path d="M126.8 18.7301C126.8 20.743 126.233 22.7153 125.162 24.4216C124.091 26.1278 122.561 27.4991 120.746 28.3787C118.931 29.2584 116.904 29.6109 114.898 29.3959C112.891 29.1809 110.986 28.4071 109.399 27.163C110.68 26.1592 111.715 24.8785 112.427 23.4174C113.139 21.9563 113.509 20.3531 113.509 18.7286C113.509 17.1041 113.139 15.5009 112.427 14.0398C111.715 12.5787 110.68 11.298 109.399 10.2942C110.986 9.05012 112.891 8.27635 114.898 8.06136C116.904 7.84638 118.931 8.19885 120.746 9.07848C122.561 9.95812 124.091 11.3294 125.162 13.0357C126.233 14.7419 126.8 16.7142 126.8 18.7271V18.7301Z" fill="#F79E1B"/>
<path d="M125.773 25.3747V25.029H125.913V24.9575H125.558V25.029H125.71V25.3747H125.773ZM126.463 25.3747V24.9575H126.355L126.23 25.2555L126.104 24.9575H126.009V25.3747H126.086V25.0618L126.203 25.333H126.283L126.4 25.0618V25.3777L126.463 25.3747Z" fill="#F79E1B"/>
<defs>
<linearGradient id="paint0_linear" x1="198.694" y1="13.8996" x2="219" y2="13.8996" gradientUnits="userSpaceOnUse">
<stop offset="0.3" stop-color="#00B4E6"/>
<stop offset="1" stop-color="#088CCB"/>
</linearGradient>
<clipPath id="clip0">
<rect width="69" height="19" fill="white" transform="translate(150 10)"/>
</clipPath>
<clipPath id="clip1">
<rect width="59" height="19" fill="white" transform="translate(13 10)"/>
</clipPath>
</defs>
</svg>
